<svg width="30" height="32" viewBox="0 0 30 32" fill="none" xmlns="http://www.w3.org/2000/svg">
<path d="M25.32 6.80533V3.43464C25.32 1.54668 23.7733 0 21.8853 0H7.95466C6.06664 0 4.51996 1.54668 4.51996 3.43464V13.5786L0.903952 17.1947C-0.301317 18.4107 -0.301317 20.3733 0.903952 21.5893L4.51996 25.1947V28.5653C4.51996 30.4533 6.06664 32 7.95466 32H21.8853C23.7733 32 25.32 30.4533 25.32 28.5653V18.4213L28.936 14.8053C30.1413 13.5893 30.1413 11.6266 28.936 10.4107L25.32 6.80533ZM23.1866 28.5653C23.1866 29.28 22.6 29.8667 21.8853 29.8667H7.95466C7.23995 29.8667 6.6533 29.28 6.6533 28.5653V3.43464C6.6533 2.71999 7.23995 2.13333 7.95466 2.13333H21.8853C22.6 2.13333 23.1866 2.71999 23.1866 3.43464V28.5653Z" fill="#3ADAE0"/>
<path d="M21.165 3.29053H19.1936C18.6046 3.29053 18.127 3.76762 18.127 4.35719C18.127 4.94677 18.6046 5.42386 19.1936 5.42386H21.165C21.754 5.42386 22.2316 4.94677 22.2316 4.35719C22.2316 3.76762 21.754 3.29053 21.165 3.29053Z" fill="#3ADAE0"/>
<path d="M10.6454 26.5759H8.67409C8.08502 26.5759 7.60742 27.053 7.60742 27.6426C7.60742 28.2322 8.08502 28.7093 8.67409 28.7093H10.6454C11.2345 28.7093 11.7121 28.2322 11.7121 27.6426C11.7121 27.053 11.2345 26.5759 10.6454 26.5759Z" fill="#3ADAE0"/>
<path d="M12.5533 19.1999V12.0532H10.6867C10.292 12.7785 9.68401 12.9385 8.90534 12.9385H8.63867V14.2932H10.548V19.1999H12.5533Z" fill="#3ADAE0"/>
<path d="M17.5904 19.3065C19.7878 19.3065 21.0678 18.5919 21.0678 17.1839C21.0678 16.0959 20.3424 15.5945 19.2758 15.4772V15.3385C20.2251 15.2319 20.7264 14.6985 20.7264 13.8665C20.7264 12.5759 19.6491 11.9465 17.6651 11.9465C15.2331 11.9465 14.0491 12.9599 14.0491 14.5492V14.5599H16.1824V14.5279C16.1824 13.9945 16.3744 13.8665 17.4731 13.8665C18.5398 13.8665 18.7318 13.9839 18.7318 14.3252C18.7318 14.5919 18.6038 14.7305 18.2091 14.7305H16.2358V16.3732H18.3584C18.8278 16.3732 19.0304 16.4905 19.0304 16.8425C19.0304 17.2799 18.7104 17.3865 17.4944 17.3865C16.2251 17.3865 16.1824 17.2585 16.1824 16.7252V16.5332H14.0491V16.7039C14.0491 18.3999 15.1798 19.3065 17.5904 19.3065Z" fill="#3ADAE0"/>
</svg>
