<svg width="40" height="40" viewBox="0 0 40 40" fill="none" xmlns="http://www.w3.org/2000/svg">
<path d="M7.44569 30.0215C9.34869 30.0215 10.8914 28.4788 10.8914 26.5758C10.8914 24.6728 9.34869 23.1301 7.44569 23.1301C5.54269 23.1301 4 24.6728 4 26.5758C4 28.4788 5.54269 30.0215 7.44569 30.0215Z" fill="#3ADAE0"/>
<path d="M8.04261 21.5288C9.26348 21.5288 10.2532 20.5391 10.2532 19.3182C10.2532 18.0974 9.26348 17.1077 8.04261 17.1077C6.82174 17.1077 5.83203 18.0974 5.83203 19.3182C5.83203 20.5391 6.82174 21.5288 8.04261 21.5288Z" fill="#3ADAE0"/>
<path d="M26.1267 18.8442C26.2637 18.7342 26.3972 18.6242 26.5306 18.5161C26.664 18.4079 26.7903 18.2979 26.9165 18.1915C27.0427 18.0833 27.1671 17.9805 27.2879 17.876C27.4069 17.7696 27.5259 17.6668 27.6413 17.564C27.8739 17.3621 28.0885 17.1619 28.2958 16.9726C28.5032 16.7851 28.6961 16.6012 28.8764 16.4281C29.2406 16.0855 29.5472 15.7754 29.8014 15.5247C30.0556 15.2723 30.2504 15.0668 30.3856 14.9297C30.5172 14.7945 30.5371 14.7819 30.5389 14.7819L19.6284 8.55944C16.821 6.9583 13.332 8.98496 13.332 12.2161V15.9214C14.2282 15.4508 15.2451 15.184 16.327 15.184C19.742 15.184 22.5314 17.8417 22.7549 21.2009C23.3103 20.8691 23.8494 20.5229 24.3579 20.1695C24.989 19.7349 25.5768 19.2824 26.1267 18.8442Z" fill="#3ADAE0"/>
<path d="M17.9681 23.6926C17.1513 23.8405 16.3291 23.8982 15.5376 23.8369C14.746 23.781 13.9869 23.5916 13.3288 23.2779C12.6707 22.9642 12.1171 22.5152 11.7511 21.9941C11.5672 21.7345 11.4302 21.4586 11.3418 21.1809C11.3346 21.1575 11.3328 21.134 11.3256 21.1106C11.3057 21.2891 11.2949 21.4694 11.2949 21.6533C11.2949 24.4084 13.5289 26.6425 16.2841 26.6425C18.6785 26.6425 20.6782 24.9548 21.1614 22.7045C20.9054 22.8127 20.6511 22.9245 20.3879 23.0201C19.5981 23.3104 18.7867 23.5502 17.9681 23.6926Z" fill="#3ADAE0"/>
<path d="M11.8887 21.895C12.2566 22.3746 12.7975 22.7785 13.434 23.0507C14.0723 23.323 14.8007 23.4727 15.558 23.4961C16.3171 23.5249 17.1032 23.4366 17.8822 23.2617C18.6629 23.0922 19.4364 22.8272 20.1883 22.517C20.5489 22.3674 20.9041 22.2033 21.2539 22.0302C21.263 21.9058 21.2738 21.7814 21.2738 21.6551C21.2738 18.9 19.0398 16.666 16.2846 16.666C13.8216 16.666 11.7805 18.4529 11.373 20.8005C11.4524 21.1701 11.6219 21.5506 11.8887 21.895Z" fill="#3ADAE0"/>
<path d="M33.8746 16.6859L30.9337 15.009L31.4909 15.3282C31.4909 15.3282 31.2817 15.559 31.1393 15.6942C30.9968 15.8276 30.7895 16.0278 30.5208 16.2748C30.2504 16.52 29.9258 16.8229 29.54 17.1565C29.3488 17.3242 29.1451 17.5045 28.9251 17.6866C28.7069 17.8705 28.4797 18.0671 28.2345 18.2618C28.1119 18.361 27.9893 18.4619 27.8613 18.5647C27.7351 18.6675 27.6016 18.7685 27.4682 18.873C27.3348 18.9758 27.1995 19.084 27.0607 19.1886C26.9201 19.2932 26.7776 19.3995 26.6334 19.5059C26.0528 19.9315 25.4325 20.3696 24.769 20.7897C24.1343 21.1954 23.4599 21.5903 22.7604 21.9581C22.5927 25.3714 19.7817 28.0886 16.327 28.0886C15.2451 28.0886 14.2264 27.8217 13.332 27.3511V28.4708C13.332 31.702 16.821 33.7286 19.6284 32.1275L33.8764 24.0028C36.7072 22.3836 36.7072 18.3015 33.8746 16.6859Z" fill="#3ADAE0"/>
</svg>
