<svg width="40" height="40" viewBox="0 0 40 40" fill="none" xmlns="http://www.w3.org/2000/svg">
<path fill-rule="evenodd" clip-rule="evenodd" d="M5.75736 5.75736C4 7.51472 4 10.3431 4 16V24C4 29.6569 4 32.4853 5.75736 34.2426C7.51472 36 10.3431 36 16 36H24C29.6569 36 32.4853 36 34.2426 34.2426C36 32.4853 36 29.6569 36 24V16C36 10.3431 36 7.51472 34.2426 5.75736C32.4853 4 29.6569 4 24 4H16C10.3431 4 7.51472 4 5.75736 5.75736ZM8.07657 23.2143C10.3281 23.2143 11.7143 22.0321 11.7143 20.1071C11.7143 18.1954 10.3281 17 8.07657 17H5.935C5.82129 17 5.71203 17.0409 5.63072 17.114C5.54942 17.1872 5.50249 17.2866 5.5 17.3911V22.8144C5.5 22.8669 5.51121 22.9189 5.53311 22.9674C5.55496 23.0159 5.58697 23.06 5.62737 23.0971C5.66776 23.1343 5.71578 23.1638 5.76856 23.1838C5.82134 23.2039 5.87791 23.2143 5.935 23.2143H8.07657ZM8.07657 18.67C9.13776 18.67 9.72093 19.2282 9.72093 20.1071C9.72093 20.9949 9.13776 21.5443 8.07657 21.5443H7.49811V18.67H8.07657ZM16.9355 21.7046C16.9984 21.7046 17.0606 21.7147 17.1185 21.7344C17.1765 21.7541 17.2292 21.7829 17.2734 21.8192C17.3176 21.8556 17.3524 21.8987 17.376 21.9461C17.3996 21.9934 17.4114 22.0441 17.4107 22.0952V22.8149C17.4122 22.9189 17.363 23.0192 17.274 23.094C17.1851 23.1688 17.0635 23.212 16.9355 23.2143H12.7127C12.5843 23.212 12.462 23.1689 12.3722 23.0943C12.2824 23.0196 12.2321 22.9194 12.2321 22.8149V17.3906C12.2349 17.2877 12.2864 17.1897 12.376 17.1169C12.4655 17.0442 12.5862 17.0023 12.7127 17H16.8221C16.8859 16.9995 16.9492 17.0091 17.0085 17.0284C17.0677 17.0477 17.1217 17.0763 17.1673 17.1126C17.213 17.1489 17.2494 17.1921 17.2744 17.2398C17.2995 17.2875 17.3128 17.3388 17.3135 17.3906V18.1191C17.3128 18.171 17.2995 18.2222 17.2744 18.27C17.2494 18.3177 17.213 18.3609 17.1673 18.3971C17.1217 18.4334 17.0677 18.462 17.0085 18.4813C16.9492 18.5007 16.8859 18.5103 16.8221 18.5097H14.4893V19.3567H16.4873C16.6138 19.3589 16.7345 19.4008 16.824 19.4736C16.9136 19.5463 16.9651 19.6444 16.9679 19.7473V20.388C16.9679 20.492 16.9175 20.5918 16.8274 20.6658C16.7375 20.7397 16.6152 20.7818 16.4873 20.783H14.4893V21.7046H16.9355ZM22.0072 22.2079L22.2071 22.9198C22.2277 23.0003 22.2736 23.0723 22.3383 23.1252C22.403 23.1781 22.4831 23.2094 22.5669 23.2143H23.8195C23.8706 23.2148 23.9211 23.2032 23.9667 23.1806C24.0123 23.1579 24.0517 23.1247 24.0818 23.0838C24.1118 23.043 24.1315 22.9956 24.1392 22.9456C24.1469 22.8957 24.1424 22.8447 24.1261 22.7968L22.2781 17.3209C22.2447 17.2297 22.1846 17.1506 22.1054 17.0934C22.0263 17.0363 21.9318 17.0038 21.834 17H20.2392C20.1412 17.0032 20.0464 17.0355 19.9672 17.0927C19.888 17.1499 19.828 17.2294 19.795 17.3209L17.9471 22.7968C17.9301 22.8436 17.9247 22.8937 17.9313 22.9431C17.9379 22.9924 17.9562 23.0394 17.9849 23.0803C18.0136 23.1212 18.0518 23.1546 18.0962 23.1779C18.1406 23.2012 18.19 23.2137 18.2403 23.2143H19.5063C19.5945 23.2143 19.6803 23.1854 19.7502 23.1321C19.8201 23.0788 19.8702 23.0042 19.8928 22.9198L20.0882 22.2079H22.0072ZM21.0477 18.7843L21.643 20.907H20.4569L21.0477 18.7843ZM28.4174 21.5443C28.5202 21.5454 28.6184 21.5871 28.6907 21.6604C28.763 21.7336 28.8036 21.8324 28.8035 21.9354V22.8144C28.8047 22.9185 28.7648 23.0189 28.6925 23.0938C28.6202 23.1687 28.5214 23.212 28.4174 23.2143H25.0601C25.0077 23.2143 24.9557 23.2039 24.9073 23.1838C24.8588 23.1638 24.8148 23.1343 24.7777 23.0972C24.7406 23.06 24.7112 23.0159 24.6911 22.9674C24.6711 22.9189 24.6607 22.8669 24.6607 22.8144V17.3912C24.6613 17.3392 24.6721 17.2879 24.6925 17.2401C24.7129 17.1923 24.7424 17.1491 24.7795 17.1127C24.8166 17.0765 24.8605 17.0478 24.9086 17.0285C24.9568 17.0091 25.0082 16.9995 25.0601 17H26.1046C26.2075 17.0023 26.3055 17.0442 26.3783 17.1171C26.4511 17.1899 26.4929 17.2882 26.4952 17.3912V21.5443H28.4174ZM31.9643 23.2143C33.5314 23.2143 34.5 22.3119 34.5 21.2691C34.5 20.3156 33.9608 19.8261 32.3801 19.4728C32.2859 19.4487 32.1895 19.4276 32.095 19.4069C31.6897 19.3182 31.3202 19.2374 31.3202 18.9578C31.3202 18.6811 31.5851 18.5321 31.9643 18.5321C32.0877 18.5234 32.2115 18.5452 32.323 18.5953C32.4345 18.6453 32.5298 18.7219 32.5994 18.8173C32.6393 18.8668 32.6938 18.9045 32.7563 18.9256C32.8187 18.9468 32.8864 18.9505 32.9512 18.9365L33.9746 18.7067C34.0219 18.6959 34.0662 18.6758 34.1044 18.6477C34.1426 18.6196 34.1738 18.5841 34.196 18.5437C34.2181 18.5032 34.2306 18.4588 34.2326 18.4135C34.2346 18.3682 34.2261 18.323 34.2076 18.281C34.015 17.879 33.6952 17.5413 33.2911 17.3131C32.8869 17.0849 32.4177 16.9771 31.9461 17.0041C30.5252 17.0041 29.4927 17.8171 29.4927 18.9195C29.4927 20.0219 30.2053 20.4944 31.4572 20.7753C31.5534 20.7968 31.6452 20.8159 31.7319 20.8339C32.2465 20.9409 32.5811 21.0105 32.5811 21.3201C32.5811 21.533 32.3709 21.7458 31.873 21.7458C31.6994 21.7577 31.5254 21.7298 31.3661 21.6645C31.2067 21.5992 31.067 21.4985 30.9592 21.3712C30.9228 21.3109 30.8653 21.264 30.7963 21.2385C30.7273 21.2129 30.6509 21.2102 30.58 21.2308L29.5475 21.533C29.5046 21.5457 29.465 21.5666 29.4313 21.5943C29.3976 21.622 29.3703 21.6559 29.3514 21.694C29.3325 21.732 29.3224 21.7733 29.3215 21.8151C29.3206 21.857 29.3291 21.8986 29.3464 21.9373C29.753 22.878 30.9044 23.2143 31.9643 23.2143Z" fill="#3ADAE0"/>
</svg>
