<svg width="32" height="32" viewBox="0 0 32 32" fill="none" xmlns="http://www.w3.org/2000/svg">
<path d="M11.2476 6.20953L9.28558 1.47412C5.89353 3.03787 3.1064 5.7738 1.48047 9.29673L6.21232 11.2559C7.29734 9.01328 9.08394 7.25694 11.2476 6.20953Z" fill="#3ADAE0"/>
<path d="M31.009 10.4792L26.2656 12.4435C27.0447 14.6836 27.0959 17.1783 26.2688 19.5598L31.0148 21.5247C32.375 17.8361 32.2835 13.9356 31.009 10.4792ZM28.8025 17.28C28.0958 17.28 27.5222 16.7067 27.5222 16.0004C27.5222 15.294 28.0958 14.7207 28.8025 14.7207C29.5092 14.7207 30.0827 15.294 30.0827 16.0004C30.0827 16.7067 29.5092 17.28 28.8025 17.28Z" fill="#3ADAE0"/>
<path d="M25.7743 11.2605L30.517 9.29686C28.973 5.95181 26.2787 3.12887 22.708 1.48193L20.7422 6.2263C23.0115 7.32553 24.7398 9.12603 25.7743 11.2605Z" fill="#3ADAE0"/>
<path fill-rule="evenodd" clip-rule="evenodd" d="M16.0033 6.40015C17.2637 6.40015 18.4985 6.64712 19.6738 7.1334C24.5657 9.15847 26.8964 14.7839 24.8704 19.6722C23.873 22.0799 21.9834 23.9124 19.6763 24.8657C19.6757 24.8664 19.6751 24.8664 19.6744 24.8664C19.6741 24.8667 19.6737 24.8671 19.6734 24.8673C19.6731 24.8675 19.6728 24.8677 19.6725 24.8677C18.5299 25.3399 17.2874 25.5996 15.9962 25.5996C14.7358 25.5996 13.501 25.3533 12.3257 24.8664C9.95595 23.8855 8.11045 22.0415 7.12913 19.6741V19.6722C7.12913 19.6722 7.12849 19.6722 7.12849 19.6716C6.14717 17.3036 6.14717 14.6956 7.12913 12.3276C8.12581 9.92051 10.0155 8.08803 12.3219 7.13404C12.3232 7.1334 12.3244 7.1334 12.3251 7.1334C12.3257 7.13308 12.3262 7.1326 12.3266 7.1322C12.327 7.1318 12.3273 7.13148 12.3276 7.13148C13.4696 6.65992 14.7128 6.40015 16.0033 6.40015ZM17.4821 18.2266L20.0197 21.1144H17.8184L15.4948 18.4558C14.8986 17.7835 14.3483 17.4626 13.3394 17.4626H12.1623V16.0874H15.1891C16.3356 16.0874 16.8859 15.736 16.9623 14.7428H12.1623V13.4899H16.9776V12.13H12.1623V10.8771H20.3713V12.13H18.6133V13.4899H20.3713V14.7428H18.598C18.4604 16.118 17.6044 16.9584 15.8464 16.9584V17.0806C16.5496 17.2334 16.9623 17.6612 17.4821 18.2266Z" fill="#3ADAE0"/>
<path d="M5.73048 12.4409L0.985187 10.4766C-0.375091 14.1658 -0.282912 18.0656 0.991588 21.5233L5.72984 19.5609C4.92199 17.2409 4.92199 14.759 5.73048 12.4409ZM3.19684 17.2799C2.49013 17.2799 1.91658 16.7066 1.91658 16.0002C1.91658 15.2939 2.49013 14.7206 3.19684 14.7206C3.90354 14.7206 4.4771 15.2939 4.4771 16.0002C4.4771 16.7066 3.90354 17.2799 3.19684 17.2799Z" fill="#3ADAE0"/>
<path d="M16.0034 5.12059C17.2196 5.12059 18.4109 5.33493 19.5606 5.73483L21.5264 0.991102C19.7488 0.335273 17.8943 0 16.0053 0C14.0753 0 12.2093 0.349349 10.4707 0.987263L12.434 5.72395C13.5613 5.33557 14.7621 5.12059 16.0034 5.12059ZM15.9995 1.92398C16.7062 1.92398 17.2798 2.49727 17.2798 3.20365C17.2798 3.91002 16.7062 4.48331 15.9995 4.48331C15.2928 4.48331 14.7193 3.91002 14.7193 3.20365C14.7193 2.49727 15.2928 1.92398 15.9995 1.92398Z" fill="#3ADAE0"/>
<path d="M15.9944 26.88C14.7781 26.88 13.5862 26.6657 12.4365 26.2651L10.4707 31.0095C12.2477 31.6647 14.1009 32 15.9906 32C15.9906 32 15.9912 32 15.9918 32C17.9218 32 19.7878 31.6506 21.5264 31.0127L19.5631 26.276C18.4365 26.665 17.2356 26.88 15.9944 26.88ZM15.9976 30.0766C15.2909 30.0766 14.7173 29.5033 14.7173 28.797C14.7173 28.0906 15.2909 27.5173 15.9976 27.5173C16.7043 27.5173 17.2779 28.0906 17.2779 28.797C17.2779 29.5033 16.7043 30.0766 15.9976 30.0766Z" fill="#3ADAE0"/>
<path d="M6.21872 20.7419L1.48047 22.705C3.0251 26.0494 5.71877 28.8717 9.28942 30.5192L11.2553 25.7755C9.04426 24.7064 7.28838 22.9519 6.21872 20.7419Z" fill="#3ADAE0"/>
<path d="M20.75 25.791L22.712 30.5258C26.1041 28.962 28.8905 26.2267 30.5165 22.7038L25.7853 20.7446C24.7002 22.9872 22.9136 24.7429 20.75 25.791Z" fill="#3ADAE0"/>
</svg>
