<svg width="33" height="32" viewBox="0 0 33 32" fill="none" xmlns="http://www.w3.org/2000/svg">
<path d="M11.0647 11.1914H20.9744C21.6509 14.3249 21.6509 17.5668 20.9744 20.7004H11.0647C10.3882 17.5668 10.3882 14.3249 11.0647 11.1914ZM11.7992 23.3714C12.7531 26.2083 14.18 28.8635 16.0195 31.2244C17.8591 28.8635 19.286 26.2083 20.2398 23.3714H11.7992ZM7.88613 15.9459C7.88862 14.3503 8.04064 12.7585 8.34021 11.1914H0.741023C-0.220966 14.288 -0.220966 17.6037 0.741023 20.7004H8.34021C8.04064 19.1332 7.88862 17.5414 7.88613 15.9459ZM20.2398 8.5203C19.286 5.68339 17.8591 3.02829 16.0195 0.667361C14.18 3.02829 12.7531 5.68339 11.7992 8.5203H20.2398ZM31.298 11.1914H23.6988C24.3042 14.3321 24.3042 17.5596 23.6988 20.7004H31.298C32.26 17.6037 32.26 14.288 31.298 11.1914ZM30.1762 8.5203C29.0603 6.39508 27.4813 4.54767 25.5557 3.11448C23.6302 1.6813 21.4073 0.698953 19.0512 0.23999C20.8196 2.76884 22.1722 5.56425 23.0578 8.5203H30.1762ZM12.9879 0.23999C10.6318 0.698953 8.40889 1.6813 6.48334 3.11448C4.55779 4.54767 2.97876 6.39508 1.86287 8.5203H8.96791C9.85759 5.56342 11.2147 2.76797 12.9879 0.23999ZM1.86287 23.3714C2.97876 25.4967 4.55779 27.3441 6.48334 28.7773C8.40889 30.2104 10.6318 31.1928 12.9879 31.6518C11.2194 29.1229 9.86681 26.3275 8.98127 23.3714H1.86287ZM19.0512 31.6518C21.4073 31.1928 23.6302 30.2104 25.5557 28.7773C27.4813 27.3441 29.0603 25.4967 30.1762 23.3714H23.0711C22.1815 26.3283 20.8243 29.1238 19.0512 31.6518Z" fill="#3ADAE0"/>
</svg>
