<svg width="32" height="24" viewBox="0 0 32 24" fill="none" xmlns="http://www.w3.org/2000/svg">
<path d="M31.2585 6.00575C29.9113 2.19998 29.5745 -1.16796 25.0278 0.414971C24.6573 0.549688 24.3205 0.684406 24.0511 0.852803H16.3048C16.0017 0.684406 15.6986 0.549688 15.3281 0.414971C10.7814 -1.20164 10.4783 2.1663 9.09742 6.00575C8.72694 7.01613 8.52487 8.02651 8.42383 8.93586H15.3281C15.5975 8.80114 15.867 8.7001 16.1701 8.59906C17.1131 8.26227 17.9551 8.09387 18.696 8.09387C19.5717 8.09387 20.279 8.29595 20.8515 8.63274H23.748C23.748 8.63274 23.748 8.63274 23.748 8.66642C25.0951 12.4722 27.8905 14.9645 29.945 14.2572C32.0331 13.5163 32.6393 9.81152 31.2585 6.00575ZM16.5406 5.46688C16.5406 5.56792 16.4732 5.66896 16.3722 5.66896H15.025V7.01613C15.025 7.11717 14.924 7.21821 14.8229 7.21821H13.7789C13.6778 7.21821 13.6105 7.15085 13.6105 7.01613V5.66896H12.2633C12.1622 5.66896 12.0612 5.56792 12.0612 5.46688V4.42282C12.0612 4.32178 12.1622 4.25442 12.2633 4.25442H13.6105V2.90725C13.6105 2.80621 13.6778 2.70517 13.7789 2.70517H14.8229C14.924 2.70517 15.025 2.80621 15.025 2.90725V4.25442H16.3722C16.4732 4.25442 16.5406 4.32178 16.5406 4.42282V5.46688ZM26.2065 2.30102C26.7117 2.30102 27.0822 2.70517 27.0822 3.17668C27.0822 3.64819 26.6781 4.05234 26.2065 4.05234C25.7014 4.05234 25.3309 3.64819 25.3309 3.17668C25.3309 2.70517 25.735 2.30102 26.2065 2.30102ZM24.4552 5.83735C23.95 5.83735 23.5796 5.4332 23.5796 4.96169C23.5796 4.4565 23.9837 4.08602 24.4552 4.08602C24.9267 4.08602 25.3309 4.49018 25.3309 4.96169C25.3309 5.4332 24.9604 5.83735 24.4552 5.83735ZM26.2065 7.62236C25.7014 7.62236 25.3309 7.21821 25.3309 6.71302C25.3309 6.20783 25.735 5.83735 26.2065 5.83735C26.7117 5.83735 27.0822 6.2415 27.0822 6.71302C27.1159 7.21821 26.7117 7.62236 26.2065 7.62236ZM27.9579 5.83735C27.4527 5.83735 27.0822 5.4332 27.0822 4.96169C27.0822 4.4565 27.4864 4.08602 27.9579 4.08602C28.4294 4.08602 28.8335 4.49018 28.8335 4.96169C28.8672 5.4332 28.4631 5.83735 27.9579 5.83735Z" fill="#3ADAE0"/>
<path d="M16.6744 10.0137C16.3039 10.1484 15.9671 10.2831 15.6977 10.4515H7.95144C7.64833 10.2831 7.34521 10.1484 6.97474 10.0137C2.39434 8.43074 2.09123 11.7987 0.744054 15.6044C-0.636801 19.4102 -0.030572 23.115 2.02387 23.8559C4.11199 24.5968 6.8737 22.1046 8.25456 18.2651C8.25456 18.2651 8.25456 18.2651 8.25456 18.2314H15.3609C15.3609 18.2314 15.3609 18.2314 15.3609 18.2651C16.7081 22.0709 19.5035 24.5632 21.5579 23.8559C23.646 23.115 24.2186 19.4439 22.8714 15.6044C21.5242 11.7987 21.2211 8.43074 16.6744 10.0137ZM8.15352 15.0656C8.15352 15.1666 8.08616 15.2677 7.95144 15.2677H6.60427V16.6148C6.60427 16.7159 6.53691 16.8169 6.40219 16.8169H5.35813C5.25709 16.8169 5.15605 16.7495 5.15605 16.6148V15.2677H3.80888C3.70784 15.2677 3.6068 15.2003 3.6068 15.0656V14.0215C3.6068 13.9205 3.67416 13.8194 3.80888 13.8194H5.15605V12.4723C5.15605 12.3712 5.22341 12.2702 5.35813 12.2702H6.40219C6.50323 12.2702 6.60427 12.3375 6.60427 12.4723V13.8194H7.95144C8.05248 13.8194 8.15352 13.8868 8.15352 14.0215V15.0656ZM17.8195 11.8997C18.3247 11.8997 18.6952 12.3039 18.6952 12.7754C18.6952 13.2469 18.3247 13.6847 17.8195 13.6847C17.3143 13.6847 16.9438 13.2806 16.9438 12.8091C16.9438 12.3375 17.348 11.8997 17.8195 11.8997ZM16.0682 15.4361C15.563 15.4361 15.1925 15.0319 15.1925 14.5604C15.1925 14.0552 15.5967 13.6847 16.0682 13.6847C16.5734 13.6847 16.9438 14.0889 16.9438 14.5604C16.9775 15.0319 16.5734 15.4361 16.0682 15.4361ZM17.8195 17.1874C17.3143 17.1874 16.9438 16.7832 16.9438 16.3117C16.9438 15.8065 17.348 15.4361 17.8195 15.4361C18.3247 15.4361 18.6952 15.8402 18.6952 16.3117C18.7288 16.7832 18.3247 17.1874 17.8195 17.1874ZM19.6045 15.4361C19.0993 15.4361 18.7288 15.0319 18.7288 14.5604C18.7288 14.0552 19.133 13.6847 19.6045 13.6847C20.1097 13.6847 20.4802 14.0889 20.4802 14.5604C20.4802 15.0319 20.076 15.4361 19.6045 15.4361Z" fill="#3ADAE0"/>
</svg>
