<svg width="40" height="40" viewBox="0 0 40 40" fill="none" xmlns="http://www.w3.org/2000/svg">
<path fill-rule="evenodd" clip-rule="evenodd" d="M5.75736 5.75736C4 7.51472 4 10.3431 4 16V24C4 29.6569 4 32.4853 5.75736 34.2426C7.51472 36 10.3431 36 16 36H24C29.6569 36 32.4853 36 34.2426 34.2426C36 32.4853 36 29.6569 36 24V16C36 10.3431 36 7.51472 34.2426 5.75736C32.4853 4 29.6569 4 24 4H16C10.3431 4 7.51472 4 5.75736 5.75736ZM12 22.1469C14.4525 22.1469 16 21.061 16 18.6764C16 16.4762 14.6943 15 12 15H8.61489C8.45297 15 8.2976 15.0655 8.1825 15.1825C8.06739 15.2994 8.00185 15.4583 8.00004 15.6246V24.3541C7.9991 24.438 8.01429 24.5213 8.04472 24.5991C8.07508 24.677 8.12016 24.7479 8.17728 24.8079C8.2344 24.8679 8.30242 24.9157 8.37746 24.9487C8.45257 24.9817 8.53323 24.9991 8.61489 25H10.2591C10.3417 25 10.4234 24.9833 10.4996 24.9508C10.576 24.9184 10.6452 24.8708 10.7036 24.8108C10.762 24.7509 10.8082 24.6797 10.8399 24.6013C10.8714 24.5229 10.8878 24.439 10.8878 24.3541V22.1469H12ZM13.0105 18.2578C13.0645 18.3901 13.0898 18.533 13.0846 18.6764C13.0933 18.8229 13.0701 18.9695 13.0167 19.1057C12.9633 19.2418 12.8809 19.3639 12.7756 19.4632C12.6704 19.5625 12.5449 19.6364 12.4083 19.6795C12.2718 19.7227 12.1276 19.734 11.9862 19.7126H10.8878V17.6615H12C12.1385 17.6428 12.2793 17.6554 12.4126 17.6983C12.5458 17.7413 12.6684 17.8136 12.7716 17.9102C12.8749 18.0068 12.9564 18.1255 13.0105 18.2578ZM23.5 15.6379V17.0553C23.5 17.2213 23.44 17.3807 23.333 17.4988C23.226 17.6169 23.0807 17.6842 22.9285 17.6861H21.3507V24.355C21.3524 24.523 21.2933 24.6849 21.1863 24.8057C21.0793 24.9264 20.9331 24.9963 20.7792 25H19.2273C19.15 25 19.0734 24.9833 19.0021 24.9507C18.9307 24.9183 18.8661 24.8707 18.8117 24.8107C18.7574 24.7507 18.7145 24.6795 18.6855 24.6013C18.6565 24.5231 18.642 24.4394 18.6429 24.355V17.6719H17.0779C16.9252 17.6701 16.7791 17.603 16.6711 17.4851C16.5631 17.3672 16.5017 17.2078 16.5 17.0411V15.6237C16.5033 15.4582 16.5656 15.3007 16.6734 15.1843C16.7813 15.0679 16.9263 15.0018 17.0779 15H22.922C22.9984 15 23.0742 15.0165 23.1448 15.0487C23.2153 15.0808 23.2792 15.128 23.333 15.1872C23.3867 15.2466 23.4292 15.317 23.4578 15.3943C23.4865 15.4716 23.5008 15.5545 23.5 15.6379ZM28.0898 25C30.5064 25 32 23.5523 32 21.8862C32 20.3566 31.1757 19.5713 28.7661 18.9431C28.6152 18.9015 28.4605 18.8654 28.3093 18.8302C27.691 18.6861 27.1316 18.5557 27.1316 18.1168C27.1316 17.6661 27.5402 17.4339 28.125 17.4339C28.3147 17.4185 28.5054 17.4521 28.6774 17.5312C28.8494 17.6104 28.9967 17.7323 29.1043 17.8846C29.1646 17.9655 29.2486 18.0269 29.3453 18.0609C29.442 18.095 29.5471 18.1002 29.6469 18.0758L31.225 17.7071C31.298 17.6899 31.3663 17.6576 31.4252 17.6125C31.4841 17.5674 31.5323 17.5105 31.5665 17.4456C31.6006 17.3808 31.6199 17.3095 31.6229 17.2368C31.626 17.1641 31.6128 17.0915 31.5843 17.0242C31.2798 16.3799 30.7789 15.8413 30.1491 15.4812C29.5193 15.1211 28.7908 14.9565 28.0616 15.0098C25.8704 15.0098 24.2782 16.3277 24.2782 18.0895C24.2782 19.8512 25.3773 20.6093 27.3078 21.0667C27.4591 21.1021 27.6045 21.1333 27.7423 21.163C28.5093 21.3278 29.0409 21.442 29.0409 21.934C29.0409 22.2686 28.7168 22.6169 27.9488 22.6169C27.6806 22.6352 27.4118 22.5893 27.1661 22.4833C26.9205 22.3774 26.7053 22.2145 26.5398 22.0091C26.4808 21.9153 26.3914 21.8431 26.2857 21.8035C26.18 21.764 26.0637 21.7594 25.955 21.7906L24.3627 22.2686C24.2921 22.2882 24.2267 22.3226 24.1714 22.3694C24.116 22.4162 24.072 22.4743 24.0424 22.5395C24.0128 22.6046 23.9984 22.6754 24.0001 22.7466C24.0019 22.8178 24.0199 22.8877 24.0528 22.9515C24.6799 24.4605 26.4553 25 28.0898 25Z" fill="#3ADAE0"/>
</svg>
