<svg width="40" height="40" viewBox="0 0 40 40" fill="none" xmlns="http://www.w3.org/2000/svg">
<path fill-rule="evenodd" clip-rule="evenodd" d="M4 16C4 10.3431 4 7.51472 5.75736 5.75736C7.51472 4 10.3431 4 16 4H24C29.6569 4 32.4853 4 34.2426 5.75736C36 7.51472 36 10.3431 36 16V24C36 29.6569 36 32.4853 34.2426 34.2426C32.4853 36 29.6569 36 24 36H16C10.3431 36 7.51472 36 5.75736 34.2426C4 32.4853 4 29.6569 4 24V16ZM12.4717 18.8344C12.4717 20.5694 11.3116 21.3618 9.47296 21.3618H8.66494V22.9725C8.66494 23.0976 8.61531 23.2174 8.52696 23.3058C8.43855 23.3942 8.31863 23.4439 8.19364 23.4439H6.96099C6.89978 23.4432 6.83931 23.4304 6.78302 23.4064C6.72672 23.3823 6.67574 23.3474 6.63289 23.3037C6.5901 23.2599 6.55633 23.2081 6.53355 23.1513C6.51072 23.0945 6.49933 23.0337 6.50003 22.9725V16.5866C6.50003 16.4644 6.5486 16.3471 6.63505 16.2606C6.7215 16.1742 6.83871 16.1257 6.96099 16.1257H9.4988C11.4928 16.1257 12.4717 17.2029 12.4717 18.8344ZM10.286 18.8344C10.2909 18.7295 10.2725 18.6248 10.2323 18.5278C10.1921 18.4308 10.131 18.3439 10.0533 18.2732C9.97571 18.2025 9.88344 18.1497 9.78309 18.1187C9.68279 18.0877 9.57692 18.0792 9.47296 18.0937H8.66494V19.5853H9.4988C9.60151 19.5951 9.70517 19.5827 9.80266 19.5489C9.90015 19.5152 9.98921 19.4608 10.0639 19.3896C10.1385 19.3184 10.197 19.2319 10.2353 19.1361C10.2737 19.0403 10.291 18.9374 10.286 18.8344ZM19.9318 21.8741C20.3482 21.2575 20.5727 20.5314 20.5767 19.7874C20.5939 19.2878 20.5085 18.7899 20.326 18.3245C20.1435 17.8592 19.8676 17.4361 19.5153 17.0814C19.163 16.7267 18.7418 16.4479 18.2777 16.2621C17.8136 16.0764 17.3164 15.9877 16.8167 16.0014C16.0726 16.0004 15.345 16.2198 14.7256 16.632C14.1061 17.0442 13.6227 17.6307 13.3363 18.3174C13.05 19.0041 12.9734 19.7603 13.1165 20.4905C13.2595 21.2206 13.6156 21.892 14.1399 22.42C14.6642 22.9479 15.3332 23.3086 16.0624 23.4566C16.7916 23.6047 17.5482 23.5334 18.2369 23.2517C18.9256 22.97 19.5153 22.4907 19.9318 21.8741ZM18.1031 18.9251C18.2897 19.1757 18.3988 19.4755 18.417 19.7874C18.437 20.0069 18.4101 20.228 18.338 20.4363C18.2659 20.6446 18.1503 20.8351 17.999 20.9953C17.8476 21.1555 17.6639 21.2816 17.4601 21.3653C17.2562 21.4491 17.0369 21.4885 16.8167 21.481C16.5042 21.4804 16.1988 21.3885 15.938 21.2164C15.6772 21.0443 15.4725 20.7997 15.3491 20.5126C15.2258 20.2256 15.189 19.9087 15.2436 19.6011C15.2982 19.2935 15.4416 19.0085 15.6562 18.7814C15.8708 18.5543 16.1471 18.395 16.4512 18.3232C16.7552 18.2513 17.0737 18.27 17.3673 18.3769C17.6608 18.4839 17.9166 18.6745 18.1031 18.9251ZM28.74 19.7874C28.7359 20.5312 28.5116 21.2571 28.0954 21.8736C27.6792 22.49 27.0896 22.9694 26.4013 23.2512C25.7129 23.533 24.9566 23.6047 24.2275 23.457C23.4985 23.3094 22.8295 22.9492 22.305 22.4218C21.7805 21.8944 21.424 21.2235 21.2803 20.4937C21.1367 19.7638 21.2125 19.0078 21.4981 18.321C21.7837 17.6342 22.2663 17.0474 22.885 16.6345C23.5037 16.2217 24.2309 16.0014 24.9747 16.0014C25.4747 15.9877 25.9721 16.0764 26.4365 16.2621C26.9009 16.4478 27.3224 16.7265 27.675 17.0811C28.0277 17.4357 28.3041 17.8588 28.4873 18.3242C28.6704 18.7896 28.7564 19.2875 28.74 19.7874ZM26.575 19.7874C26.5568 19.4755 26.4478 19.1757 26.2612 18.9251C26.0747 18.6745 25.8189 18.4839 25.5253 18.3769C25.2317 18.27 24.9132 18.2513 24.6092 18.3232C24.3051 18.395 24.0288 18.5543 23.8142 18.7814C23.5997 19.0085 23.4562 19.2935 23.4016 19.6011C23.3471 19.9087 23.3838 20.2256 23.5071 20.5126C23.6306 20.7997 23.8352 21.0443 24.096 21.2164C24.3568 21.3885 24.6623 21.4804 24.9747 21.481C25.1949 21.4885 25.4142 21.449 25.6181 21.3653C25.822 21.2816 26.0057 21.1554 26.157 20.9953C26.3084 20.8351 26.4239 20.6445 26.496 20.4363C26.5681 20.228 26.595 20.0069 26.575 19.7874ZM34.3657 21.616C34.2804 21.5308 34.1655 21.4823 34.0445 21.481H31.7761V16.5867C31.7751 16.4648 31.7259 16.3484 31.6396 16.2622C31.5538 16.1761 31.4369 16.1271 31.3155 16.1257H30.0777C30.0165 16.125 29.9563 16.1364 29.8996 16.1593C29.8429 16.1821 29.7917 16.216 29.748 16.2589C29.7049 16.3018 29.6703 16.3528 29.6467 16.4091C29.6236 16.4653 29.6116 16.5257 29.6116 16.5867V22.9726C29.6106 23.0343 29.6221 23.0954 29.6452 23.1526C29.6683 23.2097 29.7029 23.2617 29.746 23.3056C29.7892 23.3494 29.8409 23.3842 29.8981 23.408C29.9548 23.4317 30.016 23.4439 30.0777 23.4439H34.0445C34.1058 23.4432 34.166 23.4305 34.2222 23.4064C34.2779 23.3823 34.3285 23.3473 34.3712 23.3034C34.4133 23.2596 34.4469 23.2078 34.469 23.151C34.4911 23.0942 34.5021 23.0336 34.5006 22.9726V21.9368C34.4991 21.8163 34.451 21.7012 34.3657 21.616Z" fill="#3ADAE0"/>
</svg>
