<svg width="32" height="32" viewBox="0 0 32 32" fill="none" xmlns="http://www.w3.org/2000/svg">
<path fill-rule="evenodd" clip-rule="evenodd" d="M16 32C24.8366 32 32 24.8366 32 16C32 7.16344 24.8366 0 16 0C7.16344 0 0 7.16344 0 16C0 24.8366 7.16344 32 16 32ZM12.8558 20.0299V25H8.88889V7H18.1451C22.2443 7 24.8889 9.36418 24.8889 13.5015C24.8889 17.6388 22.2443 20.0299 18.1451 20.0299H12.8558ZM20.9484 13.5015C20.9484 11.2985 19.917 10.6269 17.7219 10.6269H12.8558V16.403H17.7219C19.917 16.403 20.9484 15.7582 20.9484 13.5015Z" fill="#3ADAE0"/>
</svg>
