<svg width="40" height="40" viewBox="0 0 40 40" fill="none" xmlns="http://www.w3.org/2000/svg">
<path d="M20 4C11.1747 4 4 11.1747 4 20C4 28.8253 11.1747 36 20 36C28.8253 36 36 28.8253 36 20C36 11.1747 28.8253 4 20 4ZM20.2695 29.1621C19.1916 29.1621 18.3495 28.2863 18.3495 27.2421C18.3495 26.1642 19.2253 25.3221 20.2695 25.3221C21.3474 25.3221 22.1895 26.1979 22.1895 27.2421C22.1895 28.32 21.3137 29.1621 20.2695 29.1621ZM24.9179 19.36C24.1768 20.3705 23.4021 20.9095 22.8295 21.3137C22.1895 21.7516 21.92 21.9537 21.8526 22.9979C21.8189 23.4695 21.4147 23.8063 20.9768 23.8063H19.5958C19.0905 23.8063 18.6526 23.3684 18.6863 22.8295C18.8884 20.4042 19.8316 19.5284 21.0105 18.72C21.4821 18.3832 21.92 18.08 22.3579 17.4737C22.7958 16.8674 22.8632 16.0253 22.4926 15.3179C22.2568 14.8126 21.5832 14.0042 20.0337 14.0042C18.0126 14.0042 17.4063 15.2842 17.2042 16.2611C17.1368 16.6989 16.7663 17.0021 16.3284 17.0021H14.9137C14.3747 17.0021 13.9368 16.5305 14.0379 15.9916C14.4084 13.3305 16.3284 10.8042 20.0337 10.8042C22.3579 10.8042 24.3453 11.9495 25.3221 13.8695C26.2653 15.6884 26.0968 17.7768 24.9179 19.36Z" fill="#3ADAE0"/>
</svg>
