<svg width="40" height="40" viewBox="0 0 40 40" fill="none" xmlns="http://www.w3.org/2000/svg">
<path d="M33.7811 18.2561C33.4114 18.1079 32.9941 18.2877 32.8456 18.6564C32.6974 19.0251 32.8768 19.4438 33.2452 19.5916C34.7739 20.2042 34.5976 20.7416 34.5027 21.03C34.2962 21.6584 32.4226 22.4116 29.9622 22.8958L33.0822 17.4924C33.6919 16.4353 33.3297 15.0839 32.2729 14.4735L18.1117 6.29653C17.0549 5.68612 15.7035 6.04834 15.0928 7.10548L7.80496 19.7294C6.21366 19.2247 5.44247 18.6546 5.43888 18.2654C5.43312 17.637 6.35286 16.7568 8.95239 16.1709C9.34014 16.0835 9.58329 15.6986 9.49589 15.3109C9.40848 14.9231 9.02253 14.6803 8.63585 14.7674C4.58244 15.6814 3.99146 17.3597 4.00009 18.2787C4.02311 20.8664 9.5743 21.7609 12.2623 22.0419C12.262 22.058 12.2641 22.0728 12.2623 22.0893C12.258 22.1282 12.2508 22.1649 12.2393 22.2001C12.154 22.5555 11.8134 22.8037 11.4397 22.7666C9.52502 22.5814 7.93768 22.2796 6.67839 21.8714C6.46329 22.7943 6.86219 23.7871 7.72546 24.286L21.4669 32.2187H16.9617C16.5146 32.2187 16.1524 32.5813 16.1524 33.0281C16.1524 33.4748 16.5146 33.8374 16.9617 33.8374H28.3922C28.8389 33.8374 29.2015 33.4748 29.2015 33.0281C29.2015 32.5813 28.8389 32.2187 28.3922 32.2187H24.4362C24.6182 32.0612 24.7783 31.8731 24.906 31.6533L28.4447 25.5241C27.662 25.5939 26.9059 25.6302 26.2182 25.6349C25.8466 25.6356 25.534 25.382 25.4477 25.0378C25.4275 24.9766 25.4189 24.9112 25.4221 24.8439C25.4221 24.8378 25.4236 24.8335 25.4243 24.827C28.5911 24.754 35.0883 23.8608 35.8702 21.4789C36.1853 20.5168 36.0796 19.1772 33.7811 18.2561ZM18.8368 22.4915L18.2271 24.7396L16.2441 23.5943L17.8854 21.9419C17.1135 22.2469 16.2157 22.2109 15.4413 21.7638C14.0924 20.9851 13.631 19.2614 14.4093 17.9133C15.1881 16.5648 16.9117 16.1026 18.2606 16.8813C18.4257 16.977 18.5779 17.0867 18.7167 17.2083C18.6207 16.595 18.7253 15.9465 19.0602 15.367C19.8386 14.0188 21.563 13.5566 22.9115 14.335C24.2596 15.1138 24.7222 16.8385 23.9438 18.1866C23.6086 18.7661 23.0992 19.1812 22.5208 19.4049C22.6953 19.4643 22.8669 19.5409 23.032 19.6362C24.3805 20.415 24.8423 22.139 24.0639 23.4875C23.2856 24.8356 21.5612 25.2975 20.213 24.5191C19.439 24.0723 18.9588 23.313 18.8368 22.4915ZM14.4543 32.2187H10.6322C10.1851 32.2187 9.82285 32.5813 9.82285 33.0281C9.82285 33.4748 10.1851 33.8374 10.6322 33.8374H14.4543C14.9014 33.8374 15.2636 33.4748 15.2636 33.0281C15.2636 32.5813 14.9014 32.2187 14.4543 32.2187Z" fill="#3ADAE0"/>
</svg>
