<svg width="40" height="40" viewBox="0 0 40 40" fill="none" xmlns="http://www.w3.org/2000/svg">
<path d="M35.5999 18.9937C32.7662 13.5303 26.6423 10 20 10C13.3577 10 7.23382 13.5303 4.40011 18.9933L4 19.7658L4.40011 20.5378C7.23382 26.0012 13.3577 29.5315 20 29.5315C26.6423 29.5315 32.7662 26.0012 35.5999 20.5382L36 19.7658L35.5999 18.9937ZM20 25.5991C16.7832 25.5991 14.1663 22.9821 14.1663 19.7658C14.1663 16.5494 16.7832 13.932 20 13.932C23.2168 13.932 25.8337 16.549 25.8337 19.7658C25.8337 22.9825 23.2168 25.5991 20 25.5991Z" fill="#3ADAE0"/>
<circle cx="20" cy="19.7" r="3.5" fill="#3ADAE0"/>
</svg>
