<svg width="40" height="40" viewBox="0 0 40 40" fill="none" xmlns="http://www.w3.org/2000/svg">
<path d="M35.5054 22.1646C35.3064 21.9687 35.0383 21.8588 34.7589 21.8588C34.4796 21.8588 34.2115 21.9687 34.0125 22.1646L32.1474 24.0298L30.2822 22.1646C30.1896 22.0456 30.0727 21.9476 29.9394 21.8772C29.806 21.8068 29.6592 21.7656 29.5087 21.7562C29.3581 21.7468 29.2073 21.7696 29.0663 21.823C28.9252 21.8763 28.7971 21.9591 28.6905 22.0657C28.5838 22.1724 28.5011 22.3005 28.4477 22.4415C28.3944 22.5826 28.3716 22.7334 28.381 22.8839C28.3903 23.0344 28.4316 23.1812 28.502 23.3146C28.5724 23.448 28.6704 23.5648 28.7894 23.6575L30.6545 25.5226L28.7894 27.3878C28.6704 27.4804 28.5724 27.5973 28.502 27.7306C28.4316 27.864 28.3903 28.0108 28.381 28.1613C28.3716 28.3119 28.3944 28.4627 28.4477 28.6037C28.5011 28.7448 28.5838 28.8729 28.6905 28.9795C28.7971 29.0862 28.9252 29.1689 29.0663 29.2223C29.2073 29.2756 29.3581 29.2984 29.5087 29.289C29.6592 29.2797 29.806 29.2384 29.9394 29.168C30.0727 29.0976 30.1896 28.9996 30.2822 28.8806L32.1474 27.0155L34.0125 28.8806C34.1051 28.9996 34.222 29.0976 34.3554 29.168C34.4888 29.2384 34.6356 29.2797 34.7861 29.289C34.9366 29.2984 35.0874 29.2756 35.2285 29.2223C35.3695 29.1689 35.4976 29.0862 35.6043 28.9795C35.7109 28.8729 35.7937 28.7448 35.847 28.6037C35.9004 28.4627 35.9232 28.3119 35.9138 28.1613C35.9044 28.0108 35.8632 27.864 35.7928 27.7306C35.7224 27.5973 35.6244 27.4804 35.5054 27.3878L33.6402 25.5226L35.5054 23.6575C35.7013 23.4585 35.8112 23.1904 35.8112 22.9111C35.8112 22.6317 35.7013 22.3636 35.5054 22.1646Z" fill="#3ADAE0"/>
<path d="M24.4422 12.4524H6.8651C5.28275 12.4524 4 13.7343 4 15.3157C4 16.8971 5.28275 18.179 6.8651 18.179H24.4422C26.0246 18.179 27.3073 16.8971 27.3073 15.3157C27.3073 13.7343 26.0246 12.4524 24.4422 12.4524Z" fill="#3ADAE0"/>
<path d="M24.4422 22.6433H6.8651C6.10523 22.6433 5.37648 22.9452 4.83917 23.4825C4.30186 24.0198 4 24.7485 4 25.5084C4 26.2683 4.30186 26.997 4.83917 27.5343C5.37648 28.0717 6.10523 28.3735 6.8651 28.3735H24.4422C25.2021 28.3735 25.9308 28.0717 26.4681 27.5343C27.0055 26.997 27.3073 26.2683 27.3073 25.5084C27.3073 24.7485 27.0055 24.0198 26.4681 23.4825C25.9308 22.9452 25.2021 22.6433 24.4422 22.6433Z" fill="#3ADAE0"/>
<path d="M30.1501 18.991C30.2457 19.1441 30.3787 19.2704 30.5366 19.358C30.6945 19.4456 30.872 19.4915 31.0526 19.4915C31.2331 19.4915 31.4107 19.4456 31.5685 19.358C31.7264 19.2704 31.8594 19.1441 31.955 18.991L35.7598 12.736C35.8561 12.6178 35.9259 12.4803 35.9645 12.3328C36.0031 12.1852 36.0094 12.0311 35.9832 11.8809C35.957 11.7307 35.8988 11.5879 35.8126 11.4621C35.7263 11.3364 35.6141 11.2306 35.4834 11.1521C35.3527 11.0735 35.2067 11.024 35.0551 11.0068C34.9036 10.9896 34.7502 11.0052 34.6052 11.0525C34.4603 11.0998 34.3272 11.1777 34.215 11.281C34.1028 11.3842 34.0141 11.5104 33.9549 11.6509L31.0508 16.4095L30.4373 15.3954C30.2768 15.1899 30.0464 15.0504 29.7898 15.0036C29.5332 14.9568 29.2684 15.0059 29.0456 15.1416C28.8228 15.2773 28.6577 15.4901 28.5815 15.7395C28.5054 15.989 28.5235 16.2577 28.6325 16.4946L30.1501 18.991Z" fill="#3ADAE0"/>
</svg>
