<svg width="40" height="40" viewBox="0 0 40 40" fill="none" xmlns="http://www.w3.org/2000/svg">
<path d="M11.2266 3.9668L18.4539 11.1941L11.2266 18.4214L3.99927 11.1941L11.2266 3.9668Z" fill="#3ADAE0"/>
<path d="M30.0249 18.2831V18.2944H29.872C29.8704 18.2944 29.8689 18.2944 29.8674 18.2944L28.826 18.2944L27.7846 18.2944C27.7831 18.2944 27.7816 18.2944 27.7801 18.2944H27.6272V18.2831C27.1019 18.2068 26.6984 17.7546 26.6984 17.2082C26.6984 17.055 26.7308 16.9035 26.7935 16.7637C27.0782 16.1288 27.2943 15.6253 27.437 15.2694C26.3006 16.0484 24.7723 16.1572 23.4996 15.4224C21.7331 14.4025 21.1279 12.1438 22.1478 10.3773C22.9668 8.95866 24.6128 8.25962 26.1844 8.6263L25.8883 9.89569C24.8721 9.65861 23.8066 10.1111 23.2766 11.0291C22.6167 12.1721 23.0083 13.6336 24.1513 14.2935C25.2902 14.9511 26.7454 14.5646 27.4086 13.4311C27.6427 12.9912 28.2087 12.8144 28.6043 13.255C28.708 13.3704 28.7752 13.5057 28.826 13.6687C28.8768 13.5057 28.9441 13.3704 29.0478 13.255C29.4433 12.8144 30.0093 12.9912 30.2434 13.4311C30.9067 14.5646 32.3619 14.9511 33.5007 14.2935C34.6437 13.6336 35.0354 12.1721 34.3754 11.0291C33.8454 10.1111 32.78 9.65861 31.7638 9.89569L31.4676 8.6263C33.0392 8.25962 34.6852 8.95866 35.5043 10.3773C36.5242 12.1438 35.9189 14.4025 34.1525 15.4224C32.8797 16.1572 31.3514 16.0484 30.2151 15.2694C30.3578 15.6253 30.5739 16.1288 30.8586 16.7637C30.9213 16.9035 30.9537 17.055 30.9537 17.2082C30.9537 17.7546 30.5502 18.2068 30.0249 18.2831ZM28.826 16.9909L29.5326 16.9909C29.1791 16.194 28.9466 15.6318 28.826 15.2743C28.7054 15.6318 28.4729 16.194 28.1194 16.9909L28.826 16.9909ZM27.8769 14.2242C27.3248 14.7875 26.5554 15.1371 25.7044 15.1371C24.0246 15.1371 22.6629 13.7753 22.6629 12.0956C22.6629 10.5631 23.7963 9.29541 25.2705 9.08484C24.9471 7.85609 25.2671 6.49318 26.2303 5.52996C27.6726 4.08767 30.011 4.08767 31.4533 5.52996C32.4101 6.48681 32.7322 7.83808 32.4195 9.06044C34.0071 9.16226 35.2633 10.4822 35.2633 12.0956C35.2633 13.7753 33.9016 15.1371 32.2218 15.1371C31.3708 15.1371 30.6014 14.7875 30.0493 14.2242V17.3095H27.8769V14.2242Z" fill="#3ADAE0"/>
<path d="M29.4342 35.2663C29.1975 35.4923 28.825 35.4926 28.588 35.267C24.2473 31.1358 22.0605 27.9198 22.0605 25.5033C22.0605 23.3583 23.7995 21.6194 25.9445 21.6194C27.1718 21.6194 28.2908 22.1939 29.0103 23.1178C29.7302 22.194 30.8497 21.6194 32.0771 21.6194C34.2222 21.6194 35.9621 23.3584 35.9621 25.5033C35.9368 27.9436 33.7508 31.1462 29.4342 35.2663Z" fill="#3ADAE0"/>
<path d="M12.6883 32.8588C12.8035 33.0865 12.9646 33.3605 13.1709 33.6764C13.6567 34.4202 13.1231 35.4061 12.2347 35.4061H10.2224C9.36184 35.4061 8.82382 34.4747 9.25372 33.7293C9.45835 33.3744 9.61563 33.0869 9.72274 32.8745C9.3196 33.0193 8.88319 33.0977 8.4316 33.0977C6.48803 33.0977 4.89062 31.6559 4.89062 29.8472C4.89062 28.577 5.61623 27.6158 8.35701 24.6851C8.89551 24.1093 9.70917 23.1546 10.7939 21.825C11.0214 21.5462 11.4492 21.5518 11.6694 21.8364C12.6559 23.112 13.4344 24.0649 14.0018 24.6919C14.0814 24.7798 14.1648 24.8716 14.2573 24.9731C15.8838 26.7568 15.9722 26.8561 16.4596 27.4877C17.1711 28.4099 17.5485 29.1401 17.5631 29.8069C17.5641 29.8202 17.5646 29.8337 17.5646 29.8472C17.5646 31.6558 15.9663 33.0977 14.0226 33.0977C13.5549 33.0977 13.1035 33.0136 12.6883 32.8588Z" fill="#3ADAE0"/>
</svg>
