<svg width="40" height="40" viewBox="0 0 40 40" fill="#3ADAE0" xmlns="http://www.w3.org/2000/svg">
<path fill-rule="evenodd" clip-rule="evenodd" d="M9 7.04762C9 5.36447 10.3181 4 11.9441 4H28.0559C29.6819 4 31 5.36446 31 7.04762V32.9524C31 34.6355 29.6819 36 28.0559 36H11.9441C10.3181 36 9 34.6355 9 32.9524V7.04762ZM11.9441 5.52381C11.1311 5.52381 10.4721 6.20604 10.4721 7.04762V32.9524C10.4721 33.794 11.1311 34.4762 11.9441 34.4762H28.0559C28.8689 34.4762 29.5279 33.794 29.5279 32.9524V7.04762C29.5279 6.20604 28.8689 5.52381 28.0559 5.52381H11.9441Z"/>
<path fill-rule="evenodd" clip-rule="evenodd" d="M22.5641 17.1397C22.7304 16.771 22.8231 16.3614 22.8231 15.9301C22.8231 14.3119 21.5191 13 19.9106 13C18.302 13 16.998 14.3119 16.998 15.9301C16.998 16.363 17.0913 16.7739 17.2588 17.1437C15.7217 17.2241 14.5 18.5034 14.5 20.0698C14.5 21.688 15.804 22.9999 17.4125 22.9999C18.5386 22.9999 19.5154 22.357 20 21.4161C20.4847 22.357 21.4615 22.9999 22.5875 22.9999C24.1961 22.9999 25.5 21.688 25.5 20.0698C25.5 18.4515 24.1961 17.1396 22.5875 17.1396C22.5797 17.1396 22.5719 17.1397 22.5641 17.1397Z"/>
<circle cx="20" cy="31.5" r="1.5"/>
</svg>
