<svg width="33" height="27" viewBox="0 0 33 27" fill="none" xmlns="http://www.w3.org/2000/svg">
<path fill-rule="evenodd" clip-rule="evenodd" d="M19.2892 4.14179H30.3769C31.2709 4.14179 32.002 4.87279 32.002 5.76684V24.7905C32.002 25.6845 31.2709 26.4159 30.3769 26.4159H19.2892C18.3952 26.4159 17.6642 25.6845 17.6642 24.7905V5.76684C17.6642 4.87279 18.3952 4.14179 19.2892 4.14179ZM0.813547 5.76017L10.4154 0.216547C11.1898 -0.230479 12.1885 0.0372363 12.6355 0.811192L12.9074 1.28199L9.76658 2.1235C8.13777 2.5601 7.15698 4.25855 7.59316 5.88736L12.5171 24.263C12.5526 24.3956 12.5964 24.5236 12.6481 24.6474L11.9504 25.0503C11.1765 25.4973 10.1773 25.2296 9.7303 24.4552L0.218486 7.98029C-0.22854 7.20592 0.0391749 6.2072 0.813547 5.76017ZM10.4584 3.52212L21.1682 0.652314C22.0319 0.420878 22.9272 0.93796 23.1586 1.80157L23.3408 2.48212H19.2892C17.4828 2.48212 16.0049 3.96039 16.0049 5.76684V24.7905C16.0049 24.8876 16.0095 24.9835 16.0174 25.0786C15.2218 25.1845 14.4462 24.6833 14.2331 23.8881L9.30913 5.51247C9.07769 4.64928 9.59477 3.75356 10.4584 3.52212ZM24.8333 9.94562L27.6906 15.2787L24.8333 20.6117L21.9756 15.2787L24.8333 9.94562ZM5.99398 9.94553L4.43737 6.97914L3.66257 7.38571C3.65674 7.77274 3.43922 7.97158 3.11602 8.14118L3.00533 8.19927L3.30039 8.76155L4.09291 8.34568L5.16162 10.3823L5.99398 9.94553ZM14.5416 7.23083L14.7309 8.05437L11.6852 8.7542L11.5531 8.17918C11.4255 7.62366 11.6177 7.27681 12.2679 6.89141L13.0898 6.40498C13.2837 6.28861 13.352 6.20623 13.3173 6.05517C13.2792 5.88948 13.1912 5.79683 12.6942 5.91105C12.1484 6.03646 12.0579 6.20089 12.1262 6.49815L12.1408 6.5615L11.2441 6.76752L11.2273 6.69443C11.0762 6.03657 11.3868 5.33418 12.5368 5.06992C13.5699 4.83254 14.0833 5.19168 14.2367 5.85928C14.3778 6.47328 14.0346 6.85484 13.4834 7.1354L12.7939 7.48366L12.7811 7.49017C12.5858 7.5895 12.4494 7.65887 12.4866 7.82103L13.377 7.49845L14.5416 7.23083Z" fill="#3ADAE0"/>
<path d="M20.66 8.45C21.69 8.45 22.29 8.115 22.29 7.455C22.29 6.945 21.95 6.71 21.45 6.655V6.59C21.895 6.54 22.13 6.29 22.13 5.9C22.13 5.295 21.625 5 20.695 5C19.555 5 19 5.475 19 6.22V6.225H20V6.21C20 5.96 20.09 5.9 20.605 5.9C21.105 5.9 21.195 5.955 21.195 6.115C21.195 6.24 21.135 6.305 20.95 6.305H20.025V7.075H21.02C21.24 7.075 21.335 7.13 21.335 7.295C21.335 7.5 21.185 7.55 20.615 7.55C20.02 7.55 20 7.49 20 7.24V7.15H19V7.23C19 8.025 19.53 8.45 20.66 8.45Z" fill="#242424"/>
</svg>
