<svg width="40" height="40" viewBox="0 0 40 40" fill="none" xmlns="http://www.w3.org/2000/svg">
<path d="M20 4C16.8355 4 13.7421 4.93838 11.1109 6.69648C8.47969 8.45459 6.42894 10.9534 5.21793 13.8771C4.00693 16.8007 3.69008 20.0177 4.30744 23.1214C4.92481 26.2251 6.44866 29.0761 8.6863 31.3137C10.9239 33.5513 13.7749 35.0752 16.8786 35.6925C19.9823 36.3099 23.1993 35.9931 26.1229 34.7821C29.0465 33.5711 31.5454 31.5203 33.3035 28.8891C35.0616 26.2579 36 23.1645 36 20C36 15.7565 34.3143 11.6869 31.3137 8.68629C28.3131 5.68571 24.2435 4 20 4ZM28.0107 20.96L20.7467 28.224C20.5468 28.4227 20.2765 28.5342 19.9947 28.5342C19.7129 28.5342 19.4425 28.4227 19.2427 28.224L11.9893 20.96C11.8389 20.8108 11.7363 20.6202 11.6946 20.4125C11.653 20.2047 11.6741 19.9893 11.7553 19.7936C11.8366 19.5979 11.9743 19.4309 12.1508 19.3138C12.3274 19.1966 12.5348 19.1348 12.7467 19.136H16.032V12.5333C16.032 12.2504 16.1444 11.9791 16.3444 11.7791C16.5445 11.579 16.8158 11.4667 17.0987 11.4667H22.9013C23.1842 11.4667 23.4555 11.579 23.6556 11.7791C23.8556 11.9791 23.968 12.2504 23.968 12.5333V19.136H27.2533C27.4652 19.1348 27.6726 19.1966 27.8492 19.3138C28.0257 19.4309 28.1634 19.5979 28.2447 19.7936C28.3259 19.9893 28.347 20.2047 28.3054 20.4125C28.2637 20.6202 28.1611 20.8108 28.0107 20.96Z" fill="#3ADAE0"/>
</svg>
