<svg width="40" height="40" viewBox="0 0 40 40" fill="none" xmlns="http://www.w3.org/2000/svg">
<path d="M35.9925 22.2935C35.9523 22.7328 35.7513 23.0923 35.4298 23.3718L29.3609 28.4041L33.4202 18.4594L35.6307 21.0953C35.9121 21.4148 36.0327 21.8542 35.9925 22.2935ZM18.3484 35.4334C18.6297 35.7529 18.9914 35.9526 19.4335 35.9925C19.8757 36.0325 20.2776 35.9126 20.5991 35.6331L22.89 33.7559L13.8469 30.0816L18.3484 35.4334ZM33.5408 13.9064L26.2661 31.6392C26.1053 32.0386 25.7838 32.3581 25.3819 32.5178C25.1809 32.5977 24.98 32.6377 24.7388 32.6377C24.5379 32.6377 24.3369 32.5977 24.136 32.5178L15.2938 28.9233H18.4288C20.1972 28.9233 21.6441 27.4855 21.6441 25.7282V23.6914L25.4623 21.4947C25.7838 21.295 25.9446 20.9356 25.824 20.5761L24.5781 16.1829C24.4977 15.9432 24.3369 15.7435 24.0958 15.6637C23.8546 15.5838 23.6135 15.5838 23.3723 15.7036L21.6039 16.7021V7.35639L32.6164 11.7896C33.5006 12.149 33.9025 13.0676 33.5408 13.9064ZM24.8192 26.7666C24.4173 26.6069 23.935 26.8066 23.7742 27.206L23.1714 28.6837C23.0106 29.0831 23.2116 29.5624 23.6135 29.7221C23.6939 29.7621 23.8144 29.7621 23.935 29.7621C24.2565 29.7621 24.5379 29.5624 24.6986 29.2828L25.3015 27.8051C25.4221 27.3657 25.2211 26.9264 24.8192 26.7666ZM23.3321 17.6207L21.6441 18.5792V21.8142L24.0958 20.4164L23.3321 17.6207ZM18.469 27.3657H5.60766C4.72345 27.3657 4 26.6468 4 25.7682V6.59755C4 5.7189 4.72345 5 5.60766 5H18.469C19.3532 5 20.0766 5.7189 20.0766 6.59755V25.7682C20.0766 26.6468 19.3532 27.3657 18.469 27.3657ZM8.01915 8.1951C8.01915 7.75578 7.65743 7.39633 7.21532 7.39633C6.77322 7.39633 6.41149 7.75578 6.41149 8.1951V9.79266C6.41149 10.232 6.77322 10.5914 7.21532 10.5914C7.65743 10.5914 8.01915 10.232 8.01915 9.79266V8.1951ZM15.8565 14.5054C15.4948 13.5868 14.6508 12.9878 13.646 12.9079C13.0431 12.8679 12.4804 13.0277 11.9981 13.3073C11.5158 13.0277 10.9531 12.8679 10.3503 12.9079C9.34547 12.9478 8.50145 13.5469 8.13973 14.5054C7.778 15.464 7.97896 16.5024 8.70241 17.2213L11.4354 19.9771C11.5962 20.1368 11.7972 20.2167 11.9981 20.2167C12.1991 20.2167 12.4402 20.1368 12.5608 19.9771L15.2938 17.2213C16.0173 16.5024 16.2182 15.464 15.8565 14.5054ZM17.6651 22.5731C17.6651 22.1337 17.3034 21.7743 16.8613 21.7743C16.4192 21.7743 16.0575 22.1337 16.0575 22.5731V24.1706C16.0575 24.61 16.4192 24.9694 16.8613 24.9694C17.3034 24.9694 17.6651 24.61 17.6651 24.1706V22.5731ZM13.5656 14.5054H13.4852C13.1235 14.5054 12.8019 14.6253 12.5608 14.9048C12.2393 15.2243 11.7168 15.2243 11.3952 14.9048C11.1541 14.6652 10.8326 14.5054 10.4708 14.5054H10.3905C9.86796 14.5454 9.66701 14.9048 9.62682 15.0646C9.58662 15.1844 9.42586 15.6637 9.82777 16.063L11.9579 18.2597L14.0881 16.063C14.49 15.6637 14.3292 15.1844 14.289 15.0646C14.289 14.9448 14.0881 14.5454 13.5656 14.5054Z" fill="#3ADAE0"/>
</svg>
