<svg width="32" height="32" viewBox="0 0 32 32" fill="#3ADAE0" xmlns="http://www.w3.org/2000/svg">
<path fill-rule="evenodd" clip-rule="evenodd" d="M17.6371 0.626003C17.6377 0.626567 17.6382 0.627132 17.6388 0.627697L23.9211 6.9885L21.9118 9.01557L16.1331 3.16465L10.1803 8.95874L8.21094 6.89204L14.6789 0.596462C14.6791 0.596248 14.6794 0.596033 14.6796 0.595819C14.6797 0.595738 14.6797 0.595657 14.6798 0.595576C15.5046 -0.207668 16.8246 -0.199294 17.6371 0.626003ZM15.6268 2.65203C15.6259 2.65113 15.625 2.65022 15.6241 2.64931L15.6268 2.65203ZM16.6501 2.66139C16.6498 2.66168 16.6495 2.66198 16.6492 2.66227L16.6501 2.66139Z"/>
<path fill-rule="evenodd" clip-rule="evenodd" d="M25.0455 8.12109L31.3921 14.545C32.2115 15.3791 32.2021 16.7279 31.3608 17.5483L24.9498 23.7881L22.9805 21.7214L28.8378 16.0204L23.0365 10.1485L25.0455 8.12109Z"/>
<path fill-rule="evenodd" clip-rule="evenodd" d="M14.2296 31.3722L7.94727 25.0114L9.95656 22.9844L15.7353 28.8353L21.688 23.0412L23.6574 25.1079L17.1894 31.4035C17.1892 31.4037 17.189 31.4038 17.1888 31.404C17.1887 31.4041 17.1886 31.4043 17.1885 31.4044C16.3638 32.2075 15.044 32.1992 14.2314 31.3741C14.2308 31.3735 14.2302 31.3729 14.2296 31.3722ZM15.2182 29.3386C15.2185 29.3383 15.2188 29.338 15.2191 29.3377L15.2182 29.3386Z"/>
<path fill-rule="evenodd" clip-rule="evenodd" d="M7.04952 8.14697L9.01884 10.2137L3.1615 15.9147L8.96283 21.7867L6.95385 23.814L0.607235 17.3901C-0.212206 16.556 -0.202778 15.2071 0.638466 14.3869L7.04952 8.14697Z"/>
<path fill-rule="evenodd" clip-rule="evenodd" d="M18.0672 15.2037C18.2186 14.8666 18.303 14.4921 18.303 14.0977C18.303 12.6183 17.1163 11.4189 15.6525 11.4189C14.1886 11.4189 13.002 12.6183 13.002 14.0977C13.002 14.4935 13.0869 14.8692 13.2393 15.2073C11.8404 15.2807 10.7285 16.4503 10.7285 17.8824C10.7285 19.3618 11.9152 20.5612 13.379 20.5612C14.4038 20.5612 15.2927 19.9734 15.7338 19.1133C16.1748 19.9734 17.0638 20.5612 18.0885 20.5612C19.5523 20.5612 20.739 19.3618 20.739 17.8824C20.739 16.4029 19.5523 15.2036 18.0885 15.2036C18.0814 15.2036 18.0743 15.2037 18.0672 15.2037Z"/>
</svg>
