<svg width="40" height="40" viewBox="0 0 40 40" fill="none" xmlns="http://www.w3.org/2000/svg">
<path fill-rule="evenodd" clip-rule="evenodd" d="M17.0015 35.834C17.1247 36.3332 17.3784 36.794 17.7446 37.1636C18.2732 37.6988 18.9902 38 19.7381 38C19.9111 38 20.0889 38 20.2619 38C21.0098 38 21.7268 37.6988 22.2554 37.1636C22.6216 36.794 22.8753 36.3332 22.9985 35.834C22.9262 35.8376 22.8551 35.84 22.7828 35.84H17.2172C17.1449 35.84 17.0738 35.8376 17.0015 35.834ZM25.4519 28.16C25.4519 27.4976 24.9209 26.96 24.2667 26.96H15.7333C15.0791 26.96 14.5481 27.4976 14.5481 28.16V31.9376C14.5481 33.4304 15.7428 34.64 17.2172 34.64H22.7828C24.2572 34.64 25.4519 33.4304 25.4519 31.9376C25.4519 30.3764 25.4519 28.16 25.4519 28.16ZM14.3727 26.1944C14.7579 25.9208 15.2273 25.76 15.7333 25.76H24.2667C24.7893 25.76 25.2729 25.9316 25.664 26.2208C25.9022 24.884 26.3858 23.5988 27.0957 22.4336C27.0969 22.43 27.0981 22.4276 27.0993 22.4252C27.859 21.1568 28.2963 19.67 28.2963 18.08C28.2963 13.4444 24.5784 9.68 20 9.68C15.4216 9.68 11.7037 13.4444 11.7037 18.08C11.7037 19.6772 12.1458 21.1712 12.9446 22.4216C13.651 23.5832 14.1333 24.8636 14.3727 26.1944ZM34.8148 17H31.2593C30.605 17 30.0741 17.5376 30.0741 18.2C30.0741 18.8624 30.605 19.4 31.2593 19.4H34.8148C35.469 19.4 36 18.8624 36 18.2C36 17.5376 35.469 17 34.8148 17ZM8.74074 17H5.18519C4.53096 17 4 17.5376 4 18.2C4 18.8624 4.53096 19.4 5.18519 19.4H8.74074C9.39496 19.4 9.92593 18.8624 9.92593 18.2C9.92593 17.5376 9.39496 17 8.74074 17ZM18.0919 17.6C18.0919 16.5332 18.9464 15.668 20 15.668C20.6542 15.668 21.1852 15.1304 21.1852 14.468C21.1852 13.8056 20.6542 13.268 20 13.268C17.6391 13.268 15.7215 15.2096 15.7215 17.6C15.7215 18.2624 16.2524 18.8 16.9067 18.8C17.5609 18.8 18.0919 18.2624 18.0919 17.6ZM8.68622 8.4416L11.2 10.988C11.6634 11.456 12.4136 11.456 12.877 10.988C13.3393 10.5188 13.3393 9.7592 12.877 9.29L10.3621 6.7448C9.89985 6.2768 9.14844 6.2768 8.68622 6.7448C8.224 7.2128 8.224 7.9736 8.68622 8.4416ZM29.6379 6.7448L27.123 9.29C26.6607 9.7592 26.6607 10.5188 27.123 10.988C27.5864 11.456 28.3366 11.456 28.8 10.988L31.3138 8.4416C31.776 7.9736 31.776 7.2128 31.3138 6.7448C30.8516 6.2768 30.1001 6.2768 29.6379 6.7448ZM18.8148 3.2V6.8C18.8148 7.4624 19.3458 8 20 8C20.6542 8 21.1852 7.4624 21.1852 6.8V3.2C21.1852 2.5376 20.6542 2 20 2C19.3458 2 18.8148 2.5376 18.8148 3.2Z" fill="#3ADAE0"/>
</svg>
