<svg width="40" height="40" viewBox="0 0 40 40" fill="none" xmlns="http://www.w3.org/2000/svg">
<path d="M31.1485 5.83039C30.2461 5.57437 29.2093 5.93918 28.7293 6.24641C28.6781 6.2784 28.6333 6.3232 28.5821 6.3552C28.6077 5.79199 28.6205 5.22238 28.6205 4.64C28.6205 4.28801 28.3325 4 27.9805 4H11.1293C10.7773 4 10.4893 4.28801 10.4893 4.64C10.4893 5.22238 10.5021 5.79199 10.5277 6.3552C10.4765 6.3232 10.4317 6.2784 10.3805 6.24641C9.90048 5.93918 8.86368 5.58078 7.9613 5.83039C7.09728 6.06719 6.4445 6.8416 6.1565 7.94879C5.45251 10.6752 7.25091 13.4912 9.01091 15.072C9.46528 15.488 9.97091 15.84 10.4509 16.1856C11.0269 16.5888 11.5709 16.9728 12.0317 17.44C12.4349 17.856 12.7741 18.3296 13.0365 18.848C13.2029 19.1744 13.2861 19.4432 13.3117 19.68C13.3757 20.3072 12.9149 20.9792 12.3133 21.1584C11.7117 21.3312 10.9629 21.0048 10.6813 20.448C10.5213 20.128 10.1373 20 9.82368 20.16C9.50368 20.32 9.37571 20.704 9.53571 21.024C9.99009 21.92 10.9757 22.4832 11.9677 22.4832C12.2045 22.4832 12.4413 22.4512 12.6717 22.3872C13.4973 22.144 14.1437 21.4784 14.4317 20.6784C15.0845 21.6192 15.8077 22.3808 16.5757 22.9312V25.216H12.9405C12.6333 25.216 12.3709 25.4336 12.3133 25.7408L10.5341 35.2448C10.4957 35.4304 10.5469 35.6224 10.6685 35.7696C10.7901 35.9168 10.9693 36 11.1613 36H27.9485C28.1405 36 28.3197 35.9168 28.4413 35.7696C28.5629 35.6224 28.6141 35.4304 28.5757 35.2448L26.7965 25.7408C26.7389 25.4336 26.4765 25.216 26.1693 25.216H22.5341V22.9312C23.3021 22.3808 24.0253 21.6192 24.6781 20.6784C24.9661 21.4784 25.6125 22.144 26.4381 22.3872C26.6685 22.4512 26.9053 22.4832 27.1421 22.4832C28.1341 22.4832 29.1197 21.92 29.5741 21.024C29.7341 20.704 29.6061 20.32 29.2925 20.16C28.9725 20 28.5885 20.128 28.4285 20.448C28.1469 21.0048 27.3981 21.3312 26.7965 21.1584C26.1949 20.9792 25.7341 20.3072 25.7981 19.68C25.8237 19.4432 25.9069 19.1744 26.0733 18.848C26.3357 18.3296 26.6749 17.856 27.0845 17.44C27.5453 16.9728 28.0829 16.5888 28.6589 16.1856C29.1453 15.84 29.6445 15.488 30.1053 15.072C31.8589 13.4912 33.6573 10.6752 32.9533 7.94879C32.6653 6.8416 32.0125 6.06719 31.1485 5.83039ZM11.1933 15.136C10.7197 14.8032 10.2717 14.4832 9.86208 14.1184C8.25571 12.672 6.87329 10.304 7.3981 8.26879C7.45571 8.02559 7.70528 7.23199 8.30048 7.06559C8.74208 6.93758 9.4013 7.14238 9.68931 7.32801C10.1885 7.64801 10.5405 8.18559 10.6941 8.82559C10.7261 9.10078 10.7517 9.36961 10.7837 9.63199C10.7709 10.3744 10.4765 11.2768 9.67009 11.6544C9.34368 11.8016 9.20931 12.1792 9.3565 12.4992C9.50368 12.8192 9.8813 12.96 10.2013 12.8128C10.5725 12.64 10.8925 12.3904 11.1677 12.0896C11.4173 13.4144 11.7373 14.6624 12.1149 15.8208C11.8141 15.5776 11.5005 15.36 11.1933 15.136ZM19.5581 33.0368C18.2141 33.0368 17.1261 31.9488 17.1261 30.6112C17.1261 29.2672 18.2141 28.1792 19.5581 28.1792C20.8957 28.1792 21.9901 29.2672 21.9901 30.6112C21.9901 31.9488 20.8957 33.0368 19.5581 33.0368ZM23.5901 11.8144L22.0349 13.3312L22.3997 15.4624C22.4445 15.7056 22.3421 15.9488 22.1501 16.0896C22.0349 16.1728 21.9069 16.2112 21.7725 16.2112C21.6701 16.2112 21.5677 16.1856 21.4717 16.1408L19.5581 15.1296L17.6381 16.1408C17.4205 16.256 17.1581 16.2368 16.9597 16.0896C16.7677 15.9488 16.6653 15.7056 16.7101 15.4624L17.0749 13.3312L15.5197 11.8144C15.3469 11.648 15.2829 11.392 15.3597 11.1616C15.4365 10.9312 15.6349 10.7584 15.8781 10.7264L18.0221 10.4128L18.9821 8.46719C19.1997 8.03199 19.9165 8.03199 20.1277 8.46719L21.0877 10.4128L23.2317 10.7264C23.4749 10.7584 23.6733 10.9312 23.7501 11.1616C23.8269 11.392 23.7629 11.648 23.5901 11.8144ZM29.2477 14.1184C28.8381 14.4832 28.3901 14.8032 27.9165 15.136C27.6093 15.36 27.2957 15.5776 26.9949 15.8208C27.3725 14.6624 27.6925 13.4144 27.9421 12.0896C28.2173 12.3904 28.5373 12.64 28.9085 12.8128C29.2285 12.96 29.6061 12.8192 29.7597 12.4992C29.9069 12.1792 29.7661 11.8016 29.4461 11.6544C28.6333 11.2768 28.3389 10.3744 28.3261 9.63199C28.3581 9.36961 28.3837 9.10078 28.4157 8.82559C28.5693 8.18559 28.9213 7.64801 29.4269 7.3216C29.7085 7.14238 30.3677 6.93758 30.8093 7.06559C31.4045 7.23199 31.6541 8.02559 31.7117 8.26879C32.2365 10.304 30.8541 12.672 29.2477 14.1184Z" fill="#3ADAE0"/>
</svg>
