<svg width="125" height="104" viewBox="0 0 125 104" fill="none" xmlns="http://www.w3.org/2000/svg">
<rect width="125" height="104" rx="24" fill="url(#paint0_linear)"/>
<mask id="mask0" mask-type="alpha" maskUnits="userSpaceOnUse" x="0" y="0" width="125" height="104">
<rect width="125" height="104" rx="24" fill="url(#paint1_linear)"/>
</mask>
<g mask="url(#mask0)">
<path d="M23.1474 87.87C23.1475 88.1149 23.0508 88.35 22.8786 88.5241C22.7063 88.6982 22.4723 88.7974 22.2274 88.8C21.9825 88.7974 21.7485 88.6982 21.5763 88.5241C21.404 88.35 21.3074 88.1149 21.3074 87.87C21.3074 87.626 21.4044 87.392 21.5769 87.2195C21.7495 87.0469 21.9834 86.95 22.2274 86.95C22.4714 86.95 22.7054 87.0469 22.878 87.2195C23.0505 87.392 23.1474 87.626 23.1474 87.87Z" fill="url(#paint2_radial)"/>
<path d="M29.5075 87.87C29.5075 88.1149 29.411 88.35 29.2387 88.5241C29.0664 88.6982 28.8325 88.7974 28.5875 88.8C28.3426 88.7974 28.1086 88.6982 27.9364 88.5241C27.7641 88.35 27.6675 88.1149 27.6675 87.87C27.6675 87.626 27.7645 87.392 27.937 87.2195C28.1095 87.0469 28.3435 86.95 28.5875 86.95C28.8315 86.95 29.0656 87.0469 29.2381 87.2195C29.4106 87.392 29.5075 87.626 29.5075 87.87Z" fill="url(#paint3_radial)"/>
<path d="M35.8376 87.87C35.8376 88.1166 35.7395 88.3532 35.5651 88.5276C35.3907 88.702 35.1542 88.8 34.9076 88.8C34.6627 88.7974 34.4286 88.6982 34.2563 88.5241C34.0841 88.35 33.9875 88.1149 33.9875 87.87C33.9901 87.6268 34.0878 87.3943 34.2598 87.2223C34.4318 87.0504 34.6644 86.9526 34.9076 86.95C35.1525 86.95 35.3875 87.0466 35.5616 87.2188C35.7357 87.3911 35.835 87.6251 35.8376 87.87Z" fill="url(#paint4_radial)"/>
<path d="M16.8476 93.07C16.8476 93.314 16.7507 93.548 16.5782 93.7205C16.4056 93.8931 16.1716 93.99 15.9276 93.99C15.6836 93.99 15.4496 93.8931 15.2771 93.7205C15.1045 93.548 15.0076 93.314 15.0076 93.07C15.0076 92.8251 15.1042 92.59 15.2765 92.4159C15.4487 92.2418 15.6827 92.1426 15.9276 92.14C16.1725 92.1426 16.4065 92.2418 16.5788 92.4159C16.751 92.59 16.8476 92.8251 16.8476 93.07Z" fill="url(#paint5_radial)"/>
<path d="M23.1474 93.07C23.1474 93.314 23.0505 93.548 22.878 93.7205C22.7054 93.8931 22.4714 93.99 22.2274 93.99C21.9834 93.99 21.7495 93.8931 21.5769 93.7205C21.4044 93.548 21.3074 93.314 21.3074 93.07C21.3074 92.8251 21.404 92.59 21.5763 92.4159C21.7485 92.2418 21.9825 92.1426 22.2274 92.14C22.4723 92.1426 22.7063 92.2418 22.8786 92.4159C23.0508 92.59 23.1475 92.8251 23.1474 93.07Z" fill="url(#paint6_radial)"/>
<path d="M29.5075 93.07C29.5075 93.314 29.4106 93.548 29.2381 93.7205C29.0656 93.8931 28.8315 93.99 28.5875 93.99C28.3435 93.99 28.1095 93.8931 27.937 93.7205C27.7645 93.548 27.6675 93.314 27.6675 93.07C27.6675 92.8251 27.7641 92.59 27.9364 92.4159C28.1086 92.2418 28.3426 92.1426 28.5875 92.14C28.8325 92.1426 29.0664 92.2418 29.2387 92.4159C29.411 92.59 29.5075 92.8251 29.5075 93.07Z" fill="url(#paint7_radial)"/>
<path d="M35.8376 93.07C35.835 93.3149 35.7357 93.5489 35.5616 93.7211C35.3875 93.8934 35.1525 93.99 34.9076 93.99C34.6644 93.9874 34.4318 93.8896 34.2598 93.7177C34.0878 93.5457 33.9901 93.3132 33.9875 93.07C33.9875 92.8251 34.0841 92.59 34.2563 92.4159C34.4286 92.2418 34.6627 92.1426 34.9076 92.14C35.1542 92.14 35.3907 92.238 35.5651 92.4124C35.7395 92.5868 35.8376 92.8233 35.8376 93.07Z" fill="url(#paint8_radial)"/>
<path d="M16.8476 98.26C16.8476 98.504 16.7507 98.738 16.5782 98.9105C16.4056 99.083 16.1716 99.18 15.9276 99.18C15.6836 99.18 15.4496 99.083 15.2771 98.9105C15.1045 98.738 15.0076 98.504 15.0076 98.26C15.0076 98.016 15.1045 97.782 15.2771 97.6094C15.4496 97.4369 15.6836 97.34 15.9276 97.34C16.1716 97.34 16.4056 97.4369 16.5782 97.6094C16.7507 97.782 16.8476 98.016 16.8476 98.26Z" fill="url(#paint9_radial)"/>
<path d="M23.1474 98.26C23.1474 98.504 23.0505 98.738 22.878 98.9105C22.7054 99.083 22.4714 99.18 22.2274 99.18C21.9834 99.18 21.7495 99.083 21.5769 98.9105C21.4044 98.738 21.3074 98.504 21.3074 98.26C21.3074 98.016 21.4044 97.782 21.5769 97.6094C21.7495 97.4369 21.9834 97.34 22.2274 97.34C22.4714 97.34 22.7054 97.4369 22.878 97.6094C23.0505 97.782 23.1474 98.016 23.1474 98.26Z" fill="url(#paint10_radial)"/>
<path d="M29.5075 98.26C29.5075 98.504 29.4106 98.738 29.2381 98.9105C29.0656 99.083 28.8315 99.18 28.5875 99.18C28.3435 99.18 28.1095 99.083 27.937 98.9105C27.7645 98.738 27.6675 98.504 27.6675 98.26C27.6675 98.016 27.7645 97.782 27.937 97.6094C28.1095 97.4369 28.3435 97.34 28.5875 97.34C28.8315 97.34 29.0656 97.4369 29.2381 97.6094C29.4106 97.782 29.5075 98.016 29.5075 98.26Z" fill="url(#paint11_radial)"/>
<path d="M35.8376 98.26C35.835 98.5049 35.7357 98.7389 35.5616 98.9111C35.3875 99.0834 35.1525 99.18 34.9076 99.18C34.6636 99.18 34.4295 99.083 34.257 98.9105C34.0844 98.738 33.9875 98.504 33.9875 98.26C33.9875 98.016 34.0844 97.782 34.257 97.6094C34.4295 97.4369 34.6636 97.34 34.9076 97.34C35.1525 97.3399 35.3875 97.4366 35.5616 97.6088C35.7357 97.7811 35.835 98.0151 35.8376 98.26Z" fill="url(#paint12_radial)"/>
<path d="M16.8476 103.45C16.8476 103.694 16.7507 103.928 16.5782 104.101C16.4056 104.273 16.1716 104.37 15.9276 104.37C15.6836 104.37 15.4496 104.273 15.2771 104.101C15.1045 103.928 15.0076 103.694 15.0076 103.45C15.0076 103.206 15.1045 102.972 15.2771 102.799C15.4496 102.627 15.6836 102.53 15.9276 102.53C16.1716 102.53 16.4056 102.627 16.5782 102.799C16.7507 102.972 16.8476 103.206 16.8476 103.45Z" fill="url(#paint13_radial)"/>
<path d="M23.1474 103.45C23.1474 103.694 23.0505 103.928 22.878 104.101C22.7054 104.273 22.4714 104.37 22.2274 104.37C21.9834 104.37 21.7495 104.273 21.5769 104.101C21.4044 103.928 21.3074 103.694 21.3074 103.45C21.3074 103.206 21.4044 102.972 21.5769 102.799C21.7495 102.627 21.9834 102.53 22.2274 102.53C22.4714 102.53 22.7054 102.627 22.878 102.799C23.0505 102.972 23.1474 103.206 23.1474 103.45Z" fill="url(#paint14_radial)"/>
<path d="M29.5075 103.45C29.5075 103.694 29.4106 103.928 29.2381 104.101C29.0656 104.273 28.8315 104.37 28.5875 104.37C28.3435 104.37 28.1095 104.273 27.937 104.101C27.7645 103.928 27.6675 103.694 27.6675 103.45C27.6675 103.206 27.7645 102.972 27.937 102.799C28.1095 102.627 28.3435 102.53 28.5875 102.53C28.8315 102.53 29.0656 102.627 29.2381 102.799C29.4106 102.972 29.5075 103.206 29.5075 103.45Z" fill="url(#paint15_radial)"/>
<path d="M35.8376 103.45C35.835 103.695 35.7357 103.929 35.5616 104.101C35.3875 104.273 35.1525 104.37 34.9076 104.37C34.6636 104.37 34.4295 104.273 34.257 104.101C34.0844 103.928 33.9875 103.694 33.9875 103.45C33.9875 103.206 34.0844 102.972 34.257 102.799C34.4295 102.627 34.6636 102.53 34.9076 102.53C35.1525 102.53 35.3875 102.627 35.5616 102.799C35.7357 102.971 35.835 103.205 35.8376 103.45Z" fill="url(#paint16_radial)"/>
<path d="M135.018 34.0917V36.3517C134.042 36.8054 132.974 37.0279 131.898 37.0017C130.253 37.028 128.646 36.5075 127.328 35.5217C126.469 34.8612 125.412 34.509 124.328 34.5217C123.244 34.5051 122.186 34.8577 121.328 35.5217C120.007 36.5075 118.396 37.028 116.748 37.0017C115.103 37.0303 113.494 36.5095 112.178 35.5217C111.319 34.8612 110.262 34.509 109.178 34.5217C108.094 34.5074 107.037 34.8598 106.178 35.5217C104.861 36.5075 103.253 37.028 101.608 37.0017C99.9746 37.0298 98.3796 36.5086 97.0776 35.5217C96.2226 34.8534 95.1626 34.5002 94.0776 34.5217V32.7417C95.6996 32.7447 97.2806 33.2552 98.5976 34.2017C99.4476 34.8799 100.511 35.2343 101.598 35.2017C102.685 35.236 103.749 34.8814 104.598 34.2017C105.922 33.2237 107.532 32.7105 109.178 32.7417C110.815 32.7096 112.416 33.2232 113.728 34.2017C114.581 34.8753 115.642 35.2291 116.728 35.2017C117.814 35.2283 118.875 34.8745 119.728 34.2017C121.045 33.2169 122.654 32.7028 124.298 32.7417C125.935 32.7096 127.536 33.2232 128.848 34.2017C129.701 34.8753 130.762 35.2291 131.848 35.2017C132.934 35.2283 133.995 34.8745 134.848 34.2017C134.848 34.2017 134.998 34.1217 135.018 34.0917Z" fill="url(#paint17_radial)"/>
<path d="M135.018 28.0318V30.3517C133.914 30.9915 132.654 31.3134 131.378 31.2818C129.733 31.3066 128.126 30.7861 126.808 29.8018C125.949 29.1412 124.892 28.789 123.808 28.8018C122.722 28.7761 121.661 29.1297 120.808 29.8018C119.484 30.7822 117.875 31.302 116.228 31.2818C114.583 31.3104 112.974 30.7896 111.658 29.8018C110.799 29.1412 109.742 28.789 108.658 28.8018C107.574 28.7882 106.517 29.1405 105.658 29.8018C104.349 30.7881 102.747 31.3089 101.108 31.2818C99.4767 31.3171 97.8816 30.795 96.5876 29.8018C95.7296 29.1384 94.6716 28.7859 93.5876 28.8018V27.0118C95.2076 27.0157 96.7876 27.5224 98.1076 28.4618C98.9576 29.1399 100.021 29.4943 101.108 29.4618C102.194 29.4908 103.256 29.1368 104.108 28.4618C105.422 27.4868 107.023 26.9767 108.658 27.0118C110.303 26.9783 111.912 27.488 113.238 28.4618C114.091 29.1353 115.152 29.4891 116.238 29.4618C117.325 29.4961 118.389 29.1415 119.238 28.4618C120.562 27.4928 122.167 26.9835 123.808 27.0118C125.453 26.9783 127.062 27.488 128.388 28.4618C129.241 29.1353 130.302 29.4891 131.388 29.4618C132.475 29.4961 133.539 29.1415 134.388 28.4618C134.578 28.3218 134.788 28.1918 135.018 28.0318Z" fill="url(#paint18_radial)"/>
<path d="M134.888 24.3417C133.686 25.1539 132.258 25.5635 130.808 25.5117C129.161 25.5529 127.549 25.0308 126.238 24.0317C125.379 23.3712 124.322 23.019 123.238 23.0317C122.153 23.0102 121.093 23.3634 120.238 24.0317C118.926 25.0272 117.315 25.5489 115.668 25.5117C114.018 25.5519 112.403 25.0301 111.088 24.0317C110.229 23.3705 109.172 23.0182 108.088 23.0317C107.004 23.0151 105.946 23.3677 105.088 24.0317C103.785 25.0308 102.179 25.5531 100.538 25.5117C98.9006 25.5634 97.2976 25.0397 96.0076 24.0317C95.1496 23.3677 94.0916 23.0151 93.0076 23.0317V21.2417C94.6276 21.2457 96.2076 21.7524 97.5276 22.6917C98.3776 23.3699 99.4406 23.7243 100.528 23.6917C101.614 23.7208 102.676 23.3668 103.528 22.6917C104.842 21.7168 106.442 21.2067 108.078 21.2417C109.72 21.206 111.327 21.716 112.648 22.6917C113.501 23.3646 114.562 23.7183 115.648 23.6917C116.734 23.7208 117.796 23.3668 118.648 22.6917C119.971 21.7207 121.577 21.2113 123.218 21.2417C124.863 21.2083 126.472 21.718 127.798 22.6917C128.65 23.3653 129.712 23.7191 130.798 23.6917C131.885 23.726 132.949 23.3715 133.798 22.6917C134.008 22.5617 134.238 22.4017 134.478 22.2717C134.678 22.9476 134.816 23.6406 134.888 24.3417Z" fill="url(#paint19_radial)"/>
<path d="M133.098 18.9118C132.353 19.1231 131.582 19.2275 130.808 19.2218C129.163 19.2481 127.555 18.7275 126.238 17.7418C125.385 17.0689 124.324 16.7152 123.238 16.7418C122.151 16.7057 121.086 17.0605 120.238 17.7418C118.919 18.7241 117.313 19.2443 115.668 19.2218C114.02 19.248 112.409 18.7276 111.088 17.7418C110.236 17.0682 109.174 16.7144 108.088 16.7418C107.001 16.711 105.939 17.0651 105.088 17.7418C103.779 18.7281 102.177 19.249 100.538 19.2218C98.9036 19.2554 97.3066 18.7336 96.0076 17.7418C95.1566 17.0651 94.0946 16.711 93.0076 16.7418V14.9518C94.6276 14.9557 96.2076 15.4624 97.5276 16.4018C98.3776 17.0799 99.4406 17.4343 100.528 17.4018C101.614 17.4308 102.676 17.0769 103.528 16.4018C104.842 15.4268 106.442 14.9167 108.078 14.9518C109.72 14.9161 111.327 15.426 112.648 16.4018C113.501 17.0746 114.562 17.4283 115.648 17.4018C116.734 17.4308 117.796 17.0769 118.648 16.4018C119.971 15.4308 121.577 14.9213 123.218 14.9518C124.863 14.9184 126.472 15.428 127.798 16.4018C128.65 17.0753 129.712 17.4291 130.798 17.4018C131.202 17.4053 131.604 17.3617 131.998 17.2718C132.41 17.7864 132.778 18.335 133.098 18.9118Z" fill="url(#paint20_radial)"/>
<path d="M98.1176 60.17C97.8246 60.17 97.5446 60.0544 97.3366 59.8484C97.1286 59.6424 97.0106 59.3626 97.0076 59.07V58.07C97.0106 57.7773 97.1286 57.4976 97.3366 57.2916C97.5446 57.0856 97.8246 56.97 98.1176 56.97C98.4106 56.97 98.6916 57.0856 98.8986 57.2916C99.1066 57.4976 99.2246 57.7773 99.2276 58.07V59.07C99.2246 59.3626 99.1066 59.6424 98.8986 59.8484C98.6916 60.0544 98.4106 60.17 98.1176 60.17Z" fill="url(#paint21_linear)"/>
<path d="M98.1176 53.18C97.8246 53.18 97.5446 53.0645 97.3366 52.8584C97.1286 52.6524 97.0106 52.3727 97.0076 52.08V51.08C97.0076 50.7856 97.1246 50.5033 97.3326 50.2951C97.5406 50.087 97.8236 49.97 98.1176 49.97C98.4116 49.97 98.6946 50.087 98.9026 50.2951C99.1106 50.5033 99.2276 50.7856 99.2276 51.08V52.08C99.2246 52.3727 99.1066 52.6524 98.8986 52.8584C98.6916 53.0645 98.4106 53.18 98.1176 53.18Z" fill="url(#paint22_linear)"/>
<path d="M102.118 56.17H101.118C100.825 56.1674 100.546 56.0493 100.34 55.8414C100.134 55.6335 100.018 55.3527 100.018 55.06C100.018 54.7674 100.134 54.4865 100.34 54.2786C100.546 54.0708 100.825 53.9526 101.118 53.95H102.118C102.412 53.95 102.695 54.067 102.903 54.2751C103.111 54.4833 103.228 54.7656 103.228 55.06C103.228 55.3544 103.111 55.6367 102.903 55.8449C102.695 56.0531 102.412 56.17 102.118 56.17Z" fill="url(#paint23_linear)"/>
<path d="M95.1376 56.17H94.1376C93.8436 56.17 93.5606 56.0531 93.3526 55.8449C93.1446 55.6367 93.0276 55.3544 93.0276 55.06C93.0276 54.7656 93.1446 54.4833 93.3526 54.2751C93.5606 54.067 93.8436 53.95 94.1376 53.95H95.1376C95.4306 53.9526 95.7096 54.0708 95.9156 54.2786C96.1216 54.4865 96.2376 54.7674 96.2376 55.06C96.2376 55.3527 96.1216 55.6335 95.9156 55.8414C95.7096 56.0493 95.4306 56.1674 95.1376 56.17Z" fill="url(#paint24_linear)"/>
<path d="M37.1176 29.17C36.825 29.17 36.5441 29.0544 36.3362 28.8484C36.1284 28.6424 36.0102 28.3626 36.0076 28.07V27.07C36.0102 26.7773 36.1284 26.4976 36.3362 26.2916C36.5441 26.0856 36.825 25.97 37.1176 25.97C37.4103 25.97 37.6911 26.0856 37.899 26.2916C38.1069 26.4976 38.225 26.7773 38.2276 27.07V28.07C38.225 28.3626 38.1069 28.6424 37.899 28.8484C37.6911 29.0544 37.4103 29.17 37.1176 29.17Z" fill="url(#paint25_linear)"/>
<path d="M37.1176 22.18C36.825 22.18 36.5441 22.0645 36.3362 21.8584C36.1284 21.6524 36.0102 21.3727 36.0076 21.08V20.08C36.0076 19.7856 36.1245 19.5033 36.3327 19.2951C36.5409 19.087 36.8232 18.97 37.1176 18.97C37.412 18.97 37.6943 19.087 37.9025 19.2951C38.1107 19.5033 38.2276 19.7856 38.2276 20.08V21.08C38.225 21.3727 38.1069 21.6524 37.899 21.8584C37.6911 22.0645 37.4103 22.18 37.1176 22.18Z" fill="url(#paint26_linear)"/>
<path d="M41.1176 25.17H40.1176C39.825 25.1674 39.5452 25.0493 39.3392 24.8414C39.1332 24.6335 39.0176 24.3527 39.0176 24.06C39.0176 23.7674 39.1332 23.4865 39.3392 23.2786C39.5452 23.0708 39.825 22.9526 40.1176 22.95H41.1176C41.412 22.95 41.6943 23.067 41.9025 23.2751C42.1107 23.4833 42.2276 23.7656 42.2276 24.06C42.2276 24.3544 42.1107 24.6367 41.9025 24.8449C41.6943 25.0531 41.412 25.17 41.1176 25.17Z" fill="url(#paint27_linear)"/>
<path d="M34.1376 25.17H33.1376C32.8432 25.17 32.5609 25.0531 32.3527 24.8449C32.1446 24.6367 32.0276 24.3544 32.0276 24.06C32.0276 23.7656 32.1446 23.4833 32.3527 23.2751C32.5609 23.067 32.8432 22.95 33.1376 22.95H34.1376C34.4303 22.9526 34.71 23.0708 34.916 23.2786C35.1221 23.4865 35.2376 23.7674 35.2376 24.06C35.2376 24.3527 35.1221 24.6335 34.916 24.8414C34.71 25.0493 34.4303 25.1674 34.1376 25.17Z" fill="url(#paint28_linear)"/>
<path d="M11.0074 1H17.0074C17.0074 7.75 18.6474 10.31 19.3074 10.9C19.9674 10.31 21.6074 7.75 21.6074 1H27.6074C27.7377 4.7611 27.0803 8.50791 25.6774 12C24.2274 15.17 21.8974 17 19.3074 17C16.7174 17 14.3974 15.15 12.9374 12C11.5362 8.50766 10.8821 4.76052 11.0174 1H11.0074Z" fill="url(#paint29_linear)"/>
</g>
<path d="M47.413 28.328H50.2181C50.5384 28.3315 50.8447 28.461 51.0711 28.6883C51.2976 28.9157 51.4264 29.2232 51.43 29.5447V46.4005C51.4318 46.5621 51.4018 46.7224 51.342 46.8725C51.282 47.0224 51.1932 47.1591 51.0806 47.2745C50.9681 47.3901 50.834 47.4823 50.686 47.5457C50.538 47.6092 50.3791 47.6427 50.2181 47.6446H46.9772C46.814 47.6464 46.652 47.6155 46.5009 47.5536C46.3497 47.4918 46.2124 47.4001 46.097 47.2843C45.9815 47.1684 45.8903 47.0306 45.8287 46.8788C45.767 46.727 45.7363 46.5645 45.7381 46.4005V34.4797L43.8863 35.7238C43.7792 35.8004 43.6574 35.8536 43.5287 35.88C43.3999 35.9064 43.2672 35.9054 43.1389 35.877C43.0106 35.8487 42.8895 35.7936 42.7837 35.7155C42.6779 35.6373 42.5896 35.5377 42.5245 35.423L41.1629 33.3177C41.0905 33.209 41.0408 33.0868 41.0167 32.9583C40.9926 32.83 40.9946 32.6979 41.0225 32.5702C41.0505 32.4426 41.1039 32.3219 41.1795 32.2154C41.2551 32.1089 41.3513 32.0189 41.4624 31.9507L46.5142 28.5331C46.7845 28.3707 47.0993 28.2989 47.413 28.328Z" fill="black"/>
<path d="M70.6162 37.9931C70.6162 43.4614 67.9745 48 62.2009 48C56.4273 48 53.7722 43.4477 53.7722 37.9931C53.7722 32.5386 56.4955 28 62.2009 28C67.9064 28 70.6162 32.5249 70.6162 37.9931ZM65.1695 37.9931C65.1695 35.5597 64.3797 33.2632 62.2009 33.2632C60.0223 33.2632 59.2053 35.5597 59.2053 37.9931C59.2053 40.4265 60.0359 42.7095 62.2009 42.7095C64.366 42.7095 65.1695 40.3855 65.1695 37.9931Z" fill="black"/>
<path d="M77.9829 28.3279H80.7879C81.1094 28.3279 81.4175 28.4562 81.6448 28.6843C81.872 28.9125 81.9999 29.2219 81.9999 29.5446V46.4005C82.0016 46.562 81.9716 46.7224 81.9118 46.8723C81.8518 47.0223 81.7631 47.1589 81.6506 47.2745C81.5381 47.39 81.4038 47.4821 81.2558 47.5456C81.1078 47.6091 80.9489 47.6427 80.7879 47.6445H77.547C77.2184 47.6445 76.9033 47.5134 76.671 47.2801C76.4385 47.0468 76.3079 46.7304 76.3079 46.4005V34.4797L74.4696 35.7237C74.362 35.7982 74.2403 35.8497 74.1119 35.8751C73.9836 35.9003 73.8514 35.8987 73.7237 35.8706C73.5959 35.8423 73.4754 35.7881 73.3694 35.7111C73.2635 35.6341 73.1746 35.5361 73.108 35.423L71.7464 33.3177C71.6745 33.2082 71.6257 33.0852 71.6027 32.9562C71.5795 32.8271 71.5827 32.6948 71.612 32.5669C71.6412 32.4392 71.696 32.3188 71.7729 32.2129C71.8498 32.1069 71.9472 32.0178 72.0595 31.9507L77.1115 28.533C77.373 28.3736 77.6781 28.3019 77.9829 28.3279Z" fill="black"/>
<path d="M41.8248 63.5264C41.8248 68.1334 38.7638 70.2376 33.9125 70.2376H31.7123V74.5146C31.7123 74.679 31.6801 74.8417 31.6177 74.9936C31.5551 75.1453 31.4636 75.2834 31.3481 75.3995C31.2325 75.5158 31.0956 75.608 30.9447 75.6708C30.7938 75.7337 30.6321 75.7661 30.4688 75.7661H27.2163C27.0549 75.7644 26.8952 75.7305 26.7467 75.6667C26.5982 75.6028 26.4635 75.5101 26.3506 75.3939C26.2376 75.2777 26.1486 75.1402 26.0885 74.9893C26.0283 74.8385 25.9982 74.6772 26.0001 74.5146V57.5577C26.0001 57.2331 26.1281 56.9217 26.3563 56.6922C26.5843 56.4626 26.8938 56.3337 27.2163 56.3337H33.9125C39.2421 56.3337 41.8248 59.1943 41.8248 63.5264ZM36.0717 63.5264C36.0819 63.2467 36.0314 62.9681 35.9238 62.71C35.8162 62.452 35.6541 62.2207 35.4485 62.0321C35.2431 61.8436 34.9991 61.7025 34.7337 61.6185C34.4685 61.5345 34.1883 61.5098 33.9125 61.5459H31.7123V65.5204H33.9125C34.1899 65.5593 34.4724 65.536 34.7398 65.4522C35.0071 65.3685 35.2527 65.2261 35.4591 65.0355C35.6654 64.845 35.8274 64.6109 35.9333 64.3499C36.0392 64.0889 36.0863 63.8078 36.0717 63.5264Z" fill="black"/>
<path d="M63.2114 66.0568C63.2006 68.0324 62.6086 69.9606 61.5097 71.5979C60.411 73.2351 58.8546 74.508 57.0375 75.2559C55.2205 76.0038 53.2239 76.1932 51.3 75.8C49.3761 75.407 47.6111 74.449 46.2277 73.0472C44.8443 71.6454 43.9045 69.8626 43.527 67.9237C43.1497 65.9849 43.3517 63.977 44.1073 62.1536C44.8629 60.3301 46.1383 58.7727 47.7727 57.6782C49.4071 56.5837 51.3269 56.001 53.2902 56.0037C54.6087 55.9671 55.9206 56.2029 57.1454 56.6961C58.3699 57.1893 59.4812 57.9296 60.4107 58.8714C61.3402 59.8133 62.0682 60.9368 62.5498 62.1724C63.0315 63.4083 63.2567 64.7302 63.2114 66.0568ZM57.5129 66.0568C57.465 65.2286 57.1769 64.4327 56.6847 63.7672C56.1925 63.1016 55.5176 62.5956 54.7429 62.3116C53.9685 62.0275 53.1282 61.9779 52.326 62.1687C51.5237 62.3597 50.7945 62.7827 50.2283 63.3857C49.662 63.9886 49.2837 64.7452 49.1396 65.5621C48.9957 66.379 49.0925 67.2204 49.4181 67.9827C49.7436 68.7449 50.2836 69.3945 50.9718 69.8514C51.6599 70.3082 52.4658 70.5524 53.2902 70.5539C53.8713 70.5738 54.45 70.4693 54.9879 70.2468C55.5257 70.0245 56.0104 69.6896 56.4098 69.2643C56.8092 68.8389 57.1141 68.333 57.3043 67.78C57.4944 67.227 57.5656 66.6395 57.5129 66.0568Z" fill="black"/>
<path d="M84.7482 66.0568C84.7375 68.0319 84.1456 69.9595 83.0474 71.5965C81.9492 73.2334 80.3938 74.5063 78.5775 75.2546C76.7612 76.003 74.7654 76.1931 72.8419 75.8011C70.9183 75.4092 69.1531 74.4526 67.7692 73.0522C66.3852 71.6517 65.4445 69.8702 65.0656 67.9322C64.6867 65.9942 64.8866 63.9868 65.6401 62.1631C66.3936 60.3394 67.667 58.7811 69.2995 57.6849C70.9321 56.5888 72.8507 56.0037 74.8133 56.0037C76.1325 55.9673 77.4451 56.2029 78.6705 56.696C79.8957 57.1891 81.0078 57.9292 81.9383 58.8708C82.8689 59.8125 83.5982 60.9357 84.0814 62.1714C84.5647 63.4073 84.7916 64.7296 84.7482 66.0568ZM79.0361 66.0568C78.9881 65.2286 78.7 64.4326 78.2078 63.7672C77.7156 63.1017 77.0407 62.5956 76.2661 62.3116C75.4916 62.0275 74.6513 61.978 73.8491 62.1688C73.0468 62.3597 72.3176 62.7828 71.7514 63.3857C71.1852 63.9887 70.8068 64.7453 70.6627 65.5622C70.5188 66.379 70.6156 67.2205 70.9412 67.9826C71.2668 68.7449 71.8068 69.3945 72.4949 69.8515C73.183 70.3083 73.989 70.5525 74.8133 70.554C75.3944 70.5739 75.9731 70.4692 76.511 70.2469C77.0489 70.0245 77.5336 69.6896 77.9329 69.2642C78.3323 68.8389 78.6372 68.333 78.8274 67.78C79.0176 67.227 79.0887 66.6396 79.0361 66.0568Z" fill="black"/>
<path d="M98.7969 70.5538C99.1151 70.5574 99.4188 70.6861 99.6432 70.9123C99.8677 71.1384 99.9957 71.4442 99.9997 71.7641V74.5147C100.004 74.6765 99.9746 74.8375 99.9165 74.9883C99.8571 75.139 99.77 75.2767 99.6577 75.3931C99.5455 75.5095 99.4122 75.6023 99.2643 75.6664C99.1164 75.7304 98.958 75.7643 98.7969 75.7662H88.3427C88.1788 75.7679 88.0163 75.7368 87.8646 75.6746C87.7128 75.6123 87.575 75.5202 87.4591 75.4037C87.3433 75.287 87.2517 75.1483 87.1899 74.9956C87.1281 74.843 87.0972 74.6794 87.0989 74.5147V57.5576C87.1008 57.3951 87.1345 57.2345 87.198 57.085C87.2613 56.9355 87.3535 56.8001 87.469 56.6864C87.5844 56.5728 87.7209 56.4831 87.8709 56.4225C88.0208 56.3621 88.1811 56.3318 88.3427 56.3336H91.5951C91.9164 56.3372 92.2245 56.4673 92.4516 56.6961C92.6786 56.9249 92.808 57.2341 92.8107 57.5576V70.5538H98.7969Z" fill="black"/>
<defs>
<linearGradient id="paint0_linear" x1="62.5648" y1="0" x2="62.5648" y2="103.734" gradientUnits="userSpaceOnUse">
<stop stop-color="#FFDC6B"/>
<stop offset="1" stop-color="#FFAB14"/>
</linearGradient>
<linearGradient id="paint1_linear" x1="62.4927" y1="0" x2="62.4927" y2="103.93" gradientUnits="userSpaceOnUse">
<stop stop-color="#6FD74A"/>
<stop offset="1" stop-color="#24A240"/>
</linearGradient>
<radialGradient id="paint2_radial" cx="0" cy="0" r="1" gradientUnits="userSpaceOnUse" gradientTransform="translate(22.2574 87.87) scale(0.919998)">
<stop stop-color="#F89231"/>
<stop offset="0.13" stop-color="#F89F31"/>
<stop offset="0.32" stop-color="#F8AA31"/>
<stop offset="0.52" stop-color="#F8AE31"/>
<stop offset="0.92" stop-color="#FC9F00"/>
</radialGradient>
<radialGradient id="paint3_radial" cx="0" cy="0" r="1" gradientUnits="userSpaceOnUse" gradientTransform="translate(735.036 -660.303) scale(1.6928 1.70201)">
<stop stop-color="#F89231"/>
<stop offset="0.13" stop-color="#F89F31"/>
<stop offset="0.32" stop-color="#F8AA31"/>
<stop offset="0.52" stop-color="#F8AE31"/>
<stop offset="0.92" stop-color="#FC9F00"/>
</radialGradient>
<radialGradient id="paint4_radial" cx="0" cy="0" r="1" gradientUnits="userSpaceOnUse" gradientTransform="translate(756.896 -660.303) scale(1.70201)">
<stop stop-color="#F89231"/>
<stop offset="0.13" stop-color="#F89F31"/>
<stop offset="0.32" stop-color="#F8AA31"/>
<stop offset="0.52" stop-color="#F8AE31"/>
<stop offset="0.92" stop-color="#FC9F00"/>
</radialGradient>
<radialGradient id="paint5_radial" cx="0" cy="0" r="1" gradientUnits="userSpaceOnUse" gradientTransform="translate(699.093 -645.495) scale(1.69282 1.70201)">
<stop stop-color="#F89231"/>
<stop offset="0.13" stop-color="#F89F31"/>
<stop offset="0.32" stop-color="#F8AA31"/>
<stop offset="0.52" stop-color="#F8AE31"/>
<stop offset="0.92" stop-color="#FC9F00"/>
</radialGradient>
<radialGradient id="paint6_radial" cx="0" cy="0" r="1" gradientUnits="userSpaceOnUse" gradientTransform="translate(717.028 -645.495) scale(1.6928 1.70201)">
<stop stop-color="#F89231"/>
<stop offset="0.13" stop-color="#F89F31"/>
<stop offset="0.32" stop-color="#F8AA31"/>
<stop offset="0.52" stop-color="#F8AE31"/>
<stop offset="0.92" stop-color="#FC9F00"/>
</radialGradient>
<radialGradient id="paint7_radial" cx="0" cy="0" r="1" gradientUnits="userSpaceOnUse" gradientTransform="translate(735.036 -645.495) scale(1.6928 1.70201)">
<stop stop-color="#F89231"/>
<stop offset="0.13" stop-color="#F89F31"/>
<stop offset="0.32" stop-color="#F8AA31"/>
<stop offset="0.52" stop-color="#F8AE31"/>
<stop offset="0.92" stop-color="#FC9F00"/>
</radialGradient>
<radialGradient id="paint8_radial" cx="0" cy="0" r="1" gradientUnits="userSpaceOnUse" gradientTransform="translate(756.896 -645.495) scale(1.70201)">
<stop stop-color="#F89231"/>
<stop offset="0.13" stop-color="#F89F31"/>
<stop offset="0.32" stop-color="#F8AA31"/>
<stop offset="0.52" stop-color="#F8AE31"/>
<stop offset="0.92" stop-color="#FC9F00"/>
</radialGradient>
<radialGradient id="paint9_radial" cx="0" cy="0" r="1" gradientUnits="userSpaceOnUse" gradientTransform="translate(699.093 -626.766) scale(1.69282)">
<stop stop-color="#F89231"/>
<stop offset="0.13" stop-color="#F89F31"/>
<stop offset="0.32" stop-color="#F8AA31"/>
<stop offset="0.52" stop-color="#F8AE31"/>
<stop offset="0.92" stop-color="#FC9F00"/>
</radialGradient>
<radialGradient id="paint10_radial" cx="0" cy="0" r="1" gradientUnits="userSpaceOnUse" gradientTransform="translate(717.028 -626.766) scale(1.6928)">
<stop stop-color="#F89231"/>
<stop offset="0.13" stop-color="#F89F31"/>
<stop offset="0.32" stop-color="#F8AA31"/>
<stop offset="0.52" stop-color="#F8AE31"/>
<stop offset="0.92" stop-color="#FC9F00"/>
</radialGradient>
<radialGradient id="paint11_radial" cx="0" cy="0" r="1" gradientUnits="userSpaceOnUse" gradientTransform="translate(735.036 -626.766) scale(1.6928)">
<stop stop-color="#F89231"/>
<stop offset="0.13" stop-color="#F89F31"/>
<stop offset="0.32" stop-color="#F8AA31"/>
<stop offset="0.52" stop-color="#F8AE31"/>
<stop offset="0.92" stop-color="#FC9F00"/>
</radialGradient>
<radialGradient id="paint12_radial" cx="0" cy="0" r="1" gradientUnits="userSpaceOnUse" gradientTransform="translate(756.896 -626.766) scale(1.70201 1.69282)">
<stop stop-color="#F89231"/>
<stop offset="0.13" stop-color="#F89F31"/>
<stop offset="0.32" stop-color="#F8AA31"/>
<stop offset="0.52" stop-color="#F8AE31"/>
<stop offset="0.92" stop-color="#FC9F00"/>
</radialGradient>
<radialGradient id="paint13_radial" cx="0" cy="0" r="1" gradientUnits="userSpaceOnUse" gradientTransform="translate(699.093 -612.013) scale(1.69282)">
<stop stop-color="#F89231"/>
<stop offset="0.13" stop-color="#F89F31"/>
<stop offset="0.32" stop-color="#F8AA31"/>
<stop offset="0.52" stop-color="#F8AE31"/>
<stop offset="0.92" stop-color="#FC9F00"/>
</radialGradient>
<radialGradient id="paint14_radial" cx="0" cy="0" r="1" gradientUnits="userSpaceOnUse" gradientTransform="translate(717.028 -612.013) scale(1.6928)">
<stop stop-color="#F89231"/>
<stop offset="0.13" stop-color="#F89F31"/>
<stop offset="0.32" stop-color="#F8AA31"/>
<stop offset="0.52" stop-color="#F8AE31"/>
<stop offset="0.92" stop-color="#FC9F00"/>
</radialGradient>
<radialGradient id="paint15_radial" cx="0" cy="0" r="1" gradientUnits="userSpaceOnUse" gradientTransform="translate(735.036 -612.013) scale(1.6928)">
<stop stop-color="#F89231"/>
<stop offset="0.13" stop-color="#F89F31"/>
<stop offset="0.32" stop-color="#F8AA31"/>
<stop offset="0.52" stop-color="#F8AE31"/>
<stop offset="0.92" stop-color="#FC9F00"/>
</radialGradient>
<radialGradient id="paint16_radial" cx="0" cy="0" r="1" gradientUnits="userSpaceOnUse" gradientTransform="translate(756.896 -612.013) scale(1.70201 1.6928)">
<stop stop-color="#F89231"/>
<stop offset="0.13" stop-color="#F89F31"/>
<stop offset="0.32" stop-color="#F8AA31"/>
<stop offset="0.52" stop-color="#F8AE31"/>
<stop offset="0.92" stop-color="#FC9F00"/>
</radialGradient>
<radialGradient id="paint17_radial" cx="0" cy="0" r="1" gradientUnits="userSpaceOnUse" gradientTransform="translate(114.568 34.8617) scale(14.54)">
<stop stop-color="#F8AE31"/>
<stop offset="0.04" stop-color="#FAB622"/>
<stop offset="0.12" stop-color="#FBBF0F"/>
<stop offset="0.2" stop-color="#FDC504"/>
<stop offset="0.28" stop-color="#FDC700"/>
<stop offset="0.67" stop-color="#F8AE31"/>
<stop offset="0.92" stop-color="#FCC600"/>
</radialGradient>
<radialGradient id="paint18_radial" cx="0" cy="0" r="1" gradientUnits="userSpaceOnUse" gradientTransform="translate(20513.6 -1770.56) scale(610.264 62.9536)">
<stop stop-color="#F8AE31"/>
<stop offset="0.04" stop-color="#FAB622"/>
<stop offset="0.12" stop-color="#FBBF0F"/>
<stop offset="0.2" stop-color="#FDC504"/>
<stop offset="0.28" stop-color="#FDC700"/>
<stop offset="0.67" stop-color="#F8AE31"/>
<stop offset="0.92" stop-color="#FCC600"/>
</radialGradient>
<radialGradient id="paint19_radial" cx="0" cy="0" r="1" gradientUnits="userSpaceOnUse" gradientTransform="translate(20720.2 -1801.97) scale(623.175 63.6286)">
<stop stop-color="#F8AE31"/>
<stop offset="0.04" stop-color="#FAB622"/>
<stop offset="0.12" stop-color="#FBBF0F"/>
<stop offset="0.2" stop-color="#FDC504"/>
<stop offset="0.28" stop-color="#FDC700"/>
<stop offset="0.67" stop-color="#F8AE31"/>
<stop offset="0.92" stop-color="#FCC600"/>
</radialGradient>
<radialGradient id="paint20_radial" cx="0" cy="0" r="1" gradientUnits="userSpaceOnUse" gradientTransform="translate(19802.5 -1833.94) scale(571.283 60.8945)">
<stop stop-color="#F8AE31"/>
<stop offset="0.04" stop-color="#FAB622"/>
<stop offset="0.12" stop-color="#FBBF0F"/>
<stop offset="0.2" stop-color="#FDC504"/>
<stop offset="0.28" stop-color="#FDC700"/>
<stop offset="0.67" stop-color="#F8AE31"/>
<stop offset="0.92" stop-color="#FCC600"/>
</radialGradient>
<linearGradient id="paint21_linear" x1="98.1176" y1="56.97" x2="98.1176" y2="60.17" gradientUnits="userSpaceOnUse">
<stop stop-color="#FFD243"/>
<stop offset="1" stop-color="#D07D00" stop-opacity="0"/>
</linearGradient>
<linearGradient id="paint22_linear" x1="98.1176" y1="49.97" x2="98.1176" y2="53.18" gradientUnits="userSpaceOnUse">
<stop stop-color="#FFD243"/>
<stop offset="1" stop-color="#D07D00" stop-opacity="0"/>
</linearGradient>
<linearGradient id="paint23_linear" x1="101.623" y1="53.95" x2="101.623" y2="56.17" gradientUnits="userSpaceOnUse">
<stop stop-color="#FFD243"/>
<stop offset="1" stop-color="#D07D00" stop-opacity="0"/>
</linearGradient>
<linearGradient id="paint24_linear" x1="94.6326" y1="53.95" x2="94.6326" y2="56.17" gradientUnits="userSpaceOnUse">
<stop stop-color="#FFD243"/>
<stop offset="1" stop-color="#D07D00" stop-opacity="0"/>
</linearGradient>
<linearGradient id="paint25_linear" x1="37.1176" y1="25.97" x2="37.1176" y2="29.17" gradientUnits="userSpaceOnUse">
<stop stop-color="#FFD243"/>
<stop offset="1" stop-color="#D07D00" stop-opacity="0"/>
</linearGradient>
<linearGradient id="paint26_linear" x1="37.1176" y1="18.97" x2="37.1176" y2="22.18" gradientUnits="userSpaceOnUse">
<stop stop-color="#FFD243"/>
<stop offset="1" stop-color="#D07D00" stop-opacity="0"/>
</linearGradient>
<linearGradient id="paint27_linear" x1="40.6226" y1="22.95" x2="40.6226" y2="25.17" gradientUnits="userSpaceOnUse">
<stop stop-color="#FFD243"/>
<stop offset="1" stop-color="#D07D00" stop-opacity="0"/>
</linearGradient>
<linearGradient id="paint28_linear" x1="33.6326" y1="22.95" x2="33.6326" y2="25.17" gradientUnits="userSpaceOnUse">
<stop stop-color="#FFD243"/>
<stop offset="1" stop-color="#D07D00" stop-opacity="0"/>
</linearGradient>
<linearGradient id="paint29_linear" x1="19.3118" y1="1" x2="19.3118" y2="17" gradientUnits="userSpaceOnUse">
<stop stop-color="#F9B22A"/>
<stop offset="1" stop-color="#EFBD5E" stop-opacity="0"/>
</linearGradient>
</defs>
</svg>
