<svg width="168" height="102" viewBox="0 0 168 102" fill="none" xmlns="http://www.w3.org/2000/svg">
<rect width="168" height="102" rx="24" fill="url(#paint0_linear)"/>
<mask id="mask0" mask-type="alpha" maskUnits="userSpaceOnUse" x="0" y="0" width="168" height="102">
<rect width="168" height="102" rx="24" fill="url(#paint1_linear)"/>
</mask>
<g mask="url(#mask0)">
<path d="M21.1476 84.8699C21.1477 85.1148 21.051 85.35 20.8788 85.5241C20.7065 85.6982 20.4725 85.7973 20.2276 85.7999C19.9827 85.7973 19.7487 85.6982 19.5765 85.5241C19.4042 85.35 19.3076 85.1148 19.3076 84.8699C19.3076 84.6259 19.4046 84.392 19.5771 84.2195C19.7497 84.0469 19.9836 83.95 20.2276 83.95C20.4716 83.95 20.7056 84.0469 20.8782 84.2195C21.0507 84.392 21.1476 84.6259 21.1476 84.8699Z" fill="url(#paint2_radial)"/>
<path d="M27.508 84.8699C27.508 85.1148 27.4115 85.35 27.2392 85.5241C27.0669 85.6982 26.833 85.7973 26.588 85.7999C26.3431 85.7973 26.1091 85.6982 25.9369 85.5241C25.7646 85.35 25.668 85.1148 25.668 84.8699C25.668 84.6259 25.765 84.392 25.9375 84.2195C26.11 84.0469 26.344 83.95 26.588 83.95C26.832 83.95 27.0661 84.0469 27.2386 84.2195C27.4111 84.392 27.508 84.6259 27.508 84.8699Z" fill="url(#paint3_radial)"/>
<path d="M33.8378 84.8699C33.8378 85.1165 33.7398 85.3531 33.5654 85.5275C33.391 85.7019 33.1544 85.7999 32.9078 85.7999C32.6629 85.7973 32.4289 85.6982 32.2566 85.5241C32.0844 85.35 31.9878 85.1148 31.9878 84.8699C31.9904 84.6267 32.0881 84.3943 32.2601 84.2223C32.4321 84.0504 32.6646 83.9526 32.9078 83.95C33.1527 83.95 33.3878 84.0466 33.5619 84.2188C33.736 84.391 33.8352 84.625 33.8378 84.8699Z" fill="url(#paint4_radial)"/>
<path d="M14.8478 90.0699C14.8478 90.3139 14.7509 90.5479 14.5784 90.7204C14.4058 90.893 14.1718 90.9899 13.9278 90.9899C13.6838 90.9899 13.4498 90.893 13.2773 90.7204C13.1047 90.5479 13.0078 90.3139 13.0078 90.0699C13.0078 89.825 13.1044 89.5899 13.2767 89.4158C13.4489 89.2417 13.6829 89.1425 13.9278 89.1399C14.1727 89.1425 14.4067 89.2417 14.579 89.4158C14.7512 89.5899 14.8478 89.825 14.8478 90.0699Z" fill="url(#paint5_radial)"/>
<path d="M21.1476 90.0699C21.1476 90.3139 21.0507 90.5479 20.8782 90.7204C20.7056 90.893 20.4716 90.9899 20.2276 90.9899C19.9836 90.9899 19.7497 90.893 19.5771 90.7204C19.4046 90.5479 19.3076 90.3139 19.3076 90.0699C19.3076 89.825 19.4042 89.5899 19.5765 89.4158C19.7487 89.2417 19.9827 89.1425 20.2276 89.1399C20.4725 89.1425 20.7065 89.2417 20.8788 89.4158C21.051 89.5899 21.1477 89.825 21.1476 90.0699Z" fill="url(#paint6_radial)"/>
<path d="M27.508 90.0699C27.508 90.3139 27.4111 90.5479 27.2386 90.7204C27.0661 90.893 26.832 90.9899 26.588 90.9899C26.344 90.9899 26.11 90.893 25.9375 90.7204C25.765 90.5479 25.668 90.3139 25.668 90.0699C25.668 89.825 25.7646 89.5899 25.9369 89.4158C26.1091 89.2417 26.3431 89.1425 26.588 89.1399C26.833 89.1425 27.0669 89.2417 27.2392 89.4158C27.4115 89.5899 27.508 89.825 27.508 90.0699Z" fill="url(#paint7_radial)"/>
<path d="M33.8378 90.0699C33.8352 90.3148 33.736 90.5488 33.5619 90.721C33.3878 90.8933 33.1527 90.9899 32.9078 90.9899C32.6646 90.9873 32.4321 90.8895 32.2601 90.7176C32.0881 90.5456 31.9904 90.3131 31.9878 90.0699C31.9878 89.825 32.0844 89.5899 32.2566 89.4158C32.4289 89.2417 32.6629 89.1425 32.9078 89.1399C33.1544 89.1399 33.391 89.2379 33.5654 89.4123C33.7398 89.5867 33.8378 89.8232 33.8378 90.0699Z" fill="url(#paint8_radial)"/>
<path d="M14.8478 95.2598C14.8478 95.5038 14.7509 95.7378 14.5784 95.9103C14.4058 96.0828 14.1718 96.1798 13.9278 96.1798C13.6838 96.1798 13.4498 96.0828 13.2773 95.9103C13.1047 95.7378 13.0078 95.5038 13.0078 95.2598C13.0078 95.0158 13.1047 94.7818 13.2773 94.6092C13.4498 94.4367 13.6838 94.3398 13.9278 94.3398C14.1718 94.3398 14.4058 94.4367 14.5784 94.6092C14.7509 94.7818 14.8478 95.0158 14.8478 95.2598Z" fill="url(#paint9_radial)"/>
<path d="M21.1476 95.2598C21.1476 95.5038 21.0507 95.7378 20.8782 95.9103C20.7056 96.0828 20.4716 96.1798 20.2276 96.1798C19.9836 96.1798 19.7497 96.0828 19.5771 95.9103C19.4046 95.7378 19.3076 95.5038 19.3076 95.2598C19.3076 95.0158 19.4046 94.7818 19.5771 94.6092C19.7497 94.4367 19.9836 94.3398 20.2276 94.3398C20.4716 94.3398 20.7056 94.4367 20.8782 94.6092C21.0507 94.7818 21.1476 95.0158 21.1476 95.2598Z" fill="url(#paint10_radial)"/>
<path d="M27.508 95.2598C27.508 95.5038 27.4111 95.7378 27.2386 95.9103C27.0661 96.0828 26.832 96.1798 26.588 96.1798C26.344 96.1798 26.11 96.0828 25.9375 95.9103C25.765 95.7378 25.668 95.5038 25.668 95.2598C25.668 95.0158 25.765 94.7818 25.9375 94.6092C26.11 94.4367 26.344 94.3398 26.588 94.3398C26.832 94.3398 27.0661 94.4367 27.2386 94.6092C27.4111 94.7818 27.508 95.0158 27.508 95.2598Z" fill="url(#paint11_radial)"/>
<path d="M33.8378 95.2598C33.8352 95.5047 33.736 95.7387 33.5619 95.9109C33.3878 96.0832 33.1527 96.1798 32.9078 96.1798C32.6638 96.1798 32.4298 96.0828 32.2573 95.9103C32.0847 95.7378 31.9878 95.5038 31.9878 95.2598C31.9878 95.0158 32.0847 94.7818 32.2573 94.6092C32.4298 94.4367 32.6638 94.3398 32.9078 94.3398C33.1527 94.3397 33.3878 94.4364 33.5619 94.6086C33.736 94.7809 33.8352 95.0149 33.8378 95.2598Z" fill="url(#paint12_radial)"/>
<path d="M14.8478 100.45C14.8478 100.694 14.7509 100.928 14.5784 101.101C14.4058 101.273 14.1718 101.37 13.9278 101.37C13.6838 101.37 13.4498 101.273 13.2773 101.101C13.1047 100.928 13.0078 100.694 13.0078 100.45C13.0078 100.206 13.1047 99.972 13.2773 99.7994C13.4498 99.6269 13.6838 99.53 13.9278 99.53C14.1718 99.53 14.4058 99.6269 14.5784 99.7994C14.7509 99.972 14.8478 100.206 14.8478 100.45Z" fill="url(#paint13_radial)"/>
<path d="M21.1476 100.45C21.1476 100.694 21.0507 100.928 20.8782 101.101C20.7056 101.273 20.4716 101.37 20.2276 101.37C19.9836 101.37 19.7497 101.273 19.5771 101.101C19.4046 100.928 19.3076 100.694 19.3076 100.45C19.3076 100.206 19.4046 99.972 19.5771 99.7994C19.7497 99.6269 19.9836 99.53 20.2276 99.53C20.4716 99.53 20.7056 99.6269 20.8782 99.7994C21.0507 99.972 21.1476 100.206 21.1476 100.45Z" fill="url(#paint14_radial)"/>
<path d="M27.508 100.45C27.508 100.694 27.4111 100.928 27.2386 101.101C27.0661 101.273 26.832 101.37 26.588 101.37C26.344 101.37 26.11 101.273 25.9375 101.101C25.765 100.928 25.668 100.694 25.668 100.45C25.668 100.206 25.765 99.972 25.9375 99.7994C26.11 99.6269 26.344 99.53 26.588 99.53C26.832 99.53 27.0661 99.6269 27.2386 99.7994C27.4111 99.972 27.508 100.206 27.508 100.45Z" fill="url(#paint15_radial)"/>
<path d="M33.8378 100.45C33.8352 100.695 33.736 100.929 33.5619 101.101C33.3878 101.273 33.1527 101.37 32.9078 101.37C32.6638 101.37 32.4298 101.273 32.2573 101.101C32.0847 100.928 31.9878 100.694 31.9878 100.45C31.9878 100.206 32.0847 99.972 32.2573 99.7994C32.4298 99.6269 32.6638 99.53 32.9078 99.53C33.1527 99.5299 33.3878 99.6266 33.5619 99.7988C33.736 99.9711 33.8352 100.205 33.8378 100.45Z" fill="url(#paint16_radial)"/>
<path d="M171.018 34.0918V36.3518C170.042 36.8055 168.974 37.028 167.898 37.0018C166.253 37.0281 164.646 36.5076 163.328 35.5218C162.469 34.8613 161.412 34.5091 160.328 34.5218C159.244 34.5052 158.186 34.8578 157.328 35.5218C156.007 36.5076 154.396 37.0281 152.748 37.0018C151.103 37.0304 149.494 36.5096 148.178 35.5218C147.319 34.8613 146.262 34.5091 145.178 34.5218C144.094 34.5075 143.037 34.8599 142.178 35.5218C140.861 36.5076 139.253 37.0281 137.608 37.0018C135.975 37.0299 134.38 36.5087 133.078 35.5218C132.223 34.8535 131.163 34.5003 130.078 34.5218V32.7418C131.7 32.7448 133.281 33.2553 134.598 34.2018C135.448 34.88 136.511 35.2344 137.598 35.2018C138.685 35.2361 139.749 34.8815 140.598 34.2018C141.922 33.2238 143.532 32.7106 145.178 32.7418C146.815 32.7097 148.416 33.2233 149.728 34.2018C150.581 34.8754 151.642 35.2292 152.728 35.2018C153.814 35.2284 154.875 34.8746 155.728 34.2018C157.045 33.217 158.654 32.7029 160.298 32.7418C161.935 32.7097 163.536 33.2233 164.848 34.2018C165.701 34.8754 166.762 35.2292 167.848 35.2018C168.934 35.2284 169.995 34.8746 170.848 34.2018C170.848 34.2018 170.998 34.1218 171.018 34.0918Z" fill="url(#paint17_radial)"/>
<path d="M171.018 28.032V30.3519C169.914 30.9917 168.654 31.3136 167.378 31.282C165.733 31.3068 164.126 30.7863 162.808 29.802C161.949 29.1414 160.892 28.7892 159.808 28.802C158.722 28.7763 157.661 29.1299 156.808 29.802C155.484 30.7824 153.875 31.3022 152.228 31.282C150.583 31.3106 148.974 30.7898 147.658 29.802C146.799 29.1414 145.742 28.7892 144.658 28.802C143.574 28.7884 142.517 29.1407 141.658 29.802C140.349 30.7883 138.747 31.3091 137.108 31.282C135.477 31.3173 133.882 30.7952 132.588 29.802C131.73 29.1386 130.672 28.7861 129.588 28.802V27.012C131.208 27.0159 132.788 27.5226 134.108 28.462C134.958 29.1401 136.021 29.4945 137.108 29.462C138.194 29.491 139.256 29.137 140.108 28.462C141.422 27.487 143.023 26.9769 144.658 27.012C146.303 26.9785 147.912 27.4882 149.238 28.462C150.091 29.1355 151.152 29.4893 152.238 29.462C153.325 29.4963 154.389 29.1417 155.238 28.462C156.562 27.493 158.167 26.9837 159.808 27.012C161.453 26.9785 163.062 27.4882 164.388 28.462C165.241 29.1355 166.302 29.4893 167.388 29.462C168.475 29.4963 169.539 29.1417 170.388 28.462C170.578 28.322 170.788 28.192 171.018 28.032Z" fill="url(#paint18_radial)"/>
<path d="M170.888 24.3417C169.686 25.1539 168.258 25.5635 166.808 25.5117C165.161 25.5529 163.549 25.0308 162.238 24.0317C161.379 23.3712 160.322 23.019 159.238 23.0317C158.153 23.0102 157.093 23.3634 156.238 24.0317C154.926 25.0272 153.315 25.5489 151.668 25.5117C150.018 25.5519 148.403 25.0301 147.088 24.0317C146.229 23.3705 145.172 23.0182 144.088 23.0317C143.004 23.0151 141.946 23.3677 141.088 24.0317C139.785 25.0308 138.179 25.5531 136.538 25.5117C134.901 25.5634 133.298 25.0397 132.008 24.0317C131.15 23.3677 130.092 23.0151 129.008 23.0317V21.2417C130.628 21.2457 132.208 21.7524 133.528 22.6917C134.378 23.3699 135.441 23.7243 136.528 23.6917C137.614 23.7208 138.676 23.3668 139.528 22.6917C140.842 21.7168 142.442 21.2067 144.078 21.2417C145.72 21.206 147.327 21.716 148.648 22.6917C149.501 23.3646 150.562 23.7183 151.648 23.6917C152.734 23.7208 153.796 23.3668 154.648 22.6917C155.971 21.7207 157.577 21.2113 159.218 21.2417C160.863 21.2083 162.472 21.718 163.798 22.6917C164.65 23.3653 165.712 23.7191 166.798 23.6917C167.885 23.726 168.949 23.3715 169.798 22.6917C170.008 22.5617 170.238 22.4017 170.478 22.2717C170.678 22.9476 170.816 23.6406 170.888 24.3417Z" fill="url(#paint19_radial)"/>
<path d="M169.098 18.912C168.353 19.1233 167.582 19.2276 166.808 19.2219C165.163 19.2482 163.555 18.7277 162.238 17.742C161.385 17.0691 160.324 16.7154 159.238 16.742C158.151 16.7059 157.086 17.0607 156.238 17.742C154.919 18.7243 153.313 19.2444 151.668 19.2219C150.02 19.2481 148.409 18.7278 147.088 17.742C146.236 17.0684 145.174 16.7146 144.088 16.742C143.001 16.7112 141.939 17.0652 141.088 17.742C139.779 18.7283 138.177 19.2491 136.538 19.2219C134.904 19.2555 133.307 18.7338 132.008 17.742C131.157 17.0652 130.095 16.7112 129.008 16.742V14.952C130.628 14.9559 132.208 15.4626 133.528 16.402C134.378 17.0801 135.441 17.4344 136.528 17.4019C137.614 17.4309 138.676 17.0771 139.528 16.402C140.842 15.427 142.442 14.9169 144.078 14.952C145.72 14.9163 147.327 15.4262 148.648 16.402C149.501 17.0748 150.562 17.4284 151.648 17.4019C152.734 17.4309 153.796 17.0771 154.648 16.402C155.971 15.431 157.577 14.9215 159.218 14.952C160.863 14.9186 162.472 15.4282 163.798 16.402C164.65 17.0755 165.712 17.4292 166.798 17.4019C167.202 17.4054 167.604 17.3619 167.998 17.272C168.41 17.7866 168.778 18.3352 169.098 18.912Z" fill="url(#paint20_radial)"/>
<path d="M126.117 60.17C125.824 60.17 125.544 60.0544 125.336 59.8484C125.128 59.6424 125.01 59.3626 125.007 59.07V58.07C125.01 57.7773 125.128 57.4976 125.336 57.2916C125.544 57.0856 125.824 56.97 126.117 56.97C126.41 56.97 126.691 57.0856 126.898 57.2916C127.106 57.4976 127.224 57.7773 127.227 58.07V59.07C127.224 59.3626 127.106 59.6424 126.898 59.8484C126.691 60.0544 126.41 60.17 126.117 60.17Z" fill="url(#paint21_linear)"/>
<path d="M126.117 53.18C125.824 53.18 125.544 53.0645 125.336 52.8584C125.128 52.6524 125.01 52.3727 125.007 52.08V51.08C125.007 50.7856 125.124 50.5033 125.332 50.2951C125.54 50.087 125.823 49.97 126.117 49.97C126.411 49.97 126.694 50.087 126.902 50.2951C127.11 50.5033 127.227 50.7856 127.227 51.08V52.08C127.224 52.3727 127.106 52.6524 126.898 52.8584C126.691 53.0645 126.41 53.18 126.117 53.18Z" fill="url(#paint22_linear)"/>
<path d="M130.118 56.17H129.118C128.825 56.1674 128.546 56.0493 128.34 55.8414C128.134 55.6335 128.018 55.3527 128.018 55.06C128.018 54.7674 128.134 54.4865 128.34 54.2786C128.546 54.0708 128.825 53.9526 129.118 53.95H130.118C130.412 53.95 130.695 54.067 130.903 54.2751C131.111 54.4833 131.228 54.7656 131.228 55.06C131.228 55.3544 131.111 55.6367 130.903 55.8449C130.695 56.0531 130.412 56.17 130.118 56.17Z" fill="url(#paint23_linear)"/>
<path d="M123.137 56.17H122.137C121.843 56.17 121.56 56.0531 121.352 55.8449C121.144 55.6367 121.027 55.3544 121.027 55.06C121.027 54.7656 121.144 54.4833 121.352 54.2751C121.56 54.067 121.843 53.95 122.137 53.95H123.137C123.43 53.9526 123.709 54.0708 123.915 54.2786C124.121 54.4865 124.237 54.7674 124.237 55.06C124.237 55.3527 124.121 55.6335 123.915 55.8414C123.709 56.0493 123.43 56.1674 123.137 56.17Z" fill="url(#paint24_linear)"/>
<path d="M34.1173 38.17C33.8247 38.17 33.5438 38.0544 33.3359 37.8484C33.1281 37.6424 33.0099 37.3626 33.0073 37.07V36.07C33.0099 35.7773 33.1281 35.4976 33.3359 35.2916C33.5438 35.0856 33.8247 34.97 34.1173 34.97C34.41 34.97 34.6908 35.0856 34.8987 35.2916C35.1066 35.4976 35.2247 35.7773 35.2273 36.07V37.07C35.2247 37.3626 35.1066 37.6424 34.8987 37.8484C34.6908 38.0544 34.41 38.17 34.1173 38.17Z" fill="url(#paint25_linear)"/>
<path d="M34.1173 31.18C33.8247 31.18 33.5438 31.0645 33.3359 30.8584C33.1281 30.6524 33.0099 30.3727 33.0073 30.08V29.08C33.0073 28.7856 33.1242 28.5032 33.3324 28.2951C33.5406 28.0869 33.8229 27.97 34.1173 27.97C34.4117 27.97 34.694 28.0869 34.9022 28.2951C35.1104 28.5032 35.2273 28.7856 35.2273 29.08V30.08C35.2247 30.3727 35.1066 30.6524 34.8987 30.8584C34.6908 31.0645 34.41 31.18 34.1173 31.18Z" fill="url(#paint26_linear)"/>
<path d="M38.1176 34.17H37.1176C36.825 34.1674 36.5452 34.0493 36.3392 33.8414C36.1332 33.6335 36.0176 33.3527 36.0176 33.06C36.0176 32.7674 36.1332 32.4865 36.3392 32.2786C36.5452 32.0708 36.825 31.9526 37.1176 31.95H38.1176C38.412 31.95 38.6943 32.067 38.9025 32.2751C39.1107 32.4833 39.2276 32.7656 39.2276 33.06C39.2276 33.3544 39.1107 33.6367 38.9025 33.8449C38.6943 34.0531 38.412 34.17 38.1176 34.17Z" fill="url(#paint27_linear)"/>
<path d="M31.1373 34.17H30.1373C29.8429 34.17 29.5606 34.0531 29.3524 33.8449C29.1443 33.6367 29.0273 33.3544 29.0273 33.06C29.0273 32.7656 29.1443 32.4833 29.3524 32.2751C29.5606 32.067 29.8429 31.95 30.1373 31.95H31.1373C31.43 31.9526 31.7097 32.0708 31.9157 32.2786C32.1218 32.4865 32.2374 32.7674 32.2374 33.06C32.2374 33.3527 32.1218 33.6335 31.9157 33.8414C31.7097 34.0493 31.43 34.1674 31.1373 34.17Z" fill="url(#paint28_linear)"/>
<path d="M39.0074 -1H45.0074C45.0074 5.75 46.6474 8.30999 47.3074 8.89999C47.9674 8.30999 49.6074 5.75 49.6074 -1H55.6074C55.7377 2.7611 55.0803 6.50791 53.6774 10C52.2274 13.17 49.8974 15 47.3074 15C44.7174 15 42.3974 13.15 40.9374 10C39.5362 6.50766 38.8821 2.76052 39.0174 -1H39.0074Z" fill="url(#paint29_linear)"/>
</g>
<path d="M27.437 41.3315H30.2526C30.5742 41.3351 30.8816 41.4645 31.1089 41.6917C31.3363 41.9191 31.4655 42.2266 31.4691 42.548V59.4006C31.471 59.5621 31.4408 59.7224 31.3808 59.8724C31.3205 60.0223 31.2314 60.159 31.1184 60.2744C31.0055 60.3899 30.8709 60.4821 30.7223 60.5455C30.5738 60.609 30.4143 60.6425 30.2526 60.6444H26.9997C26.8358 60.6462 26.6732 60.6153 26.5215 60.5534C26.3698 60.4916 26.2319 60.4 26.1161 60.2842C26.0002 60.1683 25.9086 60.0305 25.8468 59.8788C25.7849 59.727 25.754 59.5645 25.7559 59.4006V47.4821L23.8971 48.7259C23.7896 48.8025 23.6673 48.8557 23.5382 48.8821C23.4089 48.9085 23.2757 48.9075 23.1469 48.8791C23.0182 48.8508 22.8965 48.7957 22.7904 48.7176C22.6842 48.6394 22.5956 48.5398 22.5302 48.4252L21.1635 46.3203C21.0909 46.2116 21.0409 46.0895 21.0168 45.961C20.9926 45.8326 20.9946 45.7006 21.0226 45.5729C21.0507 45.4453 21.1043 45.3246 21.1801 45.2182C21.2561 45.1118 21.3526 45.0217 21.4642 44.9536L26.5348 41.5366C26.8062 41.3743 27.1222 41.3024 27.437 41.3315Z" fill="black"/>
<path d="M50.728 50.9951C50.728 56.4623 48.0764 61 42.2811 61C36.4859 61 33.8208 56.4486 33.8208 50.9951C33.8208 45.5416 36.5543 41.0039 42.2811 41.0039C48.008 41.0039 50.728 45.5279 50.728 50.9951ZM45.2609 50.9951C45.2609 48.5622 44.468 46.2661 42.2811 46.2661C40.0943 46.2661 39.2743 48.5622 39.2743 50.9951C39.2743 53.428 40.1079 55.7106 42.2811 55.7106C44.4543 55.7106 45.2609 53.387 45.2609 50.9951Z" fill="black"/>
<path d="M58.1216 41.3319H60.9371C61.2599 41.3319 61.5691 41.4601 61.7973 41.6882C62.0254 41.9163 62.1537 42.2257 62.1537 42.5483V59.401C62.1554 59.5625 62.1253 59.7228 62.0652 59.8727C62.005 60.0227 61.916 60.1592 61.8031 60.2748C61.6902 60.3903 61.5554 60.4823 61.4068 60.5459C61.2583 60.6094 61.0987 60.6429 60.9371 60.6448H57.6841C57.3543 60.6448 57.038 60.5136 56.8048 60.2804C56.5715 60.0471 56.4403 59.7308 56.4403 59.401V47.4825L54.5952 48.7263C54.4872 48.8007 54.365 48.8522 54.2361 48.8776C54.1074 48.9028 53.9747 48.9012 53.8464 48.8731C53.7182 48.8449 53.5973 48.7906 53.4908 48.7136C53.3845 48.6366 53.2953 48.5386 53.2284 48.4256L51.8617 46.3207C51.7896 46.2112 51.7406 46.0883 51.7175 45.9592C51.6943 45.8302 51.6974 45.6979 51.7269 45.5701C51.7562 45.4424 51.8111 45.322 51.8884 45.2161C51.9655 45.1102 52.0633 45.021 52.176 44.9539L57.2469 41.537C57.5094 41.3776 57.8157 41.3059 58.1216 41.3319Z" fill="black"/>
<path d="M89.5862 48.4802C89.5862 53.0588 86.5247 55.1501 81.6726 55.1501H79.4721V59.4007C79.4721 59.5641 79.4399 59.7259 79.3774 59.8768C79.3148 60.0276 79.2233 60.1648 79.1078 60.2802C78.9922 60.3958 78.8553 60.4874 78.7044 60.5499C78.5534 60.6123 78.3917 60.6445 78.2283 60.6445H74.9753C74.8138 60.6428 74.6542 60.6092 74.5056 60.5458C74.3571 60.4823 74.2224 60.3901 74.1095 60.2747C73.9964 60.1591 73.9074 60.0224 73.8473 59.8726C73.7871 59.7227 73.757 59.5624 73.7589 59.4007V42.5483C73.7589 42.2256 73.887 41.9161 74.1151 41.6881C74.3432 41.4599 74.6527 41.3318 74.9753 41.3318H81.6726C87.0032 41.3318 89.5862 44.1747 89.5862 48.4802ZM83.8322 48.4802C83.8424 48.2022 83.7919 47.9253 83.6843 47.6688C83.5767 47.4124 83.4145 47.1825 83.2089 46.9951C83.0034 46.8077 82.7594 46.6675 82.494 46.584C82.2287 46.5006 81.9485 46.476 81.6726 46.5119H79.4721V50.4619H81.6726C81.9501 50.5006 82.2327 50.4775 82.5001 50.3941C82.7675 50.3109 83.0131 50.1694 83.2195 49.98C83.4259 49.7907 83.5879 49.558 83.6938 49.2986C83.7997 49.0393 83.8469 48.7599 83.8322 48.4802Z" fill="black"/>
<path d="M110.974 50.9949C110.963 52.9583 110.371 54.8747 109.272 56.5018C108.173 58.129 106.617 59.394 104.799 60.1374C102.982 60.8807 100.985 61.0689 99.0606 60.6781C97.1364 60.2875 95.3711 59.3354 93.9875 57.9423C92.6038 56.5491 91.6639 54.7772 91.2863 52.8503C90.9089 50.9234 91.111 48.9278 91.8667 47.1157C92.6224 45.3034 93.8981 43.7556 95.5327 42.6679C97.1674 41.5801 99.0876 41.001 101.051 41.0037C102.37 40.9673 103.682 41.2016 104.907 41.6918C106.132 42.182 107.243 42.9178 108.173 43.8537C109.103 44.7899 109.831 45.9064 110.312 47.1344C110.794 48.3627 111.019 49.6765 110.974 50.9949ZM105.275 50.9949C105.227 50.1718 104.939 49.3808 104.446 48.7193C103.954 48.0579 103.279 47.555 102.504 47.2727C101.73 46.9904 100.889 46.9411 100.087 47.1307C99.2843 47.3205 98.555 47.741 97.9888 48.3402C97.4224 48.9395 97.0439 49.6914 96.8999 50.5032C96.7559 51.3151 96.8527 52.1514 97.1784 52.909C97.504 53.6664 98.0441 54.312 98.7324 54.7661C99.4206 55.2201 100.227 55.4628 101.051 55.4643C101.632 55.4841 102.211 55.3802 102.749 55.1591C103.287 54.9382 103.772 54.6053 104.171 54.1826C104.571 53.7599 104.876 53.257 105.066 52.7074C105.256 52.1578 105.327 51.574 105.275 50.9949Z" fill="black"/>
<path d="M132.515 50.9948C132.504 52.9578 131.912 54.8735 130.814 56.5004C129.715 58.1272 128.16 59.3923 126.343 60.136C124.527 60.8797 122.531 61.0687 120.607 60.6791C118.683 60.2896 116.917 59.3389 115.533 57.9471C114.149 56.5553 113.208 54.7847 112.829 52.8586C112.45 50.9326 112.65 48.9376 113.404 47.125C114.157 45.3126 115.431 43.7639 117.064 42.6745C118.697 41.5851 120.616 41.0036 122.578 41.0036C123.898 40.9675 125.211 41.2016 126.436 41.6916C127.662 42.1817 128.774 42.9172 129.705 43.8531C130.635 44.7889 131.365 45.9053 131.848 47.1334C132.331 48.3616 132.558 49.6758 132.515 50.9948ZM126.802 50.9948C126.754 50.1718 126.466 49.3806 125.974 48.7193C125.481 48.0579 124.806 47.5549 124.031 47.2727C123.257 46.9904 122.416 46.9411 121.614 47.1307C120.812 47.3205 120.082 47.7409 119.516 48.3402C118.95 48.9394 118.571 49.6913 118.427 50.5032C118.283 51.3151 118.38 52.1514 118.706 52.9088C119.031 53.6664 119.571 54.312 120.26 54.7661C120.948 55.2201 121.754 55.4628 122.578 55.4643C123.16 55.4841 123.738 55.38 124.276 55.1591C124.814 54.938 125.299 54.6053 125.699 54.1824C126.098 53.7597 126.403 53.257 126.593 52.7074C126.783 52.1578 126.855 51.574 126.802 50.9948Z" fill="black"/>
<path d="M146.569 55.464C146.887 55.4676 147.191 55.5955 147.416 55.8203C147.64 56.045 147.768 56.3489 147.772 56.6669V59.4005C147.776 59.5613 147.747 59.7214 147.689 59.8712C147.63 60.021 147.542 60.1578 147.43 60.2735C147.318 60.3891 147.185 60.4815 147.037 60.5451C146.889 60.6087 146.73 60.6424 146.569 60.6443H136.113C135.949 60.646 135.787 60.6151 135.635 60.5533C135.483 60.4914 135.345 60.3998 135.229 60.284C135.114 60.1681 135.022 60.0302 134.96 59.8785C134.898 59.7268 134.867 59.5642 134.869 59.4005V42.5478C134.871 42.3863 134.905 42.2267 134.968 42.0781C135.032 41.9296 135.124 41.795 135.239 41.682C135.355 41.5691 135.491 41.4799 135.641 41.4197C135.791 41.3596 135.952 41.3295 136.113 41.3314H139.366C139.688 41.3349 139.996 41.4642 140.223 41.6916C140.45 41.919 140.579 42.2263 140.582 42.5478V55.464H146.569Z" fill="black"/>
<defs>
<linearGradient id="paint0_linear" x1="84.0871" y1="0" x2="84.0871" y2="101.739" gradientUnits="userSpaceOnUse">
<stop stop-color="#FFDC6B"/>
<stop offset="1" stop-color="#FFAB14"/>
</linearGradient>
<linearGradient id="paint1_linear" x1="83.9902" y1="0" x2="83.9902" y2="101.931" gradientUnits="userSpaceOnUse">
<stop stop-color="#6FD74A"/>
<stop offset="1" stop-color="#24A240"/>
</linearGradient>
<radialGradient id="paint2_radial" cx="0" cy="0" r="1" gradientUnits="userSpaceOnUse" gradientTransform="translate(20.2576 84.87) scale(0.919998)">
<stop stop-color="#F89231"/>
<stop offset="0.13" stop-color="#F89F31"/>
<stop offset="0.32" stop-color="#F8AA31"/>
<stop offset="0.52" stop-color="#F8AE31"/>
<stop offset="0.92" stop-color="#FC9F00"/>
</radialGradient>
<radialGradient id="paint3_radial" cx="0" cy="0" r="1" gradientUnits="userSpaceOnUse" gradientTransform="translate(733.036 -663.303) scale(1.6928 1.70201)">
<stop stop-color="#F89231"/>
<stop offset="0.13" stop-color="#F89F31"/>
<stop offset="0.32" stop-color="#F8AA31"/>
<stop offset="0.52" stop-color="#F8AE31"/>
<stop offset="0.92" stop-color="#FC9F00"/>
</radialGradient>
<radialGradient id="paint4_radial" cx="0" cy="0" r="1" gradientUnits="userSpaceOnUse" gradientTransform="translate(754.897 -663.303) scale(1.70201)">
<stop stop-color="#F89231"/>
<stop offset="0.13" stop-color="#F89F31"/>
<stop offset="0.32" stop-color="#F8AA31"/>
<stop offset="0.52" stop-color="#F8AE31"/>
<stop offset="0.92" stop-color="#FC9F00"/>
</radialGradient>
<radialGradient id="paint5_radial" cx="0" cy="0" r="1" gradientUnits="userSpaceOnUse" gradientTransform="translate(697.093 -648.495) scale(1.69282 1.70201)">
<stop stop-color="#F89231"/>
<stop offset="0.13" stop-color="#F89F31"/>
<stop offset="0.32" stop-color="#F8AA31"/>
<stop offset="0.52" stop-color="#F8AE31"/>
<stop offset="0.92" stop-color="#FC9F00"/>
</radialGradient>
<radialGradient id="paint6_radial" cx="0" cy="0" r="1" gradientUnits="userSpaceOnUse" gradientTransform="translate(715.029 -648.495) scale(1.6928 1.70201)">
<stop stop-color="#F89231"/>
<stop offset="0.13" stop-color="#F89F31"/>
<stop offset="0.32" stop-color="#F8AA31"/>
<stop offset="0.52" stop-color="#F8AE31"/>
<stop offset="0.92" stop-color="#FC9F00"/>
</radialGradient>
<radialGradient id="paint7_radial" cx="0" cy="0" r="1" gradientUnits="userSpaceOnUse" gradientTransform="translate(733.036 -648.495) scale(1.6928 1.70201)">
<stop stop-color="#F89231"/>
<stop offset="0.13" stop-color="#F89F31"/>
<stop offset="0.32" stop-color="#F8AA31"/>
<stop offset="0.52" stop-color="#F8AE31"/>
<stop offset="0.92" stop-color="#FC9F00"/>
</radialGradient>
<radialGradient id="paint8_radial" cx="0" cy="0" r="1" gradientUnits="userSpaceOnUse" gradientTransform="translate(754.897 -648.495) scale(1.70201)">
<stop stop-color="#F89231"/>
<stop offset="0.13" stop-color="#F89F31"/>
<stop offset="0.32" stop-color="#F8AA31"/>
<stop offset="0.52" stop-color="#F8AE31"/>
<stop offset="0.92" stop-color="#FC9F00"/>
</radialGradient>
<radialGradient id="paint9_radial" cx="0" cy="0" r="1" gradientUnits="userSpaceOnUse" gradientTransform="translate(697.093 -629.766) scale(1.69282)">
<stop stop-color="#F89231"/>
<stop offset="0.13" stop-color="#F89F31"/>
<stop offset="0.32" stop-color="#F8AA31"/>
<stop offset="0.52" stop-color="#F8AE31"/>
<stop offset="0.92" stop-color="#FC9F00"/>
</radialGradient>
<radialGradient id="paint10_radial" cx="0" cy="0" r="1" gradientUnits="userSpaceOnUse" gradientTransform="translate(715.029 -629.766) scale(1.6928)">
<stop stop-color="#F89231"/>
<stop offset="0.13" stop-color="#F89F31"/>
<stop offset="0.32" stop-color="#F8AA31"/>
<stop offset="0.52" stop-color="#F8AE31"/>
<stop offset="0.92" stop-color="#FC9F00"/>
</radialGradient>
<radialGradient id="paint11_radial" cx="0" cy="0" r="1" gradientUnits="userSpaceOnUse" gradientTransform="translate(733.036 -629.766) scale(1.6928)">
<stop stop-color="#F89231"/>
<stop offset="0.13" stop-color="#F89F31"/>
<stop offset="0.32" stop-color="#F8AA31"/>
<stop offset="0.52" stop-color="#F8AE31"/>
<stop offset="0.92" stop-color="#FC9F00"/>
</radialGradient>
<radialGradient id="paint12_radial" cx="0" cy="0" r="1" gradientUnits="userSpaceOnUse" gradientTransform="translate(754.897 -629.766) scale(1.70201 1.69282)">
<stop stop-color="#F89231"/>
<stop offset="0.13" stop-color="#F89F31"/>
<stop offset="0.32" stop-color="#F8AA31"/>
<stop offset="0.52" stop-color="#F8AE31"/>
<stop offset="0.92" stop-color="#FC9F00"/>
</radialGradient>
<radialGradient id="paint13_radial" cx="0" cy="0" r="1" gradientUnits="userSpaceOnUse" gradientTransform="translate(697.093 -615.013) scale(1.69282)">
<stop stop-color="#F89231"/>
<stop offset="0.13" stop-color="#F89F31"/>
<stop offset="0.32" stop-color="#F8AA31"/>
<stop offset="0.52" stop-color="#F8AE31"/>
<stop offset="0.92" stop-color="#FC9F00"/>
</radialGradient>
<radialGradient id="paint14_radial" cx="0" cy="0" r="1" gradientUnits="userSpaceOnUse" gradientTransform="translate(715.029 -615.013) scale(1.6928)">
<stop stop-color="#F89231"/>
<stop offset="0.13" stop-color="#F89F31"/>
<stop offset="0.32" stop-color="#F8AA31"/>
<stop offset="0.52" stop-color="#F8AE31"/>
<stop offset="0.92" stop-color="#FC9F00"/>
</radialGradient>
<radialGradient id="paint15_radial" cx="0" cy="0" r="1" gradientUnits="userSpaceOnUse" gradientTransform="translate(733.036 -615.013) scale(1.6928)">
<stop stop-color="#F89231"/>
<stop offset="0.13" stop-color="#F89F31"/>
<stop offset="0.32" stop-color="#F8AA31"/>
<stop offset="0.52" stop-color="#F8AE31"/>
<stop offset="0.92" stop-color="#FC9F00"/>
</radialGradient>
<radialGradient id="paint16_radial" cx="0" cy="0" r="1" gradientUnits="userSpaceOnUse" gradientTransform="translate(754.897 -615.013) scale(1.70201 1.6928)">
<stop stop-color="#F89231"/>
<stop offset="0.13" stop-color="#F89F31"/>
<stop offset="0.32" stop-color="#F8AA31"/>
<stop offset="0.52" stop-color="#F8AE31"/>
<stop offset="0.92" stop-color="#FC9F00"/>
</radialGradient>
<radialGradient id="paint17_radial" cx="0" cy="0" r="1" gradientUnits="userSpaceOnUse" gradientTransform="translate(150.568 34.8618) scale(14.54)">
<stop stop-color="#F8AE31"/>
<stop offset="0.04" stop-color="#FAB622"/>
<stop offset="0.12" stop-color="#FBBF0F"/>
<stop offset="0.2" stop-color="#FDC504"/>
<stop offset="0.28" stop-color="#FDC700"/>
<stop offset="0.67" stop-color="#F8AE31"/>
<stop offset="0.92" stop-color="#FCC600"/>
</radialGradient>
<radialGradient id="paint18_radial" cx="0" cy="0" r="1" gradientUnits="userSpaceOnUse" gradientTransform="translate(20549.6 -1770.56) scale(610.264 62.9536)">
<stop stop-color="#F8AE31"/>
<stop offset="0.04" stop-color="#FAB622"/>
<stop offset="0.12" stop-color="#FBBF0F"/>
<stop offset="0.2" stop-color="#FDC504"/>
<stop offset="0.28" stop-color="#FDC700"/>
<stop offset="0.67" stop-color="#F8AE31"/>
<stop offset="0.92" stop-color="#FCC600"/>
</radialGradient>
<radialGradient id="paint19_radial" cx="0" cy="0" r="1" gradientUnits="userSpaceOnUse" gradientTransform="translate(20756.2 -1801.97) scale(623.175 63.6286)">
<stop stop-color="#F8AE31"/>
<stop offset="0.04" stop-color="#FAB622"/>
<stop offset="0.12" stop-color="#FBBF0F"/>
<stop offset="0.2" stop-color="#FDC504"/>
<stop offset="0.28" stop-color="#FDC700"/>
<stop offset="0.67" stop-color="#F8AE31"/>
<stop offset="0.92" stop-color="#FCC600"/>
</radialGradient>
<radialGradient id="paint20_radial" cx="0" cy="0" r="1" gradientUnits="userSpaceOnUse" gradientTransform="translate(19838.5 -1833.94) scale(571.283 60.8945)">
<stop stop-color="#F8AE31"/>
<stop offset="0.04" stop-color="#FAB622"/>
<stop offset="0.12" stop-color="#FBBF0F"/>
<stop offset="0.2" stop-color="#FDC504"/>
<stop offset="0.28" stop-color="#FDC700"/>
<stop offset="0.67" stop-color="#F8AE31"/>
<stop offset="0.92" stop-color="#FCC600"/>
</radialGradient>
<linearGradient id="paint21_linear" x1="126.117" y1="56.97" x2="126.117" y2="60.17" gradientUnits="userSpaceOnUse">
<stop stop-color="#FFD243"/>
<stop offset="1" stop-color="#D07D00" stop-opacity="0"/>
</linearGradient>
<linearGradient id="paint22_linear" x1="126.117" y1="49.97" x2="126.117" y2="53.18" gradientUnits="userSpaceOnUse">
<stop stop-color="#FFD243"/>
<stop offset="1" stop-color="#D07D00" stop-opacity="0"/>
</linearGradient>
<linearGradient id="paint23_linear" x1="129.623" y1="53.95" x2="129.623" y2="56.17" gradientUnits="userSpaceOnUse">
<stop stop-color="#FFD243"/>
<stop offset="1" stop-color="#D07D00" stop-opacity="0"/>
</linearGradient>
<linearGradient id="paint24_linear" x1="122.632" y1="53.95" x2="122.632" y2="56.17" gradientUnits="userSpaceOnUse">
<stop stop-color="#FFD243"/>
<stop offset="1" stop-color="#D07D00" stop-opacity="0"/>
</linearGradient>
<linearGradient id="paint25_linear" x1="34.1173" y1="34.97" x2="34.1173" y2="38.17" gradientUnits="userSpaceOnUse">
<stop stop-color="#FFD243"/>
<stop offset="1" stop-color="#D07D00" stop-opacity="0"/>
</linearGradient>
<linearGradient id="paint26_linear" x1="34.1173" y1="27.97" x2="34.1173" y2="31.18" gradientUnits="userSpaceOnUse">
<stop stop-color="#FFD243"/>
<stop offset="1" stop-color="#D07D00" stop-opacity="0"/>
</linearGradient>
<linearGradient id="paint27_linear" x1="37.6226" y1="31.95" x2="37.6226" y2="34.17" gradientUnits="userSpaceOnUse">
<stop stop-color="#FFD243"/>
<stop offset="1" stop-color="#D07D00" stop-opacity="0"/>
</linearGradient>
<linearGradient id="paint28_linear" x1="30.6323" y1="31.95" x2="30.6323" y2="34.17" gradientUnits="userSpaceOnUse">
<stop stop-color="#FFD243"/>
<stop offset="1" stop-color="#D07D00" stop-opacity="0"/>
</linearGradient>
<linearGradient id="paint29_linear" x1="47.3118" y1="-1" x2="47.3118" y2="15" gradientUnits="userSpaceOnUse">
<stop stop-color="#F9B22A"/>
<stop offset="1" stop-color="#EFBD5E" stop-opacity="0"/>
</linearGradient>
</defs>
</svg>
