<svg width="125" height="104" viewBox="0 0 125 104" fill="none" xmlns="http://www.w3.org/2000/svg">
<rect width="125" height="104" rx="24" fill="url(#paint0_linear)"/>
<mask id="mask0" mask-type="alpha" maskUnits="userSpaceOnUse" x="0" y="0" width="125" height="104">
<rect width="125" height="104" rx="24" fill="url(#paint1_linear)"/>
</mask>
<g mask="url(#mask0)">
<path d="M32.89 22.34V24.02C32.4517 23.9779 32.0309 23.8269 31.6658 23.5806C31.3008 23.3343 31.0032 23.0007 30.8 22.61C30.41 22.07 30.14 21.71 29.58 21.71C29.02 21.71 28.74 22.07 28.35 22.61C28.1516 22.9976 27.8571 23.328 27.4948 23.5696C27.1324 23.8111 26.7142 23.9559 26.28 23.99C25.8401 23.9534 25.417 23.8045 25.0511 23.5577C24.6852 23.3108 24.3887 22.9742 24.19 22.58C23.81 22.04 23.55 21.68 22.98 21.68C22.41 21.68 22.15 22.04 21.76 22.58C21.5622 22.9728 21.2674 23.3086 20.9033 23.5553C20.5393 23.8021 20.1182 23.9517 19.6801 23.99C19.2399 23.9543 18.8163 23.8059 18.4503 23.5589C18.0842 23.3119 17.7879 22.9748 17.59 22.58C17.2 22.04 16.9501 21.68 16.3701 21.68C15.7901 21.68 15.55 22.04 15.16 22.58C14.9622 22.9748 14.6659 23.3119 14.2998 23.5589C13.9337 23.8059 13.5102 23.9543 13.07 23.99C12.6319 23.9517 12.2108 23.8021 11.8467 23.5553C11.4827 23.3086 11.1878 22.9728 10.9901 22.58C10.6001 22.04 10.35 21.68 9.78 21.68C9.21 21.68 8.94 22.04 8.55 22.58C8.3596 22.9825 8.0639 23.326 7.6942 23.5742C7.3245 23.8224 6.8946 23.9661 6.45 23.99C6.0117 23.9479 5.5909 23.7969 5.2258 23.5506C4.8608 23.3043 4.5632 22.9707 4.36 22.58C3.97 22.04 3.7 21.68 3.13 21.68C2.56 21.68 2.3 22.04 1.91 22.58C1.7138 22.974 1.4193 23.3108 1.0549 23.5578C0.690601 23.8047 0.268702 23.9536 -0.169998 23.99C-0.609898 23.9534 -1.033 23.8045 -1.3989 23.5577C-1.7648 23.3108 -2.0613 22.9742 -2.2599 22.58C-2.6499 22.04 -2.9 21.68 -3.48 21.68C-4.06 21.68 -4.2999 22.04 -4.6899 22.58C-4.8877 22.9728 -5.1826 23.3086 -5.5467 23.5553C-5.9107 23.8021 -6.3318 23.9517 -6.77 23.99C-7.2101 23.9543 -7.6337 23.8059 -7.9998 23.5589C-8.3658 23.3119 -8.6621 22.9748 -8.86 22.58C-9.25 22.04 -9.5 21.68 -10.08 21.68C-10.66 21.68 -10.9 22.04 -11.29 22.58C-11.4879 22.9748 -11.7841 23.3119 -12.1502 23.5589C-12.5163 23.8059 -12.9398 23.9543 -13.3799 23.99C-13.8181 23.9517 -14.2392 23.8021 -14.6032 23.5553C-14.9673 23.3086 -15.2622 22.9728 -15.46 22.58C-15.85 22.04 -16.11 21.68 -16.68 21.68C-17.25 21.68 -17.52 22.04 -17.91 22.58C-18.097 22.983 -18.3904 23.3274 -18.7587 23.5758C-19.127 23.8243 -19.5563 23.9675 -20 23.99V22.34C-19.37 22.34 -19.16 21.98 -18.77 21.44C-18.5787 21.0456 -18.2901 20.7064 -17.9315 20.4545C-17.5728 20.2025 -17.1559 20.0461 -16.72 20C-16.281 20.0354 -15.8587 20.1839 -15.4942 20.431C-15.1297 20.6781 -14.8354 21.0154 -14.64 21.41C-14.25 21.95 -13.99 22.31 -13.42 22.31C-12.85 22.31 -12.59 21.95 -12.2 21.41C-12.0037 21.016 -11.7092 20.6792 -11.3448 20.4322C-10.9805 20.1852 -10.5587 20.0364 -10.12 20C-9.6801 20.0366 -9.2569 20.1855 -8.891 20.4323C-8.5251 20.6792 -8.2286 21.0158 -8.03 21.41C-7.64 21.95 -7.38 22.31 -6.81 22.31C-6.24 22.31 -5.99 21.95 -5.6 21.41C-5.4022 21.0172 -5.1073 20.6814 -4.7432 20.4346C-4.3792 20.1879 -3.9581 20.0383 -3.52 20C-3.0798 20.0357 -2.6563 20.1841 -2.2902 20.4311C-1.9241 20.6781 -1.6279 21.0152 -1.43 21.41C-1.04 21.95 -0.789999 22.31 -0.209999 22.31C0.370001 22.31 0.610001 21.95 1 21.41C1.1987 21.0158 1.4952 20.6792 1.8611 20.4323C2.227 20.1855 2.6501 20.0366 3.09 20C3.5299 20.0366 3.953 20.1855 4.319 20.4323C4.6849 20.6792 4.9814 21.0158 5.1801 21.41C5.5701 21.95 5.78 22.31 6.41 22.31C7.04 22.31 7.25 21.95 7.64 21.41C7.8387 21.0158 8.1352 20.6792 8.5011 20.4323C8.867 20.1855 9.2902 20.0366 9.73 20C10.1699 20.0366 10.5931 20.1855 10.959 20.4323C11.3249 20.6792 11.6214 21.0158 11.82 21.41C12.21 21.95 12.46 22.31 13.03 22.31C13.6 22.31 13.86 21.95 14.25 21.41C14.4478 21.0172 14.7427 20.6814 15.1068 20.4346C15.4708 20.1879 15.8919 20.0383 16.33 20C16.7702 20.0357 17.1937 20.1841 17.5598 20.4311C17.9259 20.6781 18.2222 21.0152 18.42 21.41C18.81 21.95 19.07 22.31 19.64 22.31C20.21 22.31 20.46 21.95 20.85 21.41C21.0487 21.0158 21.3451 20.6792 21.7111 20.4323C22.077 20.1855 22.5001 20.0366 22.94 20C23.3787 20.0364 23.8006 20.1852 24.1649 20.4322C24.5293 20.6792 24.8238 21.016 25.02 21.41C25.41 21.95 25.6701 22.31 26.2401 22.31C26.8101 22.31 27.06 21.95 27.45 21.41C27.6487 21.0158 27.9452 20.6792 28.3111 20.4323C28.677 20.1855 29.1001 20.0366 29.54 20C29.9802 20.0357 30.4038 20.1841 30.7698 20.4311C31.1359 20.6781 31.4321 21.0152 31.63 21.41C32.05 21.95 32.28 22.34 32.89 22.34Z" fill="url(#paint2_linear)"/>
<path d="M39.11 26.22V27.9C38.6709 27.856 38.2495 27.7043 37.8832 27.4583C37.5168 27.2124 37.2169 26.8797 37.0099 26.49C36.6199 25.95 36.36 25.59 35.79 25.59C35.22 25.59 34.9599 25.95 34.5699 26.49C34.3722 26.8828 34.0773 27.2186 33.7133 27.4653C33.3492 27.7121 32.9281 27.8617 32.49 27.9C32.0498 27.8643 31.6263 27.7159 31.2602 27.4689C30.8941 27.2219 30.5978 26.8848 30.4 26.49C30.01 25.95 29.76 25.59 29.18 25.59C28.6 25.59 28.36 25.95 27.97 26.49C27.7713 26.8842 27.4749 27.2208 27.1089 27.4677C26.743 27.7145 26.3198 27.8634 25.8799 27.9C25.4413 27.8636 25.0194 27.7148 24.6551 27.4678C24.2907 27.2208 23.9962 26.884 23.8 26.49C23.41 25.95 23.15 25.59 22.58 25.59C22.01 25.59 21.76 25.95 21.37 26.49C21.1713 26.8842 20.8748 27.2208 20.5089 27.4677C20.143 27.7145 19.7199 27.8634 19.28 27.9C18.841 27.8646 18.4187 27.7161 18.0542 27.469C17.6897 27.2219 17.3954 26.8846 17.2 26.49C16.81 25.95 16.55 25.59 15.98 25.59C15.41 25.59 15.1399 25.95 14.7499 26.49C14.563 26.893 14.2695 27.2374 13.9012 27.4859C13.5329 27.7343 13.1037 27.8775 12.66 27.9C12.2209 27.856 11.7995 27.7043 11.4332 27.4583C11.0668 27.2124 10.7669 26.8797 10.56 26.49C10.17 25.95 9.90996 25.59 9.33996 25.59C8.76996 25.59 8.50996 25.95 8.11996 26.49C7.92126 26.8842 7.62476 27.2208 7.25886 27.4677C6.89296 27.7145 6.46986 27.8634 6.02996 27.9C5.59126 27.8636 5.16936 27.7148 4.80506 27.4678C4.44066 27.2208 4.14616 26.884 3.94996 26.49C3.55996 25.95 3.29996 25.59 2.72996 25.59C2.15996 25.59 1.90996 25.95 1.51996 26.49C1.32126 26.8842 1.02486 27.2208 0.658863 27.4677C0.292963 27.7145 -0.130137 27.8634 -0.570038 27.9C-1.00874 27.8636 -1.43064 27.7148 -1.79494 27.4678C-2.15934 27.2208 -2.45384 26.884 -2.65004 26.49C-3.04004 25.95 -3.30014 25.59 -3.87014 25.59C-4.44014 25.59 -4.70004 25.95 -5.09004 26.49C-5.28554 26.8846 -5.57984 27.2219 -5.94434 27.469C-6.30884 27.7161 -6.73114 27.8646 -7.17004 27.9C-7.60904 27.8646 -8.03124 27.7161 -8.39584 27.469C-8.76034 27.2219 -9.05464 26.8846 -9.25014 26.49C-9.64014 25.95 -9.90004 25.59 -10.47 25.59C-11.04 25.59 -11.31 25.95 -11.7 26.49C-11.8879 26.8924 -12.1816 27.2361 -12.5497 27.4845C-12.9179 27.7328 -13.3466 27.8764 -13.79 27.9V26.22C-13.16 26.22 -12.9501 25.87 -12.5601 25.32C-12.3638 24.926 -12.0693 24.5892 -11.705 24.3422C-11.3406 24.0952 -10.9187 23.9464 -10.48 23.91C-10.0379 23.9476 -9.61304 24.0991 -9.24674 24.3497C-8.88044 24.6003 -8.58534 24.9415 -8.39004 25.34C-8.00004 25.89 -7.74004 26.24 -7.17004 26.24C-6.60004 26.24 -6.34004 25.89 -5.95004 25.34C-5.75464 24.9454 -5.46034 24.6081 -5.09584 24.361C-4.73134 24.1139 -4.30904 23.9654 -3.87014 23.93C-3.43114 23.9654 -3.00884 24.1139 -2.64434 24.361C-2.27984 24.6081 -1.98554 24.9454 -1.79004 25.34C-1.40004 25.89 -1.14004 26.24 -0.570038 26.24C-3.8147e-05 26.24 0.259963 25.89 0.649963 25.34C0.845364 24.9454 1.13966 24.6081 1.50416 24.361C1.86866 24.1139 2.29096 23.9654 2.72996 23.93C3.16986 23.9666 3.59296 24.1155 3.95886 24.3623C4.32476 24.6092 4.62126 24.9458 4.81986 25.34C5.20986 25.89 5.45996 26.24 6.02996 26.24C6.59996 26.24 6.85986 25.89 7.24986 25.34C7.44766 24.9472 7.74256 24.6114 8.10666 24.3646C8.47066 24.1179 8.89176 23.9682 9.32996 23.93C9.77156 23.9649 10.1968 24.113 10.5646 24.36C10.9324 24.6069 11.2305 24.9445 11.43 25.34C11.82 25.89 12.03 26.24 12.66 26.24C13.29 26.24 13.5 25.89 13.89 25.34C14.0878 24.9452 14.3841 24.6081 14.7502 24.3611C15.1163 24.1141 15.5398 23.9657 15.98 23.93C16.4189 23.9654 16.8412 24.1139 17.2057 24.361C17.5702 24.6081 17.8646 24.9454 18.06 25.34C18.45 25.89 18.71 26.24 19.28 26.24C19.85 26.24 20.1099 25.89 20.4999 25.34C20.6954 24.9454 20.9897 24.6081 21.3542 24.361C21.7188 24.1139 22.141 23.9654 22.58 23.93C23.0189 23.9654 23.4412 24.1139 23.8057 24.361C24.1702 24.6081 24.4645 24.9454 24.66 25.34C25.05 25.89 25.3099 26.24 25.8799 26.24C26.4499 26.24 26.71 25.89 27.1 25.34C27.2962 24.946 27.5907 24.6092 27.9551 24.3622C28.3194 24.1152 28.7413 23.9664 29.18 23.93C29.6216 23.9649 30.0468 24.113 30.4146 24.36C30.7824 24.6069 31.0804 24.9445 31.28 25.34C31.67 25.89 31.9199 26.24 32.4999 26.24C33.0799 26.24 33.32 25.89 33.71 25.34C33.9077 24.9472 34.2027 24.6114 34.5667 24.3646C34.9308 24.1179 35.3518 23.9682 35.79 23.93C36.2299 23.9666 36.653 24.1155 37.0189 24.3623C37.3848 24.6092 37.6813 24.9458 37.8799 25.34C38.2799 25.87 38.48 26.22 39.11 26.22Z" fill="url(#paint3_linear)"/>
<path d="M45.9401 30.14V31.81C45.5023 31.7662 45.0821 31.6144 44.7174 31.3683C44.3526 31.1223 44.0546 30.7895 43.85 30.4C43.46 29.86 43.2 29.5 42.63 29.5C42.06 29.5 41.7901 29.86 41.4001 30.4C41.2013 30.8002 40.9008 31.1411 40.5287 31.3885C40.1567 31.636 39.726 31.7813 39.28 31.81C38.8552 31.7615 38.4493 31.607 38.0999 31.3606C37.7505 31.1142 37.4684 30.7839 37.28 30.4C36.89 29.86 36.6301 29.5 36.0601 29.5C35.4901 29.5 35.23 29.86 34.84 30.4C34.6438 30.794 34.3493 31.1308 33.985 31.3778C33.6207 31.6248 33.1988 31.7736 32.7601 31.81C32.3202 31.7734 31.897 31.6245 31.5311 31.3777C31.1651 31.1308 30.8687 30.7942 30.67 30.4C30.28 29.86 30.0301 29.5 29.4501 29.5C28.87 29.5 28.6301 29.86 28.2402 30.4C28.0438 30.794 27.7493 31.1308 27.3849 31.3778C27.0206 31.6248 26.5988 31.7736 26.16 31.81C25.7201 31.7734 25.297 31.6245 24.9311 31.3777C24.5652 31.1308 24.2687 30.7942 24.07 30.4C23.68 29.86 23.43 29.5 22.8601 29.5C22.2901 29.5 22.0201 29.86 21.6301 30.4C21.4397 30.8025 21.1439 31.146 20.7743 31.3942C20.4046 31.6424 19.9747 31.7861 19.53 31.81C19.0917 31.7679 18.671 31.6169 18.3059 31.3706C17.9409 31.1243 17.6431 30.7907 17.44 30.4C17.05 29.86 16.78 29.5 16.21 29.5C15.64 29.5 15.3801 29.86 14.9902 30.4C14.7947 30.7946 14.5003 31.1319 14.1357 31.379C13.7712 31.6261 13.349 31.7746 12.91 31.81C12.4701 31.7734 12.047 31.6245 11.6811 31.3777C11.3152 31.1308 11.0187 30.7942 10.82 30.4C10.43 29.86 10.18 29.5 9.61005 29.5C9.04005 29.5 8.78005 29.86 8.39005 30.4C8.18965 30.7969 7.89015 31.1353 7.52045 31.3824C7.15075 31.6294 6.72345 31.7767 6.28005 31.81C5.83995 31.7743 5.41635 31.6259 5.05025 31.3789C4.68425 31.1319 4.38795 30.7948 4.19005 30.4C3.80005 29.86 3.55005 29.5 2.97005 29.5C2.39005 29.5 2.15005 29.86 1.76005 30.4C1.56215 30.7948 1.26595 31.1319 0.899849 31.3789C0.533749 31.6259 0.110248 31.7743 -0.329952 31.81C-0.768052 31.7718 -1.18915 31.6221 -1.55315 31.3754C-1.91725 31.1286 -2.21215 30.7928 -2.40995 30.4C-2.79995 29.86 -3.05995 29.5 -3.61995 29.5C-4.17995 29.5 -4.45995 29.86 -4.84995 30.4C-5.04035 30.8025 -5.33605 31.146 -5.70575 31.3942C-6.07545 31.6424 -6.50525 31.7861 -6.94995 31.81V30.14C-6.31995 30.14 -6.10995 29.78 -5.71995 29.23C-5.51975 28.837 -5.22285 28.5014 -4.85725 28.2547C-4.49165 28.0081 -4.06925 27.8585 -3.62985 27.82C-3.19055 27.8585 -2.76825 28.0081 -2.40255 28.2547C-2.03695 28.5014 -1.74015 28.837 -1.53995 29.23C-1.14995 29.78 -0.899952 30.14 -0.329952 30.14C0.240048 30.14 0.500049 29.78 0.890049 29.23C1.08935 28.8384 1.38465 28.5036 1.74845 28.257C2.11215 28.0105 2.53245 27.8601 2.97005 27.82C3.40975 27.8576 3.83245 28.0068 4.19825 28.2535C4.56405 28.5003 4.86065 28.8364 5.06015 29.23C5.45015 29.78 5.71005 30.14 6.28005 30.14C6.85005 30.14 7.10015 29.78 7.49015 29.23C7.69025 28.837 7.98715 28.5014 8.35275 28.2547C8.71835 28.0081 9.14075 27.8585 9.58005 27.82C10.018 27.8592 10.4387 28.0092 10.8026 28.2559C11.1665 28.5025 11.4615 28.8378 11.66 29.23C12.05 29.78 12.3101 30.14 12.8801 30.14C13.4501 30.14 13.7001 29.78 14.09 29.23C14.2902 28.837 14.5872 28.5014 14.9528 28.2547C15.3184 28.0081 15.7407 27.8585 16.1801 27.82C16.6214 27.8559 17.0462 28.0044 17.4139 28.2512C17.7815 28.4981 18.0797 28.8351 18.28 29.23C18.67 29.78 18.88 30.14 19.51 30.14C20.14 30.14 20.3502 29.78 20.7402 29.23C20.9403 28.837 21.2371 28.5014 21.6027 28.2547C21.9683 28.0081 22.3908 27.8585 22.8301 27.82C23.2695 27.8585 23.6918 28.0081 24.0574 28.2547C24.423 28.5014 24.7199 28.837 24.92 29.23C25.31 29.78 25.56 30.14 26.14 30.14C26.7201 30.14 26.96 29.78 27.35 29.23C27.5493 28.8384 27.8447 28.5036 28.2085 28.257C28.5722 28.0105 28.9925 27.8601 29.4301 27.82C29.8698 27.8576 30.2924 28.0068 30.6581 28.2535C31.0239 28.5003 31.3206 28.8364 31.52 29.23C31.91 29.78 32.1701 30.14 32.7401 30.14C33.3101 30.14 33.56 29.78 33.95 29.23C34.1502 28.837 34.4471 28.5014 34.8127 28.2547C35.1783 28.0081 35.6007 27.8585 36.0401 27.82C36.478 27.8592 36.8986 28.0092 37.2625 28.2559C37.6264 28.5025 37.9216 28.8378 38.1202 29.23C38.5102 29.78 38.77 30.14 39.34 30.14C39.91 30.14 40.1701 29.78 40.5501 29.23C40.7503 28.837 41.0471 28.5014 41.4127 28.2547C41.7783 28.0081 42.2007 27.8585 42.64 27.82C43.0797 27.8576 43.5025 28.0068 43.8683 28.2535C44.234 28.5003 44.5307 28.8364 44.7301 29.23C45.1001 29.78 45.2801 30.14 45.9401 30.14Z" fill="url(#paint4_linear)"/>
<path d="M51.4501 33.11V34.83H51.0001C50.8701 34.68 50.7601 34.53 50.6601 34.39C50.2801 33.86 50.0101 33.51 49.4401 33.51C49.3504 33.4991 49.2598 33.4991 49.1701 33.51C48.7901 33.62 48.5501 33.93 48.2301 34.38C48.1301 34.52 48.0301 34.67 47.9001 34.82H44.4001L44.0601 34.38C43.6701 33.84 43.4201 33.48 42.8501 33.48C42.2801 33.48 42.0201 33.84 41.6301 34.38L41.3001 34.82H37.8001C37.6701 34.67 37.5701 34.52 37.4601 34.38C37.0801 33.84 36.8201 33.48 36.2501 33.48C35.6801 33.48 35.4201 33.84 35.0301 34.38L34.7001 34.82H31.1901L30.8601 34.38C30.4701 33.84 30.2201 33.48 29.6501 33.48C29.0801 33.48 28.8101 33.84 28.4201 34.38C28.3101 34.52 28.2101 34.67 28.1001 34.82H24.5601L24.2301 34.38C23.8401 33.84 23.5801 33.48 23.0101 33.48C22.4401 33.48 22.1701 33.84 21.7801 34.38L21.4501 34.82H17.9401C17.826 34.6788 17.7193 34.532 17.6201 34.38C17.2301 33.84 16.9701 33.48 16.3901 33.48C15.8101 33.48 15.5701 33.84 15.1801 34.38L14.8501 34.82H11.3501C11.2201 34.67 11.1201 34.52 11.0101 34.38C10.6201 33.84 10.3701 33.48 9.80012 33.48C9.23012 33.48 8.97012 33.84 8.58012 34.38C8.48012 34.52 8.37012 34.67 8.25012 34.82H4.74012L4.41012 34.38C4.02012 33.84 3.77012 33.48 3.19012 33.48C2.61012 33.48 2.35012 33.84 1.96012 34.38C1.86012 34.52 1.76012 34.67 1.64012 34.82H-0.129883V34.11C0.500117 34.11 0.710121 33.75 1.10012 33.2C1.30082 32.8083 1.59802 32.4742 1.96372 32.2292C2.32942 31.9843 2.75142 31.8365 3.19012 31.8C3.62872 31.8365 4.05082 31.9843 4.41652 32.2292C4.78222 32.4742 5.07942 32.8083 5.28012 33.2C5.67012 33.75 5.92012 34.11 6.49012 34.11C7.06012 34.11 7.32012 33.75 7.71012 33.2C7.91082 32.8083 8.20802 32.4742 8.57372 32.2292C8.93942 31.9843 9.36152 31.8365 9.80012 31.8C10.237 31.8382 10.657 31.9867 11.0208 32.2315C11.3846 32.4764 11.6802 32.8096 11.8801 33.2C12.2701 33.75 12.5301 34.11 13.1001 34.11C13.6701 34.11 13.9201 33.75 14.3101 33.2C14.5099 32.8096 14.8056 32.4764 15.1694 32.2315C15.5332 31.9867 15.9532 31.8382 16.3901 31.8C16.829 31.8356 17.2514 31.9829 17.6172 32.228C17.9831 32.4731 18.2802 32.8077 18.4801 33.2C18.8701 33.75 19.1301 34.11 19.7001 34.11C20.2701 34.11 20.5201 33.75 20.9101 33.2C21.1108 32.8083 21.408 32.4742 21.7737 32.2292C22.1394 31.9843 22.5614 31.8365 23.0001 31.8C23.4389 31.8356 23.8615 31.9829 24.2273 32.228C24.5931 32.4731 24.8901 32.8077 25.0901 33.2C25.4801 33.75 25.6901 34.11 26.3201 34.11C26.9501 34.11 27.1601 33.75 27.5501 33.2C27.7508 32.8083 28.048 32.4742 28.4137 32.2292C28.7794 31.9843 29.2015 31.8365 29.6401 31.8C30.0787 31.8365 30.5008 31.9843 30.8665 32.2292C31.2321 32.4742 31.5294 32.8083 31.7301 33.2C32.1101 33.75 32.3701 34.11 32.9501 34.11C33.5301 34.11 33.7701 33.75 34.1601 33.2C34.3608 32.8083 34.658 32.4742 35.0237 32.2292C35.3894 31.9843 35.8114 31.8365 36.2501 31.8C36.6872 31.8372 37.1077 31.9854 37.4716 32.2303C37.8356 32.4753 38.131 32.809 38.3301 33.2C38.7201 33.75 38.9801 34.11 39.5501 34.11C40.1201 34.11 40.3801 33.75 40.7601 33.2C40.9608 32.8083 41.258 32.4742 41.6237 32.2292C41.9894 31.9843 42.4115 31.8365 42.8501 31.8C43.2872 31.8372 43.7076 31.9854 44.0716 32.2303C44.4355 32.4753 44.731 32.809 44.9301 33.2C45.3201 33.75 45.5801 34.11 46.1501 34.11C46.7201 34.11 46.9701 33.75 47.3601 33.2L47.7401 32.7C47.9362 32.4281 48.1927 32.2053 48.4894 32.0491C48.7861 31.893 49.1149 31.8077 49.4501 31.8C49.8668 31.8321 50.2687 31.969 50.6183 32.1981C50.968 32.4271 51.2541 32.7408 51.4501 33.11Z" fill="url(#paint5_linear)"/>
<path fill-rule="evenodd" clip-rule="evenodd" d="M102.47 -0.269898C102.467 -0.0753977 102.388 0.110302 102.25 0.246902C102.111 0.383502 101.925 0.460103 101.73 0.460103C101.536 0.460103 101.351 0.383202 101.214 0.246302C101.077 0.109402 101 -0.0762977 101 -0.269898C101 -0.463498 101.077 -0.649198 101.214 -0.786098C101.351 -0.922998 101.536 -0.999897 101.73 -0.999897C101.827 -1.00126 101.923 -0.983397 102.012 -0.947297C102.102 -0.911197 102.184 -0.857597 102.253 -0.789697C102.322 -0.721797 102.376 -0.640798 102.414 -0.551598C102.451 -0.462398 102.47 -0.366598 102.47 -0.269898Z" fill="url(#paint6_linear)"/>
<path fill-rule="evenodd" clip-rule="evenodd" d="M102.47 4.2601C102.47 4.3568 102.451 4.4525 102.414 4.5417C102.376 4.631 102.322 4.7119 102.253 4.7798C102.184 4.8477 102.102 4.9013 102.012 4.9374C101.923 4.9735 101.827 4.9914 101.73 4.9901C101.536 4.9901 101.351 4.9132 101.214 4.7762C101.077 4.6393 101 4.4537 101 4.2601C101 4.0665 101.077 3.8808 101.214 3.7439C101.351 3.607 101.536 3.5301 101.73 3.5301C101.925 3.53 102.111 3.6066 102.25 3.7433C102.388 3.8799 102.467 4.0655 102.47 4.2601Z" fill="url(#paint7_linear)"/>
<path fill-rule="evenodd" clip-rule="evenodd" d="M102.47 8.8001C102.467 8.9946 102.388 9.1803 102.25 9.3169C102.111 9.4535 101.925 9.5301 101.73 9.5301C101.536 9.5301 101.351 9.4532 101.214 9.3163C101.077 9.1794 101 8.9937 101 8.8001C101 8.6065 101.077 8.4208 101.214 8.2839C101.351 8.147 101.536 8.0701 101.73 8.0701C101.827 8.0688 101.923 8.0867 102.012 8.1227C102.102 8.1588 102.184 8.2124 102.253 8.2803C102.322 8.3482 102.376 8.4292 102.414 8.5184C102.451 8.6076 102.47 8.7034 102.47 8.8001Z" fill="url(#paint8_linear)"/>
<path fill-rule="evenodd" clip-rule="evenodd" d="M102.47 13.3301C102.47 13.4272 102.451 13.5235 102.414 13.6133C102.377 13.703 102.322 13.7846 102.253 13.8533C102.185 13.922 102.103 13.9766 102.013 14.0137C101.923 14.0509 101.827 14.0701 101.73 14.0701C101.535 14.0674 101.35 13.9883 101.213 13.8498C101.077 13.7113 101 13.5246 101 13.3301C101 13.1365 101.077 12.9508 101.214 12.8139C101.351 12.677 101.536 12.6001 101.73 12.6001C101.925 12.6 102.111 12.6766 102.25 12.8133C102.388 12.9499 102.467 13.1355 102.47 13.3301Z" fill="url(#paint9_linear)"/>
<path fill-rule="evenodd" clip-rule="evenodd" d="M102.47 17.8701C102.467 18.0646 102.388 18.2503 102.25 18.3869C102.111 18.5235 101.925 18.6001 101.73 18.6001C101.536 18.6001 101.351 18.5232 101.214 18.3863C101.077 18.2494 101 18.0637 101 17.8701C101 17.6765 101.077 17.4908 101.214 17.3539C101.351 17.217 101.536 17.1401 101.73 17.1401C101.925 17.1401 102.111 17.2166 102.25 17.3533C102.388 17.4899 102.467 17.6756 102.47 17.8701Z" fill="url(#paint10_linear)"/>
<path fill-rule="evenodd" clip-rule="evenodd" d="M102.47 22.4001C102.47 22.4973 102.451 22.5935 102.414 22.6833C102.377 22.773 102.322 22.8546 102.253 22.9233C102.185 22.9921 102.103 23.0466 102.013 23.0837C101.923 23.1209 101.827 23.1401 101.73 23.1401C101.535 23.1374 101.35 23.0583 101.213 22.9198C101.077 22.7813 101 22.5946 101 22.4001C101 22.2065 101.077 22.0208 101.214 21.8839C101.351 21.747 101.536 21.6701 101.73 21.6701C101.925 21.6701 102.111 21.7466 102.25 21.8833C102.388 22.0199 102.467 22.2056 102.47 22.4001Z" fill="url(#paint11_linear)"/>
<path fill-rule="evenodd" clip-rule="evenodd" d="M107 -0.269901C107 -0.0763013 106.923 0.109299 106.786 0.246299C106.649 0.383199 106.464 0.460099 106.27 0.460099C106.076 0.460099 105.891 0.383199 105.754 0.246299C105.617 0.109299 105.54 -0.0763013 105.54 -0.269901C105.54 -0.463501 105.617 -0.649201 105.754 -0.786101C105.891 -0.923001 106.076 -0.999901 106.27 -0.999901C106.464 -0.999901 106.649 -0.923001 106.786 -0.786101C106.923 -0.649201 107 -0.463501 107 -0.269901Z" fill="url(#paint12_linear)"/>
<path fill-rule="evenodd" clip-rule="evenodd" d="M107 4.2601C107 4.4537 106.923 4.6393 106.786 4.7762C106.649 4.9132 106.464 4.9901 106.27 4.9901C106.076 4.9901 105.891 4.9132 105.754 4.7762C105.617 4.6393 105.54 4.4537 105.54 4.2601C105.54 4.0665 105.617 3.8808 105.754 3.7439C105.891 3.607 106.076 3.5301 106.27 3.5301C106.464 3.5301 106.649 3.607 106.786 3.7439C106.923 3.8808 107 4.0665 107 4.2601Z" fill="url(#paint13_linear)"/>
<path fill-rule="evenodd" clip-rule="evenodd" d="M107 8.8001C107 8.9937 106.923 9.1794 106.786 9.3163C106.649 9.4532 106.464 9.5301 106.27 9.5301C106.076 9.5301 105.891 9.4532 105.754 9.3163C105.617 9.1794 105.54 8.9937 105.54 8.8001C105.54 8.6065 105.617 8.4208 105.754 8.2839C105.891 8.147 106.076 8.0701 106.27 8.0701C106.464 8.0701 106.649 8.147 106.786 8.2839C106.923 8.4208 107 8.6065 107 8.8001Z" fill="url(#paint14_linear)"/>
<path fill-rule="evenodd" clip-rule="evenodd" d="M107 13.3301C107 13.5246 106.923 13.7113 106.787 13.8498C106.65 13.9883 106.465 14.0674 106.27 14.0701C106.076 14.0674 105.89 13.9883 105.753 13.8498C105.617 13.7113 105.54 13.5246 105.54 13.3301C105.54 13.1365 105.617 12.9508 105.754 12.8139C105.891 12.677 106.076 12.6001 106.27 12.6001C106.464 12.6001 106.649 12.677 106.786 12.8139C106.923 12.9508 107 13.1365 107 13.3301Z" fill="url(#paint15_linear)"/>
<path fill-rule="evenodd" clip-rule="evenodd" d="M107 17.8701C107 18.0637 106.923 18.2494 106.786 18.3863C106.649 18.5232 106.464 18.6001 106.27 18.6001C106.076 18.6001 105.891 18.5232 105.754 18.3863C105.617 18.2494 105.54 18.0637 105.54 17.8701C105.54 17.6765 105.617 17.4908 105.754 17.3539C105.891 17.217 106.076 17.1401 106.27 17.1401C106.464 17.1401 106.649 17.217 106.786 17.3539C106.923 17.4908 107 17.6765 107 17.8701Z" fill="url(#paint16_linear)"/>
<path fill-rule="evenodd" clip-rule="evenodd" d="M107 22.4001C107 22.5946 106.923 22.7813 106.787 22.9198C106.65 23.0583 106.465 23.1374 106.27 23.1401C106.076 23.1374 105.89 23.0583 105.753 22.9198C105.617 22.7813 105.54 22.5946 105.54 22.4001C105.54 22.2065 105.617 22.0208 105.754 21.8839C105.891 21.747 106.076 21.6701 106.27 21.6701C106.464 21.6701 106.649 21.747 106.786 21.8839C106.923 22.0208 107 22.2065 107 22.4001Z" fill="url(#paint17_linear)"/>
<path fill-rule="evenodd" clip-rule="evenodd" d="M111.54 -0.269898C111.537 -0.0753977 111.458 0.110302 111.32 0.246902C111.181 0.383502 110.995 0.460103 110.8 0.460103C110.606 0.460103 110.421 0.383202 110.284 0.246302C110.147 0.109402 110.07 -0.0762977 110.07 -0.269898C110.07 -0.463498 110.147 -0.649198 110.284 -0.786098C110.421 -0.922998 110.606 -0.999897 110.8 -0.999897C110.897 -1.00126 110.993 -0.983397 111.083 -0.947297C111.172 -0.911197 111.254 -0.857597 111.323 -0.789697C111.392 -0.721797 111.446 -0.640798 111.484 -0.551598C111.521 -0.462398 111.54 -0.366598 111.54 -0.269898Z" fill="url(#paint18_linear)"/>
<path fill-rule="evenodd" clip-rule="evenodd" d="M111.54 4.2601C111.54 4.3568 111.521 4.4525 111.484 4.5417C111.446 4.631 111.392 4.7119 111.323 4.7798C111.254 4.8477 111.172 4.9013 111.083 4.9374C110.993 4.9735 110.897 4.9914 110.8 4.9901C110.606 4.9901 110.421 4.9132 110.284 4.7762C110.147 4.6393 110.07 4.4537 110.07 4.2601C110.08 4.0717 110.163 3.8947 110.301 3.7661C110.439 3.6374 110.621 3.5672 110.81 3.5701C111.005 3.57 111.191 3.6466 111.33 3.7833C111.468 3.9199 111.547 4.1055 111.55 4.3001L111.54 4.2601Z" fill="url(#paint19_linear)"/>
<path fill-rule="evenodd" clip-rule="evenodd" d="M111.54 8.8001C111.544 8.8989 111.528 8.9975 111.493 9.0901C111.459 9.1828 111.406 9.2675 111.338 9.3392C111.27 9.411 111.188 9.4684 111.097 9.5081C111.007 9.5477 110.909 9.5688 110.81 9.5701C110.714 9.5701 110.619 9.5512 110.531 9.5145C110.442 9.4778 110.362 9.424 110.294 9.3562C110.226 9.2885 110.172 9.208 110.136 9.1194C110.099 9.0308 110.08 8.9359 110.08 8.8401C110.08 8.7442 110.099 8.6493 110.136 8.5607C110.172 8.4721 110.226 8.3917 110.294 8.3239C110.362 8.2561 110.442 8.2023 110.531 8.1656C110.619 8.1289 110.714 8.1101 110.81 8.1101C110.907 8.1087 111.003 8.1266 111.092 8.1627C111.182 8.1988 111.264 8.2524 111.333 8.3203C111.402 8.3882 111.456 8.4691 111.494 8.5584C111.531 8.6476 111.55 8.7433 111.55 8.8401L111.54 8.8001Z" fill="url(#paint20_linear)"/>
<path fill-rule="evenodd" clip-rule="evenodd" d="M111.54 13.3301C111.54 13.5263 111.462 13.7146 111.323 13.8533C111.184 13.9921 110.996 14.0701 110.8 14.0701C110.605 14.0675 110.42 13.9883 110.283 13.8498C110.147 13.7113 110.07 13.5246 110.07 13.3301C110.066 13.2309 110.082 13.1319 110.118 13.0391C110.153 12.9464 110.207 12.8619 110.276 12.7907C110.346 12.7196 110.429 12.6633 110.52 12.6254C110.612 12.5875 110.711 12.5686 110.81 12.5701C111.004 12.5701 111.191 12.6467 111.33 12.7833C111.468 12.9199 111.547 13.1056 111.55 13.3001L111.54 13.3301Z" fill="url(#paint21_linear)"/>
<path fill-rule="evenodd" clip-rule="evenodd" d="M111.54 17.8701C111.53 18.0576 111.449 18.2343 111.313 18.3643C111.178 18.4942 110.998 18.5678 110.81 18.5701C110.714 18.5701 110.619 18.5512 110.531 18.5145C110.442 18.4778 110.362 18.424 110.294 18.3563C110.226 18.2885 110.172 18.208 110.136 18.1194C110.099 18.0309 110.08 17.9359 110.08 17.8401C110.08 17.7442 110.099 17.6493 110.136 17.5607C110.172 17.4722 110.226 17.3917 110.294 17.3239C110.362 17.2561 110.442 17.2023 110.531 17.1656C110.619 17.129 110.714 17.1101 110.81 17.1101C111.005 17.1101 111.191 17.1866 111.33 17.3233C111.468 17.4599 111.547 17.6456 111.55 17.8401L111.54 17.8701Z" fill="url(#paint22_linear)"/>
<path fill-rule="evenodd" clip-rule="evenodd" d="M111.54 22.4001C111.54 22.5963 111.462 22.7846 111.323 22.9233C111.185 23.0621 110.996 23.1401 110.8 23.1401C110.606 23.1374 110.42 23.0583 110.283 22.9198C110.147 22.7813 110.07 22.5946 110.07 22.4001C110.07 22.2065 110.147 22.0208 110.284 21.8839C110.421 21.747 110.606 21.6701 110.8 21.6701C110.995 21.6701 111.181 21.7466 111.32 21.8833C111.458 22.0199 111.537 22.2056 111.54 22.4001Z" fill="url(#paint23_linear)"/>
<path fill-rule="evenodd" clip-rule="evenodd" d="M116.07 -0.269901C116.07 -0.0763013 115.993 0.109299 115.856 0.246299C115.719 0.383199 115.534 0.460099 115.34 0.460099C115.146 0.460099 114.961 0.383199 114.824 0.246299C114.687 0.109299 114.61 -0.0763013 114.61 -0.269901C114.61 -0.463501 114.687 -0.649201 114.824 -0.786101C114.961 -0.923001 115.146 -0.999901 115.34 -0.999901C115.534 -0.999901 115.719 -0.923001 115.856 -0.786101C115.993 -0.649201 116.07 -0.463501 116.07 -0.269901Z" fill="url(#paint24_linear)"/>
<path fill-rule="evenodd" clip-rule="evenodd" d="M116.07 4.2601C116.07 4.4537 115.993 4.6393 115.856 4.7762C115.719 4.9132 115.534 4.9901 115.34 4.9901C115.146 4.9901 114.961 4.9132 114.824 4.7762C114.687 4.6393 114.61 4.4537 114.61 4.2601C114.61 4.0665 114.687 3.8808 114.824 3.7439C114.961 3.607 115.146 3.5301 115.34 3.5301C115.534 3.5301 115.719 3.607 115.856 3.7439C115.993 3.8808 116.07 4.0665 116.07 4.2601Z" fill="url(#paint25_linear)"/>
<path fill-rule="evenodd" clip-rule="evenodd" d="M116.07 8.8001C116.07 8.9937 115.993 9.1794 115.856 9.3163C115.719 9.4532 115.534 9.5301 115.34 9.5301C115.146 9.5301 114.961 9.4532 114.824 9.3163C114.687 9.1794 114.61 8.9937 114.61 8.8001C114.61 8.6065 114.687 8.4208 114.824 8.2839C114.961 8.147 115.146 8.0701 115.34 8.0701C115.534 8.0701 115.719 8.147 115.856 8.2839C115.993 8.4208 116.07 8.6065 116.07 8.8001Z" fill="url(#paint26_linear)"/>
<path fill-rule="evenodd" clip-rule="evenodd" d="M116.07 13.3301C116.07 13.5246 115.993 13.7113 115.857 13.8498C115.72 13.9883 115.535 14.0674 115.34 14.0701C115.146 14.0674 114.96 13.9883 114.823 13.8498C114.687 13.7113 114.61 13.5246 114.61 13.3301C114.61 13.1365 114.687 12.9508 114.824 12.8139C114.961 12.677 115.146 12.6001 115.34 12.6001C115.534 12.6001 115.719 12.677 115.856 12.8139C115.993 12.9508 116.07 13.1365 116.07 13.3301Z" fill="url(#paint27_linear)"/>
<path fill-rule="evenodd" clip-rule="evenodd" d="M116.07 17.8701C116.07 18.0637 115.993 18.2494 115.856 18.3863C115.719 18.5232 115.534 18.6001 115.34 18.6001C115.146 18.6001 114.961 18.5232 114.824 18.3863C114.687 18.2494 114.61 18.0637 114.61 17.8701C114.61 17.6765 114.687 17.4908 114.824 17.3539C114.961 17.217 115.146 17.1401 115.34 17.1401C115.534 17.1401 115.719 17.217 115.856 17.3539C115.993 17.4908 116.07 17.6765 116.07 17.8701Z" fill="url(#paint28_linear)"/>
<path fill-rule="evenodd" clip-rule="evenodd" d="M116.07 22.4001C116.07 22.5946 115.993 22.7813 115.857 22.9198C115.72 23.0583 115.535 23.1374 115.34 23.1401C115.146 23.1374 114.96 23.0583 114.823 22.9198C114.687 22.7813 114.61 22.5946 114.61 22.4001C114.61 22.2065 114.687 22.0208 114.824 21.8839C114.961 21.747 115.146 21.6701 115.34 21.6701C115.534 21.6701 115.719 21.747 115.856 21.8839C115.993 22.0208 116.07 22.2065 116.07 22.4001Z" fill="url(#paint29_linear)"/>
<path d="M23.11 88.22C22.8174 88.22 22.5365 88.1044 22.3286 87.8984C22.1208 87.6924 22.0026 87.4126 22 87.12V86.12C22.0026 85.8273 22.1208 85.5476 22.3286 85.3416C22.5365 85.1356 22.8174 85.02 23.11 85.02C23.4027 85.02 23.6835 85.1356 23.8914 85.3416C24.0993 85.5476 24.2174 85.8273 24.22 86.12V87.12C24.2174 87.4126 24.0993 87.6924 23.8914 87.8984C23.6835 88.1044 23.4027 88.22 23.11 88.22Z" fill="url(#paint30_linear)" fill-opacity="0.5"/>
<path d="M23.11 81.23C22.8174 81.23 22.5365 81.1145 22.3286 80.9084C22.1208 80.7024 22.0026 80.4227 22 80.13V79.13C22 78.8356 22.1169 78.5533 22.3251 78.3451C22.5333 78.137 22.8156 78.02 23.11 78.02C23.4044 78.02 23.6867 78.137 23.8949 78.3451C24.1031 78.5533 24.22 78.8356 24.22 79.13V80.13C24.2174 80.4227 24.0993 80.7024 23.8914 80.9084C23.6835 81.1145 23.4027 81.23 23.11 81.23Z" fill="url(#paint31_linear)" fill-opacity="0.5"/>
<path d="M27.11 84.22H26.11C25.8174 84.2174 25.5376 84.0993 25.3316 83.8914C25.1256 83.6835 25.01 83.4027 25.01 83.11C25.01 82.8174 25.1256 82.5365 25.3316 82.3286C25.5376 82.1208 25.8174 82.0026 26.11 82H27.11C27.4044 82 27.6867 82.117 27.8949 82.3251C28.1031 82.5333 28.22 82.8156 28.22 83.11C28.22 83.4044 28.1031 83.6867 27.8949 83.8949C27.6867 84.1031 27.4044 84.22 27.11 84.22Z" fill="url(#paint32_linear)" fill-opacity="0.5"/>
<path d="M20.13 84.22H19.13C18.8356 84.22 18.5533 84.1031 18.3451 83.8949C18.137 83.6867 18.02 83.4044 18.02 83.11C18.02 82.8156 18.137 82.5333 18.3451 82.3251C18.5533 82.117 18.8356 82 19.13 82H20.13C20.4227 82.0026 20.7024 82.1208 20.9084 82.3286C21.1145 82.5365 21.23 82.8174 21.23 83.11C21.23 83.4027 21.1145 83.6835 20.9084 83.8914C20.7024 84.0993 20.4227 84.2174 20.13 84.22Z" fill="url(#paint33_linear)" fill-opacity="0.5"/>
<path d="M109.031 87.007H92C94.28 87.0629 96.446 87.983 98.037 89.5706C99.629 91.1582 100.518 93.2876 100.515 95.5039C100.516 96.623 100.744 97.7309 101.186 98.7642C101.628 99.7976 102.276 100.736 103.091 101.526C103.907 102.316 104.875 102.941 105.94 103.367C107.004 103.793 108.145 104.01 109.297 104.007C111.615 104.004 113.837 103.106 115.475 101.512C117.112 99.9178 118.032 97.7569 118.032 95.5039C118.032 93.2515 117.112 91.0912 115.474 89.4979C113.836 87.9047 111.614 87.0087 109.297 87.007H109.063" fill="url(#paint34_linear)"/>
</g>
<path d="M53.7352 42.4711C54.0576 42.4674 54.3685 42.5915 54.6002 42.8165C54.8321 43.0413 54.966 43.3489 54.9731 43.6724V46.4029C54.9731 46.7323 54.8427 47.0483 54.6105 47.2814C54.3784 47.5143 54.0635 47.6452 53.7352 47.6452H42.4428C42.2801 47.6452 42.119 47.6131 41.9689 47.5506C41.8187 47.4882 41.6822 47.3967 41.5673 47.2814C41.4524 47.1659 41.3612 47.029 41.2989 46.8782C41.2367 46.7276 41.2046 46.566 41.2046 46.4029V44.5599C41.213 44.1564 41.3735 43.771 41.6536 43.4813C43.0141 42.2116 44.946 40.2868 46.6194 38.5256C48.2929 36.7645 49.2589 35.6314 49.2589 34.7987C49.2704 34.581 49.2365 34.3633 49.1597 34.1595C49.0827 33.9557 48.9643 33.7703 48.812 33.6149C48.6597 33.4595 48.4769 33.3377 48.2751 33.257C48.0733 33.1764 47.8569 33.1389 47.6398 33.1467C47.2612 33.1259 46.8866 33.2348 46.5776 33.4555C46.2687 33.6762 46.0434 33.9959 45.9391 34.3617C45.891 34.5428 45.7748 34.6979 45.615 34.7948C45.4552 34.8914 45.264 34.9222 45.082 34.8806L41.7625 34.0888C41.6324 34.0622 41.5094 34.0087 41.4012 33.9316C41.293 33.8545 41.2021 33.7557 41.1342 33.6413C41.0663 33.5269 41.0229 33.3994 41.007 33.2673C40.9909 33.1352 41.0026 33.0011 41.0413 32.8737C42.0345 29.3515 45.0277 28 48.1025 28C52.3882 28 54.8098 30.7303 54.8098 34.116C54.8098 36.71 53.1364 38.5256 49.2589 42.4711H53.7352Z" fill="black"/>
<path d="M73.6259 38.0069C73.6259 43.4677 70.9863 48 65.2177 48C59.4492 48 56.7825 43.454 56.7825 38.0069C56.7825 32.5597 59.5035 28.0272 65.2177 28.0272C70.9319 28.0272 73.6259 32.5461 73.6259 38.0069ZM68.1838 38.0069C68.1838 35.5767 67.3945 33.2833 65.2177 33.2833C63.0409 33.2833 62.2246 35.5767 62.2246 38.0069C62.2246 40.4368 63.0544 42.7167 65.2177 42.7167C67.3809 42.7167 68.1838 40.4232 68.1838 38.0069Z" fill="black"/>
<path d="M80.9865 28.355H83.7892C83.9483 28.355 84.1057 28.3863 84.2526 28.4474C84.3995 28.5085 84.533 28.5981 84.6454 28.7109C84.7579 28.8237 84.8471 28.9575 84.908 29.105C84.9687 29.2525 85.0001 29.4104 85.0001 29.5699V46.4029C85.002 46.5642 84.972 46.7243 84.9121 46.8741C84.8522 47.0238 84.7635 47.1603 84.651 47.2757C84.5385 47.391 84.4046 47.483 84.2567 47.5464C84.1088 47.6099 83.95 47.6435 83.7892 47.6452H80.5376C80.2093 47.6452 79.8944 47.5142 79.6621 47.2813C79.43 47.0483 79.2994 46.7323 79.2994 46.4029V34.4984L77.4627 35.7406C77.3551 35.8151 77.2336 35.8666 77.1054 35.8917C76.9771 35.917 76.8451 35.9155 76.7173 35.8873C76.5897 35.8592 76.4693 35.8049 76.3634 35.728C76.2576 35.6511 76.1688 35.5532 76.1022 35.4403L74.7417 33.3379C74.6713 33.2288 74.6232 33.1067 74.6001 32.9788C74.5771 32.8508 74.5795 32.7196 74.6074 32.5926C74.6352 32.4657 74.6878 32.3455 74.7623 32.2391C74.8367 32.1327 74.9314 32.0422 75.041 31.9728L80.1022 28.5597C80.3674 28.3977 80.6774 28.3259 80.9865 28.355Z" fill="black"/>
<path d="M41.8248 63.5264C41.8248 68.1334 38.7638 70.2376 33.9125 70.2376H31.7123V74.5146C31.7123 74.679 31.6801 74.8417 31.6177 74.9936C31.5551 75.1453 31.4636 75.2834 31.3481 75.3995C31.2325 75.5158 31.0956 75.608 30.9447 75.6708C30.7938 75.7337 30.6321 75.7661 30.4688 75.7661H27.2163C27.0549 75.7644 26.8952 75.7305 26.7467 75.6667C26.5982 75.6028 26.4635 75.5101 26.3506 75.3939C26.2376 75.2777 26.1486 75.1402 26.0885 74.9893C26.0283 74.8385 25.9982 74.6772 26.0001 74.5146V57.5577C26.0001 57.2331 26.1281 56.9217 26.3563 56.6922C26.5843 56.4626 26.8938 56.3337 27.2163 56.3337H33.9125C39.2421 56.3337 41.8248 59.1943 41.8248 63.5264ZM36.0717 63.5264C36.0819 63.2467 36.0314 62.9681 35.9238 62.71C35.8162 62.452 35.6541 62.2207 35.4485 62.0321C35.2431 61.8436 34.9991 61.7025 34.7337 61.6185C34.4685 61.5345 34.1883 61.5098 33.9125 61.5459H31.7123V65.5204H33.9125C34.1899 65.5593 34.4724 65.536 34.7398 65.4522C35.0071 65.3685 35.2527 65.2261 35.4591 65.0355C35.6654 64.845 35.8274 64.6109 35.9333 64.3499C36.0392 64.0889 36.0863 63.8078 36.0717 63.5264Z" fill="black"/>
<path d="M63.2114 66.0568C63.2006 68.0324 62.6086 69.9606 61.5097 71.5979C60.411 73.2351 58.8546 74.508 57.0375 75.2559C55.2205 76.0038 53.2239 76.1932 51.3 75.8C49.3761 75.407 47.6111 74.449 46.2277 73.0472C44.8443 71.6454 43.9045 69.8626 43.527 67.9237C43.1497 65.9849 43.3517 63.977 44.1073 62.1536C44.8629 60.3301 46.1383 58.7727 47.7727 57.6782C49.4071 56.5837 51.3269 56.001 53.2902 56.0037C54.6087 55.9671 55.9206 56.2029 57.1454 56.6961C58.3699 57.1893 59.4812 57.9296 60.4107 58.8714C61.3402 59.8133 62.0682 60.9368 62.5498 62.1724C63.0315 63.4083 63.2567 64.7302 63.2114 66.0568ZM57.5129 66.0568C57.465 65.2286 57.1769 64.4327 56.6847 63.7672C56.1925 63.1016 55.5176 62.5956 54.7429 62.3116C53.9685 62.0275 53.1282 61.9779 52.326 62.1687C51.5237 62.3597 50.7945 62.7827 50.2283 63.3857C49.662 63.9886 49.2837 64.7452 49.1396 65.5621C48.9957 66.379 49.0925 67.2204 49.4181 67.9827C49.7436 68.7449 50.2836 69.3945 50.9718 69.8514C51.6599 70.3082 52.4658 70.5524 53.2902 70.5539C53.8713 70.5738 54.45 70.4693 54.9879 70.2468C55.5257 70.0245 56.0104 69.6896 56.4098 69.2643C56.8092 68.8389 57.1141 68.333 57.3043 67.78C57.4944 67.227 57.5656 66.6395 57.5129 66.0568Z" fill="black"/>
<path d="M84.7482 66.0568C84.7375 68.0319 84.1456 69.9595 83.0474 71.5965C81.9492 73.2334 80.3938 74.5063 78.5775 75.2546C76.7612 76.003 74.7654 76.1931 72.8419 75.8011C70.9183 75.4092 69.1531 74.4526 67.7692 73.0522C66.3852 71.6517 65.4445 69.8702 65.0656 67.9322C64.6867 65.9942 64.8866 63.9868 65.6401 62.1631C66.3936 60.3394 67.667 58.7811 69.2995 57.6849C70.9321 56.5888 72.8507 56.0037 74.8133 56.0037C76.1325 55.9673 77.4451 56.2029 78.6705 56.696C79.8957 57.1891 81.0078 57.9292 81.9383 58.8708C82.8689 59.8125 83.5982 60.9357 84.0814 62.1714C84.5647 63.4073 84.7916 64.7296 84.7482 66.0568ZM79.0361 66.0568C78.9881 65.2286 78.7 64.4326 78.2078 63.7672C77.7156 63.1017 77.0407 62.5956 76.2661 62.3116C75.4916 62.0275 74.6513 61.978 73.8491 62.1688C73.0468 62.3597 72.3176 62.7828 71.7514 63.3857C71.1852 63.9887 70.8068 64.7453 70.6627 65.5622C70.5188 66.379 70.6156 67.2205 70.9412 67.9826C71.2668 68.7449 71.8068 69.3945 72.4949 69.8515C73.183 70.3083 73.989 70.5525 74.8133 70.554C75.3944 70.5739 75.9731 70.4692 76.511 70.2469C77.0489 70.0245 77.5336 69.6896 77.9329 69.2642C78.3323 68.8389 78.6372 68.333 78.8274 67.78C79.0176 67.227 79.0887 66.6396 79.0361 66.0568Z" fill="black"/>
<path d="M98.7969 70.5538C99.1151 70.5574 99.4188 70.6861 99.6432 70.9123C99.8677 71.1384 99.9957 71.4442 99.9997 71.7641V74.5147C100.004 74.6765 99.9746 74.8375 99.9165 74.9883C99.8571 75.139 99.77 75.2767 99.6577 75.3931C99.5455 75.5095 99.4122 75.6023 99.2643 75.6664C99.1164 75.7304 98.958 75.7643 98.7969 75.7662H88.3427C88.1788 75.7679 88.0163 75.7368 87.8646 75.6746C87.7128 75.6123 87.575 75.5202 87.4591 75.4037C87.3433 75.287 87.2517 75.1483 87.1899 74.9956C87.1281 74.843 87.0972 74.6794 87.0989 74.5147V57.5576C87.1008 57.3951 87.1345 57.2345 87.198 57.085C87.2613 56.9355 87.3535 56.8001 87.469 56.6864C87.5844 56.5728 87.7209 56.4831 87.8709 56.4225C88.0208 56.3621 88.1811 56.3318 88.3427 56.3336H91.5951C91.9164 56.3372 92.2245 56.4673 92.4516 56.6961C92.6786 56.9249 92.808 57.2341 92.8107 57.5576V70.5538H98.7969Z" fill="black"/>
<defs>
<linearGradient id="paint0_linear" x1="62.4999" y1="0.151725" x2="62.4999" y2="104" gradientUnits="userSpaceOnUse">
<stop stop-color="#F9B233"/>
<stop offset="1" stop-color="#D97213"/>
</linearGradient>
<linearGradient id="paint1_linear" x1="62.4927" y1="0" x2="62.4927" y2="103.93" gradientUnits="userSpaceOnUse">
<stop stop-color="#6FD74A"/>
<stop offset="1" stop-color="#24A240"/>
</linearGradient>
<linearGradient id="paint2_linear" x1="-20.01" y1="22" x2="32.89" y2="22" gradientUnits="userSpaceOnUse">
<stop stop-color="#F8AE31"/>
<stop offset="0.04" stop-color="#FAB622"/>
<stop offset="0.12" stop-color="#FBBF0F"/>
<stop offset="0.2" stop-color="#FDC504"/>
<stop offset="0.28" stop-color="#FDC700"/>
<stop offset="0.67" stop-color="#F8AE31"/>
<stop offset="0.89" stop-color="#FCC600"/>
<stop offset="1" stop-color="#F8AE31"/>
</linearGradient>
<linearGradient id="paint3_linear" x1="-37206.2" y1="-289.026" x2="-34407.8" y2="-289.026" gradientUnits="userSpaceOnUse">
<stop stop-color="#F8AE31"/>
<stop offset="0.04" stop-color="#FAB622"/>
<stop offset="0.12" stop-color="#FBBF0F"/>
<stop offset="0.2" stop-color="#FDC504"/>
<stop offset="0.28" stop-color="#FDC700"/>
<stop offset="0.67" stop-color="#F8AE31"/>
<stop offset="0.89" stop-color="#FCC600"/>
<stop offset="1" stop-color="#F8AE31"/>
</linearGradient>
<linearGradient id="paint4_linear" x1="-36831.1" y1="-269.515" x2="-34033.2" y2="-269.515" gradientUnits="userSpaceOnUse">
<stop stop-color="#F8AE31"/>
<stop offset="0.04" stop-color="#FAB622"/>
<stop offset="0.12" stop-color="#FBBF0F"/>
<stop offset="0.2" stop-color="#FDC504"/>
<stop offset="0.28" stop-color="#FDC700"/>
<stop offset="0.67" stop-color="#F8AE31"/>
<stop offset="0.89" stop-color="#FCC600"/>
<stop offset="1" stop-color="#F8AE31"/>
</linearGradient>
<linearGradient id="paint5_linear" x1="-35560.9" y1="-183.391" x2="-32899.4" y2="-183.391" gradientUnits="userSpaceOnUse">
<stop stop-color="#F8AE31"/>
<stop offset="0.04" stop-color="#FAB622"/>
<stop offset="0.12" stop-color="#FBBF0F"/>
<stop offset="0.2" stop-color="#FDC504"/>
<stop offset="0.28" stop-color="#FDC700"/>
<stop offset="0.67" stop-color="#F8AE31"/>
<stop offset="0.89" stop-color="#FCC600"/>
<stop offset="1" stop-color="#F8AE31"/>
</linearGradient>
<linearGradient id="paint6_linear" x1="101" y1="-0.269897" x2="102.47" y2="-0.269897" gradientUnits="userSpaceOnUse">
<stop stop-color="#F9B233"/>
<stop offset="1" stop-color="#D97213"/>
</linearGradient>
<linearGradient id="paint7_linear" x1="-749.835" y1="-81.6065" x2="-747.674" y2="-81.6065" gradientUnits="userSpaceOnUse">
<stop stop-color="#F9B233"/>
<stop offset="1" stop-color="#D97213"/>
</linearGradient>
<linearGradient id="paint8_linear" x1="-749.835" y1="-70.4377" x2="-747.674" y2="-70.4377" gradientUnits="userSpaceOnUse">
<stop stop-color="#F9B233"/>
<stop offset="1" stop-color="#D97213"/>
</linearGradient>
<linearGradient id="paint9_linear" x1="-749.835" y1="-59.7829" x2="-747.674" y2="-59.7829" gradientUnits="userSpaceOnUse">
<stop stop-color="#F9B233"/>
<stop offset="1" stop-color="#D97213"/>
</linearGradient>
<linearGradient id="paint10_linear" x1="-749.835" y1="-48.1219" x2="-747.674" y2="-48.1219" gradientUnits="userSpaceOnUse">
<stop stop-color="#F9B233"/>
<stop offset="1" stop-color="#D97213"/>
</linearGradient>
<linearGradient id="paint11_linear" x1="-749.835" y1="-37.3798" x2="-747.674" y2="-37.3798" gradientUnits="userSpaceOnUse">
<stop stop-color="#F9B233"/>
<stop offset="1" stop-color="#D97213"/>
</linearGradient>
<linearGradient id="paint12_linear" x1="-732.911" y1="-92.7463" x2="-730.779" y2="-92.7463" gradientUnits="userSpaceOnUse">
<stop stop-color="#F9B233"/>
<stop offset="1" stop-color="#D97213"/>
</linearGradient>
<linearGradient id="paint13_linear" x1="-732.911" y1="-81.6025" x2="-730.779" y2="-81.6025" gradientUnits="userSpaceOnUse">
<stop stop-color="#F9B233"/>
<stop offset="1" stop-color="#D97213"/>
</linearGradient>
<linearGradient id="paint14_linear" x1="-732.911" y1="-70.4341" x2="-730.779" y2="-70.4341" gradientUnits="userSpaceOnUse">
<stop stop-color="#F9B233"/>
<stop offset="1" stop-color="#D97213"/>
</linearGradient>
<linearGradient id="paint15_linear" x1="-732.911" y1="-59.7829" x2="-730.779" y2="-59.7829" gradientUnits="userSpaceOnUse">
<stop stop-color="#F9B233"/>
<stop offset="1" stop-color="#D97213"/>
</linearGradient>
<linearGradient id="paint16_linear" x1="-732.911" y1="-48.1219" x2="-730.779" y2="-48.1219" gradientUnits="userSpaceOnUse">
<stop stop-color="#F9B233"/>
<stop offset="1" stop-color="#D97213"/>
</linearGradient>
<linearGradient id="paint17_linear" x1="-732.911" y1="-37.3798" x2="-730.779" y2="-37.3798" gradientUnits="userSpaceOnUse">
<stop stop-color="#F9B233"/>
<stop offset="1" stop-color="#D97213"/>
</linearGradient>
<linearGradient id="paint18_linear" x1="-727.423" y1="-92.7506" x2="-725.262" y2="-92.7506" gradientUnits="userSpaceOnUse">
<stop stop-color="#F9B233"/>
<stop offset="1" stop-color="#D97213"/>
</linearGradient>
<linearGradient id="paint19_linear" x1="-733.131" y1="-79.239" x2="-730.955" y2="-79.239" gradientUnits="userSpaceOnUse">
<stop stop-color="#F9B233"/>
<stop offset="1" stop-color="#D97213"/>
</linearGradient>
<linearGradient id="paint20_linear" x1="-727.422" y1="-70.398" x2="-725.261" y2="-70.398" gradientUnits="userSpaceOnUse">
<stop stop-color="#F9B233"/>
<stop offset="1" stop-color="#D97213"/>
</linearGradient>
<linearGradient id="paint21_linear" x1="-733.486" y1="-61.2938" x2="-731.31" y2="-61.2938" gradientUnits="userSpaceOnUse">
<stop stop-color="#F9B233"/>
<stop offset="1" stop-color="#D97213"/>
</linearGradient>
<linearGradient id="paint22_linear" x1="-727.422" y1="-48.1519" x2="-725.261" y2="-48.1519" gradientUnits="userSpaceOnUse">
<stop stop-color="#F9B233"/>
<stop offset="1" stop-color="#D97213"/>
</linearGradient>
<linearGradient id="paint23_linear" x1="-727.423" y1="-37.3798" x2="-725.262" y2="-37.3798" gradientUnits="userSpaceOnUse">
<stop stop-color="#F9B233"/>
<stop offset="1" stop-color="#D97213"/>
</linearGradient>
<linearGradient id="paint24_linear" x1="-710.598" y1="-92.7463" x2="-708.467" y2="-92.7463" gradientUnits="userSpaceOnUse">
<stop stop-color="#F9B233"/>
<stop offset="1" stop-color="#D97213"/>
</linearGradient>
<linearGradient id="paint25_linear" x1="-710.598" y1="-81.6025" x2="-708.467" y2="-81.6025" gradientUnits="userSpaceOnUse">
<stop stop-color="#F9B233"/>
<stop offset="1" stop-color="#D97213"/>
</linearGradient>
<linearGradient id="paint26_linear" x1="-710.598" y1="-70.4341" x2="-708.467" y2="-70.4341" gradientUnits="userSpaceOnUse">
<stop stop-color="#F9B233"/>
<stop offset="1" stop-color="#D97213"/>
</linearGradient>
<linearGradient id="paint27_linear" x1="-710.598" y1="-59.7829" x2="-708.467" y2="-59.7829" gradientUnits="userSpaceOnUse">
<stop stop-color="#F9B233"/>
<stop offset="1" stop-color="#D97213"/>
</linearGradient>
<linearGradient id="paint28_linear" x1="-710.598" y1="-48.1219" x2="-708.467" y2="-48.1219" gradientUnits="userSpaceOnUse">
<stop stop-color="#F9B233"/>
<stop offset="1" stop-color="#D97213"/>
</linearGradient>
<linearGradient id="paint29_linear" x1="-710.598" y1="-37.3798" x2="-708.467" y2="-37.3798" gradientUnits="userSpaceOnUse">
<stop stop-color="#F9B233"/>
<stop offset="1" stop-color="#D97213"/>
</linearGradient>
<linearGradient id="paint30_linear" x1="23.11" y1="85.02" x2="23.11" y2="88.22" gradientUnits="userSpaceOnUse">
<stop stop-color="#F4A82E"/>
<stop offset="1" stop-color="#FF8C1A"/>
</linearGradient>
<linearGradient id="paint31_linear" x1="23.11" y1="78.02" x2="23.11" y2="81.23" gradientUnits="userSpaceOnUse">
<stop stop-color="#F4A82E"/>
<stop offset="1" stop-color="#FF8C1A"/>
</linearGradient>
<linearGradient id="paint32_linear" x1="26.615" y1="82" x2="26.615" y2="84.22" gradientUnits="userSpaceOnUse">
<stop stop-color="#F4A82E"/>
<stop offset="1" stop-color="#FF8C1A"/>
</linearGradient>
<linearGradient id="paint33_linear" x1="19.625" y1="82" x2="19.625" y2="84.22" gradientUnits="userSpaceOnUse">
<stop stop-color="#F4A82E"/>
<stop offset="1" stop-color="#FF8C1A"/>
</linearGradient>
<linearGradient id="paint34_linear" x1="105.016" y1="87.007" x2="105.016" y2="104.007" gradientUnits="userSpaceOnUse">
<stop stop-color="#F4A92E"/>
<stop offset="1" stop-color="#DB7615"/>
</linearGradient>
</defs>
</svg>
