<svg width="168" height="102" viewBox="0 0 168 102" fill="none" xmlns="http://www.w3.org/2000/svg">
<rect width="168" height="102" rx="24" fill="url(#paint0_linear)"/>
<mask id="mask0" mask-type="alpha" maskUnits="userSpaceOnUse" x="0" y="0" width="168" height="102">
<rect width="168" height="102" rx="24" fill="url(#paint1_linear)"/>
</mask>
<g mask="url(#mask0)">
<path d="M43.89 15.34V17.02C43.4517 16.9779 43.0309 16.8269 42.6658 16.5806C42.3008 16.3343 42.0032 16.0007 41.8 15.61C41.41 15.07 41.14 14.71 40.58 14.71C40.02 14.71 39.74 15.07 39.35 15.61C39.1516 15.9976 38.8571 16.328 38.4948 16.5696C38.1324 16.8111 37.7142 16.9559 37.28 16.99C36.8401 16.9534 36.417 16.8045 36.0511 16.5577C35.6852 16.3108 35.3887 15.9742 35.19 15.58C34.81 15.04 34.55 14.68 33.98 14.68C33.41 14.68 33.15 15.04 32.76 15.58C32.5622 15.9728 32.2674 16.3086 31.9033 16.5553C31.5393 16.8021 31.1182 16.9517 30.6801 16.99C30.2399 16.9543 29.8163 16.8059 29.4503 16.5589C29.0842 16.3119 28.7879 15.9748 28.59 15.58C28.2 15.04 27.9501 14.68 27.3701 14.68C26.7901 14.68 26.55 15.04 26.16 15.58C25.9622 15.9748 25.6659 16.3119 25.2998 16.5589C24.9337 16.8059 24.5102 16.9543 24.07 16.99C23.6319 16.9517 23.2108 16.8021 22.8467 16.5553C22.4827 16.3086 22.1878 15.9728 21.9901 15.58C21.6001 15.04 21.35 14.68 20.78 14.68C20.21 14.68 19.94 15.04 19.55 15.58C19.3596 15.9825 19.0639 16.326 18.6942 16.5742C18.3245 16.8224 17.8946 16.9661 17.45 16.99C17.0117 16.9479 16.5909 16.7969 16.2258 16.5506C15.8608 16.3043 15.5632 15.9707 15.36 15.58C14.97 15.04 14.7 14.68 14.13 14.68C13.56 14.68 13.3 15.04 12.91 15.58C12.7138 15.974 12.4193 16.3108 12.0549 16.5578C11.6906 16.8047 11.2687 16.9536 10.83 16.99C10.3901 16.9534 9.967 16.8045 9.6011 16.5577C9.2352 16.3108 8.9387 15.9742 8.7401 15.58C8.3501 15.04 8.1 14.68 7.52 14.68C6.94 14.68 6.7001 15.04 6.3101 15.58C6.1123 15.9728 5.8174 16.3086 5.4533 16.5553C5.0893 16.8021 4.6682 16.9517 4.23 16.99C3.7899 16.9543 3.3663 16.8059 3.0002 16.5589C2.6342 16.3119 2.3379 15.9748 2.14 15.58C1.75 15.04 1.5 14.68 0.92 14.68C0.34 14.68 0.0999994 15.04 -0.290001 15.58C-0.487901 15.9748 -0.7841 16.3119 -1.1502 16.5589C-1.5163 16.8059 -1.9398 16.9543 -2.3799 16.99C-2.8181 16.9517 -3.2392 16.8021 -3.6032 16.5553C-3.9673 16.3086 -4.2622 15.9728 -4.46 15.58C-4.85 15.04 -5.11 14.68 -5.68 14.68C-6.25 14.68 -6.52 15.04 -6.91 15.58C-7.097 15.983 -7.3904 16.3274 -7.7587 16.5758C-8.127 16.8243 -8.5563 16.9675 -9 16.99V15.34C-8.37 15.34 -8.16 14.98 -7.77 14.44C-7.5787 14.0456 -7.2901 13.7064 -6.9315 13.4545C-6.5728 13.2025 -6.1559 13.0461 -5.72 13C-5.281 13.0354 -4.8587 13.1839 -4.4942 13.431C-4.1297 13.6781 -3.8354 14.0154 -3.64 14.41C-3.25 14.95 -2.99 15.31 -2.42 15.31C-1.85 15.31 -1.59 14.95 -1.2 14.41C-1.0037 14.016 -0.709201 13.6792 -0.344801 13.4322C0.0194988 13.1852 0.441299 13.0364 0.879999 13C1.3199 13.0366 1.7431 13.1855 2.109 13.4323C2.4749 13.6792 2.7714 14.0158 2.97 14.41C3.36 14.95 3.62 15.31 4.19 15.31C4.76 15.31 5.01 14.95 5.4 14.41C5.5978 14.0172 5.8927 13.6814 6.2568 13.4346C6.6208 13.1879 7.0419 13.0383 7.48 13C7.9202 13.0357 8.3437 13.1841 8.7098 13.4311C9.0759 13.6781 9.3721 14.0152 9.57 14.41C9.96 14.95 10.21 15.31 10.79 15.31C11.37 15.31 11.61 14.95 12 14.41C12.1987 14.0158 12.4952 13.6792 12.8611 13.4323C13.227 13.1855 13.6501 13.0366 14.09 13C14.5299 13.0366 14.953 13.1855 15.319 13.4323C15.6849 13.6792 15.9814 14.0158 16.1801 14.41C16.5701 14.95 16.78 15.31 17.41 15.31C18.04 15.31 18.25 14.95 18.64 14.41C18.8387 14.0158 19.1352 13.6792 19.5011 13.4323C19.867 13.1855 20.2902 13.0366 20.73 13C21.1699 13.0366 21.5931 13.1855 21.959 13.4323C22.3249 13.6792 22.6214 14.0158 22.82 14.41C23.21 14.95 23.46 15.31 24.03 15.31C24.6 15.31 24.86 14.95 25.25 14.41C25.4478 14.0172 25.7427 13.6814 26.1068 13.4346C26.4708 13.1879 26.8919 13.0383 27.33 13C27.7702 13.0357 28.1937 13.1841 28.5598 13.4311C28.9259 13.6781 29.2222 14.0152 29.42 14.41C29.81 14.95 30.07 15.31 30.64 15.31C31.21 15.31 31.46 14.95 31.85 14.41C32.0487 14.0158 32.3451 13.6792 32.7111 13.4323C33.077 13.1855 33.5001 13.0366 33.94 13C34.3787 13.0364 34.8006 13.1852 35.1649 13.4322C35.5293 13.6792 35.8238 14.016 36.02 14.41C36.41 14.95 36.6701 15.31 37.2401 15.31C37.8101 15.31 38.06 14.95 38.45 14.41C38.6487 14.0158 38.9452 13.6792 39.3111 13.4323C39.677 13.1855 40.1001 13.0366 40.54 13C40.9802 13.0357 41.4038 13.1841 41.7698 13.4311C42.1359 13.6781 42.4321 14.0152 42.63 14.41C43.05 14.95 43.28 15.34 43.89 15.34Z" fill="url(#paint2_linear)"/>
<path d="M50.1109 19.2199V20.8999C49.6718 20.8559 49.2504 20.7042 48.8841 20.4583C48.5177 20.2123 48.2178 19.8797 48.0108 19.4899C47.6208 18.9499 47.3609 18.5899 46.7909 18.5899C46.2209 18.5899 45.9608 18.9499 45.5708 19.4899C45.3731 19.8827 45.0782 20.2185 44.7142 20.4653C44.3501 20.712 43.929 20.8617 43.4909 20.8999C43.0507 20.8643 42.6272 20.7158 42.2611 20.4688C41.895 20.2218 41.5987 19.8847 41.4009 19.4899C41.0109 18.9499 40.7609 18.5899 40.1809 18.5899C39.6009 18.5899 39.3609 18.9499 38.9709 19.4899C38.7722 19.8841 38.4758 20.2207 38.1098 20.4676C37.7439 20.7145 37.3207 20.8633 36.8808 20.8999C36.4422 20.8635 36.0203 20.7147 35.656 20.4677C35.2916 20.2207 34.9971 19.8839 34.8009 19.4899C34.4109 18.9499 34.1509 18.5899 33.5809 18.5899C33.0109 18.5899 32.7609 18.9499 32.3709 19.4899C32.1722 19.8841 31.8757 20.2207 31.5098 20.4676C31.1439 20.7145 30.7208 20.8633 30.2809 20.8999C29.8419 20.8645 29.4196 20.716 29.0551 20.4689C28.6906 20.2218 28.3963 19.8845 28.2009 19.4899C27.8109 18.9499 27.5509 18.5899 26.9809 18.5899C26.4109 18.5899 26.1408 18.9499 25.7508 19.4899C25.5639 19.893 25.2704 20.2373 24.9021 20.4858C24.5338 20.7343 24.1046 20.8774 23.6609 20.8999C23.2218 20.8559 22.8004 20.7042 22.4341 20.4583C22.0677 20.2123 21.7678 19.8797 21.5609 19.4899C21.1709 18.9499 20.9109 18.5899 20.3409 18.5899C19.7709 18.5899 19.5109 18.9499 19.1209 19.4899C18.9222 19.8841 18.6257 20.2207 18.2598 20.4676C17.8939 20.7145 17.4708 20.8633 17.0309 20.8999C16.5922 20.8635 16.1703 20.7147 15.806 20.4677C15.4416 20.2207 15.1471 19.8839 14.9509 19.4899C14.5609 18.9499 14.3009 18.5899 13.7309 18.5899C13.1609 18.5899 12.9109 18.9499 12.5209 19.4899C12.3222 19.8841 12.0258 20.2207 11.6598 20.4676C11.2939 20.7145 10.8708 20.8633 10.4309 20.8999C9.99224 20.8635 9.57034 20.7147 9.20604 20.4677C8.84164 20.2207 8.54714 19.8839 8.35094 19.4899C7.96094 18.9499 7.70084 18.5899 7.13084 18.5899C6.56084 18.5899 6.30094 18.9499 5.91094 19.4899C5.71544 19.8845 5.42114 20.2218 5.05664 20.4689C4.69214 20.716 4.26984 20.8645 3.83094 20.8999C3.39194 20.8645 2.96974 20.716 2.60514 20.4689C2.24064 20.2218 1.94634 19.8845 1.75084 19.4899C1.36084 18.9499 1.10094 18.5899 0.530939 18.5899C-0.0390608 18.5899 -0.309062 18.9499 -0.699062 19.4899C-0.886962 19.8923 -1.18066 20.236 -1.54876 20.4844C-1.91696 20.7327 -2.34566 20.8764 -2.78906 20.8999V19.2199C-2.15906 19.2199 -1.94916 18.8699 -1.55916 18.3199C-1.36286 17.9259 -1.06836 17.5891 -0.704062 17.3421C-0.339662 17.0952 0.0822389 16.9463 0.520939 16.9099C0.963039 16.9475 1.38794 17.099 1.75424 17.3496C2.12054 17.6002 2.41564 17.9414 2.61094 18.3399C3.00094 18.8899 3.26094 19.2399 3.83094 19.2399C4.40094 19.2399 4.66094 18.8899 5.05094 18.3399C5.24634 17.9453 5.54064 17.608 5.90514 17.3609C6.26964 17.1138 6.69194 16.9653 7.13084 16.9299C7.56984 16.9653 7.99214 17.1138 8.35664 17.3609C8.72114 17.608 9.01544 17.9453 9.21094 18.3399C9.60094 18.8899 9.86094 19.2399 10.4309 19.2399C11.0009 19.2399 11.2609 18.8899 11.6509 18.3399C11.8463 17.9453 12.1406 17.608 12.5051 17.3609C12.8696 17.1138 13.2919 16.9653 13.7309 16.9299C14.1708 16.9665 14.5939 17.1154 14.9598 17.3623C15.3257 17.6091 15.6222 17.9457 15.8208 18.3399C16.2108 18.8899 16.4609 19.2399 17.0309 19.2399C17.6009 19.2399 17.8608 18.8899 18.2508 18.3399C18.4486 17.9471 18.7435 17.6113 19.1076 17.3646C19.4716 17.1178 19.8927 16.9682 20.3309 16.9299C20.7725 16.9649 21.1977 17.113 21.5655 17.3599C21.9333 17.6069 22.2314 17.9444 22.4309 18.3399C22.8209 18.8899 23.0309 19.2399 23.6609 19.2399C24.2909 19.2399 24.5009 18.8899 24.8909 18.3399C25.0887 17.9451 25.385 17.608 25.7511 17.361C26.1172 17.1141 26.5407 16.9656 26.9809 16.9299C27.4198 16.9653 27.8421 17.1138 28.2066 17.3609C28.5711 17.608 28.8655 17.9453 29.0609 18.3399C29.4509 18.8899 29.7109 19.2399 30.2809 19.2399C30.8509 19.2399 31.1108 18.8899 31.5008 18.3399C31.6963 17.9453 31.9906 17.608 32.3551 17.3609C32.7197 17.1138 33.1419 16.9653 33.5809 16.9299C34.0198 16.9653 34.4421 17.1138 34.8066 17.3609C35.1711 17.608 35.4654 17.9453 35.6609 18.3399C36.0509 18.8899 36.3108 19.2399 36.8808 19.2399C37.4508 19.2399 37.7109 18.8899 38.1009 18.3399C38.2971 17.9459 38.5916 17.6091 38.956 17.3622C39.3203 17.1152 39.7422 16.9663 40.1809 16.9299C40.6225 16.9649 41.0477 17.113 41.4155 17.3599C41.7833 17.6069 42.0813 17.9444 42.2809 18.3399C42.6709 18.8899 42.9208 19.2399 43.5008 19.2399C44.0808 19.2399 44.3209 18.8899 44.7109 18.3399C44.9086 17.9471 45.2036 17.6113 45.5676 17.3646C45.9317 17.1178 46.3527 16.9682 46.7909 16.9299C47.2308 16.9665 47.6539 17.1154 48.0198 17.3623C48.3857 17.6091 48.6822 17.9457 48.8808 18.3399C49.2808 18.8699 49.4809 19.2199 50.1109 19.2199Z" fill="url(#paint3_linear)"/>
<path d="M56.9408 23.1401V24.8101C56.503 24.7663 56.0829 24.6145 55.7181 24.3684C55.3534 24.1224 55.0554 23.7896 54.8508 23.4001C54.4608 22.8601 54.2008 22.5001 53.6308 22.5001C53.0608 22.5001 52.7908 22.8601 52.4008 23.4001C52.202 23.8003 51.9015 24.1412 51.5294 24.3886C51.1574 24.6361 50.7268 24.7814 50.2808 24.8101C49.856 24.7616 49.4501 24.6071 49.1007 24.3607C48.7512 24.1143 48.4692 23.784 48.2808 23.4001C47.8908 22.8601 47.6309 22.5001 47.0609 22.5001C46.4909 22.5001 46.2308 22.8601 45.8408 23.4001C45.6446 23.7941 45.3501 24.1309 44.9857 24.3779C44.6214 24.6249 44.1995 24.7737 43.7608 24.8101C43.3209 24.7735 42.8978 24.6246 42.5319 24.3778C42.1659 24.1309 41.8695 23.7943 41.6708 23.4001C41.2808 22.8601 41.0308 22.5001 40.4508 22.5001C39.8708 22.5001 39.6309 22.8601 39.2409 23.4001C39.0446 23.7941 38.7501 24.1309 38.3857 24.3779C38.0214 24.6249 37.5995 24.7737 37.1608 24.8101C36.7209 24.7735 36.2978 24.6246 35.9319 24.3778C35.566 24.1309 35.2695 23.7943 35.0708 23.4001C34.6808 22.8601 34.4308 22.5001 33.8608 22.5001C33.2908 22.5001 33.0208 22.8601 32.6308 23.4001C32.4404 23.8026 32.1447 24.1461 31.775 24.3943C31.4054 24.6425 30.9755 24.7862 30.5308 24.8101C30.0925 24.768 29.6717 24.617 29.3066 24.3707C28.9416 24.1244 28.6439 23.7908 28.4408 23.4001C28.0508 22.8601 27.7808 22.5001 27.2108 22.5001C26.6408 22.5001 26.3809 22.8601 25.9909 23.4001C25.7954 23.7947 25.5011 24.132 25.1365 24.3791C24.772 24.6262 24.3498 24.7747 23.9108 24.8101C23.4709 24.7735 23.0478 24.6246 22.6819 24.3778C22.316 24.1309 22.0195 23.7943 21.8208 23.4001C21.4308 22.8601 21.1808 22.5001 20.6108 22.5001C20.0408 22.5001 19.7808 22.8601 19.3908 23.4001C19.1904 23.797 18.8909 24.1354 18.5212 24.3825C18.1515 24.6295 17.7242 24.7768 17.2808 24.8101C16.8407 24.7744 16.4171 24.626 16.051 24.379C15.685 24.132 15.3887 23.7949 15.1908 23.4001C14.8008 22.8601 14.5508 22.5001 13.9708 22.5001C13.3908 22.5001 13.1508 22.8601 12.7608 23.4001C12.5629 23.7949 12.2667 24.132 11.9006 24.379C11.5345 24.626 11.111 24.7744 10.6708 24.8101C10.2327 24.7719 9.81158 24.6222 9.44758 24.3755C9.08348 24.1287 8.78858 23.7929 8.59078 23.4001C8.20078 22.8601 7.94078 22.5001 7.38078 22.5001C6.82078 22.5001 6.54078 22.8601 6.15078 23.4001C5.96038 23.8026 5.66468 24.1461 5.29498 24.3943C4.92528 24.6425 4.49548 24.7862 4.05078 24.8101V23.1401C4.68078 23.1401 4.89078 22.7801 5.28078 22.2301C5.48098 21.8371 5.77788 21.5014 6.14348 21.2548C6.50908 21.0081 6.93148 20.8585 7.37088 20.8201C7.81018 20.8585 8.23248 21.0081 8.59818 21.2548C8.96378 21.5014 9.26058 21.8371 9.46078 22.2301C9.85078 22.7801 10.1008 23.1401 10.6708 23.1401C11.2408 23.1401 11.5008 22.7801 11.8908 22.2301C12.0901 21.8384 12.3854 21.5037 12.7492 21.2571C13.1129 21.0105 13.5332 20.8602 13.9708 20.8201C14.4105 20.8576 14.8332 21.0068 15.199 21.2536C15.5648 21.5004 15.8614 21.8365 16.0609 22.2301C16.4509 22.7801 16.7108 23.1401 17.2808 23.1401C17.8508 23.1401 18.1009 22.7801 18.4909 22.2301C18.691 21.8371 18.9879 21.5014 19.3535 21.2548C19.7191 21.0081 20.1415 20.8585 20.5808 20.8201C21.0187 20.8592 21.4394 21.0092 21.8033 21.2559C22.1672 21.5026 22.4623 21.8378 22.6608 22.2301C23.0508 22.7801 23.3108 23.1401 23.8808 23.1401C24.4508 23.1401 24.7008 22.7801 25.0908 22.2301C25.291 21.8371 25.5879 21.5014 25.9535 21.2548C26.3191 21.0081 26.7415 20.8585 27.1809 20.8201C27.6222 20.856 28.047 21.0044 28.4147 21.2513C28.7823 21.4981 29.0805 21.8351 29.2808 22.2301C29.6708 22.7801 29.8808 23.1401 30.5108 23.1401C31.1408 23.1401 31.3509 22.7801 31.7409 22.2301C31.941 21.8371 32.2379 21.5014 32.6035 21.2548C32.9691 21.0081 33.3915 20.8585 33.8308 20.8201C34.2702 20.8585 34.6926 21.0081 35.0582 21.2548C35.4238 21.5014 35.7207 21.8371 35.9208 22.2301C36.3108 22.7801 36.5608 23.1401 37.1408 23.1401C37.7208 23.1401 37.9608 22.7801 38.3508 22.2301C38.5501 21.8384 38.8454 21.5037 39.2092 21.2571C39.5729 21.0105 39.9932 20.8602 40.4309 20.8201C40.8705 20.8576 41.2932 21.0068 41.6589 21.2536C42.0247 21.5004 42.3214 21.8365 42.5208 22.2301C42.9108 22.7801 43.1709 23.1401 43.7409 23.1401C44.3109 23.1401 44.5608 22.7801 44.9508 22.2301C45.151 21.8371 45.4479 21.5014 45.8135 21.2548C46.1791 21.0081 46.6015 20.8585 47.0408 20.8201C47.4787 20.8592 47.8994 21.0092 48.2633 21.2559C48.6272 21.5026 48.9223 21.8378 49.1209 22.2301C49.5109 22.7801 49.7708 23.1401 50.3408 23.1401C50.9108 23.1401 51.1708 22.7801 51.5508 22.2301C51.751 21.8371 52.0479 21.5014 52.4135 21.2548C52.7791 21.0081 53.2015 20.8585 53.6408 20.8201C54.0804 20.8576 54.5032 21.0068 54.869 21.2536C55.2347 21.5004 55.5314 21.8365 55.7308 22.2301C56.1008 22.7801 56.2808 23.1401 56.9408 23.1401Z" fill="url(#paint4_linear)"/>
<path d="M62.4511 26.11V27.83H62.0011C61.8711 27.68 61.7611 27.53 61.6611 27.39C61.2811 26.86 61.0111 26.51 60.4411 26.51C60.3514 26.4991 60.2608 26.4991 60.1711 26.51C59.7911 26.62 59.5511 26.93 59.2311 27.38C59.1311 27.52 59.0311 27.67 58.9011 27.82H55.4011L55.0611 27.38C54.6711 26.84 54.4211 26.48 53.8511 26.48C53.2811 26.48 53.0211 26.84 52.6311 27.38L52.3011 27.82H48.8011C48.6711 27.67 48.5711 27.52 48.4611 27.38C48.0811 26.84 47.8211 26.48 47.2511 26.48C46.6811 26.48 46.4211 26.84 46.0311 27.38L45.7011 27.82H42.1911L41.8611 27.38C41.4711 26.84 41.2211 26.48 40.6511 26.48C40.0811 26.48 39.8111 26.84 39.4211 27.38C39.3111 27.52 39.2111 27.67 39.1011 27.82H35.5611L35.2311 27.38C34.8411 26.84 34.5811 26.48 34.0111 26.48C33.4411 26.48 33.1711 26.84 32.7811 27.38L32.4511 27.82H28.9411C28.827 27.6788 28.7203 27.532 28.6211 27.38C28.2311 26.84 27.9711 26.48 27.3911 26.48C26.8111 26.48 26.5711 26.84 26.1811 27.38L25.8511 27.82H22.3511C22.2211 27.67 22.1211 27.52 22.0111 27.38C21.6211 26.84 21.3711 26.48 20.8011 26.48C20.2311 26.48 19.9711 26.84 19.5811 27.38C19.4811 27.52 19.3711 27.67 19.2511 27.82H15.7411L15.4111 27.38C15.0211 26.84 14.7711 26.48 14.1911 26.48C13.6111 26.48 13.3511 26.84 12.9611 27.38C12.8611 27.52 12.7611 27.67 12.6411 27.82H10.8711V27.11C11.5011 27.11 11.7111 26.75 12.1011 26.2C12.3018 25.8083 12.599 25.4742 12.9647 25.2292C13.3304 24.9843 13.7524 24.8365 14.1911 24.8C14.6297 24.8365 15.0518 24.9843 15.4175 25.2292C15.7832 25.4742 16.0804 25.8083 16.2811 26.2C16.6711 26.75 16.9211 27.11 17.4911 27.11C18.0611 27.11 18.3211 26.75 18.7111 26.2C18.9118 25.8083 19.209 25.4742 19.5747 25.2292C19.9404 24.9843 20.3625 24.8365 20.8011 24.8C21.238 24.8382 21.658 24.9867 22.0218 25.2315C22.3856 25.4764 22.6812 25.8096 22.8811 26.2C23.2711 26.75 23.5311 27.11 24.1011 27.11C24.6711 27.11 24.9211 26.75 25.3111 26.2C25.5109 25.8096 25.8066 25.4764 26.1704 25.2315C26.5342 24.9867 26.9542 24.8382 27.3911 24.8C27.83 24.8356 28.2524 24.9829 28.6182 25.228C28.9841 25.4731 29.2812 25.8077 29.4811 26.2C29.8711 26.75 30.1311 27.11 30.7011 27.11C31.2711 27.11 31.5211 26.75 31.9111 26.2C32.1118 25.8083 32.409 25.4742 32.7747 25.2292C33.1404 24.9843 33.5624 24.8365 34.0011 24.8C34.4399 24.8356 34.8625 24.9829 35.2283 25.228C35.5941 25.4731 35.8911 25.8077 36.0911 26.2C36.4811 26.75 36.6911 27.11 37.3211 27.11C37.9511 27.11 38.1611 26.75 38.5511 26.2C38.7518 25.8083 39.049 25.4742 39.4147 25.2292C39.7804 24.9843 40.2025 24.8365 40.6411 24.8C41.0797 24.8365 41.5018 24.9843 41.8675 25.2292C42.2331 25.4742 42.5304 25.8083 42.7311 26.2C43.1111 26.75 43.3711 27.11 43.9511 27.11C44.5311 27.11 44.7711 26.75 45.1611 26.2C45.3618 25.8083 45.659 25.4742 46.0247 25.2292C46.3904 24.9843 46.8124 24.8365 47.2511 24.8C47.6882 24.8372 48.1087 24.9854 48.4726 25.2303C48.8366 25.4753 49.132 25.809 49.3311 26.2C49.7211 26.75 49.9811 27.11 50.5511 27.11C51.1211 27.11 51.3811 26.75 51.7611 26.2C51.9618 25.8083 52.259 25.4742 52.6247 25.2292C52.9904 24.9843 53.4125 24.8365 53.8511 24.8C54.2882 24.8372 54.7086 24.9854 55.0726 25.2303C55.4365 25.4753 55.732 25.809 55.9311 26.2C56.3211 26.75 56.5811 27.11 57.1511 27.11C57.7211 27.11 57.9711 26.75 58.3611 26.2L58.7411 25.7C58.9372 25.4281 59.1937 25.2053 59.4904 25.0491C59.7871 24.893 60.1159 24.8077 60.4511 24.8C60.8678 24.8321 61.2697 24.969 61.6193 25.1981C61.969 25.4271 62.2551 25.7408 62.4511 26.11Z" fill="url(#paint5_linear)"/>
<path fill-rule="evenodd" clip-rule="evenodd" d="M137.47 0.730072C137.467 0.924572 137.388 1.11027 137.25 1.24687C137.111 1.38347 136.925 1.46007 136.73 1.46007C136.536 1.46007 136.351 1.38317 136.214 1.24627C136.077 1.10937 136 0.923672 136 0.730072C136 0.536472 136.077 0.350772 136.214 0.213872C136.351 0.0769717 136.536 7.22186e-05 136.73 7.22186e-05C136.827 -0.00128778 136.923 0.0165721 137.012 0.0526721C137.102 0.0887721 137.184 0.142373 137.253 0.210273C137.322 0.278173 137.376 0.359172 137.414 0.448372C137.451 0.537572 137.47 0.633372 137.47 0.730072Z" fill="url(#paint6_linear)"/>
<path fill-rule="evenodd" clip-rule="evenodd" d="M137.47 5.26003C137.47 5.35673 137.451 5.45243 137.414 5.54163C137.376 5.63093 137.322 5.71183 137.253 5.77973C137.184 5.84763 137.102 5.90123 137.012 5.93733C136.923 5.97343 136.827 5.99133 136.73 5.99003C136.536 5.99003 136.351 5.91313 136.214 5.77613C136.077 5.63923 136 5.45363 136 5.26003C136 5.06643 136.077 4.88073 136.214 4.74383C136.351 4.60693 136.536 4.53003 136.73 4.53003C136.925 4.52993 137.111 4.60653 137.25 4.74323C137.388 4.87983 137.467 5.06543 137.47 5.26003Z" fill="url(#paint7_linear)"/>
<path fill-rule="evenodd" clip-rule="evenodd" d="M137.47 9.80013C137.467 9.99463 137.388 10.1803 137.25 10.3169C137.111 10.4535 136.925 10.5301 136.73 10.5301C136.536 10.5301 136.351 10.4532 136.214 10.3163C136.077 10.1794 136 9.99373 136 9.80013C136 9.60653 136.077 9.42083 136.214 9.28393C136.351 9.14703 136.536 9.07013 136.73 9.07013C136.827 9.06883 136.923 9.08673 137.012 9.12273C137.102 9.15883 137.184 9.21243 137.253 9.28033C137.322 9.34823 137.376 9.42923 137.414 9.51843C137.451 9.60763 137.47 9.70343 137.47 9.80013Z" fill="url(#paint8_linear)"/>
<path fill-rule="evenodd" clip-rule="evenodd" d="M137.47 14.3301C137.47 14.4272 137.451 14.5235 137.414 14.6133C137.377 14.703 137.322 14.7846 137.253 14.8533C137.185 14.922 137.103 14.9766 137.013 15.0137C136.923 15.0509 136.827 15.0701 136.73 15.0701C136.535 15.0674 136.35 14.9883 136.213 14.8498C136.077 14.7113 136 14.5246 136 14.3301C136 14.1365 136.077 13.9508 136.214 13.8139C136.351 13.677 136.536 13.6001 136.73 13.6001C136.925 13.6 137.111 13.6766 137.25 13.8133C137.388 13.9499 137.467 14.1355 137.47 14.3301Z" fill="url(#paint9_linear)"/>
<path fill-rule="evenodd" clip-rule="evenodd" d="M137.47 18.8701C137.467 19.0646 137.388 19.2503 137.25 19.3869C137.111 19.5235 136.925 19.6001 136.73 19.6001C136.536 19.6001 136.351 19.5232 136.214 19.3863C136.077 19.2494 136 19.0637 136 18.8701C136 18.6765 136.077 18.4908 136.214 18.3539C136.351 18.217 136.536 18.1401 136.73 18.1401C136.925 18.1401 137.111 18.2166 137.25 18.3533C137.388 18.4899 137.467 18.6756 137.47 18.8701Z" fill="url(#paint10_linear)"/>
<path fill-rule="evenodd" clip-rule="evenodd" d="M137.47 23.4002C137.47 23.4974 137.451 23.5936 137.414 23.6834C137.377 23.7731 137.322 23.8547 137.253 23.9234C137.185 23.9922 137.103 24.0467 137.013 24.0838C136.923 24.121 136.827 24.1402 136.73 24.1402C136.535 24.1375 136.35 24.0584 136.213 23.9199C136.077 23.7814 136 23.5947 136 23.4002C136 23.2066 136.077 23.0209 136.214 22.884C136.351 22.7471 136.536 22.6702 136.73 22.6702C136.925 22.6702 137.111 22.7467 137.25 22.8834C137.388 23.02 137.467 23.2057 137.47 23.4002Z" fill="url(#paint11_linear)"/>
<path fill-rule="evenodd" clip-rule="evenodd" d="M141.999 0.73C141.999 0.9236 141.922 1.1092 141.785 1.2462C141.648 1.3831 141.463 1.46 141.269 1.46C141.075 1.46 140.89 1.3831 140.753 1.2462C140.616 1.1092 140.539 0.9236 140.539 0.73C140.539 0.5364 140.616 0.350699 140.753 0.213799C140.89 0.0768995 141.075 0 141.269 0C141.463 0 141.648 0.0768995 141.785 0.213799C141.922 0.350699 141.999 0.5364 141.999 0.73Z" fill="url(#paint12_linear)"/>
<path fill-rule="evenodd" clip-rule="evenodd" d="M141.999 5.26003C141.999 5.45363 141.922 5.63923 141.785 5.77613C141.648 5.91313 141.463 5.99003 141.269 5.99003C141.075 5.99003 140.89 5.91313 140.753 5.77613C140.616 5.63923 140.539 5.45363 140.539 5.26003C140.539 5.06643 140.616 4.88073 140.753 4.74383C140.89 4.60693 141.075 4.53003 141.269 4.53003C141.463 4.53003 141.648 4.60693 141.785 4.74383C141.922 4.88073 141.999 5.06643 141.999 5.26003Z" fill="url(#paint13_linear)"/>
<path fill-rule="evenodd" clip-rule="evenodd" d="M141.999 9.80007C141.999 9.99367 141.922 10.1794 141.785 10.3163C141.648 10.4532 141.463 10.5301 141.269 10.5301C141.075 10.5301 140.89 10.4532 140.753 10.3163C140.616 10.1794 140.539 9.99367 140.539 9.80007C140.539 9.60647 140.616 9.42077 140.753 9.28387C140.89 9.14697 141.075 9.07007 141.269 9.07007C141.463 9.07007 141.648 9.14697 141.785 9.28387C141.922 9.42077 141.999 9.60647 141.999 9.80007Z" fill="url(#paint14_linear)"/>
<path fill-rule="evenodd" clip-rule="evenodd" d="M141.999 14.3301C141.999 14.5246 141.922 14.7113 141.786 14.8498C141.649 14.9883 141.464 15.0674 141.269 15.0701C141.075 15.0674 140.889 14.9883 140.752 14.8498C140.616 14.7113 140.539 14.5246 140.539 14.3301C140.539 14.1365 140.616 13.9508 140.753 13.8139C140.89 13.677 141.075 13.6001 141.269 13.6001C141.463 13.6001 141.648 13.677 141.785 13.8139C141.922 13.9508 141.999 14.1365 141.999 14.3301Z" fill="url(#paint15_linear)"/>
<path fill-rule="evenodd" clip-rule="evenodd" d="M141.999 18.8701C141.999 19.0637 141.922 19.2494 141.785 19.3863C141.648 19.5232 141.463 19.6001 141.269 19.6001C141.075 19.6001 140.89 19.5232 140.753 19.3863C140.616 19.2494 140.539 19.0637 140.539 18.8701C140.539 18.6765 140.616 18.4908 140.753 18.3539C140.89 18.217 141.075 18.1401 141.269 18.1401C141.463 18.1401 141.648 18.217 141.785 18.3539C141.922 18.4908 141.999 18.6765 141.999 18.8701Z" fill="url(#paint16_linear)"/>
<path fill-rule="evenodd" clip-rule="evenodd" d="M141.999 23.4002C141.999 23.5947 141.922 23.7814 141.786 23.9199C141.649 24.0584 141.464 24.1375 141.269 24.1402C141.075 24.1375 140.889 24.0584 140.752 23.9199C140.616 23.7814 140.539 23.5947 140.539 23.4002C140.539 23.2066 140.616 23.0209 140.753 22.884C140.89 22.7471 141.075 22.6702 141.269 22.6702C141.463 22.6702 141.648 22.7471 141.785 22.884C141.922 23.0209 141.999 23.2066 141.999 23.4002Z" fill="url(#paint17_linear)"/>
<path fill-rule="evenodd" clip-rule="evenodd" d="M146.54 0.730072C146.537 0.924572 146.458 1.11027 146.32 1.24687C146.181 1.38347 145.995 1.46007 145.8 1.46007C145.606 1.46007 145.421 1.38317 145.284 1.24627C145.147 1.10937 145.07 0.923672 145.07 0.730072C145.07 0.536472 145.147 0.350772 145.284 0.213872C145.421 0.0769717 145.606 7.22186e-05 145.8 7.22186e-05C145.897 -0.00128778 145.993 0.0165721 146.083 0.0526721C146.172 0.0887721 146.254 0.142373 146.323 0.210273C146.392 0.278173 146.446 0.359172 146.484 0.448372C146.521 0.537572 146.54 0.633372 146.54 0.730072Z" fill="url(#paint18_linear)"/>
<path fill-rule="evenodd" clip-rule="evenodd" d="M146.54 5.26016C146.54 5.35686 146.521 5.45256 146.484 5.54176C146.446 5.63106 146.392 5.71196 146.323 5.77986C146.254 5.84776 146.172 5.90135 146.083 5.93745C145.993 5.97355 145.897 5.99145 145.8 5.99015C145.606 5.99015 145.421 5.91326 145.284 5.77626C145.147 5.63936 145.07 5.45376 145.07 5.26016C145.08 5.07176 145.163 4.89475 145.301 4.76615C145.439 4.63745 145.621 4.56725 145.81 4.57015C146.005 4.57005 146.191 4.64666 146.33 4.78336C146.468 4.91996 146.547 5.10556 146.55 5.30016L146.54 5.26016Z" fill="url(#paint19_linear)"/>
<path fill-rule="evenodd" clip-rule="evenodd" d="M146.54 9.80018C146.544 9.89898 146.528 9.99758 146.493 10.0902C146.459 10.1829 146.406 10.2676 146.338 10.3393C146.27 10.4111 146.188 10.4685 146.097 10.5082C146.007 10.5478 145.909 10.5689 145.81 10.5702C145.714 10.5702 145.619 10.5513 145.531 10.5146C145.442 10.4779 145.362 10.4241 145.294 10.3563C145.226 10.2886 145.172 10.2081 145.136 10.1195C145.099 10.0309 145.08 9.93598 145.08 9.84018C145.08 9.74428 145.099 9.64938 145.136 9.56078C145.172 9.47218 145.226 9.39178 145.294 9.32398C145.362 9.25618 145.442 9.20238 145.531 9.16568C145.619 9.12898 145.714 9.11018 145.81 9.11018C145.907 9.10878 146.003 9.12668 146.092 9.16278C146.182 9.19888 146.264 9.25248 146.333 9.32038C146.402 9.38828 146.456 9.46918 146.494 9.55848C146.531 9.64768 146.55 9.74338 146.55 9.84018L146.54 9.80018Z" fill="url(#paint20_linear)"/>
<path fill-rule="evenodd" clip-rule="evenodd" d="M146.541 14.3301C146.541 14.5263 146.463 14.7147 146.324 14.8534C146.185 14.9922 145.997 15.0702 145.801 15.0702C145.606 15.0676 145.421 14.9884 145.284 14.8499C145.148 14.7114 145.071 14.5246 145.071 14.3301C145.067 14.2309 145.083 14.132 145.119 14.0392C145.154 13.9465 145.208 13.862 145.277 13.7908C145.347 13.7197 145.43 13.6634 145.521 13.6255C145.613 13.5876 145.712 13.5687 145.811 13.5702C146.005 13.5702 146.192 13.6468 146.331 13.7834C146.469 13.92 146.548 14.1057 146.551 14.3002L146.541 14.3301Z" fill="url(#paint21_linear)"/>
<path fill-rule="evenodd" clip-rule="evenodd" d="M146.54 18.8701C146.53 19.0576 146.449 19.2343 146.313 19.3643C146.178 19.4942 145.998 19.5678 145.81 19.5701C145.714 19.5701 145.619 19.5512 145.531 19.5145C145.442 19.4778 145.362 19.424 145.294 19.3563C145.226 19.2885 145.172 19.208 145.136 19.1194C145.099 19.0309 145.08 18.9359 145.08 18.8401C145.08 18.7442 145.099 18.6493 145.136 18.5607C145.172 18.4722 145.226 18.3917 145.294 18.3239C145.362 18.2561 145.442 18.2023 145.531 18.1656C145.619 18.129 145.714 18.1101 145.81 18.1101C146.005 18.1101 146.191 18.1866 146.33 18.3233C146.468 18.4599 146.547 18.6456 146.55 18.8401L146.54 18.8701Z" fill="url(#paint22_linear)"/>
<path fill-rule="evenodd" clip-rule="evenodd" d="M146.54 23.4002C146.54 23.5964 146.462 23.7847 146.323 23.9234C146.185 24.0622 145.996 24.1402 145.8 24.1402C145.606 24.1375 145.42 24.0584 145.283 23.9199C145.147 23.7814 145.07 23.5947 145.07 23.4002C145.07 23.2066 145.147 23.0209 145.284 22.884C145.421 22.7471 145.606 22.6702 145.8 22.6702C145.995 22.6702 146.181 22.7467 146.32 22.8834C146.458 23.02 146.537 23.2057 146.54 23.4002Z" fill="url(#paint23_linear)"/>
<path fill-rule="evenodd" clip-rule="evenodd" d="M151.069 0.73C151.069 0.9236 150.992 1.1092 150.855 1.2462C150.718 1.3831 150.533 1.46 150.339 1.46C150.145 1.46 149.96 1.3831 149.823 1.2462C149.686 1.1092 149.609 0.9236 149.609 0.73C149.609 0.5364 149.686 0.350699 149.823 0.213799C149.96 0.0768995 150.145 0 150.339 0C150.533 0 150.718 0.0768995 150.855 0.213799C150.992 0.350699 151.069 0.5364 151.069 0.73Z" fill="url(#paint24_linear)"/>
<path fill-rule="evenodd" clip-rule="evenodd" d="M151.069 5.26003C151.069 5.45363 150.992 5.63923 150.855 5.77613C150.718 5.91313 150.533 5.99003 150.339 5.99003C150.145 5.99003 149.96 5.91313 149.823 5.77613C149.686 5.63923 149.609 5.45363 149.609 5.26003C149.609 5.06643 149.686 4.88073 149.823 4.74383C149.96 4.60693 150.145 4.53003 150.339 4.53003C150.533 4.53003 150.718 4.60693 150.855 4.74383C150.992 4.88073 151.069 5.06643 151.069 5.26003Z" fill="url(#paint25_linear)"/>
<path fill-rule="evenodd" clip-rule="evenodd" d="M151.069 9.80007C151.069 9.99367 150.992 10.1794 150.855 10.3163C150.718 10.4532 150.533 10.5301 150.339 10.5301C150.145 10.5301 149.96 10.4532 149.823 10.3163C149.686 10.1794 149.609 9.99367 149.609 9.80007C149.609 9.60647 149.686 9.42077 149.823 9.28387C149.96 9.14697 150.145 9.07007 150.339 9.07007C150.533 9.07007 150.718 9.14697 150.855 9.28387C150.992 9.42077 151.069 9.60647 151.069 9.80007Z" fill="url(#paint26_linear)"/>
<path fill-rule="evenodd" clip-rule="evenodd" d="M151.069 14.3301C151.069 14.5246 150.992 14.7113 150.856 14.8498C150.719 14.9883 150.534 15.0674 150.339 15.0701C150.145 15.0674 149.959 14.9883 149.822 14.8498C149.686 14.7113 149.609 14.5246 149.609 14.3301C149.609 14.1365 149.686 13.9508 149.823 13.8139C149.96 13.677 150.145 13.6001 150.339 13.6001C150.533 13.6001 150.718 13.677 150.855 13.8139C150.992 13.9508 151.069 14.1365 151.069 14.3301Z" fill="url(#paint27_linear)"/>
<path fill-rule="evenodd" clip-rule="evenodd" d="M151.069 18.8701C151.069 19.0637 150.992 19.2494 150.855 19.3863C150.718 19.5232 150.533 19.6001 150.339 19.6001C150.145 19.6001 149.96 19.5232 149.823 19.3863C149.686 19.2494 149.609 19.0637 149.609 18.8701C149.609 18.6765 149.686 18.4908 149.823 18.3539C149.96 18.217 150.145 18.1401 150.339 18.1401C150.533 18.1401 150.718 18.217 150.855 18.3539C150.992 18.4908 151.069 18.6765 151.069 18.8701Z" fill="url(#paint28_linear)"/>
<path fill-rule="evenodd" clip-rule="evenodd" d="M151.069 23.4002C151.069 23.5947 150.992 23.7814 150.856 23.9199C150.719 24.0584 150.534 24.1375 150.339 24.1402C150.145 24.1375 149.959 24.0584 149.822 23.9199C149.686 23.7814 149.609 23.5947 149.609 23.4002C149.609 23.2066 149.686 23.0209 149.823 22.884C149.96 22.7471 150.145 22.6702 150.339 22.6702C150.533 22.6702 150.718 22.7471 150.855 22.884C150.992 23.0209 151.069 23.2066 151.069 23.4002Z" fill="url(#paint29_linear)"/>
<path d="M25.1095 78.22C24.8169 78.22 24.536 78.1044 24.3281 77.8984C24.1203 77.6924 24.0021 77.4126 23.9995 77.12V76.12C24.0021 75.8273 24.1203 75.5476 24.3281 75.3416C24.536 75.1356 24.8169 75.02 25.1095 75.02C25.4022 75.02 25.683 75.1356 25.8909 75.3416C26.0988 75.5476 26.2169 75.8273 26.2195 76.12V77.12C26.2169 77.4126 26.0988 77.6924 25.8909 77.8984C25.683 78.1044 25.4022 78.22 25.1095 78.22Z" fill="url(#paint30_linear)" fill-opacity="0.5"/>
<path d="M25.1095 71.23C24.8169 71.23 24.536 71.1145 24.3281 70.9084C24.1203 70.7024 24.0021 70.4227 23.9995 70.13V69.13C23.9995 68.8356 24.1164 68.5533 24.3246 68.3451C24.5328 68.137 24.8151 68.02 25.1095 68.02C25.4039 68.02 25.6862 68.137 25.8944 68.3451C26.1026 68.5533 26.2195 68.8356 26.2195 69.13V70.13C26.2169 70.4227 26.0988 70.7024 25.8909 70.9084C25.683 71.1145 25.4022 71.23 25.1095 71.23Z" fill="url(#paint31_linear)" fill-opacity="0.5"/>
<path d="M29.1098 74.22H28.1098C27.8172 74.2174 27.5374 74.0993 27.3314 73.8914C27.1254 73.6835 27.0098 73.4027 27.0098 73.11C27.0098 72.8174 27.1254 72.5365 27.3314 72.3286C27.5374 72.1208 27.8172 72.0026 28.1098 72H29.1098C29.4042 72 29.6865 72.117 29.8947 72.3251C30.1029 72.5333 30.2198 72.8156 30.2198 73.11C30.2198 73.4044 30.1029 73.6867 29.8947 73.8949C29.6865 74.1031 29.4042 74.22 29.1098 74.22Z" fill="url(#paint32_linear)" fill-opacity="0.5"/>
<path d="M22.1295 74.22H21.1295C20.8351 74.22 20.5528 74.1031 20.3446 73.8949C20.1365 73.6867 20.0195 73.4044 20.0195 73.11C20.0195 72.8156 20.1365 72.5333 20.3446 72.3251C20.5528 72.117 20.8351 72 21.1295 72H22.1295C22.4222 72.0026 22.7019 72.1208 22.9079 72.3286C23.114 72.5365 23.2295 72.8174 23.2295 73.11C23.2295 73.4027 23.114 73.6835 22.9079 73.8914C22.7019 74.0993 22.4222 74.2174 22.1295 74.22Z" fill="url(#paint33_linear)" fill-opacity="0.5"/>
<path d="M142.031 87.0071H125C127.28 87.063 129.446 87.9831 131.037 89.5707C132.629 91.1583 133.518 93.2877 133.515 95.504C133.516 96.6231 133.744 97.731 134.186 98.7643C134.628 99.7977 135.276 100.736 136.091 101.526C136.907 102.316 137.875 102.941 138.94 103.367C140.004 103.793 141.145 104.01 142.297 104.007C144.615 104.004 146.837 103.106 148.475 101.512C150.112 99.9179 151.032 97.757 151.032 95.504C151.032 93.2516 150.112 91.0913 148.474 89.498C146.836 87.9048 144.614 87.0088 142.297 87.0071H142.063" fill="url(#paint34_linear)"/>
</g>
<path d="M31.779 55.4712C32.1025 55.4675 32.4145 55.5915 32.647 55.8165C32.8796 56.0414 33.014 56.349 33.0211 56.6725V59.403C33.0211 59.7324 32.8903 60.0484 32.6573 60.2814C32.4244 60.5143 32.1084 60.6453 31.779 60.6453H20.4477C20.2845 60.6453 20.1229 60.6131 19.9722 60.5507C19.8215 60.4883 19.6846 60.3968 19.5693 60.2814C19.4539 60.166 19.3624 60.0291 19.3 59.8783C19.2375 59.7277 19.2053 59.566 19.2053 59.403V57.5599C19.2137 57.1564 19.3748 56.771 19.6559 56.4814C21.0211 55.2117 22.9596 53.2868 24.6387 51.5257C26.318 49.7645 27.2873 48.6314 27.2873 47.7987C27.2988 47.581 27.2648 47.3633 27.1877 47.1595C27.1105 46.9557 26.9917 46.7703 26.8388 46.6149C26.6861 46.4595 26.5026 46.3377 26.3001 46.257C26.0977 46.1765 25.8805 46.1389 25.6627 46.1467C25.2827 46.1259 24.9068 46.2348 24.5968 46.4555C24.2868 46.6763 24.0607 46.9959 23.9561 47.3618C23.9079 47.5428 23.7912 47.698 23.6309 47.7948C23.4705 47.8915 23.2787 47.9223 23.0961 47.8806L19.7651 47.0888C19.6346 47.0622 19.5112 47.0088 19.4026 46.9317C19.294 46.8546 19.2028 46.7558 19.1346 46.6414C19.0665 46.5269 19.023 46.3994 19.007 46.2673C18.9909 46.1352 19.0027 46.0011 19.0414 45.8737C20.0381 42.3515 23.0416 41 26.1269 41C30.4274 41 32.8573 43.7303 32.8573 47.116C32.8573 49.71 31.1781 51.5257 27.2873 55.4712H31.779Z" fill="black"/>
<path d="M51.7387 51.0068C51.7387 56.4676 49.0901 61 43.3017 61C37.5133 61 34.8374 56.454 34.8374 51.0068C34.8374 45.5596 37.5677 41.0271 43.3017 41.0271C49.0355 41.0271 51.7387 45.546 51.7387 51.0068ZM46.2779 51.0068C46.2779 48.5767 45.4859 46.2832 43.3017 46.2832C41.1173 46.2832 40.2982 48.5767 40.2982 51.0068C40.2982 53.4368 41.1309 55.7167 43.3017 55.7167C45.4723 55.7167 46.2779 53.4232 46.2779 51.0068Z" fill="black"/>
<path d="M59.1242 41.355H61.9366C62.0962 41.355 62.2541 41.3863 62.4016 41.4474C62.5489 41.5085 62.6829 41.598 62.7957 41.7109C62.9086 41.8237 62.9981 41.9575 63.0592 42.105C63.1202 42.2525 63.1516 42.4104 63.1516 42.5699V59.4029C63.1535 59.5643 63.1235 59.7243 63.0633 59.8742C63.0032 60.0239 62.9142 60.1604 62.8013 60.2757C62.6885 60.391 62.5541 60.4831 62.4057 60.5465C62.2573 60.6099 62.0979 60.6435 61.9366 60.6452H58.6738C58.3443 60.6452 58.0283 60.5143 57.7953 60.2814C57.5624 60.0484 57.4313 59.7324 57.4313 59.4029V47.4984L55.5883 48.7407C55.4804 48.8151 55.3584 48.8666 55.2298 48.8917C55.1011 48.917 54.9685 48.9155 54.8404 48.8873C54.7124 48.8592 54.5915 48.8049 54.4853 48.728C54.3791 48.6511 54.2899 48.5533 54.2231 48.4403L52.858 46.3379C52.7873 46.2288 52.7391 46.1067 52.7159 45.9788C52.6928 45.8508 52.6952 45.7196 52.7232 45.5926C52.7511 45.4657 52.8039 45.3455 52.8786 45.2391C52.9533 45.1327 53.0483 45.0422 53.1583 44.9728L58.2369 41.5597C58.503 41.3977 58.8141 41.3259 59.1242 41.355Z" fill="black"/>
<path d="M90.5505 48.495C90.5505 53.0683 87.4926 55.1571 82.6461 55.1571H80.5162V59.4028C80.5162 59.7324 80.3854 60.0484 80.1525 60.2813C79.9195 60.5143 79.6034 60.6453 79.2739 60.6453H76.0247C75.8634 60.6434 75.704 60.6098 75.5556 60.5465C75.4072 60.4831 75.2728 60.3911 75.1599 60.2757C75.0471 60.1604 74.958 60.0239 74.898 59.8741C74.8378 59.7244 74.8078 59.5642 74.8097 59.4028V42.5699C74.8097 42.2477 74.9377 41.9386 75.1656 41.7108C75.3934 41.4829 75.7024 41.355 76.0247 41.355H82.7142C87.9703 41.355 90.5505 44.1946 90.5505 48.495ZM84.7893 48.495C84.802 48.2184 84.7538 47.9425 84.6477 47.6869C84.5416 47.4312 84.3805 47.202 84.1759 47.0156C83.9713 46.8293 83.7281 46.6903 83.4636 46.6086C83.1992 46.5268 82.9201 46.5043 82.6461 46.5427H80.5162V50.4745H82.7142C82.9849 50.5003 83.2582 50.4675 83.5152 50.3784C83.7721 50.2894 84.0069 50.1462 84.2037 49.9584C84.4005 49.7707 84.5546 49.5428 84.6556 49.2904C84.7567 49.0379 84.8023 48.7666 84.7893 48.495Z" fill="black"/>
<path d="M111.917 51.007C111.907 52.9683 111.315 54.8822 110.217 56.5075C109.119 58.1327 107.565 59.3963 105.75 60.1388C103.934 60.8812 101.94 61.0691 100.018 60.6789C98.0957 60.2888 96.3323 59.3378 94.9502 57.9463C93.5682 56.5547 92.6295 54.785 92.2525 52.8603C91.8755 50.9356 92.0771 48.9423 92.8319 47.1322C93.5869 45.3221 94.8612 43.7762 96.4939 42.6897C98.1267 41.6032 100.045 41.0247 102.006 41.0273C103.323 40.9912 104.634 41.225 105.857 41.7147C107.081 42.2043 108.191 42.9392 109.119 43.8742C110.048 44.8091 110.775 45.9243 111.256 47.151C111.738 48.3777 111.962 49.6901 111.917 51.007ZM106.224 51.007C106.176 50.1849 105.889 49.3946 105.397 48.734C104.905 48.0734 104.231 47.5711 103.457 47.2891C102.683 47.0072 101.844 46.9579 101.043 47.1474C100.241 47.3368 99.5127 47.7568 98.9471 48.3554C98.3814 48.954 98.0033 49.7051 97.8595 50.5159C97.7156 51.3268 97.8124 52.1621 98.1376 52.9187C98.4629 53.6753 99.0023 54.3202 99.6898 54.7739C100.377 55.2274 101.182 55.4698 102.006 55.4713C102.586 55.491 103.165 55.3871 103.702 55.1664C104.239 54.9457 104.723 54.6132 105.122 54.1909C105.521 53.7687 105.826 53.2665 106.016 52.7175C106.206 52.1685 106.277 51.5855 106.224 51.007Z" fill="black"/>
<path d="M133.43 51.007C133.419 52.9676 132.828 54.8811 131.731 56.506C130.634 58.131 129.08 59.3946 127.265 60.1375C125.451 60.8802 123.457 61.0691 121.535 60.68C119.614 60.2909 117.85 59.3413 116.468 57.9511C115.085 56.5609 114.145 54.7924 113.767 52.8687C113.388 50.9448 113.588 48.9521 114.341 47.1417C115.094 45.3314 116.366 43.7845 117.997 42.6963C119.628 41.6081 121.544 41.0273 123.505 41.0273C124.823 40.9912 126.134 41.2252 127.358 41.7145C128.582 42.204 129.693 42.9387 130.623 43.8735C131.553 44.8082 132.281 45.9232 132.764 47.1501C133.247 48.3768 133.473 49.6893 133.43 51.007ZM127.723 51.007C127.675 50.1847 127.388 49.3946 126.896 48.734C126.404 48.0734 125.73 47.5711 124.956 47.2891C124.182 47.0072 123.343 46.9579 122.541 47.1474C121.74 47.3368 121.012 47.7567 120.446 48.3554C119.88 48.954 119.502 49.705 119.358 50.5159C119.215 51.3268 119.311 52.1621 119.637 52.9187C119.962 53.6753 120.501 54.3202 121.189 54.7737C121.876 55.2274 122.681 55.4698 123.505 55.4711C124.085 55.491 124.664 55.387 125.201 55.1663C125.738 54.9455 126.223 54.613 126.621 54.1909C127.02 53.7687 127.325 53.2664 127.515 52.7175C127.705 52.1685 127.776 51.5855 127.723 51.007Z" fill="black"/>
<path d="M147.411 55.4713C147.73 55.4748 148.032 55.6026 148.257 55.8272C148.482 56.0516 148.609 56.3551 148.613 56.6727V59.403C148.617 59.5637 148.588 59.7236 148.53 59.8733C148.471 60.0229 148.383 60.1596 148.272 60.2752C148.159 60.3906 148.026 60.4829 147.879 60.5464C147.731 60.61 147.572 60.6436 147.411 60.6455H136.954C136.792 60.6455 136.63 60.6132 136.481 60.5506C136.33 60.488 136.194 60.3963 136.08 60.2807C135.966 60.1651 135.875 60.0281 135.814 59.8774C135.754 59.7268 135.723 59.5656 135.726 59.403V42.5701C135.726 42.4094 135.757 42.2503 135.818 42.102C135.88 41.9536 135.972 41.8191 136.085 41.7061C136.201 41.5931 136.335 41.5038 136.485 41.4437C136.634 41.3834 136.793 41.3533 136.954 41.3551H140.217C140.537 41.3586 140.845 41.4878 141.072 41.7149C141.299 41.942 141.429 42.249 141.431 42.5701V55.4713H147.411Z" fill="black"/>
<defs>
<linearGradient id="paint0_linear" x1="83.9999" y1="0.148808" x2="83.9999" y2="102" gradientUnits="userSpaceOnUse">
<stop stop-color="#F9B233"/>
<stop offset="1" stop-color="#D97213"/>
</linearGradient>
<linearGradient id="paint1_linear" x1="83.9902" y1="0" x2="83.9902" y2="101.931" gradientUnits="userSpaceOnUse">
<stop stop-color="#6FD74A"/>
<stop offset="1" stop-color="#24A240"/>
</linearGradient>
<linearGradient id="paint2_linear" x1="-9.01" y1="15" x2="43.89" y2="15" gradientUnits="userSpaceOnUse">
<stop stop-color="#F8AE31"/>
<stop offset="0.04" stop-color="#FAB622"/>
<stop offset="0.12" stop-color="#FBBF0F"/>
<stop offset="0.2" stop-color="#FDC504"/>
<stop offset="0.28" stop-color="#FDC700"/>
<stop offset="0.67" stop-color="#F8AE31"/>
<stop offset="0.89" stop-color="#FCC600"/>
<stop offset="1" stop-color="#F8AE31"/>
</linearGradient>
<linearGradient id="paint3_linear" x1="-37195.2" y1="-296.026" x2="-34396.8" y2="-296.026" gradientUnits="userSpaceOnUse">
<stop stop-color="#F8AE31"/>
<stop offset="0.04" stop-color="#FAB622"/>
<stop offset="0.12" stop-color="#FBBF0F"/>
<stop offset="0.2" stop-color="#FDC504"/>
<stop offset="0.28" stop-color="#FDC700"/>
<stop offset="0.67" stop-color="#F8AE31"/>
<stop offset="0.89" stop-color="#FCC600"/>
<stop offset="1" stop-color="#F8AE31"/>
</linearGradient>
<linearGradient id="paint4_linear" x1="-36820.1" y1="-276.515" x2="-34022.2" y2="-276.515" gradientUnits="userSpaceOnUse">
<stop stop-color="#F8AE31"/>
<stop offset="0.04" stop-color="#FAB622"/>
<stop offset="0.12" stop-color="#FBBF0F"/>
<stop offset="0.2" stop-color="#FDC504"/>
<stop offset="0.28" stop-color="#FDC700"/>
<stop offset="0.67" stop-color="#F8AE31"/>
<stop offset="0.89" stop-color="#FCC600"/>
<stop offset="1" stop-color="#F8AE31"/>
</linearGradient>
<linearGradient id="paint5_linear" x1="-35549.9" y1="-190.391" x2="-32888.4" y2="-190.391" gradientUnits="userSpaceOnUse">
<stop stop-color="#F8AE31"/>
<stop offset="0.04" stop-color="#FAB622"/>
<stop offset="0.12" stop-color="#FBBF0F"/>
<stop offset="0.2" stop-color="#FDC504"/>
<stop offset="0.28" stop-color="#FDC700"/>
<stop offset="0.67" stop-color="#F8AE31"/>
<stop offset="0.89" stop-color="#FCC600"/>
<stop offset="1" stop-color="#F8AE31"/>
</linearGradient>
<linearGradient id="paint6_linear" x1="136" y1="0.730072" x2="137.47" y2="0.730072" gradientUnits="userSpaceOnUse">
<stop stop-color="#F9B233"/>
<stop offset="1" stop-color="#D97213"/>
</linearGradient>
<linearGradient id="paint7_linear" x1="-714.835" y1="-80.6066" x2="-712.674" y2="-80.6066" gradientUnits="userSpaceOnUse">
<stop stop-color="#F9B233"/>
<stop offset="1" stop-color="#D97213"/>
</linearGradient>
<linearGradient id="paint8_linear" x1="-714.835" y1="-69.4377" x2="-712.674" y2="-69.4377" gradientUnits="userSpaceOnUse">
<stop stop-color="#F9B233"/>
<stop offset="1" stop-color="#D97213"/>
</linearGradient>
<linearGradient id="paint9_linear" x1="-714.835" y1="-58.7829" x2="-712.674" y2="-58.7829" gradientUnits="userSpaceOnUse">
<stop stop-color="#F9B233"/>
<stop offset="1" stop-color="#D97213"/>
</linearGradient>
<linearGradient id="paint10_linear" x1="-714.835" y1="-47.1218" x2="-712.674" y2="-47.1218" gradientUnits="userSpaceOnUse">
<stop stop-color="#F9B233"/>
<stop offset="1" stop-color="#D97213"/>
</linearGradient>
<linearGradient id="paint11_linear" x1="-714.835" y1="-36.3797" x2="-712.674" y2="-36.3797" gradientUnits="userSpaceOnUse">
<stop stop-color="#F9B233"/>
<stop offset="1" stop-color="#D97213"/>
</linearGradient>
<linearGradient id="paint12_linear" x1="-697.912" y1="-91.7464" x2="-695.78" y2="-91.7464" gradientUnits="userSpaceOnUse">
<stop stop-color="#F9B233"/>
<stop offset="1" stop-color="#D97213"/>
</linearGradient>
<linearGradient id="paint13_linear" x1="-697.912" y1="-80.6026" x2="-695.78" y2="-80.6026" gradientUnits="userSpaceOnUse">
<stop stop-color="#F9B233"/>
<stop offset="1" stop-color="#D97213"/>
</linearGradient>
<linearGradient id="paint14_linear" x1="-697.912" y1="-69.4341" x2="-695.78" y2="-69.4341" gradientUnits="userSpaceOnUse">
<stop stop-color="#F9B233"/>
<stop offset="1" stop-color="#D97213"/>
</linearGradient>
<linearGradient id="paint15_linear" x1="-697.912" y1="-58.7829" x2="-695.78" y2="-58.7829" gradientUnits="userSpaceOnUse">
<stop stop-color="#F9B233"/>
<stop offset="1" stop-color="#D97213"/>
</linearGradient>
<linearGradient id="paint16_linear" x1="-697.912" y1="-47.1218" x2="-695.78" y2="-47.1218" gradientUnits="userSpaceOnUse">
<stop stop-color="#F9B233"/>
<stop offset="1" stop-color="#D97213"/>
</linearGradient>
<linearGradient id="paint17_linear" x1="-697.912" y1="-36.3797" x2="-695.78" y2="-36.3797" gradientUnits="userSpaceOnUse">
<stop stop-color="#F9B233"/>
<stop offset="1" stop-color="#D97213"/>
</linearGradient>
<linearGradient id="paint18_linear" x1="-692.423" y1="-91.7506" x2="-690.262" y2="-91.7506" gradientUnits="userSpaceOnUse">
<stop stop-color="#F9B233"/>
<stop offset="1" stop-color="#D97213"/>
</linearGradient>
<linearGradient id="paint19_linear" x1="-698.131" y1="-78.239" x2="-695.955" y2="-78.239" gradientUnits="userSpaceOnUse">
<stop stop-color="#F9B233"/>
<stop offset="1" stop-color="#D97213"/>
</linearGradient>
<linearGradient id="paint20_linear" x1="-692.422" y1="-69.3979" x2="-690.261" y2="-69.3979" gradientUnits="userSpaceOnUse">
<stop stop-color="#F9B233"/>
<stop offset="1" stop-color="#D97213"/>
</linearGradient>
<linearGradient id="paint21_linear" x1="-698.485" y1="-60.2938" x2="-696.309" y2="-60.2938" gradientUnits="userSpaceOnUse">
<stop stop-color="#F9B233"/>
<stop offset="1" stop-color="#D97213"/>
</linearGradient>
<linearGradient id="paint22_linear" x1="-692.422" y1="-47.1519" x2="-690.261" y2="-47.1519" gradientUnits="userSpaceOnUse">
<stop stop-color="#F9B233"/>
<stop offset="1" stop-color="#D97213"/>
</linearGradient>
<linearGradient id="paint23_linear" x1="-692.423" y1="-36.3797" x2="-690.262" y2="-36.3797" gradientUnits="userSpaceOnUse">
<stop stop-color="#F9B233"/>
<stop offset="1" stop-color="#D97213"/>
</linearGradient>
<linearGradient id="paint24_linear" x1="-675.598" y1="-91.7464" x2="-673.467" y2="-91.7464" gradientUnits="userSpaceOnUse">
<stop stop-color="#F9B233"/>
<stop offset="1" stop-color="#D97213"/>
</linearGradient>
<linearGradient id="paint25_linear" x1="-675.598" y1="-80.6026" x2="-673.467" y2="-80.6026" gradientUnits="userSpaceOnUse">
<stop stop-color="#F9B233"/>
<stop offset="1" stop-color="#D97213"/>
</linearGradient>
<linearGradient id="paint26_linear" x1="-675.598" y1="-69.4341" x2="-673.467" y2="-69.4341" gradientUnits="userSpaceOnUse">
<stop stop-color="#F9B233"/>
<stop offset="1" stop-color="#D97213"/>
</linearGradient>
<linearGradient id="paint27_linear" x1="-675.598" y1="-58.7829" x2="-673.467" y2="-58.7829" gradientUnits="userSpaceOnUse">
<stop stop-color="#F9B233"/>
<stop offset="1" stop-color="#D97213"/>
</linearGradient>
<linearGradient id="paint28_linear" x1="-675.598" y1="-47.1218" x2="-673.467" y2="-47.1218" gradientUnits="userSpaceOnUse">
<stop stop-color="#F9B233"/>
<stop offset="1" stop-color="#D97213"/>
</linearGradient>
<linearGradient id="paint29_linear" x1="-675.598" y1="-36.3797" x2="-673.467" y2="-36.3797" gradientUnits="userSpaceOnUse">
<stop stop-color="#F9B233"/>
<stop offset="1" stop-color="#D97213"/>
</linearGradient>
<linearGradient id="paint30_linear" x1="25.1095" y1="75.02" x2="25.1095" y2="78.22" gradientUnits="userSpaceOnUse">
<stop stop-color="#F4A82E"/>
<stop offset="1" stop-color="#FF8C1A"/>
</linearGradient>
<linearGradient id="paint31_linear" x1="25.1095" y1="68.02" x2="25.1095" y2="71.23" gradientUnits="userSpaceOnUse">
<stop stop-color="#F4A82E"/>
<stop offset="1" stop-color="#FF8C1A"/>
</linearGradient>
<linearGradient id="paint32_linear" x1="28.6148" y1="72" x2="28.6148" y2="74.22" gradientUnits="userSpaceOnUse">
<stop stop-color="#F4A82E"/>
<stop offset="1" stop-color="#FF8C1A"/>
</linearGradient>
<linearGradient id="paint33_linear" x1="21.6245" y1="72" x2="21.6245" y2="74.22" gradientUnits="userSpaceOnUse">
<stop stop-color="#F4A82E"/>
<stop offset="1" stop-color="#FF8C1A"/>
</linearGradient>
<linearGradient id="paint34_linear" x1="138.016" y1="87.0071" x2="138.016" y2="104.007" gradientUnits="userSpaceOnUse">
<stop stop-color="#F4A92E"/>
<stop offset="1" stop-color="#DB7615"/>
</linearGradient>
</defs>
</svg>
