<svg width="24" height="24" viewBox="0 0 24 24" fill="none" xmlns="http://www.w3.org/2000/svg">
<g clip-path="url(#clip0)">
<path d="M13.9695 21.3164C13.7811 21.3672 13.5889 21.4125 13.3982 21.4518C12.8991 21.5534 12.5771 22.0404 12.679 22.5395C12.6847 22.568 12.6918 22.5951 12.7 22.6224C12.8361 23.0735 13.2963 23.3549 13.767 23.2589C13.9947 23.2123 14.2241 23.158 14.4491 23.0975C14.941 22.9652 15.2324 22.459 15.1 21.9671C14.9675 21.4745 14.4614 21.184 13.9695 21.3164Z" fill="#C85C5C"/>
<path d="M7.54051 20.8028C7.36239 20.7236 7.18469 20.6378 7.0123 20.5476C6.56053 20.3121 6.00362 20.4871 5.76804 20.9388C5.65175 21.161 5.63543 21.4089 5.70262 21.6314C5.77199 21.8608 5.92982 22.0634 6.1588 22.1829C6.36458 22.2901 6.57608 22.3926 6.78826 22.4872C7.25323 22.6948 7.79871 22.4863 8.00647 22.0214C8.21423 21.5561 8.00553 21.011 7.54051 20.8028Z" fill="#C85C5C"/>
<path d="M10.7121 21.6136C10.5181 21.598 10.3213 21.576 10.1281 21.5489C9.62375 21.477 9.15706 21.828 9.0854 22.3323C9.06595 22.4694 9.07786 22.6034 9.1153 22.7277C9.21583 23.0608 9.50186 23.3227 9.86916 23.3751C10.099 23.4075 10.3329 23.4336 10.5641 23.452C11.0719 23.4931 11.5166 23.1146 11.5575 22.6071C11.5983 22.0992 11.22 21.6545 10.7121 21.6136Z" fill="#C85C5C"/>
<path d="M16.94 19.9407C16.7798 20.051 16.6136 20.158 16.4463 20.259C16.0776 20.4811 15.9203 20.9204 16.0389 21.3144C16.0608 21.3865 16.092 21.4573 16.1326 21.525C16.3954 21.9613 16.9623 22.1014 17.3986 21.8388C17.5975 21.7188 17.7951 21.5912 17.9856 21.4602C18.4051 21.1714 18.5114 20.5971 18.2226 20.1777C17.9339 19.7579 17.3594 19.652 16.94 19.9407Z" fill="#C85C5C"/>
<path d="M20.5646 17.4465C20.1515 17.1486 19.5751 17.242 19.2772 17.6549C19.1634 17.8128 19.0429 17.9695 18.9196 18.1199C18.7173 18.3669 18.6648 18.6871 18.7503 18.9714C18.8016 19.1407 18.9017 19.2975 19.0486 19.4179C19.4427 19.7406 20.0237 19.6827 20.3464 19.2886C20.4936 19.1092 20.6374 18.9223 20.773 18.734C21.0709 18.3209 20.9777 17.7446 20.5646 17.4465Z" fill="#C85C5C"/>
<path d="M21.8558 14.0873C21.367 13.9445 20.8549 14.2253 20.7123 14.7142C20.6575 14.9015 20.5964 15.0895 20.5311 15.273C20.4617 15.4661 20.4607 15.6675 20.5159 15.8498C20.5974 16.1204 20.8017 16.3498 21.0876 16.4523C21.5672 16.6242 22.095 16.3751 22.2673 15.8958C22.3455 15.6772 22.4181 15.4534 22.4829 15.2306C22.6254 14.7419 22.3447 14.2296 21.8558 14.0873Z" fill="#C85C5C"/>
<path d="M23.5868 8.07824L22.3747 8.45486C21.4549 5.63599 19.5181 3.3196 16.8967 1.91277C16.6329 1.77106 16.3652 1.64084 16.0942 1.52118C16.0923 1.52024 16.0907 1.51946 16.0889 1.51827C16.0776 1.51348 16.0656 1.50901 16.0546 1.50412C13.6646 0.458358 11.0198 0.260116 8.48456 0.946682C8.46464 0.950582 8.44472 0.954326 8.42507 0.959891C8.3404 0.982981 8.25496 1.008 8.17066 1.03317C8.03227 1.07498 7.89306 1.12001 7.75649 1.16687C7.74032 1.17243 7.72508 1.17935 7.70938 1.18559C5.44624 1.96956 3.519 3.41498 2.1441 5.34622C2.13921 5.35288 2.1337 5.3586 2.12907 5.36521C1.99469 5.55393 1.86452 5.74963 1.74158 5.94703C1.73389 5.95967 1.72749 5.97283 1.72016 5.98588C1.59753 6.18475 1.47969 6.38819 1.36808 6.59569C0.228558 8.71935 -0.206149 11.0922 0.0904337 13.436C0.0911098 13.4414 0.0917339 13.4464 0.0922019 13.4517C0.0926699 13.4554 0.093502 13.4593 0.0943861 13.4632C0.174993 14.0894 0.307397 14.7135 0.493314 15.3299C0.981534 16.9486 1.79619 18.404 2.9145 19.6561C3.25372 20.0358 3.8368 20.0686 4.21674 19.7294C4.59648 19.39 4.62961 18.8068 4.29012 18.4272C3.73185 17.8024 3.26464 17.1162 2.89068 16.3769C2.88667 16.3678 2.88314 16.3585 2.87877 16.3498C2.79083 16.1754 2.70726 15.9966 2.62987 15.8176C2.62946 15.8162 2.62899 15.8154 2.62837 15.8142C2.48754 15.4848 2.36475 15.1458 2.2595 14.7974C1.05075 10.7896 2.59227 6.59585 5.79124 4.25106C5.83856 4.21663 5.88583 4.18189 5.93363 4.14851C6.75488 3.56928 7.68119 3.10997 8.69497 2.80429C9.7152 2.49673 10.7469 2.36755 11.7574 2.39782C11.7737 2.39855 11.7896 2.39902 11.8057 2.39948C11.8674 2.40136 11.9289 2.40463 11.9902 2.40806C12.0151 2.40937 12.0398 2.41072 12.0645 2.41228C15.2153 2.60938 18.1208 4.35933 19.7518 7.10856C19.7527 7.11012 19.7533 7.11189 19.7544 7.11345C19.7786 7.15427 19.8022 7.19504 19.8259 7.23633C19.8288 7.24096 19.8318 7.24507 19.8345 7.2498C20.1466 7.79705 20.4092 8.38267 20.6134 9.00241L19.4014 9.37924C19.0648 9.48382 19.0316 9.72601 19.3271 9.91749L21.9647 11.6259C22.2604 11.8176 22.6131 11.7079 22.7479 11.3828L23.9529 8.47987C24.0876 8.15453 23.9232 7.97371 23.5868 8.07824Z" fill="#C85C5C"/>
<path d="M8.07613 12.0252C7.18727 12.6837 6.581 13.2549 6.25785 13.7388C5.935 14.2226 5.74134 14.7391 5.67773 15.2883H11.2388V13.7774H8.34443C8.51438 13.6103 8.66223 13.4755 8.78818 13.3726C8.91419 13.269 9.1635 13.0888 9.53679 12.8308C10.1647 12.3879 10.5979 11.9813 10.8361 11.611C11.0741 11.241 11.1933 10.8527 11.1933 10.4461C11.1933 10.0639 11.0894 9.71871 10.8816 9.41058C10.6737 9.10277 10.3883 8.87436 10.0258 8.72568C9.66342 8.57721 9.15591 8.50269 8.50351 8.50269C7.87872 8.50269 7.38962 8.58095 7.03599 8.73744C6.68278 8.89366 6.40876 9.11806 6.21473 9.41058C6.0205 9.70368 5.88716 10.1109 5.81419 10.6325L7.67097 10.7827C7.7225 10.4067 7.8235 10.1442 7.97353 9.99558C8.12387 9.8469 8.31697 9.77248 8.55395 9.77248C8.78137 9.77248 8.9703 9.84467 9.12039 9.98882C9.27047 10.1327 9.34567 10.3065 9.34567 10.5099C9.34567 10.6981 9.26985 10.8967 9.11805 11.1062C8.96635 11.3155 8.61896 11.622 8.07613 12.0252Z" fill="#C85C5C"/>
<path d="M16.8311 15.2881V14.041H17.6683V12.6027H16.8311V8.50244H15.2155L11.8389 12.5165V14.041H15.2155V15.2881H16.8311ZM13.4315 12.6027L15.2155 10.5035V12.6027H13.4315Z" fill="#C85C5C"/>
<g clip-path="url(#clip1)">
<g filter="url(#filter0_iii)">
<path d="M13.9695 21.3164C13.7811 21.3672 13.5889 21.4125 13.3982 21.4518C12.8991 21.5534 12.5771 22.0404 12.679 22.5395C12.6847 22.568 12.6918 22.5951 12.7 22.6224C12.8361 23.0735 13.2963 23.3549 13.767 23.2589C13.9947 23.2123 14.2241 23.158 14.4491 23.0975C14.941 22.9652 15.2324 22.459 15.1 21.9671C14.9675 21.4745 14.4614 21.184 13.9695 21.3164Z" fill="#1E1E1E" fill-opacity="0.01"/>
<path d="M7.54051 20.8028C7.36239 20.7236 7.18469 20.6378 7.0123 20.5476C6.56053 20.3121 6.00362 20.4871 5.76804 20.9388C5.65175 21.161 5.63543 21.4089 5.70262 21.6314C5.77199 21.8608 5.92982 22.0634 6.1588 22.1829C6.36458 22.2901 6.57608 22.3926 6.78826 22.4872C7.25323 22.6948 7.79871 22.4863 8.00647 22.0214C8.21423 21.5561 8.00553 21.011 7.54051 20.8028Z" fill="#1E1E1E" fill-opacity="0.01"/>
<g filter="url(#filter1_iii)">
<path d="M10.7121 21.6136C10.5181 21.598 10.3213 21.576 10.1281 21.5489C9.62375 21.477 9.15706 21.828 9.0854 22.3323C9.06595 22.4694 9.07786 22.6034 9.1153 22.7277C9.21583 23.0608 9.50186 23.3227 9.86916 23.3751C10.099 23.4075 10.3329 23.4336 10.5641 23.452C11.0719 23.4931 11.5166 23.1146 11.5575 22.6071C11.5983 22.0992 11.22 21.6545 10.7121 21.6136Z" fill="#1E1E1E" fill-opacity="0.01"/>
</g>
<path d="M16.94 19.9407C16.7798 20.051 16.6136 20.158 16.4463 20.259C16.0776 20.4811 15.9203 20.9204 16.0389 21.3144C16.0608 21.3865 16.092 21.4573 16.1326 21.525C16.3954 21.9613 16.9623 22.1014 17.3986 21.8388C17.5975 21.7188 17.7951 21.5912 17.9856 21.4602C18.4051 21.1714 18.5114 20.5971 18.2226 20.1777C17.9339 19.7579 17.3594 19.652 16.94 19.9407Z" fill="#1E1E1E" fill-opacity="0.01"/>
<path d="M20.5646 17.4465C20.1515 17.1486 19.5751 17.242 19.2772 17.6549C19.1634 17.8128 19.0429 17.9695 18.9196 18.1199C18.7173 18.3669 18.6648 18.6871 18.7503 18.9714C18.8016 19.1407 18.9017 19.2975 19.0486 19.4179C19.4427 19.7406 20.0237 19.6827 20.3464 19.2886C20.4936 19.1092 20.6374 18.9223 20.773 18.734C21.0709 18.3209 20.9777 17.7446 20.5646 17.4465Z" fill="#1E1E1E" fill-opacity="0.01"/>
<path d="M21.8558 14.0873C21.367 13.9445 20.8549 14.2253 20.7123 14.7142C20.6575 14.9015 20.5964 15.0895 20.5311 15.273C20.4617 15.4661 20.4607 15.6675 20.5159 15.8498C20.5974 16.1204 20.8017 16.3498 21.0876 16.4523C21.5672 16.6242 22.095 16.3751 22.2673 15.8958C22.3455 15.6772 22.4181 15.4534 22.4829 15.2306C22.6254 14.7419 22.3447 14.2296 21.8558 14.0873Z" fill="#1E1E1E" fill-opacity="0.01"/>
<path d="M23.5868 8.07824L22.3747 8.45486C21.4549 5.63599 19.5181 3.3196 16.8967 1.91277C16.6329 1.77106 16.3652 1.64084 16.0942 1.52118C16.0923 1.52024 16.0907 1.51946 16.0889 1.51827C16.0776 1.51348 16.0656 1.50901 16.0546 1.50412C13.6646 0.458358 11.0198 0.260116 8.48456 0.946682C8.46464 0.950582 8.44472 0.954326 8.42507 0.959891C8.3404 0.982981 8.25496 1.008 8.17066 1.03317C8.03227 1.07498 7.89306 1.12001 7.75649 1.16687C7.74032 1.17243 7.72508 1.17935 7.70938 1.18559C5.44624 1.96956 3.519 3.41498 2.1441 5.34622C2.13921 5.35288 2.1337 5.3586 2.12907 5.36521C1.99469 5.55393 1.86452 5.74963 1.74158 5.94703C1.73389 5.95967 1.72749 5.97283 1.72016 5.98588C1.59753 6.18475 1.47969 6.38819 1.36808 6.59569C0.228558 8.71935 -0.206149 11.0922 0.0904337 13.436C0.0911098 13.4414 0.0917339 13.4464 0.0922019 13.4517C0.0926699 13.4554 0.093502 13.4593 0.0943861 13.4632C0.174993 14.0894 0.307397 14.7135 0.493314 15.3299C0.981534 16.9486 1.79619 18.404 2.9145 19.6561C3.25372 20.0358 3.8368 20.0686 4.21674 19.7294C4.59648 19.39 4.62961 18.8068 4.29012 18.4272C3.73185 17.8024 3.26464 17.1162 2.89068 16.3769C2.88667 16.3678 2.88314 16.3585 2.87877 16.3498C2.79083 16.1754 2.70726 15.9966 2.62987 15.8176C2.62946 15.8162 2.62899 15.8154 2.62837 15.8142C2.48754 15.4848 2.36475 15.1458 2.2595 14.7974C1.05075 10.7896 2.59227 6.59585 5.79124 4.25106C5.83856 4.21663 5.88583 4.18189 5.93363 4.14851C6.75488 3.56928 7.68119 3.10997 8.69497 2.80429C9.7152 2.49673 10.7469 2.36755 11.7574 2.39782C11.7737 2.39855 11.7896 2.39902 11.8057 2.39948C11.8674 2.40136 11.9289 2.40463 11.9902 2.40806C12.0151 2.40937 12.0398 2.41072 12.0645 2.41228C15.2153 2.60938 18.1208 4.35933 19.7518 7.10856C19.7527 7.11012 19.7533 7.11189 19.7544 7.11345C19.7786 7.15427 19.8022 7.19504 19.8259 7.23633C19.8288 7.24096 19.8318 7.24507 19.8345 7.2498C20.1466 7.79705 20.4092 8.38267 20.6134 9.00241L19.4014 9.37924C19.0648 9.48382 19.0316 9.72601 19.3271 9.91749L21.9647 11.6259C22.2604 11.8176 22.6131 11.7079 22.7479 11.3828L23.9529 8.47987C24.0876 8.15453 23.9232 7.97371 23.5868 8.07824Z" fill="#1E1E1E" fill-opacity="0.01"/>
<path d="M8.07613 12.0252C7.18727 12.6837 6.581 13.2549 6.25785 13.7388C5.935 14.2226 5.74134 14.7391 5.67773 15.2883H11.2388V13.7774H8.34443C8.51438 13.6103 8.66223 13.4755 8.78818 13.3726C8.91419 13.269 9.1635 13.0888 9.53679 12.8308C10.1647 12.3879 10.5979 11.9813 10.8361 11.611C11.0741 11.241 11.1933 10.8527 11.1933 10.4461C11.1933 10.0639 11.0894 9.71871 10.8816 9.41058C10.6737 9.10277 10.3883 8.87436 10.0258 8.72568C9.66342 8.57721 9.15591 8.50269 8.50351 8.50269C7.87872 8.50269 7.38962 8.58095 7.03599 8.73744C6.68278 8.89366 6.40876 9.11806 6.21473 9.41058C6.0205 9.70368 5.88716 10.1109 5.81419 10.6325L7.67097 10.7827C7.7225 10.4067 7.8235 10.1442 7.97353 9.99558C8.12387 9.8469 8.31697 9.77248 8.55395 9.77248C8.78137 9.77248 8.9703 9.84467 9.12039 9.98882C9.27047 10.1327 9.34567 10.3065 9.34567 10.5099C9.34567 10.6981 9.26985 10.8967 9.11805 11.1062C8.96635 11.3155 8.61896 11.622 8.07613 12.0252Z" fill="#1E1E1E" fill-opacity="0.01"/>
<path d="M16.8311 15.2881V14.041H17.6683V12.6027H16.8311V8.50244H15.2155L11.8389 12.5165V14.041H15.2155V15.2881H16.8311ZM13.4315 12.6027L15.2155 10.5035V12.6027H13.4315Z" fill="#1E1E1E" fill-opacity="0.01"/>
</g>
</g>
</g>
<defs>
<filter id="filter0_iii" x="-1.46104" y="-0.185598" width="26.1915" height="25.1017" filterUnits="userSpaceOnUse" color-interpolation-filters="sRGB">
<feFlood flood-opacity="0" result="BackgroundImageFix"/>
<feBlend mode="normal" in="SourceGraphic" in2="BackgroundImageFix" result="shape"/>
<feColorMatrix in="SourceAlpha" type="matrix" values="0 0 0 0 0 0 0 0 0 0 0 0 0 0 0 0 0 0 127 0" result="hardAlpha"/>
<feOffset dx="0.730519" dy="1.46104"/>
<feGaussianBlur stdDeviation="1.46104"/>
<feComposite in2="hardAlpha" operator="arithmetic" k2="-1" k3="1"/>
<feColorMatrix type="matrix" values="0 0 0 0 0 0 0 0 0 0 0 0 0 0 0 0 0 0 0.16 0"/>
<feBlend mode="normal" in2="shape" result="effect1_innerShadow"/>
<feColorMatrix in="SourceAlpha" type="matrix" values="0 0 0 0 0 0 0 0 0 0 0 0 0 0 0 0 0 0 127 0" result="hardAlpha"/>
<feOffset dx="-1.46104" dy="-0.730519"/>
<feGaussianBlur stdDeviation="0.730519"/>
<feComposite in2="hardAlpha" operator="arithmetic" k2="-1" k3="1"/>
<feColorMatrix type="matrix" values="0 0 0 0 1 0 0 0 0 1 0 0 0 0 1 0 0 0 0.12 0"/>
<feBlend mode="normal" in2="effect1_innerShadow" result="effect2_innerShadow"/>
<feColorMatrix in="SourceAlpha" type="matrix" values="0 0 0 0 0 0 0 0 0 0 0 0 0 0 0 0 0 0 127 0" result="hardAlpha"/>
<feOffset dx="-1.46104"/>
<feGaussianBlur stdDeviation="0.730519"/>
<feComposite in2="hardAlpha" operator="arithmetic" k2="-1" k3="1"/>
<feColorMatrix type="matrix" values="0 0 0 0 1 0 0 0 0 1 0 0 0 0 1 0 0 0 1 0"/>
<feBlend mode="overlay" in2="effect2_innerShadow" result="effect3_innerShadow"/>
</filter>
<filter id="filter1_iii" x="7.61513" y="20.809" width="4.6759" height="4.10707" filterUnits="userSpaceOnUse" color-interpolation-filters="sRGB">
<feFlood flood-opacity="0" result="BackgroundImageFix"/>
<feBlend mode="normal" in="SourceGraphic" in2="BackgroundImageFix" result="shape"/>
<feColorMatrix in="SourceAlpha" type="matrix" values="0 0 0 0 0 0 0 0 0 0 0 0 0 0 0 0 0 0 127 0" result="hardAlpha"/>
<feOffset dx="0.730519" dy="1.46104"/>
<feGaussianBlur stdDeviation="1.46104"/>
<feComposite in2="hardAlpha" operator="arithmetic" k2="-1" k3="1"/>
<feColorMatrix type="matrix" values="0 0 0 0 0 0 0 0 0 0 0 0 0 0 0 0 0 0 0.16 0"/>
<feBlend mode="normal" in2="shape" result="effect1_innerShadow"/>
<feColorMatrix in="SourceAlpha" type="matrix" values="0 0 0 0 0 0 0 0 0 0 0 0 0 0 0 0 0 0 127 0" result="hardAlpha"/>
<feOffset dx="-1.46104" dy="-0.730519"/>
<feGaussianBlur stdDeviation="0.730519"/>
<feComposite in2="hardAlpha" operator="arithmetic" k2="-1" k3="1"/>
<feColorMatrix type="matrix" values="0 0 0 0 1 0 0 0 0 1 0 0 0 0 1 0 0 0 0.12 0"/>
<feBlend mode="normal" in2="effect1_innerShadow" result="effect2_innerShadow"/>
<feColorMatrix in="SourceAlpha" type="matrix" values="0 0 0 0 0 0 0 0 0 0 0 0 0 0 0 0 0 0 127 0" result="hardAlpha"/>
<feOffset dx="-1.46104"/>
<feGaussianBlur stdDeviation="0.730519"/>
<feComposite in2="hardAlpha" operator="arithmetic" k2="-1" k3="1"/>
<feColorMatrix type="matrix" values="0 0 0 0 1 0 0 0 0 1 0 0 0 0 1 0 0 0 1 0"/>
<feBlend mode="overlay" in2="effect2_innerShadow" result="effect3_innerShadow"/>
</filter>
<clipPath id="clip0">
<rect width="24" height="24" fill="white"/>
</clipPath>
<clipPath id="clip1">
<rect width="24" height="24" fill="white"/>
</clipPath>
</defs>
</svg>
