<svg width="20" height="20" viewBox="0 0 20 20" fill="none" xmlns="http://www.w3.org/2000/svg">
<path d="M15.1371 14.8003C15.1371 15.2183 14.7999 15.5575 14.3811 15.5575H5.62506C5.20705 15.5575 4.86865 15.2183 4.86865 14.8003V6.97749C7.16385 6.96909 12.5183 6.96909 15.1371 6.97749V14.8003Z" fill="white"/>
<path d="M8.11253 2.96684C8.15573 3.05165 8.12292 3.15766 8.03694 3.20165C7.95175 3.24485 7.84577 3.21087 7.80257 3.12567L6.69577 0.968483C6.65178 0.882507 6.68694 0.778483 6.77218 0.734108C6.85737 0.690085 6.96257 0.724108 7.00655 0.809733L8.11257 2.96692L8.11253 2.96684Z" fill="white"/>
<path d="M12.1439 3.05747C12.0959 3.14107 11.9896 3.16986 11.9055 3.12029C11.8223 3.07306 11.7939 2.96669 11.8427 2.88306L13.0547 0.784234C13.1027 0.701031 13.2099 0.671461 13.2923 0.72064C13.3763 0.768218 13.4047 0.875054 13.3567 0.957827L12.1439 3.05743L12.1439 3.05747Z" fill="white"/>
<path d="M17.8105 12.6793C17.8105 13.2877 17.3177 13.7817 16.7081 13.7817C16.0985 13.7817 15.6045 13.2881 15.6045 12.6793V7.85492C15.6045 7.24531 16.0981 6.75293 16.7081 6.75293C17.3173 6.75293 17.8105 7.24535 17.8105 7.85492V12.6793Z" fill="white"/>
<path d="M4.39465 12.6793C4.39465 13.2877 3.90027 13.7817 3.29266 13.7817C2.68266 13.7817 2.18945 13.2881 2.18945 12.6793V7.85492C2.18945 7.24531 2.68223 6.75293 3.29266 6.75293C3.90027 6.75293 4.39465 7.24535 4.39465 7.85492V12.6793Z" fill="white"/>
<path d="M9.19539 18.2001C9.19539 18.8085 8.7018 19.3025 8.09141 19.3025C7.48301 19.3025 6.99023 18.8089 6.99023 18.2001V13.3757C6.99023 12.7677 7.48301 12.2725 8.09141 12.2725C8.70141 12.2725 9.19539 12.7677 9.19539 13.3757V18.2001Z" fill="white"/>
<path d="M13.0195 18.2001C13.0195 18.8085 12.5259 19.3025 11.9159 19.3025C11.3075 19.3025 10.8135 18.8089 10.8135 18.2001V13.3757C10.8135 12.7677 11.3071 12.2725 11.9159 12.2725C12.5255 12.2725 13.0195 12.7677 13.0195 13.3757V18.2001Z" fill="white"/>
<path d="M10.0036 1.82275C7.32195 1.82275 5.11355 3.86357 4.81836 6.48678H15.1884C14.894 3.86357 12.6868 1.82279 10.0036 1.82279V1.82275ZM7.66395 4.65037C7.42473 4.65037 7.23152 4.45799 7.23152 4.21959C7.23152 3.98201 7.42473 3.78959 7.66395 3.78959C7.90074 3.78959 8.09395 3.98197 8.09395 4.21959C8.09395 4.45799 7.90074 4.65037 7.66395 4.65037ZM12.3523 4.65037C12.1139 4.65037 11.9207 4.45799 11.9207 4.21959C11.9207 3.98201 12.1139 3.78959 12.3523 3.78959C12.5915 3.78959 12.7832 3.98197 12.7832 4.21959C12.7832 4.45799 12.5916 4.65037 12.3523 4.65037Z" fill="white"/>
</svg>
