<svg width="274" height="228" viewBox="0 0 274 228" fill="none" xmlns="http://www.w3.org/2000/svg">
<rect width="274" height="228" rx="24" fill="url(#paint0_linear)"/>
<mask id="mask0" mask-type="alpha" maskUnits="userSpaceOnUse" x="0" y="0" width="274" height="228">
<rect width="274" height="228" rx="24" fill="url(#paint1_linear)"/>
</mask>
<g mask="url(#mask0)">
<path d="M41.6254 101.68C41.8227 102.403 41.9761 103.127 42.1296 103.872C41.9989 103.895 41.8656 103.895 41.735 103.872C41.5835 103.875 41.4329 103.848 41.292 103.792C41.1513 103.736 41.023 103.652 40.9148 103.546C40.8067 103.44 40.7208 103.313 40.662 103.173C40.6035 103.034 40.5732 102.884 40.5732 102.732C40.5778 102.448 40.6883 102.176 40.883 101.97C41.0776 101.763 41.3424 101.636 41.6254 101.614V101.68Z" fill="url(#paint2_linear)"/>
<path d="M41.735 108.608C41.8836 108.605 42.0314 108.632 42.1697 108.686C42.3078 108.741 42.4336 108.823 42.5397 108.927C42.6458 109.031 42.7302 109.155 42.7878 109.293C42.8452 109.43 42.8748 109.577 42.8748 109.726C42.8748 110.028 42.7547 110.318 42.541 110.532C42.3273 110.745 42.0373 110.865 41.735 110.865C41.5835 110.868 41.4329 110.841 41.292 110.785C41.1513 110.729 41.023 110.646 40.9148 110.539C40.8067 110.433 40.7208 110.307 40.662 110.167C40.6035 110.027 40.5732 109.877 40.5732 109.726C40.5761 109.576 40.6085 109.428 40.6684 109.291C40.7282 109.154 40.8146 109.03 40.9226 108.926C41.0305 108.822 41.1576 108.74 41.297 108.686C41.4365 108.631 41.5853 108.605 41.735 108.608Z" fill="url(#paint3_linear)"/>
<path d="M41.735 115.601C41.8836 115.598 42.0314 115.625 42.1697 115.68C42.3078 115.735 42.4336 115.817 42.5397 115.921C42.6458 116.025 42.7302 116.149 42.7878 116.286C42.8452 116.423 42.8748 116.571 42.8748 116.719C42.8748 117.021 42.7547 117.311 42.541 117.525C42.3273 117.739 42.0373 117.859 41.735 117.859C41.5835 117.862 41.4329 117.835 41.292 117.779C41.1513 117.723 41.023 117.639 40.9148 117.533C40.8067 117.427 40.7208 117.3 40.662 117.16C40.6035 117.021 40.5732 116.871 40.5732 116.719C40.5761 116.569 40.6085 116.422 40.6684 116.285C40.7282 116.147 40.8146 116.023 40.9226 115.92C41.0305 115.816 41.1576 115.734 41.297 115.68C41.4365 115.625 41.5853 115.598 41.735 115.601Z" fill="url(#paint4_linear)"/>
<path d="M41.735 122.594C41.8656 122.574 41.9989 122.574 42.1296 122.594C41.9761 123.34 41.8227 124.063 41.6254 124.786C41.3404 124.769 41.0728 124.644 40.8771 124.436C40.6815 124.229 40.5728 123.954 40.5732 123.668C40.5761 123.519 40.6085 123.371 40.6684 123.234C40.7282 123.097 40.8146 122.973 40.9226 122.869C41.0305 122.765 41.1576 122.683 41.297 122.629C41.4365 122.574 41.5853 122.548 41.735 122.551V122.594Z" fill="url(#paint5_linear)"/>
<path d="M34.5676 87.6272C34.7173 87.6243 34.8661 87.6508 35.0055 87.7054C35.1449 87.7602 35.2721 87.8418 35.3799 87.9454C35.488 88.0493 35.5744 88.1734 35.6342 88.3106C35.6943 88.4476 35.7265 88.5954 35.7293 88.7451C35.7293 88.8965 35.6991 89.0467 35.6406 89.1863C35.5818 89.3262 35.4959 89.4529 35.3878 89.559C35.2795 89.6651 35.1513 89.7486 35.0106 89.8045C34.8696 89.8606 34.719 89.8878 34.5676 89.8849C34.2653 89.8849 33.9753 89.7648 33.7616 89.5511C33.5479 89.3374 33.4277 89.0474 33.4277 88.7451C33.4277 88.5965 33.4573 88.4492 33.5148 88.3122C33.5724 88.1752 33.6568 88.0509 33.7629 87.9468C33.869 87.8426 33.9948 87.7609 34.1331 87.7059C34.2712 87.6511 34.419 87.6243 34.5676 87.6272Z" fill="url(#paint6_linear)"/>
<path d="M34.5676 94.6206C34.7173 94.6177 34.8661 94.6442 35.0055 94.6988C35.1449 94.7536 35.2721 94.8352 35.3799 94.9388C35.488 95.0427 35.5744 95.1668 35.6342 95.304C35.6943 95.4413 35.7265 95.5888 35.7293 95.7385C35.7293 95.89 35.6991 96.0401 35.6406 96.1797C35.5818 96.3196 35.4959 96.4463 35.3878 96.5524C35.2795 96.6585 35.1513 96.742 35.0106 96.7979C34.8696 96.854 34.719 96.8812 34.5676 96.8783C34.2653 96.8783 33.9753 96.7582 33.7616 96.5445C33.5479 96.3308 33.4277 96.0408 33.4277 95.7385C33.4277 95.5899 33.4573 95.4426 33.5148 95.3056C33.5724 95.1686 33.6568 95.0443 33.7629 94.9402C33.869 94.836 33.9948 94.7543 34.1331 94.6993C34.2712 94.6445 34.419 94.6177 34.5676 94.6206Z" fill="url(#paint7_linear)"/>
<path d="M34.5676 101.68C34.7173 101.677 34.8661 101.704 35.0055 101.758C35.1449 101.813 35.2721 101.894 35.3799 101.998C35.488 102.102 35.5744 102.226 35.6342 102.363C35.6943 102.5 35.7265 102.648 35.7293 102.798C35.7125 103.092 35.5818 103.369 35.3652 103.569C35.1485 103.77 34.8626 103.878 34.5676 103.872C34.4179 103.872 34.2697 103.843 34.1314 103.785C33.993 103.728 33.8674 103.644 33.7616 103.538C33.6557 103.432 33.5717 103.307 33.5145 103.168C33.4571 103.03 33.4277 102.882 33.4277 102.732C33.4446 102.443 33.5728 102.172 33.7855 101.976C33.9981 101.78 34.2785 101.674 34.5676 101.68Z" fill="url(#paint8_linear)"/>
<path d="M34.5676 108.608C34.7173 108.605 34.8661 108.631 35.0055 108.686C35.1449 108.74 35.2721 108.822 35.3799 108.926C35.488 109.03 35.5744 109.154 35.6342 109.291C35.6943 109.428 35.7265 109.576 35.7293 109.726C35.7293 109.877 35.6991 110.027 35.6406 110.167C35.5818 110.307 35.4959 110.433 35.3878 110.539C35.2795 110.646 35.1513 110.729 35.0106 110.785C34.8696 110.841 34.719 110.868 34.5676 110.865C34.2653 110.865 33.9753 110.745 33.7616 110.532C33.5479 110.318 33.4277 110.028 33.4277 109.726C33.4277 109.577 33.4573 109.43 33.5148 109.293C33.5724 109.155 33.6568 109.031 33.7629 108.927C33.869 108.823 33.9948 108.741 34.1331 108.686C34.2712 108.632 34.419 108.605 34.5676 108.608Z" fill="url(#paint9_linear)"/>
<path d="M34.5676 115.601C34.7173 115.598 34.8661 115.625 35.0055 115.68C35.1449 115.734 35.2721 115.816 35.3799 115.92C35.488 116.023 35.5744 116.147 35.6342 116.285C35.6943 116.422 35.7265 116.569 35.7293 116.719C35.7293 116.871 35.6991 117.021 35.6406 117.16C35.5818 117.3 35.4959 117.427 35.3878 117.533C35.2795 117.639 35.1513 117.723 35.0106 117.779C34.8696 117.835 34.719 117.862 34.5676 117.859C34.4179 117.859 34.2697 117.829 34.1314 117.772C33.993 117.715 33.8674 117.631 33.7616 117.525C33.6557 117.419 33.5717 117.294 33.5145 117.155C33.4571 117.017 33.4277 116.869 33.4277 116.719C33.4277 116.571 33.4573 116.423 33.5148 116.286C33.5724 116.149 33.6568 116.025 33.7629 115.921C33.869 115.817 33.9948 115.735 34.1331 115.68C34.2712 115.625 34.419 115.598 34.5676 115.601Z" fill="url(#paint10_linear)"/>
<path d="M34.5676 122.594C34.7173 122.592 34.8661 122.618 35.0055 122.673C35.1449 122.727 35.2721 122.809 35.3799 122.913C35.488 123.017 35.5744 123.14 35.6342 123.278C35.6943 123.415 35.7265 123.563 35.7293 123.712C35.7293 123.864 35.6991 124.014 35.6406 124.154C35.5818 124.293 35.4959 124.42 35.3878 124.526C35.2795 124.632 35.1513 124.716 35.0106 124.772C34.8696 124.828 34.719 124.855 34.5676 124.852C34.2653 124.852 33.9753 124.732 33.7616 124.518C33.5479 124.305 33.4277 124.015 33.4277 123.712C33.4277 123.564 33.4573 123.416 33.5148 123.279C33.5724 123.142 33.6568 123.018 33.7629 122.914C33.869 122.81 33.9948 122.728 34.1331 122.673C34.2712 122.618 34.419 122.592 34.5676 122.594Z" fill="url(#paint11_linear)"/>
<path d="M34.5676 129.588C34.7173 129.585 34.8661 129.611 35.0055 129.666C35.1449 129.72 35.2721 129.802 35.3799 129.906C35.488 130.01 35.5744 130.134 35.6342 130.271C35.6943 130.408 35.7265 130.556 35.7293 130.706C35.7293 130.857 35.6991 131.007 35.6406 131.147C35.5818 131.287 35.4959 131.413 35.3878 131.519C35.2795 131.626 35.1513 131.709 35.0106 131.765C34.8696 131.821 34.719 131.848 34.5676 131.845C34.2653 131.845 33.9753 131.725 33.7616 131.512C33.5479 131.298 33.4277 131.008 33.4277 130.706C33.4277 130.557 33.4573 130.41 33.5148 130.273C33.5724 130.135 33.6568 130.011 33.7629 129.907C33.869 129.803 33.9948 129.721 34.1331 129.666C34.2712 129.612 34.419 129.585 34.5676 129.588Z" fill="url(#paint12_linear)"/>
<path d="M34.5676 136.581C34.7173 136.578 34.8661 136.604 35.0055 136.659C35.1449 136.714 35.2721 136.795 35.3799 136.899C35.488 137.003 35.5744 137.127 35.6342 137.264C35.6943 137.401 35.7265 137.549 35.7293 137.699C35.7449 137.859 35.7263 138.021 35.6745 138.174C35.6228 138.327 35.5393 138.467 35.4295 138.585C35.3197 138.703 35.1862 138.796 35.0375 138.859C34.8889 138.922 34.7287 138.952 34.5676 138.948C34.2653 138.948 33.9753 138.828 33.7616 138.614C33.5479 138.401 33.4277 138.111 33.4277 137.808C33.4277 137.66 33.4573 137.512 33.5148 137.375C33.5724 137.238 33.6568 137.114 33.7629 137.01C33.869 136.906 33.9948 136.824 34.1331 136.769C34.2712 136.714 34.419 136.688 34.5676 136.69V136.581Z" fill="url(#paint13_linear)"/>
<path d="M27.466 80.6333C27.6157 80.6304 27.7646 80.6569 27.904 80.7115C28.0434 80.7661 28.1705 80.8476 28.2786 80.9515C28.3864 81.0554 28.4728 81.1795 28.5326 81.3167C28.5927 81.4539 28.6249 81.6015 28.6278 81.7512C28.6278 81.9027 28.5975 82.0528 28.539 82.1924C28.4802 82.3323 28.3943 82.459 28.2863 82.5651C28.178 82.6712 28.0497 82.7547 27.909 82.8106C27.7681 82.8667 27.6175 82.8939 27.466 82.891C27.1637 82.891 26.8737 82.7709 26.66 82.5572C26.4463 82.3435 26.3262 82.0535 26.3262 81.7512C26.3262 81.6026 26.3558 81.4553 26.4134 81.3183C26.4708 81.1813 26.5552 81.057 26.6613 80.9529C26.7674 80.8487 26.8932 80.767 27.0316 80.712C27.1697 80.6572 27.3174 80.6304 27.466 80.6333Z" fill="url(#paint14_linear)"/>
<path d="M27.466 87.6272C27.6157 87.6243 27.7646 87.6508 27.904 87.7054C28.0434 87.7602 28.1705 87.8418 28.2786 87.9454C28.3864 88.0493 28.4728 88.1734 28.5326 88.3106C28.5927 88.4476 28.6249 88.5954 28.6278 88.7451C28.6278 88.8965 28.5975 89.0467 28.539 89.1863C28.4802 89.3262 28.3943 89.4529 28.2863 89.559C28.178 89.6651 28.0497 89.7486 27.909 89.8045C27.7681 89.8606 27.6175 89.8878 27.466 89.8849C27.1637 89.8849 26.8737 89.7648 26.66 89.5511C26.4463 89.3374 26.3262 89.0474 26.3262 88.7451C26.3262 88.5965 26.3558 88.4492 26.4134 88.3122C26.4708 88.1752 26.5552 88.0509 26.6613 87.9468C26.7674 87.8426 26.8932 87.7609 27.0316 87.7059C27.1697 87.6511 27.3174 87.6243 27.466 87.6272Z" fill="url(#paint15_linear)"/>
<path d="M27.466 94.6206C27.6157 94.6177 27.7646 94.6442 27.904 94.6988C28.0434 94.7536 28.1705 94.8352 28.2786 94.9388C28.3864 95.0427 28.4728 95.1668 28.5326 95.304C28.5927 95.4413 28.6249 95.5888 28.6278 95.7385C28.6278 95.89 28.5975 96.0401 28.539 96.1797C28.4802 96.3196 28.3943 96.4463 28.2863 96.5524C28.178 96.6585 28.0497 96.742 27.909 96.7979C27.7681 96.854 27.6175 96.8812 27.466 96.8783C27.1637 96.8783 26.8737 96.7582 26.66 96.5445C26.4463 96.3308 26.3262 96.0408 26.3262 95.7385C26.3262 95.5899 26.3558 95.4426 26.4134 95.3056C26.4708 95.1686 26.5552 95.0443 26.6613 94.9402C26.7674 94.836 26.8932 94.7543 27.0316 94.6993C27.1697 94.6445 27.3174 94.6177 27.466 94.6206Z" fill="url(#paint16_linear)"/>
<path d="M27.466 101.68C27.6157 101.677 27.7646 101.704 27.904 101.758C28.0434 101.813 28.1705 101.894 28.2786 101.998C28.3864 102.102 28.4728 102.226 28.5326 102.363C28.5927 102.501 28.6249 102.648 28.6278 102.798C28.6278 102.949 28.5975 103.099 28.539 103.239C28.4802 103.379 28.3943 103.506 28.2863 103.612C28.178 103.718 28.0497 103.801 27.909 103.857C27.7681 103.913 27.6175 103.941 27.466 103.938C27.1637 103.938 26.8737 103.818 26.66 103.604C26.4463 103.39 26.3262 103.1 26.3262 102.798C26.3262 102.649 26.3558 102.502 26.4134 102.365C26.4708 102.228 26.5552 102.104 26.6613 101.999C26.7674 101.895 26.8932 101.814 27.0316 101.759C27.1697 101.704 27.3174 101.677 27.466 101.68Z" fill="url(#paint17_linear)"/>
<path d="M27.466 108.608C27.6157 108.605 27.7646 108.631 27.904 108.686C28.0434 108.74 28.1705 108.822 28.2786 108.926C28.3864 109.03 28.4728 109.154 28.5326 109.291C28.5927 109.428 28.6249 109.576 28.6278 109.726C28.6278 109.877 28.5975 110.027 28.539 110.167C28.4802 110.307 28.3943 110.433 28.2863 110.539C28.178 110.646 28.0497 110.729 27.909 110.785C27.7681 110.841 27.6175 110.868 27.466 110.865C27.1637 110.865 26.8737 110.745 26.66 110.532C26.4463 110.318 26.3262 110.028 26.3262 109.726C26.3262 109.577 26.3558 109.43 26.4134 109.293C26.4708 109.155 26.5552 109.031 26.6613 108.927C26.7674 108.823 26.8932 108.741 27.0316 108.686C27.1697 108.632 27.3174 108.605 27.466 108.608Z" fill="url(#paint18_linear)"/>
<path d="M27.466 115.601C27.6157 115.598 27.7646 115.625 27.904 115.68C28.0434 115.734 28.1705 115.816 28.2786 115.92C28.3864 116.023 28.4728 116.147 28.5326 116.285C28.5927 116.422 28.6249 116.569 28.6278 116.719C28.6278 116.871 28.5975 117.021 28.539 117.16C28.4802 117.3 28.3943 117.427 28.2863 117.533C28.178 117.639 28.0497 117.723 27.909 117.779C27.7681 117.835 27.6175 117.862 27.466 117.859C27.1637 117.859 26.8737 117.739 26.66 117.525C26.4463 117.311 26.3262 117.021 26.3262 116.719C26.3262 116.571 26.3558 116.423 26.4134 116.286C26.4708 116.149 26.5552 116.025 26.6613 115.921C26.7674 115.817 26.8932 115.735 27.0316 115.68C27.1697 115.625 27.3174 115.598 27.466 115.601Z" fill="url(#paint19_linear)"/>
<path d="M27.466 122.594C27.6157 122.592 27.7646 122.618 27.904 122.673C28.0434 122.727 28.1705 122.809 28.2786 122.913C28.3864 123.017 28.4728 123.14 28.5326 123.278C28.5927 123.415 28.6249 123.563 28.6278 123.712C28.6278 123.864 28.5975 124.014 28.539 124.154C28.4802 124.293 28.3943 124.42 28.2863 124.526C28.178 124.632 28.0497 124.716 27.909 124.772C27.7681 124.828 27.6175 124.855 27.466 124.852C27.1637 124.852 26.8737 124.732 26.66 124.518C26.4463 124.305 26.3262 124.015 26.3262 123.712C26.3262 123.564 26.3558 123.416 26.4134 123.279C26.4708 123.142 26.5552 123.018 26.6613 122.914C26.7674 122.81 26.8932 122.728 27.0316 122.673C27.1697 122.618 27.3174 122.592 27.466 122.594Z" fill="url(#paint20_linear)"/>
<path d="M27.466 129.588C27.6157 129.585 27.7646 129.611 27.904 129.666C28.0434 129.72 28.1705 129.802 28.2786 129.906C28.3864 130.01 28.4728 130.134 28.5326 130.271C28.5927 130.408 28.6249 130.556 28.6278 130.706C28.6278 130.857 28.5975 131.007 28.539 131.147C28.4802 131.287 28.3943 131.413 28.2863 131.519C28.178 131.626 28.0497 131.709 27.909 131.765C27.7681 131.821 27.6175 131.848 27.466 131.845C27.1637 131.845 26.8737 131.725 26.66 131.512C26.4463 131.298 26.3262 131.008 26.3262 130.706C26.3262 130.557 26.3558 130.41 26.4134 130.273C26.4708 130.135 26.5552 130.011 26.6613 129.907C26.7674 129.803 26.8932 129.721 27.0316 129.666C27.1697 129.612 27.3174 129.585 27.466 129.588Z" fill="url(#paint21_linear)"/>
<path d="M27.466 136.581C27.6157 136.578 27.7646 136.604 27.904 136.659C28.0434 136.714 28.1705 136.795 28.2786 136.899C28.3864 137.003 28.4728 137.127 28.5326 137.264C28.5927 137.401 28.6249 137.549 28.6278 137.699C28.6278 137.85 28.5975 138 28.539 138.14C28.4802 138.28 28.3943 138.406 28.2863 138.513C28.178 138.619 28.0497 138.702 27.909 138.758C27.7681 138.814 27.6175 138.841 27.466 138.839C27.1637 138.839 26.8737 138.718 26.66 138.505C26.4463 138.291 26.3262 138.001 26.3262 137.699C26.3262 137.55 26.3558 137.403 26.4134 137.266C26.4708 137.129 26.5552 137.004 26.6613 136.9C26.7674 136.796 26.8932 136.714 27.0316 136.659C27.1697 136.605 27.3174 136.578 27.466 136.581Z" fill="url(#paint22_linear)"/>
<path d="M27.466 143.575C27.6157 143.572 27.7646 143.599 27.904 143.653C28.0434 143.708 28.1705 143.79 28.2786 143.893C28.3864 143.997 28.4728 144.121 28.5326 144.258C28.5927 144.396 28.6249 144.543 28.6278 144.693C28.6278 144.845 28.5975 144.995 28.539 145.134C28.4802 145.274 28.3943 145.401 28.2863 145.507C28.178 145.613 28.0497 145.697 27.909 145.752C27.7681 145.809 27.6175 145.836 27.466 145.833C27.1637 145.833 26.8737 145.713 26.66 145.499C26.4463 145.285 26.3262 144.995 26.3262 144.693C26.3262 144.544 26.3558 144.397 26.4134 144.26C26.4708 144.123 26.5552 143.999 26.6613 143.895C26.7674 143.791 26.8932 143.709 27.0316 143.654C27.1697 143.599 27.3174 143.572 27.466 143.575Z" fill="url(#paint23_linear)"/>
<path d="M20.341 73.6399C20.4907 73.637 20.6396 73.6635 20.779 73.7181C20.9184 73.7727 21.0455 73.8542 21.1536 73.9581C21.2614 74.062 21.3478 74.1861 21.4076 74.3233C21.4677 74.4603 21.4999 74.6081 21.5028 74.7578C21.5028 74.9092 21.4725 75.0594 21.414 75.199C21.3552 75.3389 21.2693 75.4656 21.1613 75.5717C21.053 75.6778 20.9247 75.7613 20.784 75.8172C20.6431 75.8733 20.4925 75.9005 20.341 75.8976C20.0387 75.8976 19.7487 75.7775 19.535 75.5638C19.3213 75.3501 19.2012 75.0601 19.2012 74.7578C19.2012 74.6092 19.2308 74.4619 19.2884 74.3249C19.3458 74.1879 19.4302 74.0636 19.5363 73.9594C19.6424 73.8553 19.7682 73.7733 19.9066 73.7185C20.0447 73.6637 20.1924 73.637 20.341 73.6399Z" fill="url(#paint24_linear)"/>
<path d="M20.341 80.6333C20.4907 80.6304 20.6396 80.6569 20.779 80.7115C20.9184 80.7661 21.0455 80.8476 21.1536 80.9515C21.2614 81.0554 21.3478 81.1795 21.4076 81.3167C21.4677 81.4539 21.4999 81.6015 21.5028 81.7512C21.5028 81.9027 21.4725 82.0528 21.414 82.1924C21.3552 82.3323 21.2693 82.459 21.1613 82.5651C21.053 82.6712 20.9247 82.7547 20.784 82.8106C20.6431 82.8667 20.4925 82.8939 20.341 82.891C20.0387 82.891 19.7487 82.7709 19.535 82.5572C19.3213 82.3435 19.2012 82.0535 19.2012 81.7512C19.2012 81.6026 19.2308 81.4553 19.2884 81.3183C19.3458 81.1813 19.4302 81.057 19.5363 80.9529C19.6424 80.8487 19.7682 80.767 19.9066 80.712C20.0447 80.6572 20.1924 80.6304 20.341 80.6333Z" fill="url(#paint25_linear)"/>
<path d="M20.3406 87.6272C20.4903 87.6243 20.6391 87.6508 20.7785 87.7054C20.9179 87.7602 21.0453 87.8418 21.1531 87.9454C21.261 88.0493 21.3474 88.1734 21.4072 88.3106C21.4673 88.4476 21.4995 88.5954 21.5023 88.7451C21.5023 88.8965 21.4723 89.0467 21.4136 89.1863C21.3548 89.3262 21.2689 89.4529 21.1608 89.559C21.0525 89.6651 20.9243 89.7486 20.7836 89.8045C20.6426 89.8606 20.492 89.8878 20.3406 89.8849C20.042 89.8792 19.7577 89.7565 19.5488 89.5434C19.3397 89.3303 19.2227 89.0436 19.2227 88.7451C19.2227 88.5965 19.2522 88.4492 19.3099 88.3122C19.3673 88.1752 19.4517 88.0509 19.5578 87.9468C19.6639 87.8426 19.7897 87.7609 19.928 87.7059C20.0661 87.6511 20.2139 87.6243 20.3625 87.6272H20.3406Z" fill="url(#paint26_linear)"/>
<path d="M20.341 94.6206C20.4907 94.6177 20.6396 94.6442 20.779 94.6988C20.9184 94.7536 21.0455 94.8352 21.1536 94.9388C21.2614 95.0427 21.3478 95.1668 21.4076 95.304C21.4677 95.4413 21.4999 95.5888 21.5028 95.7385C21.5028 95.89 21.4725 96.0401 21.414 96.1797C21.3552 96.3196 21.2693 96.4463 21.1613 96.5524C21.053 96.6585 20.9247 96.742 20.784 96.7979C20.6431 96.854 20.4925 96.8812 20.341 96.8783C20.0387 96.8783 19.7487 96.7582 19.535 96.5445C19.3213 96.3308 19.2012 96.0408 19.2012 95.7385C19.2012 95.5899 19.2308 95.4426 19.2884 95.3056C19.3458 95.1686 19.4302 95.0443 19.5363 94.9402C19.6424 94.836 19.7682 94.7543 19.9066 94.6993C20.0447 94.6445 20.1924 94.6177 20.341 94.6206Z" fill="url(#paint27_linear)"/>
<path d="M20.341 101.68C20.4907 101.677 20.6396 101.704 20.779 101.758C20.9184 101.813 21.0455 101.894 21.1536 101.998C21.2614 102.102 21.3478 102.226 21.4076 102.363C21.4677 102.501 21.4999 102.648 21.5028 102.798C21.5028 102.949 21.4725 103.099 21.414 103.239C21.3552 103.379 21.2693 103.506 21.1613 103.612C21.053 103.718 20.9247 103.801 20.784 103.857C20.6431 103.913 20.4925 103.941 20.341 103.938C20.0387 103.938 19.7487 103.818 19.535 103.604C19.3213 103.39 19.2012 103.1 19.2012 102.798C19.2012 102.649 19.2308 102.502 19.2884 102.365C19.3458 102.228 19.4302 102.104 19.5363 101.999C19.6424 101.895 19.7682 101.814 19.9066 101.759C20.0447 101.704 20.1924 101.677 20.341 101.68Z" fill="url(#paint28_linear)"/>
<path d="M20.341 108.608C20.4907 108.605 20.6396 108.631 20.779 108.686C20.9184 108.74 21.0455 108.822 21.1536 108.926C21.2614 109.03 21.3478 109.154 21.4076 109.291C21.4677 109.428 21.4999 109.576 21.5028 109.726C21.5028 109.877 21.4725 110.027 21.414 110.167C21.3552 110.307 21.2693 110.433 21.1613 110.539C21.053 110.646 20.9247 110.729 20.784 110.785C20.6431 110.841 20.4925 110.868 20.341 110.865C20.0387 110.865 19.7487 110.745 19.535 110.532C19.3213 110.318 19.2012 110.028 19.2012 109.726C19.2012 109.577 19.2308 109.43 19.2884 109.293C19.3458 109.155 19.4302 109.031 19.5363 108.927C19.6424 108.823 19.7682 108.741 19.9066 108.686C20.0447 108.632 20.1924 108.605 20.341 108.608Z" fill="url(#paint29_linear)"/>
<path d="M20.341 115.601C20.4907 115.598 20.6396 115.625 20.779 115.68C20.9184 115.734 21.0455 115.816 21.1536 115.92C21.2614 116.023 21.3478 116.147 21.4076 116.285C21.4677 116.422 21.4999 116.569 21.5028 116.719C21.5028 116.871 21.4725 117.021 21.414 117.16C21.3552 117.3 21.2693 117.427 21.1613 117.533C21.053 117.639 20.9247 117.723 20.784 117.779C20.6431 117.835 20.4925 117.862 20.341 117.859C20.0387 117.859 19.7487 117.739 19.535 117.525C19.3213 117.311 19.2012 117.021 19.2012 116.719C19.2012 116.571 19.2308 116.423 19.2884 116.286C19.3458 116.149 19.4302 116.025 19.5363 115.921C19.6424 115.817 19.7682 115.735 19.9066 115.68C20.0447 115.625 20.1924 115.598 20.341 115.601Z" fill="url(#paint30_linear)"/>
<path d="M20.341 122.594C20.4907 122.592 20.6396 122.618 20.779 122.673C20.9184 122.727 21.0455 122.809 21.1536 122.913C21.2614 123.017 21.3478 123.14 21.4076 123.278C21.4677 123.415 21.4999 123.563 21.5028 123.712C21.5028 123.864 21.4725 124.014 21.414 124.154C21.3552 124.293 21.2693 124.42 21.1613 124.526C21.053 124.632 20.9247 124.716 20.784 124.772C20.6431 124.828 20.4925 124.855 20.341 124.852C20.0387 124.852 19.7487 124.732 19.535 124.518C19.3213 124.305 19.2012 124.015 19.2012 123.712C19.2012 123.564 19.2308 123.416 19.2884 123.279C19.3458 123.142 19.4302 123.018 19.5363 122.914C19.6424 122.81 19.7682 122.728 19.9066 122.673C20.0447 122.618 20.1924 122.592 20.341 122.594Z" fill="url(#paint31_linear)"/>
<path d="M20.341 129.588C20.4907 129.585 20.6396 129.611 20.779 129.666C20.9184 129.72 21.0455 129.802 21.1536 129.906C21.2614 130.01 21.3478 130.134 21.4076 130.271C21.4677 130.408 21.4999 130.556 21.5028 130.706C21.5028 130.857 21.4725 131.007 21.414 131.147C21.3552 131.287 21.2693 131.413 21.1613 131.519C21.053 131.626 20.9247 131.709 20.784 131.765C20.6431 131.821 20.4925 131.848 20.341 131.845C20.0387 131.845 19.7487 131.725 19.535 131.512C19.3213 131.298 19.2012 131.008 19.2012 130.706C19.2012 130.557 19.2308 130.41 19.2884 130.273C19.3458 130.135 19.4302 130.011 19.5363 129.907C19.6424 129.803 19.7682 129.721 19.9066 129.666C20.0447 129.612 20.1924 129.585 20.341 129.588Z" fill="url(#paint32_linear)"/>
<path d="M20.341 136.581C20.4907 136.578 20.6396 136.604 20.779 136.659C20.9184 136.714 21.0455 136.795 21.1536 136.899C21.2614 137.003 21.3478 137.127 21.4076 137.264C21.4677 137.401 21.4999 137.549 21.5028 137.699C21.5028 137.85 21.4725 138 21.414 138.14C21.3552 138.28 21.2693 138.406 21.1613 138.513C21.053 138.619 20.9247 138.702 20.784 138.758C20.6431 138.814 20.4925 138.841 20.341 138.839C20.0387 138.839 19.7487 138.718 19.535 138.505C19.3213 138.291 19.2012 138.001 19.2012 137.699C19.2012 137.55 19.2308 137.403 19.2884 137.266C19.3458 137.129 19.4302 137.004 19.5363 136.9C19.6424 136.796 19.7682 136.714 19.9066 136.659C20.0447 136.605 20.1924 136.578 20.341 136.581Z" fill="url(#paint33_linear)"/>
<path d="M20.341 143.575C20.4907 143.572 20.6396 143.599 20.779 143.653C20.9184 143.708 21.0455 143.79 21.1536 143.893C21.2614 143.997 21.3478 144.121 21.4076 144.258C21.4677 144.396 21.4999 144.543 21.5028 144.693C21.5028 144.845 21.4725 144.995 21.414 145.134C21.3552 145.274 21.2693 145.401 21.1613 145.507C21.053 145.613 20.9247 145.697 20.784 145.752C20.6431 145.809 20.4925 145.836 20.341 145.833C20.0387 145.833 19.7487 145.713 19.535 145.499C19.3213 145.285 19.2012 144.995 19.2012 144.693C19.2012 144.544 19.2308 144.397 19.2884 144.26C19.3458 144.123 19.4302 143.999 19.5363 143.895C19.6424 143.791 19.7682 143.709 19.9066 143.654C20.0447 143.599 20.1924 143.572 20.341 143.575Z" fill="url(#paint34_linear)"/>
<path d="M20.341 150.569C20.4907 150.566 20.6396 150.592 20.779 150.647C20.9184 150.702 21.0455 150.783 21.1536 150.887C21.2614 150.991 21.3478 151.115 21.4076 151.252C21.4677 151.389 21.4999 151.537 21.5028 151.687C21.5028 151.838 21.4725 151.988 21.414 152.128C21.3552 152.268 21.2693 152.395 21.1613 152.501C21.053 152.607 20.9247 152.69 20.784 152.746C20.6431 152.802 20.4925 152.829 20.341 152.827C20.0387 152.827 19.7487 152.706 19.535 152.493C19.3213 152.279 19.2012 151.989 19.2012 151.687C19.2012 151.538 19.2308 151.391 19.2884 151.254C19.3458 151.117 19.4302 150.993 19.5363 150.888C19.6424 150.784 19.7682 150.702 19.9066 150.648C20.0447 150.593 20.1924 150.566 20.341 150.569Z" fill="url(#paint35_linear)"/>
<path d="M13.217 73.6399C13.3656 73.637 13.5134 73.6637 13.6516 73.7185C13.7897 73.7733 13.9156 73.8553 14.0217 73.9594C14.1278 74.0636 14.2121 74.1879 14.2697 74.3249C14.3272 74.4619 14.3569 74.6092 14.3568 74.7578C14.3568 75.0601 14.2367 75.3501 14.023 75.5638C13.8092 75.7775 13.5193 75.8976 13.217 75.8976C12.9147 75.8976 12.6248 75.7775 12.411 75.5638C12.1972 75.3501 12.0771 75.0601 12.0771 74.7578C12.0771 74.6092 12.1067 74.4619 12.1643 74.3249C12.2218 74.1879 12.3061 74.0636 12.4123 73.9594C12.5184 73.8553 12.6443 73.7733 12.7824 73.7185C12.9206 73.6637 13.0684 73.637 13.217 73.6399Z" fill="url(#paint36_linear)"/>
<path d="M13.217 80.6333C13.3656 80.6304 13.5134 80.6572 13.6516 80.712C13.7897 80.767 13.9156 80.8487 14.0217 80.9529C14.1278 81.057 14.2121 81.1813 14.2697 81.3183C14.3272 81.4553 14.3569 81.6026 14.3568 81.7512C14.3568 82.0535 14.2367 82.3435 14.023 82.5572C13.8092 82.7709 13.5193 82.891 13.217 82.891C12.9147 82.891 12.6248 82.7709 12.411 82.5572C12.1972 82.3435 12.0771 82.0535 12.0771 81.7512C12.0771 81.6026 12.1067 81.4553 12.1643 81.3183C12.2218 81.1813 12.3061 81.057 12.4123 80.9529C12.5184 80.8487 12.6443 80.767 12.7824 80.712C12.9206 80.6572 13.0684 80.6304 13.217 80.6333Z" fill="url(#paint37_linear)"/>
<path d="M13.217 87.6272C13.3656 87.6243 13.5134 87.6511 13.6516 87.7059C13.7897 87.7609 13.9156 87.8426 14.0217 87.9468C14.1278 88.0509 14.2121 88.1752 14.2697 88.3122C14.3272 88.4492 14.3569 88.5965 14.3568 88.7451C14.3568 89.0474 14.2367 89.3374 14.023 89.5511C13.8092 89.7648 13.5193 89.8849 13.217 89.8849C12.9147 89.8849 12.6248 89.7648 12.411 89.5511C12.1972 89.3374 12.0771 89.0474 12.0771 88.7451C12.0771 88.5965 12.1067 88.4492 12.1643 88.3122C12.2218 88.1752 12.3061 88.0509 12.4123 87.9468C12.5184 87.8426 12.6443 87.7609 12.7824 87.7059C12.9206 87.6511 13.0684 87.6243 13.217 87.6272Z" fill="url(#paint38_linear)"/>
<path d="M13.217 94.6206C13.3656 94.6177 13.5134 94.6445 13.6516 94.6993C13.7897 94.7543 13.9156 94.836 14.0217 94.9402C14.1278 95.0443 14.2121 95.1686 14.2697 95.3056C14.3272 95.4426 14.3569 95.5899 14.3568 95.7385C14.3568 96.0408 14.2367 96.3308 14.023 96.5445C13.8092 96.7582 13.5193 96.8783 13.217 96.8783C12.9147 96.8783 12.6248 96.7582 12.411 96.5445C12.1972 96.3308 12.0771 96.0408 12.0771 95.7385C12.0771 95.5899 12.1067 95.4426 12.1643 95.3056C12.2218 95.1686 12.3061 95.0443 12.4123 94.9402C12.5184 94.836 12.6443 94.7543 12.7824 94.6993C12.9206 94.6445 13.0684 94.6177 13.217 94.6206Z" fill="url(#paint39_linear)"/>
<path d="M13.217 129.588C13.3656 129.585 13.5134 129.612 13.6516 129.666C13.7897 129.721 13.9156 129.803 14.0217 129.907C14.1278 130.011 14.2121 130.135 14.2697 130.273C14.3272 130.41 14.3569 130.557 14.3568 130.706C14.3568 131.008 14.2367 131.298 14.023 131.512C13.8092 131.725 13.5193 131.845 13.217 131.845C12.9147 131.845 12.6248 131.725 12.411 131.512C12.1972 131.298 12.0771 131.008 12.0771 130.706C12.0771 130.557 12.1067 130.41 12.1643 130.273C12.2218 130.135 12.3061 130.011 12.4123 129.907C12.5184 129.803 12.6443 129.721 12.7824 129.666C12.9206 129.612 13.0684 129.585 13.217 129.588Z" fill="url(#paint40_linear)"/>
<path d="M13.217 136.581C13.3656 136.578 13.5134 136.605 13.6516 136.659C13.7897 136.714 13.9156 136.796 14.0217 136.9C14.1278 137.004 14.2121 137.129 14.2697 137.266C14.3272 137.403 14.3569 137.55 14.3568 137.699C14.3568 138.001 14.2367 138.291 14.023 138.505C13.8092 138.718 13.5193 138.839 13.217 138.839C12.9147 138.839 12.6248 138.718 12.411 138.505C12.1972 138.291 12.0771 138.001 12.0771 137.699C12.0771 137.55 12.1067 137.403 12.1643 137.266C12.2218 137.129 12.3061 137.004 12.4123 136.9C12.5184 136.796 12.6443 136.714 12.7824 136.659C12.9206 136.605 13.0684 136.578 13.217 136.581Z" fill="url(#paint41_linear)"/>
<path d="M13.217 143.575C13.3656 143.572 13.5134 143.599 13.6516 143.654C13.7897 143.709 13.9156 143.791 14.0217 143.895C14.1278 143.999 14.2121 144.123 14.2697 144.26C14.3272 144.397 14.3569 144.544 14.3568 144.693C14.3568 144.995 14.2367 145.285 14.023 145.499C13.8092 145.713 13.5193 145.833 13.217 145.833C12.9147 145.833 12.6248 145.713 12.411 145.499C12.1972 145.285 12.0771 144.995 12.0771 144.693C12.0771 144.544 12.1067 144.397 12.1643 144.26C12.2218 144.123 12.3061 143.999 12.4123 143.895C12.5184 143.791 12.6443 143.709 12.7824 143.654C12.9206 143.599 13.0684 143.572 13.217 143.575Z" fill="url(#paint42_linear)"/>
<path d="M13.217 150.569C13.3656 150.566 13.5134 150.593 13.6516 150.648C13.7897 150.702 13.9156 150.784 14.0217 150.888C14.1278 150.993 14.2121 151.117 14.2697 151.254C14.3272 151.391 14.3569 151.538 14.3568 151.687C14.3568 151.989 14.2367 152.279 14.023 152.493C13.8092 152.706 13.5193 152.827 13.217 152.827C12.9147 152.827 12.6248 152.706 12.411 152.493C12.1972 152.279 12.0771 151.989 12.0771 151.687C12.0771 151.538 12.1067 151.391 12.1643 151.254C12.2218 151.117 12.3061 150.993 12.4123 150.888C12.5184 150.784 12.6443 150.702 12.7824 150.648C12.9206 150.593 13.0684 150.566 13.217 150.569Z" fill="url(#paint43_linear)"/>
<path d="M7.23388 67.8523C7.21174 68.1392 7.08195 68.4071 6.87054 68.6022C6.65912 68.7973 6.38174 68.9053 6.09404 68.9045C5.94253 68.9073 5.79194 68.8801 5.6511 68.824C5.51027 68.7681 5.38204 68.6846 5.27384 68.5785C5.16566 68.4724 5.07974 68.3457 5.02108 68.2059C4.96244 68.0662 4.93226 67.9161 4.93228 67.7646C4.9119 67.6265 4.9119 67.4862 4.93228 67.3481L7.12428 67.8523H7.23388Z" fill="url(#paint44_linear)"/>
<path d="M6.07192 73.6399C6.22056 73.637 6.3683 73.6637 6.50646 73.7185C6.64464 73.7733 6.77046 73.8553 6.8766 73.9594C6.98274 74.0636 7.06706 74.1879 7.12462 74.3249C7.18216 74.4619 7.21178 74.6092 7.21176 74.7578C7.21176 75.0601 7.09168 75.3501 6.87791 75.5638C6.66415 75.7775 6.37421 75.8976 6.07192 75.8976C5.92038 75.9005 5.76981 75.8733 5.62898 75.8172C5.48816 75.7613 5.35989 75.6778 5.25171 75.5717C5.14354 75.4656 5.05761 75.3389 4.99895 75.199C4.94032 75.0594 4.91013 74.9092 4.91016 74.7578C4.91301 74.6081 4.94532 74.4603 5.00524 74.3233C5.06517 74.1861 5.15156 74.062 5.25945 73.9581C5.36734 73.8542 5.49461 73.7727 5.63402 73.7181C5.77343 73.6635 5.92222 73.637 6.07192 73.6399Z" fill="url(#paint45_linear)"/>
<path d="M6.07192 80.6333C6.22056 80.6304 6.3683 80.6572 6.50646 80.712C6.64464 80.767 6.77046 80.8487 6.8766 80.9529C6.98274 81.057 7.06706 81.1813 7.12462 81.3183C7.18216 81.4553 7.21178 81.6026 7.21176 81.7512C7.21176 82.0535 7.09168 82.3435 6.87791 82.5572C6.66415 82.7709 6.37421 82.891 6.07192 82.891C5.92038 82.8939 5.76981 82.8667 5.62898 82.8106C5.48816 82.7547 5.35989 82.6712 5.25171 82.5651C5.14354 82.459 5.05761 82.3323 4.99895 82.1924C4.94032 82.0528 4.91013 81.9027 4.91016 81.7512C4.91301 81.6015 4.94532 81.4539 5.00524 81.3167C5.06517 81.1795 5.15156 81.0554 5.25945 80.9515C5.36734 80.8476 5.49461 80.7661 5.63402 80.7115C5.77343 80.6569 5.92222 80.6304 6.07192 80.6333Z" fill="url(#paint46_linear)"/>
<path d="M6.07192 87.6272C6.22056 87.6243 6.3683 87.6511 6.50646 87.7059C6.64464 87.7609 6.77046 87.8426 6.8766 87.9468C6.98274 88.0509 7.06706 88.1752 7.12462 88.3122C7.18216 88.4492 7.21178 88.5965 7.21176 88.7451C7.21176 89.0474 7.09168 89.3374 6.87791 89.5511C6.66415 89.7648 6.37421 89.8849 6.07192 89.8849C5.92038 89.8878 5.76981 89.8606 5.62898 89.8045C5.48816 89.7486 5.35989 89.6651 5.25171 89.559C5.14354 89.4529 5.05761 89.3262 4.99895 89.1863C4.94032 89.0467 4.91013 88.8965 4.91016 88.7451C4.91301 88.5954 4.94532 88.4476 5.00524 88.3106C5.06517 88.1734 5.15156 88.0493 5.25945 87.9454C5.36734 87.8418 5.49461 87.7602 5.63402 87.7054C5.77343 87.6508 5.92222 87.6243 6.07192 87.6272Z" fill="url(#paint47_linear)"/>
<path d="M6.07192 136.581C6.22056 136.578 6.3683 136.605 6.50646 136.659C6.64464 136.714 6.77046 136.796 6.8766 136.9C6.98274 137.004 7.06706 137.129 7.12462 137.266C7.18216 137.403 7.21178 137.55 7.21176 137.699C7.22708 137.857 7.20895 138.017 7.15858 138.169C7.10821 138.32 7.02669 138.459 6.91928 138.577C6.81185 138.694 6.68094 138.788 6.535 138.852C6.38903 138.916 6.2313 138.949 6.07192 138.948C5.92038 138.951 5.76981 138.924 5.62898 138.868C5.48816 138.812 5.35989 138.728 5.25171 138.622C5.14354 138.516 5.05761 138.389 4.99895 138.25C4.94032 138.11 4.91013 137.96 4.91016 137.808C4.91301 137.659 4.94532 137.511 5.00524 137.374C5.06517 137.237 5.15156 137.113 5.25945 137.009C5.36734 136.905 5.49461 136.823 5.63402 136.769C5.77343 136.714 5.92222 136.688 6.07192 136.69V136.581Z" fill="url(#paint48_linear)"/>
<path d="M6.07192 143.575C6.22056 143.572 6.3683 143.599 6.50646 143.654C6.64464 143.709 6.77046 143.791 6.8766 143.895C6.98274 143.999 7.06706 144.123 7.12462 144.26C7.18216 144.397 7.21178 144.544 7.21176 144.693C7.21176 144.995 7.09168 145.285 6.87791 145.499C6.66415 145.713 6.37421 145.833 6.07192 145.833C5.92038 145.836 5.76981 145.809 5.62898 145.752C5.48816 145.697 5.35989 145.613 5.25171 145.507C5.14354 145.401 5.05761 145.274 4.99895 145.134C4.94032 144.995 4.91013 144.845 4.91016 144.693C4.91301 144.543 4.94532 144.396 5.00524 144.258C5.06517 144.121 5.15156 143.997 5.25945 143.893C5.36734 143.79 5.49461 143.708 5.63402 143.653C5.77343 143.599 5.92222 143.572 6.07192 143.575Z" fill="url(#paint49_linear)"/>
<path d="M6.07192 150.569C6.22056 150.566 6.3683 150.593 6.50646 150.648C6.64464 150.702 6.77046 150.784 6.8766 150.888C6.98274 150.993 7.06706 151.117 7.12462 151.254C7.18216 151.391 7.21178 151.538 7.21176 151.687C7.21176 151.989 7.09168 152.279 6.87791 152.493C6.66415 152.706 6.37421 152.827 6.07192 152.827C5.92038 152.829 5.76981 152.802 5.62898 152.746C5.48816 152.69 5.35989 152.607 5.25171 152.501C5.14354 152.395 5.05761 152.268 4.99895 152.128C4.94032 151.988 4.91013 151.838 4.91016 151.687C4.91301 151.537 4.94532 151.389 5.00524 151.252C5.06517 151.115 5.15156 150.991 5.25945 150.887C5.36734 150.783 5.49461 150.702 5.63402 150.647C5.77343 150.592 5.92222 150.566 6.07192 150.569Z" fill="url(#paint50_linear)"/>
<path d="M6.07128 157.562C6.35551 157.56 6.63 157.665 6.84087 157.856C7.05174 158.047 7.18378 158.309 7.21112 158.592L5.01912 159.096C4.99623 158.958 4.99623 158.818 5.01912 158.68C5.02197 158.53 5.0543 158.382 5.11423 158.245C5.17416 158.108 5.26052 157.984 5.36841 157.88C5.47628 157.776 5.60357 157.695 5.74298 157.64C5.88239 157.585 6.03121 157.559 6.1809 157.562H6.07128Z" fill="url(#paint51_linear)"/>
<path d="M-1.03062 66.6027C-0.881983 66.5999 -0.734243 66.6266 -0.596081 66.6814C-0.457897 66.7365 -0.332076 66.8182 -0.22594 66.9223C-0.119803 67.0265 -0.0354767 67.1507 0.0220633 67.2877C0.0796034 67.4247 0.109239 67.572 0.109217 67.7207C0.109217 68.0229 -0.0108824 68.3129 -0.224646 68.5267C-0.43841 68.7404 -0.728324 68.8605 -1.03062 68.8605C-1.18216 68.8634 -1.33275 68.8362 -1.47356 68.7801C-1.6144 68.7242 -1.74265 68.6406 -1.85083 68.5346C-1.959 68.4285 -2.04493 68.3018 -2.10358 68.1619C-2.16222 68.0223 -2.19241 67.8724 -2.19238 67.7207C-2.18953 67.571 -2.15722 67.4234 -2.09729 67.2862C-2.03736 67.149 -1.95098 67.0249 -1.84309 66.921C-1.7352 66.8173 -1.60793 66.7358 -1.46854 66.681C-1.32913 66.6264 -1.18031 66.5999 -1.03062 66.6027Z" fill="url(#paint52_linear)"/>
<path d="M-1.03062 73.6399C-0.881983 73.637 -0.734243 73.6637 -0.596081 73.7185C-0.457897 73.7733 -0.332076 73.8553 -0.22594 73.9594C-0.119803 74.0636 -0.0354767 74.1879 0.0220633 74.3249C0.0796034 74.4619 0.109239 74.6092 0.109217 74.7578C0.109217 75.0601 -0.0108824 75.3501 -0.224646 75.5638C-0.43841 75.7775 -0.728324 75.8976 -1.03062 75.8976C-1.18216 75.9005 -1.33275 75.8733 -1.47356 75.8172C-1.6144 75.7613 -1.74265 75.6778 -1.85083 75.5717C-1.959 75.4656 -2.04493 75.3389 -2.10358 75.199C-2.16222 75.0594 -2.19241 74.9092 -2.19238 74.7578C-2.18953 74.6081 -2.15722 74.4603 -2.09729 74.3233C-2.03736 74.1861 -1.95098 74.062 -1.84309 73.9581C-1.7352 73.8542 -1.60793 73.7727 -1.46854 73.7181C-1.32913 73.6635 -1.18031 73.637 -1.03062 73.6399Z" fill="url(#paint53_linear)"/>
<path d="M-1.03062 80.6333C-0.881983 80.6304 -0.734243 80.6572 -0.596081 80.712C-0.457897 80.767 -0.332076 80.8487 -0.22594 80.9529C-0.119803 81.057 -0.0354767 81.1813 0.0220633 81.3183C0.0796034 81.4553 0.109239 81.6026 0.109217 81.7512C0.109217 82.0535 -0.0108824 82.3435 -0.224646 82.5572C-0.43841 82.7709 -0.728324 82.891 -1.03062 82.891C-1.18216 82.8939 -1.33275 82.8667 -1.47356 82.8106C-1.6144 82.7547 -1.74265 82.6712 -1.85083 82.5651C-1.959 82.459 -2.04493 82.3323 -2.10358 82.1924C-2.16222 82.0528 -2.19241 81.9027 -2.19238 81.7512C-2.18953 81.6015 -2.15722 81.4539 -2.09729 81.3167C-2.03736 81.1795 -1.95098 81.0554 -1.84309 80.9515C-1.7352 80.8476 -1.60793 80.7661 -1.46854 80.7115C-1.32913 80.6569 -1.18031 80.6304 -1.03062 80.6333Z" fill="url(#paint54_linear)"/>
<path d="M-1.03062 87.6272C-0.881983 87.6243 -0.734243 87.6511 -0.596081 87.7059C-0.457897 87.7609 -0.332076 87.8426 -0.22594 87.9468C-0.119803 88.0509 -0.0354767 88.1752 0.0220633 88.3122C0.0796034 88.4492 0.109239 88.5965 0.109217 88.7451C0.109217 89.0474 -0.0108824 89.3374 -0.224646 89.5511C-0.43841 89.7648 -0.728324 89.8849 -1.03062 89.8849C-1.18216 89.8878 -1.33275 89.8606 -1.47356 89.8045C-1.6144 89.7486 -1.74265 89.6651 -1.85083 89.559C-1.959 89.4529 -2.04493 89.3262 -2.10358 89.1863C-2.16222 89.0467 -2.19241 88.8965 -2.19238 88.7451C-2.18953 88.5954 -2.15722 88.4476 -2.09729 88.3106C-2.03736 88.1734 -1.95098 88.0493 -1.84309 87.9454C-1.7352 87.8418 -1.60793 87.7602 -1.46854 87.7054C-1.32913 87.6508 -1.18031 87.6243 -1.03062 87.6272Z" fill="url(#paint55_linear)"/>
<path d="M-1.03062 136.581C-0.881983 136.578 -0.734243 136.605 -0.596081 136.659C-0.457897 136.714 -0.332076 136.796 -0.22594 136.9C-0.119803 137.004 -0.0354767 137.129 0.0220633 137.266C0.0796034 137.403 0.109239 137.55 0.109217 137.699C0.109217 138.001 -0.0108824 138.291 -0.224646 138.505C-0.43841 138.718 -0.728324 138.839 -1.03062 138.839C-1.18216 138.841 -1.33275 138.814 -1.47356 138.758C-1.6144 138.702 -1.74265 138.619 -1.85083 138.513C-1.959 138.406 -2.04493 138.28 -2.10358 138.14C-2.16222 138 -2.19241 137.85 -2.19238 137.699C-2.18953 137.549 -2.15722 137.401 -2.09729 137.264C-2.03736 137.127 -1.95098 137.003 -1.84309 136.899C-1.7352 136.795 -1.60793 136.714 -1.46854 136.659C-1.32913 136.604 -1.18031 136.578 -1.03062 136.581Z" fill="url(#paint56_linear)"/>
<path d="M-1.03062 143.575C-0.881983 143.572 -0.734243 143.599 -0.596081 143.654C-0.457897 143.709 -0.332076 143.791 -0.22594 143.895C-0.119803 143.999 -0.0354767 144.123 0.0220633 144.26C0.0796034 144.397 0.109239 144.544 0.109217 144.693C0.109217 144.995 -0.0108824 145.285 -0.224646 145.499C-0.43841 145.713 -0.728324 145.833 -1.03062 145.833C-1.18216 145.836 -1.33275 145.809 -1.47356 145.752C-1.6144 145.697 -1.74265 145.613 -1.85083 145.507C-1.959 145.401 -2.04493 145.274 -2.10358 145.134C-2.16222 144.995 -2.19241 144.845 -2.19238 144.693C-2.18953 144.543 -2.15722 144.396 -2.09729 144.258C-2.03736 144.121 -1.95098 143.997 -1.84309 143.893C-1.7352 143.79 -1.60793 143.708 -1.46854 143.653C-1.32913 143.599 -1.18031 143.572 -1.03062 143.575Z" fill="url(#paint57_linear)"/>
<path d="M-1.03062 150.569C-0.881983 150.566 -0.734243 150.593 -0.596081 150.648C-0.457897 150.702 -0.332076 150.784 -0.22594 150.888C-0.119803 150.993 -0.0354767 151.117 0.0220633 151.254C0.0796034 151.391 0.109239 151.538 0.109217 151.687C0.109217 151.989 -0.0108824 152.279 -0.224646 152.493C-0.43841 152.706 -0.728324 152.827 -1.03062 152.827C-1.18216 152.829 -1.33275 152.802 -1.47356 152.746C-1.6144 152.69 -1.74265 152.607 -1.85083 152.501C-1.959 152.395 -2.04493 152.268 -2.10358 152.128C-2.16222 151.988 -2.19241 151.838 -2.19238 151.687C-2.18953 151.537 -2.15722 151.389 -2.09729 151.252C-2.03736 151.115 -1.95098 150.991 -1.84309 150.887C-1.7352 150.783 -1.60793 150.702 -1.46854 150.647C-1.32913 150.592 -1.18031 150.566 -1.03062 150.569Z" fill="url(#paint58_linear)"/>
<path d="M-1.03062 157.562C-0.881983 157.559 -0.734243 157.586 -0.596081 157.64C-0.457897 157.695 -0.332076 157.777 -0.22594 157.881C-0.119803 157.985 -0.0354767 158.11 0.0220633 158.247C0.0796034 158.384 0.109239 158.531 0.109217 158.68C0.109217 158.982 -0.0108824 159.272 -0.224646 159.486C-0.43841 159.699 -0.728324 159.819 -1.03062 159.819C-1.18216 159.822 -1.33275 159.795 -1.47356 159.739C-1.6144 159.683 -1.74265 159.6 -1.85083 159.494C-1.959 159.387 -2.04493 159.261 -2.10358 159.121C-2.16222 158.981 -2.19241 158.831 -2.19238 158.68C-2.18953 158.53 -2.15722 158.382 -2.09729 158.245C-2.03736 158.108 -1.95098 157.984 -1.84309 157.88C-1.7352 157.776 -1.60793 157.695 -1.46854 157.64C-1.32913 157.585 -1.18031 157.559 -1.03062 157.562Z" fill="url(#paint59_linear)"/>
<path d="M236.978 105.712C236.337 105.712 235.721 105.459 235.265 105.007C234.81 104.556 234.551 103.943 234.545 103.301V101.109C234.551 100.468 234.81 99.8545 235.265 99.4029C235.721 98.9514 236.337 98.698 236.978 98.698C237.62 98.698 238.235 98.9514 238.691 99.4029C239.147 99.8545 239.405 100.468 239.411 101.109V103.301C239.405 103.943 239.147 104.556 238.691 105.007C238.235 105.459 237.62 105.712 236.978 105.712Z" fill="url(#paint60_linear)" fill-opacity="0.5"/>
<path d="M236.978 90.3881C236.337 90.3881 235.721 90.1349 235.265 89.6832C234.81 89.2316 234.551 88.6185 234.545 87.9769V85.7849C234.545 85.1396 234.801 84.5208 235.258 84.0644C235.714 83.6083 236.333 83.3518 236.978 83.3518C237.623 83.3518 238.242 83.6083 238.699 84.0644C239.155 84.5208 239.411 85.1396 239.411 85.7849V87.9769C239.405 88.6185 239.147 89.2316 238.691 89.6832C238.235 90.1349 237.62 90.3881 236.978 90.3881Z" fill="url(#paint61_linear)" fill-opacity="0.5"/>
<path d="M245.744 96.9431H243.552C242.91 96.9374 242.297 96.6786 241.846 96.2229C241.394 95.7671 241.141 95.1516 241.141 94.51C241.141 93.8686 241.394 93.2529 241.846 92.7972C242.297 92.3417 242.91 92.0826 243.552 92.0769H245.744C246.389 92.0769 247.008 92.3334 247.464 92.7895C247.921 93.2459 248.177 93.8647 248.177 94.51C248.177 95.1553 247.921 95.7741 247.464 96.2305C247.008 96.6869 246.389 96.9431 245.744 96.9431Z" fill="url(#paint62_linear)" fill-opacity="0.5"/>
<path d="M230.443 96.9431H228.251C227.606 96.9431 226.987 96.6869 226.531 96.2305C226.075 95.7741 225.818 95.1553 225.818 94.51C225.818 93.8647 226.075 93.2459 226.531 92.7895C226.987 92.3334 227.606 92.0769 228.251 92.0769H230.443C231.085 92.0826 231.698 92.3417 232.15 92.7972C232.602 93.2529 232.855 93.8686 232.855 94.51C232.855 95.1516 232.602 95.7671 232.15 96.2229C231.698 96.6786 231.085 96.9374 230.443 96.9431Z" fill="url(#paint63_linear)" fill-opacity="0.5"/>
<path fill-rule="evenodd" clip-rule="evenodd" d="M177.575 0.000488281H195.111C195.084 2.96984 195.652 5.91448 196.781 8.66054C197.912 11.4066 199.58 13.8985 201.689 15.989C203.798 18.0795 206.303 19.7263 209.058 20.8322C211.814 21.938 214.764 22.4806 217.732 22.4278C220.707 22.4896 223.661 21.9536 226.426 20.8517C229.19 19.7498 231.702 18.1044 233.819 16.0129C235.934 13.9215 237.609 11.4266 238.742 8.67613C239.876 5.92564 240.446 2.97549 240.419 0.000488281H257.495C257.368 10.5142 253.102 20.5539 245.621 27.9414C238.14 35.3291 228.048 39.4686 217.535 39.462C207.02 39.4686 196.926 35.3297 189.442 27.9428C181.956 20.5559 177.685 10.5162 177.553 0.000488281H177.575Z" fill="url(#paint64_linear)"/>
<g opacity="0.59">
<path opacity="0.59" d="M254.097 197.988V201.671C253.135 201.574 252.212 201.242 251.408 200.702C250.605 200.163 249.948 199.434 249.494 198.579C248.639 197.396 248.069 196.584 246.82 196.584C245.57 196.584 245.001 197.396 244.146 198.579C243.709 199.444 243.061 200.182 242.258 200.723C241.456 201.264 240.529 201.59 239.564 201.671C238.602 201.591 237.677 201.265 236.879 200.723C236.081 200.182 235.435 199.443 235.005 198.579C234.15 197.396 233.58 196.584 232.331 196.584C231.081 196.584 230.533 197.396 229.678 198.579C229.242 199.444 228.593 200.182 227.791 200.723C226.989 201.264 226.062 201.59 225.097 201.671C224.135 201.591 223.21 201.265 222.412 200.723C221.614 200.182 220.967 199.443 220.538 198.579C219.683 197.396 219.113 196.584 217.864 196.584C216.614 196.584 216.044 197.396 215.189 198.579C214.762 199.445 214.115 200.184 213.317 200.726C212.517 201.267 211.592 201.593 210.63 201.671C209.668 201.593 208.743 201.267 207.943 200.726C207.145 200.184 206.498 199.445 206.071 198.579C205.216 197.396 204.646 196.584 203.396 196.584C202.147 196.584 201.555 197.396 200.7 198.579C200.284 199.459 199.639 200.21 198.833 200.754C198.028 201.298 197.09 201.614 196.119 201.671C195.149 201.581 194.216 201.252 193.405 200.712C192.594 200.173 191.929 199.44 191.472 198.579C190.617 197.396 190.047 196.584 188.798 196.584C187.548 196.584 186.978 197.396 186.123 198.579C185.688 199.444 185.038 200.182 184.236 200.723C183.434 201.264 182.506 201.59 181.542 201.671C180.58 201.591 179.656 201.265 178.857 200.723C178.058 200.182 177.413 199.443 176.983 198.579C176.128 197.396 175.558 196.584 174.309 196.584C173.059 196.584 172.489 197.396 171.656 198.579C171.221 199.444 170.571 200.182 169.769 200.723C168.967 201.264 168.039 201.59 167.075 201.671C166.113 201.593 165.187 201.267 164.388 200.726C163.589 200.184 162.944 199.445 162.516 198.579C161.661 197.396 161.091 196.584 159.841 196.584C158.592 196.584 158.022 197.396 157.167 198.579C156.739 199.445 156.093 200.184 155.294 200.726C154.495 201.267 153.57 201.593 152.608 201.671C151.646 201.593 150.72 201.267 149.921 200.726C149.122 200.184 148.477 199.445 148.048 198.579C147.193 197.396 146.624 196.584 145.374 196.584C144.125 196.584 143.533 197.396 142.678 198.579C142.262 199.459 141.617 200.21 140.811 200.754C140.005 201.298 139.068 201.614 138.097 201.671V197.988C139.478 197.988 139.938 197.198 140.793 196.014C141.229 195.137 141.888 194.39 142.703 193.847C143.519 193.305 144.462 192.986 145.44 192.923C146.404 193.004 147.332 193.33 148.134 193.871C148.936 194.412 149.586 195.15 150.021 196.014C150.876 197.198 151.446 197.988 152.695 197.988C153.945 197.988 154.493 197.198 155.348 196.014C155.783 195.15 156.433 194.412 157.235 193.871C158.037 193.33 158.965 193.004 159.929 192.923C160.891 193.001 161.817 193.327 162.616 193.868C163.415 194.41 164.06 195.149 164.488 196.014C165.343 197.198 165.913 197.988 167.163 197.988C168.412 197.988 168.982 197.198 169.837 196.014C170.265 195.149 170.91 194.41 171.709 193.868C172.508 193.327 173.434 193.001 174.396 192.923C175.358 193.001 176.284 193.327 177.083 193.868C177.882 194.41 178.527 195.149 178.956 196.014C179.81 197.198 180.38 197.988 181.63 197.988C182.879 197.988 183.449 197.198 184.304 196.014C184.734 195.151 185.38 194.412 186.178 193.871C186.977 193.329 187.902 193.003 188.863 192.923C189.83 193.004 190.761 193.33 191.566 193.871C192.372 194.412 193.026 195.15 193.467 196.014C194.321 197.198 194.782 197.988 196.163 197.988C197.544 197.988 198.004 197.198 198.859 196.014C199.289 195.151 199.935 194.412 200.733 193.871C201.531 193.329 202.456 193.003 203.418 192.923C204.383 193.002 205.312 193.327 206.114 193.868C206.917 194.41 207.566 195.149 208 196.014C208.854 197.198 209.424 197.988 210.674 197.988C211.923 197.988 212.449 197.176 213.392 196.014C213.804 195.173 214.422 194.449 215.189 193.909C215.954 193.368 216.844 193.03 217.776 192.923C218.738 193.001 219.663 193.327 220.463 193.868C221.261 194.41 221.908 195.149 222.335 196.014C223.19 197.198 223.76 197.988 225.009 197.988C226.259 197.988 226.829 197.198 227.684 196.014C228.111 195.149 228.758 194.41 229.556 193.868C230.356 193.327 231.281 193.001 232.243 192.923C233.208 193.004 234.135 193.33 234.937 193.871C235.739 194.412 236.388 195.15 236.824 196.014C237.657 197.198 238.227 197.988 239.477 197.988C240.726 197.988 241.296 197.198 242.151 196.014C242.585 195.153 243.232 194.417 244.029 193.876C244.827 193.335 245.75 193.007 246.71 192.923C247.679 193 248.611 193.325 249.417 193.866C250.222 194.407 250.875 195.147 251.313 196.014C252.256 197.176 252.716 197.988 254.097 197.988Z" fill="url(#paint65_linear)"/>
<path opacity="0.59" d="M267.71 206.56V210.33C266.75 210.234 265.829 209.901 265.029 209.362C264.231 208.823 263.578 208.093 263.128 207.239C262.274 206.055 261.704 205.266 260.454 205.266C259.205 205.266 258.613 206.055 257.78 207.239C257.344 208.103 256.695 208.841 255.893 209.383C255.09 209.924 254.163 210.25 253.199 210.33C252.236 210.253 251.311 209.927 250.511 209.385C249.713 208.844 249.067 208.104 248.639 207.239C247.784 206.055 247.215 205.266 245.965 205.266C244.716 205.266 244.146 206.055 243.291 207.239C242.863 208.104 242.217 208.844 241.419 209.385C240.619 209.927 239.694 210.253 238.731 210.33C237.769 210.253 236.844 209.927 236.044 209.385C235.246 208.844 234.6 208.104 234.172 207.239C233.317 206.055 232.747 205.266 231.498 205.266C230.248 205.266 229.679 206.055 228.824 207.239C228.401 208.091 227.769 208.822 226.987 209.362C226.204 209.903 225.299 210.236 224.352 210.33C223.387 210.25 222.46 209.924 221.658 209.383C220.856 208.841 220.207 208.103 219.771 207.239C218.916 206.055 218.368 205.266 217.118 205.266C215.869 205.266 215.277 206.055 214.422 207.239C213.997 208.134 213.335 208.896 212.509 209.441C211.682 209.986 210.722 210.293 209.731 210.33C208.771 210.234 207.851 209.901 207.051 209.362C206.253 208.823 205.599 208.093 205.15 207.239C204.295 206.055 203.725 205.266 202.476 205.266C201.226 205.266 200.635 206.055 199.78 207.239C199.352 208.104 198.706 208.844 197.908 209.385C197.108 209.927 196.182 210.253 195.22 210.33C194.258 210.253 193.333 209.927 192.533 209.385C191.734 208.844 191.089 208.104 190.661 207.239C189.806 206.055 189.236 205.266 187.987 205.266C186.737 205.266 186.167 206.055 185.312 207.239C184.884 208.104 184.239 208.844 183.44 209.385C182.641 209.927 181.715 210.253 180.753 210.33C179.772 210.249 178.83 209.913 178.018 209.355C177.207 208.798 176.556 208.038 176.128 207.151C175.273 205.968 174.725 205.178 173.476 205.178C172.226 205.178 171.656 205.968 170.801 207.151C170.387 208.026 169.753 208.778 168.962 209.335C168.17 209.892 167.249 210.235 166.286 210.33C165.322 210.25 164.394 209.924 163.592 209.383C162.79 208.841 162.14 208.103 161.705 207.239C160.85 206.055 160.302 205.266 159.052 205.266C157.803 205.266 157.211 206.055 156.356 207.239C155.939 208.122 155.29 208.875 154.48 209.419C153.67 209.963 152.727 210.278 151.753 210.33V206.647C153.134 206.647 153.594 205.858 154.449 204.674C154.882 203.806 155.53 203.063 156.332 202.518C157.135 201.973 158.064 201.643 159.03 201.561C159.995 201.641 160.922 201.968 161.724 202.509C162.526 203.05 163.176 203.788 163.612 204.652C164.467 205.836 165.015 206.625 166.286 206.625C167.557 206.625 168.083 205.836 168.938 204.652C169.374 203.788 170.023 203.05 170.826 202.509C171.628 201.968 172.555 201.641 173.519 201.561C174.481 201.641 175.406 201.967 176.204 202.509C177.003 203.05 177.649 203.788 178.079 204.652C178.934 205.836 179.504 206.625 180.753 206.625C182.003 206.625 182.551 205.836 183.405 204.652C183.841 203.788 184.491 203.05 185.293 202.509C186.095 201.968 187.022 201.641 187.987 201.561C188.948 201.641 189.873 201.967 190.672 202.509C191.47 203.05 192.116 203.788 192.546 204.652C193.401 205.836 193.971 206.625 195.22 206.625C196.47 206.625 197.04 205.836 197.895 204.652C198.322 203.79 198.962 203.053 199.758 202.511C200.553 201.969 201.474 201.642 202.432 201.561C203.394 201.629 204.321 201.943 205.128 202.473C205.935 203.002 206.59 203.73 207.035 204.586C207.89 205.77 208.372 206.56 209.731 206.56C211.09 206.56 211.573 205.77 212.427 204.586C212.87 203.734 213.526 203.01 214.326 202.48C215.128 201.951 216.051 201.635 217.009 201.561C217.973 201.641 218.9 201.968 219.703 202.509C220.505 203.05 221.154 203.788 221.59 204.652C222.445 205.836 222.993 206.625 224.264 206.625C225.536 206.625 226.062 205.836 226.917 204.652C227.353 203.788 228.002 203.05 228.804 202.509C229.606 201.968 230.533 201.641 231.498 201.561C232.46 201.641 233.385 201.967 234.183 202.509C234.981 203.05 235.628 203.788 236.057 204.652C236.912 205.836 237.482 206.625 238.731 206.625C239.981 206.625 240.529 205.836 241.384 204.652C241.82 203.788 242.469 203.05 243.271 202.509C244.073 201.968 245.001 201.641 245.965 201.561C246.927 201.639 247.852 201.964 248.652 202.506C249.45 203.048 250.097 203.787 250.524 204.652C251.379 205.836 251.949 206.625 253.199 206.625C254.448 206.625 255.018 205.836 255.873 204.652C256.3 203.787 256.947 203.048 257.745 202.506C258.545 201.964 259.47 201.639 260.432 201.561C261.399 201.642 262.331 201.968 263.135 202.509C263.942 203.05 264.595 203.788 265.035 204.652C265.868 205.77 266.351 206.56 267.71 206.56Z" fill="url(#paint66_linear)"/>
<path opacity="0.59" d="M282.702 215.132V218.815C281.74 218.718 280.815 218.386 280.013 217.846C279.21 217.307 278.553 216.578 278.099 215.724C277.244 214.54 276.674 213.75 275.425 213.75C274.175 213.75 273.605 214.54 272.75 215.724C272.316 216.585 271.67 217.321 270.872 217.862C270.074 218.403 269.151 218.731 268.191 218.815C267.227 218.736 266.297 218.411 265.495 217.87C264.693 217.328 264.044 216.589 263.61 215.724C262.755 214.54 262.207 213.75 260.936 213.75C259.664 213.75 259.138 214.54 258.283 215.724C257.847 216.588 257.198 217.326 256.396 217.867C255.594 218.408 254.666 218.734 253.702 218.815C252.74 218.735 251.815 218.409 251.017 217.867C250.219 217.326 249.572 216.587 249.143 215.724C248.288 214.54 247.718 213.75 246.468 213.75C245.219 213.75 244.649 214.54 243.816 215.724C243.38 216.588 242.731 217.326 241.929 217.867C241.126 218.408 240.199 218.734 239.235 218.815C238.272 218.737 237.347 218.412 236.547 217.87C235.749 217.328 235.103 216.589 234.675 215.724C233.821 214.54 233.251 213.75 232.001 213.75C230.752 213.75 230.16 214.54 229.305 215.724C228.895 216.607 228.251 217.362 227.444 217.907C226.637 218.451 225.697 218.765 224.724 218.815C223.761 218.718 222.836 218.386 222.034 217.846C221.232 217.307 220.574 216.578 220.121 215.724C219.266 214.54 218.696 213.75 217.446 213.75C216.197 213.75 215.627 214.54 214.772 215.724C214.336 216.588 213.687 217.326 212.885 217.867C212.082 218.408 211.155 218.734 210.191 218.815C209.228 218.735 208.303 218.409 207.506 217.867C206.708 217.326 206.061 216.587 205.631 215.724C204.777 214.54 204.207 213.75 202.957 213.75C201.708 213.75 201.16 214.54 200.305 215.724C199.869 216.588 199.22 217.326 198.418 217.867C197.615 218.408 196.688 218.734 195.723 218.815C194.761 218.737 193.836 218.412 193.037 217.87C192.238 217.328 191.593 216.589 191.164 215.724C190.309 214.54 189.739 213.75 188.49 213.75C187.24 213.75 186.67 214.54 185.816 215.724C185.387 216.589 184.742 217.328 183.943 217.87C183.144 218.412 182.218 218.737 181.256 218.815C180.294 218.737 179.368 218.412 178.569 217.87C177.77 217.328 177.125 216.589 176.697 215.724C175.842 214.54 175.272 213.75 174.023 213.75C172.773 213.75 172.181 214.54 171.326 215.724C170.911 216.603 170.266 217.354 169.46 217.898C168.654 218.442 167.716 218.758 166.745 218.815V215.132C168.126 215.132 168.586 214.342 169.441 213.159C169.866 212.304 170.501 211.571 171.287 211.03C172.074 210.489 172.985 210.158 173.935 210.067C174.9 210.146 175.828 210.471 176.631 211.012C177.433 211.554 178.083 212.293 178.516 213.159C179.371 214.342 179.941 215.132 181.19 215.132C182.44 215.132 183.01 214.342 183.865 213.159C184.293 212.293 184.938 211.554 185.737 211.012C186.536 210.471 187.462 210.145 188.424 210.067C189.386 210.145 190.312 210.471 191.111 211.012C191.91 211.554 192.555 212.293 192.983 213.159C193.838 214.342 194.408 215.132 195.658 215.132C196.907 215.132 197.477 214.342 198.332 213.159C198.76 212.293 199.406 211.554 200.204 211.012C201.004 210.471 201.929 210.145 202.891 210.067C203.856 210.148 204.783 210.474 205.585 211.015C206.388 211.556 207.036 212.294 207.473 213.159C208.306 214.342 208.876 215.132 210.125 215.132C211.374 215.132 211.944 214.342 212.799 213.159C213.233 212.297 213.88 211.561 214.678 211.02C215.476 210.479 216.399 210.151 217.359 210.067C218.325 210.148 219.255 210.474 220.061 211.015C220.866 211.556 221.521 212.294 221.962 213.159C222.817 214.342 223.277 215.132 224.658 215.132C226.039 215.132 226.499 214.342 227.354 213.159C227.784 212.295 228.43 211.556 229.228 211.015C230.026 210.474 230.951 210.147 231.913 210.067C232.88 210.141 233.81 210.465 234.612 211.007C235.416 211.549 236.065 212.29 236.495 213.159C237.35 214.342 237.92 215.132 239.169 215.132C240.418 215.132 240.988 214.342 241.843 213.159C242.271 212.293 242.917 211.554 243.715 211.012C244.515 210.471 245.44 210.145 246.403 210.067C247.365 210.145 248.29 210.471 249.09 211.012C249.888 211.554 250.535 212.293 250.962 213.159C251.817 214.342 252.387 215.132 253.636 215.132C254.886 215.132 255.456 214.342 256.31 213.159C256.74 212.295 257.387 211.556 258.185 211.015C258.983 210.474 259.908 210.147 260.87 210.067C261.834 210.148 262.762 210.474 263.564 211.015C264.366 211.556 265.015 212.294 265.451 213.159C266.306 214.342 266.854 215.132 268.125 215.132C269.397 215.132 269.923 214.342 270.778 213.159C271.212 212.297 271.858 211.561 272.656 211.02C273.454 210.479 274.377 210.151 275.337 210.067C276.306 210.144 277.237 210.469 278.044 211.01C278.849 211.552 279.502 212.291 279.94 213.159C280.861 214.342 281.343 215.132 282.702 215.132Z" fill="url(#paint67_linear)"/>
<path opacity="0.59" d="M294.779 221.664V225.434H293.771C293.508 225.098 293.267 224.77 293.047 224.448C292.193 223.286 291.623 222.497 290.373 222.497C290.169 222.474 289.963 222.474 289.759 222.497C288.905 222.716 288.4 223.418 287.699 224.382C287.48 224.704 287.239 225.033 286.976 225.369H279.26C278.997 225.033 278.756 224.704 278.536 224.382C277.681 223.199 277.112 222.409 275.862 222.409C274.613 222.409 274.065 223.199 273.21 224.382L272.465 225.369H264.793C264.529 225.033 264.288 224.704 264.069 224.382C263.214 223.199 262.644 222.409 261.395 222.409C260.145 222.409 259.576 223.199 258.721 224.382C258.501 224.711 258.282 225.04 258.019 225.369H250.325C250.062 225.033 249.821 224.704 249.602 224.382C248.747 223.199 248.177 222.409 246.928 222.409C245.678 222.409 245.086 223.199 244.232 224.382C244.012 224.711 243.793 225.04 243.53 225.369H235.792L235.047 224.382C234.192 223.199 233.622 222.409 232.373 222.409C231.123 222.409 230.553 223.199 229.699 224.382C229.479 224.704 229.238 225.033 228.975 225.369H221.281C221.018 225.033 220.777 224.704 220.558 224.382C219.703 223.199 219.155 222.409 217.884 222.409C216.612 222.409 216.086 223.199 215.231 224.382C214.99 224.711 214.771 225.04 214.486 225.369H206.814C206.551 225.033 206.31 224.704 206.091 224.382C205.236 223.199 204.666 222.409 203.417 222.409C202.167 222.409 201.597 223.199 200.764 224.382L200.019 225.369H192.325C192.062 225.04 191.843 224.711 191.624 224.382C190.769 223.199 190.199 222.409 188.949 222.409C187.7 222.409 187.108 223.199 186.253 224.382L185.552 225.369H181.672V223.812C183.053 223.812 183.513 223.023 184.368 221.818C184.804 220.961 185.452 220.229 186.25 219.692C187.048 219.155 187.969 218.831 188.927 218.749C189.891 218.823 190.818 219.144 191.621 219.682C192.424 220.219 193.074 220.955 193.509 221.818C194.364 223.023 194.933 223.812 196.183 223.812C197.432 223.812 198.002 223.023 198.835 221.818C199.276 220.959 199.927 220.227 200.729 219.69C201.529 219.153 202.454 218.829 203.417 218.749C204.377 218.826 205.299 219.149 206.097 219.687C206.895 220.224 207.542 220.958 207.976 221.818C208.831 223.023 209.401 223.812 210.65 223.812C211.9 223.812 212.469 223.023 213.324 221.818C213.758 220.958 214.405 220.224 215.203 219.687C216.001 219.149 216.924 218.826 217.884 218.749C218.846 218.829 219.771 219.153 220.571 219.69C221.373 220.227 222.024 220.959 222.465 221.818C223.32 223.023 223.868 223.812 225.117 223.812C226.367 223.812 226.937 223.023 227.792 221.818C228.228 220.961 228.877 220.229 229.674 219.692C230.47 219.155 231.393 218.831 232.351 218.749C233.315 218.829 234.243 219.153 235.047 219.69C235.854 220.226 236.509 220.959 236.954 221.818C237.809 223.023 238.269 223.812 239.65 223.812C241.031 223.812 241.492 223.023 242.346 221.818C242.783 220.961 243.431 220.229 244.229 219.692C245.025 219.155 245.948 218.831 246.906 218.749C247.868 218.827 248.793 219.15 249.595 219.687C250.398 220.224 251.049 220.958 251.487 221.818C252.342 223.023 252.912 223.812 254.161 223.812C255.411 223.812 255.981 223.023 256.836 221.818C257.27 220.958 257.916 220.224 258.714 219.687C259.512 219.149 260.435 218.826 261.395 218.749C262.368 218.825 263.306 219.155 264.113 219.705C264.92 220.254 265.571 221.005 265.998 221.883C266.853 223.089 267.423 223.878 268.672 223.878C269.922 223.878 270.492 223.089 271.347 221.883C271.785 221.028 272.434 220.297 273.23 219.76C274.027 219.224 274.948 218.898 275.906 218.815C276.868 218.893 277.793 219.216 278.596 219.753C279.398 220.29 280.049 221.023 280.487 221.883C281.342 223.089 281.89 223.878 283.161 223.878C284.433 223.878 284.959 223.089 285.814 221.883C286.077 221.533 286.34 221.138 286.647 220.787C287.076 220.19 287.638 219.701 288.289 219.358C288.94 219.016 289.661 218.83 290.395 218.815C291.305 218.887 292.184 219.185 292.949 219.683C293.714 220.18 294.343 220.861 294.779 221.664Z" fill="url(#paint68_linear)"/>
</g>
</g>
<path d="M96.5118 113.978C96.5118 123.578 90.1516 129.474 79.8216 129.474H69.9958C69.7339 129.474 69.4743 129.422 69.2322 129.322C68.99 129.222 68.7697 129.075 68.5844 128.89C68.399 128.705 68.2522 128.485 68.1519 128.243C68.0514 128.001 68 127.741 68 127.479V100.432C68.0114 99.9106 68.2267 99.4146 68.5998 99.0498C68.9728 98.6852 69.4741 98.4812 69.9958 98.4812H79.8216C90.1516 98.4812 96.5118 104.443 96.5118 113.978ZM87.3661 113.978C87.3661 109.594 84.6904 106.81 79.8216 106.81H77.1675V121.145H79.8216C84.6904 121.145 87.3661 118.405 87.3661 113.978Z" fill="black"/>
<path d="M119.344 121.978C119.6 121.978 119.852 122.029 120.088 122.127C120.323 122.225 120.537 122.369 120.717 122.551C120.896 122.732 121.038 122.947 121.134 123.184C121.229 123.42 121.277 123.674 121.274 123.929V127.523C121.28 128.043 121.081 128.544 120.719 128.917C120.358 129.291 119.864 129.507 119.344 129.518H102.193C101.672 129.507 101.175 129.291 100.81 128.919C100.445 128.546 100.241 128.045 100.241 127.523V100.432C100.252 99.9183 100.462 99.4285 100.825 99.0651C101.189 98.7017 101.679 98.4925 102.193 98.4813H118.884C119.143 98.4785 119.4 98.5265 119.641 98.6231C119.881 98.7195 120.101 98.8625 120.286 99.0435C120.471 99.2247 120.619 99.4405 120.721 99.6787C120.823 99.9171 120.877 100.173 120.879 100.432V104.071C120.877 104.33 120.823 104.586 120.721 104.824C120.619 105.062 120.471 105.278 120.286 105.459C120.101 105.64 119.881 105.783 119.641 105.88C119.4 105.976 119.143 106.024 118.884 106.021H109.409V110.252H117.524C118.038 110.263 118.528 110.472 118.892 110.835C119.255 111.199 119.465 111.689 119.476 112.202V115.402C119.476 115.922 119.271 116.42 118.905 116.79C118.54 117.159 118.044 117.369 117.524 117.375H109.409V121.978H119.344Z" fill="black"/>
<path d="M144.849 128.005L143.862 124.455H134.388L133.423 128.005C133.311 128.426 133.064 128.799 132.719 129.064C132.373 129.33 131.95 129.474 131.514 129.474H125.264C125.015 129.471 124.772 129.409 124.552 129.293C124.333 129.177 124.144 129.01 124.003 128.806C123.861 128.602 123.771 128.367 123.738 128.121C123.705 127.875 123.732 127.625 123.816 127.392L132.94 100.081C133.103 99.6254 133.399 99.229 133.79 98.9436C134.181 98.6582 134.649 98.4972 135.133 98.4812H143.007C143.49 98.5 143.957 98.6624 144.347 98.9472C144.738 99.2322 145.035 99.627 145.2 100.081L154.324 127.392C154.404 127.631 154.427 127.885 154.389 128.134C154.351 128.383 154.253 128.62 154.105 128.823C153.957 129.027 153.762 129.193 153.537 129.306C153.312 129.419 153.063 129.477 152.81 129.474H146.626C146.212 129.45 145.817 129.294 145.497 129.03C145.178 128.766 144.951 128.407 144.849 128.005ZM142.064 117.967L139.125 107.38L136.208 117.967H142.064Z" fill="black"/>
<path d="M176.609 121.145C177.123 121.151 177.614 121.359 177.975 121.724C178.336 122.089 178.539 122.582 178.539 123.096V127.48C178.545 127.999 178.346 128.5 177.984 128.873C177.623 129.247 177.129 129.463 176.609 129.474H159.831C159.569 129.474 159.309 129.423 159.067 129.322C158.825 129.222 158.605 129.075 158.42 128.89C158.234 128.705 158.087 128.485 157.987 128.243C157.887 128.001 157.835 127.742 157.835 127.48V100.432C157.838 100.173 157.892 99.9171 157.994 99.6787C158.096 99.4405 158.243 99.2247 158.429 99.0435C158.614 98.8625 158.833 98.7195 159.074 98.6231C159.314 98.5265 159.572 98.4785 159.831 98.4813H165.051C165.565 98.4925 166.055 98.7017 166.419 99.0651C166.782 99.4285 166.992 99.9183 167.003 100.432V121.145H176.609Z" fill="black"/>
<path d="M205.581 119.983C205.581 125.353 200.931 130 193.409 130C188.321 130 182.794 128.268 180.842 123.424C180.758 123.225 180.718 123.011 180.722 122.795C180.726 122.58 180.775 122.367 180.866 122.171C180.957 121.975 181.087 121.801 181.249 121.658C181.411 121.515 181.601 121.408 181.807 121.342L186.764 119.786C187.104 119.68 187.47 119.694 187.802 119.826C188.133 119.957 188.409 120.199 188.584 120.509C189.101 121.165 189.772 121.683 190.537 122.019C191.302 122.356 192.137 122.499 192.97 122.438C195.361 122.438 196.37 121.342 196.37 120.246C196.37 118.383 194.176 118.208 190.974 117.441C184.965 115.994 181.544 113.561 181.544 107.884C181.544 102.207 186.5 98.0209 193.321 98.0209C195.585 97.8819 197.838 98.4372 199.778 99.6122C201.718 100.787 203.253 102.526 204.177 104.596C204.266 104.813 204.307 105.045 204.298 105.279C204.288 105.512 204.228 105.741 204.122 105.949C204.015 106.157 203.866 106.34 203.682 106.485C203.499 106.63 203.286 106.733 203.059 106.788L198.146 107.972C197.835 108.044 197.51 108.025 197.21 107.916C196.911 107.807 196.649 107.613 196.457 107.358C196.123 106.867 195.666 106.473 195.131 106.215C194.595 105.957 194.001 105.845 193.409 105.89C191.588 105.89 190.317 106.657 190.317 108.081C190.317 109.857 193.014 110.076 195.405 110.734C202.993 112.553 205.581 115.073 205.581 119.983Z" fill="black"/>
<defs>
<linearGradient id="paint0_linear" x1="136.952" y1="0.176423" x2="136.952" y2="228" gradientUnits="userSpaceOnUse">
<stop stop-color="#FF9894"/>
<stop offset="1" stop-color="#FE5252"/>
</linearGradient>
<linearGradient id="paint1_linear" x1="136.984" y1="0" x2="136.984" y2="227.846" gradientUnits="userSpaceOnUse">
<stop stop-color="#6FD74A"/>
<stop offset="1" stop-color="#24A240"/>
</linearGradient>
<linearGradient id="paint2_linear" x1="40.5732" y1="102.732" x2="42.1296" y2="102.732" gradientUnits="userSpaceOnUse">
<stop offset="0.15" stop-color="#9F3632"/>
<stop offset="0.48" stop-color="#C04342"/>
<stop offset="0.79" stop-color="#E25052"/>
</linearGradient>
<linearGradient id="paint3_linear" x1="-160.265" y1="-11.8214" x2="-157.848" y2="-11.8214" gradientUnits="userSpaceOnUse">
<stop offset="0.15" stop-color="#9F3632"/>
<stop offset="0.48" stop-color="#C04342"/>
<stop offset="0.79" stop-color="#E25052"/>
</linearGradient>
<linearGradient id="paint4_linear" x1="-160.265" y1="2.37543" x2="-157.848" y2="2.37543" gradientUnits="userSpaceOnUse">
<stop offset="0.15" stop-color="#9F3632"/>
<stop offset="0.48" stop-color="#C04342"/>
<stop offset="0.79" stop-color="#E25052"/>
</linearGradient>
<linearGradient id="paint5_linear" x1="-95.231" y1="17.5678" x2="-94.1261" y2="17.5678" gradientUnits="userSpaceOnUse">
<stop offset="0.15" stop-color="#9F3632"/>
<stop offset="0.48" stop-color="#C04342"/>
<stop offset="0.79" stop-color="#E25052"/>
</linearGradient>
<linearGradient id="paint6_linear" x1="-174.889" y1="-54.4128" x2="-172.472" y2="-54.4128" gradientUnits="userSpaceOnUse">
<stop offset="0.15" stop-color="#9F3632"/>
<stop offset="0.48" stop-color="#C04342"/>
<stop offset="0.79" stop-color="#E25052"/>
</linearGradient>
<linearGradient id="paint7_linear" x1="-174.889" y1="-40.2162" x2="-172.472" y2="-40.2162" gradientUnits="userSpaceOnUse">
<stop offset="0.15" stop-color="#9F3632"/>
<stop offset="0.48" stop-color="#C04342"/>
<stop offset="0.79" stop-color="#E25052"/>
</linearGradient>
<linearGradient id="paint8_linear" x1="-174.889" y1="-22.2406" x2="-172.472" y2="-22.2406" gradientUnits="userSpaceOnUse">
<stop offset="0.15" stop-color="#9F3632"/>
<stop offset="0.48" stop-color="#C04342"/>
<stop offset="0.79" stop-color="#E25052"/>
</linearGradient>
<linearGradient id="paint9_linear" x1="-174.889" y1="-11.8214" x2="-172.472" y2="-11.8214" gradientUnits="userSpaceOnUse">
<stop offset="0.15" stop-color="#9F3632"/>
<stop offset="0.48" stop-color="#C04342"/>
<stop offset="0.79" stop-color="#E25052"/>
</linearGradient>
<linearGradient id="paint10_linear" x1="-174.889" y1="2.37543" x2="-172.472" y2="2.37543" gradientUnits="userSpaceOnUse">
<stop offset="0.15" stop-color="#9F3632"/>
<stop offset="0.48" stop-color="#C04342"/>
<stop offset="0.79" stop-color="#E25052"/>
</linearGradient>
<linearGradient id="paint11_linear" x1="-174.889" y1="16.5722" x2="-172.472" y2="16.5722" gradientUnits="userSpaceOnUse">
<stop offset="0.15" stop-color="#9F3632"/>
<stop offset="0.48" stop-color="#C04342"/>
<stop offset="0.79" stop-color="#E25052"/>
</linearGradient>
<linearGradient id="paint12_linear" x1="-174.889" y1="30.7694" x2="-172.472" y2="30.7694" gradientUnits="userSpaceOnUse">
<stop offset="0.15" stop-color="#9F3632"/>
<stop offset="0.48" stop-color="#C04342"/>
<stop offset="0.79" stop-color="#E25052"/>
</linearGradient>
<linearGradient id="paint13_linear" x1="-175.37" y1="40.5145" x2="-172.948" y2="40.5145" gradientUnits="userSpaceOnUse">
<stop offset="0.15" stop-color="#9F3632"/>
<stop offset="0.48" stop-color="#C04342"/>
<stop offset="0.79" stop-color="#E25052"/>
</linearGradient>
<linearGradient id="paint14_linear" x1="-189.473" y1="-68.61" x2="-187.056" y2="-68.61" gradientUnits="userSpaceOnUse">
<stop offset="0.15" stop-color="#9F3632"/>
<stop offset="0.48" stop-color="#C04342"/>
<stop offset="0.79" stop-color="#E25052"/>
</linearGradient>
<linearGradient id="paint15_linear" x1="-189.473" y1="-54.4128" x2="-187.056" y2="-54.4128" gradientUnits="userSpaceOnUse">
<stop offset="0.15" stop-color="#9F3632"/>
<stop offset="0.48" stop-color="#C04342"/>
<stop offset="0.79" stop-color="#E25052"/>
</linearGradient>
<linearGradient id="paint16_linear" x1="-189.473" y1="-40.2162" x2="-187.056" y2="-40.2162" gradientUnits="userSpaceOnUse">
<stop offset="0.15" stop-color="#9F3632"/>
<stop offset="0.48" stop-color="#C04342"/>
<stop offset="0.79" stop-color="#E25052"/>
</linearGradient>
<linearGradient id="paint17_linear" x1="-189.473" y1="-25.9529" x2="-187.056" y2="-25.9529" gradientUnits="userSpaceOnUse">
<stop offset="0.15" stop-color="#9F3632"/>
<stop offset="0.48" stop-color="#C04342"/>
<stop offset="0.79" stop-color="#E25052"/>
</linearGradient>
<linearGradient id="paint18_linear" x1="-189.473" y1="-11.8214" x2="-187.056" y2="-11.8214" gradientUnits="userSpaceOnUse">
<stop offset="0.15" stop-color="#9F3632"/>
<stop offset="0.48" stop-color="#C04342"/>
<stop offset="0.79" stop-color="#E25052"/>
</linearGradient>
<linearGradient id="paint19_linear" x1="-189.473" y1="2.37543" x2="-187.056" y2="2.37543" gradientUnits="userSpaceOnUse">
<stop offset="0.15" stop-color="#9F3632"/>
<stop offset="0.48" stop-color="#C04342"/>
<stop offset="0.79" stop-color="#E25052"/>
</linearGradient>
<linearGradient id="paint20_linear" x1="-189.473" y1="16.5722" x2="-187.056" y2="16.5722" gradientUnits="userSpaceOnUse">
<stop offset="0.15" stop-color="#9F3632"/>
<stop offset="0.48" stop-color="#C04342"/>
<stop offset="0.79" stop-color="#E25052"/>
</linearGradient>
<linearGradient id="paint21_linear" x1="-189.473" y1="30.7694" x2="-187.056" y2="30.7694" gradientUnits="userSpaceOnUse">
<stop offset="0.15" stop-color="#9F3632"/>
<stop offset="0.48" stop-color="#C04342"/>
<stop offset="0.79" stop-color="#E25052"/>
</linearGradient>
<linearGradient id="paint22_linear" x1="-189.473" y1="44.9655" x2="-187.056" y2="44.9655" gradientUnits="userSpaceOnUse">
<stop offset="0.15" stop-color="#9F3632"/>
<stop offset="0.48" stop-color="#C04342"/>
<stop offset="0.79" stop-color="#E25052"/>
</linearGradient>
<linearGradient id="paint23_linear" x1="-189.473" y1="59.1642" x2="-187.056" y2="59.1642" gradientUnits="userSpaceOnUse">
<stop offset="0.15" stop-color="#9F3632"/>
<stop offset="0.48" stop-color="#C04342"/>
<stop offset="0.79" stop-color="#E25052"/>
</linearGradient>
<linearGradient id="paint24_linear" x1="-204.078" y1="-82.8074" x2="-201.661" y2="-82.8074" gradientUnits="userSpaceOnUse">
<stop offset="0.15" stop-color="#9F3632"/>
<stop offset="0.48" stop-color="#C04342"/>
<stop offset="0.79" stop-color="#E25052"/>
</linearGradient>
<linearGradient id="paint25_linear" x1="-204.078" y1="-68.61" x2="-201.661" y2="-68.61" gradientUnits="userSpaceOnUse">
<stop offset="0.15" stop-color="#9F3632"/>
<stop offset="0.48" stop-color="#C04342"/>
<stop offset="0.79" stop-color="#E25052"/>
</linearGradient>
<linearGradient id="paint26_linear" x1="-201.929" y1="-54.4128" x2="-199.536" y2="-54.4128" gradientUnits="userSpaceOnUse">
<stop offset="0.15" stop-color="#9F3632"/>
<stop offset="0.48" stop-color="#C04342"/>
<stop offset="0.79" stop-color="#E25052"/>
</linearGradient>
<linearGradient id="paint27_linear" x1="-204.078" y1="-40.2162" x2="-201.661" y2="-40.2162" gradientUnits="userSpaceOnUse">
<stop offset="0.15" stop-color="#9F3632"/>
<stop offset="0.48" stop-color="#C04342"/>
<stop offset="0.79" stop-color="#E25052"/>
</linearGradient>
<linearGradient id="paint28_linear" x1="-204.078" y1="-25.9529" x2="-201.661" y2="-25.9529" gradientUnits="userSpaceOnUse">
<stop offset="0.15" stop-color="#9F3632"/>
<stop offset="0.48" stop-color="#C04342"/>
<stop offset="0.79" stop-color="#E25052"/>
</linearGradient>
<linearGradient id="paint29_linear" x1="-204.078" y1="-11.8214" x2="-201.661" y2="-11.8214" gradientUnits="userSpaceOnUse">
<stop offset="0.15" stop-color="#9F3632"/>
<stop offset="0.48" stop-color="#C04342"/>
<stop offset="0.79" stop-color="#E25052"/>
</linearGradient>
<linearGradient id="paint30_linear" x1="-204.078" y1="2.37543" x2="-201.661" y2="2.37543" gradientUnits="userSpaceOnUse">
<stop offset="0.15" stop-color="#9F3632"/>
<stop offset="0.48" stop-color="#C04342"/>
<stop offset="0.79" stop-color="#E25052"/>
</linearGradient>
<linearGradient id="paint31_linear" x1="-204.078" y1="16.5722" x2="-201.661" y2="16.5722" gradientUnits="userSpaceOnUse">
<stop offset="0.15" stop-color="#9F3632"/>
<stop offset="0.48" stop-color="#C04342"/>
<stop offset="0.79" stop-color="#E25052"/>
</linearGradient>
<linearGradient id="paint32_linear" x1="-204.078" y1="30.7694" x2="-201.661" y2="30.7694" gradientUnits="userSpaceOnUse">
<stop offset="0.15" stop-color="#9F3632"/>
<stop offset="0.48" stop-color="#C04342"/>
<stop offset="0.79" stop-color="#E25052"/>
</linearGradient>
<linearGradient id="paint33_linear" x1="-204.078" y1="44.9655" x2="-201.661" y2="44.9655" gradientUnits="userSpaceOnUse">
<stop offset="0.15" stop-color="#9F3632"/>
<stop offset="0.48" stop-color="#C04342"/>
<stop offset="0.79" stop-color="#E25052"/>
</linearGradient>
<linearGradient id="paint34_linear" x1="-204.078" y1="59.1642" x2="-201.661" y2="59.1642" gradientUnits="userSpaceOnUse">
<stop offset="0.15" stop-color="#9F3632"/>
<stop offset="0.48" stop-color="#C04342"/>
<stop offset="0.79" stop-color="#E25052"/>
</linearGradient>
<linearGradient id="paint35_linear" x1="-204.078" y1="73.3612" x2="-201.661" y2="73.3612" gradientUnits="userSpaceOnUse">
<stop offset="0.15" stop-color="#9F3632"/>
<stop offset="0.48" stop-color="#C04342"/>
<stop offset="0.79" stop-color="#E25052"/>
</linearGradient>
<linearGradient id="paint36_linear" x1="-216.484" y1="-82.7927" x2="-214.113" y2="-82.7927" gradientUnits="userSpaceOnUse">
<stop offset="0.15" stop-color="#9F3632"/>
<stop offset="0.48" stop-color="#C04342"/>
<stop offset="0.79" stop-color="#E25052"/>
</linearGradient>
<linearGradient id="paint37_linear" x1="-216.484" y1="-68.5961" x2="-214.113" y2="-68.5961" gradientUnits="userSpaceOnUse">
<stop offset="0.15" stop-color="#9F3632"/>
<stop offset="0.48" stop-color="#C04342"/>
<stop offset="0.79" stop-color="#E25052"/>
</linearGradient>
<linearGradient id="paint38_linear" x1="-216.484" y1="-54.3996" x2="-214.113" y2="-54.3996" gradientUnits="userSpaceOnUse">
<stop offset="0.15" stop-color="#9F3632"/>
<stop offset="0.48" stop-color="#C04342"/>
<stop offset="0.79" stop-color="#E25052"/>
</linearGradient>
<linearGradient id="paint39_linear" x1="-216.484" y1="-40.2037" x2="-214.113" y2="-40.2037" gradientUnits="userSpaceOnUse">
<stop offset="0.15" stop-color="#9F3632"/>
<stop offset="0.48" stop-color="#C04342"/>
<stop offset="0.79" stop-color="#E25052"/>
</linearGradient>
<linearGradient id="paint40_linear" x1="-216.484" y1="30.7787" x2="-214.113" y2="30.7787" gradientUnits="userSpaceOnUse">
<stop offset="0.15" stop-color="#9F3632"/>
<stop offset="0.48" stop-color="#C04342"/>
<stop offset="0.79" stop-color="#E25052"/>
</linearGradient>
<linearGradient id="paint41_linear" x1="-216.484" y1="44.974" x2="-214.113" y2="44.974" gradientUnits="userSpaceOnUse">
<stop offset="0.15" stop-color="#9F3632"/>
<stop offset="0.48" stop-color="#C04342"/>
<stop offset="0.79" stop-color="#E25052"/>
</linearGradient>
<linearGradient id="paint42_linear" x1="-216.484" y1="59.172" x2="-214.113" y2="59.172" gradientUnits="userSpaceOnUse">
<stop offset="0.15" stop-color="#9F3632"/>
<stop offset="0.48" stop-color="#C04342"/>
<stop offset="0.79" stop-color="#E25052"/>
</linearGradient>
<linearGradient id="paint43_linear" x1="-216.484" y1="73.3684" x2="-214.113" y2="73.3684" gradientUnits="userSpaceOnUse">
<stop offset="0.15" stop-color="#9F3632"/>
<stop offset="0.48" stop-color="#C04342"/>
<stop offset="0.79" stop-color="#E25052"/>
</linearGradient>
<linearGradient id="paint44_linear" x1="-234.927" y1="-45.19" x2="-232.494" y2="-45.19" gradientUnits="userSpaceOnUse">
<stop offset="0.15" stop-color="#9F3632"/>
<stop offset="0.48" stop-color="#C04342"/>
<stop offset="0.79" stop-color="#E25052"/>
</linearGradient>
<linearGradient id="paint45_linear" x1="-233.351" y1="-82.8074" x2="-230.934" y2="-82.8074" gradientUnits="userSpaceOnUse">
<stop offset="0.15" stop-color="#9F3632"/>
<stop offset="0.48" stop-color="#C04342"/>
<stop offset="0.79" stop-color="#E25052"/>
</linearGradient>
<linearGradient id="paint46_linear" x1="-233.351" y1="-68.61" x2="-230.934" y2="-68.61" gradientUnits="userSpaceOnUse">
<stop offset="0.15" stop-color="#9F3632"/>
<stop offset="0.48" stop-color="#C04342"/>
<stop offset="0.79" stop-color="#E25052"/>
</linearGradient>
<linearGradient id="paint47_linear" x1="-233.351" y1="-54.4128" x2="-230.934" y2="-54.4128" gradientUnits="userSpaceOnUse">
<stop offset="0.15" stop-color="#9F3632"/>
<stop offset="0.48" stop-color="#C04342"/>
<stop offset="0.79" stop-color="#E25052"/>
</linearGradient>
<linearGradient id="paint48_linear" x1="-233.897" y1="40.5191" x2="-231.475" y2="40.5191" gradientUnits="userSpaceOnUse">
<stop offset="0.15" stop-color="#9F3632"/>
<stop offset="0.48" stop-color="#C04342"/>
<stop offset="0.79" stop-color="#E25052"/>
</linearGradient>
<linearGradient id="paint49_linear" x1="-233.351" y1="59.1642" x2="-230.934" y2="59.1642" gradientUnits="userSpaceOnUse">
<stop offset="0.15" stop-color="#9F3632"/>
<stop offset="0.48" stop-color="#C04342"/>
<stop offset="0.79" stop-color="#E25052"/>
</linearGradient>
<linearGradient id="paint50_linear" x1="-233.351" y1="73.3612" x2="-230.934" y2="73.3612" gradientUnits="userSpaceOnUse">
<stop offset="0.15" stop-color="#9F3632"/>
<stop offset="0.48" stop-color="#C04342"/>
<stop offset="0.79" stop-color="#E25052"/>
</linearGradient>
<linearGradient id="paint51_linear" x1="-223.692" y1="109.743" x2="-221.372" y2="109.743" gradientUnits="userSpaceOnUse">
<stop offset="0.15" stop-color="#9F3632"/>
<stop offset="0.48" stop-color="#C04342"/>
<stop offset="0.79" stop-color="#E25052"/>
</linearGradient>
<linearGradient id="paint52_linear" x1="-247.933" y1="-97.048" x2="-245.518" y2="-97.048" gradientUnits="userSpaceOnUse">
<stop offset="0.15" stop-color="#9F3632"/>
<stop offset="0.48" stop-color="#C04342"/>
<stop offset="0.79" stop-color="#E25052"/>
</linearGradient>
<linearGradient id="paint53_linear" x1="-247.933" y1="-82.8074" x2="-245.518" y2="-82.8074" gradientUnits="userSpaceOnUse">
<stop offset="0.15" stop-color="#9F3632"/>
<stop offset="0.48" stop-color="#C04342"/>
<stop offset="0.79" stop-color="#E25052"/>
</linearGradient>
<linearGradient id="paint54_linear" x1="-247.933" y1="-68.61" x2="-245.518" y2="-68.61" gradientUnits="userSpaceOnUse">
<stop offset="0.15" stop-color="#9F3632"/>
<stop offset="0.48" stop-color="#C04342"/>
<stop offset="0.79" stop-color="#E25052"/>
</linearGradient>
<linearGradient id="paint55_linear" x1="-247.933" y1="-54.4128" x2="-245.518" y2="-54.4128" gradientUnits="userSpaceOnUse">
<stop offset="0.15" stop-color="#9F3632"/>
<stop offset="0.48" stop-color="#C04342"/>
<stop offset="0.79" stop-color="#E25052"/>
</linearGradient>
<linearGradient id="paint56_linear" x1="-247.933" y1="44.9655" x2="-245.518" y2="44.9655" gradientUnits="userSpaceOnUse">
<stop offset="0.15" stop-color="#9F3632"/>
<stop offset="0.48" stop-color="#C04342"/>
<stop offset="0.79" stop-color="#E25052"/>
</linearGradient>
<linearGradient id="paint57_linear" x1="-247.933" y1="59.1642" x2="-245.518" y2="59.1642" gradientUnits="userSpaceOnUse">
<stop offset="0.15" stop-color="#9F3632"/>
<stop offset="0.48" stop-color="#C04342"/>
<stop offset="0.79" stop-color="#E25052"/>
</linearGradient>
<linearGradient id="paint58_linear" x1="-247.933" y1="73.3612" x2="-245.518" y2="73.3612" gradientUnits="userSpaceOnUse">
<stop offset="0.15" stop-color="#9F3632"/>
<stop offset="0.48" stop-color="#C04342"/>
<stop offset="0.79" stop-color="#E25052"/>
</linearGradient>
<linearGradient id="paint59_linear" x1="-247.933" y1="87.5576" x2="-245.518" y2="87.5576" gradientUnits="userSpaceOnUse">
<stop offset="0.15" stop-color="#9F3632"/>
<stop offset="0.48" stop-color="#C04342"/>
<stop offset="0.79" stop-color="#E25052"/>
</linearGradient>
<linearGradient id="paint60_linear" x1="236.978" y1="98.698" x2="236.978" y2="105.712" gradientUnits="userSpaceOnUse">
<stop stop-color="#FF4F5B"/>
<stop offset="1" stop-color="#F14241"/>
</linearGradient>
<linearGradient id="paint61_linear" x1="236.978" y1="83.3518" x2="236.978" y2="90.3881" gradientUnits="userSpaceOnUse">
<stop stop-color="#FF4F5B"/>
<stop offset="1" stop-color="#F14241"/>
</linearGradient>
<linearGradient id="paint62_linear" x1="244.659" y1="92.0769" x2="244.659" y2="96.9431" gradientUnits="userSpaceOnUse">
<stop stop-color="#FF4F5B"/>
<stop offset="1" stop-color="#F14241"/>
</linearGradient>
<linearGradient id="paint63_linear" x1="229.337" y1="92.0769" x2="229.337" y2="96.9431" gradientUnits="userSpaceOnUse">
<stop stop-color="#FF4F5B"/>
<stop offset="1" stop-color="#F14241"/>
</linearGradient>
<linearGradient id="paint64_linear" x1="257.495" y1="19.7532" x2="177.575" y2="19.7532" gradientUnits="userSpaceOnUse">
<stop stop-color="#FF8594"/>
<stop offset="1" stop-color="#FE4652"/>
</linearGradient>
<linearGradient id="paint65_linear" x1="138.141" y1="197.286" x2="254.097" y2="197.286" gradientUnits="userSpaceOnUse">
<stop stop-color="#E95456"/>
<stop offset="0.26" stop-color="#9F3632"/>
<stop offset="0.42" stop-color="#C04341"/>
<stop offset="0.51" stop-color="#D24A4A"/>
<stop offset="0.8" stop-color="#A63935"/>
<stop offset="1" stop-color="#E95256"/>
</linearGradient>
<linearGradient id="paint66_linear" x1="-3108.96" y1="-53.0973" x2="3025.16" y2="-53.0973" gradientUnits="userSpaceOnUse">
<stop stop-color="#E95456"/>
<stop offset="0.26" stop-color="#9F3632"/>
<stop offset="0.42" stop-color="#C04341"/>
<stop offset="0.51" stop-color="#D24A4A"/>
<stop offset="0.8" stop-color="#A63935"/>
<stop offset="1" stop-color="#E95256"/>
</linearGradient>
<linearGradient id="paint67_linear" x1="-2300.81" y1="-9.75263" x2="3833.3" y2="-9.75263" gradientUnits="userSpaceOnUse">
<stop stop-color="#E95456"/>
<stop offset="0.26" stop-color="#9F3632"/>
<stop offset="0.42" stop-color="#C04341"/>
<stop offset="0.51" stop-color="#D24A4A"/>
<stop offset="0.8" stop-color="#A63935"/>
<stop offset="1" stop-color="#E95256"/>
</linearGradient>
<linearGradient id="paint68_linear" x1="-1454.99" y1="74.2061" x2="4381.35" y2="74.2061" gradientUnits="userSpaceOnUse">
<stop stop-color="#E95456"/>
<stop offset="0.26" stop-color="#9F3632"/>
<stop offset="0.42" stop-color="#C04341"/>
<stop offset="0.51" stop-color="#D24A4A"/>
<stop offset="0.8" stop-color="#A63935"/>
<stop offset="1" stop-color="#E95256"/>
</linearGradient>
</defs>
</svg>
