<svg width="125" height="104" viewBox="0 0 125 104" fill="none" xmlns="http://www.w3.org/2000/svg">
<rect width="125" height="104" rx="24" fill="url(#paint0_linear)"/>
<mask id="mask0" mask-type="alpha" maskUnits="userSpaceOnUse" x="0" y="0" width="125" height="104">
<rect width="125" height="104" rx="24" fill="url(#paint1_linear)"/>
</mask>
<g mask="url(#mask0)">
<path d="M18.99 46.38C19.08 46.71 19.15 47.04 19.22 47.38C19.1604 47.3903 19.0996 47.3903 19.04 47.38C18.9709 47.3813 18.9022 47.3689 18.8379 47.3433C18.7737 47.3178 18.7152 47.2797 18.6658 47.2313C18.6165 47.1829 18.5773 47.1251 18.5505 47.0613C18.5238 46.9976 18.51 46.9291 18.51 46.86C18.5121 46.7305 18.5625 46.6064 18.6513 46.5121C18.7401 46.4178 18.8609 46.36 18.99 46.35V46.38Z" fill="url(#paint2_linear)"/>
<path d="M19.04 49.54C19.1078 49.5387 19.1752 49.5509 19.2383 49.5759C19.3013 49.6009 19.3587 49.6383 19.4071 49.6858C19.4555 49.7333 19.494 49.7899 19.5203 49.8525C19.5465 49.915 19.56 49.9822 19.56 50.05C19.56 50.1879 19.5052 50.3202 19.4077 50.4177C19.3102 50.5152 19.1779 50.57 19.04 50.57C18.9709 50.5713 18.9022 50.5588 18.8379 50.5333C18.7737 50.5078 18.7152 50.4697 18.6658 50.4213C18.6165 50.3728 18.5773 50.3151 18.5505 50.2513C18.5238 50.1876 18.51 50.1191 18.51 50.05C18.5113 49.9817 18.5261 49.9143 18.5534 49.8517C18.5807 49.7891 18.6201 49.7326 18.6694 49.6852C18.7186 49.6378 18.7766 49.6006 18.8402 49.5757C18.9038 49.5508 18.9717 49.5387 19.04 49.54Z" fill="url(#paint3_linear)"/>
<path d="M19.04 52.73C19.1078 52.7287 19.1752 52.7409 19.2383 52.7659C19.3013 52.7909 19.3587 52.8283 19.4071 52.8758C19.4555 52.9233 19.494 52.9799 19.5203 53.0425C19.5465 53.105 19.56 53.1722 19.56 53.24C19.56 53.3779 19.5052 53.5102 19.4077 53.6077C19.3102 53.7052 19.1779 53.76 19.04 53.76C18.9709 53.7613 18.9022 53.7489 18.8379 53.7233C18.7737 53.6978 18.7152 53.6597 18.6658 53.6113C18.6165 53.5628 18.5773 53.5051 18.5505 53.4413C18.5238 53.3776 18.51 53.3091 18.51 53.24C18.5113 53.1717 18.5261 53.1043 18.5534 53.0417C18.5807 52.9791 18.6201 52.9226 18.6694 52.8752C18.7186 52.8278 18.7766 52.7906 18.8402 52.7657C18.9038 52.7408 18.9717 52.7287 19.04 52.73Z" fill="url(#paint4_linear)"/>
<path d="M19.04 55.92C19.0996 55.9105 19.1604 55.9105 19.22 55.92C19.15 56.26 19.08 56.59 18.99 56.92C18.86 56.9123 18.7379 56.8552 18.6486 56.7604C18.5594 56.6656 18.5098 56.5402 18.51 56.41C18.5113 56.3417 18.5261 56.2743 18.5534 56.2117C18.5807 56.1492 18.6201 56.0926 18.6694 56.0452C18.7186 55.9978 18.7766 55.9606 18.8402 55.9357C18.9038 55.9108 18.9717 55.8987 19.04 55.9V55.92Z" fill="url(#paint5_linear)"/>
<path d="M15.77 39.97C15.8383 39.9687 15.9062 39.9808 15.9698 40.0057C16.0334 40.0307 16.0914 40.0679 16.1406 40.1152C16.1899 40.1626 16.2293 40.2192 16.2566 40.2818C16.284 40.3443 16.2987 40.4117 16.3 40.48C16.3 40.5491 16.2862 40.6176 16.2595 40.6813C16.2327 40.7451 16.1935 40.8029 16.1442 40.8513C16.0948 40.8997 16.0363 40.9378 15.9721 40.9633C15.9078 40.9889 15.8391 41.0013 15.77 41C15.6321 41 15.4998 40.9452 15.4023 40.8477C15.3048 40.7502 15.25 40.6179 15.25 40.48C15.25 40.4122 15.2635 40.345 15.2897 40.2825C15.316 40.22 15.3545 40.1633 15.4029 40.1158C15.4513 40.0683 15.5087 40.031 15.5718 40.0059C15.6348 39.9809 15.7022 39.9687 15.77 39.97Z" fill="url(#paint6_linear)"/>
<path d="M15.77 43.16C15.8383 43.1587 15.9062 43.1708 15.9698 43.1957C16.0334 43.2207 16.0914 43.2579 16.1406 43.3052C16.1899 43.3526 16.2293 43.4092 16.2566 43.4718C16.284 43.5344 16.2987 43.6017 16.3 43.67C16.3 43.7391 16.2862 43.8076 16.2595 43.8713C16.2327 43.9351 16.1935 43.9929 16.1442 44.0413C16.0948 44.0897 16.0363 44.1278 15.9721 44.1533C15.9078 44.1789 15.8391 44.1913 15.77 44.19C15.6321 44.19 15.4998 44.1352 15.4023 44.0377C15.3048 43.9402 15.25 43.8079 15.25 43.67C15.25 43.6022 15.2635 43.535 15.2897 43.4725C15.316 43.41 15.3545 43.3533 15.4029 43.3058C15.4513 43.2583 15.5087 43.221 15.5718 43.1959C15.6348 43.1709 15.7022 43.1587 15.77 43.16Z" fill="url(#paint7_linear)"/>
<path d="M15.77 46.38C15.8383 46.3787 15.9062 46.3908 15.9698 46.4157C16.0334 46.4406 16.0914 46.4778 16.1406 46.5252C16.1899 46.5726 16.2293 46.6292 16.2566 46.6917C16.284 46.7543 16.2987 46.8217 16.3 46.89C16.2923 47.0244 16.2327 47.1505 16.1339 47.2419C16.035 47.3333 15.9046 47.3828 15.77 47.38C15.7017 47.38 15.6341 47.3666 15.571 47.3404C15.5079 47.3143 15.4506 47.276 15.4023 47.2277C15.354 47.1794 15.3157 47.1221 15.2896 47.059C15.2634 46.9959 15.25 46.9283 15.25 46.86C15.2577 46.7283 15.3162 46.6046 15.4132 46.5151C15.5102 46.4256 15.6381 46.3772 15.77 46.38Z" fill="url(#paint8_linear)"/>
<path d="M15.77 49.54C15.8383 49.5387 15.9062 49.5508 15.9698 49.5757C16.0334 49.6006 16.0914 49.6378 16.1406 49.6852C16.1899 49.7326 16.2293 49.7891 16.2566 49.8517C16.284 49.9143 16.2987 49.9817 16.3 50.05C16.3 50.1191 16.2862 50.1876 16.2595 50.2513C16.2327 50.3151 16.1935 50.3728 16.1442 50.4213C16.0948 50.4697 16.0363 50.5078 15.9721 50.5333C15.9078 50.5588 15.8391 50.5713 15.77 50.57C15.6321 50.57 15.4998 50.5152 15.4023 50.4177C15.3048 50.3202 15.25 50.1879 15.25 50.05C15.25 49.9822 15.2635 49.915 15.2897 49.8525C15.316 49.7899 15.3545 49.7333 15.4029 49.6858C15.4513 49.6383 15.5087 49.6009 15.5718 49.5759C15.6348 49.5509 15.7022 49.5387 15.77 49.54Z" fill="url(#paint9_linear)"/>
<path d="M15.77 52.73C15.8383 52.7287 15.9062 52.7408 15.9698 52.7657C16.0334 52.7906 16.0914 52.8278 16.1406 52.8752C16.1899 52.9226 16.2293 52.9791 16.2566 53.0417C16.284 53.1043 16.2987 53.1717 16.3 53.24C16.3 53.3091 16.2862 53.3776 16.2595 53.4413C16.2327 53.5051 16.1935 53.5628 16.1442 53.6113C16.0948 53.6597 16.0363 53.6978 15.9721 53.7233C15.9078 53.7489 15.8391 53.7613 15.77 53.76C15.7017 53.76 15.6341 53.7465 15.571 53.7204C15.5079 53.6943 15.4506 53.656 15.4023 53.6077C15.354 53.5594 15.3157 53.5021 15.2896 53.439C15.2634 53.3759 15.25 53.3083 15.25 53.24C15.25 53.1722 15.2635 53.105 15.2897 53.0425C15.316 52.9799 15.3545 52.9233 15.4029 52.8758C15.4513 52.8283 15.5087 52.7909 15.5718 52.7659C15.6348 52.7409 15.7022 52.7287 15.77 52.73Z" fill="url(#paint10_linear)"/>
<path d="M15.77 55.92C15.8383 55.9187 15.9062 55.9308 15.9698 55.9557C16.0334 55.9806 16.0914 56.0178 16.1406 56.0652C16.1899 56.1126 16.2293 56.1691 16.2566 56.2317C16.284 56.2943 16.2987 56.3617 16.3 56.43C16.3 56.4991 16.2862 56.5676 16.2595 56.6313C16.2327 56.6951 16.1935 56.7528 16.1442 56.8013C16.0948 56.8497 16.0363 56.8878 15.9721 56.9133C15.9078 56.9389 15.8391 56.9513 15.77 56.95C15.6321 56.95 15.4998 56.8952 15.4023 56.7977C15.3048 56.7002 15.25 56.5679 15.25 56.43C15.25 56.3622 15.2635 56.295 15.2897 56.2325C15.316 56.1699 15.3545 56.1133 15.4029 56.0658C15.4513 56.0183 15.5087 55.9809 15.5718 55.9559C15.6348 55.9309 15.7022 55.9187 15.77 55.92Z" fill="url(#paint11_linear)"/>
<path d="M15.77 59.11C15.8383 59.1087 15.9062 59.1208 15.9698 59.1457C16.0334 59.1706 16.0914 59.2078 16.1406 59.2552C16.1899 59.3026 16.2293 59.3592 16.2566 59.4217C16.284 59.4843 16.2987 59.5517 16.3 59.62C16.3 59.6891 16.2862 59.7576 16.2595 59.8213C16.2327 59.8851 16.1935 59.9429 16.1442 59.9913C16.0948 60.0397 16.0363 60.0778 15.9721 60.1033C15.9078 60.1289 15.8391 60.1413 15.77 60.14C15.6321 60.14 15.4998 60.0852 15.4023 59.9877C15.3048 59.8902 15.25 59.7579 15.25 59.62C15.25 59.5522 15.2635 59.485 15.2897 59.4225C15.316 59.3599 15.3545 59.3033 15.4029 59.2558C15.4513 59.2083 15.5087 59.1709 15.5718 59.1459C15.6348 59.1209 15.7022 59.1087 15.77 59.11Z" fill="url(#paint12_linear)"/>
<path d="M15.77 62.3C15.8383 62.2987 15.9062 62.3108 15.9698 62.3357C16.0334 62.3606 16.0914 62.3978 16.1406 62.4452C16.1899 62.4926 16.2293 62.5492 16.2566 62.6117C16.284 62.6743 16.2987 62.7417 16.3 62.81C16.3071 62.8832 16.2986 62.9571 16.275 63.0268C16.2514 63.0965 16.2133 63.1604 16.1632 63.2142C16.1131 63.2681 16.0522 63.3107 15.9844 63.3393C15.9166 63.3679 15.8435 63.3818 15.77 63.38C15.6321 63.38 15.4998 63.3252 15.4023 63.2277C15.3048 63.1302 15.25 62.9979 15.25 62.86C15.25 62.7922 15.2635 62.725 15.2897 62.6625C15.316 62.6 15.3545 62.5433 15.4029 62.4958C15.4513 62.4483 15.5087 62.4109 15.5718 62.3859C15.6348 62.3609 15.7022 62.3487 15.77 62.35V62.3Z" fill="url(#paint13_linear)"/>
<path d="M12.53 36.78C12.5983 36.7787 12.6662 36.7908 12.7298 36.8157C12.7934 36.8406 12.8514 36.8778 12.9007 36.9252C12.9499 36.9726 12.9893 37.0292 13.0166 37.0918C13.044 37.1544 13.0587 37.2217 13.06 37.29C13.06 37.3591 13.0462 37.4276 13.0195 37.4913C12.9927 37.5551 12.9535 37.6129 12.9042 37.6613C12.8548 37.7097 12.7963 37.7478 12.7321 37.7733C12.6678 37.7989 12.5991 37.8113 12.53 37.81C12.3921 37.81 12.2598 37.7552 12.1623 37.6577C12.0648 37.5602 12.01 37.4279 12.01 37.29C12.01 37.2222 12.0235 37.155 12.0498 37.0925C12.076 37.03 12.1145 36.9733 12.1629 36.9258C12.2113 36.8783 12.2687 36.841 12.3318 36.8159C12.3948 36.7909 12.4622 36.7787 12.53 36.78Z" fill="url(#paint14_linear)"/>
<path d="M12.53 39.97C12.5983 39.9687 12.6662 39.9808 12.7298 40.0057C12.7934 40.0307 12.8514 40.0679 12.9007 40.1152C12.9499 40.1626 12.9893 40.2192 13.0166 40.2818C13.044 40.3443 13.0587 40.4117 13.06 40.48C13.06 40.5491 13.0462 40.6176 13.0195 40.6813C12.9927 40.7451 12.9535 40.8029 12.9042 40.8513C12.8548 40.8997 12.7963 40.9378 12.7321 40.9633C12.6678 40.9889 12.5991 41.0013 12.53 41C12.3921 41 12.2598 40.9452 12.1623 40.8477C12.0648 40.7502 12.01 40.6179 12.01 40.48C12.01 40.4122 12.0235 40.345 12.0498 40.2825C12.076 40.22 12.1145 40.1633 12.1629 40.1158C12.2113 40.0683 12.2687 40.031 12.3318 40.0059C12.3948 39.9809 12.4622 39.9687 12.53 39.97Z" fill="url(#paint15_linear)"/>
<path d="M12.53 43.16C12.5983 43.1587 12.6662 43.1708 12.7298 43.1957C12.7934 43.2207 12.8514 43.2579 12.9007 43.3052C12.9499 43.3526 12.9893 43.4092 13.0166 43.4718C13.044 43.5344 13.0587 43.6017 13.06 43.67C13.06 43.7391 13.0462 43.8076 13.0195 43.8713C12.9927 43.9351 12.9535 43.9929 12.9042 44.0413C12.8548 44.0897 12.7963 44.1278 12.7321 44.1533C12.6678 44.1789 12.5991 44.1913 12.53 44.19C12.3921 44.19 12.2598 44.1352 12.1623 44.0377C12.0648 43.9402 12.01 43.8079 12.01 43.67C12.01 43.6022 12.0235 43.535 12.0498 43.4725C12.076 43.41 12.1145 43.3533 12.1629 43.3058C12.2113 43.2583 12.2687 43.221 12.3318 43.1959C12.3948 43.1709 12.4622 43.1587 12.53 43.16Z" fill="url(#paint16_linear)"/>
<path d="M12.53 46.38C12.5983 46.3787 12.6662 46.3908 12.7298 46.4157C12.7934 46.4407 12.8514 46.4779 12.9007 46.5252C12.9499 46.5726 12.9893 46.6292 13.0166 46.6918C13.044 46.7544 13.0587 46.8217 13.06 46.89C13.06 46.9591 13.0462 47.0276 13.0195 47.0913C12.9927 47.1551 12.9535 47.2129 12.9042 47.2613C12.8548 47.3097 12.7963 47.3478 12.7321 47.3733C12.6678 47.3989 12.5991 47.4113 12.53 47.41C12.3921 47.41 12.2598 47.3552 12.1623 47.2577C12.0648 47.1602 12.01 47.0279 12.01 46.89C12.01 46.8222 12.0235 46.755 12.0498 46.6925C12.076 46.63 12.1145 46.5733 12.1629 46.5258C12.2113 46.4783 12.2687 46.441 12.3318 46.4159C12.3948 46.3909 12.4622 46.3787 12.53 46.38Z" fill="url(#paint17_linear)"/>
<path d="M12.53 49.54C12.5983 49.5387 12.6662 49.5508 12.7298 49.5757C12.7934 49.6006 12.8514 49.6378 12.9007 49.6852C12.9499 49.7326 12.9893 49.7891 13.0166 49.8517C13.044 49.9143 13.0587 49.9817 13.06 50.05C13.06 50.1191 13.0462 50.1876 13.0195 50.2513C12.9927 50.3151 12.9535 50.3728 12.9042 50.4213C12.8548 50.4697 12.7963 50.5078 12.7321 50.5333C12.6678 50.5588 12.5991 50.5713 12.53 50.57C12.3921 50.57 12.2598 50.5152 12.1623 50.4177C12.0648 50.3202 12.01 50.1879 12.01 50.05C12.01 49.9822 12.0235 49.915 12.0498 49.8525C12.076 49.7899 12.1145 49.7333 12.1629 49.6858C12.2113 49.6383 12.2687 49.6009 12.3318 49.5759C12.3948 49.5509 12.4622 49.5387 12.53 49.54Z" fill="url(#paint18_linear)"/>
<path d="M12.53 52.73C12.5983 52.7287 12.6662 52.7408 12.7298 52.7657C12.7934 52.7906 12.8514 52.8278 12.9007 52.8752C12.9499 52.9226 12.9893 52.9791 13.0166 53.0417C13.044 53.1043 13.0587 53.1717 13.06 53.24C13.06 53.3091 13.0462 53.3776 13.0195 53.4413C12.9927 53.5051 12.9535 53.5628 12.9042 53.6113C12.8548 53.6597 12.7963 53.6978 12.7321 53.7233C12.6678 53.7489 12.5991 53.7613 12.53 53.76C12.3921 53.76 12.2598 53.7052 12.1623 53.6077C12.0648 53.5102 12.01 53.3779 12.01 53.24C12.01 53.1722 12.0235 53.105 12.0498 53.0425C12.076 52.9799 12.1145 52.9233 12.1629 52.8758C12.2113 52.8283 12.2687 52.7909 12.3318 52.7659C12.3948 52.7409 12.4622 52.7287 12.53 52.73Z" fill="url(#paint19_linear)"/>
<path d="M12.53 55.92C12.5983 55.9187 12.6662 55.9308 12.7298 55.9557C12.7934 55.9806 12.8514 56.0178 12.9007 56.0652C12.9499 56.1126 12.9893 56.1691 13.0166 56.2317C13.044 56.2943 13.0587 56.3617 13.06 56.43C13.06 56.4991 13.0462 56.5676 13.0195 56.6313C12.9927 56.6951 12.9535 56.7528 12.9042 56.8013C12.8548 56.8497 12.7963 56.8878 12.7321 56.9133C12.6678 56.9389 12.5991 56.9513 12.53 56.95C12.3921 56.95 12.2598 56.8952 12.1623 56.7977C12.0648 56.7002 12.01 56.5679 12.01 56.43C12.01 56.3622 12.0235 56.295 12.0498 56.2325C12.076 56.1699 12.1145 56.1133 12.1629 56.0658C12.2113 56.0183 12.2687 55.9809 12.3318 55.9559C12.3948 55.9309 12.4622 55.9187 12.53 55.92Z" fill="url(#paint20_linear)"/>
<path d="M12.53 59.11C12.5983 59.1087 12.6662 59.1208 12.7298 59.1457C12.7934 59.1706 12.8514 59.2078 12.9007 59.2552C12.9499 59.3026 12.9893 59.3592 13.0166 59.4217C13.044 59.4843 13.0587 59.5517 13.06 59.62C13.06 59.6891 13.0462 59.7576 13.0195 59.8213C12.9927 59.8851 12.9535 59.9429 12.9042 59.9913C12.8548 60.0397 12.7963 60.0778 12.7321 60.1033C12.6678 60.1289 12.5991 60.1413 12.53 60.14C12.3921 60.14 12.2598 60.0852 12.1623 59.9877C12.0648 59.8902 12.01 59.7579 12.01 59.62C12.01 59.5522 12.0235 59.485 12.0498 59.4225C12.076 59.3599 12.1145 59.3033 12.1629 59.2558C12.2113 59.2083 12.2687 59.1709 12.3318 59.1459C12.3948 59.1209 12.4622 59.1087 12.53 59.11Z" fill="url(#paint21_linear)"/>
<path d="M12.53 62.3C12.5983 62.2987 12.6662 62.3108 12.7298 62.3357C12.7934 62.3606 12.8514 62.3978 12.9007 62.4452C12.9499 62.4926 12.9893 62.5492 13.0166 62.6117C13.044 62.6743 13.0587 62.7417 13.06 62.81C13.06 62.8791 13.0462 62.9476 13.0195 63.0113C12.9927 63.0751 12.9535 63.1329 12.9042 63.1813C12.8548 63.2297 12.7963 63.2678 12.7321 63.2933C12.6678 63.3189 12.5991 63.3313 12.53 63.33C12.3921 63.33 12.2598 63.2752 12.1623 63.1777C12.0648 63.0802 12.01 62.9479 12.01 62.81C12.01 62.7422 12.0235 62.675 12.0498 62.6125C12.076 62.55 12.1145 62.4933 12.1629 62.4458C12.2113 62.3983 12.2687 62.3609 12.3318 62.3359C12.3948 62.3109 12.4622 62.2987 12.53 62.3Z" fill="url(#paint22_linear)"/>
<path d="M12.53 65.49C12.5983 65.4887 12.6662 65.5008 12.7298 65.5257C12.7934 65.5506 12.8514 65.5878 12.9007 65.6352C12.9499 65.6826 12.9893 65.7392 13.0166 65.8017C13.044 65.8643 13.0587 65.9317 13.06 66C13.06 66.0691 13.0462 66.1376 13.0195 66.2013C12.9927 66.2651 12.9535 66.3229 12.9042 66.3713C12.8548 66.4197 12.7963 66.4578 12.7321 66.4833C12.6678 66.5089 12.5991 66.5213 12.53 66.52C12.3921 66.52 12.2598 66.4652 12.1623 66.3677C12.0648 66.2702 12.01 66.1379 12.01 66C12.01 65.9322 12.0235 65.865 12.0498 65.8025C12.076 65.74 12.1145 65.6833 12.1629 65.6358C12.2113 65.5883 12.2687 65.5509 12.3318 65.5259C12.3948 65.5009 12.4622 65.4887 12.53 65.49Z" fill="url(#paint23_linear)"/>
<path d="M9.28001 33.59C9.34831 33.5887 9.41621 33.6008 9.47981 33.6257C9.54341 33.6506 9.60141 33.6878 9.65071 33.7352C9.69991 33.7826 9.73931 33.8392 9.76661 33.9018C9.79401 33.9643 9.80871 34.0317 9.81001 34.1C9.81001 34.1691 9.79621 34.2376 9.76951 34.3013C9.74271 34.3651 9.70351 34.4229 9.65421 34.4713C9.60481 34.5197 9.54631 34.5578 9.48211 34.5833C9.41781 34.6089 9.34911 34.6213 9.28001 34.62C9.14211 34.62 9.00981 34.5652 8.91231 34.4677C8.81481 34.3702 8.76001 34.2379 8.76001 34.1C8.76001 34.0322 8.77351 33.965 8.79981 33.9025C8.82601 33.84 8.86451 33.7833 8.91291 33.7358C8.96131 33.6883 9.01871 33.6509 9.08181 33.6259C9.14481 33.6009 9.21221 33.5887 9.28001 33.59Z" fill="url(#paint24_linear)"/>
<path d="M9.28001 36.78C9.34831 36.7787 9.41621 36.7908 9.47981 36.8157C9.54341 36.8406 9.60141 36.8778 9.65071 36.9252C9.69991 36.9726 9.73931 37.0292 9.76661 37.0918C9.79401 37.1544 9.80871 37.2217 9.81001 37.29C9.81001 37.3591 9.79621 37.4276 9.76951 37.4913C9.74271 37.5551 9.70351 37.6129 9.65421 37.6613C9.60481 37.7097 9.54631 37.7478 9.48211 37.7733C9.41781 37.7989 9.34911 37.8113 9.28001 37.81C9.14211 37.81 9.00981 37.7552 8.91231 37.6577C8.81481 37.5602 8.76001 37.4279 8.76001 37.29C8.76001 37.2222 8.77351 37.155 8.79981 37.0925C8.82601 37.03 8.86451 36.9733 8.91291 36.9258C8.96131 36.8783 9.01871 36.841 9.08181 36.8159C9.14481 36.7909 9.21221 36.7787 9.28001 36.78Z" fill="url(#paint25_linear)"/>
<path d="M9.28002 39.97C9.34832 39.9687 9.41622 39.9808 9.47982 40.0057C9.54342 40.0307 9.60152 40.0679 9.65072 40.1152C9.69992 40.1626 9.73932 40.2192 9.76662 40.2818C9.79402 40.3443 9.80872 40.4117 9.81002 40.48C9.81002 40.5491 9.79632 40.6176 9.76952 40.6813C9.74272 40.7451 9.70352 40.8029 9.65422 40.8513C9.60482 40.8997 9.54632 40.9378 9.48212 40.9633C9.41782 40.9889 9.34912 41.0013 9.28002 41C9.14382 40.9974 9.01412 40.9414 8.91882 40.8442C8.82342 40.747 8.77002 40.6162 8.77002 40.48C8.77002 40.4122 8.78352 40.345 8.80982 40.2825C8.83602 40.22 8.87452 40.1633 8.92292 40.1158C8.97132 40.0683 9.02872 40.031 9.09182 40.0059C9.15482 39.9809 9.22222 39.9687 9.29002 39.97H9.28002Z" fill="url(#paint26_linear)"/>
<path d="M9.28001 43.16C9.34831 43.1587 9.41621 43.1708 9.47981 43.1957C9.54341 43.2207 9.60141 43.2579 9.65071 43.3052C9.69991 43.3526 9.73931 43.4092 9.76661 43.4718C9.79401 43.5344 9.80871 43.6017 9.81001 43.67C9.81001 43.7391 9.79621 43.8076 9.76951 43.8713C9.74271 43.9351 9.70351 43.9929 9.65421 44.0413C9.60481 44.0897 9.54631 44.1278 9.48211 44.1533C9.41781 44.1789 9.34911 44.1913 9.28001 44.19C9.14211 44.19 9.00981 44.1352 8.91231 44.0377C8.81481 43.9402 8.76001 43.8079 8.76001 43.67C8.76001 43.6022 8.77351 43.535 8.79981 43.4725C8.82601 43.41 8.86451 43.3533 8.91291 43.3058C8.96131 43.2583 9.01871 43.221 9.08181 43.1959C9.14481 43.1709 9.21221 43.1587 9.28001 43.16Z" fill="url(#paint27_linear)"/>
<path d="M9.28001 46.38C9.34831 46.3787 9.41621 46.3908 9.47981 46.4157C9.54341 46.4407 9.60141 46.4779 9.65071 46.5252C9.69991 46.5726 9.73931 46.6292 9.76661 46.6918C9.79401 46.7544 9.80871 46.8217 9.81001 46.89C9.81001 46.9591 9.79621 47.0276 9.76951 47.0913C9.74271 47.1551 9.70351 47.2129 9.65421 47.2613C9.60481 47.3097 9.54631 47.3478 9.48211 47.3733C9.41781 47.3989 9.34911 47.4113 9.28001 47.41C9.14211 47.41 9.00981 47.3552 8.91231 47.2577C8.81481 47.1602 8.76001 47.0279 8.76001 46.89C8.76001 46.8222 8.77351 46.755 8.79981 46.6925C8.82601 46.63 8.86451 46.5733 8.91291 46.5258C8.96131 46.4783 9.01871 46.441 9.08181 46.4159C9.14481 46.3909 9.21221 46.3787 9.28001 46.38Z" fill="url(#paint28_linear)"/>
<path d="M9.28001 49.54C9.34831 49.5387 9.41621 49.5508 9.47981 49.5757C9.54341 49.6006 9.60141 49.6378 9.65071 49.6852C9.69991 49.7326 9.73931 49.7891 9.76661 49.8517C9.79401 49.9143 9.80871 49.9817 9.81001 50.05C9.81001 50.1191 9.79621 50.1876 9.76951 50.2513C9.74271 50.3151 9.70351 50.3728 9.65421 50.4213C9.60481 50.4697 9.54631 50.5078 9.48211 50.5333C9.41781 50.5588 9.34911 50.5713 9.28001 50.57C9.14211 50.57 9.00981 50.5152 8.91231 50.4177C8.81481 50.3202 8.76001 50.1879 8.76001 50.05C8.76001 49.9822 8.77351 49.915 8.79981 49.8525C8.82601 49.7899 8.86451 49.7333 8.91291 49.6858C8.96131 49.6383 9.01871 49.6009 9.08181 49.5759C9.14481 49.5509 9.21221 49.5387 9.28001 49.54Z" fill="url(#paint29_linear)"/>
<path d="M9.28001 52.73C9.34831 52.7287 9.41621 52.7408 9.47981 52.7657C9.54341 52.7906 9.60141 52.8278 9.65071 52.8752C9.69991 52.9226 9.73931 52.9791 9.76661 53.0417C9.79401 53.1043 9.80871 53.1717 9.81001 53.24C9.81001 53.3091 9.79621 53.3776 9.76951 53.4413C9.74271 53.5051 9.70351 53.5628 9.65421 53.6113C9.60481 53.6597 9.54631 53.6978 9.48211 53.7233C9.41781 53.7489 9.34911 53.7613 9.28001 53.76C9.14211 53.76 9.00981 53.7052 8.91231 53.6077C8.81481 53.5102 8.76001 53.3779 8.76001 53.24C8.76001 53.1722 8.77351 53.105 8.79981 53.0425C8.82601 52.9799 8.86451 52.9233 8.91291 52.8758C8.96131 52.8283 9.01871 52.7909 9.08181 52.7659C9.14481 52.7409 9.21221 52.7287 9.28001 52.73Z" fill="url(#paint30_linear)"/>
<path d="M9.28001 55.92C9.34831 55.9187 9.41621 55.9308 9.47981 55.9557C9.54341 55.9806 9.60141 56.0178 9.65071 56.0652C9.69991 56.1126 9.73931 56.1691 9.76661 56.2317C9.79401 56.2943 9.80871 56.3617 9.81001 56.43C9.81001 56.4991 9.79621 56.5676 9.76951 56.6313C9.74271 56.6951 9.70351 56.7528 9.65421 56.8013C9.60481 56.8497 9.54631 56.8878 9.48211 56.9133C9.41781 56.9389 9.34911 56.9513 9.28001 56.95C9.14211 56.95 9.00981 56.8952 8.91231 56.7977C8.81481 56.7002 8.76001 56.5679 8.76001 56.43C8.76001 56.3622 8.77351 56.295 8.79981 56.2325C8.82601 56.1699 8.86451 56.1133 8.91291 56.0658C8.96131 56.0183 9.01871 55.9809 9.08181 55.9559C9.14481 55.9309 9.21221 55.9187 9.28001 55.92Z" fill="url(#paint31_linear)"/>
<path d="M9.28001 59.11C9.34831 59.1087 9.41621 59.1208 9.47981 59.1457C9.54341 59.1706 9.60141 59.2078 9.65071 59.2552C9.69991 59.3026 9.73931 59.3592 9.76661 59.4217C9.79401 59.4843 9.80871 59.5517 9.81001 59.62C9.81001 59.6891 9.79621 59.7576 9.76951 59.8213C9.74271 59.8851 9.70351 59.9429 9.65421 59.9913C9.60481 60.0397 9.54631 60.0778 9.48211 60.1033C9.41781 60.1289 9.34911 60.1413 9.28001 60.14C9.14211 60.14 9.00981 60.0852 8.91231 59.9877C8.81481 59.8902 8.76001 59.7579 8.76001 59.62C8.76001 59.5522 8.77351 59.485 8.79981 59.4225C8.82601 59.3599 8.86451 59.3033 8.91291 59.2558C8.96131 59.2083 9.01871 59.1709 9.08181 59.1459C9.14481 59.1209 9.21221 59.1087 9.28001 59.11Z" fill="url(#paint32_linear)"/>
<path d="M9.28001 62.3C9.34831 62.2987 9.41621 62.3108 9.47981 62.3357C9.54341 62.3606 9.60141 62.3978 9.65071 62.4452C9.69991 62.4926 9.73931 62.5492 9.76661 62.6117C9.79401 62.6743 9.80871 62.7417 9.81001 62.81C9.81001 62.8791 9.79621 62.9476 9.76951 63.0113C9.74271 63.0751 9.70351 63.1329 9.65421 63.1813C9.60481 63.2297 9.54631 63.2678 9.48211 63.2933C9.41781 63.3189 9.34911 63.3313 9.28001 63.33C9.14211 63.33 9.00981 63.2752 8.91231 63.1777C8.81481 63.0802 8.76001 62.9479 8.76001 62.81C8.76001 62.7422 8.77351 62.675 8.79981 62.6125C8.82601 62.55 8.86451 62.4933 8.91291 62.4458C8.96131 62.3983 9.01871 62.3609 9.08181 62.3359C9.14481 62.3109 9.21221 62.2987 9.28001 62.3Z" fill="url(#paint33_linear)"/>
<path d="M9.28001 65.49C9.34831 65.4887 9.41621 65.5008 9.47981 65.5257C9.54341 65.5506 9.60141 65.5878 9.65071 65.6352C9.69991 65.6826 9.73931 65.7392 9.76661 65.8017C9.79401 65.8643 9.80871 65.9317 9.81001 66C9.81001 66.0691 9.79621 66.1376 9.76951 66.2013C9.74271 66.2651 9.70351 66.3229 9.65421 66.3713C9.60481 66.4197 9.54631 66.4578 9.48211 66.4833C9.41781 66.5089 9.34911 66.5213 9.28001 66.52C9.14211 66.52 9.00981 66.4652 8.91231 66.3677C8.81481 66.2702 8.76001 66.1379 8.76001 66C8.76001 65.9322 8.77351 65.865 8.79981 65.8025C8.82601 65.74 8.86451 65.6833 8.91291 65.6358C8.96131 65.5883 9.01871 65.5509 9.08181 65.5259C9.14481 65.5009 9.21221 65.4887 9.28001 65.49Z" fill="url(#paint34_linear)"/>
<path d="M9.28001 68.68C9.34831 68.6787 9.41621 68.6908 9.47981 68.7157C9.54341 68.7406 9.60141 68.7778 9.65071 68.8252C9.69991 68.8726 9.73931 68.9292 9.76661 68.9918C9.79401 69.0543 9.80871 69.1217 9.81001 69.19C9.81001 69.2591 9.79621 69.3276 9.76951 69.3913C9.74271 69.4551 9.70351 69.5129 9.65421 69.5613C9.60481 69.6097 9.54631 69.6478 9.48211 69.6733C9.41781 69.6989 9.34911 69.7113 9.28001 69.71C9.14211 69.71 9.00981 69.6552 8.91231 69.5577C8.81481 69.4602 8.76001 69.3279 8.76001 69.19C8.76001 69.1222 8.77351 69.055 8.79981 68.9925C8.82601 68.93 8.86451 68.8733 8.91291 68.8258C8.96131 68.7783 9.01871 68.7409 9.08181 68.7159C9.14481 68.6909 9.21221 68.6787 9.28001 68.68Z" fill="url(#paint35_linear)"/>
<path d="M6.03001 33.59C6.09782 33.5887 6.16522 33.6009 6.22826 33.6259C6.29129 33.6509 6.3487 33.6883 6.39712 33.7358C6.44554 33.7833 6.484 33.84 6.51025 33.9025C6.53651 33.965 6.55002 34.0322 6.55001 34.1C6.55001 34.2379 6.49522 34.3702 6.39771 34.4677C6.30019 34.5652 6.16793 34.62 6.03001 34.62C5.8921 34.62 5.75983 34.5652 5.66232 34.4677C5.5648 34.3702 5.51001 34.2379 5.51001 34.1C5.51 34.0322 5.52351 33.965 5.54977 33.9025C5.57602 33.84 5.61448 33.7833 5.6629 33.7358C5.71132 33.6883 5.76874 33.6509 5.83177 33.6259C5.89481 33.6009 5.9622 33.5887 6.03001 33.59Z" fill="url(#paint36_linear)"/>
<path d="M6.03001 36.78C6.09782 36.7787 6.16522 36.7909 6.22826 36.8159C6.29129 36.841 6.3487 36.8783 6.39712 36.9258C6.44554 36.9733 6.484 37.03 6.51025 37.0925C6.53651 37.155 6.55002 37.2222 6.55001 37.29C6.55001 37.4279 6.49522 37.5602 6.39771 37.6577C6.30019 37.7552 6.16793 37.81 6.03001 37.81C5.8921 37.81 5.75983 37.7552 5.66232 37.6577C5.5648 37.5602 5.51001 37.4279 5.51001 37.29C5.51 37.2222 5.52351 37.155 5.54977 37.0925C5.57602 37.03 5.61448 36.9733 5.6629 36.9258C5.71132 36.8783 5.76874 36.841 5.83177 36.8159C5.89481 36.7909 5.9622 36.7787 6.03001 36.78Z" fill="url(#paint37_linear)"/>
<path d="M6.03001 39.97C6.09782 39.9687 6.16522 39.9809 6.22826 40.0059C6.29129 40.031 6.3487 40.0683 6.39712 40.1158C6.44554 40.1633 6.484 40.22 6.51025 40.2825C6.53651 40.345 6.55002 40.4122 6.55001 40.48C6.55001 40.6179 6.49522 40.7502 6.39771 40.8477C6.30019 40.9452 6.16793 41 6.03001 41C5.8921 41 5.75983 40.9452 5.66232 40.8477C5.5648 40.7502 5.51001 40.6179 5.51001 40.48C5.51 40.4122 5.52351 40.345 5.54977 40.2825C5.57602 40.22 5.61448 40.1633 5.6629 40.1158C5.71132 40.0683 5.76874 40.031 5.83177 40.0059C5.89481 39.9809 5.9622 39.9687 6.03001 39.97Z" fill="url(#paint38_linear)"/>
<path d="M6.03001 43.16C6.09782 43.1587 6.16522 43.1709 6.22826 43.1959C6.29129 43.221 6.3487 43.2583 6.39712 43.3058C6.44554 43.3533 6.484 43.41 6.51025 43.4725C6.53651 43.535 6.55002 43.6022 6.55001 43.67C6.55001 43.8079 6.49522 43.9402 6.39771 44.0377C6.30019 44.1352 6.16793 44.19 6.03001 44.19C5.8921 44.19 5.75983 44.1352 5.66232 44.0377C5.5648 43.9402 5.51001 43.8079 5.51001 43.67C5.51 43.6022 5.52351 43.535 5.54977 43.4725C5.57602 43.41 5.61448 43.3533 5.6629 43.3058C5.71132 43.2583 5.76874 43.221 5.83177 43.1959C5.89481 43.1709 5.9622 43.1587 6.03001 43.16Z" fill="url(#paint39_linear)"/>
<path d="M6.03001 59.11C6.09782 59.1087 6.16522 59.1209 6.22826 59.1459C6.29129 59.1709 6.3487 59.2083 6.39712 59.2558C6.44554 59.3033 6.484 59.3599 6.51025 59.4225C6.53651 59.485 6.55002 59.5522 6.55001 59.62C6.55001 59.7579 6.49522 59.8902 6.39771 59.9877C6.30019 60.0852 6.16793 60.14 6.03001 60.14C5.8921 60.14 5.75983 60.0852 5.66232 59.9877C5.5648 59.8902 5.51001 59.7579 5.51001 59.62C5.51 59.5522 5.52351 59.485 5.54977 59.4225C5.57602 59.3599 5.61448 59.3033 5.6629 59.2558C5.71132 59.2083 5.76874 59.1709 5.83177 59.1459C5.89481 59.1209 5.9622 59.1087 6.03001 59.11Z" fill="url(#paint40_linear)"/>
<path d="M6.03001 62.3C6.09782 62.2987 6.16522 62.3109 6.22826 62.3359C6.29129 62.3609 6.3487 62.3983 6.39712 62.4458C6.44554 62.4933 6.484 62.55 6.51025 62.6125C6.53651 62.675 6.55002 62.7422 6.55001 62.81C6.55001 62.9479 6.49522 63.0802 6.39771 63.1777C6.30019 63.2752 6.16793 63.33 6.03001 63.33C5.8921 63.33 5.75983 63.2752 5.66232 63.1777C5.5648 63.0802 5.51001 62.9479 5.51001 62.81C5.51 62.7422 5.52351 62.675 5.54977 62.6125C5.57602 62.55 5.61448 62.4933 5.6629 62.4458C5.71132 62.3983 5.76874 62.3609 5.83177 62.3359C5.89481 62.3109 5.9622 62.2987 6.03001 62.3Z" fill="url(#paint41_linear)"/>
<path d="M6.03001 65.49C6.09782 65.4887 6.16522 65.5009 6.22826 65.5259C6.29129 65.5509 6.3487 65.5883 6.39712 65.6358C6.44554 65.6833 6.484 65.74 6.51025 65.8025C6.53651 65.865 6.55002 65.9322 6.55001 66C6.55001 66.1379 6.49522 66.2702 6.39771 66.3677C6.30019 66.4652 6.16793 66.52 6.03001 66.52C5.8921 66.52 5.75983 66.4652 5.66232 66.3677C5.5648 66.2702 5.51001 66.1379 5.51001 66C5.51 65.9322 5.52351 65.865 5.54977 65.8025C5.57602 65.74 5.61448 65.6833 5.6629 65.6358C5.71132 65.5883 5.76874 65.5509 5.83177 65.5259C5.89481 65.5009 5.9622 65.4887 6.03001 65.49Z" fill="url(#paint42_linear)"/>
<path d="M6.03001 68.68C6.09782 68.6787 6.16522 68.6909 6.22826 68.7159C6.29129 68.7409 6.3487 68.7783 6.39712 68.8258C6.44554 68.8733 6.484 68.93 6.51025 68.9925C6.53651 69.055 6.55002 69.1222 6.55001 69.19C6.55001 69.3279 6.49522 69.4602 6.39771 69.5577C6.30019 69.6552 6.16793 69.71 6.03001 69.71C5.8921 69.71 5.75983 69.6552 5.66232 69.5577C5.5648 69.4602 5.51001 69.3279 5.51001 69.19C5.51 69.1222 5.52351 69.055 5.54977 68.9925C5.57602 68.93 5.61448 68.8733 5.6629 68.8258C5.71132 68.7783 5.76874 68.7409 5.83177 68.7159C5.89481 68.6909 5.9622 68.6787 6.03001 68.68Z" fill="url(#paint43_linear)"/>
<path d="M3.30014 30.95C3.29004 31.0809 3.23083 31.2031 3.13438 31.2921C3.03793 31.3811 2.91139 31.4304 2.78014 31.43C2.71102 31.4313 2.64232 31.4189 2.57807 31.3933C2.51382 31.3678 2.45532 31.3297 2.40596 31.2813C2.35661 31.2329 2.31741 31.1751 2.29065 31.1113C2.2639 31.0476 2.25013 30.9791 2.25014 30.91C2.24084 30.847 2.24084 30.783 2.25014 30.72L3.25014 30.95H3.30014Z" fill="url(#paint44_linear)"/>
<path d="M2.76999 33.59C2.8378 33.5887 2.9052 33.6009 2.96823 33.6259C3.03127 33.6509 3.08867 33.6883 3.13709 33.7358C3.18551 33.7833 3.22398 33.84 3.25024 33.9025C3.27649 33.965 3.29 34.0322 3.28999 34.1C3.28999 34.2379 3.23521 34.3702 3.13769 34.4677C3.04017 34.5652 2.9079 34.62 2.76999 34.62C2.70086 34.6213 2.63217 34.6089 2.56792 34.5833C2.50368 34.5578 2.44516 34.5197 2.39581 34.4713C2.34646 34.4229 2.30726 34.3651 2.2805 34.3013C2.25375 34.2376 2.23998 34.1691 2.23999 34.1C2.24129 34.0317 2.25603 33.9643 2.28337 33.9018C2.31071 33.8392 2.35012 33.7826 2.39934 33.7352C2.44856 33.6878 2.50662 33.6506 2.57022 33.6257C2.63382 33.6008 2.7017 33.5887 2.76999 33.59Z" fill="url(#paint45_linear)"/>
<path d="M2.76999 36.78C2.8378 36.7787 2.9052 36.7909 2.96823 36.8159C3.03127 36.841 3.08867 36.8783 3.13709 36.9258C3.18551 36.9733 3.22398 37.03 3.25024 37.0925C3.27649 37.155 3.29 37.2222 3.28999 37.29C3.28999 37.4279 3.23521 37.5602 3.13769 37.6577C3.04017 37.7552 2.9079 37.81 2.76999 37.81C2.70086 37.8113 2.63217 37.7989 2.56792 37.7733C2.50368 37.7478 2.44516 37.7097 2.39581 37.6613C2.34646 37.6129 2.30726 37.5551 2.2805 37.4913C2.25375 37.4276 2.23998 37.3591 2.23999 37.29C2.24129 37.2217 2.25603 37.1544 2.28337 37.0918C2.31071 37.0292 2.35012 36.9726 2.39934 36.9252C2.44856 36.8778 2.50662 36.8406 2.57022 36.8157C2.63382 36.7908 2.7017 36.7787 2.76999 36.78Z" fill="url(#paint46_linear)"/>
<path d="M2.76999 39.97C2.8378 39.9687 2.9052 39.9809 2.96823 40.0059C3.03127 40.031 3.08867 40.0683 3.13709 40.1158C3.18551 40.1633 3.22398 40.22 3.25024 40.2825C3.27649 40.345 3.29 40.4122 3.28999 40.48C3.28999 40.6179 3.23521 40.7502 3.13769 40.8477C3.04017 40.9452 2.9079 41 2.76999 41C2.70086 41.0013 2.63217 40.9889 2.56792 40.9633C2.50368 40.9378 2.44516 40.8997 2.39581 40.8513C2.34646 40.8029 2.30726 40.7451 2.2805 40.6813C2.25375 40.6176 2.23998 40.5491 2.23999 40.48C2.24129 40.4117 2.25603 40.3443 2.28337 40.2818C2.31071 40.2192 2.35012 40.1626 2.39934 40.1152C2.44856 40.0679 2.50662 40.0307 2.57022 40.0057C2.63382 39.9808 2.7017 39.9687 2.76999 39.97Z" fill="url(#paint47_linear)"/>
<path d="M2.76999 62.3C2.8378 62.2987 2.9052 62.3109 2.96823 62.3359C3.03127 62.3609 3.08867 62.3983 3.13709 62.4458C3.18551 62.4933 3.22398 62.55 3.25024 62.6125C3.27649 62.675 3.29 62.7422 3.28999 62.81C3.29698 62.8824 3.28871 62.9554 3.26573 63.0244C3.24275 63.0934 3.20556 63.1567 3.15656 63.2105C3.10755 63.2642 3.04783 63.307 2.98125 63.3362C2.91466 63.3654 2.8427 63.3803 2.76999 63.38C2.70086 63.3813 2.63217 63.3689 2.56792 63.3433C2.50368 63.3178 2.44516 63.2797 2.39581 63.2313C2.34646 63.1829 2.30726 63.1251 2.2805 63.0613C2.25375 62.9976 2.23998 62.9291 2.23999 62.86C2.24129 62.7917 2.25603 62.7243 2.28337 62.6617C2.31071 62.5992 2.35012 62.5426 2.39934 62.4952C2.44856 62.4478 2.50662 62.4106 2.57022 62.3857C2.63382 62.3608 2.7017 62.3487 2.76999 62.35V62.3Z" fill="url(#paint48_linear)"/>
<path d="M2.76999 65.49C2.8378 65.4887 2.9052 65.5009 2.96823 65.5259C3.03127 65.5509 3.08867 65.5883 3.13709 65.6358C3.18551 65.6833 3.22398 65.74 3.25024 65.8025C3.27649 65.865 3.29 65.9322 3.28999 66C3.28999 66.1379 3.23521 66.2702 3.13769 66.3677C3.04017 66.4652 2.9079 66.52 2.76999 66.52C2.70086 66.5213 2.63217 66.5089 2.56792 66.4833C2.50368 66.4578 2.44516 66.4197 2.39581 66.3713C2.34646 66.3229 2.30726 66.2651 2.2805 66.2013C2.25375 66.1376 2.23998 66.0691 2.23999 66C2.24129 65.9317 2.25603 65.8643 2.28337 65.8017C2.31071 65.7392 2.35012 65.6826 2.39934 65.6352C2.44856 65.5878 2.50662 65.5506 2.57022 65.5257C2.63382 65.5008 2.7017 65.4887 2.76999 65.49Z" fill="url(#paint49_linear)"/>
<path d="M2.76999 68.68C2.8378 68.6787 2.9052 68.6909 2.96823 68.7159C3.03127 68.7409 3.08867 68.7783 3.13709 68.8258C3.18551 68.8733 3.22398 68.93 3.25024 68.9925C3.27649 69.055 3.29 69.1222 3.28999 69.19C3.28999 69.3279 3.23521 69.4602 3.13769 69.5577C3.04017 69.6552 2.9079 69.71 2.76999 69.71C2.70086 69.7113 2.63217 69.6989 2.56792 69.6733C2.50368 69.6478 2.44516 69.6097 2.39581 69.5613C2.34646 69.5129 2.30726 69.4551 2.2805 69.3913C2.25375 69.3276 2.23998 69.2591 2.23999 69.19C2.24129 69.1217 2.25603 69.0543 2.28337 68.9918C2.31071 68.9292 2.35012 68.8726 2.39934 68.8252C2.44856 68.7778 2.50662 68.7406 2.57022 68.7157C2.63382 68.6908 2.7017 68.6787 2.76999 68.68Z" fill="url(#paint50_linear)"/>
<path d="M2.77006 71.87C2.89973 71.8694 3.02495 71.9173 3.12115 72.0042C3.21735 72.0912 3.27759 72.2109 3.29006 72.34L2.29006 72.57C2.27962 72.5071 2.27962 72.4429 2.29006 72.38C2.29136 72.3117 2.30611 72.2443 2.33345 72.1818C2.36079 72.1192 2.40019 72.0626 2.44941 72.0152C2.49862 71.9678 2.55669 71.9306 2.62029 71.9057C2.68389 71.8808 2.75178 71.8687 2.82007 71.87H2.77006Z" fill="url(#paint51_linear)"/>
<path d="M-0.47 30.38C-0.40219 30.3787 -0.33479 30.3909 -0.27176 30.4159C-0.20872 30.441 -0.15132 30.4783 -0.1029 30.5258C-0.05448 30.5733 -0.0160099 30.63 0.0102401 30.6925C0.0364901 30.755 0.05001 30.8222 0.05 30.89C0.05 31.0279 -0.00478995 31.1602 -0.10231 31.2577C-0.19983 31.3552 -0.33209 31.41 -0.47 31.41C-0.53913 31.4113 -0.60783 31.3989 -0.67207 31.3733C-0.73632 31.3478 -0.79483 31.3097 -0.84418 31.2613C-0.89353 31.2129 -0.93273 31.1551 -0.95949 31.0913C-0.98624 31.0276 -1.00001 30.9592 -1 30.89C-0.9987 30.8217 -0.98396 30.7544 -0.95662 30.6918C-0.92928 30.6292 -0.88987 30.5726 -0.84065 30.5252C-0.79143 30.4779 -0.73337 30.4407 -0.66978 30.4157C-0.60618 30.3908 -0.53829 30.3787 -0.47 30.38Z" fill="url(#paint52_linear)"/>
<path d="M-0.47 33.59C-0.40219 33.5887 -0.33479 33.6009 -0.27176 33.6259C-0.20872 33.6509 -0.15132 33.6883 -0.1029 33.7358C-0.05448 33.7833 -0.0160099 33.84 0.0102401 33.9025C0.0364901 33.965 0.05001 34.0322 0.05 34.1C0.05 34.2379 -0.00478995 34.3702 -0.10231 34.4677C-0.19983 34.5652 -0.33209 34.62 -0.47 34.62C-0.53913 34.6213 -0.60783 34.6089 -0.67207 34.5833C-0.73632 34.5578 -0.79483 34.5197 -0.84418 34.4713C-0.89353 34.4229 -0.93273 34.3651 -0.95949 34.3013C-0.98624 34.2376 -1.00001 34.1691 -1 34.1C-0.9987 34.0317 -0.98396 33.9643 -0.95662 33.9018C-0.92928 33.8392 -0.88987 33.7826 -0.84065 33.7352C-0.79143 33.6878 -0.73337 33.6506 -0.66978 33.6257C-0.60618 33.6008 -0.53829 33.5887 -0.47 33.59Z" fill="url(#paint53_linear)"/>
<path d="M-0.47 36.78C-0.40219 36.7787 -0.33479 36.7909 -0.27176 36.8159C-0.20872 36.841 -0.15132 36.8783 -0.1029 36.9258C-0.05448 36.9733 -0.0160099 37.03 0.0102401 37.0925C0.0364901 37.155 0.05001 37.2222 0.05 37.29C0.05 37.4279 -0.00478995 37.5602 -0.10231 37.6577C-0.19983 37.7552 -0.33209 37.81 -0.47 37.81C-0.53913 37.8113 -0.60783 37.7989 -0.67207 37.7733C-0.73632 37.7478 -0.79483 37.7097 -0.84418 37.6613C-0.89353 37.6129 -0.93273 37.5551 -0.95949 37.4913C-0.98624 37.4276 -1.00001 37.3591 -1 37.29C-0.9987 37.2217 -0.98396 37.1544 -0.95662 37.0918C-0.92928 37.0292 -0.88987 36.9726 -0.84065 36.9252C-0.79143 36.8778 -0.73337 36.8406 -0.66978 36.8157C-0.60618 36.7908 -0.53829 36.7787 -0.47 36.78Z" fill="url(#paint54_linear)"/>
<path d="M-0.47 39.97C-0.40219 39.9687 -0.33479 39.9809 -0.27176 40.0059C-0.20872 40.031 -0.15132 40.0683 -0.1029 40.1158C-0.05448 40.1633 -0.0160099 40.22 0.0102401 40.2825C0.0364901 40.345 0.05001 40.4122 0.05 40.48C0.05 40.6179 -0.00478995 40.7502 -0.10231 40.8477C-0.19983 40.9452 -0.33209 41 -0.47 41C-0.53913 41.0013 -0.60783 40.9889 -0.67207 40.9633C-0.73632 40.9378 -0.79483 40.8997 -0.84418 40.8513C-0.89353 40.8029 -0.93273 40.7451 -0.95949 40.6813C-0.98624 40.6176 -1.00001 40.5491 -1 40.48C-0.9987 40.4117 -0.98396 40.3443 -0.95662 40.2818C-0.92928 40.2192 -0.88987 40.1626 -0.84065 40.1152C-0.79143 40.0679 -0.73337 40.0307 -0.66978 40.0057C-0.60618 39.9808 -0.53829 39.9687 -0.47 39.97Z" fill="url(#paint55_linear)"/>
<path d="M-0.47 62.3C-0.40219 62.2987 -0.33479 62.3109 -0.27176 62.3359C-0.20872 62.3609 -0.15132 62.3983 -0.1029 62.4458C-0.05448 62.4933 -0.0160099 62.55 0.0102401 62.6125C0.0364901 62.675 0.05001 62.7422 0.05 62.81C0.05 62.9479 -0.00478995 63.0802 -0.10231 63.1777C-0.19983 63.2752 -0.33209 63.33 -0.47 63.33C-0.53913 63.3313 -0.60783 63.3189 -0.67207 63.2933C-0.73632 63.2678 -0.79483 63.2297 -0.84418 63.1813C-0.89353 63.1329 -0.93273 63.0751 -0.95949 63.0113C-0.98624 62.9476 -1.00001 62.8791 -1 62.81C-0.9987 62.7417 -0.98396 62.6743 -0.95662 62.6117C-0.92928 62.5492 -0.88987 62.4926 -0.84065 62.4452C-0.79143 62.3978 -0.73337 62.3606 -0.66978 62.3357C-0.60618 62.3108 -0.53829 62.2987 -0.47 62.3Z" fill="url(#paint56_linear)"/>
<path d="M-0.47 65.49C-0.40219 65.4887 -0.33479 65.5009 -0.27176 65.5259C-0.20872 65.5509 -0.15132 65.5883 -0.1029 65.6358C-0.05448 65.6833 -0.0160099 65.74 0.0102401 65.8025C0.0364901 65.865 0.05001 65.9322 0.05 66C0.05 66.1379 -0.00478995 66.2702 -0.10231 66.3677C-0.19983 66.4652 -0.33209 66.52 -0.47 66.52C-0.53913 66.5213 -0.60783 66.5089 -0.67207 66.4833C-0.73632 66.4578 -0.79483 66.4197 -0.84418 66.3713C-0.89353 66.3229 -0.93273 66.2651 -0.95949 66.2013C-0.98624 66.1376 -1.00001 66.0691 -1 66C-0.9987 65.9317 -0.98396 65.8643 -0.95662 65.8017C-0.92928 65.7392 -0.88987 65.6826 -0.84065 65.6352C-0.79143 65.5878 -0.73337 65.5506 -0.66978 65.5257C-0.60618 65.5008 -0.53829 65.4887 -0.47 65.49Z" fill="url(#paint57_linear)"/>
<path d="M-0.47 68.68C-0.40219 68.6787 -0.33479 68.6909 -0.27176 68.7159C-0.20872 68.7409 -0.15132 68.7783 -0.1029 68.8258C-0.05448 68.8733 -0.0160099 68.93 0.0102401 68.9925C0.0364901 69.055 0.05001 69.1222 0.05 69.19C0.05 69.3279 -0.00478995 69.4602 -0.10231 69.5577C-0.19983 69.6552 -0.33209 69.71 -0.47 69.71C-0.53913 69.7113 -0.60783 69.6989 -0.67207 69.6733C-0.73632 69.6478 -0.79483 69.6097 -0.84418 69.5613C-0.89353 69.5129 -0.93273 69.4551 -0.95949 69.3913C-0.98624 69.3276 -1.00001 69.2591 -1 69.19C-0.9987 69.1217 -0.98396 69.0543 -0.95662 68.9918C-0.92928 68.9292 -0.88987 68.8726 -0.84065 68.8252C-0.79143 68.7778 -0.73337 68.7406 -0.66978 68.7157C-0.60618 68.6908 -0.53829 68.6787 -0.47 68.68Z" fill="url(#paint58_linear)"/>
<path d="M-0.47 71.87C-0.40219 71.8687 -0.33479 71.8809 -0.27176 71.9059C-0.20872 71.9309 -0.15132 71.9683 -0.1029 72.0158C-0.05448 72.0633 -0.0160099 72.12 0.0102401 72.1825C0.0364901 72.245 0.05001 72.3122 0.05 72.38C0.05 72.5179 -0.00478995 72.6502 -0.10231 72.7477C-0.19983 72.8452 -0.33209 72.9 -0.47 72.9C-0.53913 72.9013 -0.60783 72.8889 -0.67207 72.8633C-0.73632 72.8378 -0.79483 72.7997 -0.84418 72.7513C-0.89353 72.7029 -0.93273 72.6451 -0.95949 72.5813C-0.98624 72.5176 -1.00001 72.4491 -1 72.38C-0.9987 72.3117 -0.98396 72.2443 -0.95662 72.1818C-0.92928 72.1192 -0.88987 72.0626 -0.84065 72.0152C-0.79143 71.9678 -0.73337 71.9306 -0.66978 71.9057C-0.60618 71.8808 -0.53829 71.8687 -0.47 71.87Z" fill="url(#paint59_linear)"/>
<path d="M108.11 48.22C107.817 48.22 107.536 48.1044 107.329 47.8984C107.121 47.6924 107.003 47.4126 107 47.12V46.12C107.003 45.8273 107.121 45.5476 107.329 45.3416C107.536 45.1356 107.817 45.02 108.11 45.02C108.403 45.02 108.684 45.1356 108.891 45.3416C109.099 45.5476 109.217 45.8273 109.22 46.12V47.12C109.217 47.4126 109.099 47.6924 108.891 47.8984C108.684 48.1044 108.403 48.22 108.11 48.22Z" fill="url(#paint60_linear)" fill-opacity="0.5"/>
<path d="M108.11 41.23C107.817 41.23 107.536 41.1145 107.329 40.9084C107.121 40.7024 107.003 40.4227 107 40.13V39.13C107 38.8356 107.117 38.5533 107.325 38.3451C107.533 38.137 107.816 38.02 108.11 38.02C108.404 38.02 108.687 38.137 108.895 38.3451C109.103 38.5533 109.22 38.8356 109.22 39.13V40.13C109.217 40.4227 109.099 40.7024 108.891 40.9084C108.684 41.1145 108.403 41.23 108.11 41.23Z" fill="url(#paint61_linear)" fill-opacity="0.5"/>
<path d="M112.11 44.22H111.11C110.817 44.2174 110.538 44.0993 110.332 43.8914C110.126 43.6835 110.01 43.4027 110.01 43.11C110.01 42.8174 110.126 42.5365 110.332 42.3286C110.538 42.1208 110.817 42.0026 111.11 42H112.11C112.404 42 112.687 42.117 112.895 42.3251C113.103 42.5333 113.22 42.8156 113.22 43.11C113.22 43.4044 113.103 43.6867 112.895 43.8949C112.687 44.1031 112.404 44.22 112.11 44.22Z" fill="url(#paint62_linear)" fill-opacity="0.5"/>
<path d="M105.13 44.22H104.13C103.836 44.22 103.553 44.1031 103.345 43.8949C103.137 43.6867 103.02 43.4044 103.02 43.11C103.02 42.8156 103.137 42.5333 103.345 42.3251C103.553 42.117 103.836 42 104.13 42H105.13C105.423 42.0026 105.702 42.1208 105.908 42.3286C106.115 42.5365 106.23 42.8174 106.23 43.11C106.23 43.4027 106.115 43.6835 105.908 43.8914C105.702 44.0993 105.423 44.2174 105.13 44.22Z" fill="url(#paint63_linear)" fill-opacity="0.5"/>
<path fill-rule="evenodd" clip-rule="evenodd" d="M81.01 0H89.01C88.998 1.35444 89.257 2.69761 89.772 3.9502C90.288 5.2028 91.049 6.33943 92.011 7.293C92.973 8.24657 94.116 8.99774 95.373 9.50218C96.63 10.0066 97.976 10.2541 99.33 10.23C100.687 10.2582 102.035 10.0137 103.296 9.51107C104.557 9.00845 105.703 8.25792 106.669 7.30393C107.634 6.34995 108.398 5.21193 108.915 3.95731C109.432 2.7027 109.692 1.35702 109.68 0H117.47C117.412 4.79575 115.466 9.37525 112.053 12.745C108.64 16.1148 104.036 18.003 99.24 18C94.443 18.003 89.838 16.1151 86.424 12.7456C83.009 9.37616 81.0605 4.79666 81 0H81.01Z" fill="url(#paint64_linear)"/>
<g opacity="0.59">
<path opacity="0.59" d="M115.92 90.31V91.99C115.481 91.946 115.06 91.7943 114.693 91.5483C114.327 91.3024 114.027 90.9697 113.82 90.58C113.43 90.04 113.17 89.67 112.6 89.67C112.03 89.67 111.77 90.04 111.38 90.58C111.181 90.9742 110.885 91.3108 110.519 91.5577C110.153 91.8045 109.73 91.9534 109.29 91.99C108.851 91.9536 108.429 91.8048 108.065 91.5578C107.701 91.3108 107.406 90.974 107.21 90.58C106.82 90.04 106.56 89.67 105.99 89.67C105.42 89.67 105.17 90.04 104.78 90.58C104.581 90.9742 104.285 91.3108 103.919 91.5577C103.553 91.8045 103.13 91.9534 102.69 91.99C102.251 91.9536 101.829 91.8048 101.465 91.5578C101.101 91.3108 100.806 90.974 100.61 90.58C100.22 90.04 99.96 89.67 99.39 89.67C98.82 89.67 98.56 90.04 98.17 90.58C97.975 90.9746 97.68 91.3119 97.316 91.559C96.951 91.8061 96.529 91.9546 96.09 91.99C95.651 91.9546 95.229 91.8061 94.864 91.559C94.5 91.3119 94.205 90.9746 94.01 90.58C93.62 90.04 93.36 89.67 92.79 89.67C92.22 89.67 91.95 90.04 91.56 90.58C91.37 90.9811 91.076 91.3236 90.708 91.5717C90.341 91.8198 89.9129 91.9643 89.47 91.99C89.0274 91.9492 88.6019 91.799 88.2319 91.5528C87.8618 91.3067 87.5587 90.9724 87.35 90.58C86.96 90.04 86.7 89.67 86.13 89.67C85.56 89.67 85.3 90.04 84.91 90.58C84.7113 90.9742 84.4149 91.3108 84.049 91.5577C83.683 91.8045 83.2599 91.9534 82.82 91.99C82.3813 91.9536 81.9594 91.8048 81.5951 91.5578C81.2307 91.3108 80.9362 90.974 80.74 90.58C80.35 90.04 80.09 89.67 79.52 89.67C78.95 89.67 78.69 90.04 78.31 90.58C78.1113 90.9742 77.8149 91.3108 77.449 91.5577C77.083 91.8045 76.6599 91.9534 76.22 91.99C75.7811 91.9546 75.3588 91.8061 74.9943 91.559C74.6297 91.3119 74.3354 90.9746 74.14 90.58C73.75 90.04 73.49 89.67 72.92 89.67C72.35 89.67 72.09 90.04 71.7 90.58C71.5046 90.9746 71.2102 91.3119 70.8457 91.559C70.4812 91.8061 70.0589 91.9546 69.62 91.99C69.1811 91.9546 68.7588 91.8061 68.3943 91.559C68.0298 91.3119 67.7354 90.9746 67.54 90.58C67.15 90.04 66.89 89.67 66.32 89.67C65.75 89.67 65.48 90.04 65.09 90.58C64.9004 90.9811 64.6062 91.3236 64.2384 91.5717C63.8707 91.8198 63.4429 91.9643 63 91.99V90.31C63.63 90.31 63.84 89.95 64.23 89.41C64.4288 89.0098 64.7294 88.6689 65.1014 88.4215C65.4735 88.174 65.9041 88.0287 66.35 88C66.7899 88.0366 67.213 88.1855 67.579 88.4323C67.9449 88.6792 68.2413 89.0158 68.44 89.41C68.83 89.95 69.09 90.31 69.66 90.31C70.23 90.31 70.48 89.95 70.87 89.41C71.0687 89.0158 71.3651 88.6792 71.731 88.4323C72.097 88.1855 72.5201 88.0366 72.96 88C73.3989 88.0354 73.8212 88.1839 74.1857 88.431C74.5502 88.6781 74.8446 89.0154 75.04 89.41C75.43 89.95 75.69 90.31 76.26 90.31C76.83 90.31 77.09 89.95 77.48 89.41C77.6754 89.0154 77.9697 88.6781 78.3343 88.431C78.6988 88.1839 79.1211 88.0354 79.56 88C79.9989 88.0354 80.4212 88.1839 80.7857 88.431C81.1502 88.6781 81.4446 89.0154 81.64 89.41C82.03 89.95 82.29 90.31 82.86 90.31C83.43 90.31 83.69 89.95 84.08 89.41C84.2762 89.016 84.5707 88.6792 84.9351 88.4322C85.2994 88.1852 85.7213 88.0364 86.16 88C86.6011 88.0368 87.0255 88.1857 87.393 88.4324C87.7605 88.6792 88.0589 89.0156 88.26 89.41C88.65 89.95 88.86 90.31 89.49 90.31C90.12 90.31 90.33 89.95 90.72 89.41C90.916 89.016 91.211 88.6792 91.575 88.4322C91.939 88.1852 92.361 88.0364 92.8 88C93.24 88.0357 93.664 88.1841 94.03 88.4311C94.396 88.6781 94.692 89.0152 94.89 89.41C95.28 89.95 95.54 90.31 96.11 90.31C96.68 90.31 96.92 89.94 97.35 89.41C97.538 89.0261 97.82 88.6958 98.17 88.4494C98.519 88.203 98.925 88.0485 99.35 88C99.789 88.0354 100.211 88.1839 100.576 88.431C100.94 88.6781 101.235 89.0154 101.43 89.41C101.82 89.95 102.08 90.31 102.65 90.31C103.22 90.31 103.48 89.95 103.87 89.41C104.065 89.0154 104.36 88.6781 104.724 88.431C105.089 88.1839 105.511 88.0354 105.95 88C106.39 88.0366 106.813 88.1855 107.179 88.4323C107.545 88.6792 107.841 89.0158 108.04 89.41C108.42 89.95 108.68 90.31 109.25 90.31C109.82 90.31 110.08 89.95 110.47 89.41C110.668 89.0172 110.963 88.6814 111.327 88.4347C111.691 88.1879 112.112 88.0383 112.55 88C112.992 88.0349 113.417 88.183 113.785 88.43C114.152 88.6769 114.45 89.0145 114.65 89.41C115.08 89.94 115.29 90.31 115.92 90.31Z" fill="url(#paint65_linear)"/>
<path opacity="0.59" d="M122.13 94.22V95.94C121.692 95.8962 121.272 95.7444 120.907 95.4983C120.543 95.2523 120.245 94.9195 120.04 94.53C119.65 93.99 119.39 93.63 118.82 93.63C118.25 93.63 117.98 93.99 117.6 94.53C117.401 94.9242 117.105 95.2608 116.739 95.5077C116.373 95.7545 115.95 95.9034 115.51 95.94C115.071 95.9046 114.649 95.7561 114.284 95.509C113.92 95.2619 113.625 94.9246 113.43 94.53C113.04 93.99 112.78 93.63 112.21 93.63C111.64 93.63 111.38 93.99 110.99 94.53C110.795 94.9246 110.5 95.2619 110.136 95.509C109.771 95.7561 109.349 95.9046 108.91 95.94C108.471 95.9046 108.049 95.7561 107.684 95.509C107.32 95.2619 107.025 94.9246 106.83 94.53C106.44 93.99 106.18 93.63 105.61 93.63C105.04 93.63 104.78 93.99 104.39 94.53C104.197 94.9186 103.909 95.2519 103.552 95.4985C103.195 95.7451 102.782 95.8971 102.35 95.94C101.91 95.9034 101.487 95.7545 101.121 95.5077C100.755 95.2608 100.459 94.9242 100.26 94.53C99.87 93.99 99.62 93.63 99.05 93.63C98.48 93.63 98.21 93.99 97.82 94.53C97.626 94.9383 97.324 95.2856 96.947 95.5343C96.57 95.7829 96.132 95.9232 95.68 95.94C95.242 95.8962 94.822 95.7444 94.457 95.4983C94.093 95.2523 93.795 94.9195 93.59 94.53C93.2 93.99 92.94 93.63 92.37 93.63C91.8 93.63 91.53 93.99 91.14 94.53C90.945 94.9246 90.65 95.2619 90.286 95.509C89.9212 95.7561 89.4989 95.9046 89.06 95.94C88.621 95.9046 88.1988 95.7561 87.8342 95.509C87.4697 95.2619 87.1754 94.9246 86.98 94.53C86.59 93.99 86.33 93.63 85.76 93.63C85.19 93.63 84.93 93.99 84.54 94.53C84.3445 94.9246 84.0502 95.2619 83.6857 95.509C83.3212 95.7561 82.8989 95.9046 82.46 95.94C82.0125 95.9028 81.5825 95.7495 81.2124 95.4952C80.8424 95.2409 80.5451 94.8944 80.35 94.49C79.96 93.95 79.71 93.59 79.14 93.59C78.57 93.59 78.31 93.95 77.92 94.49C77.7308 94.8888 77.4416 95.2319 77.0807 95.4859C76.7197 95.74 76.2992 95.8964 75.86 95.94C75.4201 95.9034 74.9969 95.7545 74.631 95.5077C74.2651 95.2608 73.9686 94.9242 73.77 94.53C73.38 93.99 73.13 93.63 72.56 93.63C71.99 93.63 71.72 93.99 71.33 94.53C71.1395 94.9325 70.8438 95.276 70.4742 95.5242C70.1045 95.7724 69.6746 95.9161 69.23 95.94V94.26C69.86 94.26 70.07 93.9 70.46 93.36C70.6573 92.964 70.9532 92.6253 71.3192 92.3766C71.6853 92.128 72.1091 91.9776 72.55 91.94C72.9899 91.9766 73.413 92.1255 73.7789 92.3723C74.1449 92.6192 74.4413 92.9558 74.64 93.35C75.03 93.89 75.28 94.25 75.86 94.25C76.44 94.25 76.68 93.89 77.07 93.35C77.2686 92.9558 77.5651 92.6192 77.931 92.3723C78.2969 92.1255 78.7201 91.9766 79.16 91.94C79.5987 91.9764 80.0205 92.1252 80.3849 92.3722C80.7492 92.6192 81.0438 92.956 81.24 93.35C81.63 93.89 81.89 94.25 82.46 94.25C83.03 94.25 83.28 93.89 83.67 93.35C83.8686 92.9558 84.1651 92.6192 84.531 92.3723C84.8969 92.1255 85.3201 91.9766 85.76 91.94C86.1987 91.9764 86.6205 92.1252 86.9849 92.3722C87.3492 92.6192 87.6438 92.956 87.84 93.35C88.23 93.89 88.49 94.25 89.06 94.25C89.63 94.25 89.89 93.89 90.28 93.35C90.475 92.9568 90.767 92.6204 91.13 92.3734C91.493 92.1263 91.913 91.9771 92.35 91.94C92.789 91.971 93.212 92.1142 93.58 92.3558C93.948 92.5975 94.247 92.9295 94.45 93.32C94.84 93.86 95.06 94.22 95.68 94.22C96.3 94.22 96.52 93.86 96.91 93.32C97.112 92.9314 97.411 92.6008 97.776 92.3594C98.142 92.118 98.563 91.9736 99 91.94C99.44 91.9766 99.863 92.1255 100.229 92.3723C100.595 92.6192 100.891 92.9558 101.09 93.35C101.48 93.89 101.73 94.25 102.31 94.25C102.89 94.25 103.13 93.89 103.52 93.35C103.719 92.9558 104.015 92.6192 104.381 92.3723C104.747 92.1255 105.17 91.9766 105.61 91.94C106.049 91.9764 106.471 92.1252 106.835 92.3722C107.199 92.6192 107.494 92.956 107.69 93.35C108.08 93.89 108.34 94.25 108.91 94.25C109.48 94.25 109.73 93.89 110.12 93.35C110.319 92.9558 110.615 92.6192 110.981 92.3723C111.347 92.1255 111.77 91.9766 112.21 91.94C112.649 91.9754 113.071 92.1239 113.436 92.371C113.8 92.6181 114.095 92.9554 114.29 93.35C114.68 93.89 114.94 94.25 115.51 94.25C116.08 94.25 116.34 93.89 116.73 93.35C116.925 92.9554 117.22 92.6181 117.584 92.371C117.949 92.1239 118.371 91.9754 118.81 91.94C119.251 91.9768 119.676 92.1257 120.043 92.3724C120.411 92.6192 120.709 92.9557 120.91 93.35C121.29 93.86 121.51 94.22 122.13 94.22Z" fill="url(#paint66_linear)"/>
<path opacity="0.59" d="M128.97 98.13V99.81C128.531 99.766 128.109 99.6143 127.743 99.3683C127.377 99.1224 127.077 98.7897 126.87 98.4C126.48 97.86 126.22 97.5 125.65 97.5C125.08 97.5 124.82 97.86 124.43 98.4C124.232 98.7928 123.937 99.1286 123.573 99.3754C123.209 99.6221 122.788 99.7718 122.35 99.81C121.91 99.7743 121.486 99.6259 121.12 99.3789C120.754 99.1319 120.458 98.7948 120.26 98.4C119.87 97.86 119.62 97.5 119.04 97.5C118.46 97.5 118.22 97.86 117.83 98.4C117.631 98.7942 117.335 99.1308 116.969 99.3777C116.603 99.6245 116.18 99.7734 115.74 99.81C115.301 99.7736 114.879 99.6248 114.515 99.3778C114.151 99.1308 113.856 98.794 113.66 98.4C113.27 97.86 113.01 97.5 112.44 97.5C111.87 97.5 111.61 97.86 111.23 98.4C111.031 98.7942 110.735 99.1308 110.369 99.3777C110.003 99.6245 109.58 99.7734 109.14 99.81C108.701 99.7746 108.279 99.6261 107.914 99.379C107.55 99.1319 107.255 98.7946 107.06 98.4C106.67 97.86 106.41 97.5 105.84 97.5C105.27 97.5 105 97.86 104.61 98.4C104.423 98.803 104.129 99.1474 103.761 99.3959C103.393 99.6443 102.964 99.7875 102.52 99.81C102.081 99.766 101.659 99.6143 101.293 99.3683C100.927 99.1224 100.627 98.7897 100.42 98.4C100.03 97.86 99.7699 97.5 99.1999 97.5C98.6299 97.5 98.3699 97.86 97.9799 98.4C97.7809 98.7942 97.4849 99.1308 97.1189 99.3777C96.7529 99.6245 96.3299 99.7734 95.8899 99.81C95.4509 99.7736 95.0289 99.6248 94.6649 99.3778C94.3009 99.1308 94.0059 98.794 93.8099 98.4C93.4199 97.86 93.1599 97.5 92.5899 97.5C92.0199 97.5 91.7699 97.86 91.3799 98.4C91.1809 98.7942 90.8849 99.1308 90.5189 99.3777C90.1529 99.6245 89.7297 99.7734 89.2898 99.81C88.8509 99.7746 88.4286 99.6261 88.0641 99.379C87.6996 99.1319 87.4053 98.7946 87.2098 98.4C86.8198 97.86 86.5598 97.5 85.9898 97.5C85.4198 97.5 85.1598 97.86 84.7698 98.4C84.5744 98.7946 84.2801 99.1319 83.9156 99.379C83.5511 99.6261 83.1288 99.7746 82.6898 99.81C82.2509 99.7746 81.8286 99.6261 81.4641 99.379C81.0996 99.1319 80.8053 98.7946 80.6098 98.4C80.2198 97.86 79.9598 97.5 79.3898 97.5C78.8198 97.5 78.5498 97.86 78.1598 98.4C77.9702 98.8011 77.6761 99.1436 77.3083 99.3917C76.9405 99.6399 76.5127 99.7843 76.0698 99.81V98.13C76.6998 98.13 76.9098 97.77 77.2998 97.23C77.4935 96.8401 77.7833 96.5059 78.142 96.2592C78.5007 96.0125 78.9164 95.8613 79.3498 95.82C79.79 95.8557 80.2135 96.0041 80.5796 96.2511C80.9457 96.4981 81.242 96.8352 81.4398 97.23C81.8298 97.77 82.0898 98.13 82.6598 98.13C83.2298 98.13 83.4898 97.77 83.8798 97.23C84.0753 96.8354 84.3696 96.4981 84.7341 96.251C85.0986 96.0039 85.5209 95.8554 85.9598 95.82C86.3988 95.8554 86.8211 96.0039 87.1856 96.251C87.5501 96.4981 87.8444 96.8354 88.0398 97.23C88.4298 97.77 88.6898 98.13 89.2598 98.13C89.8298 98.13 90.0899 97.77 90.4799 97.23C90.6749 96.8354 90.9699 96.4981 91.3339 96.251C91.6989 96.0039 92.1209 95.8554 92.5599 95.82C92.9999 95.8566 93.4229 96.0055 93.7889 96.2523C94.1549 96.4992 94.4509 96.8358 94.6499 97.23C95.0299 97.77 95.2899 98.13 95.8599 98.13C96.4299 98.13 96.6899 97.77 97.0799 97.23C97.2779 96.8372 97.5729 96.5014 97.9369 96.2547C98.3009 96.0079 98.7219 95.8583 99.1599 95.82C99.6009 95.8568 100.025 96.0057 100.393 96.2524C100.76 96.4992 101.059 96.8357 101.26 97.23C101.65 97.77 101.86 98.13 102.49 98.13C103.12 98.13 103.33 97.77 103.72 97.23C103.916 96.836 104.211 96.4992 104.575 96.2522C104.939 96.0053 105.361 95.8564 105.8 95.82C106.241 95.8538 106.665 96.0015 107.031 96.2486C107.398 96.4958 107.694 96.834 107.89 97.23C108.28 97.77 108.54 98.13 109.11 98.13C109.68 98.13 109.94 97.77 110.33 97.23C110.525 96.8354 110.82 96.4981 111.184 96.251C111.549 96.0039 111.971 95.8554 112.41 95.82C112.849 95.8554 113.271 96.0039 113.636 96.251C114 96.4981 114.295 96.8354 114.49 97.23C114.88 97.77 115.14 98.13 115.71 98.13C116.28 98.13 116.54 97.77 116.93 97.23C117.126 96.836 117.421 96.4992 117.785 96.2522C118.149 96.0053 118.571 95.8564 119.01 95.82C119.45 95.8566 119.873 96.0055 120.239 96.2523C120.605 96.4992 120.901 96.8358 121.1 97.23C121.49 97.77 121.74 98.13 122.32 98.13C122.9 98.13 123.14 97.77 123.53 97.23C123.728 96.8372 124.023 96.5014 124.387 96.2547C124.751 96.0079 125.172 95.8583 125.61 95.82C126.052 95.855 126.477 96.003 126.845 96.25C127.212 96.497 127.51 96.8345 127.71 97.23C128.13 97.77 128.35 98.13 128.97 98.13Z" fill="url(#paint67_linear)"/>
<path opacity="0.59" d="M134.48 101.11V102.83H134.02C133.9 102.677 133.79 102.527 133.69 102.38C133.3 101.85 133.04 101.49 132.47 101.49C132.377 101.48 132.283 101.48 132.19 101.49C131.8 101.59 131.57 101.91 131.25 102.35C131.15 102.497 131.04 102.647 130.92 102.8H127.4C127.28 102.647 127.17 102.497 127.07 102.35C126.68 101.81 126.42 101.45 125.85 101.45C125.28 101.45 125.03 101.81 124.64 102.35L124.3 102.8H120.8C120.68 102.647 120.57 102.497 120.47 102.35C120.08 101.81 119.82 101.45 119.25 101.45C118.68 101.45 118.42 101.81 118.03 102.35C117.93 102.5 117.83 102.65 117.71 102.8H114.2C114.08 102.647 113.97 102.497 113.87 102.35C113.48 101.81 113.22 101.45 112.65 101.45C112.08 101.45 111.81 101.81 111.42 102.35C111.32 102.5 111.22 102.65 111.1 102.8H107.57L107.23 102.35C106.84 101.81 106.58 101.45 106.01 101.45C105.44 101.45 105.18 101.81 104.79 102.35C104.69 102.497 104.58 102.647 104.46 102.8H100.95C100.83 102.647 100.72 102.497 100.62 102.35C100.23 101.81 99.9799 101.45 99.3999 101.45C98.8199 101.45 98.5799 101.81 98.1899 102.35C98.0799 102.5 97.9799 102.65 97.8499 102.8H94.3499C94.2299 102.647 94.1199 102.497 94.0199 102.35C93.6299 101.81 93.3699 101.45 92.7999 101.45C92.2299 101.45 91.9699 101.81 91.5899 102.35L91.2499 102.8H87.7399C87.6199 102.65 87.5199 102.5 87.4199 102.35C87.0299 101.81 86.7699 101.45 86.1999 101.45C85.6299 101.45 85.3599 101.81 84.9699 102.35L84.6499 102.8H82.8799V102.09C83.5099 102.09 83.7199 101.73 84.1099 101.18C84.309 100.789 84.6044 100.455 84.9684 100.21C85.3324 99.9654 85.7528 99.8173 86.1899 99.78C86.6293 99.8137 87.0526 99.9603 87.4187 100.206C87.7849 100.451 88.0815 100.787 88.2799 101.18C88.6699 101.73 88.9299 102.09 89.4999 102.09C90.0699 102.09 90.3299 101.73 90.7099 101.18C90.9109 100.788 91.2079 100.454 91.5739 100.209C91.9389 99.9643 92.3609 99.8165 92.7999 99.78C93.2379 99.8154 93.6589 99.9627 94.0229 100.208C94.3869 100.453 94.6819 100.788 94.8799 101.18C95.2699 101.73 95.5299 102.09 96.0999 102.09C96.6699 102.09 96.9299 101.73 97.3199 101.18C97.5179 100.788 97.8129 100.453 98.1769 100.208C98.5409 99.9627 98.9619 99.8154 99.3999 99.78C99.8389 99.8165 100.261 99.9643 100.626 100.209C100.992 100.454 101.289 100.788 101.49 101.18C101.88 101.73 102.13 102.09 102.7 102.09C103.27 102.09 103.53 101.73 103.92 101.18C104.119 100.789 104.415 100.455 104.779 100.21C105.142 99.9654 105.563 99.8173 106 99.78C106.44 99.8167 106.863 99.9644 107.23 100.209C107.598 100.454 107.897 100.788 108.1 101.18C108.49 101.73 108.7 102.09 109.33 102.09C109.96 102.09 110.17 101.73 110.56 101.18C110.759 100.789 111.055 100.455 111.419 100.21C111.782 99.9654 112.203 99.8173 112.64 99.78C113.079 99.8156 113.501 99.963 113.867 100.208C114.233 100.453 114.53 100.788 114.73 101.18C115.12 101.73 115.38 102.09 115.95 102.09C116.52 102.09 116.78 101.73 117.17 101.18C117.368 100.788 117.663 100.453 118.027 100.208C118.391 99.9627 118.812 99.8154 119.25 99.78C119.694 99.815 120.122 99.9653 120.49 100.216C120.858 100.467 121.155 100.809 121.35 101.21C121.74 101.76 122 102.12 122.57 102.12C123.14 102.12 123.4 101.76 123.79 101.21C123.99 100.82 124.286 100.486 124.649 100.242C125.013 99.9967 125.433 99.8482 125.87 99.81C126.309 99.8456 126.731 99.993 127.097 100.238C127.463 100.483 127.76 100.818 127.96 101.21C128.35 101.76 128.6 102.12 129.18 102.12C129.76 102.12 130 101.76 130.39 101.21C130.51 101.05 130.63 100.87 130.77 100.71C130.966 100.437 131.222 100.214 131.519 100.058C131.816 99.9019 132.145 99.8169 132.48 99.81C132.895 99.8429 133.296 99.979 133.645 100.206C133.994 100.433 134.281 100.744 134.48 101.11Z" fill="url(#paint68_linear)"/>
</g>
</g>
<path d="M37.8224 51.986C37.8224 57.9863 33.8467 61.6713 27.3895 61.6713H21.2476C21.0838 61.6713 20.9216 61.639 20.7702 61.5764C20.6188 61.5138 20.4811 61.4219 20.3653 61.3062C20.2494 61.1904 20.1576 61.053 20.0949 60.9018C20.0321 60.7505 20 60.5884 20 60.4247V43.52C20.0071 43.1941 20.1417 42.8841 20.3749 42.6561C20.6081 42.4283 20.9215 42.3008 21.2476 42.3008H27.3895C33.8467 42.3008 37.8224 46.027 37.8224 51.986ZM32.1055 51.986C32.1055 49.2463 30.433 47.5064 27.3895 47.5064H25.7305V56.4656H27.3895C30.433 56.4656 32.1055 54.7533 32.1055 51.986Z" fill="black"/>
<path d="M52.0942 56.9861C52.2538 56.9861 52.4117 57.0178 52.5589 57.0793C52.7062 57.1406 52.8399 57.2306 52.9521 57.344C53.0643 57.4575 53.1528 57.592 53.2127 57.7399C53.2725 57.8876 53.3025 58.0459 53.3006 58.2054V60.452C53.3044 60.7767 53.1796 61.0898 52.9537 61.3232C52.7278 61.5565 52.4191 61.6915 52.0942 61.6987H41.3733C41.0471 61.6915 40.7368 61.557 40.5087 61.324C40.2807 61.091 40.153 60.778 40.1531 60.452V43.52C40.1601 43.1989 40.2909 42.8927 40.5182 42.6656C40.7455 42.4385 41.0519 42.3077 41.3733 42.3007H51.8062C51.9682 42.299 52.1291 42.329 52.2795 42.3894C52.4298 42.4496 52.5669 42.539 52.6828 42.6521C52.7986 42.7654 52.8911 42.9002 52.9547 43.0491C53.0184 43.1981 53.052 43.3581 53.0538 43.52V45.794C53.052 45.9559 53.0184 46.1159 52.9547 46.2649C52.8911 46.4138 52.7986 46.5486 52.6828 46.6618C52.5669 46.775 52.4298 46.8644 52.2795 46.9246C52.1291 46.985 51.9682 47.015 51.8062 47.0133H45.8837V49.6571H50.9562C51.2776 49.6641 51.5839 49.7949 51.8112 50.022C52.0385 50.2491 52.1694 50.5553 52.1764 50.8764V52.8764C52.1764 53.2011 52.0484 53.5126 51.8199 53.7434C51.5914 53.9743 51.2811 54.1058 50.9562 54.1094H45.8837V56.9861H52.0942Z" fill="black"/>
<path d="M68.0382 60.7534L67.4213 58.5343H61.4989L60.8955 60.7534C60.8259 61.0165 60.6712 61.2492 60.4556 61.4152C60.2398 61.5813 59.9751 61.6713 59.7028 61.6713H55.7957C55.6404 61.6695 55.4879 61.6307 55.3508 61.558C55.2137 61.4854 55.0959 61.381 55.0074 61.2537C54.9189 61.1263 54.8622 60.9797 54.8419 60.8259C54.8215 60.6722 54.8383 60.5158 54.8907 60.3699L60.5939 43.3009C60.6956 43.0159 60.8808 42.7681 61.1253 42.5898C61.3698 42.4114 61.6624 42.3108 61.9649 42.3008H66.8866C67.1886 42.3125 67.4803 42.414 67.7245 42.592C67.9687 42.7701 68.1542 43.0169 68.2575 43.3009L73.9608 60.3699C74.0111 60.5192 74.0251 60.6782 74.0013 60.8339C73.9774 60.9895 73.9166 61.1373 73.824 61.2647C73.7313 61.392 73.6096 61.4955 73.4689 61.5663C73.3282 61.6369 73.1723 61.673 73.0147 61.6713H69.1487C68.89 61.656 68.643 61.5587 68.4433 61.3937C68.2436 61.2287 68.1019 61.0044 68.0382 60.7534ZM66.2972 54.4793L64.46 47.8626L62.6366 54.4793H66.2972Z" fill="black"/>
<path d="M87.8895 56.4656C88.2108 56.4693 88.5175 56.5993 88.7434 56.8275C88.9692 57.0558 89.0961 57.3639 89.0959 57.6849V60.4247C89.0997 60.7493 88.975 61.0623 88.749 61.2958C88.5232 61.5292 88.2144 61.664 87.8895 61.6713H77.4018C77.2379 61.6713 77.0756 61.639 76.9243 61.5764C76.7729 61.5138 76.6354 61.4219 76.5196 61.3062C76.4037 61.1904 76.3118 61.0529 76.2491 60.9016C76.1865 60.7505 76.1541 60.5884 76.1541 60.4247V43.52C76.1559 43.3581 76.1897 43.1981 76.2534 43.0491C76.3171 42.9002 76.4092 42.7654 76.5251 42.6521C76.6409 42.539 76.778 42.4496 76.9284 42.3894C77.0789 42.329 77.2396 42.299 77.4018 42.3007H80.6646C80.986 42.3077 81.2922 42.4385 81.5196 42.6656C81.7469 42.8927 81.8778 43.1989 81.8848 43.52V56.4656H87.8895Z" fill="black"/>
<path d="M106 55.7395C106 59.0957 103.094 62 98.3912 62C95.2106 62 91.7559 60.9177 90.5357 57.8902C90.4836 57.7657 90.4583 57.6319 90.4609 57.497C90.4635 57.3622 90.494 57.2294 90.5507 57.107C90.6075 56.9846 90.6892 56.8754 90.7904 56.7861C90.8916 56.697 91.0103 56.6297 91.139 56.5889L94.2374 55.6162C94.4502 55.55 94.6792 55.5587 94.8864 55.641C95.0934 55.7234 95.2659 55.8741 95.3751 56.0682C95.6987 56.4779 96.118 56.802 96.5961 57.0121C97.0741 57.2222 97.5962 57.3121 98.1171 57.2737C99.6114 57.2737 100.242 56.5889 100.242 55.9039C100.242 54.7395 98.871 54.6299 96.8695 54.1504C93.113 53.2462 90.9745 51.7257 90.9745 48.1776C90.9745 44.6296 94.0728 42.0131 98.3365 42.0131C99.7518 41.9262 101.16 42.2732 102.372 43.0076C103.585 43.7421 104.545 44.8288 105.123 46.1227C105.178 46.2579 105.204 46.4034 105.198 46.5492C105.192 46.6951 105.154 46.838 105.088 46.9681C105.021 47.0982 104.928 47.2125 104.813 47.303C104.698 47.3935 104.565 47.4582 104.423 47.4927L101.353 48.2324C101.158 48.2776 100.955 48.2655 100.768 48.1974C100.58 48.1294 100.417 48.0081 100.297 47.8489C100.088 47.5419 99.802 47.2954 99.4675 47.1342C99.1329 46.9731 98.7616 46.903 98.3912 46.931C97.2533 46.931 96.4583 47.4105 96.4583 48.3009C96.4583 49.4105 98.1445 49.5475 99.6388 49.9585C104.382 51.0955 106 52.6709 106 55.7395Z" fill="black"/>
<defs>
<linearGradient id="paint0_linear" x1="62.4779" y1="0.0804735" x2="62.4779" y2="104" gradientUnits="userSpaceOnUse">
<stop stop-color="#FF9894"/>
<stop offset="1" stop-color="#FE5252"/>
</linearGradient>
<linearGradient id="paint1_linear" x1="62.4927" y1="0" x2="62.4927" y2="103.93" gradientUnits="userSpaceOnUse">
<stop stop-color="#6FD74A"/>
<stop offset="1" stop-color="#24A240"/>
</linearGradient>
<linearGradient id="paint2_linear" x1="18.51" y1="46.86" x2="19.22" y2="46.86" gradientUnits="userSpaceOnUse">
<stop offset="0.15" stop-color="#9F3632"/>
<stop offset="0.48" stop-color="#C04342"/>
<stop offset="0.79" stop-color="#E25052"/>
</linearGradient>
<linearGradient id="paint3_linear" x1="-73.1132" y1="-5.40022" x2="-72.0107" y2="-5.40022" gradientUnits="userSpaceOnUse">
<stop offset="0.15" stop-color="#9F3632"/>
<stop offset="0.48" stop-color="#C04342"/>
<stop offset="0.79" stop-color="#E25052"/>
</linearGradient>
<linearGradient id="paint4_linear" x1="-73.1132" y1="1.07588" x2="-72.0107" y2="1.07588" gradientUnits="userSpaceOnUse">
<stop offset="0.15" stop-color="#9F3632"/>
<stop offset="0.48" stop-color="#C04342"/>
<stop offset="0.79" stop-color="#E25052"/>
</linearGradient>
<linearGradient id="paint5_linear" x1="-43.4445" y1="8.00643" x2="-42.9404" y2="8.00643" gradientUnits="userSpaceOnUse">
<stop offset="0.15" stop-color="#9F3632"/>
<stop offset="0.48" stop-color="#C04342"/>
<stop offset="0.79" stop-color="#E25052"/>
</linearGradient>
<linearGradient id="paint6_linear" x1="-79.785" y1="-24.8292" x2="-78.6825" y2="-24.8292" gradientUnits="userSpaceOnUse">
<stop offset="0.15" stop-color="#9F3632"/>
<stop offset="0.48" stop-color="#C04342"/>
<stop offset="0.79" stop-color="#E25052"/>
</linearGradient>
<linearGradient id="paint7_linear" x1="-79.785" y1="-18.3531" x2="-78.6825" y2="-18.3531" gradientUnits="userSpaceOnUse">
<stop offset="0.15" stop-color="#9F3632"/>
<stop offset="0.48" stop-color="#C04342"/>
<stop offset="0.79" stop-color="#E25052"/>
</linearGradient>
<linearGradient id="paint8_linear" x1="-79.785" y1="-10.1531" x2="-78.6825" y2="-10.1531" gradientUnits="userSpaceOnUse">
<stop offset="0.15" stop-color="#9F3632"/>
<stop offset="0.48" stop-color="#C04342"/>
<stop offset="0.79" stop-color="#E25052"/>
</linearGradient>
<linearGradient id="paint9_linear" x1="-79.785" y1="-5.40022" x2="-78.6825" y2="-5.40022" gradientUnits="userSpaceOnUse">
<stop offset="0.15" stop-color="#9F3632"/>
<stop offset="0.48" stop-color="#C04342"/>
<stop offset="0.79" stop-color="#E25052"/>
</linearGradient>
<linearGradient id="paint10_linear" x1="-79.785" y1="1.07588" x2="-78.6825" y2="1.07588" gradientUnits="userSpaceOnUse">
<stop offset="0.15" stop-color="#9F3632"/>
<stop offset="0.48" stop-color="#C04342"/>
<stop offset="0.79" stop-color="#E25052"/>
</linearGradient>
<linearGradient id="paint11_linear" x1="-79.785" y1="7.5522" x2="-78.6825" y2="7.5522" gradientUnits="userSpaceOnUse">
<stop offset="0.15" stop-color="#9F3632"/>
<stop offset="0.48" stop-color="#C04342"/>
<stop offset="0.79" stop-color="#E25052"/>
</linearGradient>
<linearGradient id="paint12_linear" x1="-79.785" y1="14.0287" x2="-78.6825" y2="14.0287" gradientUnits="userSpaceOnUse">
<stop offset="0.15" stop-color="#9F3632"/>
<stop offset="0.48" stop-color="#C04342"/>
<stop offset="0.79" stop-color="#E25052"/>
</linearGradient>
<linearGradient id="paint13_linear" x1="-80.0044" y1="18.4742" x2="-78.8993" y2="18.4742" gradientUnits="userSpaceOnUse">
<stop offset="0.15" stop-color="#9F3632"/>
<stop offset="0.48" stop-color="#C04342"/>
<stop offset="0.79" stop-color="#E25052"/>
</linearGradient>
<linearGradient id="paint14_linear" x1="-86.4383" y1="-31.3054" x2="-85.3358" y2="-31.3054" gradientUnits="userSpaceOnUse">
<stop offset="0.15" stop-color="#9F3632"/>
<stop offset="0.48" stop-color="#C04342"/>
<stop offset="0.79" stop-color="#E25052"/>
</linearGradient>
<linearGradient id="paint15_linear" x1="-86.4383" y1="-24.8292" x2="-85.3358" y2="-24.8292" gradientUnits="userSpaceOnUse">
<stop offset="0.15" stop-color="#9F3632"/>
<stop offset="0.48" stop-color="#C04342"/>
<stop offset="0.79" stop-color="#E25052"/>
</linearGradient>
<linearGradient id="paint16_linear" x1="-86.4383" y1="-18.3531" x2="-85.3358" y2="-18.3531" gradientUnits="userSpaceOnUse">
<stop offset="0.15" stop-color="#9F3632"/>
<stop offset="0.48" stop-color="#C04342"/>
<stop offset="0.79" stop-color="#E25052"/>
</linearGradient>
<linearGradient id="paint17_linear" x1="-86.4383" y1="-11.8467" x2="-85.3358" y2="-11.8467" gradientUnits="userSpaceOnUse">
<stop offset="0.15" stop-color="#9F3632"/>
<stop offset="0.48" stop-color="#C04342"/>
<stop offset="0.79" stop-color="#E25052"/>
</linearGradient>
<linearGradient id="paint18_linear" x1="-86.4383" y1="-5.40022" x2="-85.3358" y2="-5.40022" gradientUnits="userSpaceOnUse">
<stop offset="0.15" stop-color="#9F3632"/>
<stop offset="0.48" stop-color="#C04342"/>
<stop offset="0.79" stop-color="#E25052"/>
</linearGradient>
<linearGradient id="paint19_linear" x1="-86.4383" y1="1.07588" x2="-85.3358" y2="1.07588" gradientUnits="userSpaceOnUse">
<stop offset="0.15" stop-color="#9F3632"/>
<stop offset="0.48" stop-color="#C04342"/>
<stop offset="0.79" stop-color="#E25052"/>
</linearGradient>
<linearGradient id="paint20_linear" x1="-86.4383" y1="7.5522" x2="-85.3358" y2="7.5522" gradientUnits="userSpaceOnUse">
<stop offset="0.15" stop-color="#9F3632"/>
<stop offset="0.48" stop-color="#C04342"/>
<stop offset="0.79" stop-color="#E25052"/>
</linearGradient>
<linearGradient id="paint21_linear" x1="-86.4383" y1="14.0287" x2="-85.3358" y2="14.0287" gradientUnits="userSpaceOnUse">
<stop offset="0.15" stop-color="#9F3632"/>
<stop offset="0.48" stop-color="#C04342"/>
<stop offset="0.79" stop-color="#E25052"/>
</linearGradient>
<linearGradient id="paint22_linear" x1="-86.4383" y1="20.5047" x2="-85.3358" y2="20.5047" gradientUnits="userSpaceOnUse">
<stop offset="0.15" stop-color="#9F3632"/>
<stop offset="0.48" stop-color="#C04342"/>
<stop offset="0.79" stop-color="#E25052"/>
</linearGradient>
<linearGradient id="paint23_linear" x1="-86.4383" y1="26.9814" x2="-85.3358" y2="26.9814" gradientUnits="userSpaceOnUse">
<stop offset="0.15" stop-color="#9F3632"/>
<stop offset="0.48" stop-color="#C04342"/>
<stop offset="0.79" stop-color="#E25052"/>
</linearGradient>
<linearGradient id="paint24_linear" x1="-93.1008" y1="-37.7819" x2="-91.9983" y2="-37.7819" gradientUnits="userSpaceOnUse">
<stop offset="0.15" stop-color="#9F3632"/>
<stop offset="0.48" stop-color="#C04342"/>
<stop offset="0.79" stop-color="#E25052"/>
</linearGradient>
<linearGradient id="paint25_linear" x1="-93.1008" y1="-31.3054" x2="-91.9983" y2="-31.3054" gradientUnits="userSpaceOnUse">
<stop offset="0.15" stop-color="#9F3632"/>
<stop offset="0.48" stop-color="#C04342"/>
<stop offset="0.79" stop-color="#E25052"/>
</linearGradient>
<linearGradient id="paint26_linear" x1="-92.1205" y1="-24.8292" x2="-91.0285" y2="-24.8292" gradientUnits="userSpaceOnUse">
<stop offset="0.15" stop-color="#9F3632"/>
<stop offset="0.48" stop-color="#C04342"/>
<stop offset="0.79" stop-color="#E25052"/>
</linearGradient>
<linearGradient id="paint27_linear" x1="-93.1008" y1="-18.3531" x2="-91.9983" y2="-18.3531" gradientUnits="userSpaceOnUse">
<stop offset="0.15" stop-color="#9F3632"/>
<stop offset="0.48" stop-color="#C04342"/>
<stop offset="0.79" stop-color="#E25052"/>
</linearGradient>
<linearGradient id="paint28_linear" x1="-93.1008" y1="-11.8467" x2="-91.9983" y2="-11.8467" gradientUnits="userSpaceOnUse">
<stop offset="0.15" stop-color="#9F3632"/>
<stop offset="0.48" stop-color="#C04342"/>
<stop offset="0.79" stop-color="#E25052"/>
</linearGradient>
<linearGradient id="paint29_linear" x1="-93.1008" y1="-5.40022" x2="-91.9983" y2="-5.40022" gradientUnits="userSpaceOnUse">
<stop offset="0.15" stop-color="#9F3632"/>
<stop offset="0.48" stop-color="#C04342"/>
<stop offset="0.79" stop-color="#E25052"/>
</linearGradient>
<linearGradient id="paint30_linear" x1="-93.1008" y1="1.07588" x2="-91.9983" y2="1.07588" gradientUnits="userSpaceOnUse">
<stop offset="0.15" stop-color="#9F3632"/>
<stop offset="0.48" stop-color="#C04342"/>
<stop offset="0.79" stop-color="#E25052"/>
</linearGradient>
<linearGradient id="paint31_linear" x1="-93.1008" y1="7.5522" x2="-91.9983" y2="7.5522" gradientUnits="userSpaceOnUse">
<stop offset="0.15" stop-color="#9F3632"/>
<stop offset="0.48" stop-color="#C04342"/>
<stop offset="0.79" stop-color="#E25052"/>
</linearGradient>
<linearGradient id="paint32_linear" x1="-93.1008" y1="14.0287" x2="-91.9983" y2="14.0287" gradientUnits="userSpaceOnUse">
<stop offset="0.15" stop-color="#9F3632"/>
<stop offset="0.48" stop-color="#C04342"/>
<stop offset="0.79" stop-color="#E25052"/>
</linearGradient>
<linearGradient id="paint33_linear" x1="-93.1008" y1="20.5047" x2="-91.9983" y2="20.5047" gradientUnits="userSpaceOnUse">
<stop offset="0.15" stop-color="#9F3632"/>
<stop offset="0.48" stop-color="#C04342"/>
<stop offset="0.79" stop-color="#E25052"/>
</linearGradient>
<linearGradient id="paint34_linear" x1="-93.1008" y1="26.9814" x2="-91.9983" y2="26.9814" gradientUnits="userSpaceOnUse">
<stop offset="0.15" stop-color="#9F3632"/>
<stop offset="0.48" stop-color="#C04342"/>
<stop offset="0.79" stop-color="#E25052"/>
</linearGradient>
<linearGradient id="paint35_linear" x1="-93.1008" y1="33.4576" x2="-91.9983" y2="33.4576" gradientUnits="userSpaceOnUse">
<stop offset="0.15" stop-color="#9F3632"/>
<stop offset="0.48" stop-color="#C04342"/>
<stop offset="0.79" stop-color="#E25052"/>
</linearGradient>
<linearGradient id="paint36_linear" x1="-98.7605" y1="-37.7752" x2="-97.6789" y2="-37.7752" gradientUnits="userSpaceOnUse">
<stop offset="0.15" stop-color="#9F3632"/>
<stop offset="0.48" stop-color="#C04342"/>
<stop offset="0.79" stop-color="#E25052"/>
</linearGradient>
<linearGradient id="paint37_linear" x1="-98.7605" y1="-31.2991" x2="-97.6789" y2="-31.2991" gradientUnits="userSpaceOnUse">
<stop offset="0.15" stop-color="#9F3632"/>
<stop offset="0.48" stop-color="#C04342"/>
<stop offset="0.79" stop-color="#E25052"/>
</linearGradient>
<linearGradient id="paint38_linear" x1="-98.7605" y1="-24.8232" x2="-97.6789" y2="-24.8232" gradientUnits="userSpaceOnUse">
<stop offset="0.15" stop-color="#9F3632"/>
<stop offset="0.48" stop-color="#C04342"/>
<stop offset="0.79" stop-color="#E25052"/>
</linearGradient>
<linearGradient id="paint39_linear" x1="-98.7605" y1="-18.3474" x2="-97.6789" y2="-18.3474" gradientUnits="userSpaceOnUse">
<stop offset="0.15" stop-color="#9F3632"/>
<stop offset="0.48" stop-color="#C04342"/>
<stop offset="0.79" stop-color="#E25052"/>
</linearGradient>
<linearGradient id="paint40_linear" x1="-98.7605" y1="14.0329" x2="-97.6789" y2="14.0329" gradientUnits="userSpaceOnUse">
<stop offset="0.15" stop-color="#9F3632"/>
<stop offset="0.48" stop-color="#C04342"/>
<stop offset="0.79" stop-color="#E25052"/>
</linearGradient>
<linearGradient id="paint41_linear" x1="-98.7605" y1="20.5086" x2="-97.6789" y2="20.5086" gradientUnits="userSpaceOnUse">
<stop offset="0.15" stop-color="#9F3632"/>
<stop offset="0.48" stop-color="#C04342"/>
<stop offset="0.79" stop-color="#E25052"/>
</linearGradient>
<linearGradient id="paint42_linear" x1="-98.7605" y1="26.985" x2="-97.6789" y2="26.985" gradientUnits="userSpaceOnUse">
<stop offset="0.15" stop-color="#9F3632"/>
<stop offset="0.48" stop-color="#C04342"/>
<stop offset="0.79" stop-color="#E25052"/>
</linearGradient>
<linearGradient id="paint43_linear" x1="-98.7605" y1="33.4609" x2="-97.6789" y2="33.4609" gradientUnits="userSpaceOnUse">
<stop offset="0.15" stop-color="#9F3632"/>
<stop offset="0.48" stop-color="#C04342"/>
<stop offset="0.79" stop-color="#E25052"/>
</linearGradient>
<linearGradient id="paint44_linear" x1="-107.175" y1="-20.6204" x2="-106.065" y2="-20.6204" gradientUnits="userSpaceOnUse">
<stop offset="0.15" stop-color="#9F3632"/>
<stop offset="0.48" stop-color="#C04342"/>
<stop offset="0.79" stop-color="#E25052"/>
</linearGradient>
<linearGradient id="paint45_linear" x1="-106.456" y1="-37.782" x2="-105.353" y2="-37.782" gradientUnits="userSpaceOnUse">
<stop offset="0.15" stop-color="#9F3632"/>
<stop offset="0.48" stop-color="#C04342"/>
<stop offset="0.79" stop-color="#E25052"/>
</linearGradient>
<linearGradient id="paint46_linear" x1="-106.456" y1="-31.3054" x2="-105.353" y2="-31.3054" gradientUnits="userSpaceOnUse">
<stop offset="0.15" stop-color="#9F3632"/>
<stop offset="0.48" stop-color="#C04342"/>
<stop offset="0.79" stop-color="#E25052"/>
</linearGradient>
<linearGradient id="paint47_linear" x1="-106.456" y1="-24.8292" x2="-105.353" y2="-24.8292" gradientUnits="userSpaceOnUse">
<stop offset="0.15" stop-color="#9F3632"/>
<stop offset="0.48" stop-color="#C04342"/>
<stop offset="0.79" stop-color="#E25052"/>
</linearGradient>
<linearGradient id="paint48_linear" x1="-106.705" y1="18.4763" x2="-105.6" y2="18.4763" gradientUnits="userSpaceOnUse">
<stop offset="0.15" stop-color="#9F3632"/>
<stop offset="0.48" stop-color="#C04342"/>
<stop offset="0.79" stop-color="#E25052"/>
</linearGradient>
<linearGradient id="paint49_linear" x1="-106.456" y1="26.9814" x2="-105.353" y2="26.9814" gradientUnits="userSpaceOnUse">
<stop offset="0.15" stop-color="#9F3632"/>
<stop offset="0.48" stop-color="#C04342"/>
<stop offset="0.79" stop-color="#E25052"/>
</linearGradient>
<linearGradient id="paint50_linear" x1="-106.456" y1="33.4576" x2="-105.353" y2="33.4576" gradientUnits="userSpaceOnUse">
<stop offset="0.15" stop-color="#9F3632"/>
<stop offset="0.48" stop-color="#C04342"/>
<stop offset="0.79" stop-color="#E25052"/>
</linearGradient>
<linearGradient id="paint51_linear" x1="-102.049" y1="50.0547" x2="-100.99" y2="50.0547" gradientUnits="userSpaceOnUse">
<stop offset="0.15" stop-color="#9F3632"/>
<stop offset="0.48" stop-color="#C04342"/>
<stop offset="0.79" stop-color="#E25052"/>
</linearGradient>
<linearGradient id="paint52_linear" x1="-113.108" y1="-44.2782" x2="-112.006" y2="-44.2782" gradientUnits="userSpaceOnUse">
<stop offset="0.15" stop-color="#9F3632"/>
<stop offset="0.48" stop-color="#C04342"/>
<stop offset="0.79" stop-color="#E25052"/>
</linearGradient>
<linearGradient id="paint53_linear" x1="-113.108" y1="-37.782" x2="-112.006" y2="-37.782" gradientUnits="userSpaceOnUse">
<stop offset="0.15" stop-color="#9F3632"/>
<stop offset="0.48" stop-color="#C04342"/>
<stop offset="0.79" stop-color="#E25052"/>
</linearGradient>
<linearGradient id="paint54_linear" x1="-113.108" y1="-31.3054" x2="-112.006" y2="-31.3054" gradientUnits="userSpaceOnUse">
<stop offset="0.15" stop-color="#9F3632"/>
<stop offset="0.48" stop-color="#C04342"/>
<stop offset="0.79" stop-color="#E25052"/>
</linearGradient>
<linearGradient id="paint55_linear" x1="-113.108" y1="-24.8292" x2="-112.006" y2="-24.8292" gradientUnits="userSpaceOnUse">
<stop offset="0.15" stop-color="#9F3632"/>
<stop offset="0.48" stop-color="#C04342"/>
<stop offset="0.79" stop-color="#E25052"/>
</linearGradient>
<linearGradient id="paint56_linear" x1="-113.108" y1="20.5047" x2="-112.006" y2="20.5047" gradientUnits="userSpaceOnUse">
<stop offset="0.15" stop-color="#9F3632"/>
<stop offset="0.48" stop-color="#C04342"/>
<stop offset="0.79" stop-color="#E25052"/>
</linearGradient>
<linearGradient id="paint57_linear" x1="-113.108" y1="26.9814" x2="-112.006" y2="26.9814" gradientUnits="userSpaceOnUse">
<stop offset="0.15" stop-color="#9F3632"/>
<stop offset="0.48" stop-color="#C04342"/>
<stop offset="0.79" stop-color="#E25052"/>
</linearGradient>
<linearGradient id="paint58_linear" x1="-113.108" y1="33.4576" x2="-112.006" y2="33.4576" gradientUnits="userSpaceOnUse">
<stop offset="0.15" stop-color="#9F3632"/>
<stop offset="0.48" stop-color="#C04342"/>
<stop offset="0.79" stop-color="#E25052"/>
</linearGradient>
<linearGradient id="paint59_linear" x1="-113.108" y1="39.9338" x2="-112.006" y2="39.9338" gradientUnits="userSpaceOnUse">
<stop offset="0.15" stop-color="#9F3632"/>
<stop offset="0.48" stop-color="#C04342"/>
<stop offset="0.79" stop-color="#E25052"/>
</linearGradient>
<linearGradient id="paint60_linear" x1="108.11" y1="45.02" x2="108.11" y2="48.22" gradientUnits="userSpaceOnUse">
<stop stop-color="#FF4F5B"/>
<stop offset="1" stop-color="#F14241"/>
</linearGradient>
<linearGradient id="paint61_linear" x1="108.11" y1="38.02" x2="108.11" y2="41.23" gradientUnits="userSpaceOnUse">
<stop stop-color="#FF4F5B"/>
<stop offset="1" stop-color="#F14241"/>
</linearGradient>
<linearGradient id="paint62_linear" x1="111.615" y1="42" x2="111.615" y2="44.22" gradientUnits="userSpaceOnUse">
<stop stop-color="#FF4F5B"/>
<stop offset="1" stop-color="#F14241"/>
</linearGradient>
<linearGradient id="paint63_linear" x1="104.625" y1="42" x2="104.625" y2="44.22" gradientUnits="userSpaceOnUse">
<stop stop-color="#FF4F5B"/>
<stop offset="1" stop-color="#F14241"/>
</linearGradient>
<linearGradient id="paint64_linear" x1="117.47" y1="9.01" x2="81.01" y2="9.01" gradientUnits="userSpaceOnUse">
<stop stop-color="#FF8594"/>
<stop offset="1" stop-color="#FE4652"/>
</linearGradient>
<linearGradient id="paint65_linear" x1="63.02" y1="89.99" x2="115.92" y2="89.99" gradientUnits="userSpaceOnUse">
<stop stop-color="#E95456"/>
<stop offset="0.26" stop-color="#9F3632"/>
<stop offset="0.42" stop-color="#C04341"/>
<stop offset="0.51" stop-color="#D24A4A"/>
<stop offset="0.8" stop-color="#A63935"/>
<stop offset="1" stop-color="#E95256"/>
</linearGradient>
<linearGradient id="paint66_linear" x1="-1418.32" y1="-24.22" x2="1380.09" y2="-24.22" gradientUnits="userSpaceOnUse">
<stop stop-color="#E95456"/>
<stop offset="0.26" stop-color="#9F3632"/>
<stop offset="0.42" stop-color="#C04341"/>
<stop offset="0.51" stop-color="#D24A4A"/>
<stop offset="0.8" stop-color="#A63935"/>
<stop offset="1" stop-color="#E95256"/>
</linearGradient>
<linearGradient id="paint67_linear" x1="-1049.64" y1="-4.4488" x2="1748.77" y2="-4.4488" gradientUnits="userSpaceOnUse">
<stop stop-color="#E95456"/>
<stop offset="0.26" stop-color="#9F3632"/>
<stop offset="0.42" stop-color="#C04341"/>
<stop offset="0.51" stop-color="#D24A4A"/>
<stop offset="0.8" stop-color="#A63935"/>
<stop offset="1" stop-color="#E95256"/>
</linearGradient>
<linearGradient id="paint68_linear" x1="-663.772" y1="33.839" x2="1998.79" y2="33.839" gradientUnits="userSpaceOnUse">
<stop stop-color="#E95456"/>
<stop offset="0.26" stop-color="#9F3632"/>
<stop offset="0.42" stop-color="#C04341"/>
<stop offset="0.51" stop-color="#D24A4A"/>
<stop offset="0.8" stop-color="#A63935"/>
<stop offset="1" stop-color="#E95256"/>
</linearGradient>
</defs>
</svg>
