<svg width="168" height="102" viewBox="0 0 168 102" fill="none" xmlns="http://www.w3.org/2000/svg">
<rect width="168" height="102" rx="24" fill="url(#paint0_linear)"/>
<path d="M58.8224 50.986C58.8224 56.9863 54.8467 60.6713 48.3895 60.6713H42.2476C42.0838 60.6713 41.9216 60.6391 41.7702 60.5764C41.6188 60.5138 41.4811 60.4219 41.3653 60.3062C41.2494 60.1904 41.1576 60.0531 41.0949 59.9018C41.0321 59.7506 41 59.5884 41 59.4247V42.52C41.0071 42.1942 41.1417 41.8842 41.3749 41.6562C41.6081 41.4283 41.9215 41.3008 42.2476 41.3008H48.3895C54.8467 41.3008 58.8224 45.027 58.8224 50.986ZM53.1055 50.986C53.1055 48.2463 51.433 46.5064 48.3895 46.5064H46.7305V55.4657H48.3895C51.433 55.4657 53.1055 53.7533 53.1055 50.986Z" fill="black"/>
<path d="M73.0939 55.9863C73.2536 55.9863 73.4114 56.0179 73.5587 56.0794C73.7059 56.1408 73.8396 56.2308 73.9519 56.3441C74.0641 56.4576 74.1525 56.5921 74.2124 56.74C74.2722 56.8878 74.3022 57.046 74.3004 57.2055V59.4521C74.3041 59.7768 74.1794 60.0899 73.9535 60.3233C73.7276 60.5566 73.4188 60.6916 73.0939 60.6988H62.373C62.0469 60.6916 61.7365 60.5571 61.5085 60.3241C61.2804 60.0911 61.1527 59.7781 61.1528 59.4521V42.5201C61.1598 42.199 61.2907 41.8929 61.518 41.6657C61.7453 41.4386 62.0516 41.3079 62.373 41.3009H72.806C72.968 41.2991 73.1288 41.3291 73.2792 41.3895C73.4296 41.4497 73.5667 41.5391 73.6825 41.6522C73.7984 41.7655 73.8908 41.9004 73.9545 42.0492C74.0182 42.1982 74.0518 42.3582 74.0536 42.5201V44.7941C74.0518 44.956 74.0182 45.116 73.9545 45.265C73.8908 45.4139 73.7984 45.5487 73.6825 45.6619C73.5667 45.7751 73.4296 45.8645 73.2792 45.9247C73.1288 45.9851 72.968 46.0151 72.806 46.0134H66.8835V48.6572H71.956C72.2773 48.6642 72.5837 48.795 72.811 49.0221C73.0383 49.2492 73.1691 49.5554 73.1761 49.8765V51.8765C73.1761 52.2012 73.0482 52.5127 72.8196 52.7435C72.5912 52.9744 72.2808 53.1059 71.956 53.1095H66.8835V55.9863H73.0939Z" fill="black"/>
<path d="M89.0382 59.7534L88.4213 57.5343H82.4989L81.8955 59.7534C81.8259 60.0166 81.6712 60.2492 81.4556 60.4152C81.2398 60.5813 80.9751 60.6713 80.7028 60.6713H76.7957C76.6404 60.6696 76.4879 60.6307 76.3508 60.5581C76.2137 60.4854 76.0959 60.3811 76.0074 60.2537C75.9189 60.1263 75.8622 59.9797 75.8419 59.8259C75.8215 59.6722 75.8383 59.5158 75.8907 59.3699L81.5939 42.3009C81.6956 42.0159 81.8808 41.7682 82.1253 41.5898C82.3698 41.4114 82.6624 41.3108 82.9649 41.3008H87.8866C88.1886 41.3125 88.4803 41.414 88.7245 41.592C88.9687 41.7702 89.1542 42.0169 89.2575 42.3009L94.9608 59.3699C95.0111 59.5192 95.0251 59.6782 95.0013 59.8339C94.9774 59.9896 94.9166 60.1373 94.824 60.2647C94.7313 60.3921 94.6096 60.4956 94.4689 60.5663C94.3282 60.6369 94.1723 60.6731 94.0147 60.6713H90.1487C89.89 60.6561 89.643 60.5587 89.4433 60.3937C89.2436 60.2287 89.1019 60.0044 89.0382 59.7534ZM87.2972 53.4793L85.46 46.8627L83.6366 53.4793H87.2972Z" fill="black"/>
<path d="M108.89 55.4657C109.211 55.4694 109.518 55.5994 109.744 55.8276C109.969 56.0559 110.096 56.364 110.096 56.685V59.4248C110.1 59.7494 109.975 60.0624 109.749 60.2959C109.523 60.5293 109.215 60.6641 108.89 60.6714H98.402C98.2381 60.6714 98.0759 60.6391 97.9245 60.5765C97.7731 60.5139 97.6357 60.422 97.5198 60.3063C97.404 60.1905 97.312 60.053 97.2494 59.9018C97.1867 59.7506 97.1543 59.5885 97.1543 59.4248V42.5201C97.1562 42.3582 97.1899 42.1982 97.2536 42.0492C97.3173 41.9004 97.4095 41.7655 97.5253 41.6522C97.6412 41.5391 97.7783 41.4497 97.9286 41.3895C98.0791 41.3291 98.2399 41.2991 98.402 41.3009H101.665C101.986 41.3079 102.292 41.4386 102.52 41.6657C102.747 41.8929 102.878 42.199 102.885 42.5201V55.4657H108.89Z" fill="black"/>
<path d="M127 54.7395C127 58.0957 124.093 61 119.391 61C116.21 61 112.756 59.9177 111.535 56.8902C111.483 56.7657 111.458 56.6319 111.461 56.497C111.463 56.3622 111.494 56.2294 111.55 56.107C111.607 55.9846 111.689 55.8754 111.79 55.7861C111.891 55.697 112.01 55.6297 112.139 55.5889L115.237 54.6162C115.45 54.55 115.679 54.5587 115.886 54.641C116.093 54.7234 116.266 54.8741 116.375 55.0682C116.699 55.4779 117.118 55.802 117.596 56.0121C118.074 56.2222 118.596 56.3121 119.117 56.2737C120.611 56.2737 121.242 55.5889 121.242 54.9039C121.242 53.7395 119.871 53.6299 117.869 53.1504C114.113 52.2462 111.974 50.7257 111.974 47.1776C111.974 43.6296 115.073 41.0131 119.336 41.0131C120.752 40.9262 122.16 41.2732 123.372 42.0076C124.585 42.7421 125.544 43.8288 126.122 45.1227C126.178 45.2579 126.204 45.4034 126.198 45.5492C126.192 45.6951 126.154 45.838 126.088 45.9681C126.021 46.0982 125.927 46.2125 125.813 46.303C125.698 46.3935 125.565 46.4582 125.423 46.4927L122.352 47.2324C122.158 47.2776 121.955 47.2655 121.767 47.1974C121.58 47.1294 121.416 47.0081 121.297 46.8489C121.088 46.5419 120.802 46.2954 120.467 46.1342C120.133 45.9731 119.761 45.903 119.391 45.931C118.253 45.931 117.458 46.4105 117.458 47.3009C117.458 48.4105 119.144 48.5475 120.639 48.9585C125.382 50.0955 127 51.6709 127 54.7395Z" fill="black"/>
<mask id="mask0" mask-type="alpha" maskUnits="userSpaceOnUse" x="0" y="0" width="168" height="102">
<rect width="168" height="102" rx="24" fill="url(#paint1_linear)"/>
</mask>
<g mask="url(#mask0)">
<path d="M16.9898 46.3801C17.0798 46.7101 17.1498 47.0401 17.2198 47.3801C17.1602 47.3904 17.0994 47.3904 17.0398 47.3801C16.9707 47.3814 16.902 47.369 16.8377 47.3434C16.7735 47.3179 16.715 47.2798 16.6656 47.2314C16.6163 47.183 16.5771 47.1252 16.5503 47.0614C16.5236 46.9977 16.5098 46.9292 16.5098 46.8601C16.5119 46.7306 16.5623 46.6065 16.6511 46.5122C16.7399 46.4179 16.8607 46.3601 16.9898 46.3501V46.3801Z" fill="url(#paint2_linear)"/>
<path d="M17.0398 49.5401C17.1076 49.5388 17.175 49.551 17.2381 49.576C17.3011 49.601 17.3585 49.6384 17.4069 49.6859C17.4553 49.7334 17.4938 49.79 17.5201 49.8526C17.5463 49.9151 17.5598 49.9823 17.5598 50.0501C17.5598 50.188 17.505 50.3203 17.4075 50.4178C17.31 50.5153 17.1777 50.5701 17.0398 50.5701C16.9707 50.5714 16.902 50.5589 16.8377 50.5334C16.7735 50.5079 16.715 50.4698 16.6656 50.4214C16.6163 50.3729 16.5771 50.3152 16.5503 50.2514C16.5236 50.1877 16.5098 50.1192 16.5098 50.0501C16.5111 49.9818 16.5259 49.9144 16.5532 49.8518C16.5805 49.7892 16.6199 49.7327 16.6692 49.6853C16.7184 49.6379 16.7764 49.6007 16.84 49.5758C16.9036 49.5509 16.9715 49.5388 17.0398 49.5401Z" fill="url(#paint3_linear)"/>
<path d="M17.0398 52.7301C17.1076 52.7288 17.175 52.741 17.2381 52.766C17.3011 52.791 17.3585 52.8284 17.4069 52.8759C17.4553 52.9234 17.4938 52.98 17.5201 53.0426C17.5463 53.1051 17.5598 53.1723 17.5598 53.2401C17.5598 53.378 17.505 53.5103 17.4075 53.6078C17.31 53.7053 17.1777 53.7601 17.0398 53.7601C16.9707 53.7614 16.902 53.749 16.8377 53.7234C16.7735 53.6979 16.715 53.6598 16.6656 53.6114C16.6163 53.5629 16.5771 53.5052 16.5503 53.4414C16.5236 53.3777 16.5098 53.3092 16.5098 53.2401C16.5111 53.1718 16.5259 53.1044 16.5532 53.0418C16.5805 52.9792 16.6199 52.9227 16.6692 52.8753C16.7184 52.8279 16.7764 52.7907 16.84 52.7658C16.9036 52.7409 16.9715 52.7288 17.0398 52.7301Z" fill="url(#paint4_linear)"/>
<path d="M17.0398 55.92C17.0994 55.9105 17.1602 55.9105 17.2198 55.92C17.1498 56.26 17.0798 56.59 16.9898 56.92C16.8598 56.9123 16.7377 56.8552 16.6484 56.7604C16.5592 56.6656 16.5096 56.5402 16.5098 56.41C16.5111 56.3417 16.5259 56.2743 16.5532 56.2117C16.5805 56.1492 16.6199 56.0926 16.6692 56.0452C16.7184 55.9978 16.7764 55.9606 16.84 55.9357C16.9036 55.9108 16.9715 55.8987 17.0398 55.9V55.92Z" fill="url(#paint5_linear)"/>
<path d="M13.77 39.9701C13.8383 39.9688 13.9062 39.9809 13.9698 40.0058C14.0334 40.0308 14.0914 40.068 14.1406 40.1153C14.1899 40.1627 14.2293 40.2193 14.2566 40.2819C14.284 40.3444 14.2987 40.4118 14.3 40.4801C14.3 40.5492 14.2862 40.6177 14.2595 40.6814C14.2327 40.7452 14.1935 40.803 14.1442 40.8514C14.0948 40.8998 14.0363 40.9379 13.9721 40.9634C13.9078 40.989 13.8391 41.0014 13.77 41.0001C13.6321 41.0001 13.4998 40.9453 13.4023 40.8478C13.3048 40.7503 13.25 40.618 13.25 40.4801C13.25 40.4123 13.2635 40.3451 13.2897 40.2826C13.316 40.2201 13.3545 40.1634 13.4029 40.1159C13.4513 40.0684 13.5087 40.0311 13.5718 40.006C13.6348 39.981 13.7022 39.9688 13.77 39.9701Z" fill="url(#paint6_linear)"/>
<path d="M13.77 43.16C13.8383 43.1587 13.9062 43.1708 13.9698 43.1957C14.0334 43.2207 14.0914 43.2579 14.1406 43.3052C14.1899 43.3526 14.2293 43.4092 14.2566 43.4718C14.284 43.5344 14.2987 43.6017 14.3 43.67C14.3 43.7391 14.2862 43.8076 14.2595 43.8713C14.2327 43.9351 14.1935 43.9929 14.1442 44.0413C14.0948 44.0897 14.0363 44.1278 13.9721 44.1533C13.9078 44.1789 13.8391 44.1913 13.77 44.19C13.6321 44.19 13.4998 44.1352 13.4023 44.0377C13.3048 43.9402 13.25 43.8079 13.25 43.67C13.25 43.6022 13.2635 43.535 13.2897 43.4725C13.316 43.41 13.3545 43.3533 13.4029 43.3058C13.4513 43.2583 13.5087 43.221 13.5718 43.1959C13.6348 43.1709 13.7022 43.1587 13.77 43.16Z" fill="url(#paint7_linear)"/>
<path d="M13.77 46.38C13.8383 46.3787 13.9062 46.3908 13.9698 46.4157C14.0334 46.4406 14.0914 46.4778 14.1406 46.5252C14.1899 46.5726 14.2293 46.6292 14.2566 46.6917C14.284 46.7543 14.2987 46.8217 14.3 46.89C14.2923 47.0244 14.2327 47.1505 14.1339 47.2419C14.035 47.3333 13.9046 47.3828 13.77 47.38C13.7017 47.38 13.6341 47.3666 13.571 47.3404C13.5079 47.3143 13.4506 47.276 13.4023 47.2277C13.354 47.1794 13.3157 47.1221 13.2896 47.059C13.2634 46.9959 13.25 46.9283 13.25 46.86C13.2577 46.7283 13.3162 46.6046 13.4132 46.5151C13.5102 46.4256 13.6381 46.3772 13.77 46.38Z" fill="url(#paint8_linear)"/>
<path d="M13.77 49.5401C13.8383 49.5388 13.9062 49.5509 13.9698 49.5758C14.0334 49.6007 14.0914 49.6379 14.1406 49.6853C14.1899 49.7327 14.2293 49.7892 14.2566 49.8518C14.284 49.9144 14.2987 49.9818 14.3 50.0501C14.3 50.1192 14.2862 50.1877 14.2595 50.2514C14.2327 50.3152 14.1935 50.3729 14.1442 50.4214C14.0948 50.4698 14.0363 50.5079 13.9721 50.5334C13.9078 50.5589 13.8391 50.5714 13.77 50.5701C13.6321 50.5701 13.4998 50.5153 13.4023 50.4178C13.3048 50.3203 13.25 50.188 13.25 50.0501C13.25 49.9823 13.2635 49.9151 13.2897 49.8526C13.316 49.79 13.3545 49.7334 13.4029 49.6859C13.4513 49.6384 13.5087 49.601 13.5718 49.576C13.6348 49.551 13.7022 49.5388 13.77 49.5401Z" fill="url(#paint9_linear)"/>
<path d="M13.77 52.7301C13.8383 52.7288 13.9062 52.7409 13.9698 52.7658C14.0334 52.7907 14.0914 52.8279 14.1406 52.8753C14.1899 52.9227 14.2293 52.9792 14.2566 53.0418C14.284 53.1044 14.2987 53.1718 14.3 53.2401C14.3 53.3092 14.2862 53.3777 14.2595 53.4414C14.2327 53.5052 14.1935 53.5629 14.1442 53.6114C14.0948 53.6598 14.0363 53.6979 13.9721 53.7234C13.9078 53.749 13.8391 53.7614 13.77 53.7601C13.7017 53.7601 13.6341 53.7466 13.571 53.7205C13.5079 53.6944 13.4506 53.6561 13.4023 53.6078C13.354 53.5595 13.3157 53.5022 13.2896 53.4391C13.2634 53.376 13.25 53.3084 13.25 53.2401C13.25 53.1723 13.2635 53.1051 13.2897 53.0426C13.316 52.98 13.3545 52.9234 13.4029 52.8759C13.4513 52.8284 13.5087 52.791 13.5718 52.766C13.6348 52.741 13.7022 52.7288 13.77 52.7301Z" fill="url(#paint10_linear)"/>
<path d="M13.77 55.92C13.8383 55.9187 13.9062 55.9308 13.9698 55.9557C14.0334 55.9806 14.0914 56.0178 14.1406 56.0652C14.1899 56.1126 14.2293 56.1691 14.2566 56.2317C14.284 56.2943 14.2987 56.3617 14.3 56.43C14.3 56.4991 14.2862 56.5676 14.2595 56.6313C14.2327 56.6951 14.1935 56.7528 14.1442 56.8013C14.0948 56.8497 14.0363 56.8878 13.9721 56.9133C13.9078 56.9389 13.8391 56.9513 13.77 56.95C13.6321 56.95 13.4998 56.8952 13.4023 56.7977C13.3048 56.7002 13.25 56.5679 13.25 56.43C13.25 56.3622 13.2635 56.295 13.2897 56.2325C13.316 56.1699 13.3545 56.1133 13.4029 56.0658C13.4513 56.0183 13.5087 55.9809 13.5718 55.9559C13.6348 55.9309 13.7022 55.9187 13.77 55.92Z" fill="url(#paint11_linear)"/>
<path d="M13.77 59.11C13.8383 59.1087 13.9062 59.1208 13.9698 59.1457C14.0334 59.1706 14.0914 59.2078 14.1406 59.2552C14.1899 59.3026 14.2293 59.3592 14.2566 59.4217C14.284 59.4843 14.2987 59.5517 14.3 59.62C14.3 59.6891 14.2862 59.7576 14.2595 59.8213C14.2327 59.8851 14.1935 59.9429 14.1442 59.9913C14.0948 60.0397 14.0363 60.0778 13.9721 60.1033C13.9078 60.1289 13.8391 60.1413 13.77 60.14C13.6321 60.14 13.4998 60.0852 13.4023 59.9877C13.3048 59.8902 13.25 59.7579 13.25 59.62C13.25 59.5522 13.2635 59.485 13.2897 59.4225C13.316 59.3599 13.3545 59.3033 13.4029 59.2558C13.4513 59.2083 13.5087 59.1709 13.5718 59.1459C13.6348 59.1209 13.7022 59.1087 13.77 59.11Z" fill="url(#paint12_linear)"/>
<path d="M13.77 62.2999C13.8383 62.2986 13.9062 62.3107 13.9698 62.3356C14.0334 62.3605 14.0914 62.3977 14.1406 62.4451C14.1899 62.4925 14.2293 62.5491 14.2566 62.6116C14.284 62.6742 14.2987 62.7416 14.3 62.8099C14.3071 62.8831 14.2986 62.957 14.275 63.0267C14.2514 63.0964 14.2133 63.1603 14.1632 63.2141C14.1131 63.268 14.0522 63.3106 13.9844 63.3392C13.9166 63.3678 13.8435 63.3817 13.77 63.3799C13.6321 63.3799 13.4998 63.3251 13.4023 63.2276C13.3048 63.1301 13.25 62.9978 13.25 62.8599C13.25 62.7921 13.2635 62.7249 13.2897 62.6624C13.316 62.5999 13.3545 62.5432 13.4029 62.4957C13.4513 62.4482 13.5087 62.4108 13.5718 62.3858C13.6348 62.3608 13.7022 62.3486 13.77 62.3499V62.2999Z" fill="url(#paint13_linear)"/>
<path d="M10.5298 36.7799C10.5981 36.7786 10.666 36.7907 10.7296 36.8156C10.7932 36.8405 10.8512 36.8777 10.9005 36.9251C10.9497 36.9725 10.9891 37.0291 11.0164 37.0917C11.0438 37.1543 11.0585 37.2216 11.0598 37.2899C11.0598 37.359 11.046 37.4275 11.0193 37.4912C10.9925 37.555 10.9533 37.6128 10.904 37.6612C10.8546 37.7096 10.7961 37.7477 10.7319 37.7732C10.6676 37.7988 10.5989 37.8112 10.5298 37.8099C10.3919 37.8099 10.2596 37.7551 10.1621 37.6576C10.0646 37.5601 10.0098 37.4278 10.0098 37.2899C10.0098 37.2221 10.0233 37.1549 10.0496 37.0924C10.0758 37.0299 10.1143 36.9732 10.1627 36.9257C10.2111 36.8782 10.2685 36.8409 10.3316 36.8158C10.3946 36.7908 10.462 36.7786 10.5298 36.7799Z" fill="url(#paint14_linear)"/>
<path d="M10.5298 39.9701C10.5981 39.9688 10.666 39.9809 10.7296 40.0058C10.7932 40.0308 10.8512 40.068 10.9005 40.1153C10.9497 40.1627 10.9891 40.2193 11.0164 40.2819C11.0438 40.3444 11.0585 40.4118 11.0598 40.4801C11.0598 40.5492 11.046 40.6177 11.0193 40.6814C10.9925 40.7452 10.9533 40.803 10.904 40.8514C10.8546 40.8998 10.7961 40.9379 10.7319 40.9634C10.6676 40.989 10.5989 41.0014 10.5298 41.0001C10.3919 41.0001 10.2596 40.9453 10.1621 40.8478C10.0646 40.7503 10.0098 40.618 10.0098 40.4801C10.0098 40.4123 10.0233 40.3451 10.0496 40.2826C10.0758 40.2201 10.1143 40.1634 10.1627 40.1159C10.2111 40.0684 10.2685 40.0311 10.3316 40.006C10.3946 39.981 10.462 39.9688 10.5298 39.9701Z" fill="url(#paint15_linear)"/>
<path d="M10.5298 43.16C10.5981 43.1587 10.666 43.1708 10.7296 43.1957C10.7932 43.2207 10.8512 43.2579 10.9005 43.3052C10.9497 43.3526 10.9891 43.4092 11.0164 43.4718C11.0438 43.5344 11.0585 43.6017 11.0598 43.67C11.0598 43.7391 11.046 43.8076 11.0193 43.8713C10.9925 43.9351 10.9533 43.9929 10.904 44.0413C10.8546 44.0897 10.7961 44.1278 10.7319 44.1533C10.6676 44.1789 10.5989 44.1913 10.5298 44.19C10.3919 44.19 10.2596 44.1352 10.1621 44.0377C10.0646 43.9402 10.0098 43.8079 10.0098 43.67C10.0098 43.6022 10.0233 43.535 10.0496 43.4725C10.0758 43.41 10.1143 43.3533 10.1627 43.3058C10.2111 43.2583 10.2685 43.221 10.3316 43.1959C10.3946 43.1709 10.462 43.1587 10.5298 43.16Z" fill="url(#paint16_linear)"/>
<path d="M10.5298 46.38C10.5981 46.3787 10.666 46.3908 10.7296 46.4157C10.7932 46.4407 10.8512 46.4779 10.9005 46.5252C10.9497 46.5726 10.9891 46.6292 11.0164 46.6918C11.0438 46.7544 11.0585 46.8217 11.0598 46.89C11.0598 46.9591 11.046 47.0276 11.0193 47.0913C10.9925 47.1551 10.9533 47.2129 10.904 47.2613C10.8546 47.3097 10.7961 47.3478 10.7319 47.3733C10.6676 47.3989 10.5989 47.4113 10.5298 47.41C10.3919 47.41 10.2596 47.3552 10.1621 47.2577C10.0646 47.1602 10.0098 47.0279 10.0098 46.89C10.0098 46.8222 10.0233 46.755 10.0496 46.6925C10.0758 46.63 10.1143 46.5733 10.1627 46.5258C10.2111 46.4783 10.2685 46.441 10.3316 46.4159C10.3946 46.3909 10.462 46.3787 10.5298 46.38Z" fill="url(#paint17_linear)"/>
<path d="M10.5298 49.5401C10.5981 49.5388 10.666 49.5509 10.7296 49.5758C10.7932 49.6007 10.8512 49.6379 10.9005 49.6853C10.9497 49.7327 10.9891 49.7892 11.0164 49.8518C11.0438 49.9144 11.0585 49.9818 11.0598 50.0501C11.0598 50.1192 11.046 50.1877 11.0193 50.2514C10.9925 50.3152 10.9533 50.3729 10.904 50.4214C10.8546 50.4698 10.7961 50.5079 10.7319 50.5334C10.6676 50.5589 10.5989 50.5714 10.5298 50.5701C10.3919 50.5701 10.2596 50.5153 10.1621 50.4178C10.0646 50.3203 10.0098 50.188 10.0098 50.0501C10.0098 49.9823 10.0233 49.9151 10.0496 49.8526C10.0758 49.79 10.1143 49.7334 10.1627 49.6859C10.2111 49.6384 10.2685 49.601 10.3316 49.576C10.3946 49.551 10.462 49.5388 10.5298 49.5401Z" fill="url(#paint18_linear)"/>
<path d="M10.5298 52.7301C10.5981 52.7288 10.666 52.7409 10.7296 52.7658C10.7932 52.7907 10.8512 52.8279 10.9005 52.8753C10.9497 52.9227 10.9891 52.9792 11.0164 53.0418C11.0438 53.1044 11.0585 53.1718 11.0598 53.2401C11.0598 53.3092 11.046 53.3777 11.0193 53.4414C10.9925 53.5052 10.9533 53.5629 10.904 53.6114C10.8546 53.6598 10.7961 53.6979 10.7319 53.7234C10.6676 53.749 10.5989 53.7614 10.5298 53.7601C10.3919 53.7601 10.2596 53.7053 10.1621 53.6078C10.0646 53.5103 10.0098 53.378 10.0098 53.2401C10.0098 53.1723 10.0233 53.1051 10.0496 53.0426C10.0758 52.98 10.1143 52.9234 10.1627 52.8759C10.2111 52.8284 10.2685 52.791 10.3316 52.766C10.3946 52.741 10.462 52.7288 10.5298 52.7301Z" fill="url(#paint19_linear)"/>
<path d="M10.5298 55.92C10.5981 55.9187 10.666 55.9308 10.7296 55.9557C10.7932 55.9806 10.8512 56.0178 10.9005 56.0652C10.9497 56.1126 10.9891 56.1691 11.0164 56.2317C11.0438 56.2943 11.0585 56.3617 11.0598 56.43C11.0598 56.4991 11.046 56.5676 11.0193 56.6313C10.9925 56.6951 10.9533 56.7528 10.904 56.8013C10.8546 56.8497 10.7961 56.8878 10.7319 56.9133C10.6676 56.9389 10.5989 56.9513 10.5298 56.95C10.3919 56.95 10.2596 56.8952 10.1621 56.7977C10.0646 56.7002 10.0098 56.5679 10.0098 56.43C10.0098 56.3622 10.0233 56.295 10.0496 56.2325C10.0758 56.1699 10.1143 56.1133 10.1627 56.0658C10.2111 56.0183 10.2685 55.9809 10.3316 55.9559C10.3946 55.9309 10.462 55.9187 10.5298 55.92Z" fill="url(#paint20_linear)"/>
<path d="M10.5298 59.11C10.5981 59.1087 10.666 59.1208 10.7296 59.1457C10.7932 59.1706 10.8512 59.2078 10.9005 59.2552C10.9497 59.3026 10.9891 59.3592 11.0164 59.4217C11.0438 59.4843 11.0585 59.5517 11.0598 59.62C11.0598 59.6891 11.046 59.7576 11.0193 59.8213C10.9925 59.8851 10.9533 59.9429 10.904 59.9913C10.8546 60.0397 10.7961 60.0778 10.7319 60.1033C10.6676 60.1289 10.5989 60.1413 10.5298 60.14C10.3919 60.14 10.2596 60.0852 10.1621 59.9877C10.0646 59.8902 10.0098 59.7579 10.0098 59.62C10.0098 59.5522 10.0233 59.485 10.0496 59.4225C10.0758 59.3599 10.1143 59.3033 10.1627 59.2558C10.2111 59.2083 10.2685 59.1709 10.3316 59.1459C10.3946 59.1209 10.462 59.1087 10.5298 59.11Z" fill="url(#paint21_linear)"/>
<path d="M10.5298 62.2999C10.5981 62.2986 10.666 62.3107 10.7296 62.3356C10.7932 62.3605 10.8512 62.3977 10.9005 62.4451C10.9497 62.4925 10.9891 62.5491 11.0164 62.6116C11.0438 62.6742 11.0585 62.7416 11.0598 62.8099C11.0598 62.879 11.046 62.9475 11.0193 63.0112C10.9925 63.075 10.9533 63.1328 10.904 63.1812C10.8546 63.2296 10.7961 63.2677 10.7319 63.2932C10.6676 63.3188 10.5989 63.3312 10.5298 63.3299C10.3919 63.3299 10.2596 63.2751 10.1621 63.1776C10.0646 63.0801 10.0098 62.9478 10.0098 62.8099C10.0098 62.7421 10.0233 62.6749 10.0496 62.6124C10.0758 62.5499 10.1143 62.4932 10.1627 62.4457C10.2111 62.3982 10.2685 62.3608 10.3316 62.3358C10.3946 62.3108 10.462 62.2986 10.5298 62.2999Z" fill="url(#paint22_linear)"/>
<path d="M10.5298 65.4901C10.5981 65.4888 10.666 65.5009 10.7296 65.5258C10.7932 65.5507 10.8512 65.5879 10.9005 65.6353C10.9497 65.6827 10.9891 65.7393 11.0164 65.8018C11.0438 65.8644 11.0585 65.9318 11.0598 66.0001C11.0598 66.0692 11.046 66.1377 11.0193 66.2014C10.9925 66.2652 10.9533 66.323 10.904 66.3714C10.8546 66.4198 10.7961 66.4579 10.7319 66.4834C10.6676 66.509 10.5989 66.5214 10.5298 66.5201C10.3919 66.5201 10.2596 66.4653 10.1621 66.3678C10.0646 66.2703 10.0098 66.138 10.0098 66.0001C10.0098 65.9323 10.0233 65.8651 10.0496 65.8026C10.0758 65.7401 10.1143 65.6834 10.1627 65.6359C10.2111 65.5884 10.2685 65.551 10.3316 65.526C10.3946 65.501 10.462 65.4888 10.5298 65.4901Z" fill="url(#paint23_linear)"/>
<path d="M7.27977 33.5899C7.34807 33.5886 7.41597 33.6007 7.47957 33.6256C7.54317 33.6505 7.60116 33.6877 7.65047 33.7351C7.69967 33.7825 7.73907 33.8391 7.76637 33.9017C7.79377 33.9642 7.80847 34.0316 7.80977 34.0999C7.80977 34.169 7.79597 34.2375 7.76927 34.3012C7.74247 34.365 7.70327 34.4228 7.65396 34.4712C7.60457 34.5196 7.54606 34.5577 7.48186 34.5832C7.41756 34.6088 7.34887 34.6212 7.27977 34.6199C7.14187 34.6199 7.00957 34.5651 6.91207 34.4676C6.81457 34.3701 6.75977 34.2378 6.75977 34.0999C6.75977 34.0321 6.77327 33.9649 6.79957 33.9024C6.82577 33.8399 6.86427 33.7832 6.91267 33.7357C6.96107 33.6882 7.01847 33.6508 7.08157 33.6258C7.14457 33.6008 7.21197 33.5886 7.27977 33.5899Z" fill="url(#paint24_linear)"/>
<path d="M7.27977 36.7799C7.34807 36.7786 7.41597 36.7907 7.47957 36.8156C7.54317 36.8405 7.60116 36.8777 7.65047 36.9251C7.69967 36.9725 7.73907 37.0291 7.76637 37.0917C7.79377 37.1543 7.80847 37.2216 7.80977 37.2899C7.80977 37.359 7.79597 37.4275 7.76927 37.4912C7.74247 37.555 7.70327 37.6128 7.65396 37.6612C7.60457 37.7096 7.54606 37.7477 7.48186 37.7732C7.41756 37.7988 7.34887 37.8112 7.27977 37.8099C7.14187 37.8099 7.00957 37.7551 6.91207 37.6576C6.81457 37.5601 6.75977 37.4278 6.75977 37.2899C6.75977 37.2221 6.77327 37.1549 6.79957 37.0924C6.82577 37.0299 6.86427 36.9732 6.91267 36.9257C6.96107 36.8782 7.01847 36.8409 7.08157 36.8158C7.14457 36.7908 7.21197 36.7786 7.27977 36.7799Z" fill="url(#paint25_linear)"/>
<path d="M7.28002 39.9701C7.34832 39.9688 7.41622 39.9809 7.47982 40.0058C7.54342 40.0308 7.60152 40.068 7.65072 40.1153C7.69992 40.1627 7.73932 40.2193 7.76662 40.2819C7.79402 40.3444 7.80872 40.4118 7.81002 40.4801C7.81002 40.5492 7.79632 40.6177 7.76952 40.6814C7.74272 40.7452 7.70352 40.803 7.65422 40.8514C7.60482 40.8998 7.54632 40.9379 7.48212 40.9634C7.41782 40.989 7.34912 41.0014 7.28002 41.0001C7.14382 40.9975 7.01412 40.9415 6.91882 40.8443C6.82342 40.7471 6.77002 40.6163 6.77002 40.4801C6.77002 40.4123 6.78352 40.3451 6.80982 40.2826C6.83602 40.2201 6.87452 40.1634 6.92292 40.1159C6.97132 40.0684 7.02872 40.0311 7.09182 40.006C7.15482 39.981 7.22222 39.9688 7.29002 39.9701H7.28002Z" fill="url(#paint26_linear)"/>
<path d="M7.27977 43.16C7.34807 43.1587 7.41597 43.1708 7.47957 43.1957C7.54317 43.2207 7.60116 43.2579 7.65047 43.3052C7.69967 43.3526 7.73907 43.4092 7.76637 43.4718C7.79377 43.5344 7.80847 43.6017 7.80977 43.67C7.80977 43.7391 7.79597 43.8076 7.76927 43.8713C7.74247 43.9351 7.70327 43.9929 7.65396 44.0413C7.60457 44.0897 7.54606 44.1278 7.48186 44.1533C7.41756 44.1789 7.34887 44.1913 7.27977 44.19C7.14187 44.19 7.00957 44.1352 6.91207 44.0377C6.81457 43.9402 6.75977 43.8079 6.75977 43.67C6.75977 43.6022 6.77327 43.535 6.79957 43.4725C6.82577 43.41 6.86427 43.3533 6.91267 43.3058C6.96107 43.2583 7.01847 43.221 7.08157 43.1959C7.14457 43.1709 7.21197 43.1587 7.27977 43.16Z" fill="url(#paint27_linear)"/>
<path d="M7.27977 46.38C7.34807 46.3787 7.41597 46.3908 7.47957 46.4157C7.54317 46.4407 7.60116 46.4779 7.65047 46.5252C7.69967 46.5726 7.73907 46.6292 7.76637 46.6918C7.79377 46.7544 7.80847 46.8217 7.80977 46.89C7.80977 46.9591 7.79597 47.0276 7.76927 47.0913C7.74247 47.1551 7.70327 47.2129 7.65396 47.2613C7.60457 47.3097 7.54606 47.3478 7.48186 47.3733C7.41756 47.3989 7.34887 47.4113 7.27977 47.41C7.14187 47.41 7.00957 47.3552 6.91207 47.2577C6.81457 47.1602 6.75977 47.0279 6.75977 46.89C6.75977 46.8222 6.77327 46.755 6.79957 46.6925C6.82577 46.63 6.86427 46.5733 6.91267 46.5258C6.96107 46.4783 7.01847 46.441 7.08157 46.4159C7.14457 46.3909 7.21197 46.3787 7.27977 46.38Z" fill="url(#paint28_linear)"/>
<path d="M7.27977 49.5401C7.34807 49.5388 7.41597 49.5509 7.47957 49.5758C7.54317 49.6007 7.60116 49.6379 7.65047 49.6853C7.69967 49.7327 7.73907 49.7892 7.76637 49.8518C7.79377 49.9144 7.80847 49.9818 7.80977 50.0501C7.80977 50.1192 7.79597 50.1877 7.76927 50.2514C7.74247 50.3152 7.70327 50.3729 7.65396 50.4214C7.60457 50.4698 7.54606 50.5079 7.48186 50.5334C7.41756 50.5589 7.34887 50.5714 7.27977 50.5701C7.14187 50.5701 7.00957 50.5153 6.91207 50.4178C6.81457 50.3203 6.75977 50.188 6.75977 50.0501C6.75977 49.9823 6.77327 49.9151 6.79957 49.8526C6.82577 49.79 6.86427 49.7334 6.91267 49.6859C6.96107 49.6384 7.01847 49.601 7.08157 49.576C7.14457 49.551 7.21197 49.5388 7.27977 49.5401Z" fill="url(#paint29_linear)"/>
<path d="M7.27977 52.7301C7.34807 52.7288 7.41597 52.7409 7.47957 52.7658C7.54317 52.7907 7.60116 52.8279 7.65047 52.8753C7.69967 52.9227 7.73907 52.9792 7.76637 53.0418C7.79377 53.1044 7.80847 53.1718 7.80977 53.2401C7.80977 53.3092 7.79597 53.3777 7.76927 53.4414C7.74247 53.5052 7.70327 53.5629 7.65396 53.6114C7.60457 53.6598 7.54606 53.6979 7.48186 53.7234C7.41756 53.749 7.34887 53.7614 7.27977 53.7601C7.14187 53.7601 7.00957 53.7053 6.91207 53.6078C6.81457 53.5103 6.75977 53.378 6.75977 53.2401C6.75977 53.1723 6.77327 53.1051 6.79957 53.0426C6.82577 52.98 6.86427 52.9234 6.91267 52.8759C6.96107 52.8284 7.01847 52.791 7.08157 52.766C7.14457 52.741 7.21197 52.7288 7.27977 52.7301Z" fill="url(#paint30_linear)"/>
<path d="M7.27977 55.92C7.34807 55.9187 7.41597 55.9308 7.47957 55.9557C7.54317 55.9806 7.60116 56.0178 7.65047 56.0652C7.69967 56.1126 7.73907 56.1691 7.76637 56.2317C7.79377 56.2943 7.80847 56.3617 7.80977 56.43C7.80977 56.4991 7.79597 56.5676 7.76927 56.6313C7.74247 56.6951 7.70327 56.7528 7.65396 56.8013C7.60457 56.8497 7.54606 56.8878 7.48186 56.9133C7.41756 56.9389 7.34887 56.9513 7.27977 56.95C7.14187 56.95 7.00957 56.8952 6.91207 56.7977C6.81457 56.7002 6.75977 56.5679 6.75977 56.43C6.75977 56.3622 6.77327 56.295 6.79957 56.2325C6.82577 56.1699 6.86427 56.1133 6.91267 56.0658C6.96107 56.0183 7.01847 55.9809 7.08157 55.9559C7.14457 55.9309 7.21197 55.9187 7.27977 55.92Z" fill="url(#paint31_linear)"/>
<path d="M7.27977 59.11C7.34807 59.1087 7.41597 59.1208 7.47957 59.1457C7.54317 59.1706 7.60116 59.2078 7.65047 59.2552C7.69967 59.3026 7.73907 59.3592 7.76637 59.4217C7.79377 59.4843 7.80847 59.5517 7.80977 59.62C7.80977 59.6891 7.79597 59.7576 7.76927 59.8213C7.74247 59.8851 7.70327 59.9429 7.65396 59.9913C7.60457 60.0397 7.54606 60.0778 7.48186 60.1033C7.41756 60.1289 7.34887 60.1413 7.27977 60.14C7.14187 60.14 7.00957 60.0852 6.91207 59.9877C6.81457 59.8902 6.75977 59.7579 6.75977 59.62C6.75977 59.5522 6.77327 59.485 6.79957 59.4225C6.82577 59.3599 6.86427 59.3033 6.91267 59.2558C6.96107 59.2083 7.01847 59.1709 7.08157 59.1459C7.14457 59.1209 7.21197 59.1087 7.27977 59.11Z" fill="url(#paint32_linear)"/>
<path d="M7.27977 62.2999C7.34807 62.2986 7.41597 62.3107 7.47957 62.3356C7.54317 62.3605 7.60116 62.3977 7.65047 62.4451C7.69967 62.4925 7.73907 62.5491 7.76637 62.6116C7.79377 62.6742 7.80847 62.7416 7.80977 62.8099C7.80977 62.879 7.79597 62.9475 7.76927 63.0112C7.74247 63.075 7.70327 63.1328 7.65396 63.1812C7.60457 63.2296 7.54606 63.2677 7.48186 63.2932C7.41756 63.3188 7.34887 63.3312 7.27977 63.3299C7.14187 63.3299 7.00957 63.2751 6.91207 63.1776C6.81457 63.0801 6.75977 62.9478 6.75977 62.8099C6.75977 62.7421 6.77327 62.6749 6.79957 62.6124C6.82577 62.5499 6.86427 62.4932 6.91267 62.4457C6.96107 62.3982 7.01847 62.3608 7.08157 62.3358C7.14457 62.3108 7.21197 62.2986 7.27977 62.2999Z" fill="url(#paint33_linear)"/>
<path d="M7.27977 65.4901C7.34807 65.4888 7.41597 65.5009 7.47957 65.5258C7.54317 65.5507 7.60116 65.5879 7.65047 65.6353C7.69967 65.6827 7.73907 65.7393 7.76637 65.8018C7.79377 65.8644 7.80847 65.9318 7.80977 66.0001C7.80977 66.0692 7.79597 66.1377 7.76927 66.2014C7.74247 66.2652 7.70327 66.323 7.65396 66.3714C7.60457 66.4198 7.54606 66.4579 7.48186 66.4834C7.41756 66.509 7.34887 66.5214 7.27977 66.5201C7.14187 66.5201 7.00957 66.4653 6.91207 66.3678C6.81457 66.2703 6.75977 66.138 6.75977 66.0001C6.75977 65.9323 6.77327 65.8651 6.79957 65.8026C6.82577 65.7401 6.86427 65.6834 6.91267 65.6359C6.96107 65.5884 7.01847 65.551 7.08157 65.526C7.14457 65.501 7.21197 65.4888 7.27977 65.4901Z" fill="url(#paint34_linear)"/>
<path d="M7.27977 68.68C7.34807 68.6787 7.41597 68.6908 7.47957 68.7157C7.54317 68.7406 7.60116 68.7778 7.65047 68.8252C7.69967 68.8726 7.73907 68.9292 7.76637 68.9918C7.79377 69.0543 7.80847 69.1217 7.80977 69.19C7.80977 69.2591 7.79597 69.3276 7.76927 69.3913C7.74247 69.4551 7.70327 69.5129 7.65396 69.5613C7.60457 69.6097 7.54606 69.6478 7.48186 69.6733C7.41756 69.6989 7.34887 69.7113 7.27977 69.71C7.14187 69.71 7.00957 69.6552 6.91207 69.5577C6.81457 69.4602 6.75977 69.3279 6.75977 69.19C6.75977 69.1222 6.77327 69.055 6.79957 68.9925C6.82577 68.93 6.86427 68.8733 6.91267 68.8258C6.96107 68.7783 7.01847 68.7409 7.08157 68.7159C7.14457 68.6909 7.21197 68.6787 7.27977 68.68Z" fill="url(#paint35_linear)"/>
<path d="M4.02977 33.5899C4.09758 33.5886 4.16498 33.6008 4.22802 33.6258C4.29105 33.6508 4.34846 33.6882 4.39688 33.7357C4.4453 33.7832 4.48376 33.8399 4.51001 33.9024C4.53627 33.9649 4.54978 34.0321 4.54977 34.0999C4.54977 34.2378 4.49498 34.3701 4.39747 34.4676C4.29995 34.5651 4.16769 34.6199 4.02977 34.6199C3.89186 34.6199 3.75959 34.5651 3.66208 34.4676C3.56456 34.3701 3.50977 34.2378 3.50977 34.0999C3.50976 34.0321 3.52327 33.9649 3.54953 33.9024C3.57578 33.8399 3.61424 33.7832 3.66266 33.7357C3.71108 33.6882 3.7685 33.6508 3.83153 33.6258C3.89457 33.6008 3.96196 33.5886 4.02977 33.5899Z" fill="url(#paint36_linear)"/>
<path d="M4.02977 36.7799C4.09758 36.7786 4.16498 36.7908 4.22802 36.8158C4.29105 36.8409 4.34846 36.8782 4.39688 36.9257C4.4453 36.9732 4.48376 37.0299 4.51001 37.0924C4.53627 37.1549 4.54978 37.2221 4.54977 37.2899C4.54977 37.4278 4.49498 37.5601 4.39747 37.6576C4.29995 37.7551 4.16769 37.8099 4.02977 37.8099C3.89186 37.8099 3.75959 37.7551 3.66208 37.6576C3.56456 37.5601 3.50977 37.4278 3.50977 37.2899C3.50976 37.2221 3.52327 37.1549 3.54953 37.0924C3.57578 37.0299 3.61424 36.9732 3.66266 36.9257C3.71108 36.8782 3.7685 36.8409 3.83153 36.8158C3.89457 36.7908 3.96196 36.7786 4.02977 36.7799Z" fill="url(#paint37_linear)"/>
<path d="M4.02977 39.9701C4.09758 39.9688 4.16498 39.981 4.22802 40.006C4.29105 40.0311 4.34846 40.0684 4.39688 40.1159C4.4453 40.1634 4.48376 40.2201 4.51001 40.2826C4.53627 40.3451 4.54978 40.4123 4.54977 40.4801C4.54977 40.618 4.49498 40.7503 4.39747 40.8478C4.29995 40.9453 4.16769 41.0001 4.02977 41.0001C3.89186 41.0001 3.75959 40.9453 3.66208 40.8478C3.56456 40.7503 3.50977 40.618 3.50977 40.4801C3.50976 40.4123 3.52327 40.3451 3.54953 40.2826C3.57578 40.2201 3.61424 40.1634 3.66266 40.1159C3.71108 40.0684 3.7685 40.0311 3.83153 40.006C3.89457 39.981 3.96196 39.9688 4.02977 39.9701Z" fill="url(#paint38_linear)"/>
<path d="M4.02977 43.16C4.09758 43.1587 4.16498 43.1709 4.22802 43.1959C4.29105 43.221 4.34846 43.2583 4.39688 43.3058C4.4453 43.3533 4.48376 43.41 4.51001 43.4725C4.53627 43.535 4.54978 43.6022 4.54977 43.67C4.54977 43.8079 4.49498 43.9402 4.39747 44.0377C4.29995 44.1352 4.16769 44.19 4.02977 44.19C3.89186 44.19 3.75959 44.1352 3.66208 44.0377C3.56456 43.9402 3.50977 43.8079 3.50977 43.67C3.50976 43.6022 3.52327 43.535 3.54953 43.4725C3.57578 43.41 3.61424 43.3533 3.66266 43.3058C3.71108 43.2583 3.7685 43.221 3.83153 43.1959C3.89457 43.1709 3.96196 43.1587 4.02977 43.16Z" fill="url(#paint39_linear)"/>
<path d="M4.02977 59.11C4.09758 59.1087 4.16498 59.1209 4.22802 59.1459C4.29105 59.1709 4.34846 59.2083 4.39688 59.2558C4.4453 59.3033 4.48376 59.3599 4.51001 59.4225C4.53627 59.485 4.54978 59.5522 4.54977 59.62C4.54977 59.7579 4.49498 59.8902 4.39747 59.9877C4.29995 60.0852 4.16769 60.14 4.02977 60.14C3.89186 60.14 3.75959 60.0852 3.66208 59.9877C3.56456 59.8902 3.50977 59.7579 3.50977 59.62C3.50976 59.5522 3.52327 59.485 3.54953 59.4225C3.57578 59.3599 3.61424 59.3033 3.66266 59.2558C3.71108 59.2083 3.7685 59.1709 3.83153 59.1459C3.89457 59.1209 3.96196 59.1087 4.02977 59.11Z" fill="url(#paint40_linear)"/>
<path d="M4.02977 62.2999C4.09758 62.2986 4.16498 62.3108 4.22802 62.3358C4.29105 62.3608 4.34846 62.3982 4.39688 62.4457C4.4453 62.4932 4.48376 62.5499 4.51001 62.6124C4.53627 62.6749 4.54978 62.7421 4.54977 62.8099C4.54977 62.9478 4.49498 63.0801 4.39747 63.1776C4.29995 63.2751 4.16769 63.3299 4.02977 63.3299C3.89186 63.3299 3.75959 63.2751 3.66208 63.1776C3.56456 63.0801 3.50977 62.9478 3.50977 62.8099C3.50976 62.7421 3.52327 62.6749 3.54953 62.6124C3.57578 62.5499 3.61424 62.4932 3.66266 62.4457C3.71108 62.3982 3.7685 62.3608 3.83153 62.3358C3.89457 62.3108 3.96196 62.2986 4.02977 62.2999Z" fill="url(#paint41_linear)"/>
<path d="M4.02977 65.4901C4.09758 65.4888 4.16498 65.501 4.22802 65.526C4.29105 65.551 4.34846 65.5884 4.39688 65.6359C4.4453 65.6834 4.48376 65.7401 4.51001 65.8026C4.53627 65.8651 4.54978 65.9323 4.54977 66.0001C4.54977 66.138 4.49498 66.2703 4.39747 66.3678C4.29995 66.4653 4.16769 66.5201 4.02977 66.5201C3.89186 66.5201 3.75959 66.4653 3.66208 66.3678C3.56456 66.2703 3.50977 66.138 3.50977 66.0001C3.50976 65.9323 3.52327 65.8651 3.54953 65.8026C3.57578 65.7401 3.61424 65.6834 3.66266 65.6359C3.71108 65.5884 3.7685 65.551 3.83153 65.526C3.89457 65.501 3.96196 65.4888 4.02977 65.4901Z" fill="url(#paint42_linear)"/>
<path d="M4.02977 68.68C4.09758 68.6787 4.16498 68.6909 4.22802 68.7159C4.29105 68.7409 4.34846 68.7783 4.39688 68.8258C4.4453 68.8733 4.48376 68.93 4.51001 68.9925C4.53627 69.055 4.54978 69.1222 4.54977 69.19C4.54977 69.3279 4.49498 69.4602 4.39747 69.5577C4.29995 69.6552 4.16769 69.71 4.02977 69.71C3.89186 69.71 3.75959 69.6552 3.66208 69.5577C3.56456 69.4602 3.50977 69.3279 3.50977 69.19C3.50976 69.1222 3.52327 69.055 3.54953 68.9925C3.57578 68.93 3.61424 68.8733 3.66266 68.8258C3.71108 68.7783 3.7685 68.7409 3.83153 68.7159C3.89457 68.6909 3.96196 68.6787 4.02977 68.68Z" fill="url(#paint43_linear)"/>
<path d="M1.30014 30.95C1.29004 31.0809 1.23083 31.2031 1.13438 31.2921C1.03793 31.3811 0.911389 31.4304 0.780139 31.43C0.711019 31.4313 0.642319 31.4189 0.578069 31.3933C0.513819 31.3678 0.455319 31.3297 0.405959 31.2813C0.356609 31.2329 0.317409 31.1751 0.290649 31.1113C0.263899 31.0476 0.250129 30.9791 0.250139 30.91C0.240839 30.847 0.240839 30.783 0.250139 30.72L1.25014 30.95H1.30014Z" fill="url(#paint44_linear)"/>
<path d="M0.770234 33.5899C0.838044 33.5886 0.905444 33.6008 0.968474 33.6258C1.03151 33.6508 1.08891 33.6882 1.13733 33.7357C1.18575 33.7832 1.22422 33.8399 1.25048 33.9024C1.27673 33.9649 1.29024 34.0321 1.29023 34.0999C1.29023 34.2378 1.23545 34.3701 1.13793 34.4676C1.04041 34.5651 0.908144 34.6199 0.770234 34.6199C0.701104 34.6212 0.632414 34.6088 0.568164 34.5832C0.503924 34.5577 0.445404 34.5196 0.396054 34.4712C0.346704 34.4228 0.307504 34.365 0.280744 34.3012C0.253994 34.2375 0.240224 34.169 0.240234 34.0999C0.241534 34.0316 0.256274 33.9642 0.283614 33.9017C0.310954 33.8391 0.350364 33.7825 0.399584 33.7351C0.448804 33.6877 0.506864 33.6505 0.570464 33.6256C0.634064 33.6007 0.701944 33.5886 0.770234 33.5899Z" fill="url(#paint45_linear)"/>
<path d="M0.770234 36.7799C0.838044 36.7786 0.905444 36.7908 0.968474 36.8158C1.03151 36.8409 1.08891 36.8782 1.13733 36.9257C1.18575 36.9732 1.22422 37.0299 1.25048 37.0924C1.27673 37.1549 1.29024 37.2221 1.29023 37.2899C1.29023 37.4278 1.23545 37.5601 1.13793 37.6576C1.04041 37.7551 0.908144 37.8099 0.770234 37.8099C0.701104 37.8112 0.632414 37.7988 0.568164 37.7732C0.503924 37.7477 0.445404 37.7096 0.396054 37.6612C0.346704 37.6128 0.307504 37.555 0.280744 37.4912C0.253994 37.4275 0.240224 37.359 0.240234 37.2899C0.241534 37.2216 0.256274 37.1543 0.283614 37.0917C0.310954 37.0291 0.350364 36.9725 0.399584 36.9251C0.448804 36.8777 0.506864 36.8405 0.570464 36.8156C0.634064 36.7907 0.701944 36.7786 0.770234 36.7799Z" fill="url(#paint46_linear)"/>
<path d="M0.770234 39.9701C0.838044 39.9688 0.905444 39.981 0.968474 40.006C1.03151 40.0311 1.08891 40.0684 1.13733 40.1159C1.18575 40.1634 1.22422 40.2201 1.25048 40.2826C1.27673 40.3451 1.29024 40.4123 1.29023 40.4801C1.29023 40.618 1.23545 40.7503 1.13793 40.8478C1.04041 40.9453 0.908144 41.0001 0.770234 41.0001C0.701104 41.0014 0.632414 40.989 0.568164 40.9634C0.503924 40.9379 0.445404 40.8998 0.396054 40.8514C0.346704 40.803 0.307504 40.7452 0.280744 40.6814C0.253994 40.6177 0.240224 40.5492 0.240234 40.4801C0.241534 40.4118 0.256274 40.3444 0.283614 40.2819C0.310954 40.2193 0.350364 40.1627 0.399584 40.1153C0.448804 40.068 0.506864 40.0308 0.570464 40.0058C0.634064 39.9809 0.701944 39.9688 0.770234 39.9701Z" fill="url(#paint47_linear)"/>
<path d="M0.770234 62.2999C0.838044 62.2986 0.905444 62.3108 0.968474 62.3358C1.03151 62.3608 1.08891 62.3982 1.13733 62.4457C1.18575 62.4932 1.22422 62.5499 1.25048 62.6124C1.27673 62.6749 1.29024 62.7421 1.29023 62.8099C1.29722 62.8823 1.28895 62.9553 1.26597 63.0243C1.24299 63.0933 1.2058 63.1566 1.1568 63.2104C1.10779 63.2641 1.04807 63.3069 0.981494 63.3361C0.914904 63.3653 0.842944 63.3802 0.770234 63.3799C0.701104 63.3812 0.632414 63.3688 0.568164 63.3432C0.503924 63.3177 0.445404 63.2796 0.396054 63.2312C0.346704 63.1828 0.307504 63.125 0.280744 63.0612C0.253994 62.9975 0.240224 62.929 0.240234 62.8599C0.241534 62.7916 0.256274 62.7242 0.283614 62.6616C0.310954 62.5991 0.350364 62.5425 0.399584 62.4951C0.448804 62.4477 0.506864 62.4105 0.570464 62.3856C0.634064 62.3607 0.701944 62.3486 0.770234 62.3499V62.2999Z" fill="url(#paint48_linear)"/>
<path d="M0.770234 65.4901C0.838044 65.4888 0.905444 65.501 0.968474 65.526C1.03151 65.551 1.08891 65.5884 1.13733 65.6359C1.18575 65.6834 1.22422 65.7401 1.25048 65.8026C1.27673 65.8651 1.29024 65.9323 1.29023 66.0001C1.29023 66.138 1.23545 66.2703 1.13793 66.3678C1.04041 66.4653 0.908144 66.5201 0.770234 66.5201C0.701104 66.5214 0.632414 66.509 0.568164 66.4834C0.503924 66.4579 0.445404 66.4198 0.396054 66.3714C0.346704 66.323 0.307504 66.2652 0.280744 66.2014C0.253994 66.1377 0.240224 66.0692 0.240234 66.0001C0.241534 65.9318 0.256274 65.8644 0.283614 65.8018C0.310954 65.7393 0.350364 65.6827 0.399584 65.6353C0.448804 65.5879 0.506864 65.5507 0.570464 65.5258C0.634064 65.5009 0.701944 65.4888 0.770234 65.4901Z" fill="url(#paint49_linear)"/>
<path d="M0.770234 68.68C0.838044 68.6787 0.905444 68.6909 0.968474 68.7159C1.03151 68.7409 1.08891 68.7783 1.13733 68.8258C1.18575 68.8733 1.22422 68.93 1.25048 68.9925C1.27673 69.055 1.29024 69.1222 1.29023 69.19C1.29023 69.3279 1.23545 69.4602 1.13793 69.5577C1.04041 69.6552 0.908144 69.71 0.770234 69.71C0.701104 69.7113 0.632414 69.6989 0.568164 69.6733C0.503924 69.6478 0.445404 69.6097 0.396054 69.5613C0.346704 69.5129 0.307504 69.4551 0.280744 69.3913C0.253994 69.3276 0.240224 69.2591 0.240234 69.19C0.241534 69.1217 0.256274 69.0543 0.283614 68.9918C0.310954 68.9292 0.350364 68.8726 0.399584 68.8252C0.448804 68.7778 0.506864 68.7406 0.570464 68.7157C0.634064 68.6908 0.701944 68.6787 0.770234 68.68Z" fill="url(#paint50_linear)"/>
<path d="M0.770057 71.87C0.899727 71.8694 1.02495 71.9173 1.12115 72.0042C1.21735 72.0912 1.27759 72.2109 1.29006 72.34L0.290057 72.57C0.279617 72.5071 0.279617 72.4429 0.290057 72.38C0.291357 72.3117 0.306106 72.2443 0.333446 72.1818C0.360786 72.1192 0.400186 72.0626 0.449406 72.0152C0.498616 71.9678 0.556686 71.9306 0.620286 71.9057C0.683886 71.8808 0.751776 71.8687 0.820066 71.87H0.770057Z" fill="url(#paint51_linear)"/>
<path d="M136.11 47.22C135.817 47.22 135.536 47.1044 135.328 46.8984C135.12 46.6924 135.002 46.4126 135 46.12V45.12C135.002 44.8273 135.12 44.5476 135.328 44.3416C135.536 44.1356 135.817 44.02 136.11 44.02C136.402 44.02 136.683 44.1356 136.891 44.3416C137.099 44.5476 137.217 44.8273 137.22 45.12V46.12C137.217 46.4126 137.099 46.6924 136.891 46.8984C136.683 47.1044 136.402 47.22 136.11 47.22Z" fill="url(#paint52_linear)" fill-opacity="0.5"/>
<path d="M136.11 40.23C135.817 40.23 135.536 40.1145 135.328 39.9084C135.12 39.7024 135.002 39.4227 135 39.13V38.13C135 37.8356 135.116 37.5533 135.325 37.3451C135.533 37.137 135.815 37.02 136.11 37.02C136.404 37.02 136.686 37.137 136.894 37.3451C137.103 37.5533 137.22 37.8356 137.22 38.13V39.13C137.217 39.4227 137.099 39.7024 136.891 39.9084C136.683 40.1145 136.402 40.23 136.11 40.23Z" fill="url(#paint53_linear)" fill-opacity="0.5"/>
<path d="M140.11 43.22H139.11C138.817 43.2174 138.537 43.0993 138.331 42.8914C138.125 42.6835 138.01 42.4027 138.01 42.11C138.01 41.8174 138.125 41.5365 138.331 41.3286C138.537 41.1208 138.817 41.0026 139.11 41H140.11C140.404 41 140.686 41.117 140.895 41.3251C141.103 41.5333 141.22 41.8156 141.22 42.11C141.22 42.4044 141.103 42.6867 140.895 42.8949C140.686 43.1031 140.404 43.22 140.11 43.22Z" fill="url(#paint54_linear)" fill-opacity="0.5"/>
<path d="M133.13 43.22H132.13C131.835 43.22 131.553 43.1031 131.345 42.8949C131.137 42.6867 131.02 42.4044 131.02 42.11C131.02 41.8156 131.137 41.5333 131.345 41.3251C131.553 41.117 131.835 41 132.13 41H133.13C133.422 41.0026 133.702 41.1208 133.908 41.3286C134.114 41.5365 134.23 41.8174 134.23 42.11C134.23 42.4027 134.114 42.6835 133.908 42.8914C133.702 43.0993 133.422 43.2174 133.13 43.22Z" fill="url(#paint55_linear)" fill-opacity="0.5"/>
<path fill-rule="evenodd" clip-rule="evenodd" d="M120.01 0H128.01C127.998 1.35444 128.257 2.69761 128.772 3.9502C129.288 5.2028 130.049 6.33943 131.011 7.293C131.973 8.24657 133.116 8.99774 134.373 9.50218C135.63 10.0066 136.976 10.2541 138.33 10.23C139.687 10.2582 141.035 10.0137 142.296 9.51107C143.557 9.00845 144.703 8.25792 145.669 7.30393C146.634 6.34995 147.398 5.21193 147.915 3.95731C148.432 2.7027 148.692 1.35702 148.68 0H156.47C156.412 4.79575 154.466 9.37525 151.053 12.745C147.64 16.1148 143.036 18.003 138.24 18C133.443 18.003 128.838 16.1151 125.424 12.7456C122.009 9.37616 120.06 4.79666 120 0H120.01Z" fill="url(#paint56_linear)"/>
<g opacity="0.59">
<path opacity="0.59" d="M144.92 88.31V89.99C144.481 89.946 144.06 89.7943 143.693 89.5483C143.327 89.3024 143.027 88.9697 142.82 88.58C142.43 88.04 142.17 87.67 141.6 87.67C141.03 87.67 140.77 88.04 140.38 88.58C140.181 88.9742 139.885 89.3108 139.519 89.5577C139.153 89.8045 138.73 89.9534 138.29 89.99C137.851 89.9536 137.429 89.8048 137.065 89.5578C136.701 89.3108 136.406 88.974 136.21 88.58C135.82 88.04 135.56 87.67 134.99 87.67C134.42 87.67 134.17 88.04 133.78 88.58C133.581 88.9742 133.285 89.3108 132.919 89.5577C132.553 89.8045 132.13 89.9534 131.69 89.99C131.251 89.9536 130.829 89.8048 130.465 89.5578C130.101 89.3108 129.806 88.974 129.61 88.58C129.22 88.04 128.96 87.67 128.39 87.67C127.82 87.67 127.56 88.04 127.17 88.58C126.975 88.9746 126.68 89.3119 126.316 89.559C125.951 89.8061 125.529 89.9546 125.09 89.99C124.651 89.9546 124.229 89.8061 123.864 89.559C123.5 89.3119 123.205 88.9746 123.01 88.58C122.62 88.04 122.36 87.67 121.79 87.67C121.22 87.67 120.95 88.04 120.56 88.58C120.37 88.9811 120.076 89.3236 119.708 89.5717C119.341 89.8198 118.913 89.9643 118.47 89.99C118.027 89.9492 117.602 89.799 117.232 89.5528C116.862 89.3067 116.559 88.9724 116.35 88.58C115.96 88.04 115.7 87.67 115.13 87.67C114.56 87.67 114.3 88.04 113.91 88.58C113.711 88.9742 113.415 89.3108 113.049 89.5577C112.683 89.8045 112.26 89.9534 111.82 89.99C111.381 89.9536 110.959 89.8048 110.595 89.5578C110.231 89.3108 109.936 88.974 109.74 88.58C109.35 88.04 109.09 87.67 108.52 87.67C107.95 87.67 107.69 88.04 107.31 88.58C107.111 88.9742 106.815 89.3108 106.449 89.5577C106.083 89.8045 105.66 89.9534 105.22 89.99C104.781 89.9546 104.359 89.8061 103.994 89.559C103.63 89.3119 103.335 88.9746 103.14 88.58C102.75 88.04 102.49 87.67 101.92 87.67C101.35 87.67 101.09 88.04 100.7 88.58C100.505 88.9746 100.21 89.3119 99.8457 89.559C99.4812 89.8061 99.0589 89.9546 98.62 89.99C98.1811 89.9546 97.7588 89.8061 97.3943 89.559C97.0298 89.3119 96.7354 88.9746 96.54 88.58C96.15 88.04 95.89 87.67 95.32 87.67C94.75 87.67 94.48 88.04 94.09 88.58C93.9004 88.9811 93.6062 89.3236 93.2384 89.5717C92.8707 89.8198 92.4429 89.9643 92 89.99V88.31C92.63 88.31 92.84 87.95 93.23 87.41C93.4288 87.0098 93.7294 86.6689 94.1014 86.4215C94.4735 86.174 94.9041 86.0287 95.35 86C95.7899 86.0366 96.213 86.1855 96.579 86.4323C96.9449 86.6792 97.2413 87.0158 97.44 87.41C97.83 87.95 98.09 88.31 98.66 88.31C99.23 88.31 99.48 87.95 99.87 87.41C100.069 87.0158 100.365 86.6792 100.731 86.4323C101.097 86.1855 101.52 86.0366 101.96 86C102.399 86.0354 102.821 86.1839 103.186 86.431C103.55 86.6781 103.845 87.0154 104.04 87.41C104.43 87.95 104.69 88.31 105.26 88.31C105.83 88.31 106.09 87.95 106.48 87.41C106.675 87.0154 106.97 86.6781 107.334 86.431C107.699 86.1839 108.121 86.0354 108.56 86C108.999 86.0354 109.421 86.1839 109.786 86.431C110.15 86.6781 110.445 87.0154 110.64 87.41C111.03 87.95 111.29 88.31 111.86 88.31C112.43 88.31 112.69 87.95 113.08 87.41C113.276 87.016 113.571 86.6792 113.935 86.4322C114.299 86.1852 114.721 86.0364 115.16 86C115.601 86.0368 116.025 86.1857 116.393 86.4324C116.76 86.6792 117.059 87.0156 117.26 87.41C117.65 87.95 117.86 88.31 118.49 88.31C119.12 88.31 119.33 87.95 119.72 87.41C119.916 87.016 120.211 86.6792 120.575 86.4322C120.939 86.1852 121.361 86.0364 121.8 86C122.24 86.0357 122.664 86.1841 123.03 86.4311C123.396 86.6781 123.692 87.0152 123.89 87.41C124.28 87.95 124.54 88.31 125.11 88.31C125.68 88.31 125.92 87.94 126.35 87.41C126.538 87.0261 126.82 86.6958 127.17 86.4494C127.519 86.203 127.925 86.0485 128.35 86C128.789 86.0354 129.211 86.1839 129.576 86.431C129.94 86.6781 130.235 87.0154 130.43 87.41C130.82 87.95 131.08 88.31 131.65 88.31C132.22 88.31 132.48 87.95 132.87 87.41C133.065 87.0154 133.36 86.6781 133.724 86.431C134.089 86.1839 134.511 86.0354 134.95 86C135.39 86.0366 135.813 86.1855 136.179 86.4323C136.545 86.6792 136.841 87.0158 137.04 87.41C137.42 87.95 137.68 88.31 138.25 88.31C138.82 88.31 139.08 87.95 139.47 87.41C139.668 87.0172 139.963 86.6814 140.327 86.4347C140.691 86.1879 141.112 86.0383 141.55 86C141.992 86.0349 142.417 86.183 142.785 86.43C143.152 86.6769 143.45 87.0145 143.65 87.41C144.08 87.94 144.29 88.31 144.92 88.31Z" fill="url(#paint57_linear)"/>
<path opacity="0.59" d="M151.13 92.2199V93.9399C150.692 93.8961 150.272 93.7443 149.907 93.4982C149.543 93.2522 149.245 92.9194 149.04 92.5299C148.65 91.9899 148.39 91.6299 147.82 91.6299C147.25 91.6299 146.98 91.9899 146.6 92.5299C146.401 92.9241 146.105 93.2607 145.739 93.5076C145.373 93.7544 144.95 93.9033 144.51 93.9399C144.071 93.9045 143.649 93.756 143.284 93.5089C142.92 93.2618 142.625 92.9245 142.43 92.5299C142.04 91.9899 141.78 91.6299 141.21 91.6299C140.64 91.6299 140.38 91.9899 139.99 92.5299C139.795 92.9245 139.5 93.2618 139.136 93.5089C138.771 93.756 138.349 93.9045 137.91 93.9399C137.471 93.9045 137.049 93.756 136.684 93.5089C136.32 93.2618 136.025 92.9245 135.83 92.5299C135.44 91.9899 135.18 91.6299 134.61 91.6299C134.04 91.6299 133.78 91.9899 133.39 92.5299C133.197 92.9185 132.909 93.2518 132.552 93.4984C132.195 93.745 131.782 93.897 131.35 93.9399C130.91 93.9033 130.487 93.7544 130.121 93.5076C129.755 93.2607 129.459 92.9241 129.26 92.5299C128.87 91.9899 128.62 91.6299 128.05 91.6299C127.48 91.6299 127.21 91.9899 126.82 92.5299C126.626 92.9382 126.324 93.2855 125.947 93.5342C125.57 93.7828 125.132 93.9231 124.68 93.9399C124.242 93.8961 123.822 93.7443 123.457 93.4982C123.093 93.2522 122.795 92.9194 122.59 92.5299C122.2 91.9899 121.94 91.6299 121.37 91.6299C120.8 91.6299 120.53 91.9899 120.14 92.5299C119.945 92.9245 119.65 93.2618 119.286 93.5089C118.921 93.756 118.499 93.9045 118.06 93.9399C117.621 93.9045 117.199 93.756 116.834 93.5089C116.47 93.2618 116.175 92.9245 115.98 92.5299C115.59 91.9899 115.33 91.6299 114.76 91.6299C114.19 91.6299 113.93 91.9899 113.54 92.5299C113.344 92.9245 113.05 93.2618 112.686 93.5089C112.321 93.756 111.899 93.9045 111.46 93.9399C111.012 93.9027 110.582 93.7494 110.212 93.4951C109.842 93.2408 109.545 92.8943 109.35 92.4899C108.96 91.9499 108.71 91.5899 108.14 91.5899C107.57 91.5899 107.31 91.9499 106.92 92.4899C106.731 92.8887 106.442 93.2318 106.081 93.4858C105.72 93.7399 105.299 93.8963 104.86 93.9399C104.42 93.9033 103.997 93.7544 103.631 93.5076C103.265 93.2607 102.969 92.9241 102.77 92.5299C102.38 91.9899 102.13 91.6299 101.56 91.6299C100.99 91.6299 100.72 91.9899 100.33 92.5299C100.139 92.9324 99.8438 93.2759 99.4742 93.5241C99.1045 93.7723 98.6746 93.916 98.23 93.9399V92.2599C98.86 92.2599 99.07 91.8999 99.46 91.3599C99.6573 90.9639 99.9532 90.6252 100.319 90.3765C100.685 90.1279 101.109 89.9775 101.55 89.9399C101.99 89.9765 102.413 90.1254 102.779 90.3722C103.145 90.6191 103.441 90.9557 103.64 91.3499C104.03 91.8899 104.28 92.2499 104.86 92.2499C105.44 92.2499 105.68 91.8899 106.07 91.3499C106.269 90.9557 106.565 90.6191 106.931 90.3722C107.297 90.1254 107.72 89.9765 108.16 89.9399C108.599 89.9763 109.02 90.1251 109.385 90.3721C109.749 90.6191 110.044 90.9559 110.24 91.3499C110.63 91.8899 110.89 92.2499 111.46 92.2499C112.03 92.2499 112.28 91.8899 112.67 91.3499C112.869 90.9557 113.165 90.6191 113.531 90.3722C113.897 90.1254 114.32 89.9765 114.76 89.9399C115.199 89.9763 115.62 90.1251 115.985 90.3721C116.349 90.6191 116.644 90.9559 116.84 91.3499C117.23 91.8899 117.49 92.2499 118.06 92.2499C118.63 92.2499 118.89 91.8899 119.28 91.3499C119.475 90.9567 119.767 90.6203 120.13 90.3733C120.493 90.1262 120.913 89.977 121.35 89.9399C121.789 89.9709 122.212 90.1141 122.58 90.3557C122.948 90.5974 123.247 90.9294 123.45 91.3199C123.84 91.8599 124.06 92.2199 124.68 92.2199C125.3 92.2199 125.52 91.8599 125.91 91.3199C126.112 90.9313 126.411 90.6007 126.776 90.3593C127.142 90.1179 127.563 89.9735 128 89.9399C128.44 89.9765 128.863 90.1254 129.229 90.3722C129.595 90.6191 129.891 90.9557 130.09 91.3499C130.48 91.8899 130.73 92.2499 131.31 92.2499C131.89 92.2499 132.13 91.8899 132.52 91.3499C132.719 90.9557 133.015 90.6191 133.381 90.3722C133.747 90.1254 134.17 89.9765 134.61 89.9399C135.049 89.9763 135.471 90.1251 135.835 90.3721C136.199 90.6191 136.494 90.9559 136.69 91.3499C137.08 91.8899 137.34 92.2499 137.91 92.2499C138.48 92.2499 138.73 91.8899 139.12 91.3499C139.319 90.9557 139.615 90.6191 139.981 90.3722C140.347 90.1254 140.77 89.9765 141.21 89.9399C141.649 89.9753 142.071 90.1238 142.436 90.3709C142.8 90.618 143.095 90.9553 143.29 91.3499C143.68 91.8899 143.94 92.2499 144.51 92.2499C145.08 92.2499 145.34 91.8899 145.73 91.3499C145.925 90.9553 146.22 90.618 146.584 90.3709C146.949 90.1238 147.371 89.9753 147.81 89.9399C148.251 89.9767 148.676 90.1256 149.043 90.3723C149.411 90.6191 149.709 90.9556 149.91 91.3499C150.29 91.8599 150.51 92.2199 151.13 92.2199Z" fill="url(#paint58_linear)"/>
<path opacity="0.59" d="M157.97 96.1301V97.8101C157.531 97.7661 157.109 97.6144 156.743 97.3684C156.377 97.1225 156.077 96.7898 155.87 96.4001C155.48 95.8601 155.22 95.5001 154.65 95.5001C154.08 95.5001 153.82 95.8601 153.43 96.4001C153.232 96.7929 152.937 97.1287 152.573 97.3755C152.209 97.6222 151.788 97.7719 151.35 97.8101C150.91 97.7744 150.486 97.626 150.12 97.379C149.754 97.132 149.458 96.7949 149.26 96.4001C148.87 95.8601 148.62 95.5001 148.04 95.5001C147.46 95.5001 147.22 95.8601 146.83 96.4001C146.631 96.7943 146.335 97.1309 145.969 97.3778C145.603 97.6246 145.18 97.7735 144.74 97.8101C144.301 97.7737 143.879 97.6249 143.515 97.3779C143.151 97.1309 142.856 96.7941 142.66 96.4001C142.27 95.8601 142.01 95.5001 141.44 95.5001C140.87 95.5001 140.61 95.8601 140.23 96.4001C140.031 96.7943 139.735 97.1309 139.369 97.3778C139.003 97.6246 138.58 97.7735 138.14 97.8101C137.701 97.7747 137.279 97.6262 136.914 97.3791C136.55 97.132 136.255 96.7947 136.06 96.4001C135.67 95.8601 135.41 95.5001 134.84 95.5001C134.27 95.5001 134 95.8601 133.61 96.4001C133.423 96.8031 133.129 97.1475 132.761 97.396C132.393 97.6444 131.964 97.7876 131.52 97.8101C131.081 97.7661 130.659 97.6144 130.293 97.3684C129.927 97.1225 129.627 96.7898 129.42 96.4001C129.03 95.8601 128.77 95.5001 128.2 95.5001C127.63 95.5001 127.37 95.8601 126.98 96.4001C126.781 96.7943 126.485 97.1309 126.119 97.3778C125.753 97.6246 125.33 97.7735 124.89 97.8101C124.451 97.7737 124.029 97.6249 123.665 97.3779C123.301 97.1309 123.006 96.7941 122.81 96.4001C122.42 95.8601 122.16 95.5001 121.59 95.5001C121.02 95.5001 120.77 95.8601 120.38 96.4001C120.181 96.7943 119.885 97.1309 119.519 97.3778C119.153 97.6246 118.73 97.7735 118.29 97.8101C117.851 97.7747 117.429 97.6262 117.064 97.3791C116.7 97.132 116.405 96.7947 116.21 96.4001C115.82 95.8601 115.56 95.5001 114.99 95.5001C114.42 95.5001 114.16 95.8601 113.77 96.4001C113.574 96.7947 113.28 97.132 112.916 97.3791C112.551 97.6262 112.129 97.7747 111.69 97.8101C111.251 97.7747 110.829 97.6262 110.464 97.3791C110.1 97.132 109.805 96.7947 109.61 96.4001C109.22 95.8601 108.96 95.5001 108.39 95.5001C107.82 95.5001 107.55 95.8601 107.16 96.4001C106.97 96.8012 106.676 97.1437 106.308 97.3918C105.941 97.64 105.513 97.7844 105.07 97.8101V96.1301C105.7 96.1301 105.91 95.7701 106.3 95.2301C106.494 94.8402 106.783 94.506 107.142 94.2593C107.501 94.0126 107.916 93.8614 108.35 93.8201C108.79 93.8558 109.214 94.0042 109.58 94.2512C109.946 94.4982 110.242 94.8353 110.44 95.2301C110.83 95.7701 111.09 96.1301 111.66 96.1301C112.23 96.1301 112.49 95.7701 112.88 95.2301C113.075 94.8355 113.37 94.4982 113.734 94.2511C114.099 94.004 114.521 93.8555 114.96 93.8201C115.399 93.8555 115.821 94.004 116.186 94.2511C116.55 94.4982 116.844 94.8355 117.04 95.2301C117.43 95.7701 117.69 96.1301 118.26 96.1301C118.83 96.1301 119.09 95.7701 119.48 95.2301C119.675 94.8355 119.97 94.4982 120.334 94.2511C120.699 94.004 121.121 93.8555 121.56 93.8201C122 93.8567 122.423 94.0056 122.789 94.2524C123.155 94.4993 123.451 94.8359 123.65 95.2301C124.03 95.7701 124.29 96.1301 124.86 96.1301C125.43 96.1301 125.69 95.7701 126.08 95.2301C126.278 94.8373 126.573 94.5015 126.937 94.2548C127.301 94.008 127.722 93.8584 128.16 93.8201C128.601 93.8569 129.025 94.0058 129.393 94.2525C129.76 94.4993 130.059 94.8358 130.26 95.2301C130.65 95.7701 130.86 96.1301 131.49 96.1301C132.12 96.1301 132.33 95.7701 132.72 95.2301C132.916 94.8361 133.211 94.4993 133.575 94.2523C133.939 94.0054 134.361 93.8565 134.8 93.8201C135.241 93.8539 135.665 94.0016 136.031 94.2487C136.398 94.4959 136.694 94.8341 136.89 95.2301C137.28 95.7701 137.54 96.1301 138.11 96.1301C138.68 96.1301 138.94 95.7701 139.33 95.2301C139.525 94.8355 139.82 94.4982 140.184 94.2511C140.549 94.004 140.971 93.8555 141.41 93.8201C141.849 93.8555 142.271 94.004 142.636 94.2511C143 94.4982 143.295 94.8355 143.49 95.2301C143.88 95.7701 144.14 96.1301 144.71 96.1301C145.28 96.1301 145.54 95.7701 145.93 95.2301C146.126 94.8361 146.421 94.4993 146.785 94.2523C147.149 94.0054 147.571 93.8565 148.01 93.8201C148.45 93.8567 148.873 94.0056 149.239 94.2524C149.605 94.4993 149.901 94.8359 150.1 95.2301C150.49 95.7701 150.74 96.1301 151.32 96.1301C151.9 96.1301 152.14 95.7701 152.53 95.2301C152.728 94.8373 153.023 94.5015 153.387 94.2548C153.751 94.008 154.172 93.8584 154.61 93.8201C155.052 93.8551 155.477 94.0031 155.845 94.2501C156.212 94.4971 156.51 94.8346 156.71 95.2301C157.13 95.7701 157.35 96.1301 157.97 96.1301Z" fill="url(#paint59_linear)"/>
<path opacity="0.59" d="M163.48 99.11V100.83H163.02C162.9 100.677 162.79 100.527 162.69 100.38C162.3 99.85 162.04 99.49 161.47 99.49C161.377 99.4796 161.283 99.4796 161.19 99.49C160.8 99.59 160.57 99.91 160.25 100.35C160.15 100.497 160.04 100.647 159.92 100.8H156.4C156.28 100.647 156.17 100.497 156.07 100.35C155.68 99.81 155.42 99.45 154.85 99.45C154.28 99.45 154.03 99.81 153.64 100.35L153.3 100.8H149.8C149.68 100.647 149.57 100.497 149.47 100.35C149.08 99.81 148.82 99.45 148.25 99.45C147.68 99.45 147.42 99.81 147.03 100.35C146.93 100.5 146.83 100.65 146.71 100.8H143.2C143.08 100.647 142.97 100.497 142.87 100.35C142.48 99.81 142.22 99.45 141.65 99.45C141.08 99.45 140.81 99.81 140.42 100.35C140.32 100.5 140.22 100.65 140.1 100.8H136.57L136.23 100.35C135.84 99.81 135.58 99.45 135.01 99.45C134.44 99.45 134.18 99.81 133.79 100.35C133.69 100.497 133.58 100.647 133.46 100.8H129.95C129.83 100.647 129.72 100.497 129.62 100.35C129.23 99.81 128.98 99.45 128.4 99.45C127.82 99.45 127.58 99.81 127.19 100.35C127.08 100.5 126.98 100.65 126.85 100.8H123.35C123.23 100.647 123.12 100.497 123.02 100.35C122.63 99.81 122.37 99.45 121.8 99.45C121.23 99.45 120.97 99.81 120.59 100.35L120.25 100.8H116.74C116.62 100.65 116.52 100.5 116.42 100.35C116.03 99.81 115.77 99.45 115.2 99.45C114.63 99.45 114.36 99.81 113.97 100.35L113.65 100.8H111.88V100.09C112.51 100.09 112.72 99.73 113.11 99.18C113.309 98.789 113.604 98.4553 113.968 98.2103C114.332 97.9654 114.753 97.8173 115.19 97.78C115.629 97.8137 116.053 97.9603 116.419 98.2056C116.785 98.4508 117.081 98.7865 117.28 99.18C117.67 99.73 117.93 100.09 118.5 100.09C119.07 100.09 119.33 99.73 119.71 99.18C119.911 98.7883 120.208 98.4542 120.574 98.2092C120.939 97.9643 121.361 97.8165 121.8 97.78C122.238 97.8154 122.659 97.9627 123.023 98.2079C123.387 98.4531 123.682 98.7879 123.88 99.18C124.27 99.73 124.53 100.09 125.1 100.09C125.67 100.09 125.93 99.73 126.32 99.18C126.518 98.7879 126.813 98.4531 127.177 98.2079C127.541 97.9627 127.962 97.8154 128.4 97.78C128.839 97.8165 129.261 97.9643 129.626 98.2092C129.992 98.4542 130.289 98.7883 130.49 99.18C130.88 99.73 131.13 100.09 131.7 100.09C132.27 100.09 132.53 99.73 132.92 99.18C133.119 98.789 133.415 98.4553 133.779 98.2103C134.142 97.9654 134.563 97.8173 135 97.78C135.44 97.8167 135.863 97.9644 136.23 98.2093C136.598 98.4541 136.897 98.7881 137.1 99.18C137.49 99.73 137.7 100.09 138.33 100.09C138.96 100.09 139.17 99.73 139.56 99.18C139.759 98.789 140.055 98.4553 140.419 98.2103C140.782 97.9654 141.203 97.8173 141.64 97.78C142.079 97.8156 142.501 97.963 142.867 98.208C143.233 98.4531 143.53 98.7877 143.73 99.18C144.12 99.73 144.38 100.09 144.95 100.09C145.52 100.09 145.78 99.73 146.17 99.18C146.368 98.7879 146.663 98.4531 147.027 98.2079C147.391 97.9627 147.812 97.8154 148.25 97.78C148.694 97.815 149.122 97.9653 149.49 98.2161C149.858 98.4669 150.155 98.8095 150.35 99.21C150.74 99.76 151 100.12 151.57 100.12C152.14 100.12 152.4 99.76 152.79 99.21C152.99 98.8196 153.286 98.4864 153.649 98.2415C154.013 97.9967 154.433 97.8482 154.87 97.81C155.309 97.8456 155.731 97.993 156.097 98.238C156.463 98.4831 156.76 98.8177 156.96 99.21C157.35 99.76 157.6 100.12 158.18 100.12C158.76 100.12 159 99.76 159.39 99.21C159.51 99.05 159.63 98.87 159.77 98.71C159.966 98.4375 160.222 98.2143 160.519 98.0581C160.816 97.9019 161.145 97.8169 161.48 97.81C161.895 97.8429 162.296 97.979 162.645 98.2061C162.994 98.4331 163.281 98.7438 163.48 99.11Z" fill="url(#paint60_linear)"/>
</g>
</g>
<defs>
<linearGradient id="paint0_linear" x1="83.9703" y1="0.078926" x2="83.9703" y2="102" gradientUnits="userSpaceOnUse">
<stop stop-color="#FF9894"/>
<stop offset="1" stop-color="#FE5252"/>
</linearGradient>
<linearGradient id="paint1_linear" x1="83.9902" y1="0" x2="83.9902" y2="101.931" gradientUnits="userSpaceOnUse">
<stop stop-color="#6FD74A"/>
<stop offset="1" stop-color="#24A240"/>
</linearGradient>
<linearGradient id="paint2_linear" x1="16.5098" y1="46.8601" x2="17.2198" y2="46.8601" gradientUnits="userSpaceOnUse">
<stop offset="0.15" stop-color="#9F3632"/>
<stop offset="0.48" stop-color="#C04342"/>
<stop offset="0.79" stop-color="#E25052"/>
</linearGradient>
<linearGradient id="paint3_linear" x1="-75.1135" y1="-5.4001" x2="-74.011" y2="-5.4001" gradientUnits="userSpaceOnUse">
<stop offset="0.15" stop-color="#9F3632"/>
<stop offset="0.48" stop-color="#C04342"/>
<stop offset="0.79" stop-color="#E25052"/>
</linearGradient>
<linearGradient id="paint4_linear" x1="-75.1135" y1="1.07594" x2="-74.011" y2="1.07594" gradientUnits="userSpaceOnUse">
<stop offset="0.15" stop-color="#9F3632"/>
<stop offset="0.48" stop-color="#C04342"/>
<stop offset="0.79" stop-color="#E25052"/>
</linearGradient>
<linearGradient id="paint5_linear" x1="-45.4448" y1="8.00643" x2="-44.9407" y2="8.00643" gradientUnits="userSpaceOnUse">
<stop offset="0.15" stop-color="#9F3632"/>
<stop offset="0.48" stop-color="#C04342"/>
<stop offset="0.79" stop-color="#E25052"/>
</linearGradient>
<linearGradient id="paint6_linear" x1="-81.785" y1="-24.8292" x2="-80.6825" y2="-24.8292" gradientUnits="userSpaceOnUse">
<stop offset="0.15" stop-color="#9F3632"/>
<stop offset="0.48" stop-color="#C04342"/>
<stop offset="0.79" stop-color="#E25052"/>
</linearGradient>
<linearGradient id="paint7_linear" x1="-81.785" y1="-18.3531" x2="-80.6825" y2="-18.3531" gradientUnits="userSpaceOnUse">
<stop offset="0.15" stop-color="#9F3632"/>
<stop offset="0.48" stop-color="#C04342"/>
<stop offset="0.79" stop-color="#E25052"/>
</linearGradient>
<linearGradient id="paint8_linear" x1="-81.785" y1="-10.1531" x2="-80.6825" y2="-10.1531" gradientUnits="userSpaceOnUse">
<stop offset="0.15" stop-color="#9F3632"/>
<stop offset="0.48" stop-color="#C04342"/>
<stop offset="0.79" stop-color="#E25052"/>
</linearGradient>
<linearGradient id="paint9_linear" x1="-81.785" y1="-5.4001" x2="-80.6825" y2="-5.4001" gradientUnits="userSpaceOnUse">
<stop offset="0.15" stop-color="#9F3632"/>
<stop offset="0.48" stop-color="#C04342"/>
<stop offset="0.79" stop-color="#E25052"/>
</linearGradient>
<linearGradient id="paint10_linear" x1="-81.785" y1="1.07594" x2="-80.6825" y2="1.07594" gradientUnits="userSpaceOnUse">
<stop offset="0.15" stop-color="#9F3632"/>
<stop offset="0.48" stop-color="#C04342"/>
<stop offset="0.79" stop-color="#E25052"/>
</linearGradient>
<linearGradient id="paint11_linear" x1="-81.785" y1="7.5522" x2="-80.6825" y2="7.5522" gradientUnits="userSpaceOnUse">
<stop offset="0.15" stop-color="#9F3632"/>
<stop offset="0.48" stop-color="#C04342"/>
<stop offset="0.79" stop-color="#E25052"/>
</linearGradient>
<linearGradient id="paint12_linear" x1="-81.785" y1="14.0287" x2="-80.6825" y2="14.0287" gradientUnits="userSpaceOnUse">
<stop offset="0.15" stop-color="#9F3632"/>
<stop offset="0.48" stop-color="#C04342"/>
<stop offset="0.79" stop-color="#E25052"/>
</linearGradient>
<linearGradient id="paint13_linear" x1="-82.0044" y1="18.474" x2="-80.8993" y2="18.474" gradientUnits="userSpaceOnUse">
<stop offset="0.15" stop-color="#9F3632"/>
<stop offset="0.48" stop-color="#C04342"/>
<stop offset="0.79" stop-color="#E25052"/>
</linearGradient>
<linearGradient id="paint14_linear" x1="-88.4386" y1="-31.3055" x2="-87.3361" y2="-31.3055" gradientUnits="userSpaceOnUse">
<stop offset="0.15" stop-color="#9F3632"/>
<stop offset="0.48" stop-color="#C04342"/>
<stop offset="0.79" stop-color="#E25052"/>
</linearGradient>
<linearGradient id="paint15_linear" x1="-88.4386" y1="-24.8292" x2="-87.3361" y2="-24.8292" gradientUnits="userSpaceOnUse">
<stop offset="0.15" stop-color="#9F3632"/>
<stop offset="0.48" stop-color="#C04342"/>
<stop offset="0.79" stop-color="#E25052"/>
</linearGradient>
<linearGradient id="paint16_linear" x1="-88.4386" y1="-18.3531" x2="-87.3361" y2="-18.3531" gradientUnits="userSpaceOnUse">
<stop offset="0.15" stop-color="#9F3632"/>
<stop offset="0.48" stop-color="#C04342"/>
<stop offset="0.79" stop-color="#E25052"/>
</linearGradient>
<linearGradient id="paint17_linear" x1="-88.4386" y1="-11.8467" x2="-87.3361" y2="-11.8467" gradientUnits="userSpaceOnUse">
<stop offset="0.15" stop-color="#9F3632"/>
<stop offset="0.48" stop-color="#C04342"/>
<stop offset="0.79" stop-color="#E25052"/>
</linearGradient>
<linearGradient id="paint18_linear" x1="-88.4386" y1="-5.4001" x2="-87.3361" y2="-5.4001" gradientUnits="userSpaceOnUse">
<stop offset="0.15" stop-color="#9F3632"/>
<stop offset="0.48" stop-color="#C04342"/>
<stop offset="0.79" stop-color="#E25052"/>
</linearGradient>
<linearGradient id="paint19_linear" x1="-88.4386" y1="1.07594" x2="-87.3361" y2="1.07594" gradientUnits="userSpaceOnUse">
<stop offset="0.15" stop-color="#9F3632"/>
<stop offset="0.48" stop-color="#C04342"/>
<stop offset="0.79" stop-color="#E25052"/>
</linearGradient>
<linearGradient id="paint20_linear" x1="-88.4386" y1="7.5522" x2="-87.3361" y2="7.5522" gradientUnits="userSpaceOnUse">
<stop offset="0.15" stop-color="#9F3632"/>
<stop offset="0.48" stop-color="#C04342"/>
<stop offset="0.79" stop-color="#E25052"/>
</linearGradient>
<linearGradient id="paint21_linear" x1="-88.4386" y1="14.0287" x2="-87.3361" y2="14.0287" gradientUnits="userSpaceOnUse">
<stop offset="0.15" stop-color="#9F3632"/>
<stop offset="0.48" stop-color="#C04342"/>
<stop offset="0.79" stop-color="#E25052"/>
</linearGradient>
<linearGradient id="paint22_linear" x1="-88.4386" y1="20.5046" x2="-87.3361" y2="20.5046" gradientUnits="userSpaceOnUse">
<stop offset="0.15" stop-color="#9F3632"/>
<stop offset="0.48" stop-color="#C04342"/>
<stop offset="0.79" stop-color="#E25052"/>
</linearGradient>
<linearGradient id="paint23_linear" x1="-88.4386" y1="26.9814" x2="-87.3361" y2="26.9814" gradientUnits="userSpaceOnUse">
<stop offset="0.15" stop-color="#9F3632"/>
<stop offset="0.48" stop-color="#C04342"/>
<stop offset="0.79" stop-color="#E25052"/>
</linearGradient>
<linearGradient id="paint24_linear" x1="-95.1011" y1="-37.782" x2="-93.9986" y2="-37.782" gradientUnits="userSpaceOnUse">
<stop offset="0.15" stop-color="#9F3632"/>
<stop offset="0.48" stop-color="#C04342"/>
<stop offset="0.79" stop-color="#E25052"/>
</linearGradient>
<linearGradient id="paint25_linear" x1="-95.1011" y1="-31.3055" x2="-93.9986" y2="-31.3055" gradientUnits="userSpaceOnUse">
<stop offset="0.15" stop-color="#9F3632"/>
<stop offset="0.48" stop-color="#C04342"/>
<stop offset="0.79" stop-color="#E25052"/>
</linearGradient>
<linearGradient id="paint26_linear" x1="-94.1205" y1="-24.8292" x2="-93.0285" y2="-24.8292" gradientUnits="userSpaceOnUse">
<stop offset="0.15" stop-color="#9F3632"/>
<stop offset="0.48" stop-color="#C04342"/>
<stop offset="0.79" stop-color="#E25052"/>
</linearGradient>
<linearGradient id="paint27_linear" x1="-95.1011" y1="-18.3531" x2="-93.9986" y2="-18.3531" gradientUnits="userSpaceOnUse">
<stop offset="0.15" stop-color="#9F3632"/>
<stop offset="0.48" stop-color="#C04342"/>
<stop offset="0.79" stop-color="#E25052"/>
</linearGradient>
<linearGradient id="paint28_linear" x1="-95.1011" y1="-11.8467" x2="-93.9986" y2="-11.8467" gradientUnits="userSpaceOnUse">
<stop offset="0.15" stop-color="#9F3632"/>
<stop offset="0.48" stop-color="#C04342"/>
<stop offset="0.79" stop-color="#E25052"/>
</linearGradient>
<linearGradient id="paint29_linear" x1="-95.1011" y1="-5.4001" x2="-93.9986" y2="-5.4001" gradientUnits="userSpaceOnUse">
<stop offset="0.15" stop-color="#9F3632"/>
<stop offset="0.48" stop-color="#C04342"/>
<stop offset="0.79" stop-color="#E25052"/>
</linearGradient>
<linearGradient id="paint30_linear" x1="-95.1011" y1="1.07594" x2="-93.9986" y2="1.07594" gradientUnits="userSpaceOnUse">
<stop offset="0.15" stop-color="#9F3632"/>
<stop offset="0.48" stop-color="#C04342"/>
<stop offset="0.79" stop-color="#E25052"/>
</linearGradient>
<linearGradient id="paint31_linear" x1="-95.1011" y1="7.5522" x2="-93.9986" y2="7.5522" gradientUnits="userSpaceOnUse">
<stop offset="0.15" stop-color="#9F3632"/>
<stop offset="0.48" stop-color="#C04342"/>
<stop offset="0.79" stop-color="#E25052"/>
</linearGradient>
<linearGradient id="paint32_linear" x1="-95.1011" y1="14.0287" x2="-93.9986" y2="14.0287" gradientUnits="userSpaceOnUse">
<stop offset="0.15" stop-color="#9F3632"/>
<stop offset="0.48" stop-color="#C04342"/>
<stop offset="0.79" stop-color="#E25052"/>
</linearGradient>
<linearGradient id="paint33_linear" x1="-95.1011" y1="20.5046" x2="-93.9986" y2="20.5046" gradientUnits="userSpaceOnUse">
<stop offset="0.15" stop-color="#9F3632"/>
<stop offset="0.48" stop-color="#C04342"/>
<stop offset="0.79" stop-color="#E25052"/>
</linearGradient>
<linearGradient id="paint34_linear" x1="-95.1011" y1="26.9814" x2="-93.9986" y2="26.9814" gradientUnits="userSpaceOnUse">
<stop offset="0.15" stop-color="#9F3632"/>
<stop offset="0.48" stop-color="#C04342"/>
<stop offset="0.79" stop-color="#E25052"/>
</linearGradient>
<linearGradient id="paint35_linear" x1="-95.1011" y1="33.4576" x2="-93.9986" y2="33.4576" gradientUnits="userSpaceOnUse">
<stop offset="0.15" stop-color="#9F3632"/>
<stop offset="0.48" stop-color="#C04342"/>
<stop offset="0.79" stop-color="#E25052"/>
</linearGradient>
<linearGradient id="paint36_linear" x1="-100.761" y1="-37.7753" x2="-99.6791" y2="-37.7753" gradientUnits="userSpaceOnUse">
<stop offset="0.15" stop-color="#9F3632"/>
<stop offset="0.48" stop-color="#C04342"/>
<stop offset="0.79" stop-color="#E25052"/>
</linearGradient>
<linearGradient id="paint37_linear" x1="-100.761" y1="-31.2992" x2="-99.6791" y2="-31.2992" gradientUnits="userSpaceOnUse">
<stop offset="0.15" stop-color="#9F3632"/>
<stop offset="0.48" stop-color="#C04342"/>
<stop offset="0.79" stop-color="#E25052"/>
</linearGradient>
<linearGradient id="paint38_linear" x1="-100.761" y1="-24.8232" x2="-99.6791" y2="-24.8232" gradientUnits="userSpaceOnUse">
<stop offset="0.15" stop-color="#9F3632"/>
<stop offset="0.48" stop-color="#C04342"/>
<stop offset="0.79" stop-color="#E25052"/>
</linearGradient>
<linearGradient id="paint39_linear" x1="-100.761" y1="-18.3474" x2="-99.6791" y2="-18.3474" gradientUnits="userSpaceOnUse">
<stop offset="0.15" stop-color="#9F3632"/>
<stop offset="0.48" stop-color="#C04342"/>
<stop offset="0.79" stop-color="#E25052"/>
</linearGradient>
<linearGradient id="paint40_linear" x1="-100.761" y1="14.0329" x2="-99.6791" y2="14.0329" gradientUnits="userSpaceOnUse">
<stop offset="0.15" stop-color="#9F3632"/>
<stop offset="0.48" stop-color="#C04342"/>
<stop offset="0.79" stop-color="#E25052"/>
</linearGradient>
<linearGradient id="paint41_linear" x1="-100.761" y1="20.5085" x2="-99.6791" y2="20.5085" gradientUnits="userSpaceOnUse">
<stop offset="0.15" stop-color="#9F3632"/>
<stop offset="0.48" stop-color="#C04342"/>
<stop offset="0.79" stop-color="#E25052"/>
</linearGradient>
<linearGradient id="paint42_linear" x1="-100.761" y1="26.985" x2="-99.6791" y2="26.985" gradientUnits="userSpaceOnUse">
<stop offset="0.15" stop-color="#9F3632"/>
<stop offset="0.48" stop-color="#C04342"/>
<stop offset="0.79" stop-color="#E25052"/>
</linearGradient>
<linearGradient id="paint43_linear" x1="-100.761" y1="33.4609" x2="-99.6791" y2="33.4609" gradientUnits="userSpaceOnUse">
<stop offset="0.15" stop-color="#9F3632"/>
<stop offset="0.48" stop-color="#C04342"/>
<stop offset="0.79" stop-color="#E25052"/>
</linearGradient>
<linearGradient id="paint44_linear" x1="-109.175" y1="-20.6204" x2="-108.065" y2="-20.6204" gradientUnits="userSpaceOnUse">
<stop offset="0.15" stop-color="#9F3632"/>
<stop offset="0.48" stop-color="#C04342"/>
<stop offset="0.79" stop-color="#E25052"/>
</linearGradient>
<linearGradient id="paint45_linear" x1="-108.456" y1="-37.782" x2="-107.353" y2="-37.782" gradientUnits="userSpaceOnUse">
<stop offset="0.15" stop-color="#9F3632"/>
<stop offset="0.48" stop-color="#C04342"/>
<stop offset="0.79" stop-color="#E25052"/>
</linearGradient>
<linearGradient id="paint46_linear" x1="-108.456" y1="-31.3055" x2="-107.353" y2="-31.3055" gradientUnits="userSpaceOnUse">
<stop offset="0.15" stop-color="#9F3632"/>
<stop offset="0.48" stop-color="#C04342"/>
<stop offset="0.79" stop-color="#E25052"/>
</linearGradient>
<linearGradient id="paint47_linear" x1="-108.456" y1="-24.8292" x2="-107.353" y2="-24.8292" gradientUnits="userSpaceOnUse">
<stop offset="0.15" stop-color="#9F3632"/>
<stop offset="0.48" stop-color="#C04342"/>
<stop offset="0.79" stop-color="#E25052"/>
</linearGradient>
<linearGradient id="paint48_linear" x1="-108.705" y1="18.4762" x2="-107.6" y2="18.4762" gradientUnits="userSpaceOnUse">
<stop offset="0.15" stop-color="#9F3632"/>
<stop offset="0.48" stop-color="#C04342"/>
<stop offset="0.79" stop-color="#E25052"/>
</linearGradient>
<linearGradient id="paint49_linear" x1="-108.456" y1="26.9814" x2="-107.353" y2="26.9814" gradientUnits="userSpaceOnUse">
<stop offset="0.15" stop-color="#9F3632"/>
<stop offset="0.48" stop-color="#C04342"/>
<stop offset="0.79" stop-color="#E25052"/>
</linearGradient>
<linearGradient id="paint50_linear" x1="-108.456" y1="33.4576" x2="-107.353" y2="33.4576" gradientUnits="userSpaceOnUse">
<stop offset="0.15" stop-color="#9F3632"/>
<stop offset="0.48" stop-color="#C04342"/>
<stop offset="0.79" stop-color="#E25052"/>
</linearGradient>
<linearGradient id="paint51_linear" x1="-104.049" y1="50.0547" x2="-102.99" y2="50.0547" gradientUnits="userSpaceOnUse">
<stop offset="0.15" stop-color="#9F3632"/>
<stop offset="0.48" stop-color="#C04342"/>
<stop offset="0.79" stop-color="#E25052"/>
</linearGradient>
<linearGradient id="paint52_linear" x1="136.11" y1="44.02" x2="136.11" y2="47.22" gradientUnits="userSpaceOnUse">
<stop stop-color="#FF4F5B"/>
<stop offset="1" stop-color="#F14241"/>
</linearGradient>
<linearGradient id="paint53_linear" x1="136.11" y1="37.02" x2="136.11" y2="40.23" gradientUnits="userSpaceOnUse">
<stop stop-color="#FF4F5B"/>
<stop offset="1" stop-color="#F14241"/>
</linearGradient>
<linearGradient id="paint54_linear" x1="139.615" y1="41" x2="139.615" y2="43.22" gradientUnits="userSpaceOnUse">
<stop stop-color="#FF4F5B"/>
<stop offset="1" stop-color="#F14241"/>
</linearGradient>
<linearGradient id="paint55_linear" x1="132.625" y1="41" x2="132.625" y2="43.22" gradientUnits="userSpaceOnUse">
<stop stop-color="#FF4F5B"/>
<stop offset="1" stop-color="#F14241"/>
</linearGradient>
<linearGradient id="paint56_linear" x1="156.47" y1="9.01" x2="120.01" y2="9.01" gradientUnits="userSpaceOnUse">
<stop stop-color="#FF8594"/>
<stop offset="1" stop-color="#FE4652"/>
</linearGradient>
<linearGradient id="paint57_linear" x1="92.02" y1="87.99" x2="144.92" y2="87.99" gradientUnits="userSpaceOnUse">
<stop stop-color="#E95456"/>
<stop offset="0.26" stop-color="#9F3632"/>
<stop offset="0.42" stop-color="#C04341"/>
<stop offset="0.51" stop-color="#D24A4A"/>
<stop offset="0.8" stop-color="#A63935"/>
<stop offset="1" stop-color="#E95256"/>
</linearGradient>
<linearGradient id="paint58_linear" x1="-1389.32" y1="-26.22" x2="1409.09" y2="-26.22" gradientUnits="userSpaceOnUse">
<stop stop-color="#E95456"/>
<stop offset="0.26" stop-color="#9F3632"/>
<stop offset="0.42" stop-color="#C04341"/>
<stop offset="0.51" stop-color="#D24A4A"/>
<stop offset="0.8" stop-color="#A63935"/>
<stop offset="1" stop-color="#E95256"/>
</linearGradient>
<linearGradient id="paint59_linear" x1="-1020.64" y1="-6.44873" x2="1777.77" y2="-6.44873" gradientUnits="userSpaceOnUse">
<stop stop-color="#E95456"/>
<stop offset="0.26" stop-color="#9F3632"/>
<stop offset="0.42" stop-color="#C04341"/>
<stop offset="0.51" stop-color="#D24A4A"/>
<stop offset="0.8" stop-color="#A63935"/>
<stop offset="1" stop-color="#E95256"/>
</linearGradient>
<linearGradient id="paint60_linear" x1="-634.772" y1="31.839" x2="2027.79" y2="31.839" gradientUnits="userSpaceOnUse">
<stop stop-color="#E95456"/>
<stop offset="0.26" stop-color="#9F3632"/>
<stop offset="0.42" stop-color="#C04341"/>
<stop offset="0.51" stop-color="#D24A4A"/>
<stop offset="0.8" stop-color="#A63935"/>
<stop offset="1" stop-color="#E95256"/>
</linearGradient>
</defs>
</svg>
