<svg width="248" height="106" viewBox="0 0 248 106" fill="none" xmlns="http://www.w3.org/2000/svg">
<rect width="248" height="106" rx="12" fill="url(#paint0_linear)"/>
<mask id="mask0" mask-type="alpha" maskUnits="userSpaceOnUse" x="0" y="0" width="248" height="106">
<rect width="248" height="106" rx="12" fill="url(#paint1_linear)"/>
</mask>
<g mask="url(#mask0)">
<path d="M34.1354 46.9798C34.2875 47.536 34.4058 48.0922 34.5241 48.6652C34.4234 48.6826 34.3206 48.6826 34.2199 48.6652C34.1031 48.6674 33.987 48.6465 33.8784 48.6033C33.7699 48.5604 33.671 48.4962 33.5875 48.4146C33.5042 48.333 33.438 48.2356 33.3927 48.1281C33.3475 48.0207 33.3242 47.9052 33.3242 47.7888C33.3278 47.5705 33.4129 47.3613 33.563 47.2024C33.7131 47.0435 33.9172 46.9461 34.1354 46.9292V46.9798Z" fill="url(#paint2_linear)"/>
<path d="M34.2199 52.3053C34.3345 52.3031 34.4484 52.3237 34.555 52.3658C34.6615 52.408 34.7585 52.471 34.8403 52.5511C34.9221 52.6311 34.9872 52.7265 35.0316 52.832C35.0759 52.9374 35.0987 53.0506 35.0987 53.1649C35.0987 53.3973 35.0061 53.6203 34.8413 53.7846C34.6765 53.949 34.453 54.0413 34.2199 54.0413C34.1031 54.0435 33.987 54.0225 33.8784 53.9795C33.7699 53.9365 33.671 53.8723 33.5875 53.7907C33.5042 53.709 33.438 53.6117 33.3927 53.5042C33.3475 53.3968 33.3242 53.2814 33.3242 53.1649C33.3264 53.0498 33.3514 52.9362 33.3976 52.8307C33.4437 52.7252 33.5103 52.6299 33.5936 52.5501C33.6767 52.4702 33.7748 52.4075 33.8823 52.3655C33.9897 52.3235 34.1045 52.3031 34.2199 52.3053Z" fill="url(#paint3_linear)"/>
<path d="M34.2199 57.682C34.3345 57.6799 34.4484 57.7004 34.555 57.7426C34.6615 57.7847 34.7585 57.8477 34.8403 57.9278C34.9221 58.0078 34.9872 58.1032 35.0316 58.2087C35.0759 58.3141 35.0987 58.4274 35.0987 58.5416C35.0987 58.774 35.0061 58.997 34.8413 59.1614C34.6765 59.3257 34.453 59.418 34.2199 59.418C34.1031 59.4202 33.987 59.3993 33.8784 59.3562C33.7699 59.3132 33.671 59.249 33.5875 59.1674C33.5042 59.0857 33.438 58.9884 33.3927 58.8809C33.3475 58.7735 33.3242 58.6581 33.3242 58.5416C33.3264 58.4265 33.3514 58.3129 33.3976 58.2074C33.4437 58.1019 33.5103 58.0067 33.5936 57.9268C33.6767 57.8469 33.7748 57.7842 33.8823 57.7422C33.9897 57.7003 34.1045 57.6799 34.2199 57.682Z" fill="url(#paint4_linear)"/>
<path d="M34.2199 63.0585C34.3206 63.0425 34.4234 63.0425 34.5241 63.0585C34.4058 63.6316 34.2875 64.1878 34.1354 64.744C33.9157 64.731 33.7094 64.6347 33.5585 64.475C33.4077 64.3152 33.3239 64.1038 33.3242 63.8844C33.3264 63.7693 33.3514 63.6557 33.3976 63.5502C33.4437 63.4448 33.5103 63.3494 33.5936 63.2695C33.6767 63.1897 33.7748 63.127 33.8823 63.085C33.9897 63.043 34.1045 63.0226 34.2199 63.0248V63.0585Z" fill="url(#paint5_linear)"/>
<path d="M28.6952 36.1759C28.8106 36.1737 28.9254 36.1941 29.0329 36.2361C29.1403 36.2782 29.2384 36.3409 29.3215 36.4207C29.4048 36.5006 29.4714 36.596 29.5175 36.7015C29.5638 36.8068 29.5887 36.9204 29.5909 37.0355C29.5909 37.152 29.5676 37.2674 29.5224 37.3748C29.4772 37.4823 29.4109 37.5797 29.3276 37.6613C29.2441 37.7429 29.1452 37.8071 29.0367 37.8501C28.9281 37.8932 28.812 37.9141 28.6952 37.9119C28.4622 37.9119 28.2386 37.8196 28.0738 37.6553C27.909 37.4909 27.8164 37.2679 27.8164 37.0355C27.8164 36.9212 27.8392 36.808 27.8835 36.7026C27.9279 36.5973 27.993 36.5017 28.0748 36.4217C28.1566 36.3416 28.2536 36.2788 28.3602 36.2364C28.4667 36.1943 28.5806 36.1737 28.6952 36.1759Z" fill="url(#paint6_linear)"/>
<path d="M28.6952 41.5522C28.8106 41.55 28.9254 41.5704 29.0329 41.6123C29.1403 41.6545 29.2384 41.7172 29.3215 41.7969C29.4048 41.8768 29.4714 41.9722 29.5175 42.0777C29.5638 42.1832 29.5887 42.2966 29.5909 42.4117C29.5909 42.5282 29.5676 42.6437 29.5224 42.751C29.4772 42.8585 29.4109 42.956 29.3276 43.0375C29.2441 43.1191 29.1452 43.1833 29.0367 43.2263C28.9281 43.2695 28.812 43.2904 28.6952 43.2882C28.4622 43.2882 28.2386 43.1958 28.0738 43.0315C27.909 42.8671 27.8164 42.6442 27.8164 42.4117C27.8164 42.2975 27.8392 42.1842 27.8835 42.0789C27.9279 41.9735 27.993 41.878 28.0748 41.7979C28.1566 41.7178 28.2536 41.655 28.3602 41.6127C28.4667 41.5705 28.5806 41.55 28.6952 41.5522Z" fill="url(#paint7_linear)"/>
<path d="M28.6952 46.9792C28.8106 46.977 28.9254 46.9974 29.0329 47.0394C29.1403 47.0813 29.2384 47.144 29.3215 47.2239C29.4048 47.3038 29.4714 47.3992 29.5175 47.5046C29.5638 47.6101 29.5887 47.7237 29.5909 47.8388C29.5779 48.0653 29.4772 48.2778 29.3102 48.4319C29.143 48.5859 28.9227 48.6694 28.6952 48.6646C28.5798 48.6646 28.4655 48.6421 28.3589 48.5979C28.2523 48.5539 28.1554 48.4894 28.0738 48.4079C27.9922 48.3265 27.9274 48.23 27.8833 48.1236C27.8391 48.0173 27.8164 47.9033 27.8164 47.7882C27.8294 47.5662 27.9283 47.3578 28.0922 47.2069C28.2561 47.0561 28.4723 46.9745 28.6952 46.9792Z" fill="url(#paint8_linear)"/>
<path d="M28.6952 52.3053C28.8106 52.3031 28.9254 52.3235 29.0329 52.3655C29.1403 52.4075 29.2384 52.4702 29.3215 52.5501C29.4048 52.6299 29.4714 52.7252 29.5175 52.8307C29.5638 52.9362 29.5887 53.0498 29.5909 53.1649C29.5909 53.2814 29.5676 53.3968 29.5224 53.5042C29.4772 53.6117 29.4109 53.709 29.3276 53.7907C29.2441 53.8723 29.1452 53.9365 29.0367 53.9795C28.9281 54.0225 28.812 54.0435 28.6952 54.0413C28.4622 54.0413 28.2386 53.949 28.0738 53.7846C27.909 53.6203 27.8164 53.3973 27.8164 53.1649C27.8164 53.0506 27.8392 52.9374 27.8835 52.832C27.9279 52.7265 27.993 52.6311 28.0748 52.5511C28.1566 52.471 28.2536 52.408 28.3602 52.3658C28.4667 52.3237 28.5806 52.3031 28.6952 52.3053Z" fill="url(#paint9_linear)"/>
<path d="M28.6952 57.682C28.8106 57.6799 28.9254 57.7003 29.0329 57.7422C29.1403 57.7842 29.2384 57.8469 29.3215 57.9268C29.4048 58.0067 29.4714 58.1019 29.5175 58.2074C29.5638 58.3129 29.5887 58.4265 29.5909 58.5416C29.5909 58.6581 29.5676 58.7735 29.5224 58.8809C29.4772 58.9884 29.4109 59.0857 29.3276 59.1674C29.2441 59.249 29.1452 59.3132 29.0367 59.3562C28.9281 59.3993 28.812 59.4202 28.6952 59.418C28.5798 59.418 28.4655 59.3953 28.3589 59.3513C28.2523 59.3073 28.1554 59.2428 28.0738 59.1614C27.9922 59.08 27.9274 58.9834 27.8833 58.877C27.8391 58.7707 27.8164 58.6567 27.8164 58.5416C27.8164 58.4274 27.8392 58.3141 27.8835 58.2087C27.9279 58.1032 27.993 58.0078 28.0748 57.9278C28.1566 57.8477 28.2536 57.7847 28.3602 57.7426C28.4667 57.7004 28.5806 57.6799 28.6952 57.682Z" fill="url(#paint10_linear)"/>
<path d="M28.6952 63.0588C28.8106 63.0566 28.9254 63.077 29.0329 63.1189C29.1403 63.1609 29.2384 63.2236 29.3215 63.3035C29.4048 63.3834 29.4714 63.4786 29.5175 63.5841C29.5638 63.6896 29.5887 63.8032 29.5909 63.9183C29.5909 64.0348 29.5676 64.1503 29.5224 64.2576C29.4772 64.3651 29.4109 64.4624 29.3276 64.5441C29.2441 64.6257 29.1452 64.6899 29.0367 64.7329C28.9281 64.7761 28.812 64.797 28.6952 64.7948C28.4622 64.7948 28.2386 64.7024 28.0738 64.5381C27.909 64.3737 27.8164 64.1508 27.8164 63.9183C27.8164 63.8041 27.8392 63.6908 27.8835 63.5855C27.9279 63.4799 27.993 63.3846 28.0748 63.3045C28.1566 63.2244 28.2536 63.1614 28.3602 63.1193C28.4667 63.0771 28.5806 63.0566 28.6952 63.0588Z" fill="url(#paint11_linear)"/>
<path d="M28.6952 68.4347C28.8106 68.4325 28.9254 68.4529 29.0329 68.4949C29.1403 68.5369 29.2384 68.5996 29.3215 68.6795C29.4048 68.7593 29.4714 68.8547 29.5175 68.9601C29.5638 69.0656 29.5887 69.1792 29.5909 69.2943C29.5909 69.4108 29.5676 69.5262 29.5224 69.6336C29.4772 69.7411 29.4109 69.8385 29.3276 69.9201C29.2441 70.0017 29.1452 70.0659 29.0367 70.1089C28.9281 70.152 28.812 70.1729 28.6952 70.1707C28.4622 70.1707 28.2386 70.0784 28.0738 69.914C27.909 69.7497 27.8164 69.5267 27.8164 69.2943C27.8164 69.18 27.8392 69.0668 27.8835 68.9614C27.9279 68.8559 27.993 68.7605 28.0748 68.6805C28.1566 68.6004 28.2536 68.5374 28.3602 68.4952C28.4667 68.4531 28.5806 68.4325 28.6952 68.4347Z" fill="url(#paint12_linear)"/>
<path d="M28.6952 73.8114C28.8106 73.8092 28.9254 73.8296 29.0329 73.8716C29.1403 73.9136 29.2384 73.9763 29.3215 74.0562C29.4048 74.1361 29.4714 74.2314 29.5175 74.3368C29.5638 74.4423 29.5887 74.5559 29.5909 74.671C29.6029 74.7944 29.5885 74.9189 29.5486 75.0364C29.5088 75.1539 29.4444 75.2616 29.3597 75.3523C29.275 75.4431 29.1721 75.5149 29.0575 75.5631C28.943 75.6113 28.8194 75.6348 28.6952 75.6317C28.4622 75.6317 28.2386 75.5394 28.0738 75.375C27.909 75.2107 27.8164 74.9877 27.8164 74.7553C27.8164 74.641 27.8392 74.5278 27.8835 74.4224C27.9279 74.3171 27.993 74.2215 28.0748 74.1414C28.1566 74.0614 28.2536 73.9984 28.3602 73.9562C28.4667 73.9141 28.5806 73.8935 28.6952 73.8957V73.8114Z" fill="url(#paint13_linear)"/>
<path d="M23.2186 30.799C23.3341 30.7968 23.4488 30.8172 23.5563 30.8592C23.6638 30.9011 23.7618 30.9638 23.8451 31.0437C23.9283 31.1236 23.9948 31.219 24.041 31.3245C24.0873 31.43 24.1121 31.5434 24.1143 31.6586C24.1143 31.775 24.091 31.8905 24.0459 31.9978C24.0006 32.1054 23.9343 32.2028 23.851 32.2844C23.7675 32.3659 23.6687 32.4302 23.5602 32.4731C23.4515 32.5163 23.3354 32.5372 23.2186 32.535C22.9856 32.535 22.762 32.4426 22.5972 32.2783C22.4325 32.114 22.3398 31.891 22.3398 31.6586C22.3398 31.5443 22.3627 31.431 22.4071 31.3257C22.4514 31.2203 22.5164 31.1248 22.5982 31.0447C22.68 30.9647 22.777 30.9018 22.8837 30.8595C22.9902 30.8174 23.1041 30.7968 23.2186 30.799Z" fill="url(#paint14_linear)"/>
<path d="M23.2186 36.1759C23.3341 36.1737 23.4488 36.1941 23.5563 36.2361C23.6638 36.2782 23.7618 36.3409 23.8451 36.4207C23.9283 36.5006 23.9948 36.596 24.041 36.7015C24.0873 36.8068 24.1121 36.9204 24.1143 37.0355C24.1143 37.152 24.091 37.2674 24.0459 37.3748C24.0006 37.4823 23.9343 37.5797 23.851 37.6613C23.7675 37.7429 23.6687 37.8071 23.5602 37.8501C23.4515 37.8932 23.3354 37.9141 23.2186 37.9119C22.9856 37.9119 22.762 37.8196 22.5972 37.6553C22.4325 37.4909 22.3398 37.2679 22.3398 37.0355C22.3398 36.9212 22.3627 36.808 22.4071 36.7026C22.4514 36.5973 22.5164 36.5017 22.5982 36.4217C22.68 36.3416 22.777 36.2788 22.8837 36.2364C22.9902 36.1943 23.1041 36.1737 23.2186 36.1759Z" fill="url(#paint15_linear)"/>
<path d="M23.2186 41.5522C23.3341 41.55 23.4488 41.5704 23.5563 41.6123C23.6638 41.6545 23.7618 41.7172 23.8451 41.7969C23.9283 41.8768 23.9948 41.9722 24.041 42.0777C24.0873 42.1832 24.1121 42.2966 24.1143 42.4117C24.1143 42.5282 24.091 42.6437 24.0459 42.751C24.0006 42.8585 23.9343 42.956 23.851 43.0375C23.7675 43.1191 23.6687 43.1833 23.5602 43.2263C23.4515 43.2695 23.3354 43.2904 23.2186 43.2882C22.9856 43.2882 22.762 43.1958 22.5972 43.0315C22.4325 42.8671 22.3398 42.6442 22.3398 42.4117C22.3398 42.2975 22.3627 42.1842 22.4071 42.0789C22.4514 41.9735 22.5164 41.878 22.5982 41.7979C22.68 41.7178 22.777 41.655 22.8837 41.6127C22.9902 41.5705 23.1041 41.55 23.2186 41.5522Z" fill="url(#paint16_linear)"/>
<path d="M23.2186 46.9792C23.3341 46.977 23.4488 46.9974 23.5563 47.0393C23.6638 47.0815 23.7618 47.1442 23.8451 47.2239C23.9283 47.3038 23.9948 47.3992 24.041 47.5047C24.0873 47.6102 24.1121 47.7236 24.1143 47.8387C24.1143 47.9552 24.091 48.0707 24.0459 48.178C24.0006 48.2855 23.9343 48.383 23.851 48.4645C23.7675 48.5461 23.6687 48.6103 23.5602 48.6533C23.4515 48.6965 23.3354 48.7174 23.2186 48.7152C22.9856 48.7152 22.762 48.6228 22.5972 48.4585C22.4325 48.2941 22.3398 48.0712 22.3398 47.8387C22.3398 47.7245 22.3627 47.6112 22.4071 47.5059C22.4514 47.4005 22.5164 47.305 22.5982 47.2249C22.68 47.1448 22.777 47.082 22.8837 47.0397C22.9902 46.9975 23.1041 46.977 23.2186 46.9792Z" fill="url(#paint17_linear)"/>
<path d="M23.2186 52.3053C23.3341 52.3031 23.4488 52.3235 23.5563 52.3655C23.6638 52.4075 23.7618 52.4702 23.8451 52.5501C23.9283 52.6299 23.9948 52.7252 24.041 52.8307C24.0873 52.9362 24.1121 53.0498 24.1143 53.1649C24.1143 53.2814 24.091 53.3968 24.0459 53.5042C24.0006 53.6117 23.9343 53.709 23.851 53.7907C23.7675 53.8723 23.6687 53.9365 23.5602 53.9795C23.4515 54.0225 23.3354 54.0435 23.2186 54.0413C22.9856 54.0413 22.762 53.949 22.5972 53.7846C22.4325 53.6203 22.3398 53.3973 22.3398 53.1649C22.3398 53.0506 22.3627 52.9374 22.4071 52.832C22.4514 52.7265 22.5164 52.6311 22.5982 52.5511C22.68 52.471 22.777 52.408 22.8837 52.3658C22.9902 52.3237 23.1041 52.3031 23.2186 52.3053Z" fill="url(#paint18_linear)"/>
<path d="M23.2186 57.682C23.3341 57.6799 23.4488 57.7003 23.5563 57.7422C23.6638 57.7842 23.7618 57.8469 23.8451 57.9268C23.9283 58.0067 23.9948 58.1019 24.041 58.2074C24.0873 58.3129 24.1121 58.4265 24.1143 58.5416C24.1143 58.6581 24.091 58.7735 24.0459 58.8809C24.0006 58.9884 23.9343 59.0857 23.851 59.1674C23.7675 59.249 23.6687 59.3132 23.5602 59.3562C23.4515 59.3993 23.3354 59.4202 23.2186 59.418C22.9856 59.418 22.762 59.3257 22.5972 59.1614C22.4325 58.997 22.3398 58.774 22.3398 58.5416C22.3398 58.4274 22.3627 58.3141 22.4071 58.2087C22.4514 58.1032 22.5164 58.0078 22.5982 57.9278C22.68 57.8477 22.777 57.7847 22.8837 57.7426C22.9902 57.7004 23.1041 57.6799 23.2186 57.682Z" fill="url(#paint19_linear)"/>
<path d="M23.2186 63.0588C23.3341 63.0566 23.4488 63.077 23.5563 63.1189C23.6638 63.1609 23.7618 63.2236 23.8451 63.3035C23.9283 63.3834 23.9948 63.4786 24.041 63.5841C24.0873 63.6896 24.1121 63.8032 24.1143 63.9183C24.1143 64.0348 24.091 64.1503 24.0459 64.2576C24.0006 64.3651 23.9343 64.4624 23.851 64.5441C23.7675 64.6257 23.6687 64.6899 23.5602 64.7329C23.4515 64.7761 23.3354 64.797 23.2186 64.7948C22.9856 64.7948 22.762 64.7024 22.5972 64.5381C22.4325 64.3737 22.3398 64.1508 22.3398 63.9183C22.3398 63.8041 22.3627 63.6908 22.4071 63.5855C22.4514 63.4799 22.5164 63.3846 22.5982 63.3045C22.68 63.2244 22.777 63.1614 22.8837 63.1193C22.9902 63.0771 23.1041 63.0566 23.2186 63.0588Z" fill="url(#paint20_linear)"/>
<path d="M23.2186 68.4347C23.3341 68.4325 23.4488 68.4529 23.5563 68.4949C23.6638 68.5369 23.7618 68.5996 23.8451 68.6795C23.9283 68.7593 23.9948 68.8547 24.041 68.9601C24.0873 69.0656 24.1121 69.1792 24.1143 69.2943C24.1143 69.4108 24.091 69.5262 24.0459 69.6336C24.0006 69.7411 23.9343 69.8385 23.851 69.9201C23.7675 70.0017 23.6687 70.0659 23.5602 70.1089C23.4515 70.152 23.3354 70.1729 23.2186 70.1707C22.9856 70.1707 22.762 70.0784 22.5972 69.914C22.4325 69.7497 22.3398 69.5267 22.3398 69.2943C22.3398 69.18 22.3627 69.0668 22.4071 68.9614C22.4514 68.8559 22.5164 68.7605 22.5982 68.6805C22.68 68.6004 22.777 68.5374 22.8837 68.4952C22.9902 68.4531 23.1041 68.4325 23.2186 68.4347Z" fill="url(#paint21_linear)"/>
<path d="M23.2186 73.8114C23.3341 73.8092 23.4488 73.8296 23.5563 73.8716C23.6638 73.9136 23.7618 73.9763 23.8451 74.0562C23.9283 74.1361 23.9948 74.2314 24.041 74.3368C24.0873 74.4423 24.1121 74.5559 24.1143 74.671C24.1143 74.7875 24.091 74.9029 24.0459 75.0103C24.0006 75.1178 23.9343 75.2152 23.851 75.2968C23.7675 75.3784 23.6687 75.4426 23.5602 75.4856C23.4515 75.5287 23.3354 75.5496 23.2186 75.5474C22.9856 75.5474 22.762 75.4551 22.5972 75.2908C22.4325 75.1264 22.3398 74.9034 22.3398 74.671C22.3398 74.5567 22.3627 74.4435 22.4071 74.3381C22.4514 74.2328 22.5164 74.1372 22.5982 74.0572C22.68 73.9771 22.777 73.9141 22.8837 73.8719C22.9902 73.8298 23.1041 73.8092 23.2186 73.8114Z" fill="url(#paint22_linear)"/>
<path d="M23.2186 79.1884C23.3341 79.1862 23.4488 79.2066 23.5563 79.2486C23.6638 79.2905 23.7618 79.3532 23.8451 79.4331C23.9283 79.513 23.9948 79.6084 24.041 79.7137C24.0873 79.8193 24.1121 79.9328 24.1143 80.048C24.1143 80.1644 24.091 80.2799 24.0459 80.3872C24.0006 80.4948 23.9343 80.5922 23.851 80.6738C23.7675 80.7553 23.6687 80.8196 23.5602 80.8625C23.4515 80.9057 23.3354 80.9266 23.2186 80.9244C22.9856 80.9244 22.762 80.832 22.5972 80.6677C22.4325 80.5034 22.3398 80.2804 22.3398 80.048C22.3398 79.9337 22.3627 79.8204 22.4071 79.7151C22.4514 79.6098 22.5164 79.5142 22.5982 79.4341C22.68 79.3541 22.777 79.291 22.8837 79.2489C22.9902 79.2068 23.1041 79.1862 23.2186 79.1884Z" fill="url(#paint23_linear)"/>
<path d="M17.7264 25.4223C17.8419 25.4201 17.9566 25.4405 18.0641 25.4824C18.1716 25.5244 18.2696 25.5871 18.3529 25.667C18.4361 25.7469 18.5027 25.8423 18.5488 25.9478C18.5951 26.0531 18.6199 26.1667 18.6221 26.2819C18.6221 26.3983 18.5988 26.5138 18.5537 26.6211C18.5084 26.7287 18.4422 26.8261 18.3588 26.9077C18.2754 26.9892 18.1765 27.0534 18.068 27.0964C17.9593 27.1396 17.8432 27.1605 17.7264 27.1583C17.4934 27.1583 17.2698 27.0659 17.105 26.9016C16.9403 26.7373 16.8477 26.5143 16.8477 26.2819C16.8477 26.1676 16.8705 26.0543 16.9149 25.949C16.9592 25.8436 17.0243 25.7481 17.1061 25.668C17.1878 25.588 17.2849 25.5249 17.3915 25.4828C17.498 25.4407 17.6119 25.4201 17.7264 25.4223Z" fill="url(#paint24_linear)"/>
<path d="M17.7264 30.799C17.8419 30.7968 17.9566 30.8172 18.0641 30.8592C18.1716 30.9011 18.2696 30.9638 18.3529 31.0437C18.4361 31.1236 18.5027 31.219 18.5488 31.3245C18.5951 31.43 18.6199 31.5434 18.6221 31.6586C18.6221 31.775 18.5988 31.8905 18.5537 31.9978C18.5084 32.1054 18.4422 32.2028 18.3588 32.2844C18.2754 32.3659 18.1765 32.4302 18.068 32.4731C17.9593 32.5163 17.8432 32.5372 17.7264 32.535C17.4934 32.535 17.2698 32.4426 17.105 32.2783C16.9403 32.114 16.8477 31.891 16.8477 31.6586C16.8477 31.5443 16.8705 31.431 16.9149 31.3257C16.9592 31.2203 17.0243 31.1248 17.1061 31.0447C17.1878 30.9647 17.2849 30.9018 17.3915 30.8595C17.498 30.8174 17.6119 30.7968 17.7264 30.799Z" fill="url(#paint25_linear)"/>
<path d="M17.7252 36.1759C17.8406 36.1737 17.9553 36.1941 18.0628 36.2361C18.1703 36.2782 18.2685 36.3409 18.3516 36.4207C18.4348 36.5006 18.5014 36.596 18.5475 36.7015C18.5938 36.8068 18.6187 36.9204 18.6209 37.0355C18.6209 37.152 18.5977 37.2674 18.5524 37.3748C18.5071 37.4823 18.4409 37.5797 18.3576 37.6613C18.2741 37.7429 18.1752 37.8071 18.0667 37.8501C17.9581 37.8932 17.842 37.9141 17.7252 37.9119C17.495 37.9076 17.2758 37.8132 17.1148 37.6494C16.9535 37.4855 16.8633 37.2651 16.8633 37.0355C16.8633 36.9212 16.8861 36.808 16.9305 36.7026C16.9748 36.5973 17.0399 36.5017 17.1217 36.4217C17.2035 36.3416 17.3005 36.2788 17.4071 36.2364C17.5136 36.1943 17.6275 36.1737 17.7421 36.1759H17.7252Z" fill="url(#paint26_linear)"/>
<path d="M17.7264 41.5522C17.8419 41.55 17.9566 41.5704 18.0641 41.6123C18.1716 41.6545 18.2696 41.7172 18.3529 41.7969C18.4361 41.8768 18.5027 41.9722 18.5488 42.0777C18.5951 42.1832 18.6199 42.2966 18.6221 42.4117C18.6221 42.5282 18.5988 42.6437 18.5537 42.751C18.5084 42.8585 18.4422 42.956 18.3588 43.0375C18.2754 43.1191 18.1765 43.1833 18.068 43.2263C17.9593 43.2695 17.8432 43.2904 17.7264 43.2882C17.4934 43.2882 17.2698 43.1958 17.105 43.0315C16.9403 42.8671 16.8477 42.6442 16.8477 42.4117C16.8477 42.2975 16.8705 42.1842 16.9149 42.0789C16.9592 41.9735 17.0243 41.878 17.1061 41.7979C17.1878 41.7178 17.2849 41.655 17.3915 41.6127C17.498 41.5705 17.6119 41.55 17.7264 41.5522Z" fill="url(#paint27_linear)"/>
<path d="M17.7264 46.9792C17.8419 46.977 17.9566 46.9974 18.0641 47.0393C18.1716 47.0815 18.2696 47.1442 18.3529 47.2239C18.4361 47.3038 18.5027 47.3992 18.5488 47.5047C18.5951 47.6102 18.6199 47.7236 18.6221 47.8387C18.6221 47.9552 18.5988 48.0707 18.5537 48.178C18.5084 48.2855 18.4422 48.383 18.3588 48.4645C18.2754 48.5461 18.1765 48.6103 18.068 48.6533C17.9593 48.6965 17.8432 48.7174 17.7264 48.7152C17.4934 48.7152 17.2698 48.6228 17.105 48.4585C16.9403 48.2941 16.8477 48.0712 16.8477 47.8387C16.8477 47.7245 16.8705 47.6112 16.9149 47.5059C16.9592 47.4005 17.0243 47.305 17.1061 47.2249C17.1878 47.1448 17.2849 47.082 17.3915 47.0397C17.498 46.9975 17.6119 46.977 17.7264 46.9792Z" fill="url(#paint28_linear)"/>
<path d="M17.7264 52.3053C17.8419 52.3031 17.9566 52.3235 18.0641 52.3655C18.1716 52.4075 18.2696 52.4702 18.3529 52.5501C18.4361 52.6299 18.5027 52.7252 18.5488 52.8307C18.5951 52.9362 18.6199 53.0498 18.6221 53.1649C18.6221 53.2814 18.5988 53.3968 18.5537 53.5042C18.5084 53.6117 18.4422 53.709 18.3588 53.7907C18.2754 53.8723 18.1765 53.9365 18.068 53.9795C17.9593 54.0225 17.8432 54.0435 17.7264 54.0413C17.4934 54.0413 17.2698 53.949 17.105 53.7846C16.9403 53.6203 16.8477 53.3973 16.8477 53.1649C16.8477 53.0506 16.8705 52.9374 16.9149 52.832C16.9592 52.7265 17.0243 52.6311 17.1061 52.5511C17.1878 52.471 17.2849 52.408 17.3915 52.3658C17.498 52.3237 17.6119 52.3031 17.7264 52.3053Z" fill="url(#paint29_linear)"/>
<path d="M17.7264 57.682C17.8419 57.6799 17.9566 57.7003 18.0641 57.7422C18.1716 57.7842 18.2696 57.8469 18.3529 57.9268C18.4361 58.0067 18.5027 58.1019 18.5488 58.2074C18.5951 58.3129 18.6199 58.4265 18.6221 58.5416C18.6221 58.6581 18.5988 58.7735 18.5537 58.8809C18.5084 58.9884 18.4422 59.0857 18.3588 59.1674C18.2754 59.249 18.1765 59.3132 18.068 59.3562C17.9593 59.3993 17.8432 59.4202 17.7264 59.418C17.4934 59.418 17.2698 59.3257 17.105 59.1614C16.9403 58.997 16.8477 58.774 16.8477 58.5416C16.8477 58.4274 16.8705 58.3141 16.9149 58.2087C16.9592 58.1032 17.0243 58.0078 17.1061 57.9278C17.1878 57.8477 17.2849 57.7847 17.3915 57.7426C17.498 57.7004 17.6119 57.6799 17.7264 57.682Z" fill="url(#paint30_linear)"/>
<path d="M17.7264 63.0588C17.8419 63.0566 17.9566 63.077 18.0641 63.1189C18.1716 63.1609 18.2696 63.2236 18.3529 63.3035C18.4361 63.3834 18.5027 63.4786 18.5488 63.5841C18.5951 63.6896 18.6199 63.8032 18.6221 63.9183C18.6221 64.0348 18.5988 64.1503 18.5537 64.2576C18.5084 64.3651 18.4422 64.4624 18.3588 64.5441C18.2754 64.6257 18.1765 64.6899 18.068 64.7329C17.9593 64.7761 17.8432 64.797 17.7264 64.7948C17.4934 64.7948 17.2698 64.7024 17.105 64.5381C16.9403 64.3737 16.8477 64.1508 16.8477 63.9183C16.8477 63.8041 16.8705 63.6908 16.9149 63.5855C16.9592 63.4799 17.0243 63.3846 17.1061 63.3045C17.1878 63.2244 17.2849 63.1614 17.3915 63.1193C17.498 63.0771 17.6119 63.0566 17.7264 63.0588Z" fill="url(#paint31_linear)"/>
<path d="M17.7264 68.4347C17.8419 68.4325 17.9566 68.4529 18.0641 68.4949C18.1716 68.5369 18.2696 68.5996 18.3529 68.6795C18.4361 68.7593 18.5027 68.8547 18.5488 68.9601C18.5951 69.0656 18.6199 69.1792 18.6221 69.2943C18.6221 69.4108 18.5988 69.5262 18.5537 69.6336C18.5084 69.7411 18.4422 69.8385 18.3588 69.9201C18.2754 70.0017 18.1765 70.0659 18.068 70.1089C17.9593 70.152 17.8432 70.1729 17.7264 70.1707C17.4934 70.1707 17.2698 70.0784 17.105 69.914C16.9403 69.7497 16.8477 69.5267 16.8477 69.2943C16.8477 69.18 16.8705 69.0668 16.9149 68.9614C16.9592 68.8559 17.0243 68.7605 17.1061 68.6805C17.1878 68.6004 17.2849 68.5374 17.3915 68.4952C17.498 68.4531 17.6119 68.4325 17.7264 68.4347Z" fill="url(#paint32_linear)"/>
<path d="M17.7264 73.8114C17.8419 73.8092 17.9566 73.8296 18.0641 73.8716C18.1716 73.9136 18.2696 73.9763 18.3529 74.0562C18.4361 74.1361 18.5027 74.2314 18.5488 74.3368C18.5951 74.4423 18.6199 74.5559 18.6221 74.671C18.6221 74.7875 18.5988 74.9029 18.5537 75.0103C18.5084 75.1178 18.4422 75.2152 18.3588 75.2968C18.2754 75.3784 18.1765 75.4426 18.068 75.4856C17.9593 75.5287 17.8432 75.5496 17.7264 75.5474C17.4934 75.5474 17.2698 75.4551 17.105 75.2908C16.9403 75.1264 16.8477 74.9034 16.8477 74.671C16.8477 74.5567 16.8705 74.4435 16.9149 74.3381C16.9592 74.2328 17.0243 74.1372 17.1061 74.0572C17.1878 73.9771 17.2849 73.9141 17.3915 73.8719C17.498 73.8298 17.6119 73.8092 17.7264 73.8114Z" fill="url(#paint33_linear)"/>
<path d="M17.7264 79.1884C17.8419 79.1862 17.9566 79.2066 18.0641 79.2486C18.1716 79.2905 18.2696 79.3532 18.3529 79.4331C18.4361 79.513 18.5027 79.6084 18.5488 79.7137C18.5951 79.8193 18.6199 79.9328 18.6221 80.048C18.6221 80.1644 18.5988 80.2799 18.5537 80.3872C18.5084 80.4948 18.4422 80.5922 18.3588 80.6738C18.2754 80.7553 18.1765 80.8196 18.068 80.8625C17.9593 80.9057 17.8432 80.9266 17.7264 80.9244C17.4934 80.9244 17.2698 80.832 17.105 80.6677C16.9403 80.5034 16.8477 80.2804 16.8477 80.048C16.8477 79.9337 16.8705 79.8204 16.9149 79.7151C16.9592 79.6098 17.0243 79.5142 17.1061 79.4341C17.1878 79.3541 17.2849 79.291 17.3915 79.2489C17.498 79.2068 17.6119 79.1862 17.7264 79.1884Z" fill="url(#paint34_linear)"/>
<path d="M17.7264 84.5649C17.8419 84.5627 17.9566 84.5831 18.0641 84.625C18.1716 84.667 18.2696 84.7297 18.3529 84.8096C18.4361 84.8895 18.5027 84.9849 18.5488 85.0904C18.5951 85.1957 18.6199 85.3093 18.6221 85.4244C18.6221 85.5409 18.5988 85.6563 18.5537 85.7637C18.5084 85.8712 18.4422 85.9687 18.3588 86.0502C18.2754 86.1318 18.1765 86.196 18.068 86.239C17.9593 86.2822 17.8432 86.3031 17.7264 86.3009C17.4934 86.3009 17.2698 86.2085 17.105 86.0442C16.9403 85.8798 16.8477 85.6569 16.8477 85.4244C16.8477 85.3102 16.8705 85.1969 16.9149 85.0916C16.9592 84.9862 17.0243 84.8907 17.1061 84.8106C17.1878 84.7305 17.2849 84.6675 17.3915 84.6254C17.498 84.5832 17.6119 84.5627 17.7264 84.5649Z" fill="url(#paint35_linear)"/>
<path d="M12.2323 25.4223C12.3469 25.4201 12.4608 25.4406 12.5673 25.4828C12.6739 25.5249 12.7709 25.588 12.8527 25.668C12.9345 25.7481 12.9995 25.8436 13.0439 25.949C13.0883 26.0543 13.1111 26.1676 13.1111 26.2819C13.1111 26.5143 13.0185 26.7373 12.8537 26.9016C12.6889 27.0659 12.4654 27.1583 12.2323 27.1583C11.9992 27.1583 11.7757 27.0659 11.6109 26.9016C11.4461 26.7373 11.3535 26.5143 11.3535 26.2819C11.3535 26.1676 11.3763 26.0543 11.4207 25.949C11.4651 25.8436 11.5301 25.7481 11.6119 25.668C11.6937 25.588 11.7908 25.5249 11.8973 25.4828C12.0038 25.4406 12.1177 25.4201 12.2323 25.4223Z" fill="url(#paint36_linear)"/>
<path d="M12.2323 30.799C12.3469 30.7968 12.4608 30.8174 12.5673 30.8595C12.6739 30.9018 12.7709 30.9647 12.8527 31.0447C12.9345 31.1248 12.9995 31.2203 13.0439 31.3257C13.0883 31.431 13.1111 31.5443 13.1111 31.6586C13.1111 31.891 13.0185 32.114 12.8537 32.2783C12.6889 32.4426 12.4654 32.535 12.2323 32.535C11.9992 32.535 11.7757 32.4426 11.6109 32.2783C11.4461 32.114 11.3535 31.891 11.3535 31.6586C11.3535 31.5443 11.3763 31.431 11.4207 31.3257C11.4651 31.2203 11.5301 31.1248 11.6119 31.0447C11.6937 30.9647 11.7908 30.9018 11.8973 30.8595C12.0038 30.8174 12.1177 30.7968 12.2323 30.799Z" fill="url(#paint37_linear)"/>
<path d="M12.2323 36.1759C12.3469 36.1737 12.4608 36.1943 12.5673 36.2364C12.6739 36.2788 12.7709 36.3416 12.8527 36.4217C12.9345 36.5017 12.9995 36.5973 13.0439 36.7026C13.0883 36.808 13.1111 36.9212 13.1111 37.0355C13.1111 37.2679 13.0185 37.4909 12.8537 37.6553C12.6889 37.8196 12.4654 37.9119 12.2323 37.9119C11.9992 37.9119 11.7757 37.8196 11.6109 37.6553C11.4461 37.4909 11.3535 37.2679 11.3535 37.0355C11.3535 36.9212 11.3763 36.808 11.4207 36.7026C11.4651 36.5973 11.5301 36.5017 11.6119 36.4217C11.6937 36.3416 11.7908 36.2788 11.8973 36.2364C12.0038 36.1943 12.1177 36.1737 12.2323 36.1759Z" fill="url(#paint38_linear)"/>
<path d="M12.2323 41.5522C12.3469 41.55 12.4608 41.5705 12.5673 41.6127C12.6739 41.655 12.7709 41.7178 12.8527 41.7979C12.9345 41.878 12.9995 41.9735 13.0439 42.0789C13.0883 42.1842 13.1111 42.2975 13.1111 42.4117C13.1111 42.6442 13.0185 42.8671 12.8537 43.0315C12.6889 43.1958 12.4654 43.2882 12.2323 43.2882C11.9992 43.2882 11.7757 43.1958 11.6109 43.0315C11.4461 42.8671 11.3535 42.6442 11.3535 42.4117C11.3535 42.2975 11.3763 42.1842 11.4207 42.0789C11.4651 41.9735 11.5301 41.878 11.6119 41.7979C11.6937 41.7178 11.7908 41.655 11.8973 41.6127C12.0038 41.5705 12.1177 41.55 12.2323 41.5522Z" fill="url(#paint39_linear)"/>
<path d="M12.2323 68.4347C12.3469 68.4325 12.4608 68.4531 12.5673 68.4952C12.6739 68.5374 12.7709 68.6004 12.8527 68.6805C12.9345 68.7605 12.9995 68.8559 13.0439 68.9614C13.0883 69.0668 13.1111 69.18 13.1111 69.2943C13.1111 69.5267 13.0185 69.7497 12.8537 69.914C12.6889 70.0784 12.4654 70.1707 12.2323 70.1707C11.9992 70.1707 11.7757 70.0784 11.6109 69.914C11.4461 69.7497 11.3535 69.5267 11.3535 69.2943C11.3535 69.18 11.3763 69.0668 11.4207 68.9614C11.4651 68.8559 11.5301 68.7605 11.6119 68.6805C11.6937 68.6004 11.7908 68.5374 11.8973 68.4952C12.0038 68.4531 12.1177 68.4325 12.2323 68.4347Z" fill="url(#paint40_linear)"/>
<path d="M12.2323 73.8114C12.3469 73.8092 12.4608 73.8298 12.5673 73.8719C12.6739 73.9141 12.7709 73.9771 12.8527 74.0572C12.9345 74.1372 12.9995 74.2328 13.0439 74.3381C13.0883 74.4435 13.1111 74.5567 13.1111 74.671C13.1111 74.9034 13.0185 75.1264 12.8537 75.2908C12.6889 75.4551 12.4654 75.5474 12.2323 75.5474C11.9992 75.5474 11.7757 75.4551 11.6109 75.2908C11.4461 75.1264 11.3535 74.9034 11.3535 74.671C11.3535 74.5567 11.3763 74.4435 11.4207 74.3381C11.4651 74.2328 11.5301 74.1372 11.6119 74.0572C11.6937 73.9771 11.7908 73.9141 11.8973 73.8719C12.0038 73.8298 12.1177 73.8092 12.2323 73.8114Z" fill="url(#paint41_linear)"/>
<path d="M12.2323 79.1884C12.3469 79.1862 12.4608 79.2068 12.5673 79.2489C12.6739 79.291 12.7709 79.3541 12.8527 79.4341C12.9345 79.5142 12.9995 79.6098 13.0439 79.7151C13.0883 79.8204 13.1111 79.9337 13.1111 80.048C13.1111 80.2804 13.0185 80.5034 12.8537 80.6677C12.6889 80.832 12.4654 80.9244 12.2323 80.9244C11.9992 80.9244 11.7757 80.832 11.6109 80.6677C11.4461 80.5034 11.3535 80.2804 11.3535 80.048C11.3535 79.9337 11.3763 79.8204 11.4207 79.7151C11.4651 79.6098 11.5301 79.5142 11.6119 79.4341C11.6937 79.3541 11.7908 79.291 11.8973 79.2489C12.0038 79.2068 12.1177 79.1862 12.2323 79.1884Z" fill="url(#paint42_linear)"/>
<path d="M12.2323 84.5649C12.3469 84.5627 12.4608 84.5832 12.5673 84.6254C12.6739 84.6675 12.7709 84.7305 12.8527 84.8106C12.9345 84.8907 12.9995 84.9862 13.0439 85.0916C13.0883 85.1969 13.1111 85.3102 13.1111 85.4244C13.1111 85.6569 13.0185 85.8798 12.8537 86.0442C12.6889 86.2085 12.4654 86.3009 12.2323 86.3009C11.9992 86.3009 11.7757 86.2085 11.6109 86.0442C11.4461 85.8798 11.3535 85.6569 11.3535 85.4244C11.3535 85.3102 11.3763 85.1969 11.4207 85.0916C11.4651 84.9862 11.5301 84.8907 11.6119 84.8106C11.6937 84.7305 11.7908 84.6675 11.8973 84.6254C12.0038 84.5832 12.1177 84.5627 12.2323 84.5649Z" fill="url(#paint43_linear)"/>
<path d="M7.6183 20.9729C7.60123 21.1935 7.50117 21.3994 7.33817 21.5494C7.17517 21.6995 6.96132 21.7825 6.73951 21.7819C6.6227 21.7841 6.5066 21.7632 6.39802 21.72C6.28943 21.677 6.19057 21.6128 6.10715 21.5312C6.02375 21.4497 5.9575 21.3523 5.91228 21.2447C5.86707 21.1374 5.8438 21.0219 5.84382 20.9054C5.8281 20.7993 5.8281 20.6914 5.84382 20.5852L7.5338 20.9729H7.6183Z" fill="url(#paint44_linear)"/>
<path d="M6.72577 25.4223C6.84037 25.4201 6.95427 25.4407 7.06079 25.4828C7.16733 25.5249 7.26433 25.588 7.34616 25.668C7.42799 25.7481 7.49301 25.8436 7.53738 25.949C7.58175 26.0543 7.60458 26.1676 7.60456 26.2819C7.60456 26.5143 7.51198 26.7373 7.34718 26.9016C7.18237 27.0659 6.95884 27.1583 6.72577 27.1583C6.60894 27.1605 6.49286 27.1396 6.38427 27.0964C6.27571 27.0534 6.17681 26.9892 6.09341 26.9077C6.01001 26.8261 5.94376 26.7287 5.89854 26.6211C5.85333 26.5138 5.83006 26.3983 5.83008 26.2819C5.83228 26.1667 5.85719 26.0531 5.90339 25.9478C5.94959 25.8423 6.0162 25.7469 6.09938 25.667C6.18256 25.5871 6.28068 25.5244 6.38816 25.4824C6.49564 25.4405 6.61036 25.4201 6.72577 25.4223Z" fill="url(#paint45_linear)"/>
<path d="M6.72577 30.799C6.84037 30.7968 6.95427 30.8174 7.06079 30.8595C7.16733 30.9018 7.26433 30.9647 7.34616 31.0447C7.42799 31.1248 7.49301 31.2203 7.53738 31.3257C7.58175 31.431 7.60458 31.5443 7.60456 31.6586C7.60456 31.891 7.51198 32.114 7.34718 32.2783C7.18237 32.4426 6.95884 32.535 6.72577 32.535C6.60894 32.5372 6.49286 32.5163 6.38427 32.4731C6.27571 32.4302 6.17681 32.3659 6.09341 32.2844C6.01001 32.2028 5.94376 32.1054 5.89854 31.9978C5.85333 31.8905 5.83006 31.775 5.83008 31.6586C5.83228 31.5434 5.85719 31.43 5.90339 31.3245C5.94959 31.219 6.0162 31.1236 6.09938 31.0437C6.18256 30.9638 6.28068 30.9011 6.38816 30.8592C6.49564 30.8172 6.61036 30.7968 6.72577 30.799Z" fill="url(#paint46_linear)"/>
<path d="M6.72577 36.1759C6.84037 36.1737 6.95427 36.1943 7.06079 36.2364C7.16733 36.2788 7.26433 36.3416 7.34616 36.4217C7.42799 36.5017 7.49301 36.5973 7.53738 36.7026C7.58175 36.808 7.60458 36.9212 7.60456 37.0355C7.60456 37.2679 7.51198 37.4909 7.34718 37.6553C7.18237 37.8196 6.95884 37.9119 6.72577 37.9119C6.60894 37.9141 6.49286 37.8932 6.38427 37.8501C6.27571 37.8071 6.17681 37.7429 6.09341 37.6613C6.01001 37.5797 5.94376 37.4823 5.89854 37.3748C5.85333 37.2674 5.83006 37.152 5.83008 37.0355C5.83228 36.9204 5.85719 36.8068 5.90339 36.7015C5.94959 36.596 6.0162 36.5006 6.09938 36.4207C6.18256 36.3409 6.28068 36.2782 6.38816 36.2361C6.49564 36.1941 6.61036 36.1737 6.72577 36.1759Z" fill="url(#paint47_linear)"/>
<path d="M6.72577 73.8114C6.84037 73.8092 6.95427 73.8298 7.06079 73.8719C7.16733 73.9141 7.26433 73.9771 7.34616 74.0572C7.42799 74.1372 7.49301 74.2328 7.53738 74.3381C7.58175 74.4435 7.60458 74.5567 7.60456 74.671C7.61637 74.793 7.6024 74.9161 7.56356 75.0324C7.52473 75.1487 7.46188 75.2554 7.37907 75.346C7.29624 75.4365 7.19531 75.5087 7.0828 75.5579C6.97026 75.6071 6.84865 75.6322 6.72577 75.6317C6.60894 75.6339 6.49286 75.613 6.38427 75.5699C6.27571 75.5269 6.17681 75.4627 6.09341 75.3811C6.01001 75.2995 5.94376 75.2021 5.89854 75.0946C5.85333 74.9872 5.83006 74.8718 5.83008 74.7553C5.83228 74.6402 5.85719 74.5266 5.90339 74.4211C5.94959 74.3157 6.0162 74.2203 6.09938 74.1404C6.18256 74.0605 6.28068 73.9978 6.38816 73.9559C6.49564 73.9139 6.61036 73.8935 6.72577 73.8957V73.8114Z" fill="url(#paint48_linear)"/>
<path d="M6.72577 79.1884C6.84037 79.1862 6.95427 79.2068 7.06079 79.2489C7.16733 79.291 7.26433 79.3541 7.34616 79.4341C7.42799 79.5142 7.49301 79.6098 7.53738 79.7151C7.58175 79.8204 7.60458 79.9337 7.60456 80.048C7.60456 80.2804 7.51198 80.5034 7.34718 80.6677C7.18237 80.832 6.95884 80.9244 6.72577 80.9244C6.60894 80.9266 6.49286 80.9057 6.38427 80.8625C6.27571 80.8196 6.17681 80.7553 6.09341 80.6738C6.01001 80.5922 5.94376 80.4948 5.89854 80.3872C5.85333 80.2799 5.83006 80.1644 5.83008 80.048C5.83228 79.9328 5.85719 79.8193 5.90339 79.7137C5.94959 79.6084 6.0162 79.513 6.09938 79.4331C6.18256 79.3532 6.28068 79.2905 6.38816 79.2486C6.49564 79.2066 6.61036 79.1862 6.72577 79.1884Z" fill="url(#paint49_linear)"/>
<path d="M6.72577 84.5649C6.84037 84.5627 6.95427 84.5832 7.06079 84.6254C7.16733 84.6675 7.26433 84.7305 7.34616 84.8106C7.42799 84.8907 7.49301 84.9862 7.53738 85.0916C7.58175 85.1969 7.60458 85.3102 7.60456 85.4244C7.60456 85.6569 7.51198 85.8798 7.34718 86.0442C7.18237 86.2085 6.95884 86.3009 6.72577 86.3009C6.60894 86.3031 6.49286 86.2822 6.38427 86.239C6.27571 86.196 6.17681 86.1318 6.09341 86.0502C6.01001 85.9687 5.94376 85.8712 5.89854 85.7637C5.85333 85.6563 5.83006 85.5409 5.83008 85.4244C5.83228 85.3093 5.85719 85.1957 5.90339 85.0904C5.94959 84.9849 6.0162 84.8895 6.09938 84.8096C6.18256 84.7297 6.28068 84.667 6.38816 84.625C6.49564 84.5831 6.61036 84.5627 6.72577 84.5649Z" fill="url(#paint50_linear)"/>
<path d="M6.72677 89.9413C6.94591 89.9403 7.15753 90.021 7.32011 90.1675C7.48268 90.3141 7.58449 90.5159 7.60556 90.7335L5.91558 91.1211C5.89793 91.0151 5.89793 90.9069 5.91558 90.8009C5.91777 90.6858 5.9427 90.5722 5.9889 90.4668C6.03511 90.3613 6.10169 90.2659 6.18488 90.1861C6.26804 90.1062 6.36618 90.0435 6.47366 90.0015C6.58114 89.9595 6.69588 89.9391 6.81128 89.9413H6.72677Z" fill="url(#paint51_linear)"/>
<path d="M1.24921 20.0124C1.36381 20.0102 1.47771 20.0307 1.58423 20.0729C1.69077 20.1152 1.78777 20.178 1.8696 20.2581C1.95143 20.3382 2.01644 20.4337 2.06081 20.5391C2.10517 20.6444 2.12802 20.7577 2.128 20.8719C2.128 21.1044 2.03541 21.3273 1.8706 21.4917C1.70579 21.656 1.48227 21.7484 1.24921 21.7484C1.13238 21.7506 1.01628 21.7297 0.907712 21.6865C0.799131 21.6435 0.70025 21.5793 0.616849 21.4977C0.533448 21.4162 0.467201 21.3188 0.421977 21.2112C0.37677 21.1039 0.353494 20.9886 0.353516 20.8719C0.355713 20.7568 0.380623 20.6434 0.426827 20.5379C0.473031 20.4324 0.539634 20.337 0.622815 20.2571C0.705996 20.1774 0.804116 20.1147 0.911582 20.0725C1.01907 20.0306 1.1338 20.0102 1.24921 20.0124Z" fill="url(#paint52_linear)"/>
<path d="M1.24921 25.4223C1.36381 25.4201 1.47771 25.4407 1.58423 25.4828C1.69077 25.5249 1.78777 25.588 1.8696 25.668C1.95143 25.7481 2.01644 25.8436 2.06081 25.949C2.10517 26.0543 2.12802 26.1676 2.128 26.2819C2.128 26.5143 2.03541 26.7373 1.8706 26.9016C1.70579 27.0659 1.48227 27.1583 1.24921 27.1583C1.13238 27.1605 1.01628 27.1396 0.907712 27.0964C0.799131 27.0534 0.70025 26.9892 0.616849 26.9077C0.533448 26.8261 0.467201 26.7287 0.421977 26.6211C0.37677 26.5138 0.353494 26.3983 0.353516 26.2819C0.355713 26.1667 0.380623 26.0531 0.426827 25.9478C0.473031 25.8423 0.539634 25.7469 0.622815 25.667C0.705996 25.5871 0.804116 25.5244 0.911582 25.4824C1.01907 25.4405 1.1338 25.4201 1.24921 25.4223Z" fill="url(#paint53_linear)"/>
<path d="M1.24921 30.799C1.36381 30.7968 1.47771 30.8174 1.58423 30.8595C1.69077 30.9018 1.78777 30.9647 1.8696 31.0447C1.95143 31.1248 2.01644 31.2203 2.06081 31.3257C2.10517 31.431 2.12802 31.5443 2.128 31.6586C2.128 31.891 2.03541 32.114 1.8706 32.2783C1.70579 32.4426 1.48227 32.535 1.24921 32.535C1.13238 32.5372 1.01628 32.5163 0.907712 32.4731C0.799131 32.4302 0.70025 32.3659 0.616849 32.2844C0.533448 32.2028 0.467201 32.1054 0.421977 31.9978C0.37677 31.8905 0.353494 31.775 0.353516 31.6586C0.355713 31.5434 0.380623 31.43 0.426827 31.3245C0.473031 31.219 0.539634 31.1236 0.622815 31.0437C0.705996 30.9638 0.804116 30.9011 0.911582 30.8592C1.01907 30.8172 1.1338 30.7968 1.24921 30.799Z" fill="url(#paint54_linear)"/>
<path d="M1.24921 36.1759C1.36381 36.1737 1.47771 36.1943 1.58423 36.2364C1.69077 36.2788 1.78777 36.3416 1.8696 36.4217C1.95143 36.5017 2.01644 36.5973 2.06081 36.7026C2.10517 36.808 2.12802 36.9212 2.128 37.0355C2.128 37.2679 2.03541 37.4909 1.8706 37.6553C1.70579 37.8196 1.48227 37.9119 1.24921 37.9119C1.13238 37.9141 1.01628 37.8932 0.907712 37.8501C0.799131 37.8071 0.70025 37.7429 0.616849 37.6613C0.533448 37.5797 0.467201 37.4823 0.421977 37.3748C0.37677 37.2674 0.353494 37.152 0.353516 37.0355C0.355713 36.9204 0.380623 36.8068 0.426827 36.7015C0.473031 36.596 0.539634 36.5006 0.622815 36.4207C0.705996 36.3409 0.804116 36.2782 0.911582 36.2361C1.01907 36.1941 1.1338 36.1737 1.24921 36.1759Z" fill="url(#paint55_linear)"/>
<path d="M1.24921 73.8114C1.36381 73.8092 1.47771 73.8298 1.58423 73.8719C1.69077 73.9141 1.78777 73.9771 1.8696 74.0572C1.95143 74.1372 2.01644 74.2328 2.06081 74.3381C2.10517 74.4435 2.12802 74.5567 2.128 74.671C2.128 74.9034 2.03541 75.1264 1.8706 75.2908C1.70579 75.4551 1.48227 75.5474 1.24921 75.5474C1.13238 75.5496 1.01628 75.5287 0.907712 75.4856C0.799131 75.4426 0.70025 75.3784 0.616849 75.2968C0.533448 75.2152 0.467201 75.1178 0.421977 75.0103C0.37677 74.9029 0.353494 74.7875 0.353516 74.671C0.355713 74.5559 0.380623 74.4423 0.426827 74.3368C0.473031 74.2314 0.539634 74.1361 0.622815 74.0562C0.705996 73.9763 0.804116 73.9136 0.911582 73.8716C1.01907 73.8296 1.1338 73.8092 1.24921 73.8114Z" fill="url(#paint56_linear)"/>
<path d="M1.24921 79.1884C1.36381 79.1862 1.47771 79.2068 1.58423 79.2489C1.69077 79.291 1.78777 79.3541 1.8696 79.4341C1.95143 79.5142 2.01644 79.6098 2.06081 79.7151C2.10517 79.8204 2.12802 79.9337 2.128 80.048C2.128 80.2804 2.03541 80.5034 1.8706 80.6677C1.70579 80.832 1.48227 80.9244 1.24921 80.9244C1.13238 80.9266 1.01628 80.9057 0.907712 80.8625C0.799131 80.8196 0.70025 80.7553 0.616849 80.6738C0.533448 80.5922 0.467201 80.4948 0.421977 80.3872C0.37677 80.2799 0.353494 80.1644 0.353516 80.048C0.355713 79.9328 0.380623 79.8193 0.426827 79.7137C0.473031 79.6084 0.539634 79.513 0.622815 79.4331C0.705996 79.3532 0.804116 79.2905 0.911582 79.2486C1.01907 79.2066 1.1338 79.1862 1.24921 79.1884Z" fill="url(#paint57_linear)"/>
<path d="M1.24921 84.5649C1.36381 84.5627 1.47771 84.5832 1.58423 84.6254C1.69077 84.6675 1.78777 84.7305 1.8696 84.8106C1.95143 84.8907 2.01644 84.9862 2.06081 85.0916C2.10517 85.1969 2.12802 85.3102 2.128 85.4244C2.128 85.6569 2.03541 85.8798 1.8706 86.0442C1.70579 86.2085 1.48227 86.3009 1.24921 86.3009C1.13238 86.3031 1.01628 86.2822 0.907712 86.239C0.799131 86.196 0.70025 86.1318 0.616849 86.0502C0.533448 85.9687 0.467201 85.8712 0.421977 85.7637C0.37677 85.6563 0.353494 85.5409 0.353516 85.4244C0.355713 85.3093 0.380623 85.1957 0.426827 85.0904C0.473031 84.9849 0.539634 84.8895 0.622815 84.8096C0.705996 84.7297 0.804116 84.667 0.911582 84.625C1.01907 84.5831 1.1338 84.5627 1.24921 84.5649Z" fill="url(#paint58_linear)"/>
<path d="M1.24921 89.9413C1.36381 89.9391 1.47771 89.9597 1.58423 90.0018C1.69077 90.044 1.78777 90.107 1.8696 90.1871C1.95143 90.2671 2.01644 90.3627 2.06081 90.468C2.10517 90.5734 2.12802 90.6866 2.128 90.8009C2.128 91.0333 2.03541 91.2563 1.8706 91.4206C1.70579 91.585 1.48227 91.6773 1.24921 91.6773C1.13238 91.6795 1.01628 91.6586 0.907712 91.6155C0.799131 91.5725 0.70025 91.5083 0.616849 91.4267C0.533448 91.3451 0.467201 91.2477 0.421977 91.1402C0.37677 91.0328 0.353494 90.9174 0.353516 90.8009C0.355713 90.6858 0.380623 90.5722 0.426827 90.4668C0.473031 90.3613 0.539634 90.2659 0.622815 90.1861C0.705996 90.1062 0.804116 90.0435 0.911582 90.0015C1.01907 89.9595 1.1338 89.9391 1.24921 89.9413Z" fill="url(#paint59_linear)"/>
<g opacity="0.59">
<path opacity="0.59" d="M211.467 85.6265V88.4581C210.725 88.3839 210.014 88.1282 209.394 87.7136C208.775 87.2992 208.268 86.7384 207.918 86.0816C207.259 85.1715 206.82 84.5478 205.856 84.5478C204.893 84.5478 204.454 85.1715 203.795 86.0816C203.458 86.746 202.958 87.3133 202.34 87.7295C201.721 88.1454 201.006 88.3964 200.263 88.4581C199.521 88.3967 198.808 88.1459 198.192 87.7296C197.577 87.3133 197.079 86.7457 196.747 86.0816C196.088 85.1715 195.649 84.5478 194.686 84.5478C193.722 84.5478 193.3 85.1715 192.641 86.0816C192.304 86.746 191.804 87.3133 191.186 87.7295C190.567 88.1454 189.852 88.3964 189.109 88.4581C188.367 88.3967 187.654 88.1459 187.038 87.7296C186.423 87.3133 185.925 86.7457 185.594 86.0816C184.934 85.1715 184.495 84.5478 183.532 84.5478C182.568 84.5478 182.129 85.1715 181.47 86.0816C181.14 86.7467 180.642 87.3152 180.027 87.7316C179.41 88.1481 178.697 88.3984 177.955 88.4581C177.213 88.3984 176.5 88.1481 175.883 87.7316C175.268 87.3152 174.769 86.7467 174.44 86.0816C173.781 85.1715 173.341 84.5478 172.378 84.5478C171.415 84.5478 170.958 85.1715 170.299 86.0816C169.978 86.7576 169.481 87.3349 168.859 87.753C168.239 88.1712 167.516 88.4148 166.767 88.4581C166.019 88.3893 165.3 88.1361 164.675 87.7212C164.049 87.3064 163.537 86.743 163.184 86.0816C162.525 85.1715 162.086 84.5478 161.123 84.5478C160.159 84.5478 159.72 85.1715 159.061 86.0816C158.725 86.746 158.224 87.3133 157.606 87.7295C156.987 88.1454 156.272 88.3964 155.529 88.4581C154.787 88.3967 154.074 88.1459 153.459 87.7296C152.843 87.3133 152.345 86.7457 152.014 86.0816C151.354 85.1715 150.915 84.5478 149.952 84.5478C148.988 84.5478 148.549 85.1715 147.907 86.0816C147.571 86.746 147.07 87.3133 146.452 87.7295C145.833 88.1454 145.118 88.3964 144.375 88.4581C143.633 88.3984 142.919 88.1481 142.303 87.7316C141.687 87.3152 141.19 86.7467 140.86 86.0816C140.201 85.1715 139.761 84.5478 138.798 84.5478C137.835 84.5478 137.395 85.1715 136.736 86.0816C136.406 86.7467 135.908 87.3152 135.292 87.7316C134.676 88.1481 133.963 88.3984 133.221 88.4581C132.479 88.3984 131.765 88.1481 131.149 87.7316C130.533 87.3152 130.036 86.7467 129.706 86.0816C129.047 85.1715 128.607 84.5478 127.644 84.5478C126.681 84.5478 126.224 85.1715 125.565 86.0816C125.245 86.7576 124.748 87.3349 124.126 87.753C123.505 88.1712 122.782 88.4148 122.033 88.4581V85.6265C123.098 85.6265 123.453 85.0198 124.112 84.1096C124.448 83.4351 124.956 82.8605 125.585 82.4436C126.213 82.0264 126.941 81.7815 127.695 81.7332C128.438 81.7948 129.153 82.0458 129.772 82.4618C130.39 82.8779 130.891 83.4452 131.227 84.1096C131.886 85.0198 132.325 85.6265 133.289 85.6265C134.252 85.6265 134.674 85.0198 135.333 84.1096C135.669 83.4452 136.17 82.8779 136.788 82.4618C137.407 82.0458 138.122 81.7948 138.865 81.7332C139.607 81.7928 140.321 82.0431 140.937 82.4596C141.553 82.8761 142.05 83.4446 142.381 84.1096C143.04 85.0198 143.479 85.6265 144.442 85.6265C145.406 85.6265 145.845 85.0198 146.504 84.1096C146.834 83.4446 147.332 82.8761 147.948 82.4596C148.564 82.0431 149.278 81.7928 150.019 81.7332C150.761 81.7928 151.475 82.0431 152.091 82.4596C152.707 82.8761 153.204 83.4446 153.535 84.1096C154.194 85.0198 154.633 85.6265 155.596 85.6265C156.56 85.6265 156.999 85.0198 157.658 84.1096C157.99 83.4456 158.487 82.8779 159.103 82.4616C159.719 82.0453 160.432 81.7945 161.173 81.7332C161.919 81.7952 162.636 82.0461 163.257 82.4619C163.878 82.8779 164.382 83.4449 164.722 84.1096C165.381 85.0198 165.736 85.6265 166.801 85.6265C167.866 85.6265 168.22 85.0198 168.88 84.1096C169.211 83.4456 169.709 82.8779 170.325 82.4616C170.94 82.0453 171.653 81.7945 172.395 81.7332C173.138 81.7933 173.855 82.0434 174.473 82.4597C175.092 82.8761 175.592 83.4442 175.927 84.1096C176.586 85.0198 177.025 85.6265 177.989 85.6265C178.952 85.6265 179.357 85.0029 180.084 84.1096C180.402 83.4626 180.878 82.9059 181.47 82.4906C182.06 82.0753 182.746 81.8149 183.464 81.7332C184.206 81.7928 184.919 82.0431 185.536 82.4596C186.151 82.8761 186.65 83.4446 186.979 84.1096C187.638 85.0198 188.078 85.6265 189.041 85.6265C190.004 85.6265 190.444 85.0198 191.103 84.1096C191.432 83.4446 191.931 82.8761 192.546 82.4596C193.163 82.0431 193.876 81.7928 194.618 81.7332C195.362 81.7948 196.077 82.0458 196.695 82.4618C197.314 82.8779 197.814 83.4452 198.15 84.1096C198.792 85.0198 199.232 85.6265 200.195 85.6265C201.158 85.6265 201.598 85.0198 202.257 84.1096C202.591 83.4476 203.09 82.8816 203.705 82.4658C204.32 82.0498 205.032 81.7977 205.772 81.7332C206.519 81.792 207.237 82.0416 207.859 82.4579C208.479 82.874 208.983 83.443 209.321 84.1096C210.048 85.0029 210.403 85.6265 211.467 85.6265Z" fill="url(#paint60_linear)"/>
<path opacity="0.59" d="M221.963 92.2163V95.1153C221.223 95.0415 220.513 94.7856 219.896 94.3708C219.281 93.9562 218.777 93.3953 218.431 92.7388C217.772 91.8287 217.332 91.2219 216.369 91.2219C215.406 91.2219 214.949 91.8287 214.307 92.7388C213.971 93.4032 213.471 93.9706 212.852 94.3867C212.233 94.8027 211.519 95.0536 210.775 95.1153C210.033 95.0556 209.32 94.8054 208.703 94.3889C208.088 93.9724 207.589 93.4039 207.26 92.7388C206.601 91.8287 206.161 91.2219 205.198 91.2219C204.235 91.2219 203.795 91.8287 203.136 92.7388C202.807 93.4039 202.308 93.9724 201.693 94.3889C201.076 94.8054 200.363 95.0556 199.621 95.1153C198.879 95.0556 198.166 94.8054 197.549 94.3889C196.934 93.9724 196.435 93.4039 196.106 92.7388C195.447 91.8287 195.007 91.2219 194.044 91.2219C193.081 91.2219 192.641 91.8287 191.982 92.7388C191.656 93.3938 191.169 93.9556 190.566 94.3712C189.963 94.7868 189.265 95.043 188.535 95.1153C187.791 95.0536 187.076 94.8027 186.458 94.3867C185.839 93.9706 185.339 93.4032 185.003 92.7388C184.344 91.8287 183.921 91.2219 182.958 91.2219C181.995 91.2219 181.538 91.8287 180.879 92.7388C180.551 93.427 180.041 94.0124 179.404 94.4315C178.767 94.8505 178.026 95.087 177.263 95.1153C176.522 95.0415 175.813 94.7856 175.196 94.3708C174.581 93.9562 174.077 93.3953 173.731 92.7388C173.071 91.8287 172.632 91.2219 171.669 91.2219C170.705 91.2219 170.249 91.8287 169.59 92.7388C169.261 93.4039 168.762 93.9724 168.147 94.3889C167.53 94.8054 166.817 95.0556 166.075 95.1153C165.333 95.0556 164.619 94.8054 164.003 94.3889C163.387 93.9724 162.89 93.4039 162.56 92.7388C161.901 91.8287 161.461 91.2219 160.498 91.2219C159.535 91.2219 159.095 91.8287 158.436 92.7388C158.106 93.4039 157.608 93.9724 156.992 94.3889C156.376 94.8054 155.663 95.0556 154.921 95.1153C154.165 95.0526 153.438 94.7942 152.813 94.3656C152.187 93.937 151.685 93.353 151.355 92.6714C150.696 91.7613 150.274 91.1545 149.31 91.1545C148.347 91.1545 147.908 91.7613 147.248 92.6714C146.929 93.3436 146.44 93.9218 145.83 94.3499C145.22 94.7782 144.509 95.0418 143.767 95.1153C143.024 95.0536 142.308 94.8027 141.69 94.3867C141.072 93.9706 140.571 93.4032 140.235 92.7388C139.576 91.8287 139.153 91.2219 138.19 91.2219C137.227 91.2219 136.771 91.8287 136.111 92.7388C135.79 93.4172 135.29 93.9962 134.665 94.4145C134.04 94.8328 133.314 95.075 132.562 95.1153V92.2838C133.627 92.2838 133.982 91.677 134.641 90.7669C134.975 90.0994 135.475 89.5286 136.093 89.1094C136.712 88.6904 137.428 88.4369 138.173 88.3735C138.917 88.4352 139.632 88.6862 140.25 89.1022C140.869 89.5183 141.37 90.0856 141.705 90.75C142.364 91.6601 142.787 92.2669 143.767 92.2669C144.747 92.2669 145.153 91.6601 145.812 90.75C146.148 90.0856 146.649 89.5183 147.267 89.1022C147.885 88.6862 148.601 88.4352 149.344 88.3735C150.085 88.4349 150.798 88.6857 151.414 89.102C152.03 89.5183 152.528 90.0859 152.859 90.75C153.518 91.6601 153.958 92.2669 154.921 92.2669C155.884 92.2669 156.307 91.6601 156.966 90.75C157.302 90.0856 157.803 89.5183 158.421 89.1022C159.039 88.6862 159.755 88.4352 160.498 88.3735C161.239 88.4349 161.952 88.6857 162.568 89.102C163.184 89.5183 163.682 90.0859 164.013 90.75C164.672 91.6601 165.112 92.2669 166.075 92.2669C167.038 92.2669 167.478 91.6601 168.137 90.75C168.466 90.0873 168.96 89.5203 169.573 89.104C170.187 88.6875 170.896 88.4361 171.635 88.3735C172.377 88.4258 173.092 88.6671 173.714 89.0743C174.336 89.4817 174.841 90.0413 175.184 90.6994C175.843 91.6096 176.215 92.2163 177.263 92.2163C178.31 92.2163 178.682 91.6096 179.341 90.6994C179.683 90.0445 180.188 89.4873 180.805 89.0804C181.423 88.6735 182.135 88.4302 182.873 88.3735C183.617 88.4352 184.332 88.6862 184.95 89.1022C185.569 89.5183 186.069 90.0856 186.405 90.75C187.065 91.6601 187.487 92.2669 188.467 92.2669C189.447 92.2669 189.853 91.6601 190.512 90.75C190.848 90.0856 191.349 89.5183 191.967 89.1022C192.586 88.6862 193.301 88.4352 194.044 88.3735C194.786 88.4349 195.499 88.6857 196.114 89.102C196.73 89.5183 197.228 90.0859 197.559 90.75C198.218 91.6601 198.658 92.2669 199.621 92.2669C200.584 92.2669 201.007 91.6601 201.666 90.75C202.002 90.0856 202.503 89.5183 203.121 89.1022C203.74 88.6862 204.454 88.4352 205.198 88.3735C205.94 88.4332 206.653 88.6835 207.27 89.1C207.885 89.5164 208.384 90.0849 208.713 90.75C209.372 91.6601 209.812 92.2669 210.775 92.2669C211.738 92.2669 212.178 91.6601 212.837 90.75C213.166 90.0849 213.665 89.5164 214.28 89.1C214.897 88.6835 215.61 88.4332 216.352 88.3735C217.097 88.4356 217.815 88.6865 218.436 89.1023C219.058 89.5183 219.561 90.0854 219.901 90.75C220.543 91.6096 220.915 92.2163 221.963 92.2163Z" fill="url(#paint61_linear)"/>
<path opacity="0.59" d="M233.521 98.8067V101.638C232.78 101.564 232.066 101.308 231.448 100.894C230.829 100.479 230.322 99.9186 229.972 99.2618C229.313 98.3516 228.874 97.7449 227.911 97.7449C226.947 97.7449 226.508 98.3516 225.849 99.2618C225.514 99.9238 225.016 100.49 224.401 100.906C223.785 101.322 223.074 101.574 222.334 101.638C221.59 101.578 220.874 101.328 220.255 100.912C219.637 100.495 219.136 99.9272 218.802 99.2618C218.143 98.3516 217.72 97.7449 216.74 97.7449C215.76 97.7449 215.354 98.3516 214.695 99.2618C214.359 99.9262 213.858 100.493 213.24 100.91C212.621 101.326 211.907 101.577 211.163 101.638C210.421 101.577 209.708 101.326 209.093 100.91C208.478 100.493 207.979 99.9258 207.648 99.2618C206.989 98.3516 206.549 97.7449 205.586 97.7449C204.623 97.7449 204.183 98.3516 203.541 99.2618C203.205 99.9262 202.705 100.493 202.086 100.91C201.468 101.326 200.753 101.577 200.009 101.638C199.267 101.579 198.554 101.328 197.937 100.912C197.322 100.495 196.823 99.9268 196.494 99.2618C195.835 98.3516 195.395 97.7449 194.432 97.7449C193.469 97.7449 193.013 98.3516 192.353 99.2618C192.037 99.941 191.541 100.521 190.919 100.94C190.297 101.359 189.572 101.6 188.821 101.638C188.079 101.564 187.366 101.308 186.748 100.894C186.129 100.479 185.622 99.9186 185.272 99.2618C184.613 98.3516 184.174 97.7449 183.211 97.7449C182.247 97.7449 181.808 98.3516 181.149 99.2618C180.813 99.9262 180.312 100.493 179.694 100.91C179.075 101.326 178.36 101.577 177.617 101.638C176.875 101.577 176.162 101.326 175.547 100.91C174.931 100.493 174.433 99.9258 174.102 99.2618C173.442 98.3516 173.003 97.7449 172.04 97.7449C171.077 97.7449 170.654 98.3516 169.995 99.2618C169.659 99.9262 169.158 100.493 168.54 100.91C167.921 101.326 167.206 101.577 166.463 101.638C165.721 101.579 165.007 101.328 164.391 100.912C163.775 100.495 163.278 99.9268 162.948 99.2618C162.288 98.3516 161.849 97.7449 160.886 97.7449C159.922 97.7449 159.483 98.3516 158.824 99.2618C158.494 99.9268 157.996 100.495 157.38 100.912C156.764 101.328 156.051 101.579 155.309 101.638C154.567 101.579 153.853 101.328 153.237 100.912C152.621 100.495 152.124 99.9268 151.794 99.2618C151.135 98.3516 150.695 97.7449 149.732 97.7449C148.769 97.7449 148.312 98.3516 147.653 99.2618C147.333 99.9378 146.836 100.515 146.214 100.933C145.593 101.352 144.87 101.595 144.121 101.638V98.8067C145.186 98.8067 145.541 98.1999 146.2 97.2898C146.527 96.6326 147.017 96.0694 147.623 95.6536C148.229 95.2378 148.932 94.9829 149.664 94.9133C150.408 94.9735 151.124 95.2236 151.743 95.6399C152.361 96.0562 152.862 96.6244 153.196 97.2898C153.855 98.1999 154.295 98.8067 155.258 98.8067C156.221 98.8067 156.661 98.1999 157.32 97.2898C157.65 96.6247 158.148 96.0562 158.764 95.6398C159.38 95.2233 160.093 94.973 160.835 94.9133C161.577 94.973 162.291 95.2233 162.907 95.6398C163.523 96.0562 164.02 96.6247 164.35 97.2898C165.009 98.1999 165.449 98.8067 166.412 98.8067C167.375 98.8067 167.815 98.1999 168.474 97.2898C168.803 96.6247 169.302 96.0562 169.917 95.6398C170.534 95.2233 171.247 94.973 171.989 94.9133C172.733 94.975 173.448 95.226 174.066 95.6419C174.685 96.0581 175.185 96.6254 175.521 97.2898C176.163 98.1999 176.603 98.8067 177.566 98.8067C178.529 98.8067 178.969 98.1999 179.628 97.2898C179.962 96.6278 180.461 96.0618 181.076 95.646C181.691 95.23 182.403 94.9779 183.143 94.9133C183.888 94.9754 184.605 95.2263 185.227 95.6421C185.847 96.0581 186.352 96.6252 186.692 97.2898C187.351 98.1999 187.706 98.8067 188.771 98.8067C189.835 98.8067 190.19 98.1999 190.849 97.2898C191.181 96.6257 191.679 96.0581 192.294 95.6418C192.909 95.2256 193.623 94.9747 194.365 94.9133C195.11 94.9703 195.826 95.2192 196.445 95.6357C197.065 96.0524 197.565 96.6224 197.897 97.2898C198.556 98.1999 198.995 98.8067 199.958 98.8067C200.922 98.8067 201.361 98.1999 202.02 97.2898C202.35 96.6247 202.848 96.0562 203.463 95.6398C204.08 95.2233 204.793 94.973 205.535 94.9133C206.277 94.973 206.99 95.2233 207.607 95.6398C208.222 96.0562 208.721 96.6247 209.05 97.2898C209.71 98.1999 210.149 98.8067 211.112 98.8067C212.076 98.8067 212.515 98.1999 213.174 97.2898C213.505 96.6257 214.004 96.0581 214.619 95.6418C215.234 95.2256 215.947 94.9747 216.689 94.9133C217.433 94.975 218.148 95.226 218.766 95.6419C219.385 96.0581 219.885 96.6254 220.221 97.2898C220.88 98.1999 221.303 98.8067 222.283 98.8067C223.263 98.8067 223.669 98.1999 224.328 97.2898C224.663 96.6278 225.161 96.0618 225.776 95.646C226.391 95.23 227.103 94.9779 227.843 94.9133C228.59 94.9723 229.308 95.2218 229.93 95.6381C230.55 96.0544 231.054 96.6232 231.392 97.2898C232.102 98.1999 232.474 98.8067 233.521 98.8067Z" fill="url(#paint62_linear)"/>
<path opacity="0.59" d="M242.834 103.829V106.728H242.057C241.854 106.47 241.668 106.217 241.499 105.97C240.84 105.077 240.401 104.47 239.437 104.47C239.28 104.452 239.121 104.452 238.964 104.47C238.305 104.638 237.916 105.178 237.375 105.919C237.206 106.166 237.021 106.419 236.818 106.678H230.869C230.666 106.419 230.48 106.166 230.311 105.919C229.652 105.009 229.213 104.402 228.25 104.402C227.286 104.402 226.864 105.009 226.205 105.919L225.63 106.678H219.715C219.512 106.419 219.326 106.166 219.157 105.919C218.498 105.009 218.059 104.402 217.096 104.402C216.132 104.402 215.693 105.009 215.034 105.919C214.865 106.172 214.696 106.425 214.493 106.678H208.561C208.358 106.419 208.173 106.166 208.004 105.919C207.344 105.009 206.905 104.402 205.942 104.402C204.978 104.402 204.522 105.009 203.863 105.919C203.694 106.172 203.525 106.425 203.322 106.678H197.357L196.782 105.919C196.123 105.009 195.684 104.402 194.72 104.402C193.757 104.402 193.318 105.009 192.658 105.919C192.489 106.166 192.304 106.419 192.101 106.678H186.169C185.966 106.419 185.78 106.166 185.611 105.919C184.952 105.009 184.53 104.402 183.549 104.402C182.569 104.402 182.164 105.009 181.505 105.919C181.319 106.172 181.15 106.425 180.93 106.678H175.015C174.812 106.419 174.626 106.166 174.457 105.919C173.798 105.009 173.359 104.402 172.396 104.402C171.432 104.402 170.993 105.009 170.351 105.919L169.776 106.678H163.844C163.641 106.425 163.472 106.172 163.303 105.919C162.644 105.009 162.205 104.402 161.242 104.402C160.278 104.402 159.822 105.009 159.163 105.919L158.622 106.678H155.631V105.481C156.696 105.481 157.05 104.874 157.71 103.947C158.046 103.288 158.545 102.726 159.16 102.313C159.776 101.9 160.486 101.651 161.225 101.588C161.967 101.644 162.683 101.892 163.301 102.305C163.92 102.718 164.421 103.284 164.757 103.947C165.416 104.874 165.855 105.481 166.819 105.481C167.782 105.481 168.221 104.874 168.863 103.947C169.203 103.287 169.705 102.724 170.324 102.311C170.94 101.898 171.654 101.649 172.396 101.588C173.136 101.647 173.847 101.896 174.462 102.309C175.078 102.722 175.576 103.286 175.911 103.947C176.57 104.874 177.009 105.481 177.972 105.481C178.936 105.481 179.375 104.874 180.034 103.947C180.369 103.286 180.867 102.722 181.483 102.309C182.098 101.896 182.809 101.647 183.549 101.588C184.291 101.649 185.004 101.898 185.621 102.311C186.24 102.724 186.742 103.287 187.081 103.947C187.741 104.874 188.163 105.481 189.126 105.481C190.09 105.481 190.529 104.874 191.188 103.947C191.524 103.288 192.025 102.726 192.64 102.313C193.253 101.9 193.965 101.651 194.703 101.588C195.447 101.65 196.162 101.898 196.782 102.311C197.404 102.724 197.909 103.287 198.252 103.947C198.911 104.874 199.266 105.481 200.331 105.481C201.396 105.481 201.751 104.874 202.41 103.947C202.746 103.288 203.246 102.726 203.861 102.313C204.475 101.9 205.186 101.651 205.925 101.588C206.667 101.648 207.38 101.896 207.998 102.309C208.617 102.722 209.119 103.286 209.457 103.947C210.116 104.874 210.555 105.481 211.519 105.481C212.482 105.481 212.921 104.874 213.58 103.947C213.915 103.286 214.414 102.722 215.029 102.309C215.644 101.896 216.355 101.647 217.096 101.588C217.846 101.647 218.569 101.9 219.191 102.323C219.813 102.745 220.315 103.323 220.645 103.998C221.304 104.925 221.743 105.532 222.706 105.532C223.67 105.532 224.109 104.925 224.768 103.998C225.106 103.34 225.606 102.778 226.22 102.365C226.835 101.953 227.545 101.703 228.283 101.638C229.025 101.698 229.738 101.947 230.357 102.36C230.975 102.773 231.477 103.337 231.815 103.998C232.474 104.925 232.897 105.532 233.877 105.532C234.857 105.532 235.263 104.925 235.922 103.998C236.125 103.728 236.328 103.425 236.564 103.155C236.895 102.696 237.328 102.32 237.83 102.056C238.332 101.793 238.888 101.65 239.454 101.638C240.155 101.694 240.833 101.923 241.423 102.306C242.013 102.688 242.498 103.212 242.834 103.829Z" fill="url(#paint63_linear)"/>
</g>
<path d="M177.714 52.8319C177.219 52.8319 176.745 52.6371 176.393 52.2899C176.042 51.9427 175.842 51.4711 175.838 50.9779V49.2925C175.842 48.7991 176.042 48.3277 176.393 47.9805C176.745 47.6333 177.219 47.4385 177.714 47.4385C178.208 47.4385 178.683 47.6333 179.034 47.9805C179.386 48.3277 179.585 48.7991 179.59 49.2925V50.9779C179.585 51.4711 179.386 51.9427 179.034 52.2899C178.683 52.6371 178.208 52.8319 177.714 52.8319Z" fill="url(#paint64_linear)" fill-opacity="0.5"/>
<path d="M177.714 41.0509C177.219 41.0509 176.745 40.8562 176.393 40.5089C176.042 40.1617 175.842 39.6902 175.838 39.1969V37.5115C175.838 37.0153 176.035 36.5395 176.387 36.1886C176.739 35.8378 177.216 35.6406 177.714 35.6406C178.211 35.6406 178.688 35.8378 179.04 36.1886C179.392 36.5395 179.59 37.0153 179.59 37.5115V39.1969C179.585 39.6902 179.386 40.1617 179.034 40.5089C178.683 40.8562 178.208 41.0509 177.714 41.0509Z" fill="url(#paint65_linear)" fill-opacity="0.5"/>
<path d="M184.475 46.0901H182.785C182.29 46.0857 181.817 45.8866 181.469 45.5362C181.121 45.1858 180.926 44.7126 180.926 44.2192C180.926 43.7261 181.121 43.2526 181.469 42.9022C181.817 42.552 182.29 42.3528 182.785 42.3484H184.475C184.972 42.3484 185.449 42.5456 185.801 42.8963C186.153 43.2472 186.351 43.723 186.351 44.2192C186.351 44.7154 186.153 45.1912 185.801 45.5421C185.449 45.893 184.972 46.0901 184.475 46.0901Z" fill="url(#paint66_linear)" fill-opacity="0.5"/>
<path d="M172.677 46.0901H170.987C170.49 46.0901 170.013 45.893 169.661 45.5421C169.309 45.1912 169.111 44.7154 169.111 44.2192C169.111 43.723 169.309 43.2472 169.661 42.8963C170.013 42.5456 170.49 42.3484 170.987 42.3484H172.677C173.172 42.3528 173.645 42.552 173.993 42.9022C174.341 43.2526 174.536 43.7261 174.536 44.2192C174.536 44.7126 174.341 45.1858 173.993 45.5362C173.645 45.8866 173.172 46.0857 172.677 46.0901Z" fill="url(#paint67_linear)" fill-opacity="0.5"/>
<path fill-rule="evenodd" clip-rule="evenodd" d="M166.089 -0.736084H179.527C179.507 1.5349 179.942 3.78699 180.807 5.88721C181.674 7.98744 182.952 9.89322 184.568 11.4921C186.184 13.0909 188.104 14.3504 190.216 15.1962C192.327 16.042 194.588 16.4569 196.863 16.4165C199.142 16.4638 201.407 16.0539 203.525 15.2111C205.643 14.3684 207.568 13.1099 209.191 11.5104C210.812 9.91086 212.095 8.00274 212.964 5.89913C213.832 3.79553 214.269 1.53923 214.249 -0.736084H227.334C227.237 7.30494 223.968 14.9834 218.235 20.6334C212.502 26.2836 204.768 29.4495 196.712 29.4445C188.654 29.4495 180.918 26.2841 175.183 20.6344C169.447 14.9849 166.174 7.30646 166.072 -0.736084H166.089Z" fill="url(#paint68_linear)"/>
</g>
<path d="M94.1016 52.985C94.1016 60.0519 89.4101 64.3921 81.7903 64.3921H74.5425C74.3493 64.3921 74.1578 64.3541 73.9792 64.2803C73.8006 64.2066 73.6381 64.0984 73.5014 63.962C73.3647 63.8257 73.2563 63.6639 73.1824 63.4858C73.1083 63.3076 73.0703 63.1167 73.0703 62.9238V43.0139C73.0787 42.6301 73.2376 42.265 73.5127 41.9964C73.7879 41.728 74.1577 41.5779 74.5425 41.5779H81.7903C89.4101 41.5779 94.1016 45.9666 94.1016 52.985ZM87.3554 52.985C87.3554 49.7581 85.3818 47.709 81.7903 47.709H79.8326V58.261H81.7903C85.3818 58.261 87.3554 56.2442 87.3554 52.985Z" fill="black"/>
<path d="M110.943 58.8736C111.131 58.8736 111.317 58.9109 111.491 58.9833C111.665 59.0556 111.823 59.1616 111.955 59.2951C112.087 59.4288 112.192 59.5872 112.263 59.7614C112.333 59.9354 112.369 60.1218 112.366 60.3096V62.9557C112.371 63.338 112.224 63.7068 111.957 63.9816C111.69 64.2565 111.326 64.4155 110.943 64.4239H98.2914C97.9066 64.4155 97.5404 64.2571 97.2712 63.9827C97.0021 63.7083 96.8514 63.3396 96.8516 62.9557V43.0135C96.8598 42.6353 97.0142 42.2747 97.2825 42.0072C97.5507 41.7397 97.9122 41.5857 98.2914 41.5775H110.603C110.794 41.5754 110.984 41.6108 111.161 41.6819C111.339 41.7528 111.501 41.8581 111.637 41.9913C111.774 42.1247 111.883 42.2836 111.958 42.4589C112.033 42.6344 112.073 42.8228 112.075 43.0135V45.6918C112.073 45.8824 112.033 46.0709 111.958 46.2463C111.883 46.4217 111.774 46.5805 111.637 46.7138C111.501 46.8472 111.339 46.9524 111.161 47.0234C110.984 47.0945 110.794 47.1298 110.603 47.1278H103.614V50.2417H109.6C109.979 50.2499 110.341 50.4039 110.609 50.6714C110.877 50.9389 111.031 51.2995 111.04 51.6777V54.0332C111.04 54.4157 110.889 54.7826 110.619 55.0544C110.349 55.3263 109.983 55.4812 109.6 55.4854H103.614V58.8736H110.943Z" fill="black"/>
<path d="M129.758 63.311L129.03 60.6974H122.041L121.329 63.311C121.247 63.6209 121.065 63.8949 120.81 64.0904C120.555 64.2861 120.243 64.3921 119.922 64.3921H115.311C115.128 64.39 114.948 64.3442 114.786 64.2587C114.624 64.1731 114.485 64.0502 114.381 63.9002C114.277 63.7502 114.21 63.5775 114.186 63.3964C114.162 63.2153 114.181 63.0311 114.243 62.8593L120.973 42.7558C121.093 42.4201 121.312 42.1283 121.6 41.9183C121.889 41.7082 122.234 41.5897 122.591 41.5779H128.399C128.755 41.5917 129.1 41.7113 129.388 41.9209C129.676 42.1307 129.895 42.4213 130.017 42.7558L136.747 62.8593C136.806 63.0351 136.823 63.2224 136.795 63.4058C136.767 63.5891 136.695 63.7631 136.586 63.9132C136.476 64.0632 136.333 64.1851 136.167 64.2684C136 64.3516 135.817 64.3941 135.631 64.3921H131.068C130.763 64.3741 130.472 64.2594 130.236 64.0651C130 63.8707 129.833 63.6066 129.758 63.311ZM127.704 55.9215L125.536 48.1285L123.384 55.9215H127.704Z" fill="black"/>
<path d="M153.182 58.2606C153.562 58.2648 153.923 58.418 154.19 58.6868C154.457 58.9556 154.606 59.3185 154.606 59.6966V62.9234C154.611 63.3057 154.463 63.6744 154.197 63.9494C153.93 64.2243 153.566 64.3831 153.182 64.3917H140.806C140.613 64.3917 140.421 64.3537 140.243 64.2799C140.064 64.2062 139.902 64.098 139.765 63.9616C139.629 63.8253 139.52 63.6634 139.446 63.4852C139.372 63.3072 139.334 63.1163 139.334 62.9234V43.0135C139.336 42.8228 139.376 42.6344 139.451 42.4589C139.526 42.2836 139.635 42.1247 139.772 41.9913C139.909 41.8581 140.07 41.7528 140.248 41.6819C140.425 41.6108 140.615 41.5754 140.806 41.5775H144.657C145.036 41.5857 145.397 41.7397 145.666 42.0072C145.934 42.2747 146.088 42.6353 146.097 43.0135V58.2606H153.182Z" fill="black"/>
<path d="M174.556 57.4045C174.556 61.3574 171.126 64.778 165.577 64.778C161.824 64.778 157.747 63.5033 156.307 59.9376C156.246 59.791 156.216 59.6333 156.219 59.4744C156.222 59.3157 156.258 59.1592 156.325 59.0151C156.392 58.871 156.488 58.7423 156.608 58.6372C156.727 58.5322 156.867 58.453 157.019 58.4049L160.675 57.2593C160.927 57.1813 161.197 57.1916 161.441 57.2885C161.686 57.3855 161.889 57.563 162.018 57.7917C162.4 58.2741 162.895 58.6559 163.459 58.9034C164.023 59.1508 164.639 59.2567 165.254 59.2115C167.017 59.2115 167.761 58.4049 167.761 57.5981C167.761 56.2267 166.143 56.0976 163.782 55.5328C159.349 54.468 156.825 52.6772 156.825 48.4983C156.825 44.3195 160.481 41.2378 165.513 41.2378C167.183 41.1355 168.844 41.5442 170.275 42.4091C171.706 43.2742 172.839 44.5542 173.521 46.0781C173.586 46.2372 173.616 46.4086 173.609 46.5804C173.602 46.7522 173.558 46.9205 173.48 47.0737C173.401 47.227 173.291 47.3616 173.155 47.4681C173.02 47.5747 172.863 47.651 172.695 47.6916L169.072 48.5627C168.842 48.616 168.603 48.6018 168.381 48.5215C168.16 48.4414 167.967 48.2986 167.826 48.1111C167.58 47.7495 167.242 47.4592 166.847 47.2694C166.452 47.0796 166.014 46.997 165.577 47.03C164.234 47.03 163.296 47.5948 163.296 48.6434C163.296 49.9503 165.286 50.1117 167.049 50.5957C172.647 51.9349 174.556 53.7903 174.556 57.4045Z" fill="black"/>
<defs>
<linearGradient id="paint0_linear" x1="123.956" y1="0.0820211" x2="123.956" y2="106" gradientUnits="userSpaceOnUse">
<stop stop-color="#FF9894"/>
<stop offset="1" stop-color="#FE5252"/>
</linearGradient>
<linearGradient id="paint1_linear" x1="123.985" y1="0" x2="123.985" y2="105.929" gradientUnits="userSpaceOnUse">
<stop stop-color="#6FD74A"/>
<stop offset="1" stop-color="#24A240"/>
</linearGradient>
<linearGradient id="paint2_linear" x1="33.3242" y1="47.7888" x2="34.5241" y2="47.7888" gradientUnits="userSpaceOnUse">
<stop offset="0.15" stop-color="#9F3632"/>
<stop offset="0.48" stop-color="#C04342"/>
<stop offset="0.79" stop-color="#E25052"/>
</linearGradient>
<linearGradient id="paint3_linear" x1="-121.518" y1="-40.2933" x2="-119.654" y2="-40.2933" gradientUnits="userSpaceOnUse">
<stop offset="0.15" stop-color="#9F3632"/>
<stop offset="0.48" stop-color="#C04342"/>
<stop offset="0.79" stop-color="#E25052"/>
</linearGradient>
<linearGradient id="paint4_linear" x1="-121.518" y1="-29.378" x2="-119.654" y2="-29.378" gradientUnits="userSpaceOnUse">
<stop offset="0.15" stop-color="#9F3632"/>
<stop offset="0.48" stop-color="#C04342"/>
<stop offset="0.79" stop-color="#E25052"/>
</linearGradient>
<linearGradient id="paint5_linear" x1="-71.378" y1="-17.697" x2="-70.5261" y2="-17.697" gradientUnits="userSpaceOnUse">
<stop offset="0.15" stop-color="#9F3632"/>
<stop offset="0.48" stop-color="#C04342"/>
<stop offset="0.79" stop-color="#E25052"/>
</linearGradient>
<linearGradient id="paint6_linear" x1="-132.791" y1="-73.0394" x2="-130.928" y2="-73.0394" gradientUnits="userSpaceOnUse">
<stop offset="0.15" stop-color="#9F3632"/>
<stop offset="0.48" stop-color="#C04342"/>
<stop offset="0.79" stop-color="#E25052"/>
</linearGradient>
<linearGradient id="paint7_linear" x1="-132.791" y1="-62.1247" x2="-130.928" y2="-62.1247" gradientUnits="userSpaceOnUse">
<stop offset="0.15" stop-color="#9F3632"/>
<stop offset="0.48" stop-color="#C04342"/>
<stop offset="0.79" stop-color="#E25052"/>
</linearGradient>
<linearGradient id="paint8_linear" x1="-132.791" y1="-48.3041" x2="-130.928" y2="-48.3041" gradientUnits="userSpaceOnUse">
<stop offset="0.15" stop-color="#9F3632"/>
<stop offset="0.48" stop-color="#C04342"/>
<stop offset="0.79" stop-color="#E25052"/>
</linearGradient>
<linearGradient id="paint9_linear" x1="-132.791" y1="-40.2933" x2="-130.928" y2="-40.2933" gradientUnits="userSpaceOnUse">
<stop offset="0.15" stop-color="#9F3632"/>
<stop offset="0.48" stop-color="#C04342"/>
<stop offset="0.79" stop-color="#E25052"/>
</linearGradient>
<linearGradient id="paint10_linear" x1="-132.791" y1="-29.378" x2="-130.928" y2="-29.378" gradientUnits="userSpaceOnUse">
<stop offset="0.15" stop-color="#9F3632"/>
<stop offset="0.48" stop-color="#C04342"/>
<stop offset="0.79" stop-color="#E25052"/>
</linearGradient>
<linearGradient id="paint11_linear" x1="-132.791" y1="-18.4624" x2="-130.928" y2="-18.4624" gradientUnits="userSpaceOnUse">
<stop offset="0.15" stop-color="#9F3632"/>
<stop offset="0.48" stop-color="#C04342"/>
<stop offset="0.79" stop-color="#E25052"/>
</linearGradient>
<linearGradient id="paint12_linear" x1="-132.791" y1="-7.54719" x2="-130.928" y2="-7.54719" gradientUnits="userSpaceOnUse">
<stop offset="0.15" stop-color="#9F3632"/>
<stop offset="0.48" stop-color="#C04342"/>
<stop offset="0.79" stop-color="#E25052"/>
</linearGradient>
<linearGradient id="paint13_linear" x1="-133.162" y1="-0.0544974" x2="-131.295" y2="-0.0544974" gradientUnits="userSpaceOnUse">
<stop offset="0.15" stop-color="#9F3632"/>
<stop offset="0.48" stop-color="#C04342"/>
<stop offset="0.79" stop-color="#E25052"/>
</linearGradient>
<linearGradient id="paint14_linear" x1="-144.036" y1="-83.9551" x2="-142.173" y2="-83.9551" gradientUnits="userSpaceOnUse">
<stop offset="0.15" stop-color="#9F3632"/>
<stop offset="0.48" stop-color="#C04342"/>
<stop offset="0.79" stop-color="#E25052"/>
</linearGradient>
<linearGradient id="paint15_linear" x1="-144.036" y1="-73.0394" x2="-142.173" y2="-73.0394" gradientUnits="userSpaceOnUse">
<stop offset="0.15" stop-color="#9F3632"/>
<stop offset="0.48" stop-color="#C04342"/>
<stop offset="0.79" stop-color="#E25052"/>
</linearGradient>
<linearGradient id="paint16_linear" x1="-144.036" y1="-62.1247" x2="-142.173" y2="-62.1247" gradientUnits="userSpaceOnUse">
<stop offset="0.15" stop-color="#9F3632"/>
<stop offset="0.48" stop-color="#C04342"/>
<stop offset="0.79" stop-color="#E25052"/>
</linearGradient>
<linearGradient id="paint17_linear" x1="-144.036" y1="-51.1585" x2="-142.173" y2="-51.1585" gradientUnits="userSpaceOnUse">
<stop offset="0.15" stop-color="#9F3632"/>
<stop offset="0.48" stop-color="#C04342"/>
<stop offset="0.79" stop-color="#E25052"/>
</linearGradient>
<linearGradient id="paint18_linear" x1="-144.036" y1="-40.2933" x2="-142.173" y2="-40.2933" gradientUnits="userSpaceOnUse">
<stop offset="0.15" stop-color="#9F3632"/>
<stop offset="0.48" stop-color="#C04342"/>
<stop offset="0.79" stop-color="#E25052"/>
</linearGradient>
<linearGradient id="paint19_linear" x1="-144.036" y1="-29.378" x2="-142.173" y2="-29.378" gradientUnits="userSpaceOnUse">
<stop offset="0.15" stop-color="#9F3632"/>
<stop offset="0.48" stop-color="#C04342"/>
<stop offset="0.79" stop-color="#E25052"/>
</linearGradient>
<linearGradient id="paint20_linear" x1="-144.036" y1="-18.4624" x2="-142.173" y2="-18.4624" gradientUnits="userSpaceOnUse">
<stop offset="0.15" stop-color="#9F3632"/>
<stop offset="0.48" stop-color="#C04342"/>
<stop offset="0.79" stop-color="#E25052"/>
</linearGradient>
<linearGradient id="paint21_linear" x1="-144.036" y1="-7.54719" x2="-142.173" y2="-7.54719" gradientUnits="userSpaceOnUse">
<stop offset="0.15" stop-color="#9F3632"/>
<stop offset="0.48" stop-color="#C04342"/>
<stop offset="0.79" stop-color="#E25052"/>
</linearGradient>
<linearGradient id="paint22_linear" x1="-144.036" y1="3.3679" x2="-142.173" y2="3.3679" gradientUnits="userSpaceOnUse">
<stop offset="0.15" stop-color="#9F3632"/>
<stop offset="0.48" stop-color="#C04342"/>
<stop offset="0.79" stop-color="#E25052"/>
</linearGradient>
<linearGradient id="paint23_linear" x1="-144.036" y1="14.2843" x2="-142.173" y2="14.2843" gradientUnits="userSpaceOnUse">
<stop offset="0.15" stop-color="#9F3632"/>
<stop offset="0.48" stop-color="#C04342"/>
<stop offset="0.79" stop-color="#E25052"/>
</linearGradient>
<linearGradient id="paint24_linear" x1="-155.296" y1="-94.871" x2="-153.432" y2="-94.871" gradientUnits="userSpaceOnUse">
<stop offset="0.15" stop-color="#9F3632"/>
<stop offset="0.48" stop-color="#C04342"/>
<stop offset="0.79" stop-color="#E25052"/>
</linearGradient>
<linearGradient id="paint25_linear" x1="-155.296" y1="-83.9551" x2="-153.432" y2="-83.9551" gradientUnits="userSpaceOnUse">
<stop offset="0.15" stop-color="#9F3632"/>
<stop offset="0.48" stop-color="#C04342"/>
<stop offset="0.79" stop-color="#E25052"/>
</linearGradient>
<linearGradient id="paint26_linear" x1="-153.64" y1="-73.0394" x2="-151.795" y2="-73.0394" gradientUnits="userSpaceOnUse">
<stop offset="0.15" stop-color="#9F3632"/>
<stop offset="0.48" stop-color="#C04342"/>
<stop offset="0.79" stop-color="#E25052"/>
</linearGradient>
<linearGradient id="paint27_linear" x1="-155.296" y1="-62.1247" x2="-153.432" y2="-62.1247" gradientUnits="userSpaceOnUse">
<stop offset="0.15" stop-color="#9F3632"/>
<stop offset="0.48" stop-color="#C04342"/>
<stop offset="0.79" stop-color="#E25052"/>
</linearGradient>
<linearGradient id="paint28_linear" x1="-155.296" y1="-51.1585" x2="-153.432" y2="-51.1585" gradientUnits="userSpaceOnUse">
<stop offset="0.15" stop-color="#9F3632"/>
<stop offset="0.48" stop-color="#C04342"/>
<stop offset="0.79" stop-color="#E25052"/>
</linearGradient>
<linearGradient id="paint29_linear" x1="-155.296" y1="-40.2933" x2="-153.432" y2="-40.2933" gradientUnits="userSpaceOnUse">
<stop offset="0.15" stop-color="#9F3632"/>
<stop offset="0.48" stop-color="#C04342"/>
<stop offset="0.79" stop-color="#E25052"/>
</linearGradient>
<linearGradient id="paint30_linear" x1="-155.296" y1="-29.378" x2="-153.432" y2="-29.378" gradientUnits="userSpaceOnUse">
<stop offset="0.15" stop-color="#9F3632"/>
<stop offset="0.48" stop-color="#C04342"/>
<stop offset="0.79" stop-color="#E25052"/>
</linearGradient>
<linearGradient id="paint31_linear" x1="-155.296" y1="-18.4624" x2="-153.432" y2="-18.4624" gradientUnits="userSpaceOnUse">
<stop offset="0.15" stop-color="#9F3632"/>
<stop offset="0.48" stop-color="#C04342"/>
<stop offset="0.79" stop-color="#E25052"/>
</linearGradient>
<linearGradient id="paint32_linear" x1="-155.296" y1="-7.54719" x2="-153.432" y2="-7.54719" gradientUnits="userSpaceOnUse">
<stop offset="0.15" stop-color="#9F3632"/>
<stop offset="0.48" stop-color="#C04342"/>
<stop offset="0.79" stop-color="#E25052"/>
</linearGradient>
<linearGradient id="paint33_linear" x1="-155.296" y1="3.3679" x2="-153.432" y2="3.3679" gradientUnits="userSpaceOnUse">
<stop offset="0.15" stop-color="#9F3632"/>
<stop offset="0.48" stop-color="#C04342"/>
<stop offset="0.79" stop-color="#E25052"/>
</linearGradient>
<linearGradient id="paint34_linear" x1="-155.296" y1="14.2843" x2="-153.432" y2="14.2843" gradientUnits="userSpaceOnUse">
<stop offset="0.15" stop-color="#9F3632"/>
<stop offset="0.48" stop-color="#C04342"/>
<stop offset="0.79" stop-color="#E25052"/>
</linearGradient>
<linearGradient id="paint35_linear" x1="-155.296" y1="25.1994" x2="-153.432" y2="25.1994" gradientUnits="userSpaceOnUse">
<stop offset="0.15" stop-color="#9F3632"/>
<stop offset="0.48" stop-color="#C04342"/>
<stop offset="0.79" stop-color="#E25052"/>
</linearGradient>
<linearGradient id="paint36_linear" x1="-164.862" y1="-94.8597" x2="-163.034" y2="-94.8597" gradientUnits="userSpaceOnUse">
<stop offset="0.15" stop-color="#9F3632"/>
<stop offset="0.48" stop-color="#C04342"/>
<stop offset="0.79" stop-color="#E25052"/>
</linearGradient>
<linearGradient id="paint37_linear" x1="-164.862" y1="-83.9444" x2="-163.034" y2="-83.9444" gradientUnits="userSpaceOnUse">
<stop offset="0.15" stop-color="#9F3632"/>
<stop offset="0.48" stop-color="#C04342"/>
<stop offset="0.79" stop-color="#E25052"/>
</linearGradient>
<linearGradient id="paint38_linear" x1="-164.862" y1="-73.0293" x2="-163.034" y2="-73.0293" gradientUnits="userSpaceOnUse">
<stop offset="0.15" stop-color="#9F3632"/>
<stop offset="0.48" stop-color="#C04342"/>
<stop offset="0.79" stop-color="#E25052"/>
</linearGradient>
<linearGradient id="paint39_linear" x1="-164.862" y1="-62.1151" x2="-163.034" y2="-62.1151" gradientUnits="userSpaceOnUse">
<stop offset="0.15" stop-color="#9F3632"/>
<stop offset="0.48" stop-color="#C04342"/>
<stop offset="0.79" stop-color="#E25052"/>
</linearGradient>
<linearGradient id="paint40_linear" x1="-164.862" y1="-7.54009" x2="-163.034" y2="-7.54009" gradientUnits="userSpaceOnUse">
<stop offset="0.15" stop-color="#9F3632"/>
<stop offset="0.48" stop-color="#C04342"/>
<stop offset="0.79" stop-color="#E25052"/>
</linearGradient>
<linearGradient id="paint41_linear" x1="-164.862" y1="3.37446" x2="-163.034" y2="3.37446" gradientUnits="userSpaceOnUse">
<stop offset="0.15" stop-color="#9F3632"/>
<stop offset="0.48" stop-color="#C04342"/>
<stop offset="0.79" stop-color="#E25052"/>
</linearGradient>
<linearGradient id="paint42_linear" x1="-164.862" y1="14.2903" x2="-163.034" y2="14.2903" gradientUnits="userSpaceOnUse">
<stop offset="0.15" stop-color="#9F3632"/>
<stop offset="0.48" stop-color="#C04342"/>
<stop offset="0.79" stop-color="#E25052"/>
</linearGradient>
<linearGradient id="paint43_linear" x1="-164.862" y1="25.205" x2="-163.034" y2="25.205" gradientUnits="userSpaceOnUse">
<stop offset="0.15" stop-color="#9F3632"/>
<stop offset="0.48" stop-color="#C04342"/>
<stop offset="0.79" stop-color="#E25052"/>
</linearGradient>
<linearGradient id="paint44_linear" x1="-179.083" y1="-65.9461" x2="-177.207" y2="-65.9461" gradientUnits="userSpaceOnUse">
<stop offset="0.15" stop-color="#9F3632"/>
<stop offset="0.48" stop-color="#C04342"/>
<stop offset="0.79" stop-color="#E25052"/>
</linearGradient>
<linearGradient id="paint45_linear" x1="-177.864" y1="-94.871" x2="-176" y2="-94.871" gradientUnits="userSpaceOnUse">
<stop offset="0.15" stop-color="#9F3632"/>
<stop offset="0.48" stop-color="#C04342"/>
<stop offset="0.79" stop-color="#E25052"/>
</linearGradient>
<linearGradient id="paint46_linear" x1="-177.864" y1="-83.9551" x2="-176" y2="-83.9551" gradientUnits="userSpaceOnUse">
<stop offset="0.15" stop-color="#9F3632"/>
<stop offset="0.48" stop-color="#C04342"/>
<stop offset="0.79" stop-color="#E25052"/>
</linearGradient>
<linearGradient id="paint47_linear" x1="-177.864" y1="-73.0394" x2="-176" y2="-73.0394" gradientUnits="userSpaceOnUse">
<stop offset="0.15" stop-color="#9F3632"/>
<stop offset="0.48" stop-color="#C04342"/>
<stop offset="0.79" stop-color="#E25052"/>
</linearGradient>
<linearGradient id="paint48_linear" x1="-178.285" y1="-0.0509263" x2="-176.418" y2="-0.0509263" gradientUnits="userSpaceOnUse">
<stop offset="0.15" stop-color="#9F3632"/>
<stop offset="0.48" stop-color="#C04342"/>
<stop offset="0.79" stop-color="#E25052"/>
</linearGradient>
<linearGradient id="paint49_linear" x1="-177.864" y1="14.2843" x2="-176" y2="14.2843" gradientUnits="userSpaceOnUse">
<stop offset="0.15" stop-color="#9F3632"/>
<stop offset="0.48" stop-color="#C04342"/>
<stop offset="0.79" stop-color="#E25052"/>
</linearGradient>
<linearGradient id="paint50_linear" x1="-177.864" y1="25.1994" x2="-176" y2="25.1994" gradientUnits="userSpaceOnUse">
<stop offset="0.15" stop-color="#9F3632"/>
<stop offset="0.48" stop-color="#C04342"/>
<stop offset="0.79" stop-color="#E25052"/>
</linearGradient>
<linearGradient id="paint51_linear" x1="-170.416" y1="53.173" x2="-168.627" y2="53.173" gradientUnits="userSpaceOnUse">
<stop offset="0.15" stop-color="#9F3632"/>
<stop offset="0.48" stop-color="#C04342"/>
<stop offset="0.79" stop-color="#E25052"/>
</linearGradient>
<linearGradient id="paint52_linear" x1="-189.107" y1="-105.82" x2="-187.245" y2="-105.82" gradientUnits="userSpaceOnUse">
<stop offset="0.15" stop-color="#9F3632"/>
<stop offset="0.48" stop-color="#C04342"/>
<stop offset="0.79" stop-color="#E25052"/>
</linearGradient>
<linearGradient id="paint53_linear" x1="-189.107" y1="-94.871" x2="-187.245" y2="-94.871" gradientUnits="userSpaceOnUse">
<stop offset="0.15" stop-color="#9F3632"/>
<stop offset="0.48" stop-color="#C04342"/>
<stop offset="0.79" stop-color="#E25052"/>
</linearGradient>
<linearGradient id="paint54_linear" x1="-189.107" y1="-83.9551" x2="-187.245" y2="-83.9551" gradientUnits="userSpaceOnUse">
<stop offset="0.15" stop-color="#9F3632"/>
<stop offset="0.48" stop-color="#C04342"/>
<stop offset="0.79" stop-color="#E25052"/>
</linearGradient>
<linearGradient id="paint55_linear" x1="-189.107" y1="-73.0394" x2="-187.245" y2="-73.0394" gradientUnits="userSpaceOnUse">
<stop offset="0.15" stop-color="#9F3632"/>
<stop offset="0.48" stop-color="#C04342"/>
<stop offset="0.79" stop-color="#E25052"/>
</linearGradient>
<linearGradient id="paint56_linear" x1="-189.107" y1="3.3679" x2="-187.245" y2="3.3679" gradientUnits="userSpaceOnUse">
<stop offset="0.15" stop-color="#9F3632"/>
<stop offset="0.48" stop-color="#C04342"/>
<stop offset="0.79" stop-color="#E25052"/>
</linearGradient>
<linearGradient id="paint57_linear" x1="-189.107" y1="14.2843" x2="-187.245" y2="14.2843" gradientUnits="userSpaceOnUse">
<stop offset="0.15" stop-color="#9F3632"/>
<stop offset="0.48" stop-color="#C04342"/>
<stop offset="0.79" stop-color="#E25052"/>
</linearGradient>
<linearGradient id="paint58_linear" x1="-189.107" y1="25.1994" x2="-187.245" y2="25.1994" gradientUnits="userSpaceOnUse">
<stop offset="0.15" stop-color="#9F3632"/>
<stop offset="0.48" stop-color="#C04342"/>
<stop offset="0.79" stop-color="#E25052"/>
</linearGradient>
<linearGradient id="paint59_linear" x1="-189.107" y1="36.1147" x2="-187.245" y2="36.1147" gradientUnits="userSpaceOnUse">
<stop offset="0.15" stop-color="#9F3632"/>
<stop offset="0.48" stop-color="#C04342"/>
<stop offset="0.79" stop-color="#E25052"/>
</linearGradient>
<linearGradient id="paint60_linear" x1="122.067" y1="85.0872" x2="211.467" y2="85.0872" gradientUnits="userSpaceOnUse">
<stop stop-color="#E95456"/>
<stop offset="0.26" stop-color="#9F3632"/>
<stop offset="0.42" stop-color="#C04341"/>
<stop offset="0.51" stop-color="#D24A4A"/>
<stop offset="0.8" stop-color="#A63935"/>
<stop offset="1" stop-color="#E95256"/>
</linearGradient>
<linearGradient id="paint61_linear" x1="-2381.37" y1="-107.407" x2="2347.9" y2="-107.407" gradientUnits="userSpaceOnUse">
<stop stop-color="#E95456"/>
<stop offset="0.26" stop-color="#9F3632"/>
<stop offset="0.42" stop-color="#C04341"/>
<stop offset="0.51" stop-color="#D24A4A"/>
<stop offset="0.8" stop-color="#A63935"/>
<stop offset="1" stop-color="#E95256"/>
</linearGradient>
<linearGradient id="paint62_linear" x1="-1758.31" y1="-74.0839" x2="2970.96" y2="-74.0839" gradientUnits="userSpaceOnUse">
<stop stop-color="#E95456"/>
<stop offset="0.26" stop-color="#9F3632"/>
<stop offset="0.42" stop-color="#C04341"/>
<stop offset="0.51" stop-color="#D24A4A"/>
<stop offset="0.8" stop-color="#A63935"/>
<stop offset="1" stop-color="#E95256"/>
</linearGradient>
<linearGradient id="paint63_linear" x1="-1106.2" y1="-9.55207" x2="3393.49" y2="-9.55207" gradientUnits="userSpaceOnUse">
<stop stop-color="#E95456"/>
<stop offset="0.26" stop-color="#9F3632"/>
<stop offset="0.42" stop-color="#C04341"/>
<stop offset="0.51" stop-color="#D24A4A"/>
<stop offset="0.8" stop-color="#A63935"/>
<stop offset="1" stop-color="#E95256"/>
</linearGradient>
<linearGradient id="paint64_linear" x1="177.714" y1="47.4385" x2="177.714" y2="52.8319" gradientUnits="userSpaceOnUse">
<stop stop-color="#FF4F5B"/>
<stop offset="1" stop-color="#F14241"/>
</linearGradient>
<linearGradient id="paint65_linear" x1="177.714" y1="35.6406" x2="177.714" y2="41.0509" gradientUnits="userSpaceOnUse">
<stop stop-color="#FF4F5B"/>
<stop offset="1" stop-color="#F14241"/>
</linearGradient>
<linearGradient id="paint66_linear" x1="183.638" y1="42.3484" x2="183.638" y2="46.0901" gradientUnits="userSpaceOnUse">
<stop stop-color="#FF4F5B"/>
<stop offset="1" stop-color="#F14241"/>
</linearGradient>
<linearGradient id="paint67_linear" x1="171.824" y1="42.3484" x2="171.824" y2="46.0901" gradientUnits="userSpaceOnUse">
<stop stop-color="#FF4F5B"/>
<stop offset="1" stop-color="#F14241"/>
</linearGradient>
<linearGradient id="paint68_linear" x1="227.334" y1="14.371" x2="166.089" y2="14.371" gradientUnits="userSpaceOnUse">
<stop stop-color="#FF8594"/>
<stop offset="1" stop-color="#FE4652"/>
</linearGradient>
</defs>
</svg>
