<svg width="248" height="106" viewBox="0 0 248 106" fill="none" xmlns="http://www.w3.org/2000/svg">
<rect width="248" height="106" rx="12" fill="url(#paint0_linear)"/>
<mask id="mask0" mask-type="alpha" maskUnits="userSpaceOnUse" x="0" y="0" width="248" height="106">
<rect width="248" height="106" rx="12" fill="url(#paint1_linear)"/>
</mask>
<g mask="url(#mask0)">
<path d="M94.2952 1.6665V4.67536C93.508 4.6 92.7524 4.32947 92.0967 3.8884C91.4413 3.44735 90.9068 2.84975 90.5419 2.15005C89.8415 1.18291 89.3567 0.538177 88.351 0.538177C87.3454 0.538177 86.8425 1.18291 86.1422 2.15005C85.7859 2.84432 85.257 3.43598 84.6064 3.86863C83.9556 4.30129 83.2046 4.56052 82.4248 4.62163C81.6348 4.55606 80.875 4.28947 80.2179 3.84733C79.5609 3.40519 79.0284 2.80231 78.6716 2.09632C77.9892 1.12918 77.5222 0.484429 76.4986 0.484429C75.475 0.484429 75.0081 1.12918 74.3077 2.09632C73.9525 2.79987 73.4231 3.40118 72.7693 3.84316C72.1156 4.28514 71.3594 4.55311 70.5726 4.62163C69.7821 4.55776 69.0214 4.29184 68.3641 3.8495C67.7067 3.40718 67.1746 2.80338 66.8192 2.09632C66.1188 1.12918 65.67 0.484429 64.6285 0.484429C63.5869 0.484429 63.1557 1.12918 62.4553 2.09632C62.1001 2.80338 61.568 3.40718 60.9106 3.8495C60.2531 4.29184 59.4926 4.55776 58.7021 4.62163C57.9153 4.55311 57.1591 4.28514 56.5053 3.84316C55.8516 3.40118 55.322 2.79987 54.967 2.09632C54.2666 1.12918 53.8175 0.484429 52.7938 0.484429C51.7702 0.484429 51.2854 1.12918 50.585 2.09632C50.2431 2.81717 49.7121 3.43241 49.0481 3.87696C48.3842 4.3215 47.6122 4.57879 46.8138 4.62163C46.0267 4.54627 45.271 4.27574 44.6153 3.83469C43.9599 3.39362 43.4254 2.79602 43.0605 2.09632C42.3602 1.12918 41.8753 0.484429 40.8517 0.484429C39.8281 0.484429 39.3611 1.12918 38.6608 2.09632C38.3084 2.802 37.7796 3.40514 37.1252 3.84749C36.471 4.28985 35.7133 4.55647 34.9255 4.62163C34.1355 4.55606 33.3757 4.28947 32.7186 3.84733C32.0615 3.40519 31.5291 2.80231 31.1724 2.09632C30.472 1.12918 30.0229 0.484429 28.9813 0.484429C27.9398 0.484429 27.5089 1.12918 26.8086 2.09632C26.4534 2.79987 25.9238 3.40118 25.2699 3.84316C24.6162 4.28514 23.86 4.55311 23.0731 4.62163C22.2828 4.55776 21.5221 4.29184 20.8646 3.8495C20.2073 3.40718 19.6752 2.80338 19.3198 2.09632C18.6195 1.12918 18.1705 0.484429 17.1289 0.484429C16.0874 0.484429 15.6564 1.12918 14.956 2.09632C14.6006 2.80338 14.0687 3.40718 13.4112 3.8495C12.7538 4.29184 11.9933 4.55776 11.2029 4.62163C10.416 4.55311 9.65979 4.28514 9.00611 3.84316C8.35225 3.40118 7.82267 2.79987 7.46746 2.09632C6.76709 1.12918 6.30018 0.484429 5.27656 0.484429C4.25295 0.484429 3.76808 1.12918 3.06771 2.09632C2.73189 2.81816 2.205 3.43485 1.5436 3.87987C0.8822 4.32492 0.111257 4.58139 -0.685547 4.62163V1.6665C0.445817 1.6665 0.822938 1.02173 1.52331 0.0545917C1.86685 -0.651756 2.38512 -1.25922 3.0291 -1.71045C3.67326 -2.16169 4.42193 -2.44181 5.20473 -2.52441C5.99309 -2.46098 6.75147 -2.19504 7.40604 -1.7525C8.06062 -1.30995 8.58913 -0.70588 8.94003 0.000879765C9.6404 0.968014 10.1073 1.61277 11.1309 1.61277C12.1545 1.61277 12.6214 0.968014 13.3218 0.000879765C13.6743 -0.704805 14.2032 -1.30794 14.8576 -1.7503C15.5118 -2.19265 16.2693 -2.45927 17.0571 -2.52441C17.8471 -2.45885 18.6071 -2.19226 19.2642 -1.75012C19.9213 -1.30799 20.4537 -0.70511 20.8104 0.000879765C21.5107 0.968014 21.9777 1.61277 23.0013 1.61277C24.0249 1.61277 24.4738 0.968014 25.1742 0.000879765C25.5294 -0.702674 26.059 -1.30399 26.7129 -1.74597C27.3665 -2.18794 28.1228 -2.4559 28.9095 -2.52441C29.7 -2.46054 30.4605 -2.19463 31.118 -1.75231C31.7754 -1.30998 32.3074 -0.706185 32.6628 0.000879765C33.3631 0.968014 33.8121 1.61277 34.8537 1.61277C35.8952 1.61277 36.3262 0.968014 37.0266 0.000879765C37.3834 -0.70511 37.9159 -1.30799 38.573 -1.75012C39.2301 -2.19226 39.9899 -2.45885 40.7798 -2.52441C41.5698 -2.45885 42.3296 -2.19226 42.9869 -1.75012C43.644 -1.30799 44.1764 -0.70511 44.5333 0.000879765C45.2336 0.968014 45.6106 1.61277 46.742 1.61277C47.8733 1.61277 48.2504 0.968014 48.9508 0.000879765C49.3076 -0.70511 49.8401 -1.30799 50.4972 -1.75012C51.1543 -2.19226 51.9143 -2.45885 52.7041 -2.52441C53.494 -2.45885 54.254 -2.19226 54.9111 -1.75012C55.5682 -1.30799 56.1007 -0.70511 56.4573 0.000879765C57.1577 0.968014 57.6066 1.61277 58.6303 1.61277C59.6539 1.61277 60.1208 0.968014 60.8211 0.000879765C61.1764 -0.702674 61.7059 -1.30399 62.3598 -1.74597C63.0135 -2.18794 63.7697 -2.4559 64.5564 -2.52441C65.347 -2.46054 66.1075 -2.19463 66.7649 -1.75231C67.4224 -1.30998 67.9545 -0.706185 68.3097 0.000879765C69.0101 0.968014 69.477 1.61277 70.5006 1.61277C71.5242 1.61277 71.9732 0.968014 72.6735 0.000879765C73.0304 -0.70511 73.5626 -1.30799 74.2199 -1.75012C74.877 -2.19226 75.6368 -2.45885 76.4268 -2.52441C77.2146 -2.45927 77.9723 -2.19265 78.6265 -1.7503C79.2809 -1.30794 79.8097 -0.704805 80.1621 0.000879765C80.8625 0.968014 81.3296 1.61277 82.3532 1.61277C83.3768 1.61277 83.8256 0.968014 84.5259 0.000879765C84.8828 -0.70511 85.4152 -1.30799 86.0723 -1.75012C86.7294 -2.19226 87.4892 -2.45885 88.2792 -2.52441C89.0697 -2.46054 89.8304 -2.19463 90.4877 -1.75231C91.1451 -1.30998 91.677 -0.706185 92.0324 0.000879765C92.7867 0.968014 93.1997 1.6665 94.2952 1.6665Z" fill="url(#paint2_linear)"/>
<path d="M105.465 8.61545V11.6243C104.677 11.5455 103.92 11.2739 103.262 10.8333C102.604 10.3928 102.066 9.79706 101.694 9.09904C100.994 8.13191 100.527 7.48713 99.5034 7.48713C98.4797 7.48713 98.0126 8.13191 97.3123 9.09904C96.9572 9.80258 96.4277 10.4039 95.774 10.8459C95.1201 11.2878 94.3639 11.5558 93.5772 11.6243C92.7866 11.5604 92.0261 11.2945 91.3687 10.8522C90.7112 10.4099 90.1791 9.80609 89.8239 9.09904C89.1235 8.13191 88.6746 7.48713 87.633 7.48713C86.5914 7.48713 86.1604 8.13191 85.4601 9.09904C85.1032 9.80501 84.571 10.4079 83.9137 10.85C83.2566 11.2922 82.4966 11.5588 81.7066 11.6243C80.919 11.5592 80.1613 11.2926 79.5071 10.8502C78.8527 10.4078 78.3239 9.80471 77.9715 9.09904C77.2711 8.13191 76.8042 7.48713 75.7806 7.48713C74.757 7.48713 74.3081 8.13191 73.6077 9.09904C73.2509 9.80501 72.7184 10.4079 72.0613 10.85C71.4042 11.2922 70.6444 11.5588 69.8544 11.6243C69.0661 11.5609 68.3077 11.295 67.6531 10.8524C66.9985 10.4099 66.47 9.8058 66.1191 9.09904C65.4188 8.13191 64.9519 7.48713 63.9282 7.48713C62.9046 7.48713 62.4196 8.13191 61.7192 9.09904C61.3836 9.82086 60.8565 10.4376 60.1951 10.8826C59.5337 11.3276 58.7629 11.5841 57.9661 11.6243C57.1776 11.5455 56.4208 11.2739 55.763 10.8333C55.105 10.3928 54.5665 9.79706 54.1949 9.09904C53.4946 8.13191 53.0276 7.48713 52.004 7.48713C50.9804 7.48713 50.5135 8.13191 49.8131 9.09904C49.4563 9.80501 48.9238 10.4079 48.2667 10.85C47.6097 11.2922 46.8498 11.5588 46.0599 11.6243C45.272 11.5592 44.5144 11.2926 43.8602 10.8502C43.2058 10.4078 42.6769 9.80471 42.3246 9.09904C41.6242 8.13191 41.1573 7.48713 40.1337 7.48713C39.1101 7.48713 38.6611 8.13191 37.9607 9.09904C37.6039 9.80501 37.0716 10.4079 36.4144 10.85C35.7573 11.2922 34.9975 11.5588 34.2075 11.6243C33.4197 11.5592 32.662 11.2926 32.0078 10.8502C31.3534 10.4078 30.8245 9.80471 30.4722 9.09904C29.7718 8.13191 29.3047 7.48713 28.2811 7.48713C27.2575 7.48713 26.7908 8.13191 26.0904 9.09904C25.7393 9.8058 25.2108 10.4099 24.5562 10.8524C23.9017 11.295 23.1433 11.5609 22.3551 11.6243C21.5667 11.5609 20.8085 11.295 20.1538 10.8524C19.4992 10.4099 18.9707 9.8058 18.6196 9.09904C17.9193 8.13191 17.4525 7.48713 16.4289 7.48713C15.4053 7.48713 14.9204 8.13191 14.2201 9.09904C13.8826 9.81966 13.3552 10.4353 12.6941 10.8801C12.0329 11.3249 11.2631 11.5821 10.4668 11.6243V8.61545C11.5982 8.61545 11.9751 7.98863 12.6755 7.00358C13.028 6.2979 13.5569 5.69475 14.2111 5.25239C14.8655 4.81003 15.6231 4.54343 16.411 4.47827C17.2049 4.54567 17.9679 4.81697 18.6257 5.26579C19.2835 5.71461 19.8135 6.32564 20.1642 7.03939C20.8646 8.02443 21.3315 8.65129 22.3551 8.65129C23.3787 8.65129 23.8456 8.02443 24.546 7.03939C24.8969 6.33263 25.4254 5.72856 26.08 5.28603C26.7346 4.84347 27.4929 4.57753 28.2811 4.51409C29.0695 4.57753 29.8278 4.84347 30.4824 5.28603C31.137 5.72856 31.6655 6.33263 32.0166 7.03939C32.717 8.02443 33.1839 8.65129 34.2075 8.65129C35.2311 8.65129 35.698 8.02443 36.3984 7.03939C36.7493 6.33263 37.2778 5.72856 37.9324 5.28603C38.5869 4.84347 39.3453 4.57753 40.1337 4.51409C40.9237 4.57966 41.6835 4.84627 42.3406 5.28841C42.9976 5.73053 43.5301 6.33341 43.8868 7.03939C44.5871 8.02443 45.0363 8.65129 46.0599 8.65129C47.0835 8.65129 47.5502 8.02443 48.2506 7.03939C48.6058 6.33585 49.1354 5.73452 49.7892 5.29254C50.4429 4.85058 51.1991 4.5826 51.9861 4.51409C52.7791 4.57669 53.5427 4.84191 54.2032 5.2842C54.8637 5.7265 55.399 6.33098 55.7573 7.03939C56.4576 8.02443 56.8348 8.65129 57.9661 8.65129C59.0975 8.65129 59.4746 8.02443 60.175 7.03939C60.5302 6.33234 61.0623 5.72854 61.7197 5.2862C62.3772 4.84388 63.1377 4.57796 63.9282 4.51409C64.7164 4.57753 65.4748 4.84347 66.1294 5.28603C66.7839 5.72856 67.3126 6.33263 67.6635 7.03939C68.3639 8.02443 68.8308 8.65129 69.8544 8.65129C70.878 8.65129 71.3448 8.02443 72.0452 7.03939C72.3962 6.33263 72.9247 5.72856 73.5793 5.28603C74.2341 4.84347 74.9923 4.57753 75.7806 4.51409C76.5688 4.57753 77.3272 4.84347 77.9818 5.28603C78.6363 5.72856 79.1648 6.33263 79.5159 7.03939C80.2163 8.02443 80.683 8.65129 81.7066 8.65129C82.7303 8.65129 83.1973 8.02443 83.8977 7.03939C84.25 6.33372 84.7789 5.73057 85.4333 5.28823C86.0875 4.84587 86.8452 4.57923 87.633 4.51409C88.426 4.57669 89.1896 4.84191 89.8501 5.2842C90.5106 5.7265 91.0458 6.33098 91.4042 7.03939C92.1046 8.02443 92.5534 8.65129 93.5949 8.65129C94.6365 8.65129 95.0677 8.02443 95.7681 7.03939C96.1231 6.33585 96.6529 5.73452 97.3065 5.29254C97.9604 4.85058 98.7164 4.5826 99.5034 4.51409C100.293 4.57966 101.053 4.84627 101.71 5.28841C102.367 5.73053 102.9 6.33341 103.256 7.03939C103.975 7.98861 104.334 8.61545 105.465 8.61545Z" fill="url(#paint3_linear)"/>
<path d="M117.733 15.6363V18.6272C116.946 18.5488 116.192 18.2769 115.537 17.8361C114.882 17.3956 114.347 16.7995 113.979 16.1019C113.279 15.1348 112.812 14.4901 111.789 14.4901C110.765 14.4901 110.28 15.1348 109.58 16.1019C109.223 16.8187 108.683 17.4292 108.015 17.8723C107.347 18.3156 106.573 18.5758 105.773 18.6272C105.01 18.5404 104.281 18.2637 103.653 17.8224C103.026 17.3811 102.519 16.7895 102.181 16.1019C101.481 15.1348 101.014 14.4901 99.9902 14.4901C98.9666 14.4901 98.4995 15.1348 97.7991 16.1019C97.4468 16.8076 96.9179 17.4108 96.2635 17.8532C95.6093 18.2955 94.8516 18.562 94.0638 18.6272C93.2738 18.5617 92.514 18.295 91.8569 17.853C91.1997 17.4108 90.6674 16.8079 90.3105 16.1019C89.6102 15.1348 89.1612 14.4901 88.1197 14.4901C87.0781 14.4901 86.6473 15.1348 85.9469 16.1019C85.5944 16.8076 85.0655 17.4108 84.4111 17.8532C83.7569 18.2955 82.9992 18.562 82.2114 18.6272C81.4214 18.5617 80.6616 18.295 80.0045 17.853C79.3475 17.4108 78.815 16.8079 78.4582 16.1019C77.7578 15.1348 77.3088 14.4901 76.2852 14.4901C75.2616 14.4901 74.7767 15.1348 74.0764 16.1019C73.7345 16.8228 73.2034 17.438 72.5395 17.8825C71.8758 18.3271 71.1038 18.5844 70.3052 18.6272C69.5181 18.5518 68.7624 18.2814 68.1067 17.8403C67.4513 17.3991 66.9166 16.8017 66.5519 16.1019C65.8515 15.1348 65.3667 14.4901 64.3431 14.4901C63.3194 14.4901 62.8527 15.1348 62.1523 16.1019C61.8013 16.8087 61.2727 17.4128 60.618 17.8553C59.9634 18.2979 59.2052 18.5638 58.4169 18.6272C57.6269 18.5617 56.8671 18.295 56.21 17.853C55.5529 17.4108 55.0204 16.8079 54.6636 16.1019C53.9632 15.1348 53.5143 14.4901 52.4907 14.4901C51.4671 14.4901 51.0001 15.1348 50.2998 16.1019C49.9399 16.8128 49.402 17.4188 48.7381 17.8614C48.0742 18.3038 47.3069 18.5676 46.5106 18.6272C45.7203 18.5633 44.9596 18.2975 44.3021 17.8551C43.6448 17.4128 43.1127 16.809 42.7573 16.1019C42.057 15.1348 41.608 14.4901 40.5665 14.4901C39.5249 14.4901 39.0939 15.1348 38.3935 16.1019C38.0381 16.809 37.5062 17.4128 36.8487 17.8551C36.1913 18.2975 35.4308 18.5633 34.6403 18.6272C33.8535 18.5588 33.0973 18.2907 32.4436 17.8489C31.7898 17.4068 31.2602 16.8054 30.905 16.1019C30.2046 15.1348 29.7377 14.4901 28.732 14.4901C27.7264 14.4901 27.2235 15.1348 26.5232 16.1019C26.1812 16.8228 25.6502 17.438 24.9863 17.8825C24.3224 18.3271 23.5506 18.5844 22.752 18.6272V15.6363C23.8833 15.6363 24.2604 14.9915 24.9608 14.0065C25.3203 13.3026 25.8535 12.7015 26.5101 12.2598C27.1666 11.818 27.9252 11.5501 28.7142 11.4812C29.5031 11.5501 30.2615 11.818 30.9182 12.2598C31.5748 12.7015 32.1078 13.3026 32.4673 14.0065C33.1677 14.9915 33.6166 15.6363 34.6403 15.6363C35.6639 15.6363 36.1308 14.9915 36.8312 14.0065C37.1891 13.305 37.7194 12.7055 38.3727 12.2639C39.0258 11.8223 39.7806 11.553 40.5665 11.4812C41.3561 11.5484 42.1152 11.8157 42.7721 12.2576C43.429 12.6996 43.9616 13.3016 44.3199 14.0065C45.0203 14.9915 45.487 15.6363 46.5106 15.6363C47.5342 15.6363 47.9833 14.9915 48.6837 14.0065C49.0431 13.3026 49.5762 12.7015 50.2328 12.2598C50.8893 11.818 51.6479 11.5501 52.4368 11.4812C53.2232 11.5514 53.9787 11.82 54.6322 12.2618C55.2857 12.7036 55.8156 13.304 56.1721 14.0065C56.8725 14.9915 57.3394 15.6363 58.363 15.6363C59.3866 15.6363 59.8356 14.9915 60.5359 14.0065C60.8954 13.3026 61.4286 12.7015 62.0852 12.2598C62.7417 11.818 63.5003 11.5501 64.2894 11.4812C65.0818 11.5455 65.8447 11.8114 66.505 12.2535C67.1652 12.6956 67.7007 13.2991 68.0604 14.0065C68.7608 14.9915 69.1379 15.6363 70.2692 15.6363C71.4006 15.6363 71.7779 14.9915 72.4783 14.0065C72.8376 13.3026 73.3708 12.7015 74.0273 12.2598C74.6839 11.818 75.4425 11.5501 76.2314 11.4812C77.0204 11.5501 77.779 11.818 78.4355 12.2598C79.0921 12.7015 79.6253 13.3026 79.9846 14.0065C80.685 14.9915 81.1339 15.6363 82.1755 15.6363C83.2171 15.6363 83.6481 14.9915 84.3484 14.0065C84.7063 13.305 85.2367 12.7055 85.89 12.2639C86.5431 11.8223 87.2979 11.553 88.0839 11.4812C88.8734 11.5484 89.6324 11.8157 90.2892 12.2576C90.9461 12.6996 91.4789 13.3016 91.837 14.0065C92.5374 14.9915 93.0044 15.6363 94.0281 15.6363C95.0517 15.6363 95.5005 14.9915 96.2008 14.0065C96.5603 13.3026 97.0935 12.7015 97.7501 12.2598C98.4066 11.818 99.1652 11.5501 99.9541 11.4812C100.74 11.5514 101.496 11.82 102.149 12.2618C102.803 12.7036 103.333 13.304 103.69 14.0065C104.39 14.9915 104.857 15.6363 105.88 15.6363C106.904 15.6363 107.371 14.9915 108.053 14.0065C108.413 13.3026 108.946 12.7015 109.602 12.2598C110.259 11.818 111.018 11.5501 111.806 11.4812C112.596 11.5484 113.355 11.8157 114.012 12.2576C114.669 12.6996 115.202 13.3016 115.56 14.0065C116.224 14.9915 116.547 15.6363 117.733 15.6363Z" fill="url(#paint4_linear)"/>
<path d="M127.622 20.9556V24.0361H126.814C126.581 23.7674 126.383 23.4988 126.204 23.248C125.521 22.2988 125.036 21.672 124.013 21.672C123.852 21.6524 123.689 21.6524 123.528 21.672C122.845 21.869 122.414 22.4242 121.84 23.2301C121.66 23.4809 121.481 23.7495 121.247 24.0182H114.962L114.351 23.2301C113.651 22.263 113.202 21.6182 112.178 21.6182C111.155 21.6182 110.688 22.263 109.987 23.2301L109.395 24.0182H103.109C102.876 23.7495 102.696 23.4809 102.499 23.2301C101.816 22.263 101.35 21.6182 100.326 21.6182C99.3023 21.6182 98.8354 22.263 98.135 23.2301L97.5424 24.0182H91.2391L90.6465 23.2301C89.9461 22.263 89.4972 21.6182 88.4735 21.6182C87.4499 21.6182 86.9651 22.263 86.2647 23.2301C86.0672 23.4809 85.8876 23.7495 85.69 24.0182H79.3328L78.7402 23.2301C78.0398 22.263 77.5729 21.6182 76.5493 21.6182C75.5257 21.6182 75.0408 22.263 74.3405 23.2301L73.7479 24.0182H67.4445C67.2396 23.7653 67.048 23.5024 66.8699 23.2301C66.1695 22.263 65.7026 21.6182 64.661 21.6182C63.6194 21.6182 63.1885 22.263 62.4881 23.2301L61.8955 24.0182H55.6101C55.3767 23.7495 55.1971 23.4809 54.9995 23.2301C54.2992 22.263 53.8502 21.6182 52.8266 21.6182C51.803 21.6182 51.3361 22.263 50.6357 23.2301C50.4561 23.4809 50.2586 23.7495 50.0431 24.0182H43.7398L43.1471 23.2301C42.4468 22.263 41.9978 21.6182 40.9563 21.6182C39.9147 21.6182 39.4478 22.263 38.7474 23.2301C38.5678 23.4809 38.3882 23.7495 38.1727 24.0182H34.9941V22.7466C36.1255 22.7466 36.5026 22.1018 37.203 21.1168C37.5634 20.4152 38.0971 19.8169 38.7539 19.3781C39.4106 18.9395 40.1684 18.6747 40.9563 18.6094C41.7439 18.6747 42.5019 18.9395 43.1586 19.3781C43.8154 19.8169 44.3491 20.4152 44.7095 21.1168C45.4099 22.1018 45.8588 22.7466 46.8824 22.7466C47.9061 22.7466 48.373 22.1018 49.0733 21.1168C49.4338 20.4152 49.9675 19.8169 50.6242 19.3781C51.2809 18.9395 52.0389 18.6747 52.8266 18.6094C53.6112 18.6778 54.3654 18.9438 55.0188 19.3822C55.6721 19.8208 56.2029 20.4176 56.5619 21.1168C57.2623 22.1018 57.7292 22.7466 58.7528 22.7466C59.7764 22.7466 60.2254 22.1018 60.9257 21.1168C61.2845 20.4176 61.8156 19.8208 62.4689 19.3822C63.1222 18.9438 63.8764 18.6778 64.661 18.6094C65.4492 18.6731 66.2078 18.9369 66.8647 19.3759C67.5218 19.8149 68.0553 20.4142 68.4143 21.1168C69.1146 22.1018 69.5816 22.7466 70.6052 22.7466C71.6288 22.7466 72.0777 22.1018 72.7781 21.1168C73.1385 20.4152 73.6722 19.8169 74.329 19.3781C74.9857 18.9395 75.7435 18.6747 76.5314 18.6094C77.3194 18.6731 78.0783 18.9369 78.7352 19.3759C79.3921 19.8149 79.9255 20.4142 80.2846 21.1168C80.985 22.1018 81.3621 22.7466 82.4935 22.7466C83.6248 22.7466 84.002 22.1018 84.7023 21.1168C85.0627 20.4152 85.5965 19.8169 86.2532 19.3781C86.9099 18.9395 87.6679 18.6747 88.4556 18.6094C89.2432 18.6747 90.0012 18.9395 90.658 19.3781C91.3145 19.8169 91.8484 20.4152 92.2088 21.1168C92.8913 22.1018 93.3582 22.7466 94.3997 22.7466C95.4413 22.7466 95.8723 22.1018 96.5727 21.1168C96.9331 20.4152 97.4668 19.8169 98.1235 19.3781C98.7803 18.9395 99.5381 18.6747 100.326 18.6094C101.111 18.676 101.866 18.9414 102.52 19.38C103.173 19.8188 103.704 20.4165 104.061 21.1168C104.762 22.1018 105.229 22.7466 106.252 22.7466C107.276 22.7466 107.743 22.1018 108.425 21.1168C108.785 20.4152 109.319 19.8169 109.976 19.3781C110.633 18.9395 111.391 18.6747 112.178 18.6094C112.963 18.676 113.718 18.9414 114.372 19.38C115.025 19.8188 115.556 20.4165 115.914 21.1168C116.614 22.1018 117.081 22.7466 118.105 22.7466C119.128 22.7466 119.577 22.1018 120.277 21.1168L120.96 20.2213C121.312 19.7343 121.773 19.3353 122.305 19.0555C122.838 18.7759 123.429 18.6232 124.031 18.6094C124.779 18.6669 125.501 18.9121 126.129 19.3224C126.757 19.7325 127.27 20.2943 127.622 20.9556Z" fill="url(#paint5_linear)"/>
<path fill-rule="evenodd" clip-rule="evenodd" d="M222.839 16.6928C222.834 17.0412 222.692 17.3737 222.444 17.6184C222.194 17.863 221.86 18.0002 221.51 18.0002C221.162 18.0002 220.83 17.8625 220.584 17.6173C220.338 17.3721 220.199 17.0395 220.199 16.6928C220.199 16.3461 220.338 16.0135 220.584 15.7683C220.83 15.5231 221.162 15.3854 221.51 15.3854C221.684 15.3829 221.857 15.4149 222.017 15.4796C222.178 15.5442 222.325 15.6402 222.449 15.7618C222.573 15.8835 222.67 16.0285 222.739 16.1883C222.805 16.348 222.839 16.5196 222.839 16.6928Z" fill="url(#paint6_linear)"/>
<path fill-rule="evenodd" clip-rule="evenodd" d="M222.839 24.8062C222.839 24.9794 222.805 25.1508 222.739 25.3105C222.67 25.4705 222.573 25.6154 222.449 25.737C222.325 25.8586 222.178 25.9546 222.017 26.0192C221.857 26.0839 221.684 26.116 221.51 26.1136C221.162 26.1136 220.83 25.9759 220.584 25.7305C220.338 25.4853 220.199 25.1529 220.199 24.8062C220.199 24.4595 220.338 24.1269 220.584 23.8817C220.83 23.6365 221.162 23.4988 221.51 23.4988C221.86 23.4986 222.194 23.6358 222.444 23.8806C222.692 24.1253 222.834 24.4577 222.839 24.8062Z" fill="url(#paint7_linear)"/>
<path fill-rule="evenodd" clip-rule="evenodd" d="M222.839 32.9374C222.834 33.2858 222.692 33.6184 222.444 33.863C222.194 34.1077 221.86 34.2448 221.51 34.2448C221.162 34.2448 220.83 34.1071 220.584 33.8619C220.338 33.6167 220.199 33.2842 220.199 32.9374C220.199 32.5907 220.338 32.2581 220.584 32.0129C220.83 31.7677 221.162 31.63 221.51 31.63C221.684 31.6277 221.857 31.6597 222.017 31.7242C222.178 31.7889 222.325 31.8849 222.449 32.0065C222.573 32.1281 222.67 32.2731 222.739 32.4329C222.805 32.5927 222.839 32.7642 222.839 32.9374Z" fill="url(#paint8_linear)"/>
<path fill-rule="evenodd" clip-rule="evenodd" d="M222.839 41.0503C222.839 41.2242 222.805 41.3967 222.739 41.5576C222.672 41.7182 222.573 41.8643 222.449 41.9874C222.327 42.1104 222.18 42.2082 222.018 42.2747C221.857 42.3413 221.684 42.3757 221.51 42.3757C221.16 42.3708 220.828 42.2292 220.582 41.9811C220.337 41.7331 220.199 41.3987 220.199 41.0503C220.199 40.7036 220.338 40.371 220.584 40.1258C220.83 39.8806 221.162 39.7429 221.51 39.7429C221.86 39.7427 222.194 39.8799 222.444 40.1248C222.692 40.3694 222.834 40.7018 222.839 41.0503Z" fill="url(#paint9_linear)"/>
<path fill-rule="evenodd" clip-rule="evenodd" d="M222.839 49.1814C222.834 49.5298 222.692 49.8624 222.444 50.107C222.194 50.3517 221.86 50.4889 221.51 50.4889C221.162 50.4889 220.83 50.3511 220.584 50.106C220.338 49.8608 220.199 49.5282 220.199 49.1814C220.199 48.8347 220.338 48.5021 220.584 48.2569C220.83 48.0118 221.162 47.874 221.51 47.874C221.86 47.874 222.194 48.011 222.444 48.2559C222.692 48.5005 222.834 48.8331 222.839 49.1814Z" fill="url(#paint10_linear)"/>
<path fill-rule="evenodd" clip-rule="evenodd" d="M222.839 57.2947C222.839 57.4688 222.805 57.6411 222.739 57.8019C222.672 57.9626 222.573 58.1087 222.449 58.2318C222.327 58.355 222.18 58.4526 222.018 58.519C221.857 58.5857 221.684 58.6201 221.51 58.6201C221.16 58.6152 220.828 58.4736 220.582 58.2255C220.337 57.9774 220.199 57.6431 220.199 57.2947C220.199 56.948 220.338 56.6154 220.584 56.3702C220.83 56.125 221.162 55.9873 221.51 55.9873C221.86 55.9873 222.194 56.1243 222.444 56.3691C222.692 56.6138 222.834 56.9464 222.839 57.2947Z" fill="url(#paint11_linear)"/>
<path fill-rule="evenodd" clip-rule="evenodd" d="M230.973 16.6927C230.973 17.0394 230.835 17.3718 230.589 17.6172C230.343 17.8624 230.011 18.0001 229.663 18.0001C229.314 18.0001 228.982 17.8624 228.736 17.6172C228.49 17.3718 228.352 17.0394 228.352 16.6927C228.352 16.3459 228.49 16.0134 228.736 15.7682C228.982 15.523 229.314 15.3853 229.663 15.3853C230.011 15.3853 230.343 15.523 230.589 15.7682C230.835 16.0134 230.973 16.3459 230.973 16.6927Z" fill="url(#paint12_linear)"/>
<path fill-rule="evenodd" clip-rule="evenodd" d="M230.973 24.8062C230.973 25.1529 230.835 25.4853 230.589 25.7305C230.343 25.9759 230.011 26.1136 229.663 26.1136C229.314 26.1136 228.982 25.9759 228.736 25.7305C228.49 25.4853 228.352 25.1529 228.352 24.8062C228.352 24.4595 228.49 24.1269 228.736 23.8817C228.982 23.6365 229.314 23.4988 229.663 23.4988C230.011 23.4988 230.343 23.6365 230.589 23.8817C230.835 24.1269 230.973 24.4595 230.973 24.8062Z" fill="url(#paint13_linear)"/>
<path fill-rule="evenodd" clip-rule="evenodd" d="M230.973 32.9373C230.973 33.284 230.835 33.6166 230.589 33.8618C230.343 34.107 230.011 34.2447 229.663 34.2447C229.314 34.2447 228.982 34.107 228.736 33.8618C228.49 33.6166 228.352 33.284 228.352 32.9373C228.352 32.5906 228.49 32.258 228.736 32.0128C228.982 31.7676 229.314 31.6299 229.663 31.6299C230.011 31.6299 230.343 31.7676 230.589 32.0128C230.835 32.258 230.973 32.5906 230.973 32.9373Z" fill="url(#paint14_linear)"/>
<path fill-rule="evenodd" clip-rule="evenodd" d="M230.973 41.0503C230.973 41.3987 230.835 41.7331 230.591 41.9811C230.345 42.2292 230.013 42.3708 229.663 42.3757C229.314 42.3708 228.98 42.2292 228.734 41.9811C228.49 41.7331 228.352 41.3987 228.352 41.0503C228.352 40.7036 228.49 40.371 228.736 40.1258C228.982 39.8806 229.314 39.7429 229.663 39.7429C230.011 39.7429 230.343 39.8806 230.589 40.1258C230.835 40.371 230.973 40.7036 230.973 41.0503Z" fill="url(#paint15_linear)"/>
<path fill-rule="evenodd" clip-rule="evenodd" d="M230.973 49.1814C230.973 49.5282 230.835 49.8608 230.589 50.106C230.343 50.3511 230.011 50.4889 229.663 50.4889C229.314 50.4889 228.982 50.3511 228.736 50.106C228.49 49.8608 228.352 49.5282 228.352 49.1814C228.352 48.8347 228.49 48.5021 228.736 48.2569C228.982 48.0118 229.314 47.874 229.663 47.874C230.011 47.874 230.343 48.0118 230.589 48.2569C230.835 48.5021 230.973 48.8347 230.973 49.1814Z" fill="url(#paint16_linear)"/>
<path fill-rule="evenodd" clip-rule="evenodd" d="M230.973 57.2947C230.973 57.6431 230.835 57.9774 230.591 58.2255C230.345 58.4736 230.013 58.6152 229.663 58.6201C229.314 58.6152 228.98 58.4736 228.734 58.2255C228.49 57.9774 228.352 57.6431 228.352 57.2947C228.352 56.948 228.49 56.6154 228.736 56.3702C228.982 56.125 229.314 55.9873 229.663 55.9873C230.011 55.9873 230.343 56.125 230.589 56.3702C230.835 56.6154 230.973 56.948 230.973 57.2947Z" fill="url(#paint17_linear)"/>
<path fill-rule="evenodd" clip-rule="evenodd" d="M239.128 16.6928C239.123 17.0412 238.981 17.3737 238.733 17.6184C238.483 17.863 238.149 18.0002 237.799 18.0002C237.451 18.0002 237.119 17.8625 236.873 17.6173C236.627 17.3721 236.488 17.0395 236.488 16.6928C236.488 16.3461 236.627 16.0135 236.873 15.7683C237.119 15.5231 237.451 15.3854 237.799 15.3854C237.973 15.3829 238.146 15.4149 238.307 15.4796C238.467 15.5442 238.615 15.6402 238.738 15.7618C238.862 15.8835 238.959 16.0285 239.028 16.1883C239.094 16.348 239.128 16.5196 239.128 16.6928Z" fill="url(#paint18_linear)"/>
<path fill-rule="evenodd" clip-rule="evenodd" d="M239.128 24.8063C239.128 24.9794 239.094 25.1508 239.028 25.3106C238.959 25.4705 238.862 25.6154 238.738 25.737C238.615 25.8586 238.467 25.9546 238.307 26.0193C238.146 26.0839 237.973 26.116 237.799 26.1137C237.451 26.1137 237.119 25.9759 236.873 25.7306C236.627 25.4854 236.488 25.153 236.488 24.8063C236.506 24.4688 236.655 24.1518 236.903 23.9215C237.151 23.691 237.478 23.5653 237.817 23.5705C238.167 23.5703 238.501 23.7075 238.751 23.9523C238.999 24.197 239.141 24.5294 239.146 24.8779L239.128 24.8063Z" fill="url(#paint19_linear)"/>
<path fill-rule="evenodd" clip-rule="evenodd" d="M239.126 32.9373C239.133 33.1143 239.104 33.2909 239.041 33.4567C238.98 33.6227 238.885 33.7744 238.763 33.9029C238.641 34.0314 238.494 34.1343 238.33 34.2054C238.169 34.2763 237.993 34.3141 237.815 34.3164C237.642 34.3164 237.472 34.2825 237.314 34.2168C237.154 34.1511 237.01 34.0547 236.888 33.9333C236.766 33.8121 236.669 33.6679 236.604 33.5092C236.538 33.3505 236.504 33.1806 236.504 33.009C236.504 32.8372 236.538 32.6673 236.604 32.5086C236.669 32.3499 236.766 32.2059 236.888 32.0845C237.01 31.963 237.154 31.8667 237.314 31.801C237.472 31.7352 237.642 31.7016 237.815 31.7016C237.989 31.699 238.161 31.7311 238.321 31.7958C238.483 31.8604 238.63 31.9564 238.754 32.078C238.878 32.1996 238.975 32.3445 239.043 32.5045C239.11 32.6642 239.144 32.8356 239.144 33.009L239.126 32.9373Z" fill="url(#paint20_linear)"/>
<path fill-rule="evenodd" clip-rule="evenodd" d="M239.129 41.0505C239.129 41.4019 238.989 41.7391 238.74 41.9876C238.49 42.2361 238.152 42.3758 237.8 42.3758C237.45 42.3712 237.118 42.2293 236.872 41.9813C236.628 41.7332 236.489 41.3989 236.489 41.0505C236.482 40.8728 236.511 40.6955 236.576 40.5293C236.638 40.3633 236.735 40.212 236.859 40.0844C236.985 39.9571 237.134 39.8563 237.297 39.7884C237.463 39.7205 237.64 39.6867 237.818 39.6894C238.167 39.6894 238.502 39.8265 238.752 40.0712C239 40.3158 239.142 40.6484 239.147 40.9968L239.129 41.0505Z" fill="url(#paint21_linear)"/>
<path fill-rule="evenodd" clip-rule="evenodd" d="M239.126 49.1815C239.108 49.5173 238.962 49.8337 238.718 50.0666C238.476 50.2992 238.152 50.431 237.815 50.4352C237.642 50.4352 237.472 50.4013 237.314 50.3356C237.154 50.2698 237.01 50.1735 236.888 50.0522C236.766 49.9308 236.669 49.7866 236.604 49.628C236.538 49.4695 236.504 49.2993 236.504 49.1277C236.504 48.956 236.538 48.786 236.604 48.6273C236.669 48.4688 236.766 48.3247 236.888 48.2032C237.01 48.0818 237.154 47.9854 237.314 47.9197C237.472 47.8542 237.642 47.8203 237.815 47.8203C238.165 47.8203 238.499 47.9573 238.749 48.2022C238.996 48.4468 239.138 48.7794 239.144 49.1277L239.126 49.1815Z" fill="url(#paint22_linear)"/>
<path fill-rule="evenodd" clip-rule="evenodd" d="M239.128 57.2947C239.128 57.6461 238.988 57.9834 238.738 58.2318C238.491 58.4804 238.151 58.6201 237.799 58.6201C237.451 58.6152 237.117 58.4736 236.871 58.2255C236.627 57.9774 236.488 57.6431 236.488 57.2947C236.488 56.948 236.627 56.6154 236.873 56.3702C237.119 56.125 237.451 55.9873 237.799 55.9873C238.149 55.9873 238.483 56.1243 238.733 56.3691C238.981 56.6138 239.123 56.9464 239.128 57.2947Z" fill="url(#paint23_linear)"/>
<path fill-rule="evenodd" clip-rule="evenodd" d="M247.263 16.6927C247.263 17.0394 247.124 17.3718 246.878 17.6172C246.632 17.8624 246.3 18.0001 245.952 18.0001C245.603 18.0001 245.271 17.8624 245.025 17.6172C244.779 17.3718 244.641 17.0394 244.641 16.6927C244.641 16.3459 244.779 16.0134 245.025 15.7682C245.271 15.523 245.603 15.3853 245.952 15.3853C246.3 15.3853 246.632 15.523 246.878 15.7682C247.124 16.0134 247.263 16.3459 247.263 16.6927Z" fill="url(#paint24_linear)"/>
<path fill-rule="evenodd" clip-rule="evenodd" d="M247.263 24.8062C247.263 25.1529 247.124 25.4853 246.878 25.7305C246.632 25.9759 246.3 26.1136 245.952 26.1136C245.603 26.1136 245.271 25.9759 245.025 25.7305C244.779 25.4853 244.641 25.1529 244.641 24.8062C244.641 24.4595 244.779 24.1269 245.025 23.8817C245.271 23.6365 245.603 23.4988 245.952 23.4988C246.3 23.4988 246.632 23.6365 246.878 23.8817C247.124 24.1269 247.263 24.4595 247.263 24.8062Z" fill="url(#paint25_linear)"/>
<path fill-rule="evenodd" clip-rule="evenodd" d="M247.263 32.9373C247.263 33.284 247.124 33.6166 246.878 33.8618C246.632 34.107 246.3 34.2447 245.952 34.2447C245.603 34.2447 245.271 34.107 245.025 33.8618C244.779 33.6166 244.641 33.284 244.641 32.9373C244.641 32.5906 244.779 32.258 245.025 32.0128C245.271 31.7676 245.603 31.6299 245.952 31.6299C246.3 31.6299 246.632 31.7676 246.878 32.0128C247.124 32.258 247.263 32.5906 247.263 32.9373Z" fill="url(#paint26_linear)"/>
<path fill-rule="evenodd" clip-rule="evenodd" d="M247.263 41.0503C247.263 41.3987 247.124 41.7331 246.88 41.9811C246.634 42.2292 246.302 42.3708 245.952 42.3757C245.603 42.3708 245.269 42.2292 245.023 41.9811C244.779 41.7331 244.641 41.3987 244.641 41.0503C244.641 40.7036 244.779 40.371 245.025 40.1258C245.271 39.8806 245.603 39.7429 245.952 39.7429C246.3 39.7429 246.632 39.8806 246.878 40.1258C247.124 40.371 247.263 40.7036 247.263 41.0503Z" fill="url(#paint27_linear)"/>
<path fill-rule="evenodd" clip-rule="evenodd" d="M247.263 49.1814C247.263 49.5282 247.124 49.8608 246.878 50.106C246.632 50.3511 246.3 50.4889 245.952 50.4889C245.603 50.4889 245.271 50.3511 245.025 50.106C244.779 49.8608 244.641 49.5282 244.641 49.1814C244.641 48.8347 244.779 48.5021 245.025 48.2569C245.271 48.0118 245.603 47.874 245.952 47.874C246.3 47.874 246.632 48.0118 246.878 48.2569C247.124 48.5021 247.263 48.8347 247.263 49.1814Z" fill="url(#paint28_linear)"/>
<path fill-rule="evenodd" clip-rule="evenodd" d="M247.263 57.2947C247.263 57.6431 247.124 57.9774 246.88 58.2255C246.634 58.4736 246.302 58.6152 245.952 58.6201C245.603 58.6152 245.269 58.4736 245.023 58.2255C244.779 57.9774 244.641 57.6431 244.641 57.2947C244.641 56.948 244.779 56.6154 245.025 56.3702C245.271 56.125 245.603 55.9873 245.952 55.9873C246.3 55.9873 246.632 56.125 246.878 56.3702C247.124 56.6154 247.263 56.948 247.263 57.2947Z" fill="url(#paint29_linear)"/>
<path d="M53.3859 99.9563C52.8605 99.9563 52.356 99.7492 51.9827 99.3803C51.6095 99.0113 51.3972 98.5102 51.3926 97.9862V96.1952C51.3972 95.671 51.6095 95.17 51.9827 94.8011C52.356 94.4321 52.8605 94.2251 53.3859 94.2251C53.9116 94.2251 54.4158 94.4321 54.7892 94.8011C55.1625 95.17 55.3746 95.671 55.3793 96.1952V97.9862C55.3746 98.5102 55.1625 99.0113 54.7892 99.3803C54.4158 99.7492 53.9116 99.9563 53.3859 99.9563Z" fill="url(#paint30_linear)" fill-opacity="0.5"/>
<path d="M53.3859 87.4371C52.8605 87.4371 52.356 87.2302 51.9827 86.8611C51.6095 86.4921 51.3972 85.9912 51.3926 85.467V83.676C51.3926 83.1487 51.6025 82.6431 51.9764 82.2702C52.3503 81.8975 52.8572 81.688 53.3859 81.688C53.9146 81.688 54.4216 81.8975 54.7955 82.2702C55.1694 82.6431 55.3793 83.1487 55.3793 83.676V85.467C55.3746 85.9912 55.1625 86.4921 54.7892 86.8611C54.4158 87.2302 53.9116 87.4371 53.3859 87.4371Z" fill="url(#paint31_linear)" fill-opacity="0.5"/>
<path d="M60.5681 92.7919H58.7723C58.2468 92.7873 57.7444 92.5757 57.3744 92.2034C57.0045 91.831 56.7969 91.3281 56.7969 90.8039C56.7969 90.2799 57.0045 89.7768 57.3744 89.4044C57.7444 89.0323 58.2468 88.8206 58.7723 88.8159H60.5681C61.0968 88.8159 61.6037 89.0255 61.9776 89.3982C62.3515 89.7711 62.5614 90.2766 62.5614 90.8039C62.5614 91.3312 62.3515 91.8368 61.9776 92.2097C61.6037 92.5825 61.0968 92.7919 60.5681 92.7919Z" fill="url(#paint32_linear)" fill-opacity="0.5"/>
<path d="M48.0333 92.7919H46.2375C45.7088 92.7919 45.2018 92.5825 44.828 92.2097C44.4543 91.8368 44.2441 91.3312 44.2441 90.8039C44.2441 90.2766 44.4543 89.7711 44.828 89.3982C45.2018 89.0255 45.7088 88.8159 46.2375 88.8159H48.0333C48.5589 88.8206 49.0612 89.0323 49.4312 89.4044C49.8013 89.7768 50.0087 90.2799 50.0087 90.8039C50.0087 91.3281 49.8013 91.831 49.4312 92.2034C49.0612 92.5757 48.5589 92.7873 48.0333 92.7919Z" fill="url(#paint33_linear)" fill-opacity="0.5"/>
<path d="M220.254 78.0828H189.67C193.764 78.1829 197.654 79.8308 200.511 82.6741C203.37 85.5175 204.967 89.3312 204.961 93.3006C204.963 95.3049 205.373 97.2891 206.166 99.1398C206.96 100.991 208.124 102.671 209.587 104.086C211.053 105.5 212.791 106.621 214.704 107.384C216.614 108.146 218.663 108.536 220.732 108.53C224.895 108.524 228.885 106.917 231.827 104.061C234.766 101.206 236.419 97.3357 236.419 93.3006C236.419 89.2666 234.766 85.3975 231.825 82.5439C228.883 79.6905 224.893 78.0858 220.732 78.0828H220.312" fill="url(#paint34_linear)"/>
</g>
<path d="M99.1775 50.0867C99.1775 55.5128 95.5396 57.9911 89.7739 57.9911H87.2401V63.0285C87.2401 63.4195 87.0845 63.7944 86.8074 64.0707C86.5302 64.3472 86.1541 64.5026 85.7622 64.5026H81.8968C81.7048 64.5004 81.5152 64.4605 81.3387 64.3854C81.1621 64.3102 81.0023 64.201 80.8679 64.0641C80.7337 63.9273 80.6278 63.7654 80.5564 63.5876C80.4848 63.4099 80.4491 63.2199 80.4513 63.0285V43.0569C80.4513 42.6747 80.6036 42.308 80.8747 42.0376C81.1458 41.7672 81.5133 41.6155 81.8968 41.6155H89.855C96.1079 41.6155 99.1775 44.9845 99.1775 50.0867ZM92.3237 50.0867C92.3388 49.7586 92.2813 49.4313 92.1551 49.128C92.029 48.8246 91.8373 48.5527 91.5939 48.3316C91.3505 48.1105 91.0611 47.9456 90.7465 47.8486C90.4319 47.7516 90.0999 47.725 89.7739 47.7705H87.2401V52.4354H89.855C90.177 52.466 90.5021 52.427 90.8078 52.3214C91.1135 52.2158 91.3928 52.0459 91.6269 51.8231C91.8611 51.6004 92.0444 51.33 92.1646 51.0305C92.2848 50.7309 92.3391 50.4091 92.3237 50.0867Z" fill="black"/>
<path d="M124.593 53.0672C124.58 55.3941 123.876 57.6649 122.571 59.5933C121.265 61.5215 119.415 63.0207 117.256 63.9017C115.096 64.7824 112.723 65.0054 110.437 64.5425C108.15 64.0796 106.052 62.9514 104.408 61.3004C102.764 59.6493 101.647 57.5496 101.199 55.2661C100.75 52.9825 100.99 50.6175 101.888 48.4699C102.786 46.3223 104.302 44.4881 106.245 43.199C108.187 41.9099 110.469 41.2236 112.802 41.2267C114.369 41.1839 115.928 41.4613 117.384 42.0422C118.839 42.6231 120.16 43.4951 121.265 44.6044C122.369 45.7137 123.234 47.0368 123.807 48.4922C124.379 49.9476 124.647 51.5047 124.593 53.0672ZM117.82 53.0672C117.763 52.0918 117.421 51.1542 116.836 50.3704C116.251 49.5866 115.449 48.9906 114.529 48.656C113.608 48.3216 112.609 48.2631 111.656 48.488C110.702 48.7127 109.836 49.2109 109.163 49.9211C108.49 50.6313 108.04 51.5225 107.869 52.4846C107.698 53.4466 107.813 54.4377 108.2 55.3353C108.587 56.233 109.229 56.9982 110.047 57.5364C110.864 58.0745 111.822 58.3621 112.802 58.3638C113.493 58.3872 114.18 58.264 114.82 58.0021C115.459 57.7402 116.035 57.3457 116.51 56.8447C116.984 56.3438 117.347 55.748 117.573 55.0966C117.799 54.4453 117.883 53.7536 117.82 53.0672Z" fill="black"/>
<path d="M150.193 53.0672C150.18 55.3934 149.476 57.6637 148.171 59.5916C146.866 61.5195 145.017 63.0187 142.859 63.9001C140.7 64.7813 138.328 65.0054 136.042 64.5438C133.756 64.0821 131.658 62.9554 130.014 61.3061C128.369 59.6567 127.251 57.5584 126.8 55.276C126.35 52.9934 126.588 50.6291 127.483 48.4812C128.379 46.3333 129.892 44.498 131.832 43.2069C133.773 41.9157 136.053 41.2267 138.385 41.2267C139.953 41.1839 141.513 41.4615 142.969 42.0421C144.426 42.6228 145.747 43.4945 146.853 44.6036C147.959 45.7126 148.826 47.0355 149.4 48.4911C149.975 49.9465 150.244 51.5038 150.193 53.0672ZM143.404 53.0672C143.347 52.0916 143.005 51.1542 142.42 50.3704C141.835 49.5866 141.032 48.9906 140.112 48.656C139.191 48.3216 138.193 48.2631 137.239 48.488C136.286 48.7127 135.419 49.2109 134.746 49.9211C134.073 50.6313 133.624 51.5225 133.452 52.4845C133.281 53.4466 133.396 54.4377 133.783 55.3353C134.17 56.233 134.812 56.9982 135.63 57.5362C136.448 58.0745 137.406 58.3621 138.385 58.3637C139.076 58.3872 139.764 58.2639 140.403 58.002C141.042 57.7401 141.618 57.3456 142.093 56.8447C142.568 56.3438 142.93 55.7478 143.156 55.0966C143.382 54.4453 143.466 53.7536 143.404 53.0672Z" fill="black"/>
<path d="M166.821 58.3638C167.2 58.3681 167.561 58.5197 167.828 58.7861C168.096 59.0524 168.247 59.4125 168.252 59.7893V63.0287C168.256 63.2194 168.222 63.4091 168.152 63.5867C168.083 63.7642 167.978 63.9263 167.846 64.0634C167.712 64.2004 167.553 64.31 167.378 64.3853C167.202 64.4608 167.013 64.5006 166.821 64.5028H154.382C154.188 64.5028 153.996 64.4645 153.819 64.3903C153.639 64.3159 153.477 64.2072 153.342 64.07C153.206 63.9329 153.098 63.7703 153.026 63.5916C152.953 63.4129 152.917 63.2216 152.92 63.0287V43.0572C152.92 42.8665 152.958 42.6777 153.03 42.5018C153.104 42.3258 153.213 42.1662 153.348 42.032C153.485 41.898 153.645 41.7921 153.823 41.7207C154.001 41.6491 154.19 41.6135 154.382 41.6156H158.263C158.644 41.6198 159.011 41.7731 159.28 42.0425C159.55 42.312 159.705 42.6762 159.708 43.0572V58.3638H166.821Z" fill="black"/>
<defs>
<linearGradient id="paint0_linear" x1="124" y1="0.154643" x2="124" y2="106" gradientUnits="userSpaceOnUse">
<stop stop-color="#F9B233"/>
<stop offset="1" stop-color="#D97213"/>
</linearGradient>
<linearGradient id="paint1_linear" x1="123.985" y1="0" x2="123.985" y2="105.929" gradientUnits="userSpaceOnUse">
<stop stop-color="#6FD74A"/>
<stop offset="1" stop-color="#24A240"/>
</linearGradient>
<linearGradient id="paint2_linear" x1="-0.703505" y1="1.05756" x2="94.2952" y2="1.05756" gradientUnits="userSpaceOnUse">
<stop stop-color="#F8AE31"/>
<stop offset="0.04" stop-color="#FAB622"/>
<stop offset="0.12" stop-color="#FBBF0F"/>
<stop offset="0.2" stop-color="#FDC504"/>
<stop offset="0.28" stop-color="#FDC700"/>
<stop offset="0.67" stop-color="#F8AE31"/>
<stop offset="0.89" stop-color="#FCC600"/>
<stop offset="1" stop-color="#F8AE31"/>
</linearGradient>
<linearGradient id="paint3_linear" x1="-66780.3" y1="-555.987" x2="-61754.8" y2="-555.987" gradientUnits="userSpaceOnUse">
<stop stop-color="#F8AE31"/>
<stop offset="0.04" stop-color="#FAB622"/>
<stop offset="0.12" stop-color="#FBBF0F"/>
<stop offset="0.2" stop-color="#FDC504"/>
<stop offset="0.28" stop-color="#FDC700"/>
<stop offset="0.67" stop-color="#F8AE31"/>
<stop offset="0.89" stop-color="#FCC600"/>
<stop offset="1" stop-color="#F8AE31"/>
</linearGradient>
<linearGradient id="paint4_linear" x1="-66106.6" y1="-521.043" x2="-61082.1" y2="-521.043" gradientUnits="userSpaceOnUse">
<stop stop-color="#F8AE31"/>
<stop offset="0.04" stop-color="#FAB622"/>
<stop offset="0.12" stop-color="#FBBF0F"/>
<stop offset="0.2" stop-color="#FDC504"/>
<stop offset="0.28" stop-color="#FDC700"/>
<stop offset="0.67" stop-color="#F8AE31"/>
<stop offset="0.89" stop-color="#FCC600"/>
<stop offset="1" stop-color="#F8AE31"/>
</linearGradient>
<linearGradient id="paint5_linear" x1="-63825.6" y1="-366.795" x2="-59046.1" y2="-366.795" gradientUnits="userSpaceOnUse">
<stop stop-color="#F8AE31"/>
<stop offset="0.04" stop-color="#FAB622"/>
<stop offset="0.12" stop-color="#FBBF0F"/>
<stop offset="0.2" stop-color="#FDC504"/>
<stop offset="0.28" stop-color="#FDC700"/>
<stop offset="0.67" stop-color="#F8AE31"/>
<stop offset="0.89" stop-color="#FCC600"/>
<stop offset="1" stop-color="#F8AE31"/>
</linearGradient>
<linearGradient id="paint6_linear" x1="220.199" y1="16.6928" x2="222.839" y2="16.6928" gradientUnits="userSpaceOnUse">
<stop stop-color="#F9B233"/>
<stop offset="1" stop-color="#D97213"/>
</linearGradient>
<linearGradient id="paint7_linear" x1="-1307.74" y1="-128.98" x2="-1303.86" y2="-128.98" gradientUnits="userSpaceOnUse">
<stop stop-color="#F9B233"/>
<stop offset="1" stop-color="#D97213"/>
</linearGradient>
<linearGradient id="paint8_linear" x1="-1307.74" y1="-108.977" x2="-1303.86" y2="-108.977" gradientUnits="userSpaceOnUse">
<stop stop-color="#F9B233"/>
<stop offset="1" stop-color="#D97213"/>
</linearGradient>
<linearGradient id="paint9_linear" x1="-1307.74" y1="-89.8941" x2="-1303.86" y2="-89.8941" gradientUnits="userSpaceOnUse">
<stop stop-color="#F9B233"/>
<stop offset="1" stop-color="#D97213"/>
</linearGradient>
<linearGradient id="paint10_linear" x1="-1307.74" y1="-69.0094" x2="-1303.86" y2="-69.0094" gradientUnits="userSpaceOnUse">
<stop stop-color="#F9B233"/>
<stop offset="1" stop-color="#D97213"/>
</linearGradient>
<linearGradient id="paint11_linear" x1="-1307.74" y1="-49.7704" x2="-1303.86" y2="-49.7704" gradientUnits="userSpaceOnUse">
<stop stop-color="#F9B233"/>
<stop offset="1" stop-color="#D97213"/>
</linearGradient>
<linearGradient id="paint12_linear" x1="-1277.35" y1="-148.931" x2="-1273.52" y2="-148.931" gradientUnits="userSpaceOnUse">
<stop stop-color="#F9B233"/>
<stop offset="1" stop-color="#D97213"/>
</linearGradient>
<linearGradient id="paint13_linear" x1="-1277.35" y1="-128.973" x2="-1273.52" y2="-128.973" gradientUnits="userSpaceOnUse">
<stop stop-color="#F9B233"/>
<stop offset="1" stop-color="#D97213"/>
</linearGradient>
<linearGradient id="paint14_linear" x1="-1277.35" y1="-108.97" x2="-1273.52" y2="-108.97" gradientUnits="userSpaceOnUse">
<stop stop-color="#F9B233"/>
<stop offset="1" stop-color="#D97213"/>
</linearGradient>
<linearGradient id="paint15_linear" x1="-1277.35" y1="-89.8941" x2="-1273.52" y2="-89.8941" gradientUnits="userSpaceOnUse">
<stop stop-color="#F9B233"/>
<stop offset="1" stop-color="#D97213"/>
</linearGradient>
<linearGradient id="paint16_linear" x1="-1277.35" y1="-69.0094" x2="-1273.52" y2="-69.0094" gradientUnits="userSpaceOnUse">
<stop stop-color="#F9B233"/>
<stop offset="1" stop-color="#D97213"/>
</linearGradient>
<linearGradient id="paint17_linear" x1="-1277.35" y1="-49.7704" x2="-1273.52" y2="-49.7704" gradientUnits="userSpaceOnUse">
<stop stop-color="#F9B233"/>
<stop offset="1" stop-color="#D97213"/>
</linearGradient>
<linearGradient id="paint18_linear" x1="-1267.5" y1="-148.939" x2="-1263.61" y2="-148.939" gradientUnits="userSpaceOnUse">
<stop stop-color="#F9B233"/>
<stop offset="1" stop-color="#D97213"/>
</linearGradient>
<linearGradient id="paint19_linear" x1="-1277.75" y1="-124.74" x2="-1273.84" y2="-124.74" gradientUnits="userSpaceOnUse">
<stop stop-color="#F9B233"/>
<stop offset="1" stop-color="#D97213"/>
</linearGradient>
<linearGradient id="paint20_linear" x1="-1267.5" y1="-108.905" x2="-1263.61" y2="-108.905" gradientUnits="userSpaceOnUse">
<stop stop-color="#F9B233"/>
<stop offset="1" stop-color="#D97213"/>
</linearGradient>
<linearGradient id="paint21_linear" x1="-1278.38" y1="-92.6001" x2="-1274.47" y2="-92.6001" gradientUnits="userSpaceOnUse">
<stop stop-color="#F9B233"/>
<stop offset="1" stop-color="#D97213"/>
</linearGradient>
<linearGradient id="paint22_linear" x1="-1267.5" y1="-69.0633" x2="-1263.61" y2="-69.0633" gradientUnits="userSpaceOnUse">
<stop stop-color="#F9B233"/>
<stop offset="1" stop-color="#D97213"/>
</linearGradient>
<linearGradient id="paint23_linear" x1="-1267.5" y1="-49.7704" x2="-1263.61" y2="-49.7704" gradientUnits="userSpaceOnUse">
<stop stop-color="#F9B233"/>
<stop offset="1" stop-color="#D97213"/>
</linearGradient>
<linearGradient id="paint24_linear" x1="-1237.28" y1="-148.931" x2="-1233.45" y2="-148.931" gradientUnits="userSpaceOnUse">
<stop stop-color="#F9B233"/>
<stop offset="1" stop-color="#D97213"/>
</linearGradient>
<linearGradient id="paint25_linear" x1="-1237.28" y1="-128.973" x2="-1233.45" y2="-128.973" gradientUnits="userSpaceOnUse">
<stop stop-color="#F9B233"/>
<stop offset="1" stop-color="#D97213"/>
</linearGradient>
<linearGradient id="paint26_linear" x1="-1237.28" y1="-108.97" x2="-1233.45" y2="-108.97" gradientUnits="userSpaceOnUse">
<stop stop-color="#F9B233"/>
<stop offset="1" stop-color="#D97213"/>
</linearGradient>
<linearGradient id="paint27_linear" x1="-1237.28" y1="-89.8941" x2="-1233.45" y2="-89.8941" gradientUnits="userSpaceOnUse">
<stop stop-color="#F9B233"/>
<stop offset="1" stop-color="#D97213"/>
</linearGradient>
<linearGradient id="paint28_linear" x1="-1237.28" y1="-69.0094" x2="-1233.45" y2="-69.0094" gradientUnits="userSpaceOnUse">
<stop stop-color="#F9B233"/>
<stop offset="1" stop-color="#D97213"/>
</linearGradient>
<linearGradient id="paint29_linear" x1="-1237.28" y1="-49.7704" x2="-1233.45" y2="-49.7704" gradientUnits="userSpaceOnUse">
<stop stop-color="#F9B233"/>
<stop offset="1" stop-color="#D97213"/>
</linearGradient>
<linearGradient id="paint30_linear" x1="53.3859" y1="94.2251" x2="53.3859" y2="99.9563" gradientUnits="userSpaceOnUse">
<stop stop-color="#F4A82E"/>
<stop offset="1" stop-color="#FF8C1A"/>
</linearGradient>
<linearGradient id="paint31_linear" x1="53.3859" y1="81.688" x2="53.3859" y2="87.4371" gradientUnits="userSpaceOnUse">
<stop stop-color="#F4A82E"/>
<stop offset="1" stop-color="#FF8C1A"/>
</linearGradient>
<linearGradient id="paint32_linear" x1="59.6792" y1="88.8159" x2="59.6792" y2="92.7919" gradientUnits="userSpaceOnUse">
<stop stop-color="#F4A82E"/>
<stop offset="1" stop-color="#FF8C1A"/>
</linearGradient>
<linearGradient id="paint33_linear" x1="47.1264" y1="88.8159" x2="47.1264" y2="92.7919" gradientUnits="userSpaceOnUse">
<stop stop-color="#F4A82E"/>
<stop offset="1" stop-color="#FF8C1A"/>
</linearGradient>
<linearGradient id="paint34_linear" x1="213.044" y1="78.0828" x2="213.044" y2="108.53" gradientUnits="userSpaceOnUse">
<stop stop-color="#F4A92E"/>
<stop offset="1" stop-color="#DB7615"/>
</linearGradient>
</defs>
</svg>
