<svg width="336" height="144" viewBox="0 0 336 144" fill="none" xmlns="http://www.w3.org/2000/svg">
<rect width="336" height="144" rx="24" fill="url(#paint0_linear)"/>
<mask id="mask0" mask-type="alpha" maskUnits="userSpaceOnUse" x="0" y="0" width="336" height="144">
<rect width="336" height="144" rx="24" fill="url(#paint1_linear)"/>
</mask>
<g mask="url(#mask0)">
<path fill-rule="evenodd" clip-rule="evenodd" d="M265.079 35.3465C282.804 35.3465 297.182 18.0585 297.182 -0.684229H232.977C232.977 -0.684229 232.977 -2.13904 232.977 -0.684229C232.977 18.0585 247.355 35.3465 265.104 35.3465H265.079Z" fill="url(#paint2_linear)"/>
<path fill-rule="evenodd" clip-rule="evenodd" d="M35.0307 108.833C35.0307 91.1086 17.7428 76.73 -1 76.73L-0.999995 140.936C17.7428 140.936 35.0307 126.557 35.0307 108.808V108.833Z" fill="url(#paint3_linear)"/>
<path d="M329.504 147.506H326.812C326.793 146.882 326.645 146.268 326.383 145.702C326.121 145.136 325.748 144.628 325.285 144.208C324.586 143.553 324.029 142.76 323.648 141.88C323.27 141 323.076 140.051 323.078 139.092C323.083 138.124 323.279 137.166 323.658 136.275C324.036 135.385 324.591 134.578 325.285 133.904C325.765 133.477 326.148 132.954 326.41 132.369C326.674 131.784 326.81 131.151 326.812 130.509C326.81 129.868 326.674 129.234 326.41 128.649C326.148 128.064 325.765 127.541 325.285 127.114C324.591 126.44 324.036 125.633 323.658 124.743C323.279 123.852 323.083 122.894 323.078 121.926C323.073 120.956 323.267 119.996 323.646 119.104C324.026 118.212 324.584 117.406 325.285 116.737C325.762 116.304 326.145 115.776 326.407 115.188C326.669 114.599 326.807 113.962 326.812 113.318C326.81 112.673 326.672 112.036 326.41 111.447C326.145 110.859 325.762 110.331 325.285 109.899C324.591 109.225 324.036 108.418 323.658 107.527C323.279 106.636 323.083 105.679 323.078 104.71C323.073 103.741 323.267 102.781 323.646 101.889C324.026 100.997 324.584 100.191 325.285 99.5216C325.762 99.0885 326.145 98.5612 326.407 97.9725C326.669 97.384 326.807 96.7473 326.812 96.1028C326.81 95.4581 326.672 94.8209 326.41 94.2321C326.145 93.6434 325.762 93.1161 325.285 92.684C324.591 92.0094 324.036 91.203 323.658 90.3122C323.279 89.4211 323.083 88.4633 323.078 87.4952C323.076 86.5333 323.27 85.5809 323.65 84.6971C324.029 83.813 324.586 83.0161 325.285 82.3548C325.76 81.9349 326.141 81.4201 326.402 80.8438C326.667 80.2674 326.805 79.6424 326.812 79.0088H329.504C329.453 80.9294 328.672 82.7586 327.321 84.1249C326.841 84.5504 326.456 85.0729 326.194 85.6582C325.93 86.2433 325.794 86.8778 325.794 87.5194C325.791 88.1617 325.925 88.797 326.189 89.3825C326.453 89.9683 326.839 90.4904 327.321 90.914C328.012 91.5905 328.56 92.3979 328.934 93.2887C329.31 94.1798 329.504 95.1363 329.504 96.1028C329.504 97.0693 329.31 98.026 328.934 98.9169C328.56 99.8077 328.012 100.615 327.321 101.292C326.841 101.722 326.456 102.249 326.191 102.838C325.93 103.427 325.794 104.065 325.794 104.71C325.794 105.356 325.93 105.994 326.191 106.583C326.456 107.172 326.841 107.699 327.321 108.129C328.012 108.806 328.56 109.613 328.934 110.504C329.31 111.395 329.504 112.352 329.504 113.318C329.504 114.284 329.31 115.241 328.934 116.132C328.56 117.023 328.012 117.83 327.321 118.507C326.839 118.935 326.451 119.462 326.189 120.051C325.925 120.641 325.791 121.28 325.794 121.926C325.794 122.571 325.93 123.209 326.191 123.798C326.456 124.387 326.841 124.914 327.321 125.344C328.012 126.021 328.56 126.828 328.934 127.719C329.31 128.61 329.504 129.567 329.504 130.533C329.504 131.5 329.31 132.456 328.934 133.347C328.56 134.238 328.012 135.046 327.321 135.722C326.839 136.15 326.451 136.677 326.189 137.266C325.925 137.856 325.791 138.495 325.794 139.141C325.789 139.769 325.925 140.39 326.189 140.96C326.453 141.53 326.839 142.035 327.321 142.438C328.655 143.797 329.433 145.604 329.504 147.506Z" fill="url(#paint4_linear)"/>
<path d="M335.904 130H333.309C333.295 129.375 333.152 128.76 332.888 128.192C332.626 127.625 332.25 127.118 331.782 126.702C331.088 126.038 330.538 125.24 330.162 124.357C329.786 123.473 329.595 122.522 329.6 121.562C329.605 120.6 329.799 119.648 330.172 118.761C330.548 117.875 331.093 117.071 331.782 116.398C332.277 115.964 332.672 115.425 332.934 114.822C333.198 114.219 333.326 113.565 333.309 112.906C333.312 112.264 333.179 111.628 332.914 111.043C332.65 110.457 332.264 109.935 331.782 109.511C331.091 108.835 330.543 108.028 330.17 107.137C329.794 106.246 329.6 105.289 329.6 104.323C329.6 103.356 329.794 102.4 330.17 101.509C330.543 100.618 331.091 99.8103 331.782 99.1338C332.235 98.7287 332.606 98.2369 332.868 97.6873C333.13 97.1378 333.28 96.5416 333.309 95.9332C333.312 95.2876 333.179 94.6484 332.914 94.0587C332.652 93.4693 332.264 92.9426 331.782 92.5144C331.091 91.838 330.543 91.0305 330.17 90.1397C329.794 89.2489 329.6 88.2921 329.6 87.3256C329.6 86.3592 329.794 85.4026 330.17 84.5115C330.543 83.6207 331.091 82.8133 331.782 82.1368C332.262 81.7067 332.648 81.1798 332.912 80.5906C333.174 80.0014 333.309 79.3635 333.309 78.718C333.312 78.0723 333.179 77.4332 332.914 76.8437C332.652 76.2541 332.264 75.7274 331.782 75.2992C331.091 74.6227 330.543 73.8153 330.17 72.9245C329.794 72.0337 329.6 71.0769 329.6 70.1104C329.6 69.151 329.791 68.201 330.167 67.3177C330.54 66.4343 331.091 65.6359 331.782 64.9701C332.26 64.553 332.643 64.0388 332.907 63.4619C333.169 62.8849 333.307 62.2583 333.309 61.624H336.001C335.95 63.5446 335.169 65.3738 333.819 66.7401C333.339 67.1656 332.953 67.6884 332.691 68.2735C332.427 68.8585 332.291 69.4931 332.291 70.1347C332.289 70.7769 332.422 71.4122 332.686 71.998C332.951 72.5836 333.336 73.1059 333.819 73.5292C334.51 74.2057 335.058 75.0131 335.431 75.9039C335.807 76.795 336.001 77.7515 336.001 78.718C336.001 79.6845 335.807 80.6413 335.431 81.5321C335.058 82.4229 334.51 83.2303 333.819 83.9068C333.339 84.337 332.953 84.8641 332.689 85.4531C332.427 86.0422 332.291 86.6804 332.291 87.3256C332.291 87.9711 332.427 88.609 332.689 89.1982C332.953 89.7874 333.339 90.3143 333.819 90.7444C334.51 91.4209 335.058 92.2283 335.431 93.1192C335.807 94.0102 336.001 94.9668 336.001 95.9332C336.001 96.8997 335.807 97.8565 335.431 98.7473C335.058 99.6382 334.51 100.446 333.819 101.122C333.336 101.55 332.948 102.077 332.686 102.666C332.422 103.256 332.286 103.895 332.291 104.541C332.291 105.186 332.427 105.824 332.689 106.413C332.953 107.003 333.339 107.53 333.819 107.96C334.51 108.636 335.058 109.444 335.431 110.334C335.807 111.225 336.001 112.182 336.001 113.148C336.001 114.115 335.807 115.072 335.431 115.963C335.058 116.853 334.51 117.661 333.819 118.337C333.336 118.765 332.948 119.292 332.686 119.882C332.422 120.471 332.286 121.11 332.291 121.756C332.286 122.384 332.422 123.006 332.686 123.576C332.951 124.146 333.336 124.65 333.819 125.054C335.152 126.412 335.931 128.219 336.001 130.121L335.904 130Z" fill="url(#paint5_linear)"/>
<path d="M225.072 85.0296C226.066 84.7629 227.084 84.5446 228.102 84.3264C228.139 84.5104 228.139 84.7001 228.102 84.8841C228.102 85.3021 227.938 85.7029 227.642 85.9985C227.346 86.294 226.943 86.4601 226.526 86.4601C226.136 86.4558 225.763 86.3071 225.477 86.0431C225.188 85.7788 225.011 85.4178 224.975 85.0296H225.072Z" fill="url(#paint6_linear)"/>
<path d="M234.818 84.8837C234.818 84.4656 234.986 84.0648 235.279 83.7693C235.575 83.4737 235.977 83.3076 236.394 83.3076C236.809 83.3139 237.202 83.4829 237.493 83.7778C237.784 84.0726 237.946 84.47 237.946 84.8837C237.946 85.2976 237.784 85.6947 237.493 85.9896C237.202 86.2846 236.809 86.4534 236.394 86.4597C235.977 86.4597 235.575 86.2936 235.279 85.998C234.986 85.7025 234.818 85.3017 234.818 84.8837Z" fill="url(#paint7_linear)"/>
<path d="M244.564 84.8837C244.564 84.4656 244.729 84.0648 245.025 83.7693C245.321 83.4737 245.723 83.3076 246.14 83.3076C246.555 83.3139 246.948 83.4829 247.239 83.7778C247.53 84.0726 247.692 84.47 247.692 84.8837C247.692 85.2976 247.53 85.6947 247.239 85.9896C246.948 86.2846 246.555 86.4534 246.14 86.4597C245.723 86.4597 245.321 86.2936 245.025 85.998C244.729 85.7025 244.564 85.3017 244.564 84.8837Z" fill="url(#paint8_linear)"/>
<path d="M254.314 84.8841C254.29 84.6991 254.29 84.5114 254.314 84.3264C255.332 84.5446 256.351 84.7629 257.345 85.0296C257.313 85.4197 257.136 85.7841 256.85 86.0494C256.561 86.3146 256.183 86.4613 255.793 86.4601C255.376 86.4601 254.973 86.294 254.677 85.9985C254.384 85.7029 254.217 85.3021 254.217 84.8841H254.314Z" fill="url(#paint9_linear)"/>
<path d="M205.551 94.7284C205.557 94.3123 205.725 93.9151 206.019 93.621C206.314 93.3267 206.711 93.1586 207.127 93.1523C207.545 93.1523 207.946 93.3184 208.241 93.614C208.537 93.9096 208.703 94.3104 208.703 94.7284C208.703 95.1464 208.537 95.5472 208.241 95.8428C207.946 96.1383 207.545 96.3044 207.127 96.3044C206.711 96.2981 206.314 96.1301 206.019 95.836C205.725 95.5416 205.557 95.1445 205.551 94.7284Z" fill="url(#paint10_linear)"/>
<path d="M215.322 94.7284C215.322 94.3145 215.485 93.9173 215.776 93.6225C216.067 93.3277 216.459 93.1586 216.874 93.1523C217.08 93.1523 217.286 93.1931 217.478 93.2724C217.669 93.3517 217.842 93.4676 217.989 93.614C218.135 93.7605 218.251 93.9341 218.331 94.1254C218.409 94.3164 218.45 94.5216 218.45 94.7284C218.45 95.1464 218.285 95.5472 217.989 95.8428C217.694 96.1383 217.291 96.3044 216.874 96.3044C216.459 96.2981 216.067 96.1294 215.776 95.8343C215.485 95.5394 215.322 95.1423 215.322 94.7284Z" fill="url(#paint11_linear)"/>
<path d="M225.066 94.7284C225.066 94.3145 225.229 93.9173 225.52 93.6225C225.811 93.3277 226.204 93.1586 226.618 93.1523C226.824 93.1523 227.03 93.1931 227.222 93.2724C227.413 93.3517 227.586 93.4676 227.734 93.614C227.879 93.7605 227.995 93.9341 228.075 94.1254C228.153 94.3164 228.194 94.5216 228.194 94.7284C228.194 95.1464 228.029 95.5472 227.734 95.8428C227.438 96.1383 227.035 96.3044 226.618 96.3044C226.204 96.2981 225.811 96.1294 225.52 95.8343C225.229 95.5394 225.066 95.1423 225.066 94.7284Z" fill="url(#paint12_linear)"/>
<path d="M234.818 94.7284C234.818 94.3104 234.986 93.9096 235.279 93.614C235.575 93.3184 235.977 93.1523 236.394 93.1523C236.809 93.1586 237.202 93.3277 237.493 93.6225C237.784 93.9173 237.946 94.3145 237.946 94.7284C237.946 95.1423 237.784 95.5394 237.493 95.8343C237.202 96.1294 236.809 96.2981 236.394 96.3044C235.977 96.3044 235.575 96.1383 235.279 95.8428C234.986 95.5472 234.818 95.1464 234.818 94.7284Z" fill="url(#paint13_linear)"/>
<path d="M244.564 94.7284C244.564 94.5216 244.606 94.3164 244.683 94.1254C244.763 93.9341 244.88 93.7605 245.025 93.614C245.173 93.4676 245.345 93.3517 245.537 93.2724C245.728 93.1931 245.934 93.1523 246.14 93.1523C246.555 93.1586 246.948 93.3277 247.239 93.6225C247.53 93.9173 247.692 94.3145 247.692 94.7284C247.692 95.1423 247.53 95.5394 247.239 95.8343C246.948 96.1294 246.555 96.2981 246.14 96.3044C245.723 96.3044 245.321 96.1383 245.025 95.8428C244.729 95.5472 244.564 95.1464 244.564 94.7284Z" fill="url(#paint14_linear)"/>
<path d="M254.311 94.7284C254.311 94.5216 254.352 94.3164 254.429 94.1254C254.509 93.9341 254.626 93.7605 254.771 93.614C254.919 93.4676 255.091 93.3517 255.283 93.2724C255.474 93.1931 255.68 93.1523 255.887 93.1523C256.304 93.1586 256.699 93.3267 256.995 93.621C257.288 93.9151 257.455 94.3123 257.463 94.7284C257.455 95.1445 257.288 95.5416 256.995 95.836C256.699 96.1301 256.304 96.2981 255.887 96.3044C255.47 96.3044 255.067 96.1383 254.771 95.8428C254.475 95.5472 254.311 95.1464 254.311 94.7284Z" fill="url(#paint15_linear)"/>
<path d="M264.057 94.7284C264.057 94.5216 264.098 94.3164 264.175 94.1254C264.255 93.9341 264.372 93.7605 264.517 93.614C264.665 93.4676 264.837 93.3517 265.029 93.2724C265.22 93.1931 265.427 93.1523 265.633 93.1523C265.839 93.1523 266.045 93.1931 266.236 93.2724C266.428 93.3517 266.6 93.4676 266.748 93.614C266.894 93.7605 267.01 93.9341 267.09 94.1254C267.168 94.3164 267.209 94.5216 267.209 94.7284C267.209 95.1464 267.044 95.5472 266.748 95.8428C266.452 96.1383 266.05 96.3044 265.633 96.3044C265.216 96.3044 264.813 96.1383 264.517 95.8428C264.222 95.5472 264.057 95.1464 264.057 94.7284Z" fill="url(#paint16_linear)"/>
<path d="M273.809 94.7284C273.809 94.5216 273.85 94.3164 273.93 94.1254C274.007 93.9341 274.124 93.7605 274.269 93.614C274.417 93.4676 274.589 93.3517 274.781 93.2724C274.972 93.1931 275.179 93.1523 275.385 93.1523C275.591 93.1523 275.797 93.1931 275.988 93.2724C276.18 93.3517 276.352 93.4676 276.5 93.614C276.645 93.7605 276.762 93.9341 276.842 94.1254C276.919 94.3164 276.961 94.5216 276.961 94.7284C276.961 95.1464 276.796 95.5472 276.5 95.8428C276.204 96.1383 275.802 96.3044 275.385 96.3044C274.968 96.3044 274.565 96.1383 274.269 95.8428C273.976 95.5472 273.809 95.1464 273.809 94.7284Z" fill="url(#paint17_linear)"/>
<path d="M195.807 104.427C195.813 104.013 195.982 103.618 196.277 103.328C196.572 103.038 196.969 102.875 197.383 102.875C197.796 102.875 198.194 103.038 198.489 103.328C198.783 103.618 198.952 104.013 198.959 104.427C198.959 104.845 198.793 105.246 198.497 105.541C198.201 105.837 197.801 106.003 197.383 106.003C196.965 106.003 196.564 105.837 196.268 105.541C195.972 105.246 195.807 104.845 195.807 104.427Z" fill="url(#paint18_linear)"/>
<path d="M205.551 104.427C205.557 104.013 205.726 103.618 206.021 103.328C206.316 103.038 206.713 102.875 207.127 102.875C207.541 102.875 207.938 103.038 208.233 103.328C208.528 103.618 208.697 104.013 208.703 104.427C208.703 104.845 208.537 105.246 208.241 105.541C207.946 105.837 207.545 106.003 207.127 106.003C206.711 105.997 206.314 105.829 206.019 105.534C205.725 105.24 205.557 104.843 205.551 104.427Z" fill="url(#paint19_linear)"/>
<path d="M215.322 104.427C215.322 104.015 215.485 103.621 215.776 103.33C216.069 103.039 216.462 102.875 216.874 102.875C217.289 102.875 217.686 103.038 217.98 103.328C218.276 103.618 218.443 104.013 218.45 104.427C218.45 104.845 218.285 105.246 217.989 105.541C217.694 105.837 217.291 106.003 216.874 106.003C216.459 105.997 216.067 105.828 215.776 105.533C215.485 105.238 215.322 104.841 215.322 104.427Z" fill="url(#paint20_linear)"/>
<path d="M225.066 104.427C225.066 104.015 225.229 103.621 225.522 103.33C225.813 103.039 226.206 102.875 226.618 102.875C227.033 102.875 227.43 103.038 227.724 103.328C228.02 103.618 228.187 104.013 228.194 104.427C228.194 104.845 228.029 105.246 227.734 105.541C227.438 105.837 227.035 106.003 226.618 106.003C226.204 105.997 225.811 105.828 225.52 105.533C225.229 105.238 225.066 104.841 225.066 104.427Z" fill="url(#paint21_linear)"/>
<path d="M234.818 104.427C234.826 104.013 234.993 103.618 235.289 103.328C235.585 103.038 235.98 102.875 236.394 102.875C236.807 102.875 237.202 103.039 237.493 103.33C237.784 103.621 237.946 104.015 237.946 104.427C237.946 104.841 237.784 105.238 237.493 105.533C237.202 105.828 236.809 105.997 236.394 106.003C235.977 106.003 235.575 105.837 235.279 105.541C234.986 105.246 234.818 104.845 234.818 104.427Z" fill="url(#paint22_linear)"/>
<path d="M244.564 104.427C244.572 104.013 244.739 103.618 245.035 103.328C245.328 103.038 245.726 102.875 246.14 102.875C246.553 102.875 246.948 103.039 247.239 103.33C247.53 103.621 247.692 104.015 247.692 104.427C247.692 104.841 247.53 105.238 247.239 105.533C246.948 105.828 246.555 105.997 246.14 106.003C245.723 106.003 245.321 105.837 245.025 105.541C244.729 105.246 244.564 104.845 244.564 104.427Z" fill="url(#paint23_linear)"/>
<path d="M254.311 104.427C254.318 104.013 254.485 103.618 254.781 103.328C255.074 103.038 255.472 102.875 255.887 102.875C256.301 102.875 256.696 103.038 256.992 103.328C257.288 103.618 257.455 104.013 257.463 104.427C257.455 104.843 257.288 105.24 256.995 105.534C256.699 105.829 256.304 105.997 255.887 106.003C255.47 106.003 255.067 105.837 254.771 105.541C254.475 105.246 254.311 104.845 254.311 104.427Z" fill="url(#paint24_linear)"/>
<path d="M264.057 104.427C264.064 104.013 264.231 103.618 264.527 103.328C264.82 103.038 265.218 102.875 265.633 102.875C266.047 102.875 266.443 103.038 266.738 103.328C267.034 103.618 267.201 104.013 267.209 104.427C267.209 104.845 267.044 105.246 266.748 105.541C266.452 105.837 266.05 106.003 265.633 106.003C265.216 106.003 264.813 105.837 264.517 105.541C264.222 105.246 264.057 104.845 264.057 104.427Z" fill="url(#paint25_linear)"/>
<path d="M273.809 104.427C273.816 104.013 273.983 103.618 274.279 103.328C274.575 103.038 274.97 102.875 275.385 102.875C275.799 102.875 276.197 103.038 276.49 103.328C276.786 103.618 276.953 104.013 276.961 104.427C276.961 104.845 276.796 105.246 276.5 105.541C276.204 105.837 275.802 106.003 275.385 106.003C274.968 106.003 274.565 105.837 274.269 105.541C273.976 105.246 273.809 104.845 273.809 104.427Z" fill="url(#paint26_linear)"/>
<path d="M283.553 104.427C283.56 104.013 283.727 103.618 284.023 103.328C284.319 103.038 284.714 102.875 285.129 102.875C285.543 102.875 285.941 103.038 286.234 103.328C286.53 103.618 286.698 104.013 286.705 104.427C286.705 104.845 286.54 105.246 286.244 105.541C285.948 105.837 285.546 106.003 285.129 106.003C284.712 106.003 284.309 105.837 284.013 105.541C283.72 105.246 283.553 104.845 283.553 104.427Z" fill="url(#paint27_linear)"/>
<path d="M186.055 114.126C186.061 113.712 186.23 113.317 186.525 113.027C186.819 112.736 187.217 112.574 187.631 112.574C188.044 112.574 188.442 112.736 188.737 113.027C189.031 113.317 189.2 113.712 189.207 114.126C189.207 114.544 189.041 114.944 188.745 115.24C188.45 115.535 188.049 115.702 187.631 115.702C187.213 115.702 186.812 115.535 186.516 115.24C186.221 114.944 186.055 114.544 186.055 114.126Z" fill="url(#paint28_linear)"/>
<path d="M195.807 114.126C195.813 113.712 195.982 113.317 196.277 113.027C196.572 112.736 196.969 112.574 197.383 112.574C197.796 112.574 198.194 112.736 198.489 113.027C198.783 113.317 198.952 113.712 198.959 114.126C198.959 114.544 198.793 114.944 198.497 115.24C198.201 115.535 197.801 115.702 197.383 115.702C196.965 115.702 196.564 115.535 196.268 115.24C195.972 114.944 195.807 114.544 195.807 114.126Z" fill="url(#paint29_linear)"/>
<path d="M205.551 114.126C205.557 113.712 205.726 113.317 206.021 113.027C206.316 112.736 206.713 112.574 207.127 112.574C207.541 112.574 207.938 112.736 208.233 113.027C208.528 113.317 208.697 113.712 208.703 114.126C208.703 114.544 208.537 114.944 208.241 115.24C207.946 115.535 207.545 115.702 207.127 115.702C206.711 115.695 206.314 115.527 206.019 115.233C205.725 114.939 205.557 114.542 205.551 114.126Z" fill="url(#paint30_linear)"/>
<path d="M215.322 114.126C215.322 113.714 215.485 113.319 215.776 113.028C216.069 112.737 216.462 112.574 216.874 112.574C217.289 112.574 217.686 112.736 217.98 113.027C218.276 113.317 218.443 113.712 218.45 114.126C218.45 114.544 218.285 114.944 217.989 115.24C217.694 115.535 217.291 115.702 216.874 115.702C216.459 115.695 216.067 115.527 215.776 115.232C215.485 114.937 215.322 114.539 215.322 114.126Z" fill="url(#paint31_linear)"/>
<path d="M225.066 114.126C225.066 113.714 225.229 113.319 225.522 113.028C225.813 112.737 226.206 112.574 226.618 112.574C227.033 112.574 227.43 112.736 227.724 113.027C228.02 113.317 228.187 113.712 228.194 114.126C228.194 114.544 228.029 114.944 227.734 115.24C227.438 115.535 227.035 115.702 226.618 115.702C226.204 115.695 225.811 115.527 225.52 115.232C225.229 114.937 225.066 114.539 225.066 114.126Z" fill="url(#paint32_linear)"/>
<path d="M234.818 114.126C234.826 113.712 234.993 113.317 235.289 113.027C235.585 112.736 235.98 112.574 236.394 112.574C236.807 112.574 237.202 112.737 237.493 113.028C237.784 113.319 237.946 113.714 237.946 114.126C237.946 114.539 237.784 114.937 237.493 115.232C237.202 115.527 236.809 115.695 236.394 115.702C235.977 115.702 235.575 115.535 235.279 115.24C234.986 114.944 234.818 114.544 234.818 114.126Z" fill="url(#paint33_linear)"/>
<path d="M244.564 114.126C244.572 113.712 244.739 113.317 245.035 113.027C245.328 112.736 245.726 112.574 246.14 112.574C246.553 112.574 246.948 112.737 247.239 113.028C247.53 113.319 247.692 113.714 247.692 114.126C247.692 114.539 247.53 114.937 247.239 115.232C246.948 115.527 246.555 115.695 246.14 115.702C245.723 115.702 245.321 115.535 245.025 115.24C244.729 114.944 244.564 114.544 244.564 114.126Z" fill="url(#paint34_linear)"/>
<path d="M254.311 114.126C254.318 113.712 254.485 113.317 254.781 113.027C255.074 112.736 255.472 112.574 255.887 112.574C256.301 112.574 256.696 112.736 256.992 113.027C257.288 113.317 257.455 113.712 257.463 114.126C257.455 114.542 257.288 114.939 256.995 115.233C256.699 115.527 256.304 115.695 255.887 115.702C255.47 115.702 255.067 115.535 254.771 115.24C254.475 114.944 254.311 114.544 254.311 114.126Z" fill="url(#paint35_linear)"/>
<path d="M264.057 114.126C264.064 113.712 264.231 113.317 264.527 113.027C264.82 112.736 265.218 112.574 265.633 112.574C266.047 112.574 266.443 112.736 266.738 113.027C267.034 113.317 267.201 113.712 267.209 114.126C267.209 114.544 267.044 114.944 266.748 115.24C266.452 115.535 266.05 115.702 265.633 115.702C265.216 115.702 264.813 115.535 264.517 115.24C264.222 114.944 264.057 114.544 264.057 114.126Z" fill="url(#paint36_linear)"/>
<path d="M273.809 114.126C273.816 113.712 273.983 113.317 274.279 113.027C274.575 112.736 274.97 112.574 275.385 112.574C275.799 112.574 276.197 112.736 276.49 113.027C276.786 113.317 276.953 113.712 276.961 114.126C276.961 114.544 276.796 114.944 276.5 115.24C276.204 115.535 275.802 115.702 275.385 115.702C274.968 115.702 274.565 115.535 274.269 115.24C273.976 114.944 273.809 114.544 273.809 114.126Z" fill="url(#paint37_linear)"/>
<path d="M283.553 114.126C283.56 113.712 283.727 113.317 284.023 113.027C284.319 112.736 284.714 112.574 285.129 112.574C285.543 112.574 285.941 112.736 286.234 113.027C286.53 113.317 286.698 113.712 286.705 114.126C286.705 114.544 286.54 114.944 286.244 115.24C285.948 115.535 285.546 115.702 285.129 115.702C284.712 115.702 284.309 115.535 284.013 115.24C283.72 114.944 283.553 114.544 283.553 114.126Z" fill="url(#paint38_linear)"/>
<path d="M293.301 114.126C293.308 113.712 293.475 113.317 293.771 113.027C294.065 112.736 294.462 112.574 294.877 112.574C295.291 112.574 295.687 112.736 295.982 113.027C296.278 113.317 296.446 113.712 296.453 114.126C296.453 114.544 296.286 114.944 295.992 115.24C295.696 115.535 295.294 115.702 294.877 115.702C294.46 115.702 294.057 115.535 293.761 115.24C293.466 114.944 293.301 114.544 293.301 114.126Z" fill="url(#paint39_linear)"/>
<path d="M186.055 123.824C186.055 123.406 186.221 123.006 186.516 122.71C186.812 122.414 187.213 122.248 187.631 122.248C188.049 122.248 188.45 122.414 188.745 122.71C189.041 123.006 189.207 123.406 189.207 123.824C189.2 124.238 189.031 124.633 188.737 124.923C188.442 125.213 188.044 125.376 187.631 125.376C187.217 125.376 186.819 125.213 186.525 124.923C186.23 124.633 186.061 124.238 186.055 123.824Z" fill="url(#paint40_linear)"/>
<path d="M195.807 123.824C195.807 123.406 195.972 123.006 196.268 122.71C196.564 122.414 196.965 122.248 197.383 122.248C197.801 122.248 198.201 122.414 198.497 122.71C198.793 123.006 198.959 123.406 198.959 123.824C198.952 124.238 198.783 124.633 198.489 124.923C198.194 125.213 197.796 125.376 197.383 125.376C196.969 125.376 196.572 125.213 196.277 124.923C195.982 124.633 195.813 124.238 195.807 123.824Z" fill="url(#paint41_linear)"/>
<path d="M205.551 123.824C205.557 123.408 205.725 123.011 206.019 122.717C206.314 122.423 206.711 122.255 207.127 122.248C207.545 122.248 207.946 122.414 208.241 122.71C208.537 123.006 208.703 123.406 208.703 123.824C208.697 124.238 208.528 124.633 208.233 124.923C207.938 125.213 207.541 125.376 207.127 125.376C206.713 125.376 206.316 125.213 206.021 124.923C205.726 124.633 205.557 124.238 205.551 123.824Z" fill="url(#paint42_linear)"/>
<path d="M215.322 123.824C215.322 123.41 215.485 123.013 215.776 122.718C216.067 122.424 216.459 122.255 216.874 122.248C217.291 122.248 217.694 122.414 217.989 122.71C218.285 123.006 218.45 123.406 218.45 123.824C218.443 124.238 218.276 124.633 217.98 124.923C217.686 125.213 217.289 125.376 216.874 125.376C216.462 125.376 216.069 125.213 215.776 124.922C215.485 124.631 215.322 124.236 215.322 123.824Z" fill="url(#paint43_linear)"/>
<path d="M264.057 123.824C264.057 123.406 264.222 123.006 264.517 122.71C264.813 122.414 265.216 122.248 265.633 122.248C266.05 122.248 266.452 122.414 266.748 122.71C267.044 123.006 267.209 123.406 267.209 123.824C267.201 124.238 267.034 124.633 266.738 124.923C266.443 125.213 266.047 125.376 265.633 125.376C265.218 125.376 264.82 125.213 264.527 124.923C264.231 124.633 264.064 124.238 264.057 123.824Z" fill="url(#paint44_linear)"/>
<path d="M273.809 123.824C273.809 123.406 273.976 123.006 274.269 122.71C274.565 122.414 274.968 122.248 275.385 122.248C275.802 122.248 276.204 122.414 276.5 122.71C276.796 123.006 276.961 123.406 276.961 123.824C276.953 124.238 276.786 124.633 276.49 124.923C276.197 125.213 275.799 125.376 275.385 125.376C274.97 125.376 274.575 125.213 274.279 124.923C273.983 124.633 273.816 124.238 273.809 123.824Z" fill="url(#paint45_linear)"/>
<path d="M283.553 123.824C283.553 123.406 283.72 123.006 284.013 122.71C284.309 122.414 284.712 122.248 285.129 122.248C285.546 122.248 285.948 122.414 286.244 122.71C286.54 123.006 286.705 123.406 286.705 123.824C286.698 124.238 286.53 124.633 286.234 124.923C285.941 125.213 285.543 125.376 285.129 125.376C284.714 125.376 284.319 125.213 284.023 124.923C283.727 124.633 283.56 124.238 283.553 123.824Z" fill="url(#paint46_linear)"/>
<path d="M293.301 123.824C293.301 123.406 293.466 123.006 293.761 122.71C294.057 122.414 294.46 122.248 294.877 122.248C295.294 122.248 295.696 122.414 295.992 122.71C296.286 123.006 296.453 123.406 296.453 123.824C296.446 124.238 296.278 124.633 295.982 124.923C295.687 125.213 295.291 125.376 294.877 125.376C294.462 125.376 294.065 125.213 293.771 124.923C293.475 124.633 293.308 124.238 293.301 123.824Z" fill="url(#paint47_linear)"/>
<path d="M178.131 132.068C178.528 132.099 178.898 132.278 179.168 132.571C179.438 132.863 179.587 133.247 179.586 133.644C179.579 134.058 179.411 134.453 179.116 134.743C178.821 135.033 178.424 135.196 178.01 135.196C177.817 135.231 177.62 135.231 177.428 135.196C177.646 134.178 177.888 133.159 178.131 132.165V132.068Z" fill="url(#paint48_linear)"/>
<path d="M186.055 133.644C186.055 133.437 186.095 133.232 186.175 133.041C186.254 132.85 186.37 132.676 186.516 132.53C186.663 132.384 186.836 132.267 187.027 132.188C187.219 132.109 187.424 132.068 187.631 132.068C187.838 132.068 188.042 132.109 188.234 132.188C188.425 132.267 188.599 132.384 188.745 132.53C188.891 132.676 189.007 132.85 189.087 133.041C189.166 133.232 189.207 133.437 189.207 133.644C189.2 134.058 189.031 134.453 188.737 134.743C188.442 135.033 188.044 135.196 187.631 135.196C187.217 135.196 186.819 135.033 186.525 134.743C186.23 134.453 186.061 134.058 186.055 133.644Z" fill="url(#paint49_linear)"/>
<path d="M195.807 133.644C195.807 133.437 195.847 133.232 195.926 133.041C196.006 132.85 196.122 132.676 196.268 132.53C196.415 132.384 196.588 132.267 196.779 132.188C196.971 132.109 197.176 132.068 197.383 132.068C197.59 132.068 197.795 132.109 197.986 132.188C198.177 132.267 198.351 132.384 198.497 132.53C198.643 132.676 198.759 132.85 198.839 133.041C198.918 133.232 198.959 133.437 198.959 133.644C198.952 134.058 198.783 134.453 198.489 134.743C198.194 135.033 197.796 135.196 197.383 135.196C196.969 135.196 196.572 135.033 196.277 134.743C195.982 134.453 195.813 134.058 195.807 133.644Z" fill="url(#paint50_linear)"/>
<path d="M205.551 133.644C205.557 133.228 205.725 132.831 206.019 132.537C206.314 132.243 206.711 132.075 207.127 132.068C207.545 132.068 207.946 132.234 208.241 132.53C208.537 132.826 208.703 133.226 208.703 133.644C208.697 134.058 208.528 134.453 208.233 134.743C207.938 135.033 207.541 135.196 207.127 135.196C206.713 135.196 206.316 135.033 206.021 134.743C205.726 134.453 205.557 134.058 205.551 133.644Z" fill="url(#paint51_linear)"/>
<path d="M273.809 133.644C273.809 133.437 273.85 133.232 273.93 133.041C274.007 132.85 274.124 132.676 274.269 132.53C274.417 132.384 274.589 132.267 274.781 132.188C274.972 132.109 275.179 132.068 275.385 132.068C275.591 132.068 275.797 132.109 275.988 132.188C276.18 132.267 276.352 132.384 276.5 132.53C276.645 132.676 276.762 132.85 276.842 133.041C276.919 133.232 276.961 133.437 276.961 133.644C276.953 134.058 276.786 134.453 276.49 134.743C276.197 135.033 275.799 135.196 275.385 135.196C274.97 135.196 274.575 135.033 274.279 134.743C273.983 134.453 273.816 134.058 273.809 133.644Z" fill="url(#paint52_linear)"/>
<path d="M283.553 133.644C283.553 133.437 283.594 133.232 283.674 133.041C283.752 132.85 283.868 132.676 284.013 132.53C284.161 132.384 284.333 132.267 284.525 132.188C284.717 132.109 284.923 132.068 285.129 132.068C285.335 132.068 285.541 132.109 285.733 132.188C285.924 132.267 286.096 132.384 286.244 132.53C286.39 132.676 286.506 132.85 286.586 133.041C286.664 133.232 286.705 133.437 286.705 133.644C286.698 134.058 286.53 134.453 286.234 134.743C285.941 135.033 285.543 135.196 285.129 135.196C284.714 135.196 284.319 135.033 284.023 134.743C283.727 134.453 283.56 134.058 283.553 133.644Z" fill="url(#paint53_linear)"/>
<path d="M293.301 133.644C293.301 133.437 293.342 133.232 293.42 133.041C293.5 132.85 293.616 132.676 293.761 132.53C293.909 132.384 294.082 132.267 294.273 132.188C294.465 132.109 294.671 132.068 294.877 132.068C295.083 132.068 295.289 132.109 295.481 132.188C295.672 132.267 295.844 132.384 295.992 132.53C296.138 132.676 296.254 132.85 296.332 133.041C296.412 133.232 296.453 133.437 296.453 133.644C296.446 134.058 296.278 134.453 295.982 134.743C295.687 135.033 295.291 135.196 294.877 135.196C294.462 135.196 294.065 135.033 293.771 134.743C293.475 134.453 293.308 134.058 293.301 133.644Z" fill="url(#paint54_linear)"/>
<path d="M303.047 133.644C303.044 133.25 303.19 132.87 303.457 132.579C303.721 132.287 304.085 132.105 304.477 132.068C304.744 133.087 304.962 134.081 305.181 135.099C304.996 135.136 304.807 135.136 304.623 135.099C304.208 135.099 303.811 134.937 303.517 134.646C303.221 134.356 303.054 133.961 303.047 133.547V133.644Z" fill="url(#paint55_linear)"/>
<path d="M176.309 143.392C176.309 142.974 176.474 142.573 176.77 142.277C177.066 141.982 177.467 141.816 177.884 141.816C178.302 141.816 178.703 141.982 178.999 142.277C179.295 142.573 179.46 142.974 179.46 143.392C179.454 143.808 179.286 144.205 178.992 144.499C178.698 144.793 178.3 144.961 177.884 144.968C177.469 144.961 177.071 144.793 176.777 144.499C176.483 144.205 176.315 143.808 176.309 143.392Z" fill="url(#paint56_linear)"/>
<path d="M186.055 143.392C186.055 142.974 186.221 142.573 186.516 142.277C186.812 141.982 187.213 141.816 187.631 141.816C188.049 141.816 188.45 141.982 188.745 142.277C189.041 142.573 189.207 142.974 189.207 143.392C189.2 143.808 189.032 144.205 188.738 144.499C188.444 144.793 188.047 144.961 187.631 144.968C187.215 144.961 186.817 144.793 186.523 144.499C186.229 144.205 186.061 143.808 186.055 143.392Z" fill="url(#paint57_linear)"/>
<path d="M195.807 143.392C195.807 142.974 195.972 142.573 196.268 142.277C196.564 141.982 196.965 141.816 197.383 141.816C197.801 141.816 198.201 141.982 198.497 142.277C198.793 142.573 198.959 142.974 198.959 143.392C198.952 143.808 198.784 144.205 198.49 144.499C198.196 144.793 197.799 144.961 197.383 144.968C196.967 144.961 196.569 144.793 196.275 144.499C195.981 144.205 195.813 143.808 195.807 143.392Z" fill="url(#paint58_linear)"/>
<path d="M205.551 143.392C205.557 142.976 205.725 142.578 206.019 142.284C206.314 141.99 206.711 141.822 207.127 141.816C207.545 141.816 207.946 141.982 208.241 142.277C208.537 142.573 208.703 142.974 208.703 143.392C208.697 143.808 208.529 144.205 208.234 144.499C207.94 144.793 207.543 144.961 207.127 144.968C206.711 144.961 206.314 144.793 206.019 144.499C205.725 144.205 205.557 143.808 205.551 143.392Z" fill="url(#paint59_linear)"/>
<path d="M273.809 143.392C273.809 142.974 273.976 142.573 274.269 142.277C274.565 141.982 274.968 141.816 275.385 141.816C275.802 141.816 276.204 141.982 276.5 142.277C276.796 142.573 276.961 142.974 276.961 143.392C276.953 143.808 276.786 144.205 276.493 144.499C276.197 144.793 275.802 144.961 275.385 144.968C274.968 144.961 274.572 144.793 274.277 144.499C273.983 144.205 273.816 143.808 273.809 143.392Z" fill="url(#paint60_linear)"/>
<path d="M283.553 143.392C283.553 142.974 283.72 142.573 284.013 142.277C284.309 141.982 284.712 141.816 285.129 141.816C285.546 141.816 285.948 141.982 286.244 142.277C286.54 142.573 286.705 142.974 286.705 143.392C286.698 143.808 286.53 144.205 286.237 144.499C285.941 144.793 285.546 144.961 285.129 144.968C284.712 144.961 284.316 144.793 284.021 144.499C283.727 144.205 283.56 143.808 283.553 143.392Z" fill="url(#paint61_linear)"/>
<path d="M293.301 143.392C293.301 142.974 293.466 142.573 293.761 142.277C294.057 141.982 294.46 141.816 294.877 141.816C295.294 141.816 295.696 141.982 295.992 142.277C296.286 142.573 296.453 142.974 296.453 143.392C296.446 143.808 296.278 144.205 295.985 144.499C295.689 144.793 295.294 144.961 294.877 144.968C294.46 144.961 294.065 144.793 293.769 144.499C293.475 144.205 293.308 143.808 293.301 143.392Z" fill="url(#paint62_linear)"/>
<path d="M303.047 143.392C303.047 142.974 303.212 142.573 303.508 142.277C303.803 141.982 304.206 141.816 304.623 141.816C305.04 141.816 305.442 141.982 305.738 142.277C306.032 142.573 306.199 142.974 306.199 143.392C306.192 143.808 306.024 144.205 305.731 144.499C305.435 144.793 305.04 144.961 304.623 144.968C304.206 144.961 303.811 144.793 303.515 144.499C303.221 144.205 303.054 143.808 303.047 143.392Z" fill="url(#paint63_linear)"/>
<path fill-rule="evenodd" clip-rule="evenodd" d="M68.5755 67.2011C68.5755 67.743 68.4147 68.2728 68.1138 68.7233C67.8127 69.1738 67.3847 69.5251 66.884 69.7324C66.3833 69.9397 65.8325 69.9941 65.301 69.8883C64.7695 69.7826 64.2814 69.5217 63.8983 69.1384C63.5149 68.7553 63.2541 68.2672 63.1483 67.7357C63.0426 67.2042 63.0969 66.6531 63.3042 66.1526C63.5116 65.6519 63.8629 65.224 64.3134 64.9228C64.7639 64.6219 65.2937 64.4612 65.8356 64.4612C66.5623 64.4612 67.2591 64.75 67.7729 65.2638C68.2867 65.7775 68.5755 66.4744 68.5755 67.2011Z" fill="url(#paint64_linear)"/>
<path fill-rule="evenodd" clip-rule="evenodd" d="M68.5753 84.1734C68.5802 84.7163 68.4236 85.2485 68.1256 85.7022C67.8273 86.1558 67.4013 86.5108 66.9011 86.722C66.4009 86.9332 65.849 86.9909 65.3161 86.8878C64.7829 86.7848 64.2926 86.5258 63.9069 86.1437C63.5213 85.7616 63.258 85.2732 63.1501 84.7413C63.0425 84.209 63.0953 83.6569 63.3019 83.1548C63.5087 82.6529 63.8598 82.2235 64.3108 81.9214C64.762 81.6192 65.2926 81.4578 65.8354 81.4578C66.558 81.4578 67.2512 81.7431 67.7645 82.2516C68.2776 82.7603 68.569 83.4511 68.5753 84.1734Z" fill="url(#paint65_linear)"/>
<path fill-rule="evenodd" clip-rule="evenodd" d="M85.4778 50.3734C85.4778 50.9153 85.3171 51.4451 85.0159 51.8956C84.715 52.3462 84.2871 52.6974 83.7864 52.9048C83.2857 53.1121 82.7348 53.1664 82.2033 53.0607C81.6718 52.955 81.1837 52.694 80.8004 52.3108C80.4173 51.9277 80.1564 51.4394 80.0507 50.908C79.945 50.3765 79.9993 49.8256 80.2066 49.3249C80.4139 48.8243 80.765 48.3964 81.2157 48.0953C81.6662 47.7942 82.196 47.6335 82.738 47.6335C83.4646 47.6335 84.1615 47.9222 84.6753 48.436C85.1891 48.9499 85.4778 49.6468 85.4778 50.3734Z" fill="url(#paint66_linear)"/>
<path fill-rule="evenodd" clip-rule="evenodd" d="M85.4778 67.2011C85.4778 67.743 85.3171 68.2728 85.0159 68.7233C84.715 69.1738 84.2871 69.5251 83.7864 69.7324C83.2857 69.9397 82.7348 69.9941 82.2033 69.8883C81.6718 69.7826 81.1837 69.5217 80.8004 69.1384C80.4173 68.7553 80.1564 68.2672 80.0507 67.7357C79.945 67.2042 79.9993 66.6531 80.2066 66.1526C80.4139 65.6519 80.765 65.224 81.2157 64.9228C81.6662 64.6219 82.196 64.4612 82.738 64.4612C83.4646 64.4612 84.1615 64.75 84.6753 65.2638C85.1891 65.7775 85.4778 66.4744 85.4778 67.2011Z" fill="url(#paint67_linear)"/>
<path fill-rule="evenodd" clip-rule="evenodd" d="M85.4777 84.1734C85.4825 84.7163 85.3259 85.2485 85.0279 85.7022C84.7297 86.1558 84.3034 86.5108 83.8032 86.722C83.303 86.9332 82.7514 86.9909 82.2184 86.8878C81.6852 86.7848 81.1947 86.5258 80.8092 86.1437C80.4237 85.7616 80.1604 85.2732 80.0525 84.7413C79.9448 84.209 79.9977 83.6569 80.2042 83.1548C80.4111 82.6529 80.7622 82.2235 81.2132 81.9214C81.6644 81.6192 82.1949 81.4578 82.7378 81.4578C83.4603 81.4578 84.1536 81.7431 84.6669 82.2516C85.1799 82.7603 85.4714 83.4511 85.4777 84.1734Z" fill="url(#paint68_linear)"/>
<path fill-rule="evenodd" clip-rule="evenodd" d="M85.4735 101.147C85.5094 101.527 85.4655 101.91 85.3445 102.272C85.2238 102.634 85.0288 102.966 84.7721 103.248C84.5153 103.53 84.2023 103.756 83.8534 103.91C83.5044 104.064 83.1272 104.144 82.7458 104.144C82.3641 104.144 81.9868 104.064 81.6379 103.91C81.289 103.756 80.976 103.53 80.7192 103.248C80.4624 102.966 80.2675 102.634 80.1468 102.272C80.026 101.91 79.9821 101.527 80.018 101.147C80.082 100.468 80.397 99.8369 80.9016 99.3779C81.4061 98.9187 82.0637 98.6643 82.7458 98.6643C83.4278 98.6643 84.0854 98.9187 84.5897 99.3779C85.0943 99.8369 85.4093 100.468 85.4735 101.147Z" fill="url(#paint69_linear)"/>
<path fill-rule="evenodd" clip-rule="evenodd" d="M102.374 50.3735C102.374 50.9165 102.213 51.4471 101.911 51.8982C101.609 52.3493 101.179 52.7005 100.677 52.9071C100.175 53.1138 99.6231 53.1666 99.0909 53.0589C98.5587 52.9512 98.0706 52.6878 97.6884 52.3022C97.3063 51.9166 97.0471 51.4261 96.9443 50.8931C96.8413 50.36 96.899 49.8083 97.1102 49.3081C97.3211 48.8079 97.6761 48.3817 98.13 48.0836C98.5836 47.7855 99.1156 47.6289 99.6587 47.6337C100.017 47.6337 100.372 47.7047 100.704 47.8427C101.035 47.9806 101.335 48.1829 101.588 48.4376C101.84 48.6923 102.04 48.9946 102.175 49.3269C102.31 49.6592 102.378 50.0149 102.374 50.3735Z" fill="url(#paint70_linear)"/>
<path fill-rule="evenodd" clip-rule="evenodd" d="M102.374 67.2007C102.374 67.7436 102.213 68.2743 101.911 68.7253C101.609 69.1763 101.179 69.5277 100.677 69.7342C100.175 69.9408 99.6231 69.9937 99.0909 69.886C98.5587 69.7784 98.0706 69.5148 97.6884 69.1293C97.3063 68.7438 97.0471 68.2532 96.9443 67.7201C96.8413 67.1871 96.899 66.6355 97.1102 66.1353C97.3211 65.6351 97.6761 65.2088 98.13 64.9106C98.5836 64.6126 99.1156 64.456 99.6587 64.4608C100.017 64.4608 100.372 64.5318 100.704 64.6698C101.035 64.8078 101.335 65.01 101.588 65.2648C101.84 65.5194 102.04 65.8218 102.175 66.154C102.31 66.4861 102.378 66.8421 102.374 67.2007Z" fill="url(#paint71_linear)"/>
<path fill-rule="evenodd" clip-rule="evenodd" d="M102.374 84.1735C102.379 84.7174 102.222 85.2506 101.922 85.7047C101.623 86.1591 101.196 86.5141 100.694 86.7243C100.192 86.9347 99.6396 86.991 99.1057 86.886C98.572 86.781 98.0818 86.5196 97.697 86.1351C97.3124 85.7503 97.051 85.26 96.946 84.7263C96.8411 84.1924 96.8973 83.6396 97.1078 83.1379C97.3182 82.6363 97.673 82.2088 98.1273 81.9096C98.5815 81.6104 99.1147 81.453 99.6585 81.4579C100.379 81.4579 101.069 81.744 101.579 82.2532C102.088 82.7626 102.374 83.4534 102.374 84.1735Z" fill="url(#paint72_linear)"/>
<path fill-rule="evenodd" clip-rule="evenodd" d="M102.374 101.146C102.379 101.69 102.222 102.223 101.922 102.677C101.623 103.132 101.196 103.487 100.694 103.697C100.192 103.907 99.6396 103.964 99.1057 103.859C98.572 103.754 98.0818 103.492 97.697 103.108C97.3124 102.723 97.051 102.233 96.946 101.699C96.8411 101.165 96.8973 100.612 97.1078 100.111C97.3182 99.6089 97.673 99.1814 98.1273 98.8822C98.5815 98.583 99.1147 98.4257 99.6585 98.4305C100.377 98.4368 101.064 98.7249 101.572 99.2329C102.08 99.7408 102.368 100.428 102.374 101.146Z" fill="url(#paint73_linear)"/>
<path fill-rule="evenodd" clip-rule="evenodd" d="M119.272 67.201C119.208 67.8802 118.893 68.5108 118.389 68.9698C117.884 69.429 117.227 69.6834 116.545 69.6834C115.863 69.6834 115.205 69.429 114.701 68.9698C114.196 68.5108 113.881 67.8802 113.817 67.201C113.781 66.8211 113.825 66.438 113.946 66.0762C114.067 65.7142 114.262 65.3815 114.518 65.0993C114.775 64.8173 115.088 64.5918 115.437 64.4376C115.786 64.2834 116.163 64.2036 116.545 64.2036C116.926 64.2036 117.304 64.2834 117.652 64.4376C118.001 64.5918 118.314 64.8173 118.571 65.0993C118.828 65.3815 119.023 65.7142 119.144 66.0762C119.264 66.438 119.308 66.8211 119.272 67.201Z" fill="url(#paint74_linear)"/>
<path fill-rule="evenodd" clip-rule="evenodd" d="M119.275 84.1735C119.279 84.7174 119.122 85.2506 118.823 85.7047C118.524 86.1591 118.096 86.5141 117.595 86.7243C117.093 86.9347 116.54 86.991 116.006 86.886C115.472 86.781 114.982 86.5196 114.597 86.1351C114.213 85.7503 113.951 85.26 113.846 84.7263C113.741 84.1924 113.798 83.6396 114.008 83.1379C114.218 82.6363 114.573 82.2088 115.028 81.9096C115.482 81.6104 116.015 81.453 116.559 81.4579C117.279 81.4579 117.97 81.744 118.479 82.2532C118.988 82.7626 119.275 83.4534 119.275 84.1735Z" fill="url(#paint75_linear)"/>
</g>
<path d="M114.304 63.9187C114.304 71.2608 109.409 74.6041 101.652 74.6041H98.1341V81.3998C98.1341 81.6611 98.0825 81.9196 97.9826 82.1607C97.8825 82.4021 97.7361 82.6213 97.5515 82.806C97.3668 82.9907 97.1478 83.137 96.9064 83.2369C96.6653 83.337 96.4068 83.3884 96.1455 83.3884H90.9449C90.6866 83.3856 90.4315 83.3319 90.1939 83.2303C89.9566 83.1288 89.7414 82.9816 89.5607 82.7969C89.3801 82.6122 89.2375 82.3939 89.1414 82.1542C89.0452 81.9145 88.9972 81.6581 89.0001 81.3998V54.5226C89.0058 54.0107 89.2132 53.5216 89.5772 53.1615C89.9413 52.8014 90.4328 52.5996 90.9449 52.5996H101.652C110.174 52.5996 114.304 57.1448 114.304 63.9187ZM105.083 63.9187C105.099 63.4772 105.019 63.0373 104.848 62.6299C104.677 62.2227 104.419 61.8573 104.093 61.5599C103.766 61.2624 103.379 61.0397 102.957 60.9074C102.535 60.7752 102.09 60.7365 101.652 60.7941H98.1341V67.1091H101.608C102.056 67.1749 102.512 67.1402 102.944 67.0073C103.376 66.8745 103.773 66.647 104.105 66.3414C104.438 66.0357 104.699 65.6595 104.868 65.2404C105.037 64.8214 105.11 64.3697 105.083 63.9187Z" fill="black"/>
<path d="M148.5 68.0267C148.483 71.1659 147.536 74.2294 145.779 76.8309C144.022 79.4323 141.534 81.4547 138.628 82.6432C135.723 83.8315 132.53 84.1323 129.454 83.5076C126.377 82.8831 123.555 81.3612 121.343 79.1338C119.131 76.9066 117.628 74.0737 117.025 70.9931C116.421 67.9125 116.744 64.7223 117.953 61.8249C119.161 58.9275 121.2 56.4532 123.814 54.714C126.427 52.9748 129.497 52.0491 132.636 52.0533C134.744 51.9985 136.84 52.3751 138.797 53.1599C140.753 53.9448 142.529 55.1212 144.015 56.6169C145.5 58.1128 146.665 59.8966 147.436 61.8585C148.207 63.8207 148.57 65.9197 148.5 68.0267ZM139.388 68.0267C139.312 66.7109 138.851 65.446 138.064 64.3887C137.277 63.3311 136.198 62.5272 134.959 62.076C133.721 61.6247 132.377 61.5458 131.094 61.849C129.812 62.1524 128.645 62.8245 127.74 63.7826C126.835 64.7407 126.23 65.9429 125.999 67.2408C125.769 68.5387 125.924 69.8757 126.444 71.0868C126.965 72.2977 127.829 73.3299 128.929 74.0559C130.029 74.782 131.318 75.17 132.636 75.1721C133.565 75.2038 134.491 75.0375 135.351 74.6842C136.211 74.3309 136.986 73.7987 137.625 73.123C138.263 72.4471 138.751 71.6432 139.055 70.7646C139.359 69.886 139.473 68.9527 139.388 68.0267Z" fill="black"/>
<path d="M154.206 52.5993H159.429C159.684 52.5963 159.938 52.6439 160.175 52.7389C160.412 52.8341 160.628 52.9748 160.811 53.1533C160.993 53.3319 161.139 53.5447 161.239 53.7797C161.339 54.0145 161.393 54.2669 161.395 54.5223V81.3994C161.398 81.6596 161.35 81.9177 161.252 82.1589C161.155 82.3999 161.01 82.6194 160.827 82.8043C160.644 82.9892 160.427 83.1361 160.186 83.2363C159.947 83.3364 159.689 83.388 159.429 83.388H154.206C153.688 83.3766 153.196 83.1612 152.836 82.7889C152.476 82.4168 152.277 81.9173 152.283 81.3994V54.5223C152.289 54.0139 152.493 53.5282 152.853 53.1688C153.212 52.8093 153.698 52.605 154.206 52.5993Z" fill="black"/>
<path d="M186.937 52.5996H192.116C192.624 52.6051 193.11 52.8097 193.47 53.1691C193.829 53.5283 194.033 54.0143 194.039 54.5224V81.3998C194.045 81.9177 193.846 82.417 193.486 82.7893C193.126 83.1616 192.634 83.3768 192.116 83.3884H187.178C186.776 83.4036 186.377 83.3076 186.026 83.1108C185.676 82.9143 185.386 82.6247 185.189 82.2739L175.4 66.9777V81.3998C175.4 81.9196 175.196 82.4191 174.833 82.7906C174.469 83.1622 173.975 83.3768 173.455 83.3884H168.254C167.727 83.3884 167.221 83.1787 166.848 82.8058C166.475 82.433 166.266 81.9272 166.266 81.3998V54.5224C166.269 54.2652 166.322 54.0111 166.424 53.7748C166.526 53.5385 166.673 53.3246 166.858 53.1459C167.043 52.9669 167.262 52.8266 167.502 52.7327C167.741 52.639 167.997 52.5937 168.254 52.5996H173.149C173.543 52.5996 173.93 52.6999 174.274 52.8909C174.618 53.0822 174.908 53.3578 175.116 53.6921L184.971 68.9881V54.5224C184.974 54.2671 185.027 54.0147 185.127 53.7799C185.227 53.5451 185.373 53.3322 185.556 53.1537C185.738 52.9751 185.954 52.8342 186.191 52.7393C186.428 52.6441 186.682 52.5967 186.937 52.5996Z" fill="black"/>
<path d="M221.179 54.5225V58.8927C221.179 59.4046 220.977 59.8961 220.617 60.2602C220.257 60.6242 219.768 60.8318 219.256 60.8375H213.946V81.3996C213.952 81.9175 213.753 82.4168 213.393 82.7891C213.033 83.1614 212.541 83.3768 212.023 83.3882H206.801C206.541 83.3882 206.283 83.3366 206.043 83.2363C205.803 83.1363 205.585 82.9894 205.402 82.8045C205.219 82.6196 205.075 82.4001 204.978 82.1589C204.88 81.9179 204.831 81.6598 204.834 81.3996V60.7937H199.568C199.054 60.7882 198.562 60.5813 198.199 60.2178C197.835 59.8544 197.629 59.363 197.623 58.8489V54.4787C197.634 53.9684 197.844 53.4827 198.207 53.1239C198.57 52.7649 199.058 52.5612 199.568 52.5557H219.234C219.491 52.5557 219.746 52.6066 219.984 52.7059C220.221 52.8049 220.436 52.9502 220.617 53.133C220.798 53.316 220.941 53.533 221.037 53.7714C221.134 54.0099 221.182 54.2652 221.179 54.5225Z" fill="black"/>
<path d="M247.664 74.0357C247.664 79.3674 243.031 84 235.536 84C230.467 84 224.96 82.2737 223.015 77.4447C222.913 77.2407 222.858 77.0169 222.852 76.7891C222.847 76.5612 222.891 76.3349 222.983 76.1263C223.075 75.9177 223.211 75.7319 223.383 75.5822C223.555 75.4322 223.757 75.3222 223.977 75.2595L228.915 73.7298C229.252 73.6302 229.613 73.6448 229.941 73.7713C230.269 73.8978 230.546 74.129 230.729 74.429C231.242 75.0865 231.909 75.6075 232.671 75.9467C233.433 76.2858 234.267 76.4326 235.099 76.374C237.481 76.374 238.486 75.2595 238.486 74.1887C238.486 72.3315 236.192 72.1565 233.111 71.4135C227.123 69.9496 223.714 67.524 223.714 61.8863C223.714 56.2487 228.653 52.0314 235.449 52.0314C237.71 51.8609 239.97 52.3875 241.923 53.54C243.876 54.6923 245.43 56.4156 246.374 58.4776C246.463 58.693 246.504 58.925 246.494 59.1577C246.485 59.3904 246.425 59.6185 246.319 59.826C246.213 60.0336 246.064 60.2157 245.881 60.36C245.698 60.5045 245.486 60.6077 245.26 60.6627L240.365 61.8425C240.056 61.9206 239.73 61.9041 239.43 61.7949C239.13 61.686 238.87 61.4894 238.683 61.2307C238.349 60.7435 237.892 60.3534 237.359 60.1C236.825 59.8468 236.234 59.7393 235.645 59.7886C233.832 59.7886 232.564 60.5315 232.564 61.9737C232.564 63.7217 235.252 63.9405 237.634 64.6179C245.107 66.628 247.664 69.1411 247.664 74.0357Z" fill="black"/>
<defs>
<linearGradient id="paint0_linear" x1="167.98" y1="0" x2="167.98" y2="143.903" gradientUnits="userSpaceOnUse">
<stop stop-color="#6FD74A"/>
<stop offset="1" stop-color="#24A240"/>
</linearGradient>
<linearGradient id="paint1_linear" x1="167.98" y1="0" x2="167.98" y2="143.903" gradientUnits="userSpaceOnUse">
<stop stop-color="#6FD74A"/>
<stop offset="1" stop-color="#24A240"/>
</linearGradient>
<linearGradient id="paint2_linear" x1="232.952" y1="16.9917" x2="297.182" y2="16.9917" gradientUnits="userSpaceOnUse">
<stop offset="0.05" stop-color="#7DB828"/>
<stop offset="0.41" stop-color="#EFE300" stop-opacity="0.34"/>
<stop offset="0.68" stop-color="#EFE300" stop-opacity="0.34"/>
<stop offset="1" stop-color="#BAC32F"/>
</linearGradient>
<linearGradient id="paint3_linear" x1="16.6759" y1="140.96" x2="16.6759" y2="76.73" gradientUnits="userSpaceOnUse">
<stop offset="0.05" stop-color="#1EA723"/>
<stop offset="0.41" stop-color="#EFE300" stop-opacity="0.34"/>
<stop offset="0.588542" stop-color="#B1EF00" stop-opacity="0.34"/>
<stop offset="1" stop-color="#36B477"/>
</linearGradient>
<linearGradient id="paint4_linear" x1="323.078" y1="113.27" x2="329.504" y2="113.27" gradientUnits="userSpaceOnUse">
<stop offset="0.05" stop-color="#7DB828"/>
<stop offset="1" stop-color="#EFE300" stop-opacity="0.34"/>
</linearGradient>
<linearGradient id="paint5_linear" x1="-2189.71" y1="-6587.41" x2="-2172.81" y2="-6587.41" gradientUnits="userSpaceOnUse">
<stop offset="0.05" stop-color="#7DB828"/>
<stop offset="1" stop-color="#EFE300" stop-opacity="0.34"/>
</linearGradient>
<linearGradient id="paint6_linear" x1="-1152.72" y1="-96.7185" x2="-1148.65" y2="-96.7185" gradientUnits="userSpaceOnUse">
<stop offset="0.05" stop-color="#7DB828"/>
<stop offset="0.41" stop-color="#EFE300" stop-opacity="0.34"/>
<stop offset="0.68" stop-color="#EFE300" stop-opacity="0.34"/>
<stop offset="1" stop-color="#BAC32F"/>
</linearGradient>
<linearGradient id="paint7_linear" x1="-1118.36" y1="-184.808" x2="-1114.32" y2="-184.808" gradientUnits="userSpaceOnUse">
<stop offset="0.05" stop-color="#7DB828"/>
<stop offset="0.41" stop-color="#EFE300" stop-opacity="0.34"/>
<stop offset="0.68" stop-color="#EFE300" stop-opacity="0.34"/>
<stop offset="1" stop-color="#BAC32F"/>
</linearGradient>
<linearGradient id="paint8_linear" x1="-1096.04" y1="-184.808" x2="-1092" y2="-184.808" gradientUnits="userSpaceOnUse">
<stop offset="0.05" stop-color="#7DB828"/>
<stop offset="0.41" stop-color="#EFE300" stop-opacity="0.34"/>
<stop offset="0.68" stop-color="#EFE300" stop-opacity="0.34"/>
<stop offset="1" stop-color="#BAC32F"/>
</linearGradient>
<linearGradient id="paint9_linear" x1="-1073.81" y1="-96.7191" x2="-1069.78" y2="-96.7191" gradientUnits="userSpaceOnUse">
<stop offset="0.05" stop-color="#7DB828"/>
<stop offset="0.41" stop-color="#EFE300" stop-opacity="0.34"/>
<stop offset="0.68" stop-color="#EFE300" stop-opacity="0.34"/>
<stop offset="1" stop-color="#BAC32F"/>
</linearGradient>
<linearGradient id="paint10_linear" x1="-1196.14" y1="-162.293" x2="-1192.04" y2="-162.293" gradientUnits="userSpaceOnUse">
<stop offset="0.05" stop-color="#7DB828"/>
<stop offset="0.41" stop-color="#EFE300" stop-opacity="0.34"/>
<stop offset="0.68" stop-color="#EFE300" stop-opacity="0.34"/>
<stop offset="1" stop-color="#BAC32F"/>
</linearGradient>
<linearGradient id="paint11_linear" x1="-1163" y1="-162.293" x2="-1158.97" y2="-162.293" gradientUnits="userSpaceOnUse">
<stop offset="0.05" stop-color="#7DB828"/>
<stop offset="0.41" stop-color="#EFE300" stop-opacity="0.34"/>
<stop offset="0.68" stop-color="#EFE300" stop-opacity="0.34"/>
<stop offset="1" stop-color="#BAC32F"/>
</linearGradient>
<linearGradient id="paint12_linear" x1="-1140.68" y1="-162.293" x2="-1136.65" y2="-162.293" gradientUnits="userSpaceOnUse">
<stop offset="0.05" stop-color="#7DB828"/>
<stop offset="0.41" stop-color="#EFE300" stop-opacity="0.34"/>
<stop offset="0.68" stop-color="#EFE300" stop-opacity="0.34"/>
<stop offset="1" stop-color="#BAC32F"/>
</linearGradient>
<linearGradient id="paint13_linear" x1="-1118.36" y1="-162.293" x2="-1114.32" y2="-162.293" gradientUnits="userSpaceOnUse">
<stop offset="0.05" stop-color="#7DB828"/>
<stop offset="0.41" stop-color="#EFE300" stop-opacity="0.34"/>
<stop offset="0.68" stop-color="#EFE300" stop-opacity="0.34"/>
<stop offset="1" stop-color="#BAC32F"/>
</linearGradient>
<linearGradient id="paint14_linear" x1="-1096.04" y1="-162.293" x2="-1092" y2="-162.293" gradientUnits="userSpaceOnUse">
<stop offset="0.05" stop-color="#7DB828"/>
<stop offset="0.41" stop-color="#EFE300" stop-opacity="0.34"/>
<stop offset="0.68" stop-color="#EFE300" stop-opacity="0.34"/>
<stop offset="1" stop-color="#BAC32F"/>
</linearGradient>
<linearGradient id="paint15_linear" x1="-1083.99" y1="-162.293" x2="-1079.89" y2="-162.293" gradientUnits="userSpaceOnUse">
<stop offset="0.05" stop-color="#7DB828"/>
<stop offset="0.41" stop-color="#EFE300" stop-opacity="0.34"/>
<stop offset="0.68" stop-color="#EFE300" stop-opacity="0.34"/>
<stop offset="1" stop-color="#BAC32F"/>
</linearGradient>
<linearGradient id="paint16_linear" x1="-1061.57" y1="-162.293" x2="-1057.47" y2="-162.293" gradientUnits="userSpaceOnUse">
<stop offset="0.05" stop-color="#7DB828"/>
<stop offset="0.41" stop-color="#EFE300" stop-opacity="0.34"/>
<stop offset="0.68" stop-color="#EFE300" stop-opacity="0.34"/>
<stop offset="1" stop-color="#BAC32F"/>
</linearGradient>
<linearGradient id="paint17_linear" x1="-1039.18" y1="-162.293" x2="-1035.09" y2="-162.293" gradientUnits="userSpaceOnUse">
<stop offset="0.05" stop-color="#7DB828"/>
<stop offset="0.41" stop-color="#EFE300" stop-opacity="0.34"/>
<stop offset="0.68" stop-color="#EFE300" stop-opacity="0.34"/>
<stop offset="1" stop-color="#BAC32F"/>
</linearGradient>
<linearGradient id="paint18_linear" x1="-1218.55" y1="-138.031" x2="-1214.45" y2="-138.031" gradientUnits="userSpaceOnUse">
<stop offset="0.05" stop-color="#7DB828"/>
<stop offset="0.41" stop-color="#EFE300" stop-opacity="0.34"/>
<stop offset="0.68" stop-color="#EFE300" stop-opacity="0.34"/>
<stop offset="1" stop-color="#BAC32F"/>
</linearGradient>
<linearGradient id="paint19_linear" x1="-1196.14" y1="-138.031" x2="-1192.04" y2="-138.031" gradientUnits="userSpaceOnUse">
<stop offset="0.05" stop-color="#7DB828"/>
<stop offset="0.41" stop-color="#EFE300" stop-opacity="0.34"/>
<stop offset="0.68" stop-color="#EFE300" stop-opacity="0.34"/>
<stop offset="1" stop-color="#BAC32F"/>
</linearGradient>
<linearGradient id="paint20_linear" x1="-1163" y1="-138.031" x2="-1158.97" y2="-138.031" gradientUnits="userSpaceOnUse">
<stop offset="0.05" stop-color="#7DB828"/>
<stop offset="0.41" stop-color="#EFE300" stop-opacity="0.34"/>
<stop offset="0.68" stop-color="#EFE300" stop-opacity="0.34"/>
<stop offset="1" stop-color="#BAC32F"/>
</linearGradient>
<linearGradient id="paint21_linear" x1="-1140.68" y1="-138.031" x2="-1136.65" y2="-138.031" gradientUnits="userSpaceOnUse">
<stop offset="0.05" stop-color="#7DB828"/>
<stop offset="0.41" stop-color="#EFE300" stop-opacity="0.34"/>
<stop offset="0.68" stop-color="#EFE300" stop-opacity="0.34"/>
<stop offset="1" stop-color="#BAC32F"/>
</linearGradient>
<linearGradient id="paint22_linear" x1="-1118.36" y1="-138.031" x2="-1114.32" y2="-138.031" gradientUnits="userSpaceOnUse">
<stop offset="0.05" stop-color="#7DB828"/>
<stop offset="0.41" stop-color="#EFE300" stop-opacity="0.34"/>
<stop offset="0.68" stop-color="#EFE300" stop-opacity="0.34"/>
<stop offset="1" stop-color="#BAC32F"/>
</linearGradient>
<linearGradient id="paint23_linear" x1="-1096.04" y1="-138.031" x2="-1092" y2="-138.031" gradientUnits="userSpaceOnUse">
<stop offset="0.05" stop-color="#7DB828"/>
<stop offset="0.41" stop-color="#EFE300" stop-opacity="0.34"/>
<stop offset="0.68" stop-color="#EFE300" stop-opacity="0.34"/>
<stop offset="1" stop-color="#BAC32F"/>
</linearGradient>
<linearGradient id="paint24_linear" x1="-1083.99" y1="-138.031" x2="-1079.89" y2="-138.031" gradientUnits="userSpaceOnUse">
<stop offset="0.05" stop-color="#7DB828"/>
<stop offset="0.41" stop-color="#EFE300" stop-opacity="0.34"/>
<stop offset="0.68" stop-color="#EFE300" stop-opacity="0.34"/>
<stop offset="1" stop-color="#BAC32F"/>
</linearGradient>
<linearGradient id="paint25_linear" x1="-1061.57" y1="-138.031" x2="-1057.47" y2="-138.031" gradientUnits="userSpaceOnUse">
<stop offset="0.05" stop-color="#7DB828"/>
<stop offset="0.41" stop-color="#EFE300" stop-opacity="0.34"/>
<stop offset="0.68" stop-color="#EFE300" stop-opacity="0.34"/>
<stop offset="1" stop-color="#BAC32F"/>
</linearGradient>
<linearGradient id="paint26_linear" x1="-1039.18" y1="-138.031" x2="-1035.09" y2="-138.031" gradientUnits="userSpaceOnUse">
<stop offset="0.05" stop-color="#7DB828"/>
<stop offset="0.41" stop-color="#EFE300" stop-opacity="0.34"/>
<stop offset="0.68" stop-color="#EFE300" stop-opacity="0.34"/>
<stop offset="1" stop-color="#BAC32F"/>
</linearGradient>
<linearGradient id="paint27_linear" x1="-1016.74" y1="-138.031" x2="-1012.64" y2="-138.031" gradientUnits="userSpaceOnUse">
<stop offset="0.05" stop-color="#7DB828"/>
<stop offset="0.41" stop-color="#EFE300" stop-opacity="0.34"/>
<stop offset="0.68" stop-color="#EFE300" stop-opacity="0.34"/>
<stop offset="1" stop-color="#BAC32F"/>
</linearGradient>
<linearGradient id="paint28_linear" x1="-1241.01" y1="-115.759" x2="-1236.91" y2="-115.759" gradientUnits="userSpaceOnUse">
<stop offset="0.05" stop-color="#7DB828"/>
<stop offset="0.41" stop-color="#EFE300" stop-opacity="0.34"/>
<stop offset="0.68" stop-color="#EFE300" stop-opacity="0.34"/>
<stop offset="1" stop-color="#BAC32F"/>
</linearGradient>
<linearGradient id="paint29_linear" x1="-1218.55" y1="-115.759" x2="-1214.45" y2="-115.759" gradientUnits="userSpaceOnUse">
<stop offset="0.05" stop-color="#7DB828"/>
<stop offset="0.41" stop-color="#EFE300" stop-opacity="0.34"/>
<stop offset="0.68" stop-color="#EFE300" stop-opacity="0.34"/>
<stop offset="1" stop-color="#BAC32F"/>
</linearGradient>
<linearGradient id="paint30_linear" x1="-1196.14" y1="-115.759" x2="-1192.04" y2="-115.759" gradientUnits="userSpaceOnUse">
<stop offset="0.05" stop-color="#7DB828"/>
<stop offset="0.41" stop-color="#EFE300" stop-opacity="0.34"/>
<stop offset="0.68" stop-color="#EFE300" stop-opacity="0.34"/>
<stop offset="1" stop-color="#BAC32F"/>
</linearGradient>
<linearGradient id="paint31_linear" x1="-1163" y1="-115.759" x2="-1158.97" y2="-115.759" gradientUnits="userSpaceOnUse">
<stop offset="0.05" stop-color="#7DB828"/>
<stop offset="0.41" stop-color="#EFE300" stop-opacity="0.34"/>
<stop offset="0.68" stop-color="#EFE300" stop-opacity="0.34"/>
<stop offset="1" stop-color="#BAC32F"/>
</linearGradient>
<linearGradient id="paint32_linear" x1="-1140.68" y1="-115.759" x2="-1136.65" y2="-115.759" gradientUnits="userSpaceOnUse">
<stop offset="0.05" stop-color="#7DB828"/>
<stop offset="0.41" stop-color="#EFE300" stop-opacity="0.34"/>
<stop offset="0.68" stop-color="#EFE300" stop-opacity="0.34"/>
<stop offset="1" stop-color="#BAC32F"/>
</linearGradient>
<linearGradient id="paint33_linear" x1="-1118.36" y1="-115.759" x2="-1114.32" y2="-115.759" gradientUnits="userSpaceOnUse">
<stop offset="0.05" stop-color="#7DB828"/>
<stop offset="0.41" stop-color="#EFE300" stop-opacity="0.34"/>
<stop offset="0.68" stop-color="#EFE300" stop-opacity="0.34"/>
<stop offset="1" stop-color="#BAC32F"/>
</linearGradient>
<linearGradient id="paint34_linear" x1="-1096.04" y1="-115.759" x2="-1092" y2="-115.759" gradientUnits="userSpaceOnUse">
<stop offset="0.05" stop-color="#7DB828"/>
<stop offset="0.41" stop-color="#EFE300" stop-opacity="0.34"/>
<stop offset="0.68" stop-color="#EFE300" stop-opacity="0.34"/>
<stop offset="1" stop-color="#BAC32F"/>
</linearGradient>
<linearGradient id="paint35_linear" x1="-1083.99" y1="-115.759" x2="-1079.89" y2="-115.759" gradientUnits="userSpaceOnUse">
<stop offset="0.05" stop-color="#7DB828"/>
<stop offset="0.41" stop-color="#EFE300" stop-opacity="0.34"/>
<stop offset="0.68" stop-color="#EFE300" stop-opacity="0.34"/>
<stop offset="1" stop-color="#BAC32F"/>
</linearGradient>
<linearGradient id="paint36_linear" x1="-1061.57" y1="-115.759" x2="-1057.47" y2="-115.759" gradientUnits="userSpaceOnUse">
<stop offset="0.05" stop-color="#7DB828"/>
<stop offset="0.41" stop-color="#EFE300" stop-opacity="0.34"/>
<stop offset="0.68" stop-color="#EFE300" stop-opacity="0.34"/>
<stop offset="1" stop-color="#BAC32F"/>
</linearGradient>
<linearGradient id="paint37_linear" x1="-1039.18" y1="-115.759" x2="-1035.09" y2="-115.759" gradientUnits="userSpaceOnUse">
<stop offset="0.05" stop-color="#7DB828"/>
<stop offset="0.41" stop-color="#EFE300" stop-opacity="0.34"/>
<stop offset="0.68" stop-color="#EFE300" stop-opacity="0.34"/>
<stop offset="1" stop-color="#BAC32F"/>
</linearGradient>
<linearGradient id="paint38_linear" x1="-1016.74" y1="-115.759" x2="-1012.64" y2="-115.759" gradientUnits="userSpaceOnUse">
<stop offset="0.05" stop-color="#7DB828"/>
<stop offset="0.41" stop-color="#EFE300" stop-opacity="0.34"/>
<stop offset="0.68" stop-color="#EFE300" stop-opacity="0.34"/>
<stop offset="1" stop-color="#BAC32F"/>
</linearGradient>
<linearGradient id="paint39_linear" x1="-994.317" y1="-115.759" x2="-990.219" y2="-115.759" gradientUnits="userSpaceOnUse">
<stop offset="0.05" stop-color="#7DB828"/>
<stop offset="0.41" stop-color="#EFE300" stop-opacity="0.34"/>
<stop offset="0.68" stop-color="#EFE300" stop-opacity="0.34"/>
<stop offset="1" stop-color="#BAC32F"/>
</linearGradient>
<linearGradient id="paint40_linear" x1="-1241.01" y1="-93.4788" x2="-1236.91" y2="-93.4788" gradientUnits="userSpaceOnUse">
<stop offset="0.05" stop-color="#7DB828"/>
<stop offset="0.41" stop-color="#EFE300" stop-opacity="0.34"/>
<stop offset="0.68" stop-color="#EFE300" stop-opacity="0.34"/>
<stop offset="1" stop-color="#BAC32F"/>
</linearGradient>
<linearGradient id="paint41_linear" x1="-1218.55" y1="-93.4788" x2="-1214.45" y2="-93.4788" gradientUnits="userSpaceOnUse">
<stop offset="0.05" stop-color="#7DB828"/>
<stop offset="0.41" stop-color="#EFE300" stop-opacity="0.34"/>
<stop offset="0.68" stop-color="#EFE300" stop-opacity="0.34"/>
<stop offset="1" stop-color="#BAC32F"/>
</linearGradient>
<linearGradient id="paint42_linear" x1="-1196.14" y1="-93.4788" x2="-1192.04" y2="-93.4788" gradientUnits="userSpaceOnUse">
<stop offset="0.05" stop-color="#7DB828"/>
<stop offset="0.41" stop-color="#EFE300" stop-opacity="0.34"/>
<stop offset="0.68" stop-color="#EFE300" stop-opacity="0.34"/>
<stop offset="1" stop-color="#BAC32F"/>
</linearGradient>
<linearGradient id="paint43_linear" x1="-1163" y1="-93.4788" x2="-1158.97" y2="-93.4788" gradientUnits="userSpaceOnUse">
<stop offset="0.05" stop-color="#7DB828"/>
<stop offset="0.41" stop-color="#EFE300" stop-opacity="0.34"/>
<stop offset="0.68" stop-color="#EFE300" stop-opacity="0.34"/>
<stop offset="1" stop-color="#BAC32F"/>
</linearGradient>
<linearGradient id="paint44_linear" x1="-1061.57" y1="-93.4788" x2="-1057.47" y2="-93.4788" gradientUnits="userSpaceOnUse">
<stop offset="0.05" stop-color="#7DB828"/>
<stop offset="0.41" stop-color="#EFE300" stop-opacity="0.34"/>
<stop offset="0.68" stop-color="#EFE300" stop-opacity="0.34"/>
<stop offset="1" stop-color="#BAC32F"/>
</linearGradient>
<linearGradient id="paint45_linear" x1="-1039.18" y1="-93.4788" x2="-1035.09" y2="-93.4788" gradientUnits="userSpaceOnUse">
<stop offset="0.05" stop-color="#7DB828"/>
<stop offset="0.41" stop-color="#EFE300" stop-opacity="0.34"/>
<stop offset="0.68" stop-color="#EFE300" stop-opacity="0.34"/>
<stop offset="1" stop-color="#BAC32F"/>
</linearGradient>
<linearGradient id="paint46_linear" x1="-1016.74" y1="-93.4788" x2="-1012.64" y2="-93.4788" gradientUnits="userSpaceOnUse">
<stop offset="0.05" stop-color="#7DB828"/>
<stop offset="0.41" stop-color="#EFE300" stop-opacity="0.34"/>
<stop offset="0.68" stop-color="#EFE300" stop-opacity="0.34"/>
<stop offset="1" stop-color="#BAC32F"/>
</linearGradient>
<linearGradient id="paint47_linear" x1="-994.317" y1="-93.4788" x2="-990.219" y2="-93.4788" gradientUnits="userSpaceOnUse">
<stop offset="0.05" stop-color="#7DB828"/>
<stop offset="0.41" stop-color="#EFE300" stop-opacity="0.34"/>
<stop offset="0.68" stop-color="#EFE300" stop-opacity="0.34"/>
<stop offset="1" stop-color="#BAC32F"/>
</linearGradient>
<linearGradient id="paint48_linear" x1="-807.358" y1="-72.7911" x2="-805.435" y2="-72.7911" gradientUnits="userSpaceOnUse">
<stop offset="0.05" stop-color="#7DB828"/>
<stop offset="0.41" stop-color="#EFE300" stop-opacity="0.34"/>
<stop offset="0.68" stop-color="#EFE300" stop-opacity="0.34"/>
<stop offset="1" stop-color="#BAC32F"/>
</linearGradient>
<linearGradient id="paint49_linear" x1="-1241.01" y1="-71.0851" x2="-1236.91" y2="-71.0851" gradientUnits="userSpaceOnUse">
<stop offset="0.05" stop-color="#7DB828"/>
<stop offset="0.41" stop-color="#EFE300" stop-opacity="0.34"/>
<stop offset="0.68" stop-color="#EFE300" stop-opacity="0.34"/>
<stop offset="1" stop-color="#BAC32F"/>
</linearGradient>
<linearGradient id="paint50_linear" x1="-1218.55" y1="-71.0851" x2="-1214.45" y2="-71.0851" gradientUnits="userSpaceOnUse">
<stop offset="0.05" stop-color="#7DB828"/>
<stop offset="0.41" stop-color="#EFE300" stop-opacity="0.34"/>
<stop offset="0.68" stop-color="#EFE300" stop-opacity="0.34"/>
<stop offset="1" stop-color="#BAC32F"/>
</linearGradient>
<linearGradient id="paint51_linear" x1="-1196.14" y1="-71.0851" x2="-1192.04" y2="-71.0851" gradientUnits="userSpaceOnUse">
<stop offset="0.05" stop-color="#7DB828"/>
<stop offset="0.41" stop-color="#EFE300" stop-opacity="0.34"/>
<stop offset="0.68" stop-color="#EFE300" stop-opacity="0.34"/>
<stop offset="1" stop-color="#BAC32F"/>
</linearGradient>
<linearGradient id="paint52_linear" x1="-1039.18" y1="-71.0851" x2="-1035.09" y2="-71.0851" gradientUnits="userSpaceOnUse">
<stop offset="0.05" stop-color="#7DB828"/>
<stop offset="0.41" stop-color="#EFE300" stop-opacity="0.34"/>
<stop offset="0.68" stop-color="#EFE300" stop-opacity="0.34"/>
<stop offset="1" stop-color="#BAC32F"/>
</linearGradient>
<linearGradient id="paint53_linear" x1="-1016.74" y1="-71.0851" x2="-1012.64" y2="-71.0851" gradientUnits="userSpaceOnUse">
<stop offset="0.05" stop-color="#7DB828"/>
<stop offset="0.41" stop-color="#EFE300" stop-opacity="0.34"/>
<stop offset="0.68" stop-color="#EFE300" stop-opacity="0.34"/>
<stop offset="1" stop-color="#BAC32F"/>
</linearGradient>
<linearGradient id="paint54_linear" x1="-994.317" y1="-71.0851" x2="-990.219" y2="-71.0851" gradientUnits="userSpaceOnUse">
<stop offset="0.05" stop-color="#7DB828"/>
<stop offset="0.41" stop-color="#EFE300" stop-opacity="0.34"/>
<stop offset="0.68" stop-color="#EFE300" stop-opacity="0.34"/>
<stop offset="1" stop-color="#BAC32F"/>
</linearGradient>
<linearGradient id="paint55_linear" x1="-560.016" y1="-66.5675" x2="-558.136" y2="-66.5675" gradientUnits="userSpaceOnUse">
<stop offset="0.05" stop-color="#7DB828"/>
<stop offset="0.41" stop-color="#EFE300" stop-opacity="0.34"/>
<stop offset="0.68" stop-color="#EFE300" stop-opacity="0.34"/>
<stop offset="1" stop-color="#BAC32F"/>
</linearGradient>
<linearGradient id="paint56_linear" x1="-1263.4" y1="-50.2412" x2="-1259.3" y2="-50.2412" gradientUnits="userSpaceOnUse">
<stop offset="0.05" stop-color="#7DB828"/>
<stop offset="0.41" stop-color="#EFE300" stop-opacity="0.34"/>
<stop offset="0.68" stop-color="#EFE300" stop-opacity="0.34"/>
<stop offset="1" stop-color="#BAC32F"/>
</linearGradient>
<linearGradient id="paint57_linear" x1="-1241.01" y1="-50.2412" x2="-1236.91" y2="-50.2412" gradientUnits="userSpaceOnUse">
<stop offset="0.05" stop-color="#7DB828"/>
<stop offset="0.41" stop-color="#EFE300" stop-opacity="0.34"/>
<stop offset="0.68" stop-color="#EFE300" stop-opacity="0.34"/>
<stop offset="1" stop-color="#BAC32F"/>
</linearGradient>
<linearGradient id="paint58_linear" x1="-1218.55" y1="-50.2412" x2="-1214.45" y2="-50.2412" gradientUnits="userSpaceOnUse">
<stop offset="0.05" stop-color="#7DB828"/>
<stop offset="0.41" stop-color="#EFE300" stop-opacity="0.34"/>
<stop offset="0.68" stop-color="#EFE300" stop-opacity="0.34"/>
<stop offset="1" stop-color="#BAC32F"/>
</linearGradient>
<linearGradient id="paint59_linear" x1="-1196.14" y1="-50.2412" x2="-1192.04" y2="-50.2412" gradientUnits="userSpaceOnUse">
<stop offset="0.05" stop-color="#7DB828"/>
<stop offset="0.41" stop-color="#EFE300" stop-opacity="0.34"/>
<stop offset="0.68" stop-color="#EFE300" stop-opacity="0.34"/>
<stop offset="1" stop-color="#BAC32F"/>
</linearGradient>
<linearGradient id="paint60_linear" x1="-1039.18" y1="-50.2412" x2="-1035.09" y2="-50.2412" gradientUnits="userSpaceOnUse">
<stop offset="0.05" stop-color="#7DB828"/>
<stop offset="0.41" stop-color="#EFE300" stop-opacity="0.34"/>
<stop offset="0.68" stop-color="#EFE300" stop-opacity="0.34"/>
<stop offset="1" stop-color="#BAC32F"/>
</linearGradient>
<linearGradient id="paint61_linear" x1="-1016.74" y1="-50.2412" x2="-1012.64" y2="-50.2412" gradientUnits="userSpaceOnUse">
<stop offset="0.05" stop-color="#7DB828"/>
<stop offset="0.41" stop-color="#EFE300" stop-opacity="0.34"/>
<stop offset="0.68" stop-color="#EFE300" stop-opacity="0.34"/>
<stop offset="1" stop-color="#BAC32F"/>
</linearGradient>
<linearGradient id="paint62_linear" x1="-994.317" y1="-50.2412" x2="-990.219" y2="-50.2412" gradientUnits="userSpaceOnUse">
<stop offset="0.05" stop-color="#7DB828"/>
<stop offset="0.41" stop-color="#EFE300" stop-opacity="0.34"/>
<stop offset="0.68" stop-color="#EFE300" stop-opacity="0.34"/>
<stop offset="1" stop-color="#BAC32F"/>
</linearGradient>
<linearGradient id="paint63_linear" x1="-971.928" y1="-50.2412" x2="-967.83" y2="-50.2412" gradientUnits="userSpaceOnUse">
<stop offset="0.05" stop-color="#7DB828"/>
<stop offset="0.41" stop-color="#EFE300" stop-opacity="0.34"/>
<stop offset="0.68" stop-color="#EFE300" stop-opacity="0.34"/>
<stop offset="1" stop-color="#BAC32F"/>
</linearGradient>
<linearGradient id="paint64_linear" x1="63.12" y1="67.2738" x2="68.5755" y2="67.2738" gradientUnits="userSpaceOnUse">
<stop offset="0.05" stop-color="#7DB828"/>
<stop offset="0.41" stop-color="#EFE300" stop-opacity="0.34"/>
<stop offset="0.68" stop-color="#EFE300" stop-opacity="0.34"/>
<stop offset="1" stop-color="#BAC32F"/>
</linearGradient>
<linearGradient id="paint65_linear" x1="178.993" y1="333.527" x2="191.323" y2="333.527" gradientUnits="userSpaceOnUse">
<stop offset="0.05" stop-color="#7DB828"/>
<stop offset="0.41" stop-color="#EFE300" stop-opacity="0.34"/>
<stop offset="0.68" stop-color="#EFE300" stop-opacity="0.34"/>
<stop offset="1" stop-color="#BAC32F"/>
</linearGradient>
<linearGradient id="paint66_linear" x1="234.089" y1="223.315" x2="246.419" y2="223.315" gradientUnits="userSpaceOnUse">
<stop offset="0.05" stop-color="#7DB828"/>
<stop offset="0.41" stop-color="#EFE300" stop-opacity="0.34"/>
<stop offset="0.68" stop-color="#EFE300" stop-opacity="0.34"/>
<stop offset="1" stop-color="#BAC32F"/>
</linearGradient>
<linearGradient id="paint67_linear" x1="234.089" y1="278.337" x2="246.419" y2="278.337" gradientUnits="userSpaceOnUse">
<stop offset="0.05" stop-color="#7DB828"/>
<stop offset="0.41" stop-color="#EFE300" stop-opacity="0.34"/>
<stop offset="0.68" stop-color="#EFE300" stop-opacity="0.34"/>
<stop offset="1" stop-color="#BAC32F"/>
</linearGradient>
<linearGradient id="paint68_linear" x1="234.09" y1="333.527" x2="246.419" y2="333.527" gradientUnits="userSpaceOnUse">
<stop offset="0.05" stop-color="#7DB828"/>
<stop offset="0.41" stop-color="#EFE300" stop-opacity="0.34"/>
<stop offset="0.68" stop-color="#EFE300" stop-opacity="0.34"/>
<stop offset="1" stop-color="#BAC32F"/>
</linearGradient>
<linearGradient id="paint69_linear" x1="234.097" y1="388.927" x2="246.427" y2="388.927" gradientUnits="userSpaceOnUse">
<stop offset="0.05" stop-color="#7DB828"/>
<stop offset="0.41" stop-color="#EFE300" stop-opacity="0.34"/>
<stop offset="0.68" stop-color="#EFE300" stop-opacity="0.34"/>
<stop offset="1" stop-color="#BAC32F"/>
</linearGradient>
<linearGradient id="paint70_linear" x1="289.184" y1="223.315" x2="301.513" y2="223.315" gradientUnits="userSpaceOnUse">
<stop offset="0.05" stop-color="#7DB828"/>
<stop offset="0.41" stop-color="#EFE300" stop-opacity="0.34"/>
<stop offset="0.68" stop-color="#EFE300" stop-opacity="0.34"/>
<stop offset="1" stop-color="#BAC32F"/>
</linearGradient>
<linearGradient id="paint71_linear" x1="289.184" y1="278.337" x2="301.513" y2="278.337" gradientUnits="userSpaceOnUse">
<stop offset="0.05" stop-color="#7DB828"/>
<stop offset="0.41" stop-color="#EFE300" stop-opacity="0.34"/>
<stop offset="0.68" stop-color="#EFE300" stop-opacity="0.34"/>
<stop offset="1" stop-color="#BAC32F"/>
</linearGradient>
<linearGradient id="paint72_linear" x1="289.179" y1="333.528" x2="301.508" y2="333.528" gradientUnits="userSpaceOnUse">
<stop offset="0.05" stop-color="#7DB828"/>
<stop offset="0.41" stop-color="#EFE300" stop-opacity="0.34"/>
<stop offset="0.68" stop-color="#EFE300" stop-opacity="0.34"/>
<stop offset="1" stop-color="#BAC32F"/>
</linearGradient>
<linearGradient id="paint73_linear" x1="289.179" y1="388.694" x2="301.508" y2="388.694" gradientUnits="userSpaceOnUse">
<stop offset="0.05" stop-color="#7DB828"/>
<stop offset="0.41" stop-color="#EFE300" stop-opacity="0.34"/>
<stop offset="0.68" stop-color="#EFE300" stop-opacity="0.34"/>
<stop offset="1" stop-color="#BAC32F"/>
</linearGradient>
<linearGradient id="paint74_linear" x1="344.285" y1="278.08" x2="356.615" y2="278.08" gradientUnits="userSpaceOnUse">
<stop offset="0.05" stop-color="#7DB828"/>
<stop offset="0.41" stop-color="#EFE300" stop-opacity="0.34"/>
<stop offset="0.68" stop-color="#EFE300" stop-opacity="0.34"/>
<stop offset="1" stop-color="#BAC32F"/>
</linearGradient>
<linearGradient id="paint75_linear" x1="344.275" y1="333.528" x2="356.605" y2="333.528" gradientUnits="userSpaceOnUse">
<stop offset="0.05" stop-color="#7DB828"/>
<stop offset="0.41" stop-color="#EFE300" stop-opacity="0.34"/>
<stop offset="0.68" stop-color="#EFE300" stop-opacity="0.34"/>
<stop offset="1" stop-color="#BAC32F"/>
</linearGradient>
</defs>
</svg>
