<svg width="152" height="64" viewBox="0 0 152 64" fill="none" xmlns="http://www.w3.org/2000/svg">
<g clip-path="url(#clip0)">
<path opacity="0.5" d="M15.984 52.12C18.18 52.12 19.512 51.28 19.512 49.756C19.512 48.64 18.816 47.992 17.652 47.788V47.692C18.684 47.524 19.224 46.876 19.224 45.964C19.224 44.596 18.06 43.84 16.008 43.84C13.512 43.84 12.36 45.016 12.36 46.588V46.696H13.728V46.612C13.728 45.556 14.256 45.064 15.9 45.064C17.46 45.064 17.94 45.436 17.94 46.216C17.94 46.936 17.436 47.296 16.464 47.296H14.4V48.376H16.644C17.652 48.376 18.204 48.748 18.204 49.564C18.204 50.512 17.604 50.896 15.936 50.896C14.16 50.896 13.728 50.404 13.728 49.348V49.18H12.36V49.372C12.36 51.004 13.464 52.12 15.984 52.12ZM26.9564 52V50.836H23.5124L21.5684 50.968C21.5684 50.056 21.9404 49.672 23.0204 49.3L24.7124 48.784C26.1284 48.352 26.9804 47.656 26.9804 46.336C26.9804 44.92 26.0204 43.84 23.7404 43.84C21.2324 43.84 20.2124 45.184 20.2124 46.672V46.792H21.4844V46.648C21.4844 45.592 22.0844 45.028 23.6924 45.028C25.1324 45.028 25.6844 45.46 25.6844 46.312C25.6844 47.02 25.3484 47.344 24.3884 47.692L22.4684 48.352C20.8124 48.916 20.2244 49.66 20.2244 51.148V52H26.9564ZM31.2998 52.12C33.5438 52.12 34.9838 51.364 34.9838 49.804C34.9838 48.7 34.2638 48.04 33.0158 47.788V47.692C34.1438 47.524 34.7558 46.864 34.7558 45.94C34.7558 44.68 33.5798 43.84 31.2998 43.84C29.0198 43.84 27.8438 44.68 27.8438 45.94C27.8438 46.864 28.4678 47.524 29.5718 47.692V47.788C28.3838 48.04 27.6158 48.7 27.6158 49.804C27.6158 51.364 29.0318 52.12 31.2998 52.12ZM31.2998 47.38C29.7518 47.38 29.1398 47.008 29.1398 46.228C29.1398 45.484 29.6318 45.064 31.2998 45.064C32.9798 45.064 33.4718 45.484 33.4718 46.228C33.4718 47.008 32.8598 47.38 31.2998 47.38ZM31.2998 50.896C29.5478 50.896 28.9238 50.5 28.9238 49.564C28.9238 48.688 29.5598 48.268 31.2998 48.268C33.0398 48.268 33.6758 48.688 33.6758 49.564C33.6758 50.5 33.0398 50.896 31.2998 50.896ZM38.634 52V43.96H37.494C37.146 44.728 36.642 44.956 35.754 44.956H35.37V45.88H37.338V52H38.634Z" fill="black"/>
<g opacity="0.88">
<path opacity="0.88" d="M16.82 32C16.5533 32 16.32 31.9 16.12 31.7C15.92 31.5 15.82 31.26 15.82 30.98V18.78L14.36 19.4C14.1333 19.4933 13.92 19.54 13.72 19.54C13.4267 19.54 13.18 19.4467 12.98 19.26C12.7933 19.0733 12.7 18.8333 12.7 18.54C12.7 18.3267 12.7533 18.1333 12.86 17.96C12.9667 17.7867 13.1333 17.66 13.36 17.58L16.48 16.46C16.5467 16.4333 16.6133 16.4133 16.68 16.4C16.7467 16.3867 16.8067 16.38 16.86 16.38C17.1667 16.38 17.4067 16.48 17.58 16.68C17.7667 16.8667 17.86 17.1133 17.86 17.42V30.98C17.86 31.26 17.76 31.5 17.56 31.7C17.36 31.9 17.1133 32 16.82 32ZM25.6316 32C24.1116 32 22.9316 31.3133 22.0916 29.94C21.2649 28.5533 20.8516 26.6333 20.8516 24.18C20.8516 21.7133 21.2649 19.7933 22.0916 18.42C22.9316 17.0467 24.1116 16.36 25.6316 16.36C26.6449 16.36 27.5049 16.68 28.2116 17.32C28.9316 17.9467 29.4782 18.8467 29.8516 20.02C30.2249 21.18 30.4116 22.5667 30.4116 24.18C30.4116 25.7933 30.2249 27.1867 29.8516 28.36C29.4782 29.52 28.9316 30.42 28.2116 31.06C27.5049 31.6867 26.6449 32 25.6316 32ZM25.6316 29.92C26.2449 29.92 26.7516 29.6733 27.1516 29.18C27.5516 28.6733 27.8516 27.9867 28.0516 27.12C28.2516 26.2533 28.3516 25.2733 28.3516 24.18C28.3516 23.0867 28.2516 22.1067 28.0516 21.24C27.8516 20.3733 27.5516 19.6867 27.1516 19.18C26.7516 18.6733 26.2449 18.42 25.6316 18.42C25.0182 18.42 24.5116 18.6733 24.1116 19.18C23.7116 19.6733 23.4116 20.3533 23.2116 21.22C23.0116 22.0867 22.9116 23.0733 22.9116 24.18C22.9116 25.2867 23.0116 26.2733 23.2116 27.14C23.4116 28.0067 23.7116 28.6867 24.1116 29.18C24.5249 29.6733 25.0316 29.92 25.6316 29.92ZM35.4333 32C35.1666 32 34.9333 31.9 34.7333 31.7C34.5333 31.5 34.4333 31.26 34.4333 30.98V18.78L32.9733 19.4C32.7466 19.4933 32.5333 19.54 32.3333 19.54C32.0399 19.54 31.7933 19.4467 31.5933 19.26C31.4066 19.0733 31.3133 18.8333 31.3133 18.54C31.3133 18.3267 31.3666 18.1333 31.4733 17.96C31.5799 17.7867 31.7466 17.66 31.9733 17.58L35.0933 16.46C35.1599 16.4333 35.2266 16.4133 35.2933 16.4C35.3599 16.3867 35.4199 16.38 35.4733 16.38C35.7799 16.38 36.0199 16.48 36.1933 16.68C36.3799 16.8667 36.4733 17.1133 36.4733 17.42V30.98C36.4733 31.26 36.3733 31.5 36.1733 31.7C35.9733 31.9 35.7266 32 35.4333 32ZM47.3642 32C47.0709 32 46.8242 31.9 46.6242 31.7C46.4242 31.5 46.3242 31.2533 46.3242 30.96V17.42C46.3242 17.1133 46.4242 16.8667 46.6242 16.68C46.8242 16.48 47.0709 16.38 47.3642 16.38H51.3642C52.3642 16.38 53.2509 16.6 54.0242 17.04C54.7976 17.48 55.3976 18.0933 55.8242 18.88C56.2642 19.6533 56.4842 20.5467 56.4842 21.56C56.4842 22.5333 56.2642 23.4 55.8242 24.16C55.3976 24.92 54.7976 25.5133 54.0242 25.94C53.2509 26.3667 52.3642 26.58 51.3642 26.58H48.4042V30.96C48.4042 31.2533 48.3042 31.5 48.1042 31.7C47.9176 31.9 47.6709 32 47.3642 32ZM48.4042 24.66H51.3642C52.2709 24.66 53.0176 24.3733 53.6042 23.8C54.1909 23.2133 54.4842 22.4667 54.4842 21.56C54.4842 20.92 54.3509 20.36 54.0842 19.88C53.8176 19.3867 53.4509 19 52.9842 18.72C52.5176 18.44 51.9776 18.3 51.3642 18.3H48.4042V24.66ZM63.1545 32.08C62.0745 32.08 61.1212 31.8467 60.2945 31.38C59.4679 30.9 58.8145 30.2467 58.3345 29.42C57.8679 28.58 57.6345 27.62 57.6345 26.54C57.6345 25.4467 57.8679 24.4867 58.3345 23.66C58.8145 22.82 59.4679 22.1667 60.2945 21.7C61.1212 21.22 62.0745 20.98 63.1545 20.98C64.2212 20.98 65.1679 21.22 65.9945 21.7C66.8212 22.1667 67.4679 22.82 67.9345 23.66C68.4145 24.4867 68.6545 25.4467 68.6545 26.54C68.6545 27.62 68.4212 28.58 67.9545 29.42C67.4879 30.2467 66.8412 30.9 66.0145 31.38C65.1879 31.8467 64.2345 32.08 63.1545 32.08ZM63.1545 30.28C63.8479 30.28 64.4612 30.12 64.9945 29.8C65.5279 29.48 65.9412 29.04 66.2345 28.48C66.5412 27.92 66.6945 27.2733 66.6945 26.54C66.6945 25.8067 66.5412 25.16 66.2345 24.6C65.9412 24.0267 65.5279 23.58 64.9945 23.26C64.4612 22.94 63.8479 22.78 63.1545 22.78C62.4612 22.78 61.8479 22.94 61.3145 23.26C60.7812 23.58 60.3612 24.0267 60.0545 24.6C59.7479 25.16 59.5945 25.8067 59.5945 26.54C59.5945 27.2733 59.7479 27.92 60.0545 28.48C60.3612 29.04 60.7812 29.48 61.3145 29.8C61.8479 30.12 62.4612 30.28 63.1545 30.28ZM76.6506 32.08C75.5706 32.08 74.6173 31.8467 73.7906 31.38C72.964 30.9 72.3106 30.2467 71.8306 29.42C71.364 28.58 71.1306 27.62 71.1306 26.54C71.1306 25.4467 71.364 24.4867 71.8306 23.66C72.3106 22.82 72.964 22.1667 73.7906 21.7C74.6173 21.22 75.5706 20.98 76.6506 20.98C77.7173 20.98 78.664 21.22 79.4906 21.7C80.3173 22.1667 80.964 22.82 81.4306 23.66C81.9106 24.4867 82.1506 25.4467 82.1506 26.54C82.1506 27.62 81.9173 28.58 81.4506 29.42C80.984 30.2467 80.3373 30.9 79.5106 31.38C78.684 31.8467 77.7306 32.08 76.6506 32.08ZM76.6506 30.28C77.344 30.28 77.9573 30.12 78.4906 29.8C79.024 29.48 79.4373 29.04 79.7306 28.48C80.0373 27.92 80.1906 27.2733 80.1906 26.54C80.1906 25.8067 80.0373 25.16 79.7306 24.6C79.4373 24.0267 79.024 23.58 78.4906 23.26C77.9573 22.94 77.344 22.78 76.6506 22.78C75.9573 22.78 75.344 22.94 74.8106 23.26C74.2773 23.58 73.8573 24.0267 73.5506 24.6C73.244 25.16 73.0906 25.8067 73.0906 26.54C73.0906 27.2733 73.244 27.92 73.5506 28.48C73.8573 29.04 74.2773 29.48 74.8106 29.8C75.344 30.12 75.9573 30.28 76.6506 30.28ZM87.7867 32C87.2001 32 86.6801 31.84 86.2267 31.52C85.7734 31.2 85.4201 30.7667 85.1667 30.22C84.9134 29.66 84.7867 29.02 84.7867 28.3V17.38C84.7867 17.0867 84.8801 16.8467 85.0667 16.66C85.2534 16.4733 85.4934 16.38 85.7867 16.38C86.0801 16.38 86.3201 16.4733 86.5067 16.66C86.6934 16.8467 86.7867 17.0867 86.7867 17.38V28.3C86.7867 28.7933 86.8801 29.2 87.0667 29.52C87.2534 29.84 87.4934 30 87.7867 30H88.2867C88.5534 30 88.7667 30.0933 88.9267 30.28C89.1001 30.4667 89.1867 30.7067 89.1867 31C89.1867 31.2933 89.0601 31.5333 88.8067 31.72C88.5534 31.9067 88.2267 32 87.8267 32H87.7867Z" fill="black"/>
<path opacity="0.88" d="M15.82 18.78H16.32V18.0245L15.6246 18.3198L15.82 18.78ZM14.36 19.4L14.5504 19.8624L14.5554 19.8602L14.36 19.4ZM12.98 19.26L12.6264 19.6136L12.6325 19.6196L12.6388 19.6255L12.98 19.26ZM13.36 17.58L13.5264 18.0515L13.5289 18.0506L13.36 17.58ZM16.48 16.46L16.6489 16.9306L16.6574 16.9276L16.6657 16.9242L16.48 16.46ZM17.58 16.68L17.2022 17.0075L17.2138 17.0209L17.2264 17.0336L17.58 16.68ZM17.56 31.7L17.9136 32.0536L17.56 31.7ZM16.82 31.5C16.6946 31.5 16.5861 31.459 16.4736 31.3464L15.7664 32.0536C16.0539 32.341 16.4121 32.5 16.82 32.5V31.5ZM16.4736 31.3464C16.3663 31.2391 16.32 31.1259 16.32 30.98H15.32C15.32 31.3941 15.4737 31.7609 15.7664 32.0536L16.4736 31.3464ZM16.32 30.98V18.78H15.32V30.98H16.32ZM15.6246 18.3198L14.1646 18.9398L14.5554 19.8602L16.0154 19.2402L15.6246 18.3198ZM14.1696 18.9377C13.9901 19.0116 13.8418 19.04 13.72 19.04V20.04C13.9982 20.04 14.2766 19.9751 14.5504 19.8623L14.1696 18.9377ZM13.72 19.04C13.5433 19.04 13.4215 18.9881 13.3212 18.8945L12.6388 19.6255C12.9385 19.9052 13.31 20.04 13.72 20.04V19.04ZM13.3336 18.9064C13.2515 18.8244 13.2 18.7169 13.2 18.54H12.2C12.2 18.9498 12.3352 19.3223 12.6264 19.6136L13.3336 18.9064ZM13.2 18.54C13.2 18.4145 13.23 18.3127 13.2858 18.222L12.4342 17.698C12.2766 17.954 12.2 18.2388 12.2 18.54H13.2ZM13.2858 18.222C13.3221 18.1631 13.3873 18.1006 13.5264 18.0515L13.1936 17.1085C12.8794 17.2194 12.6112 17.4102 12.4342 17.698L13.2858 18.222ZM13.5289 18.0506L16.6489 16.9306L16.3111 15.9894L13.1911 17.1094L13.5289 18.0506ZM16.6657 16.9242C16.7056 16.9083 16.743 16.8973 16.7781 16.8903L16.5819 15.9097C16.4837 15.9294 16.3877 15.9584 16.2943 15.9958L16.6657 16.9242ZM16.7781 16.8903C16.8208 16.8817 16.8471 16.88 16.86 16.88V15.88C16.7662 15.88 16.6726 15.8916 16.5819 15.9097L16.7781 16.8903ZM16.86 16.88C17.0472 16.88 17.1393 16.9349 17.2022 17.0075L17.9578 16.3525C17.674 16.0251 17.2862 15.88 16.86 15.88V16.88ZM17.2264 17.0336C17.3041 17.1112 17.36 17.2228 17.36 17.42H18.36C18.36 17.0039 18.2292 16.6221 17.9336 16.3264L17.2264 17.0336ZM17.36 17.42V30.98H18.36V17.42H17.36ZM17.36 30.98C17.36 31.1259 17.3137 31.2391 17.2064 31.3464L17.9136 32.0536C18.2063 31.7609 18.36 31.3941 18.36 30.98H17.36ZM17.2064 31.3464C17.104 31.4489 16.9862 31.5 16.82 31.5V32.5C17.2405 32.5 17.616 32.3511 17.9136 32.0536L17.2064 31.3464ZM22.0916 29.94L21.6621 30.196L21.665 30.2009L22.0916 29.94ZM22.0916 18.42L21.665 18.1591L21.6632 18.1621L22.0916 18.42ZM28.2116 17.32L27.8759 17.6907L27.8833 17.6972L28.2116 17.32ZM29.8516 20.02L29.3751 20.1716L29.3756 20.1732L29.8516 20.02ZM29.8516 28.36L30.3275 28.5132L30.328 28.5116L29.8516 28.36ZM28.2116 31.06L28.5433 31.4341L28.5437 31.4337L28.2116 31.06ZM27.1516 29.18L27.54 29.4949L27.544 29.4898L27.1516 29.18ZM28.0516 27.12L28.5388 27.2324L28.0516 27.12ZM28.0516 21.24L28.5388 21.1276L28.0516 21.24ZM24.1116 19.18L24.5 19.4949L24.504 19.4898L24.1116 19.18ZM23.2116 21.22L22.7244 21.1076L23.2116 21.22ZM24.1116 29.18L23.7231 29.4949L23.7283 29.5011L24.1116 29.18ZM25.6316 31.5C24.2978 31.5 23.2738 30.9146 22.5181 29.6791L21.665 30.2009C22.5894 31.7121 23.9253 32.5 25.6316 32.5V31.5ZM22.521 29.684C21.7585 28.4049 21.3516 26.5865 21.3516 24.18H20.3516C20.3516 26.6802 20.7712 28.7017 21.6621 30.196L22.521 29.684ZM21.3516 24.18C21.3516 21.7592 21.7589 19.9422 22.5199 18.6779L21.6632 18.1621C20.7709 19.6445 20.3516 21.6675 20.3516 24.18H21.3516ZM22.5181 18.6809C23.2738 17.4454 24.2978 16.86 25.6316 16.86V15.86C23.9253 15.86 22.5894 16.6479 21.665 18.1591L22.5181 18.6809ZM25.6316 16.86C26.5294 16.86 27.2673 17.1394 27.8759 17.6906L28.5472 16.9494C27.7425 16.2206 26.7604 15.86 25.6316 15.86V16.86ZM27.8833 17.6972C28.5168 18.2485 29.0216 19.0607 29.3751 20.1716L30.328 19.8684C29.9348 18.6326 29.3463 17.6448 28.5398 16.9428L27.8833 17.6972ZM29.3756 20.1732C29.7288 21.2706 29.9116 22.6029 29.9116 24.18H30.9116C30.9116 22.5305 30.721 21.0894 30.3275 19.8668L29.3756 20.1732ZM29.9116 24.18C29.9116 25.7569 29.7289 27.0966 29.3751 28.2084L30.328 28.5116C30.7209 27.2767 30.9116 25.8298 30.9116 24.18H29.9116ZM29.3756 28.2068C29.0225 29.304 28.5171 30.1194 27.8794 30.6863L28.5437 31.4337C29.346 30.7206 29.934 29.736 30.3275 28.5132L29.3756 28.2068ZM27.8798 30.6859C27.2716 31.2253 26.5323 31.5 25.6316 31.5V32.5C26.7575 32.5 27.7382 32.1481 28.5433 31.4341L27.8798 30.6859ZM25.6316 30.42C26.4017 30.42 27.0489 30.1005 27.5399 29.4949L26.7632 28.8651C26.4542 29.2462 26.0881 29.42 25.6316 29.42V30.42ZM27.544 29.4898C28.0037 28.9076 28.3281 28.1455 28.5388 27.2324L27.5644 27.0076C27.3751 27.8279 27.0995 28.4391 26.7591 28.8702L27.544 29.4898ZM28.5388 27.2324C28.7489 26.3216 28.8516 25.3029 28.8516 24.18H27.8516C27.8516 25.2438 27.7542 26.185 27.5644 27.0076L28.5388 27.2324ZM28.8516 24.18C28.8516 23.0571 28.7489 22.0384 28.5388 21.1276L27.5644 21.3524C27.7542 22.175 27.8516 23.1162 27.8516 24.18H28.8516ZM28.5388 21.1276C28.3281 20.2145 28.0037 19.4524 27.544 18.8702L26.7591 19.4898C27.0995 19.9209 27.3751 20.5321 27.5644 21.3524L28.5388 21.1276ZM27.544 18.8702C27.0549 18.2507 26.407 17.92 25.6316 17.92V18.92C26.0828 18.92 26.4482 19.096 26.7591 19.4898L27.544 18.8702ZM25.6316 17.92C24.8561 17.92 24.2082 18.2507 23.7191 18.8702L24.504 19.4898C24.8149 19.096 25.1803 18.92 25.6316 18.92V17.92ZM23.7232 18.8651C23.26 19.4363 22.935 20.1946 22.7244 21.1076L23.6988 21.3324C23.8881 20.512 24.1631 19.9104 24.4999 19.4949L23.7232 18.8651ZM22.7244 21.1076C22.5141 22.0188 22.4116 23.0443 22.4116 24.18H23.4116C23.4116 23.1024 23.509 22.1546 23.6988 21.3324L22.7244 21.1076ZM22.4116 24.18C22.4116 25.3157 22.5141 26.3412 22.7244 27.2524L23.6988 27.0276C23.509 26.2054 23.4116 25.2576 23.4116 24.18H22.4116ZM22.7244 27.2524C22.935 28.1654 23.26 28.9237 23.7232 29.4949L24.4999 28.8651C24.1631 28.4496 23.8881 27.848 23.6988 27.0276L22.7244 27.2524ZM23.7283 29.5011C24.2288 30.0984 24.8718 30.42 25.6316 30.42V29.42C25.1913 29.42 24.821 29.2482 24.4948 28.8589L23.7283 29.5011ZM34.4333 18.78H34.9333V18.0245L34.2378 18.3198L34.4333 18.78ZM32.9733 19.4L33.1637 19.8624L33.1687 19.8602L32.9733 19.4ZM31.5933 19.26L31.2397 19.6136L31.2458 19.6196L31.2521 19.6255L31.5933 19.26ZM31.9733 17.58L32.1397 18.0515L32.1422 18.0506L31.9733 17.58ZM35.0933 16.46L35.2622 16.9306L35.2707 16.9276L35.279 16.9242L35.0933 16.46ZM36.1933 16.68L35.8154 17.0075L35.8271 17.0209L35.8397 17.0336L36.1933 16.68ZM36.1733 31.7L36.5268 32.0536L36.1733 31.7ZM35.4333 31.5C35.3079 31.5 35.1994 31.459 35.0868 31.3464L34.3797 32.0536C34.6672 32.341 35.0253 32.5 35.4333 32.5V31.5ZM35.0868 31.3464C34.9795 31.2391 34.9333 31.1259 34.9333 30.98H33.9333C33.9333 31.3941 34.087 31.7609 34.3797 32.0536L35.0868 31.3464ZM34.9333 30.98V18.78H33.9333V30.98H34.9333ZM34.2378 18.3198L32.7778 18.9398L33.1687 19.8602L34.6287 19.2402L34.2378 18.3198ZM32.7829 18.9377C32.6034 19.0116 32.455 19.04 32.3333 19.04V20.04C32.6115 20.04 32.8898 19.9751 33.1637 19.8623L32.7829 18.9377ZM32.3333 19.04C32.1566 19.04 32.0348 18.9881 31.9344 18.8945L31.2521 19.6255C31.5518 19.9052 31.9233 20.04 32.3333 20.04V19.04ZM31.9468 18.9064C31.8648 18.8244 31.8133 18.7169 31.8133 18.54H30.8133C30.8133 18.9498 30.9485 19.3223 31.2397 19.6136L31.9468 18.9064ZM31.8133 18.54C31.8133 18.4145 31.8433 18.3127 31.8991 18.222L31.0475 17.698C30.8899 17.954 30.8133 18.2388 30.8133 18.54H31.8133ZM31.8991 18.222C31.9354 18.1631 32.0005 18.1006 32.1397 18.0515L31.8069 17.1085C31.4927 17.2194 31.2245 17.4102 31.0475 17.698L31.8991 18.222ZM32.1422 18.0506L35.2622 16.9306L34.9243 15.9894L31.8043 17.1094L32.1422 18.0506ZM35.279 16.9242C35.3189 16.9083 35.3562 16.8973 35.3913 16.8903L35.1952 15.9097C35.097 15.9294 35.001 15.9584 34.9076 15.9958L35.279 16.9242ZM35.3913 16.8903C35.434 16.8817 35.4604 16.88 35.4733 16.88V15.88C35.3795 15.88 35.2858 15.8916 35.1952 15.9097L35.3913 16.8903ZM35.4733 16.88C35.6604 16.88 35.7526 16.9349 35.8154 17.0075L36.5711 16.3525C36.2873 16.0251 35.8995 15.88 35.4733 15.88V16.88ZM35.8397 17.0336C35.9174 17.1112 35.9733 17.2228 35.9733 17.42H36.9733C36.9733 17.0039 36.8425 16.6221 36.5468 16.3264L35.8397 17.0336ZM35.9733 17.42V30.98H36.9733V17.42H35.9733ZM35.9733 30.98C35.9733 31.1259 35.927 31.2391 35.8197 31.3464L36.5268 32.0536C36.8195 31.7609 36.9733 31.3941 36.9733 30.98H35.9733ZM35.8197 31.3464C35.7173 31.4489 35.5995 31.5 35.4333 31.5V32.5C35.8537 32.5 36.2293 32.3511 36.5268 32.0536L35.8197 31.3464ZM46.6242 31.7L46.2707 32.0536L46.6242 31.7ZM46.6242 16.68L46.9654 17.0455L46.9717 17.0396L46.9778 17.0336L46.6242 16.68ZM54.0242 17.04L53.777 17.4746L54.0242 17.04ZM55.8242 18.88L55.3846 19.1184L55.3896 19.1273L55.8242 18.88ZM55.8242 24.16L55.3915 23.9095L55.3882 23.9152L55.8242 24.16ZM54.0242 25.94L54.2658 26.3778L54.0242 25.94ZM48.4042 26.58V26.08H47.9042V26.58H48.4042ZM48.1042 31.7L47.7507 31.3464L47.7446 31.3525L47.7387 31.3588L48.1042 31.7ZM48.4042 24.66H47.9042V25.16H48.4042V24.66ZM53.6042 23.8L53.9537 24.1576L53.9578 24.1536L53.6042 23.8ZM54.0842 19.88L53.6443 20.1178L53.6471 20.1228L54.0842 19.88ZM48.4042 18.3V17.8H47.9042V18.3H48.4042ZM47.3642 31.5C47.198 31.5 47.0802 31.4489 46.9778 31.3464L46.2707 32.0536C46.5682 32.3511 46.9438 32.5 47.3642 32.5V31.5ZM46.9778 31.3464C46.8754 31.244 46.8242 31.1262 46.8242 30.96H45.8242C45.8242 31.3805 45.9731 31.756 46.2707 32.0536L46.9778 31.3464ZM46.8242 30.96V17.42H45.8242V30.96H46.8242ZM46.8242 17.42C46.8242 17.2334 46.8795 17.1257 46.9654 17.0455L46.2831 16.3145C45.969 16.6076 45.8242 16.9933 45.8242 17.42H46.8242ZM46.9778 17.0336C47.0802 16.9311 47.198 16.88 47.3642 16.88V15.88C46.9438 15.88 46.5682 16.0289 46.2707 16.3264L46.9778 17.0336ZM47.3642 16.88H51.3642V15.88H47.3642V16.88ZM51.3642 16.88C52.2885 16.88 53.088 17.0826 53.777 17.4746L54.2715 16.6054C53.4138 16.1174 52.44 15.88 51.3642 15.88V16.88ZM53.777 17.4746C54.4686 17.8681 55.0023 18.4133 55.3847 19.1184L56.2637 18.6416C55.7928 17.7734 55.1265 17.0919 54.2715 16.6054L53.777 17.4746ZM55.3896 19.1273C55.7811 19.8153 55.9842 20.6211 55.9842 21.56H56.9842C56.9842 20.4722 56.7473 19.4914 56.2588 18.6327L55.3896 19.1273ZM55.9842 21.56C55.9842 22.4551 55.7828 23.2336 55.3915 23.9095L56.2569 24.4105C56.7457 23.5664 56.9842 22.6115 56.9842 21.56H55.9842ZM55.3882 23.9152C55.0078 24.5929 54.4756 25.1199 53.7827 25.5022L54.2658 26.3778C55.1195 25.9068 55.7873 25.2471 56.2602 24.4048L55.3882 23.9152ZM53.7827 25.5022C53.0926 25.8829 52.2911 26.08 51.3642 26.08V27.08C52.4374 27.08 53.4091 26.8504 54.2658 26.3778L53.7827 25.5022ZM51.3642 26.08H48.4042V27.08H51.3642V26.08ZM47.9042 26.58V30.96H48.9042V26.58H47.9042ZM47.9042 30.96C47.9042 31.1262 47.8531 31.244 47.7507 31.3464L48.4578 32.0536C48.7554 31.756 48.9042 31.3805 48.9042 30.96H47.9042ZM47.7387 31.3588C47.6585 31.4447 47.5508 31.5 47.3642 31.5V32.5C47.791 32.5 48.1766 32.3553 48.4697 32.0412L47.7387 31.3588ZM48.4042 25.16H51.3642V24.16H48.4042V25.16ZM51.3642 25.16C52.3865 25.16 53.2634 24.8322 53.9537 24.1576L53.2548 23.4424C52.7717 23.9145 52.1553 24.16 51.3642 24.16V25.16ZM53.9578 24.1536C54.6474 23.464 54.9842 22.5857 54.9842 21.56H53.9842C53.9842 22.3476 53.7344 22.9627 53.2507 23.4464L53.9578 24.1536ZM54.9842 21.56C54.9842 20.8492 54.8356 20.2029 54.5213 19.6372L53.6471 20.1228C53.8662 20.5171 53.9842 20.9908 53.9842 21.56H54.9842ZM54.5241 19.6422C54.2161 19.0725 53.7874 18.6188 53.2415 18.2913L52.727 19.1487C53.1143 19.3812 53.419 19.7008 53.6444 20.1178L54.5241 19.6422ZM53.2415 18.2913C52.6876 17.9589 52.0564 17.8 51.3642 17.8V18.8C51.8987 18.8 52.3475 18.9211 52.727 19.1487L53.2415 18.2913ZM51.3642 17.8H48.4042V18.8H51.3642V17.8ZM47.9042 18.3V24.66H48.9042V18.3H47.9042ZM60.2945 31.38L60.0434 31.8124L60.0487 31.8154L60.2945 31.38ZM58.3345 29.42L57.8974 29.6629L57.9021 29.6711L58.3345 29.42ZM58.3345 23.66L57.9004 23.4119L57.8991 23.4142L58.3345 23.66ZM60.2945 21.7L60.5403 22.1354L60.5456 22.1324L60.2945 21.7ZM65.9945 21.7L65.7434 22.1324L65.7487 22.1354L65.9945 21.7ZM67.9345 23.66L67.4974 23.9029L67.5021 23.9111L67.9345 23.66ZM67.9545 29.42L68.39 29.6658L68.3916 29.6628L67.9545 29.42ZM66.0145 31.38L66.2603 31.8154L66.2656 31.8124L66.0145 31.38ZM64.9945 29.8L64.7373 29.3713L64.9945 29.8ZM66.2345 28.48L65.7959 28.2398L65.7916 28.248L66.2345 28.48ZM66.2345 24.6L65.7892 24.8278L65.796 24.8402L66.2345 24.6ZM64.9945 23.26L64.7373 23.6887L64.9945 23.26ZM61.3145 23.26L61.5718 23.6887L61.3145 23.26ZM60.0545 24.6L60.4931 24.8402L60.4954 24.8358L60.0545 24.6ZM60.0545 28.48L60.4931 28.2398L60.0545 28.48ZM61.3145 29.8L61.0573 30.2287L61.3145 29.8ZM63.1545 31.58C62.1486 31.58 61.2822 31.3634 60.5403 30.9446L60.0487 31.8154C60.9602 32.33 62.0004 32.58 63.1545 32.58V31.58ZM60.5456 30.9476C59.7941 30.5113 59.2033 29.9204 58.7669 29.1689L57.9021 29.6711C58.4258 30.5729 59.1416 31.2887 60.0435 31.8124L60.5456 30.9476ZM58.7716 29.1772C58.3511 28.4203 58.1345 27.5457 58.1345 26.54H57.1345C57.1345 27.6943 57.3846 28.7397 57.8975 29.6628L58.7716 29.1772ZM58.1345 26.54C58.1345 25.5196 58.3517 24.6467 58.7699 23.9058L57.8991 23.4142C57.3841 24.3266 57.1345 25.3738 57.1345 26.54H58.1345ZM58.7687 23.9081C59.2048 23.1448 59.7937 22.5569 60.5403 22.1354L60.0487 21.2646C59.142 21.7765 58.4242 22.4952 57.9004 23.4119L58.7687 23.9081ZM60.5456 22.1324C61.2865 21.7022 62.151 21.48 63.1545 21.48V20.48C61.998 20.48 60.9559 20.7378 60.0435 21.2676L60.5456 22.1324ZM63.1545 21.48C64.1435 21.48 65.0016 21.7016 65.7435 22.1324L66.2456 21.2676C65.3341 20.7384 64.2989 20.48 63.1545 20.48V21.48ZM65.7487 22.1354C66.4941 22.5562 67.075 23.1424 67.4975 23.9028L68.3716 23.4172C67.8607 22.4976 67.1483 21.7772 66.2403 21.2646L65.7487 22.1354ZM67.5021 23.9111C67.9318 24.6511 68.1545 25.522 68.1545 26.54H69.1545C69.1545 25.3714 68.8973 24.3223 68.3669 23.4089L67.5021 23.9111ZM68.1545 26.54C68.1545 27.5457 67.9379 28.4203 67.5175 29.1772L68.3916 29.6628C68.9045 28.7397 69.1545 27.6943 69.1545 26.54H68.1545ZM67.5191 29.1742C67.0965 29.9228 66.5137 30.512 65.7635 30.9476L66.2656 31.8124C67.1687 31.288 67.8792 30.5705 68.3899 29.6658L67.5191 29.1742ZM65.7687 30.9446C65.0269 31.3634 64.1604 31.58 63.1545 31.58V32.58C64.3086 32.58 65.3488 32.33 66.2603 31.8154L65.7687 30.9446ZM63.1545 30.78C63.9278 30.78 64.6321 30.6006 65.2518 30.2287L64.7373 29.3713C64.2903 29.6394 63.7679 29.78 63.1545 29.78V30.78ZM65.2518 30.2287C65.8653 29.8607 66.3422 29.352 66.6774 28.712L65.7916 28.248C65.5402 28.728 65.1905 29.0993 64.7373 29.3713L65.2518 30.2287ZM66.6731 28.7202C67.0257 28.0762 67.1945 27.3447 67.1945 26.54H66.1945C66.1945 27.202 66.0567 27.7638 65.796 28.2398L66.6731 28.7202ZM67.1945 26.54C67.1945 25.7353 67.0257 25.0038 66.6731 24.3598L65.796 24.8402C66.0567 25.3162 66.1945 25.878 66.1945 26.54H67.1945ZM66.6797 24.3723C66.3453 23.7188 65.8682 23.2011 65.2518 22.8313L64.7373 23.6887C65.1875 23.9589 65.5371 24.3346 65.7894 24.8277L66.6797 24.3723ZM65.2518 22.8313C64.6321 22.4594 63.9278 22.28 63.1545 22.28V23.28C63.7679 23.28 64.2903 23.4206 64.7373 23.6887L65.2518 22.8313ZM63.1545 22.28C62.3813 22.28 61.677 22.4594 61.0573 22.8313L61.5718 23.6887C62.0187 23.4206 62.5411 23.28 63.1545 23.28V22.28ZM61.0573 22.8313C60.4428 23.1999 59.9609 23.7149 59.6136 24.3642L60.4954 24.8358C60.7615 24.3384 61.1196 23.9601 61.5718 23.6887L61.0573 22.8313ZM59.616 24.3598C59.2634 25.0038 59.0945 25.7353 59.0945 26.54H60.0945C60.0945 25.878 60.2324 25.3162 60.4931 24.8402L59.616 24.3598ZM59.0945 26.54C59.0945 27.3447 59.2634 28.0762 59.616 28.7202L60.4931 28.2398C60.2324 27.7638 60.0945 27.202 60.0945 26.54H59.0945ZM59.616 28.7202C59.9641 29.3558 60.4458 29.8618 61.0573 30.2287L61.5718 29.3713C61.1166 29.0982 60.7583 28.7242 60.4931 28.2398L59.616 28.7202ZM61.0573 30.2287C61.677 30.6006 62.3813 30.78 63.1545 30.78V29.78C62.5411 29.78 62.0187 29.6394 61.5718 29.3713L61.0573 30.2287ZM73.7906 31.38L73.5395 31.8124L73.5448 31.8154L73.7906 31.38ZM71.8306 29.42L71.3935 29.6629L71.3982 29.6711L71.8306 29.42ZM71.8306 23.66L71.3965 23.4119L71.3952 23.4142L71.8306 23.66ZM73.7906 21.7L74.0364 22.1354L74.0417 22.1324L73.7906 21.7ZM79.4906 21.7L79.2395 22.1324L79.2448 22.1354L79.4906 21.7ZM81.4306 23.66L80.9935 23.9029L80.9982 23.9111L81.4306 23.66ZM81.4506 29.42L81.886 29.6658L81.8877 29.6628L81.4506 29.42ZM79.5106 31.38L79.7564 31.8154L79.7617 31.8124L79.5106 31.38ZM78.4906 29.8L78.2334 29.3713L78.4906 29.8ZM79.7306 28.48L79.292 28.2398L79.2877 28.248L79.7306 28.48ZM79.7306 24.6L79.2853 24.8278L79.2921 24.8402L79.7306 24.6ZM78.4906 23.26L78.2334 23.6887L78.4906 23.26ZM74.8106 23.26L75.0679 23.6887L74.8106 23.26ZM73.5506 24.6L73.9892 24.8402L73.9915 24.8358L73.5506 24.6ZM73.5506 28.48L73.9892 28.2398L73.5506 28.48ZM74.8106 29.8L74.5534 30.2287L74.8106 29.8ZM76.6506 31.58C75.6447 31.58 74.7783 31.3634 74.0364 30.9446L73.5448 31.8154C74.4563 32.33 75.4965 32.58 76.6506 32.58V31.58ZM74.0417 30.9476C73.2902 30.5113 72.6994 29.9204 72.263 29.1689L71.3982 29.6711C71.9219 30.5729 72.6377 31.2887 73.5396 31.8124L74.0417 30.9476ZM72.2677 29.1772C71.8472 28.4203 71.6306 27.5457 71.6306 26.54H70.6306C70.6306 27.6943 70.8807 28.7397 71.3935 29.6628L72.2677 29.1772ZM71.6306 26.54C71.6306 25.5196 71.8478 24.6467 72.266 23.9058L71.3952 23.4142C70.8801 24.3266 70.6306 25.3738 70.6306 26.54H71.6306ZM72.2647 23.9081C72.7009 23.1448 73.2898 22.5569 74.0364 22.1354L73.5448 21.2646C72.6381 21.7765 71.9203 22.4952 71.3965 23.4119L72.2647 23.9081ZM74.0417 22.1324C74.7826 21.7022 75.6471 21.48 76.6506 21.48V20.48C75.4941 20.48 74.452 20.7378 73.5396 21.2676L74.0417 22.1324ZM76.6506 21.48C77.6396 21.48 78.4977 21.7016 79.2396 22.1324L79.7417 21.2676C78.8302 20.7384 77.795 20.48 76.6506 20.48V21.48ZM79.2448 22.1354C79.9902 22.5562 80.5711 23.1424 80.9935 23.9028L81.8677 23.4172C81.3568 22.4976 80.6444 21.7772 79.7364 21.2646L79.2448 22.1354ZM80.9982 23.9111C81.4279 24.6511 81.6506 25.522 81.6506 26.54H82.6506C82.6506 25.3714 82.3934 24.3223 81.863 23.4089L80.9982 23.9111ZM81.6506 26.54C81.6506 27.5457 81.434 28.4203 81.0135 29.1772L81.8877 29.6628C82.4005 28.7397 82.6506 27.6943 82.6506 26.54H81.6506ZM81.0152 29.1742C80.5926 29.9228 80.0098 30.512 79.2596 30.9476L79.7617 31.8124C80.6648 31.288 81.3753 30.5705 81.886 29.6658L81.0152 29.1742ZM79.2648 30.9446C78.523 31.3634 77.6565 31.58 76.6506 31.58V32.58C77.8047 32.58 78.8449 32.33 79.7564 31.8154L79.2648 30.9446ZM76.6506 30.78C77.4239 30.78 78.1282 30.6006 78.7479 30.2287L78.2334 29.3713C77.7864 29.6394 77.264 29.78 76.6506 29.78V30.78ZM78.7479 30.2287C79.3614 29.8607 79.8383 29.352 80.1735 28.712L79.2877 28.248C79.0363 28.728 78.6866 29.0993 78.2334 29.3713L78.7479 30.2287ZM80.1692 28.7202C80.5218 28.0762 80.6906 27.3447 80.6906 26.54H79.6906C79.6906 27.202 79.5528 27.7638 79.2921 28.2398L80.1692 28.7202ZM80.6906 26.54C80.6906 25.7353 80.5218 25.0038 80.1692 24.3598L79.2921 24.8402C79.5528 25.3162 79.6906 25.878 79.6906 26.54H80.6906ZM80.1757 24.3723C79.8414 23.7188 79.3643 23.2011 78.7479 22.8313L78.2334 23.6887C78.6836 23.9589 79.0332 24.3346 79.2855 24.8277L80.1757 24.3723ZM78.7479 22.8313C78.1282 22.4594 77.4239 22.28 76.6506 22.28V23.28C77.264 23.28 77.7864 23.4206 78.2334 23.6887L78.7479 22.8313ZM76.6506 22.28C75.8773 22.28 75.1731 22.4594 74.5534 22.8313L75.0679 23.6887C75.5148 23.4206 76.0372 23.28 76.6506 23.28V22.28ZM74.5534 22.8313C73.9389 23.1999 73.457 23.7149 73.1097 24.3642L73.9915 24.8358C74.2576 24.3384 74.6157 23.9601 75.0679 23.6887L74.5534 22.8313ZM73.1121 24.3598C72.7594 25.0038 72.5906 25.7353 72.5906 26.54H73.5906C73.5906 25.878 73.7285 25.3162 73.9892 24.8402L73.1121 24.3598ZM72.5906 26.54C72.5906 27.3447 72.7594 28.0762 73.1121 28.7202L73.9892 28.2398C73.7285 27.7638 73.5906 27.202 73.5906 26.54H72.5906ZM73.1121 28.7202C73.4602 29.3558 73.9419 29.8618 74.5534 30.2287L75.0679 29.3713C74.6127 29.0982 74.2544 28.7242 73.9892 28.2398L73.1121 28.7202ZM74.5534 30.2287C75.1731 30.6006 75.8773 30.78 76.6506 30.78V29.78C76.0372 29.78 75.5148 29.6394 75.0679 29.3713L74.5534 30.2287ZM86.2267 31.52L85.9384 31.9285L86.2267 31.52ZM85.1667 30.22L84.7111 30.4261L84.7131 30.4302L85.1667 30.22ZM85.0667 16.66L85.4203 17.0136L85.0667 16.66ZM87.0667 29.52L87.4986 29.2681L87.0667 29.52ZM88.9267 30.28L88.5471 30.6054L88.5536 30.6129L88.5603 30.6202L88.9267 30.28ZM88.8067 31.72L89.1033 32.1225L88.8067 31.72ZM87.7867 31.5C87.297 31.5 86.8791 31.3685 86.5151 31.1115L85.9384 31.9285C86.481 32.3115 87.1031 32.5 87.7867 32.5V31.5ZM86.5151 31.1115C86.1393 30.8463 85.8402 30.484 85.6204 30.0098L84.7131 30.4302C84.9999 31.0493 85.4075 31.5537 85.9384 31.9285L86.5151 31.1115ZM85.6223 30.0139C85.4028 29.5288 85.2867 28.961 85.2867 28.3H84.2867C84.2867 29.079 84.4239 29.7912 84.7112 30.4261L85.6223 30.0139ZM85.2867 28.3V17.38H84.2867V28.3H85.2867ZM85.2867 17.38C85.2867 17.2031 85.3382 17.0956 85.4203 17.0136L84.7132 16.3064C84.4219 16.5977 84.2867 16.9702 84.2867 17.38H85.2867ZM85.4203 17.0136C85.5023 16.9315 85.6098 16.88 85.7867 16.88V15.88C85.3769 15.88 85.0044 16.0152 84.7132 16.3064L85.4203 17.0136ZM85.7867 16.88C85.9636 16.88 86.0711 16.9315 86.1532 17.0136L86.8603 16.3064C86.569 16.0152 86.1965 15.88 85.7867 15.88V16.88ZM86.1532 17.0136C86.2352 17.0956 86.2867 17.2031 86.2867 17.38H87.2867C87.2867 16.9702 87.1515 16.5977 86.8603 16.3064L86.1532 17.0136ZM86.2867 17.38V28.3H87.2867V17.38H86.2867ZM86.2867 28.3C86.2867 28.8534 86.3911 29.3542 86.6348 29.7719L87.4986 29.2681C87.369 29.0458 87.2867 28.7332 87.2867 28.3H86.2867ZM86.6348 29.7719C86.8838 30.1988 87.2673 30.5 87.7867 30.5V29.5C87.7194 29.5 87.623 29.4812 87.4986 29.2681L86.6348 29.7719ZM87.7867 30.5H88.2867V29.5H87.7867V30.5ZM88.2867 30.5C88.4214 30.5 88.4908 30.5397 88.5471 30.6054L89.3063 29.9546C89.0426 29.6469 88.6854 29.5 88.2867 29.5V30.5ZM88.5603 30.6202C88.6348 30.7004 88.6867 30.8124 88.6867 31H89.6867C89.6867 30.601 89.5653 30.2329 89.2931 29.9398L88.5603 30.6202ZM88.6867 31C88.6867 31.1214 88.6464 31.2171 88.5101 31.3175L89.1033 32.1225C89.4737 31.8496 89.6867 31.4652 89.6867 31H88.6867ZM88.5101 31.3175C88.3635 31.4255 88.1491 31.5 87.8267 31.5V32.5C88.3043 32.5 88.7432 32.3879 89.1033 32.1225L88.5101 31.3175ZM87.8267 31.5H87.7867V32.5H87.8267V31.5Z" fill="black"/>
</g>
<path d="M140 0H12C5.37258 0 8.19564e-07 5.37258 8.19564e-07 12V52C-0.000431061 66.5 -2.5 64 12 64H140C146.627 64 152 58.6274 152 52V12C152 5.37258 146.627 0 140 0Z" fill="url(#paint0_linear)"/>
<path d="M50.14 46.92C50.1401 47.1649 50.0434 47.4 49.8712 47.5741C49.6989 47.7482 49.4649 47.8474 49.22 47.85C48.9751 47.8474 48.7411 47.7482 48.5689 47.5741C48.3966 47.4 48.3 47.1649 48.3 46.92C48.3 46.676 48.397 46.442 48.5695 46.2695C48.7421 46.0969 48.976 46 49.22 46C49.464 46 49.698 46.0969 49.8706 46.2695C50.0431 46.442 50.14 46.676 50.14 46.92Z" fill="url(#paint1_radial)"/>
<path d="M56.5 46.92C56.5 47.1649 56.4035 47.4 56.2312 47.5741C56.0589 47.7482 55.825 47.8474 55.58 47.85C55.3351 47.8474 55.1011 47.7482 54.9289 47.5741C54.7566 47.4 54.66 47.1649 54.66 46.92C54.66 46.676 54.757 46.442 54.9295 46.2695C55.102 46.0969 55.336 46 55.58 46C55.824 46 56.0581 46.0969 56.2306 46.2695C56.4031 46.442 56.5 46.676 56.5 46.92Z" fill="url(#paint2_radial)"/>
<path d="M62.83 46.92C62.83 47.1666 62.732 47.4032 62.5576 47.5776C62.3832 47.752 62.1466 47.85 61.9 47.85C61.6551 47.8474 61.4211 47.7482 61.2488 47.5741C61.0766 47.4 60.98 47.1649 60.98 46.92C60.9826 46.6768 61.0803 46.4443 61.2523 46.2723C61.4243 46.1004 61.6568 46.0026 61.9 46C62.1449 46 62.38 46.0966 62.5541 46.2688C62.7282 46.4411 62.8274 46.6751 62.83 46.92Z" fill="url(#paint3_radial)"/>
<path d="M43.84 52.1199C43.84 52.3639 43.7431 52.5979 43.5706 52.7704C43.398 52.943 43.164 53.0399 42.92 53.0399C42.676 53.0399 42.442 52.943 42.2695 52.7704C42.0969 52.5979 42 52.3639 42 52.1199C42 51.875 42.0966 51.6399 42.2689 51.4658C42.4411 51.2917 42.6751 51.1925 42.92 51.1899C43.1649 51.1925 43.3989 51.2917 43.5712 51.4658C43.7434 51.6399 43.84 51.875 43.84 52.1199Z" fill="url(#paint4_radial)"/>
<path d="M50.14 52.1199C50.14 52.3639 50.0431 52.5979 49.8706 52.7704C49.698 52.943 49.464 53.0399 49.22 53.0399C48.976 53.0399 48.7421 52.943 48.5695 52.7704C48.397 52.5979 48.3 52.3639 48.3 52.1199C48.3 51.875 48.3966 51.6399 48.5689 51.4658C48.7411 51.2917 48.9751 51.1925 49.22 51.1899C49.4649 51.1925 49.6989 51.2917 49.8712 51.4658C50.0434 51.6399 50.1401 51.875 50.14 52.1199Z" fill="url(#paint5_radial)"/>
<path d="M56.5 52.1199C56.5 52.3639 56.4031 52.5979 56.2306 52.7704C56.0581 52.943 55.824 53.0399 55.58 53.0399C55.336 53.0399 55.102 52.943 54.9295 52.7704C54.757 52.5979 54.66 52.3639 54.66 52.1199C54.66 51.875 54.7566 51.6399 54.9289 51.4658C55.1011 51.2917 55.3351 51.1925 55.58 51.1899C55.825 51.1925 56.0589 51.2917 56.2312 51.4658C56.4035 51.6399 56.5 51.875 56.5 52.1199Z" fill="url(#paint6_radial)"/>
<path d="M62.83 52.1199C62.8274 52.3648 62.7282 52.5988 62.5541 52.771C62.38 52.9433 62.1449 53.0399 61.9 53.0399C61.6568 53.0373 61.4243 52.9395 61.2523 52.7676C61.0803 52.5956 60.9826 52.3631 60.98 52.1199C60.98 51.875 61.0766 51.6399 61.2488 51.4658C61.4211 51.2917 61.6551 51.1925 61.9 51.1899C62.1466 51.1899 62.3832 51.2879 62.5576 51.4623C62.732 51.6367 62.83 51.8732 62.83 52.1199Z" fill="url(#paint7_radial)"/>
<path d="M43.84 57.31C43.84 57.554 43.7431 57.788 43.5706 57.9605C43.398 58.133 43.164 58.23 42.92 58.23C42.676 58.23 42.442 58.133 42.2695 57.9605C42.0969 57.788 42 57.554 42 57.31C42 57.066 42.0969 56.832 42.2695 56.6594C42.442 56.4869 42.676 56.39 42.92 56.39C43.164 56.39 43.398 56.4869 43.5706 56.6594C43.7431 56.832 43.84 57.066 43.84 57.31Z" fill="url(#paint8_radial)"/>
<path d="M50.14 57.31C50.14 57.554 50.0431 57.788 49.8706 57.9605C49.698 58.133 49.464 58.23 49.22 58.23C48.976 58.23 48.7421 58.133 48.5695 57.9605C48.397 57.788 48.3 57.554 48.3 57.31C48.3 57.066 48.397 56.832 48.5695 56.6594C48.7421 56.4869 48.976 56.39 49.22 56.39C49.464 56.39 49.698 56.4869 49.8706 56.6594C50.0431 56.832 50.14 57.066 50.14 57.31Z" fill="url(#paint9_radial)"/>
<path d="M56.5 57.31C56.5 57.554 56.4031 57.788 56.2306 57.9605C56.0581 58.133 55.824 58.23 55.58 58.23C55.336 58.23 55.102 58.133 54.9295 57.9605C54.757 57.788 54.66 57.554 54.66 57.31C54.66 57.066 54.757 56.832 54.9295 56.6594C55.102 56.4869 55.336 56.39 55.58 56.39C55.824 56.39 56.0581 56.4869 56.2306 56.6594C56.4031 56.832 56.5 57.066 56.5 57.31Z" fill="url(#paint10_radial)"/>
<path d="M62.83 57.31C62.8274 57.5549 62.7282 57.7889 62.5541 57.9611C62.38 58.1334 62.1449 58.23 61.9 58.23C61.656 58.23 61.422 58.133 61.2495 57.9605C61.0769 57.788 60.98 57.554 60.98 57.31C60.98 57.066 61.0769 56.832 61.2495 56.6594C61.422 56.4869 61.656 56.39 61.9 56.39C62.1449 56.3899 62.38 56.4866 62.5541 56.6588C62.7282 56.8311 62.8274 57.0651 62.83 57.31Z" fill="url(#paint11_radial)"/>
<path d="M43.84 62.5C43.84 62.744 43.7431 62.978 43.5706 63.1505C43.398 63.323 43.164 63.42 42.92 63.42C42.676 63.42 42.442 63.323 42.2695 63.1505C42.0969 62.978 42 62.744 42 62.5C42 62.256 42.0969 62.022 42.2695 61.8494C42.442 61.6769 42.676 61.58 42.92 61.58C43.164 61.58 43.398 61.6769 43.5706 61.8494C43.7431 62.022 43.84 62.256 43.84 62.5Z" fill="url(#paint12_radial)"/>
<path d="M50.14 62.5C50.14 62.744 50.0431 62.978 49.8706 63.1505C49.698 63.323 49.464 63.42 49.22 63.42C48.976 63.42 48.7421 63.323 48.5695 63.1505C48.397 62.978 48.3 62.744 48.3 62.5C48.3 62.256 48.397 62.022 48.5695 61.8494C48.7421 61.6769 48.976 61.58 49.22 61.58C49.464 61.58 49.698 61.6769 49.8706 61.8494C50.0431 62.022 50.14 62.256 50.14 62.5Z" fill="url(#paint13_radial)"/>
<path d="M56.5 62.5C56.5 62.744 56.4031 62.978 56.2306 63.1505C56.0581 63.323 55.824 63.42 55.58 63.42C55.336 63.42 55.102 63.323 54.9295 63.1505C54.757 62.978 54.66 62.744 54.66 62.5C54.66 62.256 54.757 62.022 54.9295 61.8494C55.102 61.6769 55.336 61.58 55.58 61.58C55.824 61.58 56.0581 61.6769 56.2306 61.8494C56.4031 62.022 56.5 62.256 56.5 62.5Z" fill="url(#paint14_radial)"/>
<path d="M62.83 62.5C62.8274 62.7449 62.7282 62.9789 62.5541 63.1511C62.38 63.3234 62.1449 63.42 61.9 63.42C61.656 63.42 61.422 63.323 61.2495 63.1505C61.0769 62.978 60.98 62.744 60.98 62.5C60.98 62.256 61.0769 62.022 61.2495 61.8494C61.422 61.6769 61.656 61.58 61.9 61.58C62.1449 61.5799 62.38 61.6766 62.5541 61.8488C62.7282 62.0211 62.8274 62.2551 62.83 62.5Z" fill="url(#paint15_radial)"/>
<path d="M162.01 33.1417V35.4017C161.034 35.8554 159.966 36.0779 158.89 36.0517C157.245 36.078 155.638 35.5575 154.32 34.5717C153.461 33.9112 152.404 33.559 151.32 33.5717C150.236 33.5551 149.178 33.9077 148.32 34.5717C146.999 35.5575 145.388 36.078 143.74 36.0517C142.095 36.0803 140.486 35.5595 139.17 34.5717C138.311 33.9112 137.254 33.559 136.17 33.5717C135.086 33.5574 134.029 33.9098 133.17 34.5717C131.853 35.5575 130.245 36.078 128.6 36.0517C126.967 36.0798 125.372 35.5586 124.07 34.5717C123.215 33.9034 122.155 33.5502 121.07 33.5717V31.7917C122.692 31.7947 124.273 32.3052 125.59 33.2517C126.44 33.9299 127.503 34.2843 128.59 34.2517C129.677 34.286 130.741 33.9314 131.59 33.2517C132.914 32.2737 134.524 31.7605 136.17 31.7917C137.807 31.7596 139.408 32.2732 140.72 33.2517C141.573 33.9253 142.634 34.2791 143.72 34.2517C144.806 34.2783 145.867 33.9245 146.72 33.2517C148.037 32.2669 149.646 31.7528 151.29 31.7917C152.927 31.7596 154.528 32.2732 155.84 33.2517C156.693 33.9253 157.754 34.2791 158.84 34.2517C159.926 34.2783 160.987 33.9245 161.84 33.2517C161.84 33.2517 161.99 33.1717 162.01 33.1417Z" fill="url(#paint16_radial)"/>
<path d="M162.01 27.0818V29.4017C160.906 30.0415 159.646 30.3634 158.37 30.3318C156.725 30.3566 155.118 29.8361 153.8 28.8518C152.941 28.1912 151.884 27.839 150.8 27.8518C149.714 27.8261 148.653 28.1797 147.8 28.8518C146.476 29.8322 144.867 30.352 143.22 30.3318C141.575 30.3604 139.966 29.8396 138.65 28.8518C137.791 28.1912 136.734 27.839 135.65 27.8518C134.566 27.8382 133.509 28.1905 132.65 28.8518C131.341 29.8381 129.739 30.3589 128.1 30.3318C126.469 30.3671 124.874 29.845 123.58 28.8518C122.722 28.1884 121.664 27.8359 120.58 27.8518V26.0618C122.2 26.0657 123.78 26.5724 125.1 27.5118C125.95 28.1899 127.013 28.5443 128.1 28.5118C129.186 28.5408 130.248 28.1868 131.1 27.5118C132.414 26.5368 134.015 26.0267 135.65 26.0618C137.295 26.0283 138.904 26.538 140.23 27.5118C141.083 28.1853 142.144 28.5391 143.23 28.5118C144.317 28.5461 145.381 28.1915 146.23 27.5118C147.554 26.5428 149.159 26.0335 150.8 26.0618C152.445 26.0283 154.054 26.538 155.38 27.5118C156.233 28.1853 157.294 28.5391 158.38 28.5118C159.467 28.5461 160.531 28.1915 161.38 27.5118C161.57 27.3718 161.78 27.2418 162.01 27.0818Z" fill="url(#paint17_radial)"/>
<path d="M161.88 23.3917C160.678 24.2039 159.25 24.6135 157.8 24.5617C156.153 24.6029 154.541 24.0808 153.23 23.0817C152.371 22.4212 151.314 22.069 150.23 22.0817C149.145 22.0602 148.085 22.4134 147.23 23.0817C145.918 24.0772 144.307 24.5989 142.66 24.5617C141.01 24.6019 139.395 24.0801 138.08 23.0817C137.221 22.4205 136.164 22.0682 135.08 22.0817C133.996 22.0651 132.938 22.4177 132.08 23.0817C130.777 24.0808 129.171 24.6031 127.53 24.5617C125.893 24.6134 124.29 24.0897 123 23.0817C122.142 22.4177 121.084 22.0651 120 22.0817V20.2917C121.62 20.2957 123.2 20.8024 124.52 21.7417C125.37 22.4199 126.433 22.7743 127.52 22.7417C128.606 22.7708 129.668 22.4168 130.52 21.7417C131.834 20.7668 133.434 20.2567 135.07 20.2917C136.712 20.256 138.319 20.766 139.64 21.7417C140.493 22.4146 141.554 22.7683 142.64 22.7417C143.726 22.7708 144.788 22.4168 145.64 21.7417C146.963 20.7707 148.569 20.2613 150.21 20.2917C151.855 20.2583 153.464 20.768 154.79 21.7417C155.642 22.4153 156.704 22.7691 157.79 22.7417C158.877 22.776 159.941 22.4215 160.79 21.7417C161 21.6117 161.23 21.4517 161.47 21.3217C161.67 21.9976 161.808 22.6906 161.88 23.3917Z" fill="url(#paint18_radial)"/>
<path d="M160.09 17.9618C159.345 18.1731 158.574 18.2775 157.8 18.2718C156.155 18.2981 154.547 17.7775 153.23 16.7918C152.377 16.1189 151.316 15.7652 150.23 15.7918C149.143 15.7557 148.078 16.1105 147.23 16.7918C145.911 17.7741 144.305 18.2943 142.66 18.2718C141.012 18.298 139.401 17.7776 138.08 16.7918C137.228 16.1182 136.166 15.7644 135.08 15.7918C133.993 15.761 132.931 16.1151 132.08 16.7918C130.771 17.7781 129.169 18.299 127.53 18.2718C125.896 18.3054 124.299 17.7836 123 16.7918C122.149 16.1151 121.087 15.761 120 15.7918V14.0018C121.62 14.0057 123.2 14.5124 124.52 15.4518C125.37 16.1299 126.433 16.4843 127.52 16.4518C128.606 16.4808 129.668 16.1269 130.52 15.4518C131.834 14.4768 133.434 13.9667 135.07 14.0018C136.712 13.9661 138.319 14.476 139.64 15.4518C140.493 16.1246 141.554 16.4783 142.64 16.4518C143.726 16.4808 144.788 16.1269 145.64 15.4518C146.963 14.4808 148.569 13.9713 150.21 14.0018C151.855 13.9684 153.464 14.478 154.79 15.4518C155.642 16.1253 156.704 16.4791 157.79 16.4518C158.194 16.4553 158.596 16.4117 158.99 16.3218C159.402 16.8364 159.77 17.385 160.09 17.9618Z" fill="url(#paint19_radial)"/>
<path d="M115.11 56.22C114.817 56.22 114.537 56.1044 114.329 55.8984C114.121 55.6924 114.003 55.4126 114 55.12V54.12C114.003 53.8273 114.121 53.5476 114.329 53.3416C114.537 53.1356 114.817 53.02 115.11 53.02C115.403 53.02 115.684 53.1356 115.891 53.3416C116.099 53.5476 116.217 53.8273 116.22 54.12V55.12C116.217 55.4126 116.099 55.6924 115.891 55.8984C115.684 56.1044 115.403 56.22 115.11 56.22Z" fill="url(#paint20_linear)"/>
<path d="M115.11 49.23C114.817 49.23 114.537 49.1145 114.329 48.9084C114.121 48.7024 114.003 48.4227 114 48.13V47.13C114 46.8356 114.117 46.5533 114.325 46.3451C114.533 46.137 114.816 46.02 115.11 46.02C115.404 46.02 115.687 46.137 115.895 46.3451C116.103 46.5533 116.22 46.8356 116.22 47.13V48.13C116.217 48.4227 116.099 48.7024 115.891 48.9084C115.684 49.1145 115.403 49.23 115.11 49.23Z" fill="url(#paint21_linear)"/>
<path d="M119.11 52.22H118.11C117.817 52.2174 117.538 52.0993 117.332 51.8914C117.126 51.6835 117.01 51.4027 117.01 51.11C117.01 50.8174 117.126 50.5365 117.332 50.3286C117.538 50.1208 117.817 50.0026 118.11 50H119.11C119.404 50 119.687 50.117 119.895 50.3251C120.103 50.5333 120.22 50.8156 120.22 51.11C120.22 51.4044 120.103 51.6867 119.895 51.8949C119.687 52.1031 119.404 52.22 119.11 52.22Z" fill="url(#paint22_linear)"/>
<path d="M112.13 52.22H111.13C110.836 52.22 110.553 52.1031 110.345 51.8949C110.137 51.6867 110.02 51.4044 110.02 51.11C110.02 50.8156 110.137 50.5333 110.345 50.3251C110.553 50.117 110.836 50 111.13 50H112.13C112.423 50.0026 112.702 50.1208 112.908 50.3286C113.114 50.5365 113.23 50.8174 113.23 51.11C113.23 51.4027 113.114 51.6835 112.908 51.8914C112.702 52.0993 112.423 52.2174 112.13 52.22Z" fill="url(#paint23_linear)"/>
<path d="M94.1101 18.22C93.8175 18.22 93.5366 18.1044 93.3287 17.8984C93.1209 17.6924 93.0027 17.4126 93.0001 17.12V16.12C93.0027 15.8273 93.1209 15.5476 93.3287 15.3416C93.5366 15.1356 93.8175 15.02 94.1101 15.02C94.4028 15.02 94.6836 15.1356 94.8915 15.3416C95.0994 15.5476 95.2175 15.8273 95.2201 16.12V17.12C95.2175 17.4126 95.0994 17.6924 94.8915 17.8984C94.6836 18.1044 94.4028 18.22 94.1101 18.22Z" fill="url(#paint24_linear)"/>
<path d="M94.1101 11.23C93.8175 11.23 93.5366 11.1145 93.3287 10.9084C93.1209 10.7024 93.0027 10.4227 93.0001 10.13V9.13C93.0001 8.83561 93.117 8.55329 93.3252 8.34512C93.5334 8.13696 93.8157 8.02002 94.1101 8.02002C94.4045 8.02002 94.6868 8.13696 94.895 8.34512C95.1032 8.55329 95.2201 8.83561 95.2201 9.13V10.13C95.2175 10.4227 95.0994 10.7024 94.8915 10.9084C94.6836 11.1145 94.4028 11.23 94.1101 11.23Z" fill="url(#paint25_linear)"/>
<path d="M98.1101 14.22H97.1101C96.8175 14.2174 96.5376 14.0993 96.3316 13.8914C96.1256 13.6835 96.0101 13.4027 96.0101 13.11C96.0101 12.8174 96.1256 12.5365 96.3316 12.3286C96.5376 12.1208 96.8175 12.0026 97.1101 12H98.1101C98.4045 12 98.6868 12.117 98.895 12.3251C99.1032 12.5333 99.2201 12.8156 99.2201 13.11C99.2201 13.4044 99.1032 13.6867 98.895 13.8949C98.6868 14.1031 98.4045 14.22 98.1101 14.22Z" fill="url(#paint26_linear)"/>
<path d="M91.1301 14.22H90.1301C89.8357 14.22 89.5534 14.1031 89.3452 13.8949C89.1371 13.6867 89.0201 13.4044 89.0201 13.11C89.0201 12.8156 89.1371 12.5333 89.3452 12.3251C89.5534 12.117 89.8357 12 90.1301 12H91.1301C91.4228 12.0026 91.7025 12.1208 91.9085 12.3286C92.1146 12.5365 92.2301 12.8174 92.2301 13.11C92.2301 13.4027 92.1146 13.6835 91.9085 13.8914C91.7025 14.0993 91.4228 14.2174 91.1301 14.22Z" fill="url(#paint27_linear)"/>
<path d="M38 0.0500488H44C44 6.80005 45.64 9.36004 46.3 9.95004C46.96 9.36004 48.6 6.80005 48.6 0.0500488H54.6C54.7303 3.81115 54.0729 7.55796 52.67 11.0501C51.22 14.2201 48.89 16.0501 46.3 16.0501C43.71 16.0501 41.39 14.2001 39.93 11.0501C38.5288 7.55771 37.8747 3.81057 38.01 0.0500488H38Z" fill="url(#paint28_linear)"/>
<path d="M14.8746 20.6989H17.0068C17.2503 20.7016 17.4831 20.7996 17.6552 20.9717C17.8274 21.1439 17.9253 21.3767 17.928 21.6201V34.3822C17.9294 34.5045 17.9066 34.6259 17.8611 34.7395C17.8155 34.853 17.748 34.9565 17.6624 35.0439C17.5769 35.1314 17.475 35.2012 17.3625 35.2492C17.25 35.2973 17.1292 35.3227 17.0068 35.3241H14.5434C14.4193 35.3255 14.2962 35.3021 14.1813 35.2552C14.0664 35.2084 13.962 35.139 13.8743 35.0513C13.7865 34.9636 13.7172 34.8592 13.6704 34.7443C13.6235 34.6294 13.6001 34.5063 13.6015 34.3822V25.3566L12.1939 26.2985C12.1125 26.3565 12.0199 26.3968 11.9221 26.4168C11.8242 26.4368 11.7233 26.436 11.6258 26.4145C11.5283 26.3931 11.4362 26.3514 11.3558 26.2922C11.2754 26.233 11.2083 26.1576 11.1588 26.0708L10.1238 24.4768C10.0688 24.3945 10.031 24.302 10.0127 24.2047C9.9944 24.1075 9.99587 24.0075 10.0171 23.9108C10.0384 23.8142 10.079 23.7228 10.1364 23.6422C10.1939 23.5616 10.267 23.4934 10.3515 23.4418L14.1914 20.8542C14.3969 20.7313 14.6362 20.6769 14.8746 20.6989Z" fill="black"/>
<path d="M32.5118 28.0167C32.5118 32.1569 30.5038 35.5932 26.1152 35.5932C21.7266 35.5932 19.7084 32.1465 19.7084 28.0167C19.7084 23.8869 21.7784 20.4506 26.1152 20.4506C30.452 20.4506 32.5118 23.8765 32.5118 28.0167ZM28.3717 28.0167C28.3717 26.1743 27.7713 24.4355 26.1152 24.4355C24.4592 24.4355 23.8382 26.1743 23.8382 28.0167C23.8382 29.8591 24.4695 31.5876 26.1152 31.5876C27.7609 31.5876 28.3717 29.828 28.3717 28.0167Z" fill="black"/>
<path d="M38.1113 20.6989H40.2434C40.4878 20.6989 40.722 20.796 40.8948 20.9687C41.0675 21.1415 41.1647 21.3758 41.1647 21.6201V34.3822C41.166 34.5045 41.1432 34.6259 41.0977 34.7394C41.0521 34.853 40.9847 34.9564 40.8992 35.0439C40.8137 35.1314 40.7116 35.2011 40.5991 35.2492C40.4866 35.2973 40.3658 35.3227 40.2434 35.3241H37.78C37.5302 35.3241 37.2907 35.2248 37.1141 35.0482C36.9374 34.8715 36.8381 34.632 36.8381 34.3822V25.3566L35.4408 26.2985C35.359 26.3549 35.2665 26.3939 35.1689 26.4131C35.0714 26.4322 34.9709 26.431 34.8738 26.4097C34.7767 26.3883 34.6851 26.3472 34.6045 26.2889C34.524 26.2306 34.4564 26.1564 34.4058 26.0708L33.3708 24.4768C33.3162 24.3939 33.2791 24.3008 33.2616 24.2031C33.244 24.1054 33.2464 24.0052 33.2687 23.9084C33.2909 23.8117 33.3325 23.7205 33.391 23.6403C33.4494 23.5601 33.5235 23.4926 33.6088 23.4418L37.4489 20.8542C37.6477 20.7335 37.8796 20.6792 38.1113 20.6989Z" fill="black"/>
<path d="M61.9379 26.1123C61.9379 29.5796 59.6195 31.1633 55.9451 31.1633H54.2787V34.3822C54.2787 34.5059 54.2543 34.6284 54.207 34.7427C54.1596 34.8569 54.0903 34.9608 54.0028 35.0482C53.9153 35.1357 53.8116 35.2051 53.6973 35.2524C53.583 35.2997 53.4605 35.3241 53.3368 35.3241H50.8734C50.7511 35.3228 50.6302 35.2973 50.5177 35.2493C50.4052 35.2012 50.3032 35.1314 50.2177 35.044C50.1321 34.9565 50.0647 34.853 50.0192 34.7395C49.9736 34.626 49.9508 34.5046 49.9522 34.3822V21.6202C49.9522 21.3759 50.0492 21.1415 50.222 20.9688C50.3947 20.796 50.6291 20.699 50.8734 20.699H55.9451C59.9818 20.699 61.9379 22.8519 61.9379 26.1123ZM57.5805 26.1123C57.5882 25.9018 57.55 25.6921 57.4685 25.4979C57.387 25.3037 57.2642 25.1296 57.1085 24.9877C56.9529 24.8458 56.7681 24.7396 56.5671 24.6764C56.3662 24.6132 56.154 24.5946 55.9451 24.6218H54.2787V27.613H55.9451C56.1552 27.6423 56.3692 27.6248 56.5717 27.5617C56.7742 27.4987 56.9602 27.3915 57.1165 27.2481C57.2728 27.1047 57.3955 26.9285 57.4757 26.7321C57.5559 26.5357 57.5916 26.3241 57.5805 26.1123Z" fill="black"/>
<path d="M78.1363 28.0167C78.1281 29.5036 77.6797 30.9548 76.8474 32.187C76.0152 33.4192 74.8364 34.3772 73.4601 34.9401C72.0839 35.503 70.5717 35.6455 69.1145 35.3496C67.6573 35.0538 66.3205 34.3328 65.2727 33.2778C64.2249 32.2228 63.5131 30.881 63.2272 29.4218C62.9414 27.9626 63.0944 26.4514 63.6667 25.0791C64.239 23.7067 65.205 22.5346 66.4429 21.7109C67.6808 20.8871 69.1349 20.4486 70.6219 20.4506C71.6205 20.4231 72.6142 20.6005 73.5418 20.9717C74.4693 21.3429 75.311 21.9001 76.015 22.6089C76.719 23.3178 77.2704 24.1633 77.6352 25.0933C78 26.0234 78.1706 27.0183 78.1363 28.0167ZM73.8202 28.0167C73.7839 27.3934 73.5657 26.7944 73.1929 26.2935C72.8201 25.7926 72.3089 25.4118 71.7222 25.198C71.1356 24.9842 70.4992 24.9469 69.8916 25.0905C69.2839 25.2342 68.7316 25.5526 68.3028 26.0064C67.8739 26.4602 67.5873 27.0296 67.4782 27.6444C67.3692 28.2592 67.4425 28.8925 67.6891 29.4662C67.9357 30.0398 68.3447 30.5287 68.8659 30.8726C69.3871 31.2164 69.9975 31.4002 70.6219 31.4013C71.062 31.4163 71.5003 31.3376 71.9077 31.1702C72.3151 31.0029 72.6822 30.7508 72.9847 30.4307C73.2872 30.1106 73.5181 29.7298 73.6622 29.3136C73.8062 28.8974 73.8601 28.4553 73.8202 28.0167Z" fill="black"/>
<path d="M94.4486 28.0167C94.4405 29.5032 93.9922 30.9539 93.1604 32.1859C92.3286 33.4179 91.1506 34.3759 89.7749 34.9391C88.3992 35.5023 86.8876 35.6454 85.4307 35.3504C83.9738 35.0554 82.6368 34.3355 81.5886 33.2815C80.5404 32.2275 79.8279 30.8867 79.5409 29.4281C79.2539 27.9696 79.4053 26.4588 79.976 25.0862C80.5467 23.7137 81.5111 22.5409 82.7476 21.7159C83.9841 20.8909 85.4373 20.4506 86.9238 20.4506C87.9229 20.4232 88.9172 20.6005 89.8453 20.9716C90.7733 21.3427 91.6155 21.8997 92.3203 22.6084C93.0251 23.3171 93.5775 24.1625 93.9435 25.0925C94.3095 26.0226 94.4815 27.0178 94.4486 28.0167ZM90.1222 28.0167C90.0859 27.3934 89.8676 26.7943 89.4948 26.2935C89.122 25.7926 88.6109 25.4117 88.0242 25.198C87.4376 24.9842 86.8011 24.9469 86.1935 25.0905C85.5858 25.2342 85.0335 25.5526 84.6047 26.0064C84.1758 26.4602 83.8892 27.0296 83.7801 27.6444C83.6711 28.2592 83.7444 28.8925 83.991 29.4661C84.2376 30.0398 84.6467 30.5287 85.1679 30.8726C85.6891 31.2164 86.2994 31.4002 86.9238 31.4013C87.3639 31.4163 87.8023 31.3375 88.2097 31.1702C88.6171 31.0028 88.9841 30.7508 89.2866 30.4306C89.5891 30.1105 89.8201 29.7298 89.9642 29.3136C90.1082 28.8974 90.1621 28.4553 90.1222 28.0167Z" fill="black"/>
<path d="M105.089 31.4012C105.33 31.4039 105.56 31.5008 105.73 31.671C105.9 31.8412 105.997 32.0713 106 32.3121V34.3822C106.003 34.504 105.981 34.6252 105.937 34.7387C105.892 34.8521 105.826 34.9557 105.741 35.0433C105.656 35.1309 105.555 35.2008 105.443 35.249C105.331 35.2972 105.211 35.3227 105.089 35.3241H97.1709C97.0468 35.3254 96.9238 35.302 96.8089 35.2552C96.6939 35.2083 96.5896 35.139 96.5018 35.0513C96.4141 34.9635 96.3446 34.8591 96.2978 34.7442C96.251 34.6293 96.2276 34.5062 96.2289 34.3822V21.6201C96.2303 21.4978 96.2559 21.3769 96.304 21.2644C96.352 21.1519 96.4218 21.05 96.5093 20.9644C96.5967 20.8789 96.7 20.8114 96.8136 20.7658C96.9271 20.7203 97.0485 20.6975 97.1709 20.6989H99.6344C99.8778 20.7016 100.111 20.7995 100.283 20.9717C100.455 21.1439 100.553 21.3766 100.555 21.6201V31.4012H105.089Z" fill="black"/>
</g>
<defs>
<linearGradient id="paint0_linear" x1="75.9966" y1="0" x2="75.9966" y2="64" gradientUnits="userSpaceOnUse">
<stop stop-color="#FFDC6B"/>
<stop offset="1" stop-color="#FFAB14"/>
</linearGradient>
<radialGradient id="paint1_radial" cx="0" cy="0" r="1" gradientUnits="userSpaceOnUse" gradientTransform="translate(49.25 46.92) scale(0.919998)">
<stop stop-color="#F89231"/>
<stop offset="0.13" stop-color="#F89F31"/>
<stop offset="0.32" stop-color="#F8AA31"/>
<stop offset="0.52" stop-color="#F8AE31"/>
<stop offset="0.92" stop-color="#FC9F00"/>
</radialGradient>
<radialGradient id="paint2_radial" cx="0" cy="0" r="1" gradientUnits="userSpaceOnUse" gradientTransform="translate(762.028 -701.253) scale(1.6928 1.70201)">
<stop stop-color="#F89231"/>
<stop offset="0.13" stop-color="#F89F31"/>
<stop offset="0.32" stop-color="#F8AA31"/>
<stop offset="0.52" stop-color="#F8AE31"/>
<stop offset="0.92" stop-color="#FC9F00"/>
</radialGradient>
<radialGradient id="paint3_radial" cx="0" cy="0" r="1" gradientUnits="userSpaceOnUse" gradientTransform="translate(783.889 -701.253) scale(1.70201)">
<stop stop-color="#F89231"/>
<stop offset="0.13" stop-color="#F89F31"/>
<stop offset="0.32" stop-color="#F8AA31"/>
<stop offset="0.52" stop-color="#F8AE31"/>
<stop offset="0.92" stop-color="#FC9F00"/>
</radialGradient>
<radialGradient id="paint4_radial" cx="0" cy="0" r="1" gradientUnits="userSpaceOnUse" gradientTransform="translate(726.085 -686.445) scale(1.69282 1.70201)">
<stop stop-color="#F89231"/>
<stop offset="0.13" stop-color="#F89F31"/>
<stop offset="0.32" stop-color="#F8AA31"/>
<stop offset="0.52" stop-color="#F8AE31"/>
<stop offset="0.92" stop-color="#FC9F00"/>
</radialGradient>
<radialGradient id="paint5_radial" cx="0" cy="0" r="1" gradientUnits="userSpaceOnUse" gradientTransform="translate(744.021 -686.445) scale(1.6928 1.70201)">
<stop stop-color="#F89231"/>
<stop offset="0.13" stop-color="#F89F31"/>
<stop offset="0.32" stop-color="#F8AA31"/>
<stop offset="0.52" stop-color="#F8AE31"/>
<stop offset="0.92" stop-color="#FC9F00"/>
</radialGradient>
<radialGradient id="paint6_radial" cx="0" cy="0" r="1" gradientUnits="userSpaceOnUse" gradientTransform="translate(762.028 -686.445) scale(1.6928 1.70201)">
<stop stop-color="#F89231"/>
<stop offset="0.13" stop-color="#F89F31"/>
<stop offset="0.32" stop-color="#F8AA31"/>
<stop offset="0.52" stop-color="#F8AE31"/>
<stop offset="0.92" stop-color="#FC9F00"/>
</radialGradient>
<radialGradient id="paint7_radial" cx="0" cy="0" r="1" gradientUnits="userSpaceOnUse" gradientTransform="translate(783.889 -686.445) scale(1.70201)">
<stop stop-color="#F89231"/>
<stop offset="0.13" stop-color="#F89F31"/>
<stop offset="0.32" stop-color="#F8AA31"/>
<stop offset="0.52" stop-color="#F8AE31"/>
<stop offset="0.92" stop-color="#FC9F00"/>
</radialGradient>
<radialGradient id="paint8_radial" cx="0" cy="0" r="1" gradientUnits="userSpaceOnUse" gradientTransform="translate(726.085 -667.716) scale(1.69282)">
<stop stop-color="#F89231"/>
<stop offset="0.13" stop-color="#F89F31"/>
<stop offset="0.32" stop-color="#F8AA31"/>
<stop offset="0.52" stop-color="#F8AE31"/>
<stop offset="0.92" stop-color="#FC9F00"/>
</radialGradient>
<radialGradient id="paint9_radial" cx="0" cy="0" r="1" gradientUnits="userSpaceOnUse" gradientTransform="translate(744.021 -667.716) scale(1.6928)">
<stop stop-color="#F89231"/>
<stop offset="0.13" stop-color="#F89F31"/>
<stop offset="0.32" stop-color="#F8AA31"/>
<stop offset="0.52" stop-color="#F8AE31"/>
<stop offset="0.92" stop-color="#FC9F00"/>
</radialGradient>
<radialGradient id="paint10_radial" cx="0" cy="0" r="1" gradientUnits="userSpaceOnUse" gradientTransform="translate(762.028 -667.716) scale(1.6928)">
<stop stop-color="#F89231"/>
<stop offset="0.13" stop-color="#F89F31"/>
<stop offset="0.32" stop-color="#F8AA31"/>
<stop offset="0.52" stop-color="#F8AE31"/>
<stop offset="0.92" stop-color="#FC9F00"/>
</radialGradient>
<radialGradient id="paint11_radial" cx="0" cy="0" r="1" gradientUnits="userSpaceOnUse" gradientTransform="translate(783.889 -667.716) scale(1.70201 1.69282)">
<stop stop-color="#F89231"/>
<stop offset="0.13" stop-color="#F89F31"/>
<stop offset="0.32" stop-color="#F8AA31"/>
<stop offset="0.52" stop-color="#F8AE31"/>
<stop offset="0.92" stop-color="#FC9F00"/>
</radialGradient>
<radialGradient id="paint12_radial" cx="0" cy="0" r="1" gradientUnits="userSpaceOnUse" gradientTransform="translate(726.085 -652.963) scale(1.69282)">
<stop stop-color="#F89231"/>
<stop offset="0.13" stop-color="#F89F31"/>
<stop offset="0.32" stop-color="#F8AA31"/>
<stop offset="0.52" stop-color="#F8AE31"/>
<stop offset="0.92" stop-color="#FC9F00"/>
</radialGradient>
<radialGradient id="paint13_radial" cx="0" cy="0" r="1" gradientUnits="userSpaceOnUse" gradientTransform="translate(744.021 -652.963) scale(1.6928)">
<stop stop-color="#F89231"/>
<stop offset="0.13" stop-color="#F89F31"/>
<stop offset="0.32" stop-color="#F8AA31"/>
<stop offset="0.52" stop-color="#F8AE31"/>
<stop offset="0.92" stop-color="#FC9F00"/>
</radialGradient>
<radialGradient id="paint14_radial" cx="0" cy="0" r="1" gradientUnits="userSpaceOnUse" gradientTransform="translate(762.028 -652.963) scale(1.6928)">
<stop stop-color="#F89231"/>
<stop offset="0.13" stop-color="#F89F31"/>
<stop offset="0.32" stop-color="#F8AA31"/>
<stop offset="0.52" stop-color="#F8AE31"/>
<stop offset="0.92" stop-color="#FC9F00"/>
</radialGradient>
<radialGradient id="paint15_radial" cx="0" cy="0" r="1" gradientUnits="userSpaceOnUse" gradientTransform="translate(783.889 -652.963) scale(1.70201 1.6928)">
<stop stop-color="#F89231"/>
<stop offset="0.13" stop-color="#F89F31"/>
<stop offset="0.32" stop-color="#F8AA31"/>
<stop offset="0.52" stop-color="#F8AE31"/>
<stop offset="0.92" stop-color="#FC9F00"/>
</radialGradient>
<radialGradient id="paint16_radial" cx="0" cy="0" r="1" gradientUnits="userSpaceOnUse" gradientTransform="translate(141.56 33.9117) scale(14.54)">
<stop stop-color="#F8AE31"/>
<stop offset="0.04" stop-color="#FAB622"/>
<stop offset="0.12" stop-color="#FBBF0F"/>
<stop offset="0.2" stop-color="#FDC504"/>
<stop offset="0.28" stop-color="#FDC700"/>
<stop offset="0.67" stop-color="#F8AE31"/>
<stop offset="0.92" stop-color="#FCC600"/>
</radialGradient>
<radialGradient id="paint17_radial" cx="0" cy="0" r="1" gradientUnits="userSpaceOnUse" gradientTransform="translate(20540.6 -1771.51) scale(610.264 62.9536)">
<stop stop-color="#F8AE31"/>
<stop offset="0.04" stop-color="#FAB622"/>
<stop offset="0.12" stop-color="#FBBF0F"/>
<stop offset="0.2" stop-color="#FDC504"/>
<stop offset="0.28" stop-color="#FDC700"/>
<stop offset="0.67" stop-color="#F8AE31"/>
<stop offset="0.92" stop-color="#FCC600"/>
</radialGradient>
<radialGradient id="paint18_radial" cx="0" cy="0" r="1" gradientUnits="userSpaceOnUse" gradientTransform="translate(20747.2 -1802.92) scale(623.175 63.6286)">
<stop stop-color="#F8AE31"/>
<stop offset="0.04" stop-color="#FAB622"/>
<stop offset="0.12" stop-color="#FBBF0F"/>
<stop offset="0.2" stop-color="#FDC504"/>
<stop offset="0.28" stop-color="#FDC700"/>
<stop offset="0.67" stop-color="#F8AE31"/>
<stop offset="0.92" stop-color="#FCC600"/>
</radialGradient>
<radialGradient id="paint19_radial" cx="0" cy="0" r="1" gradientUnits="userSpaceOnUse" gradientTransform="translate(19829.5 -1834.89) scale(571.283 60.8945)">
<stop stop-color="#F8AE31"/>
<stop offset="0.04" stop-color="#FAB622"/>
<stop offset="0.12" stop-color="#FBBF0F"/>
<stop offset="0.2" stop-color="#FDC504"/>
<stop offset="0.28" stop-color="#FDC700"/>
<stop offset="0.67" stop-color="#F8AE31"/>
<stop offset="0.92" stop-color="#FCC600"/>
</radialGradient>
<linearGradient id="paint20_linear" x1="115.11" y1="53.02" x2="115.11" y2="56.22" gradientUnits="userSpaceOnUse">
<stop stop-color="#FFD243"/>
<stop offset="1" stop-color="#D07D00" stop-opacity="0"/>
</linearGradient>
<linearGradient id="paint21_linear" x1="115.11" y1="46.02" x2="115.11" y2="49.23" gradientUnits="userSpaceOnUse">
<stop stop-color="#FFD243"/>
<stop offset="1" stop-color="#D07D00" stop-opacity="0"/>
</linearGradient>
<linearGradient id="paint22_linear" x1="118.615" y1="50" x2="118.615" y2="52.22" gradientUnits="userSpaceOnUse">
<stop stop-color="#FFD243"/>
<stop offset="1" stop-color="#D07D00" stop-opacity="0"/>
</linearGradient>
<linearGradient id="paint23_linear" x1="111.625" y1="50" x2="111.625" y2="52.22" gradientUnits="userSpaceOnUse">
<stop stop-color="#FFD243"/>
<stop offset="1" stop-color="#D07D00" stop-opacity="0"/>
</linearGradient>
<linearGradient id="paint24_linear" x1="94.1101" y1="15.02" x2="94.1101" y2="18.22" gradientUnits="userSpaceOnUse">
<stop stop-color="#FFD243"/>
<stop offset="1" stop-color="#D07D00" stop-opacity="0"/>
</linearGradient>
<linearGradient id="paint25_linear" x1="94.1101" y1="8.02002" x2="94.1101" y2="11.23" gradientUnits="userSpaceOnUse">
<stop stop-color="#FFD243"/>
<stop offset="1" stop-color="#D07D00" stop-opacity="0"/>
</linearGradient>
<linearGradient id="paint26_linear" x1="97.6151" y1="12" x2="97.6151" y2="14.22" gradientUnits="userSpaceOnUse">
<stop stop-color="#FFD243"/>
<stop offset="1" stop-color="#D07D00" stop-opacity="0"/>
</linearGradient>
<linearGradient id="paint27_linear" x1="90.6251" y1="12" x2="90.6251" y2="14.22" gradientUnits="userSpaceOnUse">
<stop stop-color="#FFD243"/>
<stop offset="1" stop-color="#D07D00" stop-opacity="0"/>
</linearGradient>
<linearGradient id="paint28_linear" x1="46.3044" y1="0.0500488" x2="46.3044" y2="16.0501" gradientUnits="userSpaceOnUse">
<stop stop-color="#F9B22A"/>
<stop offset="1" stop-color="#EFBD5E" stop-opacity="0"/>
</linearGradient>
<clipPath id="clip0">
<rect width="152" height="64" fill="white"/>
</clipPath>
</defs>
</svg>
