<svg width="152" height="64" viewBox="0 0 152 64" fill="none" xmlns="http://www.w3.org/2000/svg">
<g clip-path="url(#clip0)">
<path d="M140 -5.9478e-05L9.99995 1.19209e-07C-3.49996 -1.5147e-05 0.999889 -2 -0.000110626 12.4999L0 51.9999C0 58.6274 5.37259 64 12 64H140C146.627 64 152 58.6274 152 51.9999V11.9999C152 5.37252 146.627 -5.9478e-05 140 -5.9478e-05Z" fill="url(#paint0_linear)"/>
<path d="M66.89 2.34V4.02C66.4517 3.97792 66.0309 3.82687 65.6658 3.5806C65.3008 3.33434 65.0032 3.00067 64.8 2.60999C64.41 2.06999 64.14 1.71 63.58 1.71C63.02 1.71 62.74 2.06999 62.35 2.60999C62.1516 2.99764 61.8571 3.32799 61.4948 3.56956C61.1324 3.81114 60.7142 3.95588 60.28 3.99C59.8401 3.95339 59.417 3.80454 59.0511 3.55767C58.6852 3.3108 58.3887 2.97418 58.19 2.57999C57.81 2.03999 57.55 1.67999 56.98 1.67999C56.41 1.67999 56.15 2.03999 55.76 2.57999C55.5622 2.97282 55.2674 3.30856 54.9033 3.55534C54.5393 3.80212 54.1182 3.95174 53.6801 3.99C53.2399 3.95434 52.8163 3.80586 52.4503 3.55888C52.0842 3.31191 51.7879 2.97478 51.59 2.57999C51.2 2.03999 50.9501 1.67999 50.3701 1.67999C49.7901 1.67999 49.55 2.03999 49.16 2.57999C48.9622 2.97478 48.6659 3.31191 48.2998 3.55888C47.9337 3.80586 47.5102 3.95434 47.07 3.99C46.6319 3.95174 46.2108 3.80212 45.8467 3.55534C45.4827 3.30856 45.1878 2.97282 44.9901 2.57999C44.6001 2.03999 44.35 1.67999 43.78 1.67999C43.21 1.67999 42.94 2.03999 42.55 2.57999C42.3596 2.98248 42.0639 3.326 41.6942 3.57421C41.3245 3.82242 40.8946 3.96608 40.45 3.99C40.0117 3.94792 39.5909 3.79687 39.2258 3.55061C38.8608 3.30434 38.5632 2.97067 38.36 2.57999C37.97 2.03999 37.7 1.67999 37.13 1.67999C36.56 1.67999 36.3 2.03999 35.91 2.57999C35.7138 2.97401 35.4193 3.31077 35.0549 3.55776C34.6906 3.80475 34.2687 3.95362 33.83 3.99C33.3901 3.95339 32.967 3.80454 32.6011 3.55767C32.2352 3.3108 31.9387 2.97418 31.7401 2.57999C31.3501 2.03999 31.1 1.67999 30.52 1.67999C29.94 1.67999 29.7001 2.03999 29.3101 2.57999C29.1123 2.97282 28.8174 3.30856 28.4533 3.55534C28.0893 3.80212 27.6682 3.95174 27.23 3.99C26.7899 3.95434 26.3663 3.80586 26.0002 3.55888C25.6342 3.31191 25.3379 2.97478 25.14 2.57999C24.75 2.03999 24.5 1.67999 23.92 1.67999C23.34 1.67999 23.1 2.03999 22.71 2.57999C22.5121 2.97478 22.2159 3.31191 21.8498 3.55888C21.4837 3.80586 21.0602 3.95434 20.6201 3.99C20.1819 3.95174 19.7608 3.80212 19.3968 3.55534C19.0327 3.30856 18.7378 2.97282 18.54 2.57999C18.15 2.03999 17.89 1.67999 17.32 1.67999C16.75 1.67999 16.48 2.03999 16.09 2.57999C15.903 2.98303 15.6096 3.32736 15.2413 3.57584C14.873 3.82433 14.4437 3.96753 14 3.99V2.34C14.63 2.34 14.84 1.97999 15.23 1.43999C15.4213 1.0456 15.7099 0.706422 16.0685 0.454475C16.4272 0.202529 16.8441 0.0461214 17.28 0C17.719 0.0354188 18.1413 0.183904 18.5058 0.431C18.8703 0.678095 19.1646 1.01538 19.36 1.41C19.75 1.95 20.01 2.31 20.58 2.31C21.15 2.31 21.41 1.95 21.8 1.41C21.9963 1.01598 22.2908 0.679217 22.6552 0.432228C23.0195 0.185239 23.4413 0.0363732 23.88 0C24.3199 0.0366057 24.7431 0.18546 25.109 0.432327C25.4749 0.679194 25.7714 1.01581 25.97 1.41C26.36 1.95 26.62 2.31 27.19 2.31C27.76 2.31 28.01 1.95 28.4 1.41C28.5978 1.01717 28.8927 0.681426 29.2568 0.434647C29.6208 0.187868 30.0419 0.0382536 30.48 0C30.9202 0.0356617 31.3437 0.184134 31.7098 0.431107C32.0759 0.678079 32.3721 1.01521 32.57 1.41C32.96 1.95 33.21 2.31 33.79 2.31C34.37 2.31 34.61 1.95 35 1.41C35.1987 1.01581 35.4952 0.679194 35.8611 0.432327C36.227 0.18546 36.6501 0.0366057 37.09 0C37.5299 0.0366057 37.953 0.18546 38.319 0.432327C38.6849 0.679194 38.9814 1.01581 39.1801 1.41C39.5701 1.95 39.78 2.31 40.41 2.31C41.04 2.31 41.25 1.95 41.64 1.41C41.8387 1.01581 42.1352 0.679194 42.5011 0.432327C42.867 0.18546 43.2902 0.0366057 43.73 0C44.1699 0.0366057 44.5931 0.18546 44.959 0.432327C45.3249 0.679194 45.6214 1.01581 45.82 1.41C46.21 1.95 46.46 2.31 47.03 2.31C47.6 2.31 47.86 1.95 48.25 1.41C48.4478 1.01717 48.7427 0.681426 49.1068 0.434647C49.4708 0.187868 49.8919 0.0382536 50.33 0C50.7702 0.0356617 51.1937 0.184134 51.5598 0.431107C51.9259 0.678079 52.2222 1.01521 52.42 1.41C52.81 1.95 53.07 2.31 53.64 2.31C54.21 2.31 54.46 1.95 54.85 1.41C55.0487 1.01581 55.3451 0.679194 55.7111 0.432327C56.077 0.18546 56.5001 0.0366057 56.94 0C57.3787 0.0363732 57.8006 0.185239 58.1649 0.432228C58.5293 0.679217 58.8238 1.01598 59.02 1.41C59.41 1.95 59.6701 2.31 60.2401 2.31C60.8101 2.31 61.06 1.95 61.45 1.41C61.6487 1.01581 61.9452 0.679194 62.3111 0.432327C62.677 0.18546 63.1001 0.0366057 63.54 0C63.9802 0.0356617 64.4038 0.184134 64.7698 0.431107C65.1359 0.678079 65.4321 1.01521 65.63 1.41C66.05 1.95 66.28 2.34 66.89 2.34Z" fill="url(#paint1_linear)"/>
<path d="M73.11 6.22003V7.90003C72.6709 7.85605 72.2495 7.70435 71.8832 7.45837C71.5168 7.2124 71.2169 6.87978 71.0099 6.49004C70.6199 5.95004 70.36 5.59003 69.79 5.59003C69.22 5.59003 68.9599 5.95004 68.5699 6.49004C68.3722 6.88286 68.0773 7.2186 67.7133 7.46538C67.3492 7.71216 66.9281 7.86178 66.49 7.90003C66.0498 7.86437 65.6263 7.7159 65.2602 7.46892C64.8941 7.22195 64.5978 6.88482 64.4 6.49004C64.01 5.95004 63.76 5.59003 63.18 5.59003C62.6 5.59003 62.36 5.95004 61.97 6.49004C61.7713 6.88422 61.4749 7.22084 61.1089 7.4677C60.743 7.71457 60.3198 7.86343 59.8799 7.90003C59.4413 7.86366 59.0194 7.71479 58.6551 7.4678C58.2907 7.22081 57.9962 6.88405 57.8 6.49004C57.41 5.95004 57.15 5.59003 56.58 5.59003C56.01 5.59003 55.76 5.95004 55.37 6.49004C55.1713 6.88422 54.8748 7.22084 54.5089 7.4677C54.143 7.71457 53.7199 7.86343 53.28 7.90003C52.841 7.86461 52.4187 7.71613 52.0542 7.46903C51.6897 7.22194 51.3954 6.88466 51.2 6.49004C50.81 5.95004 50.55 5.59003 49.98 5.59003C49.41 5.59003 49.1399 5.95004 48.7499 6.49004C48.563 6.89307 48.2695 7.2374 47.9012 7.48589C47.5329 7.73437 47.1037 7.87756 46.66 7.90003C46.2209 7.85605 45.7995 7.70435 45.4332 7.45837C45.0668 7.2124 44.7669 6.87978 44.56 6.49004C44.17 5.95004 43.91 5.59003 43.34 5.59003C42.77 5.59003 42.51 5.95004 42.12 6.49004C41.9213 6.88422 41.6248 7.22084 41.2589 7.4677C40.893 7.71457 40.4699 7.86343 40.03 7.90003C39.5913 7.86366 39.1694 7.71479 38.8051 7.4678C38.4407 7.22081 38.1462 6.88405 37.95 6.49004C37.56 5.95004 37.3 5.59003 36.73 5.59003C36.16 5.59003 35.91 5.95004 35.52 6.49004C35.3213 6.88422 35.0249 7.22084 34.6589 7.4677C34.293 7.71457 33.8699 7.86343 33.43 7.90003C32.9913 7.86366 32.5694 7.71479 32.2051 7.4678C31.8407 7.22081 31.5462 6.88405 31.35 6.49004C30.96 5.95004 30.6999 5.59003 30.1299 5.59003C29.5599 5.59003 29.3 5.95004 28.91 6.49004C28.7145 6.88466 28.4202 7.22194 28.0557 7.46903C27.6912 7.71613 27.2689 7.86461 26.83 7.90003C26.391 7.86461 25.9688 7.71613 25.6042 7.46903C25.2397 7.22194 24.9454 6.88466 24.7499 6.49004C24.3599 5.95004 24.1 5.59003 23.53 5.59003C22.96 5.59003 22.69 5.95004 22.3 6.49004C22.1121 6.8924 21.8184 7.23614 21.4503 7.4845C21.0821 7.73285 20.6534 7.87648 20.21 7.90003V6.22003C20.84 6.22003 21.0499 5.87004 21.4399 5.32004C21.6362 4.92602 21.9307 4.58925 22.295 4.34226C22.6594 4.09527 23.0813 3.94641 23.52 3.91003C23.9621 3.94766 24.387 4.09914 24.7533 4.34974C25.1196 4.60034 25.4147 4.94151 25.61 5.34003C26 5.89003 26.26 6.24004 26.83 6.24004C27.4 6.24004 27.66 5.89003 28.05 5.34003C28.2454 4.94541 28.5397 4.60813 28.9042 4.36104C29.2687 4.11394 29.691 3.96545 30.1299 3.93003C30.5689 3.96545 30.9912 4.11394 31.3557 4.36104C31.7202 4.60813 32.0145 4.94541 32.21 5.34003C32.6 5.89003 32.86 6.24004 33.43 6.24004C34 6.24004 34.26 5.89003 34.65 5.34003C34.8454 4.94541 35.1397 4.60813 35.5042 4.36104C35.8687 4.11394 36.291 3.96545 36.73 3.93003C37.1699 3.96664 37.593 4.1155 37.9589 4.36237C38.3248 4.60923 38.6213 4.94585 38.8199 5.34003C39.2099 5.89003 39.46 6.24004 40.03 6.24004C40.6 6.24004 40.8599 5.89003 41.2499 5.34003C41.4477 4.94721 41.7426 4.61146 42.1067 4.36468C42.4707 4.11791 42.8918 3.96828 43.33 3.93003C43.7716 3.96498 44.1968 4.11307 44.5646 4.36002C44.9324 4.60698 45.2305 4.94449 45.43 5.34003C45.82 5.89003 46.03 6.24004 46.66 6.24004C47.29 6.24004 47.5 5.89003 47.89 5.34003C48.0878 4.94525 48.3841 4.60812 48.7502 4.36114C49.1163 4.11417 49.5398 3.96569 49.98 3.93003C50.4189 3.96545 50.8412 4.11394 51.2057 4.36104C51.5702 4.60813 51.8646 4.94541 52.06 5.34003C52.45 5.89003 52.71 6.24004 53.28 6.24004C53.85 6.24004 54.1099 5.89003 54.4999 5.34003C54.6954 4.94541 54.9897 4.60813 55.3542 4.36104C55.7188 4.11394 56.141 3.96545 56.58 3.93003C57.0189 3.96545 57.4412 4.11394 57.8057 4.36104C58.1702 4.60813 58.4645 4.94541 58.66 5.34003C59.05 5.89003 59.3099 6.24004 59.8799 6.24004C60.4499 6.24004 60.71 5.89003 61.1 5.34003C61.2962 4.94602 61.5907 4.60925 61.9551 4.36227C62.3194 4.11528 62.7413 3.9664 63.18 3.93003C63.6216 3.96498 64.0468 4.11307 64.4146 4.36002C64.7824 4.60698 65.0804 4.94449 65.28 5.34003C65.67 5.89003 65.9199 6.24004 66.4999 6.24004C67.0799 6.24004 67.32 5.89003 67.71 5.34003C67.9077 4.94721 68.2027 4.61146 68.5667 4.36468C68.9308 4.11791 69.3518 3.96828 69.79 3.93003C70.2299 3.96664 70.653 4.1155 71.0189 4.36237C71.3848 4.60923 71.6813 4.94585 71.8799 5.34003C72.2799 5.87003 72.48 6.22003 73.11 6.22003Z" fill="url(#paint2_linear)"/>
<path d="M79.94 10.1401V11.8101C79.5022 11.7663 79.0821 11.6145 78.7173 11.3684C78.3526 11.1224 78.0546 10.7896 77.85 10.4001C77.46 9.86006 77.2 9.50007 76.63 9.50007C76.06 9.50007 75.79 9.86006 75.4 10.4001C75.2012 10.8003 74.9007 11.1412 74.5286 11.3886C74.1566 11.6361 73.726 11.7814 73.28 11.8101C72.8552 11.7616 72.4493 11.6071 72.0999 11.3607C71.7504 11.1143 71.4684 10.784 71.28 10.4001C70.89 9.86006 70.6301 9.50007 70.0601 9.50007C69.4901 9.50007 69.23 9.86006 68.84 10.4001C68.6438 10.7941 68.3493 11.1309 67.9849 11.3779C67.6206 11.6249 67.1987 11.7737 66.76 11.8101C66.3201 11.7735 65.897 11.6246 65.5311 11.3778C65.1651 11.1309 64.8687 10.7943 64.67 10.4001C64.28 9.86006 64.03 9.50007 63.45 9.50007C62.87 9.50007 62.6301 9.86006 62.2401 10.4001C62.0438 10.7941 61.7493 11.1309 61.3849 11.3779C61.0206 11.6249 60.5987 11.7737 60.16 11.8101C59.7201 11.7735 59.297 11.6246 58.9311 11.3778C58.5652 11.1309 58.2687 10.7943 58.07 10.4001C57.68 9.86006 57.43 9.50007 56.86 9.50007C56.29 9.50007 56.02 9.86006 55.63 10.4001C55.4396 10.8026 55.1439 11.1461 54.7742 11.3943C54.4046 11.6425 53.9747 11.7862 53.53 11.8101C53.0917 11.768 52.6709 11.617 52.3058 11.3707C51.9408 11.1244 51.6431 10.7908 51.44 10.4001C51.05 9.86006 50.78 9.50007 50.21 9.50007C49.64 9.50007 49.3801 9.86006 48.9901 10.4001C48.7946 10.7947 48.5003 11.132 48.1357 11.3791C47.7712 11.6262 47.349 11.7747 46.91 11.8101C46.4701 11.7735 46.047 11.6246 45.6811 11.3778C45.3152 11.1309 45.0187 10.7943 44.82 10.4001C44.43 9.86006 44.18 9.50007 43.61 9.50007C43.04 9.50007 42.78 9.86006 42.39 10.4001C42.1896 10.797 41.8901 11.1354 41.5204 11.3825C41.1507 11.6295 40.7234 11.7768 40.28 11.8101C39.8399 11.7744 39.4163 11.626 39.0502 11.379C38.6842 11.132 38.3879 10.7949 38.19 10.4001C37.8 9.86006 37.55 9.50007 36.97 9.50007C36.39 9.50007 36.15 9.86006 35.76 10.4001C35.5621 10.7949 35.2659 11.132 34.8998 11.379C34.5337 11.626 34.1102 11.7744 33.67 11.8101C33.2319 11.7719 32.8108 11.6222 32.4468 11.3755C32.0827 11.1287 31.7878 10.7929 31.59 10.4001C31.2 9.86006 30.94 9.50007 30.38 9.50007C29.82 9.50007 29.54 9.86006 29.15 10.4001C28.9596 10.8026 28.6639 11.1461 28.2942 11.3943C27.9245 11.6425 27.4947 11.7862 27.05 11.8101V10.1401C27.68 10.1401 27.89 9.78006 28.28 9.23006C28.4802 8.83707 28.7771 8.50145 29.1427 8.25479C29.5083 8.00813 29.9307 7.85853 30.3701 7.82007C30.8094 7.85853 31.2317 8.00813 31.5974 8.25479C31.963 8.50145 32.2598 8.83707 32.46 9.23006C32.85 9.78006 33.1 10.1401 33.67 10.1401C34.24 10.1401 34.5 9.78006 34.89 9.23006C35.0893 8.83841 35.3846 8.50367 35.7484 8.25709C36.1121 8.01052 36.5324 7.86016 36.97 7.82007C37.4097 7.85761 37.8324 8.00684 38.1982 8.2536C38.564 8.50036 38.8606 8.83648 39.0601 9.23006C39.4501 9.78006 39.71 10.1401 40.28 10.1401C40.85 10.1401 41.1001 9.78006 41.4901 9.23006C41.6902 8.83707 41.9871 8.50145 42.3527 8.25479C42.7183 8.00813 43.1407 7.85853 43.58 7.82007C44.0179 7.85925 44.4386 8.00924 44.8025 8.25591C45.1664 8.50259 45.4615 8.83783 45.66 9.23006C46.05 9.78006 46.31 10.1401 46.88 10.1401C47.45 10.1401 47.7 9.78006 48.09 9.23006C48.2902 8.83707 48.5871 8.50145 48.9527 8.25479C49.3183 8.00813 49.7407 7.85853 50.1801 7.82007C50.6214 7.85596 51.0462 8.00442 51.4139 8.25127C51.7815 8.49812 52.0797 8.83512 52.28 9.23006C52.67 9.78006 52.88 10.1401 53.51 10.1401C54.14 10.1401 54.3501 9.78006 54.7401 9.23006C54.9402 8.83707 55.2371 8.50145 55.6027 8.25479C55.9683 8.00813 56.3907 7.85853 56.83 7.82007C57.2694 7.85853 57.6918 8.00813 58.0574 8.25479C58.423 8.50145 58.7199 8.83707 58.92 9.23006C59.31 9.78006 59.56 10.1401 60.14 10.1401C60.72 10.1401 60.96 9.78006 61.35 9.23006C61.5493 8.83841 61.8446 8.50367 62.2084 8.25709C62.5721 8.01052 62.9924 7.86016 63.4301 7.82007C63.8697 7.85761 64.2924 8.00684 64.6581 8.2536C65.0239 8.50036 65.3206 8.83648 65.52 9.23006C65.91 9.78006 66.1701 10.1401 66.7401 10.1401C67.3101 10.1401 67.56 9.78006 67.95 9.23006C68.1502 8.83707 68.4471 8.50145 68.8127 8.25479C69.1783 8.00813 69.6007 7.85853 70.04 7.82007C70.4779 7.85925 70.8986 8.00924 71.2625 8.25591C71.6264 8.50259 71.9215 8.83783 72.1201 9.23006C72.5101 9.78006 72.77 10.1401 73.34 10.1401C73.91 10.1401 74.17 9.78006 74.55 9.23006C74.7502 8.83707 75.0471 8.50145 75.4127 8.25479C75.7783 8.00813 76.2007 7.85853 76.64 7.82007C77.0796 7.85761 77.5024 8.00684 77.8682 8.2536C78.2339 8.50036 78.5306 8.83648 78.73 9.23006C79.1 9.78006 79.28 10.1401 79.94 10.1401Z" fill="url(#paint3_linear)"/>
<path d="M85.4501 13.11V14.83H85.0001C84.8701 14.68 84.7601 14.53 84.6601 14.39C84.2801 13.86 84.0101 13.51 83.4401 13.51C83.3504 13.4991 83.2598 13.4991 83.1701 13.51C82.7901 13.62 82.5501 13.93 82.2301 14.38C82.1301 14.52 82.0301 14.67 81.9001 14.82H78.4001L78.0601 14.38C77.6701 13.84 77.4201 13.48 76.8501 13.48C76.2801 13.48 76.0201 13.84 75.6301 14.38L75.3001 14.82H71.8001C71.6701 14.67 71.5701 14.52 71.4601 14.38C71.0801 13.84 70.8201 13.48 70.2501 13.48C69.6801 13.48 69.4201 13.84 69.0301 14.38L68.7001 14.82H65.1901L64.8601 14.38C64.4701 13.84 64.2201 13.48 63.6501 13.48C63.0801 13.48 62.8101 13.84 62.4201 14.38C62.3101 14.52 62.2101 14.67 62.1001 14.82H58.5601L58.2301 14.38C57.8401 13.84 57.5801 13.48 57.0101 13.48C56.4401 13.48 56.1701 13.84 55.7801 14.38L55.4501 14.82H51.9401C51.826 14.6788 51.7193 14.532 51.6201 14.38C51.2301 13.84 50.9701 13.48 50.3901 13.48C49.8101 13.48 49.5701 13.84 49.1801 14.38L48.8501 14.82H45.3501C45.2201 14.67 45.1201 14.52 45.0101 14.38C44.6201 13.84 44.3701 13.48 43.8001 13.48C43.2301 13.48 42.9701 13.84 42.5801 14.38C42.4801 14.52 42.3701 14.67 42.2501 14.82H38.7401L38.4101 14.38C38.0201 13.84 37.7701 13.48 37.1901 13.48C36.6101 13.48 36.3501 13.84 35.9601 14.38C35.8601 14.52 35.7601 14.67 35.6401 14.82H33.8701V14.11C34.5001 14.11 34.7101 13.75 35.1001 13.2C35.3008 12.8083 35.598 12.4742 35.9637 12.2292C36.3294 11.9843 36.7514 11.8365 37.1901 11.8C37.6287 11.8365 38.0508 11.9843 38.4165 12.2292C38.7822 12.4742 39.0794 12.8083 39.2801 13.2C39.6701 13.75 39.9201 14.11 40.4901 14.11C41.0601 14.11 41.3201 13.75 41.7101 13.2C41.9108 12.8083 42.208 12.4742 42.5737 12.2292C42.9394 11.9843 43.3615 11.8365 43.8001 11.8C44.237 11.8382 44.657 11.9867 45.0208 12.2315C45.3846 12.4764 45.6802 12.8096 45.8801 13.2C46.2701 13.75 46.5301 14.11 47.1001 14.11C47.6701 14.11 47.9201 13.75 48.3101 13.2C48.5099 12.8096 48.8056 12.4764 49.1694 12.2315C49.5332 11.9867 49.9532 11.8382 50.3901 11.8C50.829 11.8356 51.2514 11.9829 51.6172 12.228C51.9831 12.4731 52.2802 12.8077 52.4801 13.2C52.8701 13.75 53.1301 14.11 53.7001 14.11C54.2701 14.11 54.5201 13.75 54.9101 13.2C55.1108 12.8083 55.408 12.4742 55.7737 12.2292C56.1394 11.9843 56.5614 11.8365 57.0001 11.8C57.4389 11.8356 57.8615 11.9829 58.2273 12.228C58.5931 12.4731 58.8901 12.8077 59.0901 13.2C59.4801 13.75 59.6901 14.11 60.3201 14.11C60.9501 14.11 61.1601 13.75 61.5501 13.2C61.7508 12.8083 62.048 12.4742 62.4137 12.2292C62.7794 11.9843 63.2015 11.8365 63.6401 11.8C64.0787 11.8365 64.5008 11.9843 64.8665 12.2292C65.2321 12.4742 65.5294 12.8083 65.7301 13.2C66.1101 13.75 66.3701 14.11 66.9501 14.11C67.5301 14.11 67.7701 13.75 68.1601 13.2C68.3608 12.8083 68.658 12.4742 69.0237 12.2292C69.3894 11.9843 69.8114 11.8365 70.2501 11.8C70.6872 11.8372 71.1077 11.9854 71.4716 12.2303C71.8356 12.4753 72.131 12.809 72.3301 13.2C72.7201 13.75 72.9801 14.11 73.5501 14.11C74.1201 14.11 74.3801 13.75 74.7601 13.2C74.9608 12.8083 75.258 12.4742 75.6237 12.2292C75.9894 11.9843 76.4115 11.8365 76.8501 11.8C77.2872 11.8372 77.7076 11.9854 78.0716 12.2303C78.4355 12.4753 78.731 12.809 78.9301 13.2C79.3201 13.75 79.5801 14.11 80.1501 14.11C80.7201 14.11 80.9701 13.75 81.3601 13.2L81.7401 12.7C81.9362 12.4281 82.1927 12.2053 82.4894 12.0491C82.7861 11.893 83.1149 11.8077 83.4501 11.8C83.8668 11.8321 84.2687 11.969 84.6183 12.1981C84.968 12.4271 85.2541 12.7408 85.4501 13.11Z" fill="url(#paint4_linear)"/>
<path fill-rule="evenodd" clip-rule="evenodd" d="M138.47 10.7301C138.467 10.9246 138.388 11.1103 138.25 11.2469C138.111 11.3835 137.925 11.4601 137.73 11.4601C137.536 11.4601 137.351 11.3832 137.214 11.2463C137.077 11.1094 137 10.9237 137 10.7301C137 10.5365 137.077 10.3508 137.214 10.2139C137.351 10.077 137.536 10.0001 137.73 10.0001C137.827 9.99871 137.923 10.0166 138.012 10.0527C138.102 10.0888 138.184 10.1424 138.253 10.2103C138.322 10.2782 138.376 10.3592 138.414 10.4484C138.451 10.5376 138.47 10.6334 138.47 10.7301Z" fill="url(#paint5_linear)"/>
<path fill-rule="evenodd" clip-rule="evenodd" d="M138.47 15.2602C138.47 15.3569 138.451 15.4526 138.414 15.5418C138.376 15.6311 138.322 15.712 138.253 15.7799C138.184 15.8478 138.102 15.9014 138.012 15.9375C137.923 15.9736 137.827 15.9915 137.73 15.9902C137.536 15.9902 137.351 15.9133 137.214 15.7763C137.077 15.6394 137 15.4538 137 15.2602C137 15.0666 137.077 14.8809 137.214 14.744C137.351 14.6071 137.536 14.5302 137.73 14.5302C137.925 14.5301 138.111 14.6067 138.25 14.7434C138.388 14.88 138.467 15.0656 138.47 15.2602Z" fill="url(#paint6_linear)"/>
<path fill-rule="evenodd" clip-rule="evenodd" d="M138.47 19.8001C138.467 19.9946 138.388 20.1803 138.25 20.3169C138.111 20.4535 137.925 20.5301 137.73 20.5301C137.536 20.5301 137.351 20.4532 137.214 20.3163C137.077 20.1794 137 19.9937 137 19.8001C137 19.6065 137.077 19.4208 137.214 19.2839C137.351 19.147 137.536 19.0701 137.73 19.0701C137.827 19.0688 137.923 19.0867 138.012 19.1227C138.102 19.1588 138.184 19.2124 138.253 19.2803C138.322 19.3482 138.376 19.4292 138.414 19.5184C138.451 19.6076 138.47 19.7034 138.47 19.8001Z" fill="url(#paint7_linear)"/>
<path fill-rule="evenodd" clip-rule="evenodd" d="M138.47 24.3301C138.47 24.4272 138.451 24.5235 138.414 24.6133C138.377 24.703 138.322 24.7846 138.253 24.8533C138.185 24.922 138.103 24.9766 138.013 25.0137C137.923 25.0509 137.827 25.0701 137.73 25.0701C137.535 25.0674 137.35 24.9883 137.213 24.8498C137.077 24.7113 137 24.5246 137 24.3301C137 24.1365 137.077 23.9508 137.214 23.8139C137.351 23.677 137.536 23.6001 137.73 23.6001C137.925 23.6 138.111 23.6766 138.25 23.8133C138.388 23.9499 138.467 24.1355 138.47 24.3301Z" fill="url(#paint8_linear)"/>
<path fill-rule="evenodd" clip-rule="evenodd" d="M138.47 28.8701C138.467 29.0646 138.388 29.2503 138.25 29.3869C138.111 29.5235 137.925 29.6001 137.73 29.6001C137.536 29.6001 137.351 29.5232 137.214 29.3863C137.077 29.2494 137 29.0637 137 28.8701C137 28.6765 137.077 28.4908 137.214 28.3539C137.351 28.217 137.536 28.1401 137.73 28.1401C137.925 28.1401 138.111 28.2166 138.25 28.3533C138.388 28.4899 138.467 28.6756 138.47 28.8701Z" fill="url(#paint9_linear)"/>
<path fill-rule="evenodd" clip-rule="evenodd" d="M138.47 33.4C138.47 33.4972 138.451 33.5934 138.414 33.6832C138.377 33.7729 138.322 33.8545 138.253 33.9232C138.185 33.992 138.103 34.0465 138.013 34.0836C137.923 34.1208 137.827 34.14 137.73 34.14C137.535 34.1373 137.35 34.0582 137.213 33.9197C137.077 33.7812 137 33.5945 137 33.4C137 33.2064 137.077 33.0207 137.214 32.8838C137.351 32.7469 137.536 32.67 137.73 32.67C137.925 32.67 138.111 32.7465 138.25 32.8832C138.388 33.0198 138.467 33.2055 138.47 33.4Z" fill="url(#paint10_linear)"/>
<path fill-rule="evenodd" clip-rule="evenodd" d="M143 10.7301C143 10.9237 142.923 11.1093 142.786 11.2463C142.649 11.3832 142.464 11.4601 142.27 11.4601C142.076 11.4601 141.891 11.3832 141.754 11.2463C141.617 11.1093 141.54 10.9237 141.54 10.7301C141.54 10.5365 141.617 10.3508 141.754 10.2139C141.891 10.077 142.076 10.0001 142.27 10.0001C142.464 10.0001 142.649 10.077 142.786 10.2139C142.923 10.3508 143 10.5365 143 10.7301Z" fill="url(#paint11_linear)"/>
<path fill-rule="evenodd" clip-rule="evenodd" d="M143 15.2602C143 15.4538 142.923 15.6394 142.786 15.7763C142.649 15.9133 142.464 15.9902 142.27 15.9902C142.076 15.9902 141.891 15.9133 141.754 15.7763C141.617 15.6394 141.54 15.4538 141.54 15.2602C141.54 15.0666 141.617 14.8809 141.754 14.744C141.891 14.6071 142.076 14.5302 142.27 14.5302C142.464 14.5302 142.649 14.6071 142.786 14.744C142.923 14.8809 143 15.0666 143 15.2602Z" fill="url(#paint12_linear)"/>
<path fill-rule="evenodd" clip-rule="evenodd" d="M143 19.8001C143 19.9937 142.923 20.1794 142.786 20.3163C142.649 20.4532 142.464 20.5301 142.27 20.5301C142.076 20.5301 141.891 20.4532 141.754 20.3163C141.617 20.1794 141.54 19.9937 141.54 19.8001C141.54 19.6065 141.617 19.4208 141.754 19.2839C141.891 19.147 142.076 19.0701 142.27 19.0701C142.464 19.0701 142.649 19.147 142.786 19.2839C142.923 19.4208 143 19.6065 143 19.8001Z" fill="url(#paint13_linear)"/>
<path fill-rule="evenodd" clip-rule="evenodd" d="M143 24.3301C143 24.5246 142.923 24.7113 142.787 24.8498C142.65 24.9883 142.465 25.0674 142.27 25.0701C142.076 25.0674 141.89 24.9883 141.753 24.8498C141.617 24.7113 141.54 24.5246 141.54 24.3301C141.54 24.1365 141.617 23.9508 141.754 23.8139C141.891 23.677 142.076 23.6001 142.27 23.6001C142.464 23.6001 142.649 23.677 142.786 23.8139C142.923 23.9508 143 24.1365 143 24.3301Z" fill="url(#paint14_linear)"/>
<path fill-rule="evenodd" clip-rule="evenodd" d="M143 28.8701C143 29.0637 142.923 29.2494 142.786 29.3863C142.649 29.5232 142.464 29.6001 142.27 29.6001C142.076 29.6001 141.891 29.5232 141.754 29.3863C141.617 29.2494 141.54 29.0637 141.54 28.8701C141.54 28.6765 141.617 28.4908 141.754 28.3539C141.891 28.217 142.076 28.1401 142.27 28.1401C142.464 28.1401 142.649 28.217 142.786 28.3539C142.923 28.4908 143 28.6765 143 28.8701Z" fill="url(#paint15_linear)"/>
<path fill-rule="evenodd" clip-rule="evenodd" d="M143 33.4C143 33.5945 142.923 33.7812 142.787 33.9197C142.65 34.0582 142.465 34.1373 142.27 34.14C142.076 34.1373 141.89 34.0582 141.753 33.9197C141.617 33.7812 141.54 33.5945 141.54 33.4C141.54 33.2064 141.617 33.0207 141.754 32.8838C141.891 32.7469 142.076 32.67 142.27 32.67C142.464 32.67 142.649 32.7469 142.786 32.8838C142.923 33.0207 143 33.2064 143 33.4Z" fill="url(#paint16_linear)"/>
<path fill-rule="evenodd" clip-rule="evenodd" d="M147.54 10.7301C147.537 10.9246 147.458 11.1103 147.32 11.2469C147.181 11.3835 146.995 11.4601 146.8 11.4601C146.606 11.4601 146.421 11.3832 146.284 11.2463C146.147 11.1094 146.07 10.9237 146.07 10.7301C146.07 10.5365 146.147 10.3508 146.284 10.2139C146.421 10.077 146.606 10.0001 146.8 10.0001C146.897 9.99871 146.993 10.0166 147.083 10.0527C147.172 10.0888 147.254 10.1424 147.323 10.2103C147.392 10.2782 147.446 10.3592 147.484 10.4484C147.521 10.5376 147.54 10.6334 147.54 10.7301Z" fill="url(#paint17_linear)"/>
<path fill-rule="evenodd" clip-rule="evenodd" d="M147.54 15.2602C147.54 15.3569 147.521 15.4526 147.484 15.5418C147.446 15.6311 147.392 15.712 147.323 15.7799C147.254 15.8478 147.172 15.9014 147.083 15.9375C146.993 15.9736 146.897 15.9915 146.8 15.9902C146.606 15.9902 146.421 15.9133 146.284 15.7763C146.147 15.6394 146.07 15.4538 146.07 15.2602C146.08 15.0718 146.163 14.8948 146.301 14.7662C146.439 14.6375 146.621 14.5673 146.81 14.5702C147.005 14.5701 147.191 14.6467 147.33 14.7834C147.468 14.92 147.547 15.1056 147.55 15.3002L147.54 15.2602Z" fill="url(#paint18_linear)"/>
<path fill-rule="evenodd" clip-rule="evenodd" d="M147.54 19.8001C147.544 19.8989 147.528 19.9975 147.493 20.0901C147.459 20.1828 147.406 20.2675 147.338 20.3392C147.27 20.411 147.188 20.4684 147.097 20.5081C147.007 20.5477 146.909 20.5688 146.81 20.5701C146.714 20.5701 146.619 20.5512 146.531 20.5145C146.442 20.4778 146.362 20.424 146.294 20.3562C146.226 20.2885 146.172 20.208 146.136 20.1194C146.099 20.0308 146.08 19.9359 146.08 19.8401C146.08 19.7442 146.099 19.6493 146.136 19.5607C146.172 19.4721 146.226 19.3917 146.294 19.3239C146.362 19.2561 146.442 19.2023 146.531 19.1656C146.619 19.1289 146.714 19.1101 146.81 19.1101C146.907 19.1087 147.003 19.1266 147.092 19.1627C147.182 19.1988 147.264 19.2524 147.333 19.3203C147.402 19.3882 147.456 19.4691 147.494 19.5584C147.531 19.6476 147.55 19.7433 147.55 19.8401L147.54 19.8001Z" fill="url(#paint19_linear)"/>
<path fill-rule="evenodd" clip-rule="evenodd" d="M147.54 24.3301C147.54 24.5263 147.462 24.7147 147.323 24.8534C147.184 24.9922 146.996 25.0702 146.8 25.0702C146.605 25.0676 146.42 24.9884 146.283 24.8499C146.147 24.7114 146.07 24.5246 146.07 24.3301C146.066 24.2309 146.082 24.132 146.118 24.0392C146.153 23.9465 146.207 23.862 146.276 23.7908C146.346 23.7197 146.429 23.6634 146.52 23.6255C146.612 23.5876 146.711 23.5687 146.81 23.5702C147.004 23.5702 147.191 23.6468 147.33 23.7834C147.468 23.92 147.547 24.1057 147.55 24.3002L147.54 24.3301Z" fill="url(#paint20_linear)"/>
<path fill-rule="evenodd" clip-rule="evenodd" d="M147.54 28.8701C147.53 29.0576 147.449 29.2343 147.313 29.3643C147.178 29.4942 146.998 29.5678 146.81 29.5701C146.714 29.5701 146.619 29.5512 146.531 29.5145C146.442 29.4778 146.362 29.424 146.294 29.3563C146.226 29.2885 146.172 29.208 146.136 29.1194C146.099 29.0309 146.08 28.9359 146.08 28.8401C146.08 28.7442 146.099 28.6493 146.136 28.5607C146.172 28.4722 146.226 28.3917 146.294 28.3239C146.362 28.2561 146.442 28.2023 146.531 28.1656C146.619 28.129 146.714 28.1101 146.81 28.1101C147.005 28.1101 147.191 28.1866 147.33 28.3233C147.468 28.4599 147.547 28.6456 147.55 28.8401L147.54 28.8701Z" fill="url(#paint21_linear)"/>
<path fill-rule="evenodd" clip-rule="evenodd" d="M147.54 33.4C147.54 33.5962 147.462 33.7845 147.323 33.9232C147.185 34.062 146.996 34.14 146.8 34.14C146.606 34.1373 146.42 34.0582 146.283 33.9197C146.147 33.7812 146.07 33.5945 146.07 33.4C146.07 33.2064 146.147 33.0207 146.284 32.8838C146.421 32.7469 146.606 32.67 146.8 32.67C146.995 32.67 147.181 32.7465 147.32 32.8832C147.458 33.0198 147.537 33.2055 147.54 33.4Z" fill="url(#paint22_linear)"/>
<path fill-rule="evenodd" clip-rule="evenodd" d="M152.07 10.7301C152.07 10.9237 151.993 11.1093 151.856 11.2463C151.719 11.3832 151.534 11.4601 151.34 11.4601C151.146 11.4601 150.961 11.3832 150.824 11.2463C150.687 11.1093 150.61 10.9237 150.61 10.7301C150.61 10.5365 150.687 10.3508 150.824 10.2139C150.961 10.077 151.146 10.0001 151.34 10.0001C151.534 10.0001 151.719 10.077 151.856 10.2139C151.993 10.3508 152.07 10.5365 152.07 10.7301Z" fill="url(#paint23_linear)"/>
<path fill-rule="evenodd" clip-rule="evenodd" d="M152.07 15.2602C152.07 15.4538 151.993 15.6394 151.856 15.7763C151.719 15.9133 151.534 15.9902 151.34 15.9902C151.146 15.9902 150.961 15.9133 150.824 15.7763C150.687 15.6394 150.61 15.4538 150.61 15.2602C150.61 15.0666 150.687 14.8809 150.824 14.744C150.961 14.6071 151.146 14.5302 151.34 14.5302C151.534 14.5302 151.719 14.6071 151.856 14.744C151.993 14.8809 152.07 15.0666 152.07 15.2602Z" fill="url(#paint24_linear)"/>
<path fill-rule="evenodd" clip-rule="evenodd" d="M152.07 19.8001C152.07 19.9937 151.993 20.1794 151.856 20.3163C151.719 20.4532 151.534 20.5301 151.34 20.5301C151.146 20.5301 150.961 20.4532 150.824 20.3163C150.687 20.1794 150.61 19.9937 150.61 19.8001C150.61 19.6065 150.687 19.4208 150.824 19.2839C150.961 19.147 151.146 19.0701 151.34 19.0701C151.534 19.0701 151.719 19.147 151.856 19.2839C151.993 19.4208 152.07 19.6065 152.07 19.8001Z" fill="url(#paint25_linear)"/>
<path fill-rule="evenodd" clip-rule="evenodd" d="M152.07 24.3301C152.07 24.5246 151.993 24.7113 151.857 24.8498C151.72 24.9883 151.535 25.0674 151.34 25.0701C151.146 25.0674 150.96 24.9883 150.823 24.8498C150.687 24.7113 150.61 24.5246 150.61 24.3301C150.61 24.1365 150.687 23.9508 150.824 23.8139C150.961 23.677 151.146 23.6001 151.34 23.6001C151.534 23.6001 151.719 23.677 151.856 23.8139C151.993 23.9508 152.07 24.1365 152.07 24.3301Z" fill="url(#paint26_linear)"/>
<path fill-rule="evenodd" clip-rule="evenodd" d="M152.07 28.8701C152.07 29.0637 151.993 29.2494 151.856 29.3863C151.719 29.5232 151.534 29.6001 151.34 29.6001C151.146 29.6001 150.961 29.5232 150.824 29.3863C150.687 29.2494 150.61 29.0637 150.61 28.8701C150.61 28.6765 150.687 28.4908 150.824 28.3539C150.961 28.217 151.146 28.1401 151.34 28.1401C151.534 28.1401 151.719 28.217 151.856 28.3539C151.993 28.4908 152.07 28.6765 152.07 28.8701Z" fill="url(#paint27_linear)"/>
<path fill-rule="evenodd" clip-rule="evenodd" d="M152.07 33.4C152.07 33.5945 151.993 33.7812 151.857 33.9197C151.72 34.0582 151.535 34.1373 151.34 34.14C151.146 34.1373 150.96 34.0582 150.823 33.9197C150.687 33.7812 150.61 33.5945 150.61 33.4C150.61 33.2064 150.687 33.0207 150.824 32.8838C150.961 32.7469 151.146 32.67 151.34 32.67C151.534 32.67 151.719 32.7469 151.856 32.8838C151.993 33.0207 152.07 33.2064 152.07 33.4Z" fill="url(#paint28_linear)"/>
<path d="M44.11 57.22C43.8174 57.22 43.5365 57.1044 43.3286 56.8984C43.1208 56.6924 43.0026 56.4126 43 56.12V55.12C43.0026 54.8273 43.1208 54.5476 43.3286 54.3416C43.5365 54.1356 43.8174 54.02 44.11 54.02C44.4027 54.02 44.6835 54.1356 44.8914 54.3416C45.0993 54.5476 45.2174 54.8273 45.22 55.12V56.12C45.2174 56.4126 45.0993 56.6924 44.8914 56.8984C44.6835 57.1044 44.4027 57.22 44.11 57.22Z" fill="url(#paint29_linear)" fill-opacity="0.5"/>
<path d="M44.11 50.23C43.8174 50.23 43.5365 50.1145 43.3286 49.9084C43.1208 49.7024 43.0026 49.4227 43 49.13V48.13C43 47.8356 43.1169 47.5533 43.3251 47.3451C43.5333 47.137 43.8156 47.02 44.11 47.02C44.4044 47.02 44.6867 47.137 44.8949 47.3451C45.1031 47.5533 45.22 47.8356 45.22 48.13V49.13C45.2174 49.4227 45.0993 49.7024 44.8914 49.9084C44.6835 50.1145 44.4027 50.23 44.11 50.23Z" fill="url(#paint30_linear)" fill-opacity="0.5"/>
<path d="M48.11 53.22H47.11C46.8174 53.2174 46.5376 53.0993 46.3316 52.8914C46.1256 52.6835 46.01 52.4027 46.01 52.11C46.01 51.8174 46.1256 51.5365 46.3316 51.3286C46.5376 51.1208 46.8174 51.0026 47.11 51H48.11C48.4044 51 48.6867 51.117 48.8949 51.3251C49.1031 51.5333 49.22 51.8156 49.22 52.11C49.22 52.4044 49.1031 52.6867 48.8949 52.8949C48.6867 53.1031 48.4044 53.22 48.11 53.22Z" fill="url(#paint31_linear)" fill-opacity="0.5"/>
<path d="M41.13 53.22H40.13C39.8356 53.22 39.5533 53.1031 39.3451 52.8949C39.137 52.6867 39.02 52.4044 39.02 52.11C39.02 51.8156 39.137 51.5333 39.3451 51.3251C39.5533 51.117 39.8356 51 40.13 51H41.13C41.4227 51.0026 41.7024 51.1208 41.9084 51.3286C42.1145 51.5365 42.23 51.8174 42.23 52.11C42.23 52.4027 42.1145 52.6835 41.9084 52.8914C41.7024 53.0993 41.4227 53.2174 41.13 53.22Z" fill="url(#paint32_linear)" fill-opacity="0.5"/>
<path d="M137.031 45.007H120C122.28 45.0629 124.446 45.983 126.037 47.5706C127.629 49.1582 128.518 51.2876 128.515 53.5039C128.516 54.623 128.744 55.7309 129.186 56.7642C129.628 57.7976 130.276 58.736 131.091 59.5258C131.907 60.3157 132.875 60.9414 133.94 61.3672C135.004 61.7929 136.145 62.0104 137.297 62.0071C139.615 62.0037 141.837 61.1064 143.475 59.5121C145.112 57.9178 146.032 55.7569 146.032 53.5039C146.032 51.2515 145.112 49.0912 143.474 47.4979C141.836 45.9047 139.614 45.0087 137.297 45.007H137.063" fill="url(#paint33_linear)"/>
<path d="M22.6621 31.4787C22.9067 31.4759 23.1426 31.5697 23.3184 31.7398C23.4943 31.9098 23.5959 32.1424 23.6013 32.387V34.4515C23.6013 34.7006 23.5024 34.9395 23.3262 35.1157C23.1501 35.2918 22.9112 35.3908 22.6621 35.3908H14.0946C13.9712 35.3908 13.849 35.3665 13.7351 35.3193C13.6211 35.2721 13.5176 35.2029 13.4304 35.1157C13.3432 35.0284 13.274 34.9249 13.2268 34.8109C13.1796 34.697 13.1552 34.5748 13.1552 34.4515V33.058C13.1616 32.7529 13.2834 32.4615 13.4959 32.2425C14.5281 31.2825 15.9938 29.8271 17.2634 28.4955C18.5331 27.1639 19.266 26.3072 19.266 25.6776C19.2747 25.513 19.249 25.3484 19.1907 25.1943C19.1323 25.0402 19.0425 24.9 18.9269 24.7825C18.8114 24.665 18.6727 24.5729 18.5196 24.5119C18.3665 24.451 18.2023 24.4226 18.0376 24.4285C17.7503 24.4128 17.4661 24.4951 17.2317 24.662C16.9973 24.8289 16.8264 25.0706 16.7473 25.3472C16.7108 25.4841 16.6226 25.6014 16.5014 25.6746C16.3801 25.7477 16.2351 25.771 16.097 25.7395L13.5785 25.1408C13.4798 25.1207 13.3865 25.0803 13.3044 25.022C13.2223 24.9637 13.1533 24.889 13.1018 24.8025C13.0503 24.716 13.0174 24.6196 13.0053 24.5197C12.9931 24.4198 13.002 24.3184 13.0313 24.2221C13.7849 21.559 16.0558 20.5371 18.3886 20.5371C21.6402 20.5371 23.4774 22.6015 23.4774 25.1614C23.4774 27.1227 22.2078 28.4955 19.266 31.4787H22.6621Z" fill="black"/>
<path d="M37.7532 28.1033C37.7532 32.2322 35.7506 35.6591 31.374 35.6591C26.9974 35.6591 24.9742 32.2219 24.9742 28.1033C24.9742 23.9847 27.0386 20.5577 31.374 20.5577C35.7093 20.5577 37.7532 23.9744 37.7532 28.1033ZM33.6243 28.1033C33.6243 26.2659 33.0255 24.5318 31.374 24.5318C29.7224 24.5318 29.1031 26.2659 29.1031 28.1033C29.1031 29.9406 29.7327 31.6644 31.374 31.6644C33.0152 31.6644 33.6243 29.9303 33.6243 28.1033Z" fill="black"/>
<path d="M43.3375 20.8054H45.4639C45.5846 20.8054 45.704 20.8291 45.8155 20.8753C45.9269 20.9215 46.0282 20.9892 46.1135 21.0745C46.1988 21.1598 46.2665 21.261 46.3127 21.3725C46.3588 21.484 46.3826 21.6034 46.3826 21.724V34.4514C46.384 34.5734 46.3613 34.6944 46.3158 34.8077C46.2704 34.9209 46.2031 35.0241 46.1177 35.1113C46.0324 35.1985 45.9308 35.2681 45.8186 35.316C45.7064 35.364 45.5859 35.3894 45.4639 35.3907H42.9969C42.7478 35.3907 42.5089 35.2917 42.3327 35.1156C42.1566 34.9394 42.0575 34.7005 42.0575 34.4514V25.4504L40.664 26.3897C40.5824 26.446 40.4902 26.4849 40.3929 26.5039C40.2956 26.523 40.1954 26.5219 40.0985 26.5006C40.0017 26.4793 39.9103 26.4383 39.83 26.3801C39.7497 26.322 39.6823 26.248 39.6318 26.1626L38.5996 24.573C38.5462 24.4905 38.5097 24.3982 38.4922 24.3015C38.4747 24.2047 38.4765 24.1055 38.4977 24.0095C38.5188 23.9135 38.5587 23.8226 38.6152 23.7422C38.6717 23.6617 38.7435 23.5933 38.8267 23.5408L42.6666 20.9602C42.8678 20.8377 43.103 20.7834 43.3375 20.8054Z" fill="black"/>
<path d="M67.0993 26.204C67.0993 29.6619 64.7872 31.2412 61.1228 31.2412H59.5124V34.4514C59.5124 34.7006 59.4135 34.9395 59.2374 35.1156C59.0612 35.2918 58.8222 35.3908 58.5731 35.3908H56.1164C55.9944 35.3894 55.8739 35.364 55.7617 35.3161C55.6495 35.2682 55.5479 35.1986 55.4625 35.1114C55.3772 35.0242 55.3099 34.921 55.2645 34.8077C55.219 34.6945 55.1963 34.5734 55.1977 34.4514V21.7241C55.1977 21.4805 55.2945 21.2468 55.4668 21.0745C55.6391 20.9022 55.8727 20.8055 56.1164 20.8055H61.1743C65.1484 20.8055 67.0993 22.9525 67.0993 26.204ZM62.7433 26.204C62.7529 25.9949 62.7164 25.7863 62.6362 25.593C62.556 25.3997 62.4342 25.2264 62.2795 25.0855C62.1248 24.9446 61.9409 24.8395 61.7409 24.7777C61.541 24.7159 61.33 24.6989 61.1228 24.7279H59.5124V27.7007H61.1743C61.379 27.7202 61.5856 27.6954 61.7799 27.6281C61.9742 27.5608 62.1517 27.4525 62.3005 27.3105C62.4493 27.1686 62.5658 26.9963 62.6422 26.8054C62.7186 26.6145 62.7531 26.4094 62.7433 26.204Z" fill="black"/>
<path d="M83.2535 28.1033C83.2454 29.5862 82.798 31.0333 81.9681 32.2622C81.1381 33.491 79.9627 34.4464 78.5901 35.0078C77.2176 35.5691 75.7096 35.7112 74.2564 35.4162C72.8031 35.1212 71.4698 34.4022 70.4248 33.3501C69.3799 32.2979 68.6701 30.9598 68.3851 29.5046C68.1 28.0493 68.2525 26.5422 68.8232 25.1736C69.394 23.805 70.3575 22.6361 71.592 21.8146C72.8265 20.9931 74.2767 20.5557 75.7596 20.5577C76.7555 20.5304 77.7465 20.7072 78.6715 21.0774C79.5965 21.4476 80.436 22.0033 81.1381 22.7102C81.8401 23.4171 82.39 24.2603 82.7538 25.1878C83.1176 26.1153 83.2877 27.1076 83.2535 28.1033ZM78.9491 28.1033C78.9129 27.4817 78.6954 26.8842 78.3236 26.3847C77.9519 25.8852 77.442 25.5054 76.857 25.2922C76.2719 25.0791 75.6372 25.0418 75.0312 25.1851C74.4252 25.3283 73.8745 25.6458 73.4468 26.0984C73.0191 26.551 72.7332 27.1189 72.6245 27.732C72.5157 28.3451 72.5889 28.9767 72.8348 29.5487C73.0807 30.1208 73.4886 30.6084 74.0084 30.9514C74.5281 31.2943 75.1369 31.4776 75.7596 31.4787C76.1985 31.4936 76.6357 31.4151 77.0419 31.2482C77.4482 31.0813 77.8143 30.8299 78.116 30.5106C78.4176 30.1914 78.648 29.8117 78.7916 29.3966C78.9353 28.9815 78.9889 28.5407 78.9491 28.1033Z" fill="black"/>
<path d="M99.5213 28.1033C99.5132 29.5857 99.0661 31.0325 98.2366 32.2611C97.4071 33.4897 96.2322 34.4451 94.8603 35.0068C93.4884 35.5684 91.9809 35.7112 90.5279 35.417C89.075 35.1228 87.7416 34.4048 86.6963 33.3537C85.6509 32.3026 84.9404 30.9654 84.6541 29.5109C84.3679 28.0563 84.5189 26.5496 85.0881 25.1808C85.6573 23.812 86.6191 22.6424 87.8522 21.8196C89.0854 20.9968 90.5346 20.5577 92.017 20.5577C93.0135 20.5304 94.005 20.7073 94.9305 21.0773C95.856 21.4474 96.696 22.0029 97.3989 22.7097C98.1018 23.4164 98.6527 24.2595 99.0177 25.1871C99.3827 26.1146 99.5541 27.107 99.5213 28.1033ZM95.2066 28.1033C95.1703 27.4816 94.9529 26.8842 94.5811 26.3847C94.2093 25.8852 93.6995 25.5054 93.1144 25.2922C92.5293 25.0791 91.8946 25.0418 91.2886 25.1851C90.6826 25.3283 90.1319 25.6458 89.7042 26.0984C89.2766 26.551 88.9907 27.1189 88.8819 27.732C88.7732 28.3451 88.8463 28.9767 89.0922 29.5487C89.3382 30.1208 89.7461 30.6084 90.2658 30.9513C90.7856 31.2943 91.3944 31.4776 92.017 31.4786C92.456 31.4936 92.8931 31.415 93.2994 31.2481C93.7057 31.0812 94.0718 30.8298 94.3734 30.5106C94.6751 30.1914 94.9054 29.8116 95.0491 29.3966C95.1927 28.9815 95.2464 28.5407 95.2066 28.1033Z" fill="black"/>
<path d="M110.091 31.4785C110.332 31.4812 110.561 31.5778 110.731 31.7476C110.901 31.9173 110.997 32.1469 111 32.387V34.4514C111.003 34.5729 110.981 34.6937 110.937 34.8069C110.893 34.92 110.826 35.0234 110.742 35.1108C110.657 35.1981 110.556 35.2678 110.445 35.3158C110.333 35.3639 110.213 35.3893 110.091 35.3907H102.185C102.062 35.3907 101.94 35.3663 101.827 35.319C101.713 35.2716 101.61 35.2024 101.524 35.115C101.438 35.0276 101.369 34.924 101.323 34.8101C101.277 34.6961 101.254 34.5743 101.256 34.4514V21.724C101.256 21.6025 101.28 21.4822 101.326 21.3701C101.373 21.2579 101.442 21.1563 101.528 21.0708C101.615 20.9854 101.717 20.9179 101.83 20.8724C101.943 20.8268 102.063 20.8041 102.185 20.8054H104.652C104.894 20.8081 105.127 20.9057 105.298 21.0774C105.47 21.2491 105.568 21.4812 105.57 21.724V31.4785H110.091Z" fill="black"/>
</g>
<defs>
<linearGradient id="paint0_linear" x1="75.9999" y1="0" x2="75.9999" y2="64" gradientUnits="userSpaceOnUse">
<stop stop-color="#F9B233"/>
<stop offset="1" stop-color="#D97213"/>
</linearGradient>
<linearGradient id="paint1_linear" x1="13.99" y1="2" x2="66.89" y2="2" gradientUnits="userSpaceOnUse">
<stop stop-color="#F8AE31"/>
<stop offset="0.04" stop-color="#FAB622"/>
<stop offset="0.12" stop-color="#FBBF0F"/>
<stop offset="0.2" stop-color="#FDC504"/>
<stop offset="0.28" stop-color="#FDC700"/>
<stop offset="0.67" stop-color="#F8AE31"/>
<stop offset="0.89" stop-color="#FCC600"/>
<stop offset="1" stop-color="#F8AE31"/>
</linearGradient>
<linearGradient id="paint2_linear" x1="-37172.2" y1="-309.026" x2="-34373.8" y2="-309.026" gradientUnits="userSpaceOnUse">
<stop stop-color="#F8AE31"/>
<stop offset="0.04" stop-color="#FAB622"/>
<stop offset="0.12" stop-color="#FBBF0F"/>
<stop offset="0.2" stop-color="#FDC504"/>
<stop offset="0.28" stop-color="#FDC700"/>
<stop offset="0.67" stop-color="#F8AE31"/>
<stop offset="0.89" stop-color="#FCC600"/>
<stop offset="1" stop-color="#F8AE31"/>
</linearGradient>
<linearGradient id="paint3_linear" x1="-36797.1" y1="-289.515" x2="-33999.2" y2="-289.515" gradientUnits="userSpaceOnUse">
<stop stop-color="#F8AE31"/>
<stop offset="0.04" stop-color="#FAB622"/>
<stop offset="0.12" stop-color="#FBBF0F"/>
<stop offset="0.2" stop-color="#FDC504"/>
<stop offset="0.28" stop-color="#FDC700"/>
<stop offset="0.67" stop-color="#F8AE31"/>
<stop offset="0.89" stop-color="#FCC600"/>
<stop offset="1" stop-color="#F8AE31"/>
</linearGradient>
<linearGradient id="paint4_linear" x1="-35526.9" y1="-203.391" x2="-32865.4" y2="-203.391" gradientUnits="userSpaceOnUse">
<stop stop-color="#F8AE31"/>
<stop offset="0.04" stop-color="#FAB622"/>
<stop offset="0.12" stop-color="#FBBF0F"/>
<stop offset="0.2" stop-color="#FDC504"/>
<stop offset="0.28" stop-color="#FDC700"/>
<stop offset="0.67" stop-color="#F8AE31"/>
<stop offset="0.89" stop-color="#FCC600"/>
<stop offset="1" stop-color="#F8AE31"/>
</linearGradient>
<linearGradient id="paint5_linear" x1="137" y1="10.7301" x2="138.47" y2="10.7301" gradientUnits="userSpaceOnUse">
<stop stop-color="#F9B233"/>
<stop offset="1" stop-color="#D97213"/>
</linearGradient>
<linearGradient id="paint6_linear" x1="-713.835" y1="-70.6065" x2="-711.674" y2="-70.6065" gradientUnits="userSpaceOnUse">
<stop stop-color="#F9B233"/>
<stop offset="1" stop-color="#D97213"/>
</linearGradient>
<linearGradient id="paint7_linear" x1="-713.835" y1="-59.4377" x2="-711.674" y2="-59.4377" gradientUnits="userSpaceOnUse">
<stop stop-color="#F9B233"/>
<stop offset="1" stop-color="#D97213"/>
</linearGradient>
<linearGradient id="paint8_linear" x1="-713.835" y1="-48.7829" x2="-711.674" y2="-48.7829" gradientUnits="userSpaceOnUse">
<stop stop-color="#F9B233"/>
<stop offset="1" stop-color="#D97213"/>
</linearGradient>
<linearGradient id="paint9_linear" x1="-713.835" y1="-37.1218" x2="-711.674" y2="-37.1218" gradientUnits="userSpaceOnUse">
<stop stop-color="#F9B233"/>
<stop offset="1" stop-color="#D97213"/>
</linearGradient>
<linearGradient id="paint10_linear" x1="-713.835" y1="-26.3799" x2="-711.674" y2="-26.3799" gradientUnits="userSpaceOnUse">
<stop stop-color="#F9B233"/>
<stop offset="1" stop-color="#D97213"/>
</linearGradient>
<linearGradient id="paint11_linear" x1="-696.911" y1="-81.7463" x2="-694.779" y2="-81.7463" gradientUnits="userSpaceOnUse">
<stop stop-color="#F9B233"/>
<stop offset="1" stop-color="#D97213"/>
</linearGradient>
<linearGradient id="paint12_linear" x1="-696.911" y1="-70.6024" x2="-694.779" y2="-70.6024" gradientUnits="userSpaceOnUse">
<stop stop-color="#F9B233"/>
<stop offset="1" stop-color="#D97213"/>
</linearGradient>
<linearGradient id="paint13_linear" x1="-696.911" y1="-59.4341" x2="-694.779" y2="-59.4341" gradientUnits="userSpaceOnUse">
<stop stop-color="#F9B233"/>
<stop offset="1" stop-color="#D97213"/>
</linearGradient>
<linearGradient id="paint14_linear" x1="-696.911" y1="-48.7829" x2="-694.779" y2="-48.7829" gradientUnits="userSpaceOnUse">
<stop stop-color="#F9B233"/>
<stop offset="1" stop-color="#D97213"/>
</linearGradient>
<linearGradient id="paint15_linear" x1="-696.911" y1="-37.1218" x2="-694.779" y2="-37.1218" gradientUnits="userSpaceOnUse">
<stop stop-color="#F9B233"/>
<stop offset="1" stop-color="#D97213"/>
</linearGradient>
<linearGradient id="paint16_linear" x1="-696.911" y1="-26.3799" x2="-694.779" y2="-26.3799" gradientUnits="userSpaceOnUse">
<stop stop-color="#F9B233"/>
<stop offset="1" stop-color="#D97213"/>
</linearGradient>
<linearGradient id="paint17_linear" x1="-691.423" y1="-81.7506" x2="-689.262" y2="-81.7506" gradientUnits="userSpaceOnUse">
<stop stop-color="#F9B233"/>
<stop offset="1" stop-color="#D97213"/>
</linearGradient>
<linearGradient id="paint18_linear" x1="-697.132" y1="-68.239" x2="-694.956" y2="-68.239" gradientUnits="userSpaceOnUse">
<stop stop-color="#F9B233"/>
<stop offset="1" stop-color="#D97213"/>
</linearGradient>
<linearGradient id="paint19_linear" x1="-691.422" y1="-59.398" x2="-689.261" y2="-59.398" gradientUnits="userSpaceOnUse">
<stop stop-color="#F9B233"/>
<stop offset="1" stop-color="#D97213"/>
</linearGradient>
<linearGradient id="paint20_linear" x1="-697.486" y1="-50.2938" x2="-695.31" y2="-50.2938" gradientUnits="userSpaceOnUse">
<stop stop-color="#F9B233"/>
<stop offset="1" stop-color="#D97213"/>
</linearGradient>
<linearGradient id="paint21_linear" x1="-691.422" y1="-37.1519" x2="-689.261" y2="-37.1519" gradientUnits="userSpaceOnUse">
<stop stop-color="#F9B233"/>
<stop offset="1" stop-color="#D97213"/>
</linearGradient>
<linearGradient id="paint22_linear" x1="-691.423" y1="-26.3799" x2="-689.262" y2="-26.3799" gradientUnits="userSpaceOnUse">
<stop stop-color="#F9B233"/>
<stop offset="1" stop-color="#D97213"/>
</linearGradient>
<linearGradient id="paint23_linear" x1="-674.598" y1="-81.7463" x2="-672.467" y2="-81.7463" gradientUnits="userSpaceOnUse">
<stop stop-color="#F9B233"/>
<stop offset="1" stop-color="#D97213"/>
</linearGradient>
<linearGradient id="paint24_linear" x1="-674.598" y1="-70.6025" x2="-672.467" y2="-70.6025" gradientUnits="userSpaceOnUse">
<stop stop-color="#F9B233"/>
<stop offset="1" stop-color="#D97213"/>
</linearGradient>
<linearGradient id="paint25_linear" x1="-674.598" y1="-59.4341" x2="-672.467" y2="-59.4341" gradientUnits="userSpaceOnUse">
<stop stop-color="#F9B233"/>
<stop offset="1" stop-color="#D97213"/>
</linearGradient>
<linearGradient id="paint26_linear" x1="-674.598" y1="-48.7829" x2="-672.467" y2="-48.7829" gradientUnits="userSpaceOnUse">
<stop stop-color="#F9B233"/>
<stop offset="1" stop-color="#D97213"/>
</linearGradient>
<linearGradient id="paint27_linear" x1="-674.598" y1="-37.1218" x2="-672.467" y2="-37.1218" gradientUnits="userSpaceOnUse">
<stop stop-color="#F9B233"/>
<stop offset="1" stop-color="#D97213"/>
</linearGradient>
<linearGradient id="paint28_linear" x1="-674.598" y1="-26.3798" x2="-672.467" y2="-26.3798" gradientUnits="userSpaceOnUse">
<stop stop-color="#F9B233"/>
<stop offset="1" stop-color="#D97213"/>
</linearGradient>
<linearGradient id="paint29_linear" x1="44.11" y1="54.02" x2="44.11" y2="57.22" gradientUnits="userSpaceOnUse">
<stop stop-color="#F4A82E"/>
<stop offset="1" stop-color="#FF8C1A"/>
</linearGradient>
<linearGradient id="paint30_linear" x1="44.11" y1="47.02" x2="44.11" y2="50.23" gradientUnits="userSpaceOnUse">
<stop stop-color="#F4A82E"/>
<stop offset="1" stop-color="#FF8C1A"/>
</linearGradient>
<linearGradient id="paint31_linear" x1="47.615" y1="51" x2="47.615" y2="53.22" gradientUnits="userSpaceOnUse">
<stop stop-color="#F4A82E"/>
<stop offset="1" stop-color="#FF8C1A"/>
</linearGradient>
<linearGradient id="paint32_linear" x1="40.625" y1="51" x2="40.625" y2="53.22" gradientUnits="userSpaceOnUse">
<stop stop-color="#F4A82E"/>
<stop offset="1" stop-color="#FF8C1A"/>
</linearGradient>
<linearGradient id="paint33_linear" x1="133.016" y1="45.007" x2="133.016" y2="62.0071" gradientUnits="userSpaceOnUse">
<stop stop-color="#F4A92E"/>
<stop offset="1" stop-color="#DB7615"/>
</linearGradient>
<clipPath id="clip0">
<rect width="152" height="64" fill="white"/>
</clipPath>
</defs>
</svg>
