<svg width="152" height="64" viewBox="0 0 152 64" fill="none" xmlns="http://www.w3.org/2000/svg">
<g clip-path="url(#clip0)">
<path d="M146.373 2.28398e-05H12C5.37258 2.28398e-05 0 5.37261 0 12V52C0 58.6274 5.37258 64 12 64H140C146.627 64 152 58.6274 152 52V12C152 -1.49994 153 2.28398e-05 146.373 2.28398e-05Z" fill="url(#paint0_linear)"/>
<path d="M20.99 28.38C21.08 28.71 21.15 29.04 21.22 29.38C21.1604 29.3903 21.0996 29.3903 21.04 29.38C20.9709 29.3813 20.9022 29.3689 20.8379 29.3433C20.7737 29.3178 20.7152 29.2797 20.6658 29.2313C20.6165 29.1829 20.5773 29.1251 20.5505 29.0613C20.5238 28.9976 20.51 28.9291 20.51 28.86C20.5121 28.7305 20.5625 28.6064 20.6513 28.5121C20.7401 28.4178 20.8609 28.36 20.99 28.35V28.38Z" fill="url(#paint1_linear)"/>
<path d="M21.04 31.54C21.1078 31.5387 21.1752 31.5509 21.2383 31.5759C21.3013 31.6009 21.3587 31.6383 21.4071 31.6858C21.4555 31.7333 21.494 31.7899 21.5203 31.8525C21.5465 31.915 21.56 31.9822 21.56 32.05C21.56 32.1879 21.5052 32.3202 21.4077 32.4177C21.3102 32.5152 21.1779 32.57 21.04 32.57C20.9709 32.5713 20.9022 32.5588 20.8379 32.5333C20.7737 32.5078 20.7152 32.4697 20.6658 32.4213C20.6165 32.3728 20.5773 32.3151 20.5505 32.2513C20.5238 32.1876 20.51 32.1191 20.51 32.05C20.5113 31.9817 20.5261 31.9143 20.5534 31.8517C20.5807 31.7891 20.6201 31.7326 20.6694 31.6852C20.7186 31.6378 20.7766 31.6006 20.8402 31.5757C20.9038 31.5508 20.9717 31.5387 21.04 31.54Z" fill="url(#paint2_linear)"/>
<path d="M21.04 34.73C21.1078 34.7287 21.1752 34.7409 21.2383 34.7659C21.3013 34.7909 21.3587 34.8283 21.4071 34.8758C21.4555 34.9233 21.494 34.9799 21.5203 35.0425C21.5465 35.105 21.56 35.1722 21.56 35.24C21.56 35.3779 21.5052 35.5102 21.4077 35.6077C21.3102 35.7052 21.1779 35.76 21.04 35.76C20.9709 35.7613 20.9022 35.7489 20.8379 35.7233C20.7737 35.6978 20.7152 35.6597 20.6658 35.6113C20.6165 35.5628 20.5773 35.5051 20.5505 35.4413C20.5238 35.3776 20.51 35.3091 20.51 35.24C20.5113 35.1717 20.5261 35.1043 20.5534 35.0417C20.5807 34.9791 20.6201 34.9226 20.6694 34.8752C20.7186 34.8278 20.7766 34.7906 20.8402 34.7657C20.9038 34.7408 20.9717 34.7287 21.04 34.73Z" fill="url(#paint3_linear)"/>
<path d="M21.04 37.92C21.0996 37.9105 21.1604 37.9105 21.22 37.92C21.15 38.26 21.08 38.59 20.99 38.92C20.86 38.9123 20.7379 38.8552 20.6486 38.7604C20.5594 38.6656 20.5098 38.5402 20.51 38.41C20.5113 38.3417 20.5261 38.2743 20.5534 38.2117C20.5807 38.1492 20.6201 38.0926 20.6694 38.0452C20.7186 37.9978 20.7766 37.9606 20.8402 37.9357C20.9038 37.9108 20.9717 37.8987 21.04 37.9V37.92Z" fill="url(#paint4_linear)"/>
<path d="M17.77 21.9699C17.8383 21.9686 17.9062 21.9807 17.9698 22.0056C18.0334 22.0306 18.0914 22.0678 18.1406 22.1151C18.1899 22.1625 18.2293 22.2191 18.2566 22.2817C18.284 22.3442 18.2987 22.4116 18.3 22.4799C18.3 22.549 18.2862 22.6175 18.2595 22.6812C18.2327 22.745 18.1935 22.8028 18.1442 22.8512C18.0948 22.8996 18.0363 22.9377 17.9721 22.9632C17.9078 22.9888 17.8391 23.0012 17.77 22.9999C17.6321 22.9999 17.4998 22.9451 17.4023 22.8476C17.3048 22.7501 17.25 22.6178 17.25 22.4799C17.25 22.4121 17.2635 22.3449 17.2897 22.2824C17.316 22.2199 17.3545 22.1632 17.4029 22.1157C17.4513 22.0682 17.5087 22.0309 17.5718 22.0058C17.6348 21.9808 17.7022 21.9686 17.77 21.9699Z" fill="url(#paint5_linear)"/>
<path d="M17.77 25.16C17.8383 25.1587 17.9062 25.1708 17.9698 25.1957C18.0334 25.2207 18.0914 25.2579 18.1406 25.3052C18.1899 25.3526 18.2293 25.4092 18.2566 25.4718C18.284 25.5344 18.2987 25.6017 18.3 25.67C18.3 25.7391 18.2862 25.8076 18.2595 25.8713C18.2327 25.9351 18.1935 25.9929 18.1442 26.0413C18.0948 26.0897 18.0363 26.1278 17.9721 26.1533C17.9078 26.1789 17.8391 26.1913 17.77 26.19C17.6321 26.19 17.4998 26.1352 17.4023 26.0377C17.3048 25.9402 17.25 25.8079 17.25 25.67C17.25 25.6022 17.2635 25.535 17.2897 25.4725C17.316 25.41 17.3545 25.3533 17.4029 25.3058C17.4513 25.2583 17.5087 25.221 17.5718 25.1959C17.6348 25.1709 17.7022 25.1587 17.77 25.16Z" fill="url(#paint6_linear)"/>
<path d="M17.77 28.38C17.8383 28.3787 17.9062 28.3908 17.9698 28.4157C18.0334 28.4406 18.0914 28.4778 18.1406 28.5252C18.1899 28.5726 18.2293 28.6292 18.2566 28.6917C18.284 28.7543 18.2987 28.8217 18.3 28.89C18.2923 29.0244 18.2327 29.1505 18.1339 29.2419C18.035 29.3333 17.9046 29.3828 17.77 29.38C17.7017 29.38 17.6341 29.3666 17.571 29.3404C17.5079 29.3143 17.4506 29.276 17.4023 29.2277C17.354 29.1794 17.3157 29.1221 17.2896 29.059C17.2634 28.9959 17.25 28.9283 17.25 28.86C17.2577 28.7283 17.3162 28.6046 17.4132 28.5151C17.5102 28.4256 17.6381 28.3772 17.77 28.38Z" fill="url(#paint7_linear)"/>
<path d="M17.77 31.54C17.8383 31.5387 17.9062 31.5508 17.9698 31.5757C18.0334 31.6006 18.0914 31.6378 18.1406 31.6852C18.1899 31.7326 18.2293 31.7891 18.2566 31.8517C18.284 31.9143 18.2987 31.9817 18.3 32.05C18.3 32.1191 18.2862 32.1876 18.2595 32.2513C18.2327 32.3151 18.1935 32.3728 18.1442 32.4213C18.0948 32.4697 18.0363 32.5078 17.9721 32.5333C17.9078 32.5588 17.8391 32.5713 17.77 32.57C17.6321 32.57 17.4998 32.5152 17.4023 32.4177C17.3048 32.3202 17.25 32.1879 17.25 32.05C17.25 31.9822 17.2635 31.915 17.2897 31.8525C17.316 31.7899 17.3545 31.7333 17.4029 31.6858C17.4513 31.6383 17.5087 31.6009 17.5718 31.5759C17.6348 31.5509 17.7022 31.5387 17.77 31.54Z" fill="url(#paint8_linear)"/>
<path d="M17.77 34.73C17.8383 34.7287 17.9062 34.7408 17.9698 34.7657C18.0334 34.7906 18.0914 34.8278 18.1406 34.8752C18.1899 34.9226 18.2293 34.9791 18.2566 35.0417C18.284 35.1043 18.2987 35.1717 18.3 35.24C18.3 35.3091 18.2862 35.3776 18.2595 35.4413C18.2327 35.5051 18.1935 35.5628 18.1442 35.6113C18.0948 35.6597 18.0363 35.6978 17.9721 35.7233C17.9078 35.7489 17.8391 35.7613 17.77 35.76C17.7017 35.76 17.6341 35.7465 17.571 35.7204C17.5079 35.6943 17.4506 35.656 17.4023 35.6077C17.354 35.5594 17.3157 35.5021 17.2896 35.439C17.2634 35.3759 17.25 35.3083 17.25 35.24C17.25 35.1722 17.2635 35.105 17.2897 35.0425C17.316 34.9799 17.3545 34.9233 17.4029 34.8758C17.4513 34.8283 17.5087 34.7909 17.5718 34.7659C17.6348 34.7409 17.7022 34.7287 17.77 34.73Z" fill="url(#paint9_linear)"/>
<path d="M17.77 37.92C17.8383 37.9187 17.9062 37.9308 17.9698 37.9557C18.0334 37.9806 18.0914 38.0178 18.1406 38.0652C18.1899 38.1126 18.2293 38.1691 18.2566 38.2317C18.284 38.2943 18.2987 38.3617 18.3 38.43C18.3 38.4991 18.2862 38.5676 18.2595 38.6313C18.2327 38.6951 18.1935 38.7528 18.1442 38.8013C18.0948 38.8497 18.0363 38.8878 17.9721 38.9133C17.9078 38.9389 17.8391 38.9513 17.77 38.95C17.6321 38.95 17.4998 38.8952 17.4023 38.7977C17.3048 38.7002 17.25 38.5679 17.25 38.43C17.25 38.3622 17.2635 38.295 17.2897 38.2325C17.316 38.1699 17.3545 38.1133 17.4029 38.0658C17.4513 38.0183 17.5087 37.9809 17.5718 37.9559C17.6348 37.9309 17.7022 37.9187 17.77 37.92Z" fill="url(#paint10_linear)"/>
<path d="M17.77 41.11C17.8383 41.1087 17.9062 41.1208 17.9698 41.1457C18.0334 41.1706 18.0914 41.2078 18.1406 41.2552C18.1899 41.3026 18.2293 41.3592 18.2566 41.4217C18.284 41.4843 18.2987 41.5517 18.3 41.62C18.3 41.6891 18.2862 41.7576 18.2595 41.8213C18.2327 41.8851 18.1935 41.9429 18.1442 41.9913C18.0948 42.0397 18.0363 42.0778 17.9721 42.1033C17.9078 42.1289 17.8391 42.1413 17.77 42.14C17.6321 42.14 17.4998 42.0852 17.4023 41.9877C17.3048 41.8902 17.25 41.7579 17.25 41.62C17.25 41.5522 17.2635 41.485 17.2897 41.4225C17.316 41.3599 17.3545 41.3033 17.4029 41.2558C17.4513 41.2083 17.5087 41.1709 17.5718 41.1459C17.6348 41.1209 17.7022 41.1087 17.77 41.11Z" fill="url(#paint11_linear)"/>
<path d="M17.77 44.3C17.8383 44.2987 17.9062 44.3108 17.9698 44.3357C18.0334 44.3606 18.0914 44.3978 18.1406 44.4452C18.1899 44.4926 18.2293 44.5492 18.2566 44.6117C18.284 44.6743 18.2987 44.7417 18.3 44.81C18.3071 44.8832 18.2986 44.9571 18.275 45.0268C18.2514 45.0965 18.2133 45.1604 18.1632 45.2142C18.1131 45.2681 18.0522 45.3107 17.9844 45.3393C17.9166 45.3679 17.8435 45.3818 17.77 45.38C17.6321 45.38 17.4998 45.3252 17.4023 45.2277C17.3048 45.1302 17.25 44.9979 17.25 44.86C17.25 44.7922 17.2635 44.725 17.2897 44.6625C17.316 44.6 17.3545 44.5433 17.4029 44.4958C17.4513 44.4483 17.5087 44.4109 17.5718 44.3859C17.6348 44.3609 17.7022 44.3487 17.77 44.35V44.3Z" fill="url(#paint12_linear)"/>
<path d="M14.53 18.78C14.5983 18.7787 14.6662 18.7908 14.7298 18.8157C14.7934 18.8406 14.8514 18.8778 14.9007 18.9252C14.9499 18.9726 14.9893 19.0292 15.0166 19.0918C15.044 19.1544 15.0587 19.2217 15.06 19.29C15.06 19.3591 15.0462 19.4276 15.0195 19.4913C14.9927 19.5551 14.9535 19.6129 14.9042 19.6613C14.8548 19.7097 14.7963 19.7478 14.7321 19.7733C14.6678 19.7989 14.5991 19.8113 14.53 19.81C14.3921 19.81 14.2598 19.7552 14.1623 19.6577C14.0648 19.5602 14.01 19.4279 14.01 19.29C14.01 19.2222 14.0235 19.155 14.0498 19.0925C14.076 19.03 14.1145 18.9733 14.1629 18.9258C14.2113 18.8783 14.2687 18.841 14.3318 18.8159C14.3948 18.7909 14.4622 18.7787 14.53 18.78Z" fill="url(#paint13_linear)"/>
<path d="M14.53 21.9699C14.5983 21.9686 14.6662 21.9807 14.7298 22.0056C14.7934 22.0306 14.8514 22.0678 14.9007 22.1151C14.9499 22.1625 14.9893 22.2191 15.0166 22.2817C15.044 22.3442 15.0587 22.4116 15.06 22.4799C15.06 22.549 15.0462 22.6175 15.0195 22.6812C14.9927 22.745 14.9535 22.8028 14.9042 22.8512C14.8548 22.8996 14.7963 22.9377 14.7321 22.9632C14.6678 22.9888 14.5991 23.0012 14.53 22.9999C14.3921 22.9999 14.2598 22.9451 14.1623 22.8476C14.0648 22.7501 14.01 22.6178 14.01 22.4799C14.01 22.4121 14.0235 22.3449 14.0498 22.2824C14.076 22.2199 14.1145 22.1632 14.1629 22.1157C14.2113 22.0682 14.2687 22.0309 14.3318 22.0058C14.3948 21.9808 14.4622 21.9686 14.53 21.9699Z" fill="url(#paint14_linear)"/>
<path d="M14.53 25.16C14.5983 25.1587 14.6662 25.1708 14.7298 25.1957C14.7934 25.2207 14.8514 25.2579 14.9007 25.3052C14.9499 25.3526 14.9893 25.4092 15.0166 25.4718C15.044 25.5344 15.0587 25.6017 15.06 25.67C15.06 25.7391 15.0462 25.8076 15.0195 25.8713C14.9927 25.9351 14.9535 25.9929 14.9042 26.0413C14.8548 26.0897 14.7963 26.1278 14.7321 26.1533C14.6678 26.1789 14.5991 26.1913 14.53 26.19C14.3921 26.19 14.2598 26.1352 14.1623 26.0377C14.0648 25.9402 14.01 25.8079 14.01 25.67C14.01 25.6022 14.0235 25.535 14.0498 25.4725C14.076 25.41 14.1145 25.3533 14.1629 25.3058C14.2113 25.2583 14.2687 25.221 14.3318 25.1959C14.3948 25.1709 14.4622 25.1587 14.53 25.16Z" fill="url(#paint15_linear)"/>
<path d="M14.53 28.38C14.5983 28.3787 14.6662 28.3908 14.7298 28.4157C14.7934 28.4407 14.8514 28.4779 14.9007 28.5252C14.9499 28.5726 14.9893 28.6292 15.0166 28.6918C15.044 28.7544 15.0587 28.8217 15.06 28.89C15.06 28.9591 15.0462 29.0276 15.0195 29.0913C14.9927 29.1551 14.9535 29.2129 14.9042 29.2613C14.8548 29.3097 14.7963 29.3478 14.7321 29.3733C14.6678 29.3989 14.5991 29.4113 14.53 29.41C14.3921 29.41 14.2598 29.3552 14.1623 29.2577C14.0648 29.1602 14.01 29.0279 14.01 28.89C14.01 28.8222 14.0235 28.755 14.0498 28.6925C14.076 28.63 14.1145 28.5733 14.1629 28.5258C14.2113 28.4783 14.2687 28.441 14.3318 28.4159C14.3948 28.3909 14.4622 28.3787 14.53 28.38Z" fill="url(#paint16_linear)"/>
<path d="M14.53 31.54C14.5983 31.5387 14.6662 31.5508 14.7298 31.5757C14.7934 31.6006 14.8514 31.6378 14.9007 31.6852C14.9499 31.7326 14.9893 31.7891 15.0166 31.8517C15.044 31.9143 15.0587 31.9817 15.06 32.05C15.06 32.1191 15.0462 32.1876 15.0195 32.2513C14.9927 32.3151 14.9535 32.3728 14.9042 32.4213C14.8548 32.4697 14.7963 32.5078 14.7321 32.5333C14.6678 32.5588 14.5991 32.5713 14.53 32.57C14.3921 32.57 14.2598 32.5152 14.1623 32.4177C14.0648 32.3202 14.01 32.1879 14.01 32.05C14.01 31.9822 14.0235 31.915 14.0498 31.8525C14.076 31.7899 14.1145 31.7333 14.1629 31.6858C14.2113 31.6383 14.2687 31.6009 14.3318 31.5759C14.3948 31.5509 14.4622 31.5387 14.53 31.54Z" fill="url(#paint17_linear)"/>
<path d="M14.53 34.73C14.5983 34.7287 14.6662 34.7408 14.7298 34.7657C14.7934 34.7906 14.8514 34.8278 14.9007 34.8752C14.9499 34.9226 14.9893 34.9791 15.0166 35.0417C15.044 35.1043 15.0587 35.1717 15.06 35.24C15.06 35.3091 15.0462 35.3776 15.0195 35.4413C14.9927 35.5051 14.9535 35.5628 14.9042 35.6113C14.8548 35.6597 14.7963 35.6978 14.7321 35.7233C14.6678 35.7489 14.5991 35.7613 14.53 35.76C14.3921 35.76 14.2598 35.7052 14.1623 35.6077C14.0648 35.5102 14.01 35.3779 14.01 35.24C14.01 35.1722 14.0235 35.105 14.0498 35.0425C14.076 34.9799 14.1145 34.9233 14.1629 34.8758C14.2113 34.8283 14.2687 34.7909 14.3318 34.7659C14.3948 34.7409 14.4622 34.7287 14.53 34.73Z" fill="url(#paint18_linear)"/>
<path d="M14.53 37.92C14.5983 37.9187 14.6662 37.9308 14.7298 37.9557C14.7934 37.9806 14.8514 38.0178 14.9007 38.0652C14.9499 38.1126 14.9893 38.1691 15.0166 38.2317C15.044 38.2943 15.0587 38.3617 15.06 38.43C15.06 38.4991 15.0462 38.5676 15.0195 38.6313C14.9927 38.6951 14.9535 38.7528 14.9042 38.8013C14.8548 38.8497 14.7963 38.8878 14.7321 38.9133C14.6678 38.9389 14.5991 38.9513 14.53 38.95C14.3921 38.95 14.2598 38.8952 14.1623 38.7977C14.0648 38.7002 14.01 38.5679 14.01 38.43C14.01 38.3622 14.0235 38.295 14.0498 38.2325C14.076 38.1699 14.1145 38.1133 14.1629 38.0658C14.2113 38.0183 14.2687 37.9809 14.3318 37.9559C14.3948 37.9309 14.4622 37.9187 14.53 37.92Z" fill="url(#paint19_linear)"/>
<path d="M14.53 41.11C14.5983 41.1087 14.6662 41.1208 14.7298 41.1457C14.7934 41.1706 14.8514 41.2078 14.9007 41.2552C14.9499 41.3026 14.9893 41.3592 15.0166 41.4217C15.044 41.4843 15.0587 41.5517 15.06 41.62C15.06 41.6891 15.0462 41.7576 15.0195 41.8213C14.9927 41.8851 14.9535 41.9429 14.9042 41.9913C14.8548 42.0397 14.7963 42.0778 14.7321 42.1033C14.6678 42.1289 14.5991 42.1413 14.53 42.14C14.3921 42.14 14.2598 42.0852 14.1623 41.9877C14.0648 41.8902 14.01 41.7579 14.01 41.62C14.01 41.5522 14.0235 41.485 14.0498 41.4225C14.076 41.3599 14.1145 41.3033 14.1629 41.2558C14.2113 41.2083 14.2687 41.1709 14.3318 41.1459C14.3948 41.1209 14.4622 41.1087 14.53 41.11Z" fill="url(#paint20_linear)"/>
<path d="M14.53 44.3C14.5983 44.2987 14.6662 44.3108 14.7298 44.3357C14.7934 44.3606 14.8514 44.3978 14.9007 44.4452C14.9499 44.4926 14.9893 44.5492 15.0166 44.6117C15.044 44.6743 15.0587 44.7417 15.06 44.81C15.06 44.8791 15.0462 44.9476 15.0195 45.0113C14.9927 45.0751 14.9535 45.1329 14.9042 45.1813C14.8548 45.2297 14.7963 45.2678 14.7321 45.2933C14.6678 45.3189 14.5991 45.3313 14.53 45.33C14.3921 45.33 14.2598 45.2752 14.1623 45.1777C14.0648 45.0802 14.01 44.9479 14.01 44.81C14.01 44.7422 14.0235 44.675 14.0498 44.6125C14.076 44.55 14.1145 44.4933 14.1629 44.4458C14.2113 44.3983 14.2687 44.3609 14.3318 44.3359C14.3948 44.3109 14.4622 44.2987 14.53 44.3Z" fill="url(#paint21_linear)"/>
<path d="M14.53 47.49C14.5983 47.4887 14.6662 47.5008 14.7298 47.5257C14.7934 47.5506 14.8514 47.5878 14.9007 47.6352C14.9499 47.6826 14.9893 47.7392 15.0166 47.8017C15.044 47.8643 15.0587 47.9317 15.06 48C15.06 48.0691 15.0462 48.1376 15.0195 48.2013C14.9927 48.2651 14.9535 48.3229 14.9042 48.3713C14.8548 48.4197 14.7963 48.4578 14.7321 48.4833C14.6678 48.5089 14.5991 48.5213 14.53 48.52C14.3921 48.52 14.2598 48.4652 14.1623 48.3677C14.0648 48.2702 14.01 48.1379 14.01 48C14.01 47.9322 14.0235 47.865 14.0498 47.8025C14.076 47.74 14.1145 47.6833 14.1629 47.6358C14.2113 47.5883 14.2687 47.5509 14.3318 47.5259C14.3948 47.5009 14.4622 47.4887 14.53 47.49Z" fill="url(#paint22_linear)"/>
<path d="M11.28 15.5901C11.3483 15.5888 11.4162 15.6009 11.4798 15.6258C11.5434 15.6507 11.6014 15.6879 11.6507 15.7353C11.6999 15.7827 11.7393 15.8393 11.7666 15.9019C11.794 15.9644 11.8087 16.0318 11.81 16.1001C11.81 16.1692 11.7962 16.2377 11.7695 16.3014C11.7427 16.3652 11.7035 16.423 11.6542 16.4714C11.6048 16.5198 11.5463 16.5579 11.4821 16.5834C11.4178 16.609 11.3491 16.6214 11.28 16.6201C11.1421 16.6201 11.0098 16.5653 10.9123 16.4678C10.8148 16.3703 10.76 16.238 10.76 16.1001C10.76 16.0323 10.7735 15.9651 10.7998 15.9026C10.826 15.8401 10.8645 15.7834 10.9129 15.7359C10.9613 15.6884 11.0187 15.651 11.0818 15.626C11.1448 15.601 11.2122 15.5888 11.28 15.5901Z" fill="url(#paint23_linear)"/>
<path d="M11.28 18.78C11.3483 18.7787 11.4162 18.7908 11.4798 18.8157C11.5434 18.8406 11.6014 18.8778 11.6507 18.9252C11.6999 18.9726 11.7393 19.0292 11.7666 19.0918C11.794 19.1544 11.8087 19.2217 11.81 19.29C11.81 19.3591 11.7962 19.4276 11.7695 19.4913C11.7427 19.5551 11.7035 19.6129 11.6542 19.6613C11.6048 19.7097 11.5463 19.7478 11.4821 19.7733C11.4178 19.7989 11.3491 19.8113 11.28 19.81C11.1421 19.81 11.0098 19.7552 10.9123 19.6577C10.8148 19.5602 10.76 19.4279 10.76 19.29C10.76 19.2222 10.7735 19.155 10.7998 19.0925C10.826 19.03 10.8645 18.9733 10.9129 18.9258C10.9613 18.8783 11.0187 18.841 11.0818 18.8159C11.1448 18.7909 11.2122 18.7787 11.28 18.78Z" fill="url(#paint24_linear)"/>
<path d="M11.28 21.9699C11.3483 21.9686 11.4162 21.9807 11.4798 22.0056C11.5434 22.0306 11.6015 22.0678 11.6507 22.1151C11.6999 22.1625 11.7393 22.2191 11.7666 22.2817C11.794 22.3442 11.8087 22.4116 11.81 22.4799C11.81 22.549 11.7963 22.6175 11.7695 22.6812C11.7427 22.745 11.7035 22.8028 11.6542 22.8512C11.6048 22.8996 11.5463 22.9377 11.4821 22.9632C11.4178 22.9888 11.3491 23.0012 11.28 22.9999C11.1438 22.9973 11.0141 22.9413 10.9188 22.8441C10.8234 22.7469 10.77 22.6161 10.77 22.4799C10.77 22.4121 10.7835 22.3449 10.8098 22.2824C10.836 22.2199 10.8745 22.1632 10.9229 22.1157C10.9713 22.0682 11.0287 22.0309 11.0918 22.0058C11.1548 21.9808 11.2222 21.9686 11.29 21.9699H11.28Z" fill="url(#paint25_linear)"/>
<path d="M11.28 25.16C11.3483 25.1587 11.4162 25.1708 11.4798 25.1957C11.5434 25.2207 11.6014 25.2579 11.6507 25.3052C11.6999 25.3526 11.7393 25.4092 11.7666 25.4718C11.794 25.5344 11.8087 25.6017 11.81 25.67C11.81 25.7391 11.7962 25.8076 11.7695 25.8713C11.7427 25.9351 11.7035 25.9929 11.6542 26.0413C11.6048 26.0897 11.5463 26.1278 11.4821 26.1533C11.4178 26.1789 11.3491 26.1913 11.28 26.19C11.1421 26.19 11.0098 26.1352 10.9123 26.0377C10.8148 25.9402 10.76 25.8079 10.76 25.67C10.76 25.6022 10.7735 25.535 10.7998 25.4725C10.826 25.41 10.8645 25.3533 10.9129 25.3058C10.9613 25.2583 11.0187 25.221 11.0818 25.1959C11.1448 25.1709 11.2122 25.1587 11.28 25.16Z" fill="url(#paint26_linear)"/>
<path d="M11.28 28.38C11.3483 28.3787 11.4162 28.3908 11.4798 28.4157C11.5434 28.4407 11.6014 28.4779 11.6507 28.5252C11.6999 28.5726 11.7393 28.6292 11.7666 28.6918C11.794 28.7544 11.8087 28.8217 11.81 28.89C11.81 28.9591 11.7962 29.0276 11.7695 29.0913C11.7427 29.1551 11.7035 29.2129 11.6542 29.2613C11.6048 29.3097 11.5463 29.3478 11.4821 29.3733C11.4178 29.3989 11.3491 29.4113 11.28 29.41C11.1421 29.41 11.0098 29.3552 10.9123 29.2577C10.8148 29.1602 10.76 29.0279 10.76 28.89C10.76 28.8222 10.7735 28.755 10.7998 28.6925C10.826 28.63 10.8645 28.5733 10.9129 28.5258C10.9613 28.4783 11.0187 28.441 11.0818 28.4159C11.1448 28.3909 11.2122 28.3787 11.28 28.38Z" fill="url(#paint27_linear)"/>
<path d="M11.28 31.54C11.3483 31.5387 11.4162 31.5508 11.4798 31.5757C11.5434 31.6006 11.6014 31.6378 11.6507 31.6852C11.6999 31.7326 11.7393 31.7891 11.7666 31.8517C11.794 31.9143 11.8087 31.9817 11.81 32.05C11.81 32.1191 11.7962 32.1876 11.7695 32.2513C11.7427 32.3151 11.7035 32.3728 11.6542 32.4213C11.6048 32.4697 11.5463 32.5078 11.4821 32.5333C11.4178 32.5588 11.3491 32.5713 11.28 32.57C11.1421 32.57 11.0098 32.5152 10.9123 32.4177C10.8148 32.3202 10.76 32.1879 10.76 32.05C10.76 31.9822 10.7735 31.915 10.7998 31.8525C10.826 31.7899 10.8645 31.7333 10.9129 31.6858C10.9613 31.6383 11.0187 31.6009 11.0818 31.5759C11.1448 31.5509 11.2122 31.5387 11.28 31.54Z" fill="url(#paint28_linear)"/>
<path d="M11.28 34.73C11.3483 34.7287 11.4162 34.7408 11.4798 34.7657C11.5434 34.7906 11.6014 34.8278 11.6507 34.8752C11.6999 34.9226 11.7393 34.9791 11.7666 35.0417C11.794 35.1043 11.8087 35.1717 11.81 35.24C11.81 35.3091 11.7962 35.3776 11.7695 35.4413C11.7427 35.5051 11.7035 35.5628 11.6542 35.6113C11.6048 35.6597 11.5463 35.6978 11.4821 35.7233C11.4178 35.7489 11.3491 35.7613 11.28 35.76C11.1421 35.76 11.0098 35.7052 10.9123 35.6077C10.8148 35.5102 10.76 35.3779 10.76 35.24C10.76 35.1722 10.7735 35.105 10.7998 35.0425C10.826 34.9799 10.8645 34.9233 10.9129 34.8758C10.9613 34.8283 11.0187 34.7909 11.0818 34.7659C11.1448 34.7409 11.2122 34.7287 11.28 34.73Z" fill="url(#paint29_linear)"/>
<path d="M11.28 37.92C11.3483 37.9187 11.4162 37.9308 11.4798 37.9557C11.5434 37.9806 11.6014 38.0178 11.6507 38.0652C11.6999 38.1126 11.7393 38.1691 11.7666 38.2317C11.794 38.2943 11.8087 38.3617 11.81 38.43C11.81 38.4991 11.7962 38.5676 11.7695 38.6313C11.7427 38.6951 11.7035 38.7528 11.6542 38.8013C11.6048 38.8497 11.5463 38.8878 11.4821 38.9133C11.4178 38.9389 11.3491 38.9513 11.28 38.95C11.1421 38.95 11.0098 38.8952 10.9123 38.7977C10.8148 38.7002 10.76 38.5679 10.76 38.43C10.76 38.3622 10.7735 38.295 10.7998 38.2325C10.826 38.1699 10.8645 38.1133 10.9129 38.0658C10.9613 38.0183 11.0187 37.9809 11.0818 37.9559C11.1448 37.9309 11.2122 37.9187 11.28 37.92Z" fill="url(#paint30_linear)"/>
<path d="M11.28 41.11C11.3483 41.1087 11.4162 41.1208 11.4798 41.1457C11.5434 41.1706 11.6014 41.2078 11.6507 41.2552C11.6999 41.3026 11.7393 41.3592 11.7666 41.4217C11.794 41.4843 11.8087 41.5517 11.81 41.62C11.81 41.6891 11.7962 41.7576 11.7695 41.8213C11.7427 41.8851 11.7035 41.9429 11.6542 41.9913C11.6048 42.0397 11.5463 42.0778 11.4821 42.1033C11.4178 42.1289 11.3491 42.1413 11.28 42.14C11.1421 42.14 11.0098 42.0852 10.9123 41.9877C10.8148 41.8902 10.76 41.7579 10.76 41.62C10.76 41.5522 10.7735 41.485 10.7998 41.4225C10.826 41.3599 10.8645 41.3033 10.9129 41.2558C10.9613 41.2083 11.0187 41.1709 11.0818 41.1459C11.1448 41.1209 11.2122 41.1087 11.28 41.11Z" fill="url(#paint31_linear)"/>
<path d="M11.28 44.3C11.3483 44.2987 11.4162 44.3108 11.4798 44.3357C11.5434 44.3606 11.6014 44.3978 11.6507 44.4452C11.6999 44.4926 11.7393 44.5492 11.7666 44.6117C11.794 44.6743 11.8087 44.7417 11.81 44.81C11.81 44.8791 11.7962 44.9476 11.7695 45.0113C11.7427 45.0751 11.7035 45.1329 11.6542 45.1813C11.6048 45.2297 11.5463 45.2678 11.4821 45.2933C11.4178 45.3189 11.3491 45.3313 11.28 45.33C11.1421 45.33 11.0098 45.2752 10.9123 45.1777C10.8148 45.0802 10.76 44.9479 10.76 44.81C10.76 44.7422 10.7735 44.675 10.7998 44.6125C10.826 44.55 10.8645 44.4933 10.9129 44.4458C10.9613 44.3983 11.0187 44.3609 11.0818 44.3359C11.1448 44.3109 11.2122 44.2987 11.28 44.3Z" fill="url(#paint32_linear)"/>
<path d="M11.28 47.49C11.3483 47.4887 11.4162 47.5008 11.4798 47.5257C11.5434 47.5506 11.6014 47.5878 11.6507 47.6352C11.6999 47.6826 11.7393 47.7392 11.7666 47.8017C11.794 47.8643 11.8087 47.9317 11.81 48C11.81 48.0691 11.7962 48.1376 11.7695 48.2013C11.7427 48.2651 11.7035 48.3229 11.6542 48.3713C11.6048 48.4197 11.5463 48.4578 11.4821 48.4833C11.4178 48.5089 11.3491 48.5213 11.28 48.52C11.1421 48.52 11.0098 48.4652 10.9123 48.3677C10.8148 48.2702 10.76 48.1379 10.76 48C10.76 47.9322 10.7735 47.865 10.7998 47.8025C10.826 47.74 10.8645 47.6833 10.9129 47.6358C10.9613 47.5883 11.0187 47.5509 11.0818 47.5259C11.1448 47.5009 11.2122 47.4887 11.28 47.49Z" fill="url(#paint33_linear)"/>
<path d="M11.28 50.68C11.3483 50.6787 11.4162 50.6908 11.4798 50.7157C11.5434 50.7406 11.6014 50.7778 11.6507 50.8252C11.6999 50.8726 11.7393 50.9292 11.7666 50.9918C11.794 51.0543 11.8087 51.1217 11.81 51.19C11.81 51.2591 11.7962 51.3276 11.7695 51.3913C11.7427 51.4551 11.7035 51.5129 11.6542 51.5613C11.6048 51.6097 11.5463 51.6478 11.4821 51.6733C11.4178 51.6989 11.3491 51.7113 11.28 51.71C11.1421 51.71 11.0098 51.6552 10.9123 51.5577C10.8148 51.4602 10.76 51.3279 10.76 51.19C10.76 51.1222 10.7735 51.055 10.7998 50.9925C10.826 50.93 10.8645 50.8733 10.9129 50.8258C10.9613 50.7783 11.0187 50.7409 11.0818 50.7159C11.1448 50.6909 11.2122 50.6787 11.28 50.68Z" fill="url(#paint34_linear)"/>
<path d="M8.03001 15.5901C8.09782 15.5888 8.16522 15.601 8.22826 15.626C8.29129 15.651 8.3487 15.6884 8.39712 15.7359C8.44554 15.7834 8.484 15.8401 8.51025 15.9026C8.53651 15.9651 8.55002 16.0323 8.55001 16.1001C8.55001 16.238 8.49522 16.3703 8.39771 16.4678C8.30019 16.5653 8.16793 16.6201 8.03001 16.6201C7.8921 16.6201 7.75983 16.5653 7.66232 16.4678C7.5648 16.3703 7.51001 16.238 7.51001 16.1001C7.51 16.0323 7.52351 15.9651 7.54977 15.9026C7.57602 15.8401 7.61448 15.7834 7.6629 15.7359C7.71132 15.6884 7.76874 15.651 7.83177 15.626C7.89481 15.601 7.9622 15.5888 8.03001 15.5901Z" fill="url(#paint35_linear)"/>
<path d="M8.03001 18.78C8.09782 18.7787 8.16522 18.7909 8.22826 18.8159C8.29129 18.841 8.3487 18.8783 8.39712 18.9258C8.44554 18.9733 8.484 19.03 8.51025 19.0925C8.53651 19.155 8.55002 19.2222 8.55001 19.29C8.55001 19.4279 8.49522 19.5602 8.39771 19.6577C8.30019 19.7552 8.16793 19.81 8.03001 19.81C7.8921 19.81 7.75983 19.7552 7.66232 19.6577C7.5648 19.5602 7.51001 19.4279 7.51001 19.29C7.51 19.2222 7.52351 19.155 7.54977 19.0925C7.57602 19.03 7.61448 18.9733 7.6629 18.9258C7.71132 18.8783 7.76874 18.841 7.83177 18.8159C7.89481 18.7909 7.9622 18.7787 8.03001 18.78Z" fill="url(#paint36_linear)"/>
<path d="M8.03001 21.9699C8.09782 21.9686 8.16522 21.9808 8.22826 22.0058C8.29129 22.0309 8.3487 22.0682 8.39712 22.1157C8.44554 22.1632 8.484 22.2199 8.51025 22.2824C8.53651 22.3449 8.55002 22.4121 8.55001 22.4799C8.55001 22.6178 8.49522 22.7501 8.39771 22.8476C8.30019 22.9451 8.16793 22.9999 8.03001 22.9999C7.8921 22.9999 7.75983 22.9451 7.66232 22.8476C7.5648 22.7501 7.51001 22.6178 7.51001 22.4799C7.51 22.4121 7.52351 22.3449 7.54977 22.2824C7.57602 22.2199 7.61448 22.1632 7.6629 22.1157C7.71132 22.0682 7.76874 22.0309 7.83177 22.0058C7.89481 21.9808 7.9622 21.9686 8.03001 21.9699Z" fill="url(#paint37_linear)"/>
<path d="M8.03001 25.16C8.09782 25.1587 8.16522 25.1709 8.22826 25.1959C8.29129 25.221 8.3487 25.2583 8.39712 25.3058C8.44554 25.3533 8.484 25.41 8.51025 25.4725C8.53651 25.535 8.55002 25.6022 8.55001 25.67C8.55001 25.8079 8.49522 25.9402 8.39771 26.0377C8.30019 26.1352 8.16793 26.19 8.03001 26.19C7.8921 26.19 7.75983 26.1352 7.66232 26.0377C7.5648 25.9402 7.51001 25.8079 7.51001 25.67C7.51 25.6022 7.52351 25.535 7.54977 25.4725C7.57602 25.41 7.61448 25.3533 7.6629 25.3058C7.71132 25.2583 7.76874 25.221 7.83177 25.1959C7.89481 25.1709 7.9622 25.1587 8.03001 25.16Z" fill="url(#paint38_linear)"/>
<path d="M8.03001 41.11C8.09782 41.1087 8.16522 41.1209 8.22826 41.1459C8.29129 41.1709 8.3487 41.2083 8.39712 41.2558C8.44554 41.3033 8.484 41.3599 8.51025 41.4225C8.53651 41.485 8.55002 41.5522 8.55001 41.62C8.55001 41.7579 8.49522 41.8902 8.39771 41.9877C8.30019 42.0852 8.16793 42.14 8.03001 42.14C7.8921 42.14 7.75983 42.0852 7.66232 41.9877C7.5648 41.8902 7.51001 41.7579 7.51001 41.62C7.51 41.5522 7.52351 41.485 7.54977 41.4225C7.57602 41.3599 7.61448 41.3033 7.6629 41.2558C7.71132 41.2083 7.76874 41.1709 7.83177 41.1459C7.89481 41.1209 7.9622 41.1087 8.03001 41.11Z" fill="url(#paint39_linear)"/>
<path d="M8.03001 44.3C8.09782 44.2987 8.16522 44.3109 8.22826 44.3359C8.29129 44.3609 8.3487 44.3983 8.39712 44.4458C8.44554 44.4933 8.484 44.55 8.51025 44.6125C8.53651 44.675 8.55002 44.7422 8.55001 44.81C8.55001 44.9479 8.49522 45.0802 8.39771 45.1777C8.30019 45.2752 8.16793 45.33 8.03001 45.33C7.8921 45.33 7.75983 45.2752 7.66232 45.1777C7.5648 45.0802 7.51001 44.9479 7.51001 44.81C7.51 44.7422 7.52351 44.675 7.54977 44.6125C7.57602 44.55 7.61448 44.4933 7.6629 44.4458C7.71132 44.3983 7.76874 44.3609 7.83177 44.3359C7.89481 44.3109 7.9622 44.2987 8.03001 44.3Z" fill="url(#paint40_linear)"/>
<path d="M8.03001 47.49C8.09782 47.4887 8.16522 47.5009 8.22826 47.5259C8.29129 47.5509 8.3487 47.5883 8.39712 47.6358C8.44554 47.6833 8.484 47.74 8.51025 47.8025C8.53651 47.865 8.55002 47.9322 8.55001 48C8.55001 48.1379 8.49522 48.2702 8.39771 48.3677C8.30019 48.4652 8.16793 48.52 8.03001 48.52C7.8921 48.52 7.75983 48.4652 7.66232 48.3677C7.5648 48.2702 7.51001 48.1379 7.51001 48C7.51 47.9322 7.52351 47.865 7.54977 47.8025C7.57602 47.74 7.61448 47.6833 7.6629 47.6358C7.71132 47.5883 7.76874 47.5509 7.83177 47.5259C7.89481 47.5009 7.9622 47.4887 8.03001 47.49Z" fill="url(#paint41_linear)"/>
<path d="M8.03001 50.68C8.09782 50.6787 8.16522 50.6909 8.22826 50.7159C8.29129 50.7409 8.3487 50.7783 8.39712 50.8258C8.44554 50.8733 8.484 50.93 8.51025 50.9925C8.53651 51.055 8.55002 51.1222 8.55001 51.19C8.55001 51.3279 8.49522 51.4602 8.39771 51.5577C8.30019 51.6552 8.16793 51.71 8.03001 51.71C7.8921 51.71 7.75983 51.6552 7.66232 51.5577C7.5648 51.4602 7.51001 51.3279 7.51001 51.19C7.51 51.1222 7.52351 51.055 7.54977 50.9925C7.57602 50.93 7.61448 50.8733 7.6629 50.8258C7.71132 50.7783 7.76874 50.7409 7.83177 50.7159C7.89481 50.6909 7.9622 50.6787 8.03001 50.68Z" fill="url(#paint42_linear)"/>
<path d="M5.30002 12.95C5.28992 13.0809 5.23071 13.2031 5.13426 13.2921C5.03781 13.3811 4.91127 13.4304 4.78002 13.43C4.7109 13.4313 4.6422 13.4189 4.57795 13.3933C4.5137 13.3678 4.4552 13.3297 4.40584 13.2813C4.35649 13.2329 4.31729 13.1751 4.29053 13.1113C4.26378 13.0476 4.25001 12.9791 4.25002 12.91C4.24072 12.847 4.24072 12.783 4.25002 12.72L5.25002 12.95H5.30002Z" fill="url(#paint43_linear)"/>
<path d="M4.76999 15.5901C4.8378 15.5888 4.9052 15.601 4.96823 15.626C5.03127 15.651 5.08867 15.6884 5.13709 15.7359C5.18551 15.7834 5.22398 15.8401 5.25024 15.9026C5.27649 15.9651 5.29 16.0323 5.28999 16.1001C5.28999 16.238 5.23521 16.3703 5.13769 16.4678C5.04017 16.5653 4.9079 16.6201 4.76999 16.6201C4.70086 16.6214 4.63217 16.609 4.56792 16.5834C4.50368 16.5579 4.44516 16.5198 4.39581 16.4714C4.34646 16.423 4.30726 16.3652 4.2805 16.3014C4.25375 16.2377 4.23998 16.1692 4.23999 16.1001C4.24129 16.0318 4.25603 15.9644 4.28337 15.9019C4.31071 15.8393 4.35012 15.7827 4.39934 15.7353C4.44856 15.6879 4.50662 15.6507 4.57022 15.6258C4.63382 15.6009 4.7017 15.5888 4.76999 15.5901Z" fill="url(#paint44_linear)"/>
<path d="M4.76999 18.78C4.8378 18.7787 4.9052 18.7909 4.96823 18.8159C5.03127 18.841 5.08867 18.8783 5.13709 18.9258C5.18551 18.9733 5.22398 19.03 5.25024 19.0925C5.27649 19.155 5.29 19.2222 5.28999 19.29C5.28999 19.4279 5.23521 19.5602 5.13769 19.6577C5.04017 19.7552 4.9079 19.81 4.76999 19.81C4.70086 19.8113 4.63217 19.7989 4.56792 19.7733C4.50368 19.7478 4.44516 19.7097 4.39581 19.6613C4.34646 19.6129 4.30726 19.5551 4.2805 19.4913C4.25375 19.4276 4.23998 19.3591 4.23999 19.29C4.24129 19.2217 4.25603 19.1544 4.28337 19.0918C4.31071 19.0292 4.35012 18.9726 4.39934 18.9252C4.44856 18.8778 4.50662 18.8406 4.57022 18.8157C4.63382 18.7908 4.7017 18.7787 4.76999 18.78Z" fill="url(#paint45_linear)"/>
<path d="M4.76999 21.9699C4.8378 21.9686 4.9052 21.9808 4.96823 22.0058C5.03127 22.0309 5.08867 22.0682 5.13709 22.1157C5.18551 22.1632 5.22398 22.2199 5.25024 22.2824C5.27649 22.3449 5.29 22.4121 5.28999 22.4799C5.28999 22.6178 5.23521 22.7501 5.13769 22.8476C5.04017 22.9451 4.9079 22.9999 4.76999 22.9999C4.70086 23.0012 4.63217 22.9888 4.56792 22.9632C4.50368 22.9377 4.44516 22.8996 4.39581 22.8512C4.34646 22.8028 4.30726 22.745 4.2805 22.6812C4.25375 22.6175 4.23998 22.549 4.23999 22.4799C4.24129 22.4116 4.25603 22.3442 4.28337 22.2817C4.31071 22.2191 4.35012 22.1625 4.39934 22.1151C4.44856 22.0678 4.50662 22.0306 4.57022 22.0056C4.63382 21.9807 4.7017 21.9686 4.76999 21.9699Z" fill="url(#paint46_linear)"/>
<path d="M4.76999 44.3C4.8378 44.2987 4.9052 44.3109 4.96823 44.3359C5.03127 44.3609 5.08867 44.3983 5.13709 44.4458C5.18551 44.4933 5.22398 44.55 5.25024 44.6125C5.27649 44.675 5.29 44.7422 5.28999 44.81C5.29698 44.8824 5.28871 44.9554 5.26573 45.0244C5.24275 45.0934 5.20556 45.1567 5.15656 45.2105C5.10755 45.2642 5.04783 45.307 4.98125 45.3362C4.91466 45.3654 4.8427 45.3803 4.76999 45.38C4.70086 45.3813 4.63217 45.3689 4.56792 45.3433C4.50368 45.3178 4.44516 45.2797 4.39581 45.2313C4.34646 45.1829 4.30726 45.1251 4.2805 45.0613C4.25375 44.9976 4.23998 44.9291 4.23999 44.86C4.24129 44.7917 4.25603 44.7243 4.28337 44.6617C4.31071 44.5992 4.35012 44.5426 4.39934 44.4952C4.44856 44.4478 4.50662 44.4106 4.57022 44.3857C4.63382 44.3608 4.7017 44.3487 4.76999 44.35V44.3Z" fill="url(#paint47_linear)"/>
<path d="M4.76999 47.49C4.8378 47.4887 4.9052 47.5009 4.96823 47.5259C5.03127 47.5509 5.08867 47.5883 5.13709 47.6358C5.18551 47.6833 5.22398 47.74 5.25024 47.8025C5.27649 47.865 5.29 47.9322 5.28999 48C5.28999 48.1379 5.23521 48.2702 5.13769 48.3677C5.04017 48.4652 4.9079 48.52 4.76999 48.52C4.70086 48.5213 4.63217 48.5089 4.56792 48.4833C4.50368 48.4578 4.44516 48.4197 4.39581 48.3713C4.34646 48.3229 4.30726 48.2651 4.2805 48.2013C4.25375 48.1376 4.23998 48.0691 4.23999 48C4.24129 47.9317 4.25603 47.8643 4.28337 47.8017C4.31071 47.7392 4.35012 47.6826 4.39934 47.6352C4.44856 47.5878 4.50662 47.5506 4.57022 47.5257C4.63382 47.5008 4.7017 47.4887 4.76999 47.49Z" fill="url(#paint48_linear)"/>
<path d="M4.76999 50.68C4.8378 50.6787 4.9052 50.6909 4.96823 50.7159C5.03127 50.7409 5.08867 50.7783 5.13709 50.8258C5.18551 50.8733 5.22398 50.93 5.25024 50.9925C5.27649 51.055 5.29 51.1222 5.28999 51.19C5.28999 51.3279 5.23521 51.4602 5.13769 51.5577C5.04017 51.6552 4.9079 51.71 4.76999 51.71C4.70086 51.7113 4.63217 51.6989 4.56792 51.6733C4.50368 51.6478 4.44516 51.6097 4.39581 51.5613C4.34646 51.5129 4.30726 51.4551 4.2805 51.3913C4.25375 51.3276 4.23998 51.2591 4.23999 51.19C4.24129 51.1217 4.25603 51.0543 4.28337 50.9918C4.31071 50.9292 4.35012 50.8726 4.39934 50.8252C4.44856 50.7778 4.50662 50.7406 4.57022 50.7157C4.63382 50.6908 4.7017 50.6787 4.76999 50.68Z" fill="url(#paint49_linear)"/>
<path d="M4.77006 53.87C4.89973 53.8694 5.02495 53.9173 5.12115 54.0042C5.21735 54.0912 5.27759 54.2109 5.29006 54.34L4.29006 54.57C4.27962 54.5071 4.27962 54.4429 4.29006 54.38C4.29136 54.3117 4.30611 54.2443 4.33345 54.1818C4.36079 54.1192 4.40019 54.0626 4.44941 54.0152C4.49862 53.9678 4.55669 53.9306 4.62029 53.9057C4.68389 53.8808 4.75178 53.8687 4.82007 53.87H4.77006Z" fill="url(#paint50_linear)"/>
<path d="M1.53 12.38C1.59781 12.3787 1.66521 12.3909 1.72824 12.4159C1.79128 12.441 1.84868 12.4783 1.8971 12.5258C1.94552 12.5733 1.98399 12.63 2.01024 12.6925C2.03649 12.755 2.05001 12.8222 2.05 12.89C2.05 13.0279 1.99521 13.1602 1.89769 13.2577C1.80017 13.3552 1.66791 13.41 1.53 13.41C1.46087 13.4113 1.39217 13.3989 1.32793 13.3733C1.26368 13.3478 1.20517 13.3097 1.15582 13.2613C1.10647 13.2129 1.06727 13.1551 1.04051 13.0913C1.01376 13.0276 0.999987 12.9592 1 12.89C1.0013 12.8217 1.01604 12.7544 1.04338 12.6918C1.07072 12.6292 1.11013 12.5726 1.15935 12.5252C1.20857 12.4779 1.26663 12.4407 1.33022 12.4157C1.39382 12.3908 1.46171 12.3787 1.53 12.38Z" fill="url(#paint51_linear)"/>
<path d="M1.53 15.5901C1.59781 15.5888 1.66521 15.601 1.72824 15.626C1.79128 15.651 1.84868 15.6884 1.8971 15.7359C1.94552 15.7834 1.98399 15.8401 2.01024 15.9026C2.03649 15.9651 2.05001 16.0323 2.05 16.1001C2.05 16.238 1.99521 16.3703 1.89769 16.4678C1.80017 16.5653 1.66791 16.6201 1.53 16.6201C1.46087 16.6214 1.39217 16.609 1.32793 16.5834C1.26368 16.5579 1.20517 16.5198 1.15582 16.4714C1.10647 16.423 1.06727 16.3652 1.04051 16.3014C1.01376 16.2377 0.999987 16.1692 1 16.1001C1.0013 16.0318 1.01604 15.9644 1.04338 15.9019C1.07072 15.8393 1.11013 15.7827 1.15935 15.7353C1.20857 15.6879 1.26663 15.6507 1.33022 15.6258C1.39382 15.6009 1.46171 15.5888 1.53 15.5901Z" fill="url(#paint52_linear)"/>
<path d="M1.53 18.78C1.59781 18.7787 1.66521 18.7909 1.72824 18.8159C1.79128 18.841 1.84868 18.8783 1.8971 18.9258C1.94552 18.9733 1.98399 19.03 2.01024 19.0925C2.03649 19.155 2.05001 19.2222 2.05 19.29C2.05 19.4279 1.99521 19.5602 1.89769 19.6577C1.80017 19.7552 1.66791 19.81 1.53 19.81C1.46087 19.8113 1.39217 19.7989 1.32793 19.7733C1.26368 19.7478 1.20517 19.7097 1.15582 19.6613C1.10647 19.6129 1.06727 19.5551 1.04051 19.4913C1.01376 19.4276 0.999987 19.3591 1 19.29C1.0013 19.2217 1.01604 19.1544 1.04338 19.0918C1.07072 19.0292 1.11013 18.9726 1.15935 18.9252C1.20857 18.8778 1.26663 18.8406 1.33022 18.8157C1.39382 18.7908 1.46171 18.7787 1.53 18.78Z" fill="url(#paint53_linear)"/>
<path d="M1.53 21.9699C1.59781 21.9686 1.66521 21.9808 1.72824 22.0058C1.79128 22.0309 1.84868 22.0682 1.8971 22.1157C1.94552 22.1632 1.98399 22.2199 2.01024 22.2824C2.03649 22.3449 2.05001 22.4121 2.05 22.4799C2.05 22.6178 1.99521 22.7501 1.89769 22.8476C1.80017 22.9451 1.66791 22.9999 1.53 22.9999C1.46087 23.0012 1.39217 22.9888 1.32793 22.9632C1.26368 22.9377 1.20517 22.8996 1.15582 22.8512C1.10647 22.8028 1.06727 22.745 1.04051 22.6812C1.01376 22.6175 0.999987 22.549 1 22.4799C1.0013 22.4116 1.01604 22.3442 1.04338 22.2817C1.07072 22.2191 1.11013 22.1625 1.15935 22.1151C1.20857 22.0678 1.26663 22.0306 1.33022 22.0056C1.39382 21.9807 1.46171 21.9686 1.53 21.9699Z" fill="url(#paint54_linear)"/>
<path d="M1.53 44.3C1.59781 44.2987 1.66521 44.3109 1.72824 44.3359C1.79128 44.3609 1.84868 44.3983 1.8971 44.4458C1.94552 44.4933 1.98399 44.55 2.01024 44.6125C2.03649 44.675 2.05001 44.7422 2.05 44.81C2.05 44.9479 1.99521 45.0802 1.89769 45.1777C1.80017 45.2752 1.66791 45.33 1.53 45.33C1.46087 45.3313 1.39217 45.3189 1.32793 45.2933C1.26368 45.2678 1.20517 45.2297 1.15582 45.1813C1.10647 45.1329 1.06727 45.0751 1.04051 45.0113C1.01376 44.9476 0.999987 44.8791 1 44.81C1.0013 44.7417 1.01604 44.6743 1.04338 44.6117C1.07072 44.5492 1.11013 44.4926 1.15935 44.4452C1.20857 44.3978 1.26663 44.3606 1.33022 44.3357C1.39382 44.3108 1.46171 44.2987 1.53 44.3Z" fill="url(#paint55_linear)"/>
<path d="M1.53 47.49C1.59781 47.4887 1.66521 47.5009 1.72824 47.5259C1.79128 47.5509 1.84868 47.5883 1.8971 47.6358C1.94552 47.6833 1.98399 47.74 2.01024 47.8025C2.03649 47.865 2.05001 47.9322 2.05 48C2.05 48.1379 1.99521 48.2702 1.89769 48.3677C1.80017 48.4652 1.66791 48.52 1.53 48.52C1.46087 48.5213 1.39217 48.5089 1.32793 48.4833C1.26368 48.4578 1.20517 48.4197 1.15582 48.3713C1.10647 48.3229 1.06727 48.2651 1.04051 48.2013C1.01376 48.1376 0.999987 48.0691 1 48C1.0013 47.9317 1.01604 47.8643 1.04338 47.8017C1.07072 47.7392 1.11013 47.6826 1.15935 47.6352C1.20857 47.5878 1.26663 47.5506 1.33022 47.5257C1.39382 47.5008 1.46171 47.4887 1.53 47.49Z" fill="url(#paint56_linear)"/>
<path d="M1.53 50.68C1.59781 50.6787 1.66521 50.6909 1.72824 50.7159C1.79128 50.7409 1.84868 50.7783 1.8971 50.8258C1.94552 50.8733 1.98399 50.93 2.01024 50.9925C2.03649 51.055 2.05001 51.1222 2.05 51.19C2.05 51.3279 1.99521 51.4602 1.89769 51.5577C1.80017 51.6552 1.66791 51.71 1.53 51.71C1.46087 51.7113 1.39217 51.6989 1.32793 51.6733C1.26368 51.6478 1.20517 51.6097 1.15582 51.5613C1.10647 51.5129 1.06727 51.4551 1.04051 51.3913C1.01376 51.3276 0.999987 51.2591 1 51.19C1.0013 51.1217 1.01604 51.0543 1.04338 50.9918C1.07072 50.9292 1.11013 50.8726 1.15935 50.8252C1.20857 50.7778 1.26663 50.7406 1.33022 50.7157C1.39382 50.6908 1.46171 50.6787 1.53 50.68Z" fill="url(#paint57_linear)"/>
<path d="M1.53 53.87C1.59781 53.8687 1.66521 53.8809 1.72824 53.9059C1.79128 53.9309 1.84868 53.9683 1.8971 54.0158C1.94552 54.0633 1.98399 54.12 2.01024 54.1825C2.03649 54.245 2.05001 54.3122 2.05 54.38C2.05 54.5179 1.99521 54.6502 1.89769 54.7477C1.80017 54.8452 1.66791 54.9 1.53 54.9C1.46087 54.9013 1.39217 54.8889 1.32793 54.8633C1.26368 54.8378 1.20517 54.7997 1.15582 54.7513C1.10647 54.7029 1.06727 54.6451 1.04051 54.5813C1.01376 54.5176 0.999987 54.4491 1 54.38C1.0013 54.3117 1.01604 54.2443 1.04338 54.1818C1.07072 54.1192 1.11013 54.0626 1.15935 54.0152C1.20857 53.9678 1.26663 53.9306 1.33022 53.9057C1.39382 53.8808 1.46171 53.8687 1.53 53.87Z" fill="url(#paint58_linear)"/>
<g opacity="0.59">
<path opacity="0.59" d="M125.92 51.31V52.99C125.481 52.946 125.06 52.7943 124.693 52.5483C124.327 52.3024 124.027 51.9697 123.82 51.58C123.43 51.04 123.17 50.67 122.6 50.67C122.03 50.67 121.77 51.04 121.38 51.58C121.181 51.9742 120.885 52.3108 120.519 52.5577C120.153 52.8045 119.73 52.9534 119.29 52.99C118.851 52.9536 118.429 52.8048 118.065 52.5578C117.701 52.3108 117.406 51.974 117.21 51.58C116.82 51.04 116.56 50.67 115.99 50.67C115.42 50.67 115.17 51.04 114.78 51.58C114.581 51.9742 114.285 52.3108 113.919 52.5577C113.553 52.8045 113.13 52.9534 112.69 52.99C112.251 52.9536 111.829 52.8048 111.465 52.5578C111.101 52.3108 110.806 51.974 110.61 51.58C110.22 51.04 109.96 50.67 109.39 50.67C108.82 50.67 108.56 51.04 108.17 51.58C107.975 51.9746 107.68 52.3119 107.316 52.559C106.951 52.8061 106.529 52.9546 106.09 52.99C105.651 52.9546 105.229 52.8061 104.864 52.559C104.5 52.3119 104.205 51.9746 104.01 51.58C103.62 51.04 103.36 50.67 102.79 50.67C102.22 50.67 101.95 51.04 101.56 51.58C101.37 51.9811 101.076 52.3236 100.708 52.5717C100.341 52.8198 99.9129 52.9643 99.47 52.99C99.0274 52.9492 98.6019 52.799 98.2319 52.5528C97.8618 52.3067 97.5587 51.9724 97.35 51.58C96.96 51.04 96.7 50.67 96.13 50.67C95.56 50.67 95.3 51.04 94.91 51.58C94.7113 51.9742 94.4149 52.3108 94.049 52.5577C93.683 52.8045 93.2599 52.9534 92.82 52.99C92.3813 52.9536 91.9594 52.8048 91.5951 52.5578C91.2307 52.3108 90.9362 51.974 90.74 51.58C90.35 51.04 90.09 50.67 89.52 50.67C88.95 50.67 88.69 51.04 88.31 51.58C88.1113 51.9742 87.8149 52.3108 87.449 52.5577C87.083 52.8045 86.6599 52.9534 86.22 52.99C85.7811 52.9546 85.3588 52.8061 84.9943 52.559C84.6297 52.3119 84.3354 51.9746 84.14 51.58C83.75 51.04 83.49 50.67 82.92 50.67C82.35 50.67 82.09 51.04 81.7 51.58C81.5046 51.9746 81.2102 52.3119 80.8457 52.559C80.4812 52.8061 80.0589 52.9546 79.62 52.99C79.1811 52.9546 78.7588 52.8061 78.3943 52.559C78.0298 52.3119 77.7354 51.9746 77.54 51.58C77.15 51.04 76.89 50.67 76.32 50.67C75.75 50.67 75.48 51.04 75.09 51.58C74.9004 51.9811 74.6062 52.3236 74.2384 52.5717C73.8707 52.8198 73.4429 52.9643 73 52.99V51.31C73.63 51.31 73.84 50.95 74.23 50.41C74.4288 50.0098 74.7294 49.6689 75.1014 49.4215C75.4735 49.174 75.9041 49.0287 76.35 49C76.7899 49.0366 77.213 49.1855 77.579 49.4323C77.9449 49.6792 78.2413 50.0158 78.44 50.41C78.83 50.95 79.09 51.31 79.66 51.31C80.23 51.31 80.48 50.95 80.87 50.41C81.0687 50.0158 81.3651 49.6792 81.731 49.4323C82.097 49.1855 82.5201 49.0366 82.96 49C83.3989 49.0354 83.8212 49.1839 84.1857 49.431C84.5502 49.6781 84.8446 50.0154 85.04 50.41C85.43 50.95 85.69 51.31 86.26 51.31C86.83 51.31 87.09 50.95 87.48 50.41C87.6754 50.0154 87.9697 49.6781 88.3343 49.431C88.6988 49.1839 89.1211 49.0354 89.56 49C89.9989 49.0354 90.4212 49.1839 90.7857 49.431C91.1502 49.6781 91.4446 50.0154 91.64 50.41C92.03 50.95 92.29 51.31 92.86 51.31C93.43 51.31 93.69 50.95 94.08 50.41C94.2762 50.016 94.5707 49.6792 94.9351 49.4322C95.2994 49.1852 95.7213 49.0364 96.16 49C96.6011 49.0368 97.0255 49.1857 97.393 49.4324C97.7605 49.6792 98.0589 50.0156 98.26 50.41C98.65 50.95 98.86 51.31 99.49 51.31C100.12 51.31 100.33 50.95 100.72 50.41C100.916 50.016 101.211 49.6792 101.575 49.4322C101.939 49.1852 102.361 49.0364 102.8 49C103.24 49.0357 103.664 49.1841 104.03 49.4311C104.396 49.6781 104.692 50.0152 104.89 50.41C105.28 50.95 105.54 51.31 106.11 51.31C106.68 51.31 106.92 50.94 107.35 50.41C107.538 50.0261 107.82 49.6958 108.17 49.4494C108.519 49.203 108.925 49.0485 109.35 49C109.789 49.0354 110.211 49.1839 110.576 49.431C110.94 49.6781 111.235 50.0154 111.43 50.41C111.82 50.95 112.08 51.31 112.65 51.31C113.22 51.31 113.48 50.95 113.87 50.41C114.065 50.0154 114.36 49.6781 114.724 49.431C115.089 49.1839 115.511 49.0354 115.95 49C116.39 49.0366 116.813 49.1855 117.179 49.4323C117.545 49.6792 117.841 50.0158 118.04 50.41C118.42 50.95 118.68 51.31 119.25 51.31C119.82 51.31 120.08 50.95 120.47 50.41C120.668 50.0172 120.963 49.6814 121.327 49.4347C121.691 49.1879 122.112 49.0383 122.55 49C122.992 49.0349 123.417 49.183 123.785 49.43C124.152 49.6769 124.45 50.0145 124.65 50.41C125.08 50.94 125.29 51.31 125.92 51.31Z" fill="url(#paint59_linear)"/>
<path opacity="0.59" d="M132.13 55.2199V56.9399C131.692 56.8961 131.272 56.7443 130.907 56.4982C130.543 56.2522 130.245 55.9194 130.04 55.5299C129.65 54.9899 129.39 54.6299 128.82 54.6299C128.25 54.6299 127.98 54.9899 127.6 55.5299C127.401 55.9241 127.105 56.2607 126.739 56.5076C126.373 56.7544 125.95 56.9033 125.51 56.9399C125.071 56.9045 124.649 56.756 124.284 56.5089C123.92 56.2618 123.625 55.9245 123.43 55.5299C123.04 54.9899 122.78 54.6299 122.21 54.6299C121.64 54.6299 121.38 54.9899 120.99 55.5299C120.795 55.9245 120.5 56.2618 120.136 56.5089C119.771 56.756 119.349 56.9045 118.91 56.9399C118.471 56.9045 118.049 56.756 117.684 56.5089C117.32 56.2618 117.025 55.9245 116.83 55.5299C116.44 54.9899 116.18 54.6299 115.61 54.6299C115.04 54.6299 114.78 54.9899 114.39 55.5299C114.197 55.9185 113.909 56.2518 113.552 56.4984C113.195 56.745 112.782 56.897 112.35 56.9399C111.91 56.9033 111.487 56.7544 111.121 56.5076C110.755 56.2607 110.459 55.9241 110.26 55.5299C109.87 54.9899 109.62 54.6299 109.05 54.6299C108.48 54.6299 108.21 54.9899 107.82 55.5299C107.626 55.9382 107.324 56.2855 106.947 56.5342C106.57 56.7828 106.132 56.9231 105.68 56.9399C105.242 56.8961 104.822 56.7443 104.457 56.4982C104.093 56.2522 103.795 55.9194 103.59 55.5299C103.2 54.9899 102.94 54.6299 102.37 54.6299C101.8 54.6299 101.53 54.9899 101.14 55.5299C100.945 55.9245 100.65 56.2618 100.286 56.5089C99.9212 56.756 99.4989 56.9045 99.06 56.9399C98.621 56.9045 98.1988 56.756 97.8342 56.5089C97.4697 56.2618 97.1754 55.9245 96.98 55.5299C96.59 54.9899 96.33 54.6299 95.76 54.6299C95.19 54.6299 94.93 54.9899 94.54 55.5299C94.3445 55.9245 94.0502 56.2618 93.6857 56.5089C93.3212 56.756 92.8989 56.9045 92.46 56.9399C92.0125 56.9027 91.5825 56.7494 91.2124 56.4951C90.8424 56.2408 90.5451 55.8943 90.35 55.4899C89.96 54.9499 89.71 54.5899 89.14 54.5899C88.57 54.5899 88.31 54.9499 87.92 55.4899C87.7308 55.8887 87.4416 56.2318 87.0807 56.4858C86.7197 56.7399 86.2992 56.8963 85.86 56.9399C85.4201 56.9033 84.9969 56.7544 84.631 56.5076C84.2651 56.2607 83.9686 55.9241 83.77 55.5299C83.38 54.9899 83.13 54.6299 82.56 54.6299C81.99 54.6299 81.72 54.9899 81.33 55.5299C81.1395 55.9324 80.8438 56.2759 80.4742 56.5241C80.1045 56.7723 79.6746 56.916 79.23 56.9399V55.2599C79.86 55.2599 80.07 54.8999 80.46 54.3599C80.6573 53.9639 80.9532 53.6252 81.3192 53.3765C81.6853 53.1279 82.1091 52.9775 82.55 52.9399C82.9899 52.9765 83.413 53.1254 83.7789 53.3722C84.1449 53.6191 84.4413 53.9557 84.64 54.3499C85.03 54.8899 85.28 55.2499 85.86 55.2499C86.44 55.2499 86.68 54.8899 87.07 54.3499C87.2686 53.9557 87.5651 53.6191 87.931 53.3722C88.2969 53.1254 88.7201 52.9765 89.16 52.9399C89.5987 52.9763 90.0205 53.1251 90.3849 53.3721C90.7492 53.6191 91.0438 53.9559 91.24 54.3499C91.63 54.8899 91.89 55.2499 92.46 55.2499C93.03 55.2499 93.28 54.8899 93.67 54.3499C93.8686 53.9557 94.1651 53.6191 94.531 53.3722C94.8969 53.1254 95.3201 52.9765 95.76 52.9399C96.1987 52.9763 96.6205 53.1251 96.9849 53.3721C97.3492 53.6191 97.6438 53.9559 97.84 54.3499C98.23 54.8899 98.49 55.2499 99.06 55.2499C99.63 55.2499 99.89 54.8899 100.28 54.3499C100.475 53.9567 100.767 53.6203 101.13 53.3733C101.493 53.1262 101.913 52.977 102.35 52.9399C102.789 52.9709 103.212 53.1141 103.58 53.3557C103.948 53.5974 104.247 53.9294 104.45 54.3199C104.84 54.8599 105.06 55.2199 105.68 55.2199C106.3 55.2199 106.52 54.8599 106.91 54.3199C107.112 53.9313 107.411 53.6007 107.776 53.3593C108.142 53.1179 108.563 52.9735 109 52.9399C109.44 52.9765 109.863 53.1254 110.229 53.3722C110.595 53.6191 110.891 53.9557 111.09 54.3499C111.48 54.8899 111.73 55.2499 112.31 55.2499C112.89 55.2499 113.13 54.8899 113.52 54.3499C113.719 53.9557 114.015 53.6191 114.381 53.3722C114.747 53.1254 115.17 52.9765 115.61 52.9399C116.049 52.9763 116.471 53.1251 116.835 53.3721C117.199 53.6191 117.494 53.9559 117.69 54.3499C118.08 54.8899 118.34 55.2499 118.91 55.2499C119.48 55.2499 119.73 54.8899 120.12 54.3499C120.319 53.9557 120.615 53.6191 120.981 53.3722C121.347 53.1254 121.77 52.9765 122.21 52.9399C122.649 52.9753 123.071 53.1238 123.436 53.3709C123.8 53.618 124.095 53.9553 124.29 54.3499C124.68 54.8899 124.94 55.2499 125.51 55.2499C126.08 55.2499 126.34 54.8899 126.73 54.3499C126.925 53.9553 127.22 53.618 127.584 53.3709C127.949 53.1238 128.371 52.9753 128.81 52.9399C129.251 52.9767 129.676 53.1256 130.043 53.3723C130.411 53.6191 130.709 53.9556 130.91 54.3499C131.29 54.8599 131.51 55.2199 132.13 55.2199Z" fill="url(#paint60_linear)"/>
<path opacity="0.59" d="M138.97 59.1299V60.8099C138.531 60.7659 138.109 60.6142 137.743 60.3682C137.377 60.1223 137.077 59.7896 136.87 59.3999C136.48 58.8599 136.22 58.4999 135.65 58.4999C135.08 58.4999 134.82 58.8599 134.43 59.3999C134.232 59.7927 133.937 60.1285 133.573 60.3753C133.209 60.622 132.788 60.7717 132.35 60.8099C131.91 60.7742 131.486 60.6258 131.12 60.3788C130.754 60.1318 130.458 59.7947 130.26 59.3999C129.87 58.8599 129.62 58.4999 129.04 58.4999C128.46 58.4999 128.22 58.8599 127.83 59.3999C127.631 59.7941 127.335 60.1307 126.969 60.3776C126.603 60.6244 126.18 60.7733 125.74 60.8099C125.301 60.7735 124.879 60.6247 124.515 60.3777C124.151 60.1307 123.856 59.7939 123.66 59.3999C123.27 58.8599 123.01 58.4999 122.44 58.4999C121.87 58.4999 121.61 58.8599 121.23 59.3999C121.031 59.7941 120.735 60.1307 120.369 60.3776C120.003 60.6244 119.58 60.7733 119.14 60.8099C118.701 60.7745 118.279 60.626 117.914 60.3789C117.55 60.1318 117.255 59.7945 117.06 59.3999C116.67 58.8599 116.41 58.4999 115.84 58.4999C115.27 58.4999 115 58.8599 114.61 59.3999C114.423 59.8029 114.129 60.1473 113.761 60.3958C113.393 60.6442 112.964 60.7874 112.52 60.8099C112.081 60.7659 111.659 60.6142 111.293 60.3682C110.927 60.1223 110.627 59.7896 110.42 59.3999C110.03 58.8599 109.77 58.4999 109.2 58.4999C108.63 58.4999 108.37 58.8599 107.98 59.3999C107.781 59.7941 107.485 60.1307 107.119 60.3776C106.753 60.6244 106.33 60.7733 105.89 60.8099C105.451 60.7735 105.029 60.6247 104.665 60.3777C104.301 60.1307 104.006 59.7939 103.81 59.3999C103.42 58.8599 103.16 58.4999 102.59 58.4999C102.02 58.4999 101.77 58.8599 101.38 59.3999C101.181 59.7941 100.885 60.1307 100.519 60.3776C100.153 60.6244 99.7298 60.7733 99.2899 60.8099C98.851 60.7745 98.4287 60.626 98.0642 60.3789C97.6997 60.1318 97.4054 59.7945 97.2099 59.3999C96.8199 58.8599 96.5599 58.4999 95.9899 58.4999C95.4199 58.4999 95.1599 58.8599 94.7699 59.3999C94.5745 59.7945 94.2802 60.1318 93.9157 60.3789C93.5512 60.626 93.1289 60.7745 92.6899 60.8099C92.251 60.7745 91.8287 60.626 91.4642 60.3789C91.0997 60.1318 90.8054 59.7945 90.6099 59.3999C90.2199 58.8599 89.9599 58.4999 89.3899 58.4999C88.8199 58.4999 88.5499 58.8599 88.1599 59.3999C87.9703 59.801 87.6762 60.1435 87.3084 60.3916C86.9406 60.6398 86.5128 60.7842 86.0699 60.8099V59.1299C86.6999 59.1299 86.9099 58.7699 87.2999 58.2299C87.4936 57.84 87.7834 57.5058 88.1421 57.2591C88.5008 57.0124 88.9165 56.8612 89.3499 56.8199C89.7901 56.8556 90.2136 57.004 90.5797 57.251C90.9458 57.498 91.2421 57.8351 91.4399 58.2299C91.8299 58.7699 92.0899 59.1299 92.6599 59.1299C93.2299 59.1299 93.4899 58.7699 93.8799 58.2299C94.0754 57.8353 94.3697 57.498 94.7342 57.2509C95.0987 57.0038 95.521 56.8553 95.9599 56.8199C96.3989 56.8553 96.8212 57.0038 97.1857 57.2509C97.5502 57.498 97.8445 57.8353 98.0399 58.2299C98.4299 58.7699 98.6899 59.1299 99.2599 59.1299C99.8299 59.1299 100.09 58.7699 100.48 58.2299C100.675 57.8353 100.97 57.498 101.334 57.2509C101.699 57.0038 102.121 56.8553 102.56 56.8199C103 56.8565 103.423 57.0054 103.789 57.2522C104.155 57.4991 104.451 57.8357 104.65 58.2299C105.03 58.7699 105.29 59.1299 105.86 59.1299C106.43 59.1299 106.69 58.7699 107.08 58.2299C107.278 57.8371 107.573 57.5013 107.937 57.2546C108.301 57.0078 108.722 56.8582 109.16 56.8199C109.601 56.8567 110.025 57.0056 110.393 57.2523C110.76 57.4991 111.059 57.8356 111.26 58.2299C111.65 58.7699 111.86 59.1299 112.49 59.1299C113.12 59.1299 113.33 58.7699 113.72 58.2299C113.916 57.8359 114.211 57.4991 114.575 57.2521C114.939 57.0052 115.361 56.8563 115.8 56.8199C116.241 56.8537 116.665 57.0014 117.031 57.2485C117.398 57.4957 117.694 57.8339 117.89 58.2299C118.28 58.7699 118.54 59.1299 119.11 59.1299C119.68 59.1299 119.94 58.7699 120.33 58.2299C120.525 57.8353 120.82 57.498 121.184 57.2509C121.549 57.0038 121.971 56.8553 122.41 56.8199C122.849 56.8553 123.271 57.0038 123.636 57.2509C124 57.498 124.295 57.8353 124.49 58.2299C124.88 58.7699 125.14 59.1299 125.71 59.1299C126.28 59.1299 126.54 58.7699 126.93 58.2299C127.126 57.8359 127.421 57.4991 127.785 57.2521C128.149 57.0052 128.571 56.8563 129.01 56.8199C129.45 56.8565 129.873 57.0054 130.239 57.2522C130.605 57.4991 130.901 57.8357 131.1 58.2299C131.49 58.7699 131.74 59.1299 132.32 59.1299C132.9 59.1299 133.14 58.7699 133.53 58.2299C133.728 57.8371 134.023 57.5013 134.387 57.2546C134.751 57.0078 135.172 56.8582 135.61 56.8199C136.052 56.8549 136.477 57.0029 136.845 57.2499C137.212 57.4969 137.51 57.8344 137.71 58.2299C138.13 58.7699 138.35 59.1299 138.97 59.1299Z" fill="url(#paint61_linear)"/>
<path opacity="0.59" d="M144.48 62.11V63.83H144.02C143.9 63.6767 143.79 63.5267 143.69 63.38C143.3 62.85 143.04 62.49 142.47 62.49C142.377 62.4796 142.283 62.4796 142.19 62.49C141.8 62.59 141.57 62.91 141.25 63.35C141.15 63.4967 141.04 63.6467 140.92 63.8H137.4C137.28 63.6467 137.17 63.4967 137.07 63.35C136.68 62.81 136.42 62.45 135.85 62.45C135.28 62.45 135.03 62.81 134.64 63.35L134.3 63.8H130.8C130.68 63.6467 130.57 63.4967 130.47 63.35C130.08 62.81 129.82 62.45 129.25 62.45C128.68 62.45 128.42 62.81 128.03 63.35C127.93 63.5 127.83 63.65 127.71 63.8H124.2C124.08 63.6467 123.97 63.4967 123.87 63.35C123.48 62.81 123.22 62.45 122.65 62.45C122.08 62.45 121.81 62.81 121.42 63.35C121.32 63.5 121.22 63.65 121.1 63.8H117.57L117.23 63.35C116.84 62.81 116.58 62.45 116.01 62.45C115.44 62.45 115.18 62.81 114.79 63.35C114.69 63.4967 114.58 63.6467 114.46 63.8H110.95C110.83 63.6467 110.72 63.4967 110.62 63.35C110.23 62.81 109.98 62.45 109.4 62.45C108.82 62.45 108.58 62.81 108.19 63.35C108.08 63.5 107.98 63.65 107.85 63.8H104.35C104.23 63.6467 104.12 63.4967 104.02 63.35C103.63 62.81 103.37 62.45 102.8 62.45C102.23 62.45 101.97 62.81 101.59 63.35L101.25 63.8H97.74C97.62 63.65 97.52 63.5 97.42 63.35C97.03 62.81 96.77 62.45 96.2 62.45C95.63 62.45 95.36 62.81 94.97 63.35L94.65 63.8H92.88V63.09C93.51 63.09 93.72 62.73 94.11 62.18C94.3091 61.789 94.6045 61.4553 94.9685 61.2103C95.3325 60.9654 95.7529 60.8173 96.19 60.78C96.6294 60.8137 97.0527 60.9603 97.4188 61.2056C97.785 61.4508 98.0816 61.7865 98.28 62.18C98.67 62.73 98.93 63.09 99.5 63.09C100.07 63.09 100.33 62.73 100.71 62.18C100.911 61.7883 101.208 61.4542 101.574 61.2092C101.939 60.9643 102.361 60.8165 102.8 60.78C103.238 60.8154 103.659 60.9627 104.023 61.2079C104.387 61.4531 104.682 61.7879 104.88 62.18C105.27 62.73 105.53 63.09 106.1 63.09C106.67 63.09 106.93 62.73 107.32 62.18C107.518 61.7879 107.813 61.4531 108.177 61.2079C108.541 60.9627 108.962 60.8154 109.4 60.78C109.839 60.8165 110.261 60.9643 110.626 61.2092C110.992 61.4542 111.289 61.7883 111.49 62.18C111.88 62.73 112.13 63.09 112.7 63.09C113.27 63.09 113.53 62.73 113.92 62.18C114.119 61.789 114.415 61.4553 114.779 61.2103C115.142 60.9654 115.563 60.8173 116 60.78C116.44 60.8167 116.863 60.9644 117.23 61.2093C117.598 61.4541 117.897 61.7881 118.1 62.18C118.49 62.73 118.7 63.09 119.33 63.09C119.96 63.09 120.17 62.73 120.56 62.18C120.759 61.789 121.055 61.4553 121.419 61.2103C121.782 60.9654 122.203 60.8173 122.64 60.78C123.079 60.8156 123.501 60.963 123.867 61.208C124.233 61.4531 124.53 61.7877 124.73 62.18C125.12 62.73 125.38 63.09 125.95 63.09C126.52 63.09 126.78 62.73 127.17 62.18C127.368 61.7879 127.663 61.4531 128.027 61.2079C128.391 60.9627 128.812 60.8154 129.25 60.78C129.694 60.815 130.122 60.9653 130.49 61.2161C130.858 61.4669 131.155 61.8095 131.35 62.21C131.74 62.76 132 63.12 132.57 63.12C133.14 63.12 133.4 62.76 133.79 62.21C133.99 61.8196 134.286 61.4864 134.649 61.2415C135.013 60.9967 135.433 60.8482 135.87 60.81C136.309 60.8456 136.731 60.993 137.097 61.238C137.463 61.4831 137.76 61.8177 137.96 62.21C138.35 62.76 138.6 63.12 139.18 63.12C139.76 63.12 140 62.76 140.39 62.21C140.51 62.05 140.63 61.87 140.77 61.71C140.966 61.4375 141.222 61.2143 141.519 61.0581C141.816 60.9019 142.145 60.8169 142.48 60.81C142.895 60.8429 143.296 60.979 143.645 61.2061C143.994 61.4331 144.281 61.7438 144.48 62.11Z" fill="url(#paint62_linear)"/>
</g>
<path d="M84.11 36.22C83.8174 36.22 83.5365 36.1044 83.3286 35.8984C83.1208 35.6924 83.0026 35.4126 83 35.12V34.12C83.0026 33.8273 83.1208 33.5476 83.3286 33.3416C83.5365 33.1356 83.8174 33.02 84.11 33.02C84.4027 33.02 84.6835 33.1356 84.8914 33.3416C85.0993 33.5476 85.2174 33.8273 85.22 34.12V35.12C85.2174 35.4126 85.0993 35.6924 84.8914 35.8984C84.6835 36.1044 84.4027 36.22 84.11 36.22Z" fill="url(#paint63_linear)" fill-opacity="0.5"/>
<path d="M84.11 29.23C83.8174 29.23 83.5365 29.1145 83.3286 28.9084C83.1208 28.7024 83.0026 28.4227 83 28.13V27.13C83 26.8356 83.1169 26.5533 83.3251 26.3451C83.5333 26.137 83.8156 26.02 84.11 26.02C84.4044 26.02 84.6867 26.137 84.8949 26.3451C85.1031 26.5533 85.22 26.8356 85.22 27.13V28.13C85.2174 28.4227 85.0993 28.7024 84.8914 28.9084C84.6835 29.1145 84.4027 29.23 84.11 29.23Z" fill="url(#paint64_linear)" fill-opacity="0.5"/>
<path d="M88.11 32.22H87.11C86.8174 32.2174 86.5376 32.0993 86.3316 31.8914C86.1256 31.6835 86.01 31.4027 86.01 31.11C86.01 30.8174 86.1256 30.5365 86.3316 30.3286C86.5376 30.1208 86.8174 30.0026 87.11 30H88.11C88.4044 30 88.6867 30.117 88.8949 30.3251C89.1031 30.5333 89.22 30.8156 89.22 31.11C89.22 31.4044 89.1031 31.6867 88.8949 31.8949C88.6867 32.1031 88.4044 32.22 88.11 32.22Z" fill="url(#paint65_linear)" fill-opacity="0.5"/>
<path d="M81.13 32.22H80.13C79.8356 32.22 79.5533 32.1031 79.3451 31.8949C79.137 31.6867 79.02 31.4044 79.02 31.11C79.02 30.8156 79.137 30.5333 79.3451 30.3251C79.5533 30.117 79.8356 30 80.13 30H81.13C81.4227 30.0026 81.7024 30.1208 81.9084 30.3286C82.1145 30.5365 82.23 30.8174 82.23 31.11C82.23 31.4027 82.1145 31.6835 81.9084 31.8914C81.7024 32.0993 81.4227 32.2174 81.13 32.22Z" fill="url(#paint66_linear)" fill-opacity="0.5"/>
<path fill-rule="evenodd" clip-rule="evenodd" d="M99.01 0H107.01C106.998 1.35444 107.257 2.69761 107.772 3.9502C108.288 5.2028 109.049 6.33943 110.011 7.293C110.973 8.24657 112.116 8.99774 113.373 9.50218C114.63 10.0066 115.976 10.2541 117.33 10.23C118.687 10.2582 120.035 10.0137 121.296 9.51107C122.557 9.00845 123.703 8.25792 124.669 7.30393C125.634 6.34995 126.398 5.21193 126.915 3.95731C127.432 2.7027 127.692 1.35702 127.68 0H135.47C135.412 4.79575 133.466 9.37525 130.053 12.745C126.64 16.1148 122.036 18.003 117.24 18C112.443 18.003 107.838 16.1151 104.424 12.7456C101.009 9.37616 99.0605 4.79666 99 0H99.01Z" fill="url(#paint67_linear)"/>
<path d="M28.247 28.9888C28.247 33.789 25.0689 36.737 19.9071 36.737H14.9973C14.8664 36.737 14.7367 36.7112 14.6157 36.6611C14.4947 36.611 14.3846 36.5375 14.292 36.4449C14.1994 36.3523 14.126 36.2424 14.0759 36.1214C14.0257 36.0004 14 35.8707 14 35.7397V22.216C14.0057 21.9553 14.1133 21.7073 14.2997 21.5249C14.4861 21.3426 14.7366 21.2406 14.9973 21.2406H19.9071C25.0689 21.2406 28.247 24.2216 28.247 28.9888ZM23.677 28.9888C23.677 26.797 22.34 25.4051 19.9071 25.4051H18.5809V32.5725H19.9071C22.34 32.5725 23.677 31.2026 23.677 28.9888Z" fill="black"/>
<path d="M39.6557 32.989C39.7833 32.989 39.9095 33.0143 40.0272 33.0635C40.1449 33.1126 40.2518 33.1846 40.3415 33.2753C40.4312 33.3661 40.5019 33.4737 40.5498 33.592C40.5976 33.7102 40.6216 33.8368 40.6201 33.9644V35.7617C40.6231 36.0214 40.5234 36.2719 40.3428 36.4586C40.1622 36.6453 39.9154 36.7533 39.6557 36.759H31.0855C30.8248 36.7533 30.5767 36.6457 30.3944 36.4593C30.2121 36.2729 30.11 36.0225 30.1101 35.7617V22.2161C30.1157 21.9592 30.2203 21.7143 30.402 21.5326C30.5837 21.3509 30.8286 21.2463 31.0855 21.2407H39.4255C39.555 21.2393 39.6836 21.2633 39.8038 21.3116C39.924 21.3598 40.0336 21.4313 40.1262 21.5218C40.2188 21.6124 40.2927 21.7203 40.3436 21.8394C40.3945 21.9586 40.4214 22.0866 40.4228 22.2161V24.0353C40.4214 24.1648 40.3945 24.2928 40.3436 24.412C40.2927 24.5311 40.2188 24.639 40.1262 24.7295C40.0336 24.8201 39.924 24.8916 39.8038 24.9398C39.6836 24.9881 39.555 25.0121 39.4255 25.0107H34.6911V27.1258H38.746C39.0029 27.1314 39.2478 27.236 39.4295 27.4177C39.6112 27.5994 39.7158 27.8443 39.7214 28.1012V29.7012C39.7214 29.961 39.6191 30.2102 39.4364 30.3948C39.2538 30.5795 39.0057 30.6847 38.746 30.6876H34.6911V32.989H39.6557Z" fill="black"/>
<path d="M52.4012 36.0027L51.908 34.2274H47.1737L46.6914 36.0027C46.6357 36.2132 46.5121 36.3993 46.3397 36.5321C46.1672 36.665 45.9556 36.737 45.7379 36.737H42.6146C42.4905 36.7356 42.3686 36.7045 42.259 36.6464C42.1494 36.5883 42.0552 36.5048 41.9845 36.4029C41.9137 36.301 41.8684 36.1837 41.8522 36.0607C41.8359 35.9377 41.8493 35.8126 41.8912 35.6959L46.4503 22.0407C46.5316 21.8127 46.6796 21.6145 46.8751 21.4718C47.0705 21.3291 47.3044 21.2486 47.5462 21.2406H51.4806C51.722 21.25 51.9552 21.3312 52.1504 21.4736C52.3456 21.6161 52.4939 21.8135 52.5765 22.0407L57.1356 35.6959C57.1758 35.8153 57.187 35.9425 57.168 36.0671C57.1489 36.1916 57.1003 36.3098 57.0263 36.4117C56.9522 36.5136 56.8549 36.5964 56.7424 36.653C56.6299 36.7095 56.5053 36.7384 56.3793 36.737H53.2889C53.0821 36.7248 52.8846 36.6469 52.725 36.5149C52.5654 36.3829 52.4521 36.2035 52.4012 36.0027ZM51.0094 30.9834L49.5408 25.6901L48.0832 30.9834H51.0094Z" fill="black"/>
<path d="M68.2702 32.5726C68.527 32.5755 68.7722 32.6795 68.9528 32.8621C69.1333 33.0447 69.2347 33.2912 69.2346 33.548V35.7398C69.2376 35.9995 69.1379 36.2499 68.9573 36.4367C68.7768 36.6234 68.5299 36.7313 68.2702 36.7371H59.8864C59.7554 36.7371 59.6257 36.7113 59.5047 36.6612C59.3837 36.6111 59.2738 36.5376 59.1812 36.445C59.0886 36.3524 59.0151 36.2424 58.965 36.1214C58.9149 36.0005 58.889 35.8708 58.889 35.7398V22.2161C58.8905 22.0866 58.9175 21.9586 58.9684 21.8394C59.0193 21.7203 59.093 21.6124 59.1856 21.5218C59.2782 21.4313 59.3878 21.3598 59.508 21.3116C59.6283 21.2633 59.7568 21.2393 59.8864 21.2407H62.4947C62.7516 21.2463 62.9964 21.3509 63.1782 21.5326C63.3599 21.7143 63.4645 21.9592 63.4701 22.2161V32.5726H68.2702Z" fill="black"/>
<path d="M82.7475 31.9916C82.7475 34.6766 80.424 37 76.665 37C74.1225 37 71.3608 36.1342 70.3854 33.7122C70.3438 33.6126 70.3235 33.5055 70.3256 33.3976C70.3277 33.2898 70.3521 33.1835 70.3974 33.0856C70.4428 32.9877 70.5081 32.9003 70.589 32.8289C70.6699 32.7576 70.7648 32.7038 70.8677 32.6711L73.3445 31.893C73.5146 31.84 73.6977 31.847 73.8633 31.9128C74.0288 31.9787 74.1667 32.0993 74.254 32.2546C74.5127 32.5823 74.8478 32.8416 75.23 33.0097C75.6121 33.1778 76.0295 33.2497 76.4459 33.219C77.6404 33.219 78.1446 32.6711 78.1446 32.1231C78.1446 31.1916 77.0486 31.1039 75.4486 30.7203C72.4457 29.997 70.7362 28.7806 70.7362 25.9421C70.7362 23.1037 73.2129 21.0105 76.6213 21.0105C77.7527 20.941 78.8782 21.2186 79.8476 21.8061C80.817 22.3937 81.584 23.2631 82.046 24.2982C82.0904 24.4063 82.1109 24.5227 82.1061 24.6394C82.1013 24.7561 82.0713 24.8704 82.0182 24.9745C81.9651 25.0786 81.8902 25.17 81.7986 25.2424C81.7069 25.3148 81.6006 25.3666 81.4871 25.3942L79.0323 25.9859C78.877 26.0221 78.7145 26.0124 78.5647 25.9579C78.4149 25.9035 78.2841 25.8065 78.1884 25.6791C78.0215 25.4335 77.7928 25.2363 77.5254 25.1074C77.2579 24.9785 76.9611 24.9224 76.665 24.9448C75.7554 24.9448 75.1199 25.3284 75.1199 26.0407C75.1199 26.9284 76.4678 27.038 77.6623 27.3668C81.4542 28.2764 82.7475 29.5367 82.7475 31.9916Z" fill="black"/>
</g>
<defs>
<linearGradient id="paint0_linear" x1="76" y1="0" x2="76" y2="64" gradientUnits="userSpaceOnUse">
<stop stop-color="#FF9894"/>
<stop offset="1" stop-color="#FE5252"/>
</linearGradient>
<linearGradient id="paint1_linear" x1="20.51" y1="28.86" x2="21.22" y2="28.86" gradientUnits="userSpaceOnUse">
<stop offset="0.15" stop-color="#9F3632"/>
<stop offset="0.48" stop-color="#C04342"/>
<stop offset="0.79" stop-color="#E25052"/>
</linearGradient>
<linearGradient id="paint2_linear" x1="-71.1132" y1="-23.4002" x2="-70.0107" y2="-23.4002" gradientUnits="userSpaceOnUse">
<stop offset="0.15" stop-color="#9F3632"/>
<stop offset="0.48" stop-color="#C04342"/>
<stop offset="0.79" stop-color="#E25052"/>
</linearGradient>
<linearGradient id="paint3_linear" x1="-71.1132" y1="-16.9242" x2="-70.0107" y2="-16.9242" gradientUnits="userSpaceOnUse">
<stop offset="0.15" stop-color="#9F3632"/>
<stop offset="0.48" stop-color="#C04342"/>
<stop offset="0.79" stop-color="#E25052"/>
</linearGradient>
<linearGradient id="paint4_linear" x1="-41.4445" y1="-9.99357" x2="-40.9404" y2="-9.99357" gradientUnits="userSpaceOnUse">
<stop offset="0.15" stop-color="#9F3632"/>
<stop offset="0.48" stop-color="#C04342"/>
<stop offset="0.79" stop-color="#E25052"/>
</linearGradient>
<linearGradient id="paint5_linear" x1="-77.785" y1="-42.8293" x2="-76.6825" y2="-42.8293" gradientUnits="userSpaceOnUse">
<stop offset="0.15" stop-color="#9F3632"/>
<stop offset="0.48" stop-color="#C04342"/>
<stop offset="0.79" stop-color="#E25052"/>
</linearGradient>
<linearGradient id="paint6_linear" x1="-77.785" y1="-36.3531" x2="-76.6825" y2="-36.3531" gradientUnits="userSpaceOnUse">
<stop offset="0.15" stop-color="#9F3632"/>
<stop offset="0.48" stop-color="#C04342"/>
<stop offset="0.79" stop-color="#E25052"/>
</linearGradient>
<linearGradient id="paint7_linear" x1="-77.785" y1="-28.1531" x2="-76.6825" y2="-28.1531" gradientUnits="userSpaceOnUse">
<stop offset="0.15" stop-color="#9F3632"/>
<stop offset="0.48" stop-color="#C04342"/>
<stop offset="0.79" stop-color="#E25052"/>
</linearGradient>
<linearGradient id="paint8_linear" x1="-77.785" y1="-23.4002" x2="-76.6825" y2="-23.4002" gradientUnits="userSpaceOnUse">
<stop offset="0.15" stop-color="#9F3632"/>
<stop offset="0.48" stop-color="#C04342"/>
<stop offset="0.79" stop-color="#E25052"/>
</linearGradient>
<linearGradient id="paint9_linear" x1="-77.785" y1="-16.9242" x2="-76.6825" y2="-16.9242" gradientUnits="userSpaceOnUse">
<stop offset="0.15" stop-color="#9F3632"/>
<stop offset="0.48" stop-color="#C04342"/>
<stop offset="0.79" stop-color="#E25052"/>
</linearGradient>
<linearGradient id="paint10_linear" x1="-77.785" y1="-10.4478" x2="-76.6825" y2="-10.4478" gradientUnits="userSpaceOnUse">
<stop offset="0.15" stop-color="#9F3632"/>
<stop offset="0.48" stop-color="#C04342"/>
<stop offset="0.79" stop-color="#E25052"/>
</linearGradient>
<linearGradient id="paint11_linear" x1="-77.785" y1="-3.97134" x2="-76.6825" y2="-3.97134" gradientUnits="userSpaceOnUse">
<stop offset="0.15" stop-color="#9F3632"/>
<stop offset="0.48" stop-color="#C04342"/>
<stop offset="0.79" stop-color="#E25052"/>
</linearGradient>
<linearGradient id="paint12_linear" x1="-78.0044" y1="0.474171" x2="-76.8993" y2="0.474171" gradientUnits="userSpaceOnUse">
<stop offset="0.15" stop-color="#9F3632"/>
<stop offset="0.48" stop-color="#C04342"/>
<stop offset="0.79" stop-color="#E25052"/>
</linearGradient>
<linearGradient id="paint13_linear" x1="-84.4383" y1="-49.3054" x2="-83.3358" y2="-49.3054" gradientUnits="userSpaceOnUse">
<stop offset="0.15" stop-color="#9F3632"/>
<stop offset="0.48" stop-color="#C04342"/>
<stop offset="0.79" stop-color="#E25052"/>
</linearGradient>
<linearGradient id="paint14_linear" x1="-84.4383" y1="-42.8293" x2="-83.3358" y2="-42.8293" gradientUnits="userSpaceOnUse">
<stop offset="0.15" stop-color="#9F3632"/>
<stop offset="0.48" stop-color="#C04342"/>
<stop offset="0.79" stop-color="#E25052"/>
</linearGradient>
<linearGradient id="paint15_linear" x1="-84.4383" y1="-36.3531" x2="-83.3358" y2="-36.3531" gradientUnits="userSpaceOnUse">
<stop offset="0.15" stop-color="#9F3632"/>
<stop offset="0.48" stop-color="#C04342"/>
<stop offset="0.79" stop-color="#E25052"/>
</linearGradient>
<linearGradient id="paint16_linear" x1="-84.4383" y1="-29.8467" x2="-83.3358" y2="-29.8467" gradientUnits="userSpaceOnUse">
<stop offset="0.15" stop-color="#9F3632"/>
<stop offset="0.48" stop-color="#C04342"/>
<stop offset="0.79" stop-color="#E25052"/>
</linearGradient>
<linearGradient id="paint17_linear" x1="-84.4383" y1="-23.4002" x2="-83.3358" y2="-23.4002" gradientUnits="userSpaceOnUse">
<stop offset="0.15" stop-color="#9F3632"/>
<stop offset="0.48" stop-color="#C04342"/>
<stop offset="0.79" stop-color="#E25052"/>
</linearGradient>
<linearGradient id="paint18_linear" x1="-84.4383" y1="-16.9242" x2="-83.3358" y2="-16.9242" gradientUnits="userSpaceOnUse">
<stop offset="0.15" stop-color="#9F3632"/>
<stop offset="0.48" stop-color="#C04342"/>
<stop offset="0.79" stop-color="#E25052"/>
</linearGradient>
<linearGradient id="paint19_linear" x1="-84.4383" y1="-10.4478" x2="-83.3358" y2="-10.4478" gradientUnits="userSpaceOnUse">
<stop offset="0.15" stop-color="#9F3632"/>
<stop offset="0.48" stop-color="#C04342"/>
<stop offset="0.79" stop-color="#E25052"/>
</linearGradient>
<linearGradient id="paint20_linear" x1="-84.4383" y1="-3.97134" x2="-83.3358" y2="-3.97134" gradientUnits="userSpaceOnUse">
<stop offset="0.15" stop-color="#9F3632"/>
<stop offset="0.48" stop-color="#C04342"/>
<stop offset="0.79" stop-color="#E25052"/>
</linearGradient>
<linearGradient id="paint21_linear" x1="-84.4383" y1="2.50473" x2="-83.3358" y2="2.50473" gradientUnits="userSpaceOnUse">
<stop offset="0.15" stop-color="#9F3632"/>
<stop offset="0.48" stop-color="#C04342"/>
<stop offset="0.79" stop-color="#E25052"/>
</linearGradient>
<linearGradient id="paint22_linear" x1="-84.4383" y1="8.9813" x2="-83.3358" y2="8.9813" gradientUnits="userSpaceOnUse">
<stop offset="0.15" stop-color="#9F3632"/>
<stop offset="0.48" stop-color="#C04342"/>
<stop offset="0.79" stop-color="#E25052"/>
</linearGradient>
<linearGradient id="paint23_linear" x1="-91.1008" y1="-55.7819" x2="-89.9983" y2="-55.7819" gradientUnits="userSpaceOnUse">
<stop offset="0.15" stop-color="#9F3632"/>
<stop offset="0.48" stop-color="#C04342"/>
<stop offset="0.79" stop-color="#E25052"/>
</linearGradient>
<linearGradient id="paint24_linear" x1="-91.1008" y1="-49.3054" x2="-89.9983" y2="-49.3054" gradientUnits="userSpaceOnUse">
<stop offset="0.15" stop-color="#9F3632"/>
<stop offset="0.48" stop-color="#C04342"/>
<stop offset="0.79" stop-color="#E25052"/>
</linearGradient>
<linearGradient id="paint25_linear" x1="-90.1205" y1="-42.8293" x2="-89.0285" y2="-42.8293" gradientUnits="userSpaceOnUse">
<stop offset="0.15" stop-color="#9F3632"/>
<stop offset="0.48" stop-color="#C04342"/>
<stop offset="0.79" stop-color="#E25052"/>
</linearGradient>
<linearGradient id="paint26_linear" x1="-91.1008" y1="-36.3531" x2="-89.9983" y2="-36.3531" gradientUnits="userSpaceOnUse">
<stop offset="0.15" stop-color="#9F3632"/>
<stop offset="0.48" stop-color="#C04342"/>
<stop offset="0.79" stop-color="#E25052"/>
</linearGradient>
<linearGradient id="paint27_linear" x1="-91.1008" y1="-29.8467" x2="-89.9983" y2="-29.8467" gradientUnits="userSpaceOnUse">
<stop offset="0.15" stop-color="#9F3632"/>
<stop offset="0.48" stop-color="#C04342"/>
<stop offset="0.79" stop-color="#E25052"/>
</linearGradient>
<linearGradient id="paint28_linear" x1="-91.1008" y1="-23.4002" x2="-89.9983" y2="-23.4002" gradientUnits="userSpaceOnUse">
<stop offset="0.15" stop-color="#9F3632"/>
<stop offset="0.48" stop-color="#C04342"/>
<stop offset="0.79" stop-color="#E25052"/>
</linearGradient>
<linearGradient id="paint29_linear" x1="-91.1008" y1="-16.9242" x2="-89.9983" y2="-16.9242" gradientUnits="userSpaceOnUse">
<stop offset="0.15" stop-color="#9F3632"/>
<stop offset="0.48" stop-color="#C04342"/>
<stop offset="0.79" stop-color="#E25052"/>
</linearGradient>
<linearGradient id="paint30_linear" x1="-91.1008" y1="-10.4478" x2="-89.9983" y2="-10.4478" gradientUnits="userSpaceOnUse">
<stop offset="0.15" stop-color="#9F3632"/>
<stop offset="0.48" stop-color="#C04342"/>
<stop offset="0.79" stop-color="#E25052"/>
</linearGradient>
<linearGradient id="paint31_linear" x1="-91.1008" y1="-3.97134" x2="-89.9983" y2="-3.97134" gradientUnits="userSpaceOnUse">
<stop offset="0.15" stop-color="#9F3632"/>
<stop offset="0.48" stop-color="#C04342"/>
<stop offset="0.79" stop-color="#E25052"/>
</linearGradient>
<linearGradient id="paint32_linear" x1="-91.1008" y1="2.50473" x2="-89.9983" y2="2.50473" gradientUnits="userSpaceOnUse">
<stop offset="0.15" stop-color="#9F3632"/>
<stop offset="0.48" stop-color="#C04342"/>
<stop offset="0.79" stop-color="#E25052"/>
</linearGradient>
<linearGradient id="paint33_linear" x1="-91.1008" y1="8.9813" x2="-89.9983" y2="8.9813" gradientUnits="userSpaceOnUse">
<stop offset="0.15" stop-color="#9F3632"/>
<stop offset="0.48" stop-color="#C04342"/>
<stop offset="0.79" stop-color="#E25052"/>
</linearGradient>
<linearGradient id="paint34_linear" x1="-91.1008" y1="15.4576" x2="-89.9983" y2="15.4576" gradientUnits="userSpaceOnUse">
<stop offset="0.15" stop-color="#9F3632"/>
<stop offset="0.48" stop-color="#C04342"/>
<stop offset="0.79" stop-color="#E25052"/>
</linearGradient>
<linearGradient id="paint35_linear" x1="-96.7605" y1="-55.7752" x2="-95.6789" y2="-55.7752" gradientUnits="userSpaceOnUse">
<stop offset="0.15" stop-color="#9F3632"/>
<stop offset="0.48" stop-color="#C04342"/>
<stop offset="0.79" stop-color="#E25052"/>
</linearGradient>
<linearGradient id="paint36_linear" x1="-96.7605" y1="-49.2991" x2="-95.6789" y2="-49.2991" gradientUnits="userSpaceOnUse">
<stop offset="0.15" stop-color="#9F3632"/>
<stop offset="0.48" stop-color="#C04342"/>
<stop offset="0.79" stop-color="#E25052"/>
</linearGradient>
<linearGradient id="paint37_linear" x1="-96.7605" y1="-42.8233" x2="-95.6789" y2="-42.8233" gradientUnits="userSpaceOnUse">
<stop offset="0.15" stop-color="#9F3632"/>
<stop offset="0.48" stop-color="#C04342"/>
<stop offset="0.79" stop-color="#E25052"/>
</linearGradient>
<linearGradient id="paint38_linear" x1="-96.7605" y1="-36.3474" x2="-95.6789" y2="-36.3474" gradientUnits="userSpaceOnUse">
<stop offset="0.15" stop-color="#9F3632"/>
<stop offset="0.48" stop-color="#C04342"/>
<stop offset="0.79" stop-color="#E25052"/>
</linearGradient>
<linearGradient id="paint39_linear" x1="-96.7605" y1="-3.96713" x2="-95.6789" y2="-3.96713" gradientUnits="userSpaceOnUse">
<stop offset="0.15" stop-color="#9F3632"/>
<stop offset="0.48" stop-color="#C04342"/>
<stop offset="0.79" stop-color="#E25052"/>
</linearGradient>
<linearGradient id="paint40_linear" x1="-96.7605" y1="2.50863" x2="-95.6789" y2="2.50863" gradientUnits="userSpaceOnUse">
<stop offset="0.15" stop-color="#9F3632"/>
<stop offset="0.48" stop-color="#C04342"/>
<stop offset="0.79" stop-color="#E25052"/>
</linearGradient>
<linearGradient id="paint41_linear" x1="-96.7605" y1="8.98489" x2="-95.6789" y2="8.98489" gradientUnits="userSpaceOnUse">
<stop offset="0.15" stop-color="#9F3632"/>
<stop offset="0.48" stop-color="#C04342"/>
<stop offset="0.79" stop-color="#E25052"/>
</linearGradient>
<linearGradient id="paint42_linear" x1="-96.7605" y1="15.4609" x2="-95.6789" y2="15.4609" gradientUnits="userSpaceOnUse">
<stop offset="0.15" stop-color="#9F3632"/>
<stop offset="0.48" stop-color="#C04342"/>
<stop offset="0.79" stop-color="#E25052"/>
</linearGradient>
<linearGradient id="paint43_linear" x1="-105.175" y1="-38.6204" x2="-104.065" y2="-38.6204" gradientUnits="userSpaceOnUse">
<stop offset="0.15" stop-color="#9F3632"/>
<stop offset="0.48" stop-color="#C04342"/>
<stop offset="0.79" stop-color="#E25052"/>
</linearGradient>
<linearGradient id="paint44_linear" x1="-104.456" y1="-55.7819" x2="-103.353" y2="-55.7819" gradientUnits="userSpaceOnUse">
<stop offset="0.15" stop-color="#9F3632"/>
<stop offset="0.48" stop-color="#C04342"/>
<stop offset="0.79" stop-color="#E25052"/>
</linearGradient>
<linearGradient id="paint45_linear" x1="-104.456" y1="-49.3054" x2="-103.353" y2="-49.3054" gradientUnits="userSpaceOnUse">
<stop offset="0.15" stop-color="#9F3632"/>
<stop offset="0.48" stop-color="#C04342"/>
<stop offset="0.79" stop-color="#E25052"/>
</linearGradient>
<linearGradient id="paint46_linear" x1="-104.456" y1="-42.8293" x2="-103.353" y2="-42.8293" gradientUnits="userSpaceOnUse">
<stop offset="0.15" stop-color="#9F3632"/>
<stop offset="0.48" stop-color="#C04342"/>
<stop offset="0.79" stop-color="#E25052"/>
</linearGradient>
<linearGradient id="paint47_linear" x1="-104.705" y1="0.476289" x2="-103.6" y2="0.476289" gradientUnits="userSpaceOnUse">
<stop offset="0.15" stop-color="#9F3632"/>
<stop offset="0.48" stop-color="#C04342"/>
<stop offset="0.79" stop-color="#E25052"/>
</linearGradient>
<linearGradient id="paint48_linear" x1="-104.456" y1="8.9813" x2="-103.353" y2="8.9813" gradientUnits="userSpaceOnUse">
<stop offset="0.15" stop-color="#9F3632"/>
<stop offset="0.48" stop-color="#C04342"/>
<stop offset="0.79" stop-color="#E25052"/>
</linearGradient>
<linearGradient id="paint49_linear" x1="-104.456" y1="15.4576" x2="-103.353" y2="15.4576" gradientUnits="userSpaceOnUse">
<stop offset="0.15" stop-color="#9F3632"/>
<stop offset="0.48" stop-color="#C04342"/>
<stop offset="0.79" stop-color="#E25052"/>
</linearGradient>
<linearGradient id="paint50_linear" x1="-100.049" y1="32.0547" x2="-98.9904" y2="32.0547" gradientUnits="userSpaceOnUse">
<stop offset="0.15" stop-color="#9F3632"/>
<stop offset="0.48" stop-color="#C04342"/>
<stop offset="0.79" stop-color="#E25052"/>
</linearGradient>
<linearGradient id="paint51_linear" x1="-111.108" y1="-62.2782" x2="-110.006" y2="-62.2782" gradientUnits="userSpaceOnUse">
<stop offset="0.15" stop-color="#9F3632"/>
<stop offset="0.48" stop-color="#C04342"/>
<stop offset="0.79" stop-color="#E25052"/>
</linearGradient>
<linearGradient id="paint52_linear" x1="-111.108" y1="-55.7819" x2="-110.006" y2="-55.7819" gradientUnits="userSpaceOnUse">
<stop offset="0.15" stop-color="#9F3632"/>
<stop offset="0.48" stop-color="#C04342"/>
<stop offset="0.79" stop-color="#E25052"/>
</linearGradient>
<linearGradient id="paint53_linear" x1="-111.108" y1="-49.3054" x2="-110.006" y2="-49.3054" gradientUnits="userSpaceOnUse">
<stop offset="0.15" stop-color="#9F3632"/>
<stop offset="0.48" stop-color="#C04342"/>
<stop offset="0.79" stop-color="#E25052"/>
</linearGradient>
<linearGradient id="paint54_linear" x1="-111.108" y1="-42.8293" x2="-110.006" y2="-42.8293" gradientUnits="userSpaceOnUse">
<stop offset="0.15" stop-color="#9F3632"/>
<stop offset="0.48" stop-color="#C04342"/>
<stop offset="0.79" stop-color="#E25052"/>
</linearGradient>
<linearGradient id="paint55_linear" x1="-111.108" y1="2.50473" x2="-110.006" y2="2.50473" gradientUnits="userSpaceOnUse">
<stop offset="0.15" stop-color="#9F3632"/>
<stop offset="0.48" stop-color="#C04342"/>
<stop offset="0.79" stop-color="#E25052"/>
</linearGradient>
<linearGradient id="paint56_linear" x1="-111.108" y1="8.98129" x2="-110.006" y2="8.98129" gradientUnits="userSpaceOnUse">
<stop offset="0.15" stop-color="#9F3632"/>
<stop offset="0.48" stop-color="#C04342"/>
<stop offset="0.79" stop-color="#E25052"/>
</linearGradient>
<linearGradient id="paint57_linear" x1="-111.108" y1="15.4576" x2="-110.006" y2="15.4576" gradientUnits="userSpaceOnUse">
<stop offset="0.15" stop-color="#9F3632"/>
<stop offset="0.48" stop-color="#C04342"/>
<stop offset="0.79" stop-color="#E25052"/>
</linearGradient>
<linearGradient id="paint58_linear" x1="-111.108" y1="21.9338" x2="-110.006" y2="21.9338" gradientUnits="userSpaceOnUse">
<stop offset="0.15" stop-color="#9F3632"/>
<stop offset="0.48" stop-color="#C04342"/>
<stop offset="0.79" stop-color="#E25052"/>
</linearGradient>
<linearGradient id="paint59_linear" x1="73.02" y1="50.99" x2="125.92" y2="50.99" gradientUnits="userSpaceOnUse">
<stop stop-color="#E95456"/>
<stop offset="0.26" stop-color="#9F3632"/>
<stop offset="0.42" stop-color="#C04341"/>
<stop offset="0.51" stop-color="#D24A4A"/>
<stop offset="0.8" stop-color="#A63935"/>
<stop offset="1" stop-color="#E95256"/>
</linearGradient>
<linearGradient id="paint60_linear" x1="-1408.32" y1="-63.22" x2="1390.09" y2="-63.22" gradientUnits="userSpaceOnUse">
<stop stop-color="#E95456"/>
<stop offset="0.26" stop-color="#9F3632"/>
<stop offset="0.42" stop-color="#C04341"/>
<stop offset="0.51" stop-color="#D24A4A"/>
<stop offset="0.8" stop-color="#A63935"/>
<stop offset="1" stop-color="#E95256"/>
</linearGradient>
<linearGradient id="paint61_linear" x1="-1039.64" y1="-43.4489" x2="1758.77" y2="-43.4489" gradientUnits="userSpaceOnUse">
<stop stop-color="#E95456"/>
<stop offset="0.26" stop-color="#9F3632"/>
<stop offset="0.42" stop-color="#C04341"/>
<stop offset="0.51" stop-color="#D24A4A"/>
<stop offset="0.8" stop-color="#A63935"/>
<stop offset="1" stop-color="#E95256"/>
</linearGradient>
<linearGradient id="paint62_linear" x1="-653.772" y1="-5.16096" x2="2008.79" y2="-5.16096" gradientUnits="userSpaceOnUse">
<stop stop-color="#E95456"/>
<stop offset="0.26" stop-color="#9F3632"/>
<stop offset="0.42" stop-color="#C04341"/>
<stop offset="0.51" stop-color="#D24A4A"/>
<stop offset="0.8" stop-color="#A63935"/>
<stop offset="1" stop-color="#E95256"/>
</linearGradient>
<linearGradient id="paint63_linear" x1="84.11" y1="33.02" x2="84.11" y2="36.22" gradientUnits="userSpaceOnUse">
<stop stop-color="#FF4F5B"/>
<stop offset="1" stop-color="#F14241"/>
</linearGradient>
<linearGradient id="paint64_linear" x1="84.11" y1="26.02" x2="84.11" y2="29.23" gradientUnits="userSpaceOnUse">
<stop stop-color="#FF4F5B"/>
<stop offset="1" stop-color="#F14241"/>
</linearGradient>
<linearGradient id="paint65_linear" x1="87.615" y1="30" x2="87.615" y2="32.22" gradientUnits="userSpaceOnUse">
<stop stop-color="#FF4F5B"/>
<stop offset="1" stop-color="#F14241"/>
</linearGradient>
<linearGradient id="paint66_linear" x1="80.625" y1="30" x2="80.625" y2="32.22" gradientUnits="userSpaceOnUse">
<stop stop-color="#FF4F5B"/>
<stop offset="1" stop-color="#F14241"/>
</linearGradient>
<linearGradient id="paint67_linear" x1="135.47" y1="9.01" x2="99.01" y2="9.01" gradientUnits="userSpaceOnUse">
<stop stop-color="#FF8594"/>
<stop offset="1" stop-color="#FE4652"/>
</linearGradient>
<clipPath id="clip0">
<rect width="152" height="64" fill="white"/>
</clipPath>
</defs>
</svg>
