<svg width="152" height="64" viewBox="0 0 152 64" fill="none" xmlns="http://www.w3.org/2000/svg">
<g clip-path="url(#clip0)">
<path d="M140 0H12C5.37258 0 0 5.37258 0 12V52C0 58.6274 5.37258 64 12 64H140C153 64 152 65 152 57.3726V12C152 5.37258 146.627 0 140 0Z" fill="url(#paint0_linear)"/>
<path fill-rule="evenodd" clip-rule="evenodd" d="M122.79 15.1301C130.1 15.1301 136.03 8.00008 136.03 0.270085H109.55C109.55 0.270085 109.55 -0.329915 109.55 0.270085C109.55 8.00008 115.48 15.1301 122.8 15.1301H122.79Z" fill="url(#paint1_linear)"/>
<path fill-rule="evenodd" clip-rule="evenodd" d="M15.1267 32.2401C15.1267 24.9301 7.99672 19 0.266724 19L0.266726 45.48C7.99672 45.48 15.1267 39.55 15.1267 32.23V32.2401Z" fill="url(#paint2_linear)"/>
<path d="M149.36 48.1901H148.25C148.242 47.9328 148.181 47.6797 148.073 47.4461C147.965 47.2125 147.811 47.003 147.62 46.8301C147.332 46.5597 147.102 46.2328 146.945 45.8698C146.789 45.5068 146.709 45.1154 146.71 44.7201C146.712 44.3208 146.793 43.9258 146.949 43.5583C147.105 43.1909 147.334 42.8583 147.62 42.5801C147.818 42.4042 147.976 42.1886 148.084 41.9473C148.193 41.7061 148.249 41.4447 148.25 41.1801C148.249 40.9156 148.193 40.6541 148.084 40.4129C147.976 40.1716 147.818 39.956 147.62 39.7801C147.334 39.5019 147.105 39.1693 146.949 38.8019C146.793 38.4344 146.712 38.0394 146.71 37.6401C146.708 37.2403 146.788 36.8443 146.944 36.4763C147.101 36.1084 147.331 35.7762 147.62 35.5001C147.817 35.3215 147.975 35.104 148.083 34.8612C148.191 34.6185 148.248 34.3559 148.25 34.0901C148.249 33.8242 148.192 33.5614 148.084 33.3186C147.975 33.0758 147.817 32.8583 147.62 32.6801C147.334 32.4019 147.105 32.0693 146.949 31.7019C146.793 31.3344 146.712 30.9394 146.71 30.5401C146.708 30.1403 146.788 29.7443 146.944 29.3763C147.101 29.0084 147.331 28.6762 147.62 28.4001C147.817 28.2215 147.975 28.004 148.083 27.7612C148.191 27.5185 148.248 27.2559 148.25 26.9901C148.249 26.7242 148.192 26.4614 148.084 26.2186C147.975 25.9758 147.817 25.7583 147.62 25.5801C147.334 25.3019 147.105 24.9693 146.949 24.6019C146.793 24.2344 146.712 23.8394 146.71 23.4401C146.709 23.0434 146.789 22.6506 146.946 22.2861C147.102 21.9215 147.332 21.5928 147.62 21.3201C147.816 21.1469 147.973 20.9346 148.081 20.6969C148.19 20.4592 148.247 20.2014 148.25 19.9401H149.36C149.339 20.7322 149.017 21.4866 148.46 22.0501C148.262 22.2256 148.103 22.4411 147.995 22.6825C147.886 22.9238 147.83 23.1855 147.83 23.4501C147.829 23.715 147.884 23.977 147.993 24.2185C148.102 24.4601 148.261 24.6754 148.46 24.8501C148.745 25.1291 148.971 25.4621 149.125 25.8295C149.28 26.197 149.36 26.5915 149.36 26.9901C149.36 27.3887 149.28 27.7833 149.125 28.1507C148.971 28.5181 148.745 28.8511 148.46 29.1301C148.262 29.3075 148.103 29.5248 147.994 29.7678C147.886 30.0108 147.83 30.274 147.83 30.5401C147.83 30.8062 147.886 31.0694 147.994 31.3124C148.103 31.5554 148.262 31.7727 148.46 31.9501C148.745 32.2291 148.971 32.5621 149.125 32.9295C149.28 33.297 149.36 33.6915 149.36 34.0901C149.36 34.4887 149.28 34.8833 149.125 35.2507C148.971 35.6181 148.745 35.9511 148.46 36.2301C148.261 36.4067 148.101 36.6239 147.993 36.867C147.884 37.1102 147.829 37.3738 147.83 37.6401C147.83 37.9062 147.886 38.1694 147.994 38.4124C148.103 38.6554 148.262 38.8727 148.46 39.0501C148.745 39.3291 148.971 39.6621 149.125 40.0295C149.28 40.397 149.36 40.7915 149.36 41.1901C149.36 41.5887 149.28 41.9833 149.125 42.3507C148.971 42.7181 148.745 43.0511 148.46 43.3301C148.261 43.5067 148.101 43.7239 147.993 43.967C147.884 44.2102 147.829 44.4738 147.83 44.7401C147.828 44.9992 147.884 45.2554 147.993 45.4905C148.102 45.7256 148.261 45.9338 148.46 46.1001C149.01 46.6603 149.331 47.4056 149.36 48.1901Z" fill="url(#paint3_linear)"/>
<path d="M152 40.97H150.93C150.924 40.7122 150.865 40.4585 150.756 40.2245C150.648 39.9906 150.493 39.7814 150.3 39.61C150.014 39.3361 149.787 39.007 149.632 38.6425C149.477 38.2781 149.398 37.8859 149.4 37.49C149.402 37.0931 149.482 36.7004 149.636 36.3348C149.791 35.9692 150.016 35.6379 150.3 35.36C150.504 35.181 150.667 34.9591 150.775 34.7103C150.884 34.4614 150.937 34.1916 150.93 33.92C150.931 33.6552 150.876 33.3931 150.767 33.1516C150.658 32.9101 150.499 32.6947 150.3 32.52C150.015 32.241 149.789 31.908 149.635 31.5406C149.48 31.1732 149.4 30.7786 149.4 30.38C149.4 29.9814 149.48 29.5869 149.635 29.2194C149.789 28.852 150.015 28.519 150.3 28.24C150.487 28.0729 150.64 27.8701 150.748 27.6434C150.856 27.4168 150.918 27.1709 150.93 26.92C150.931 26.6537 150.876 26.3901 150.767 26.1469C150.659 25.9038 150.499 25.6866 150.3 25.51C150.015 25.231 149.789 24.898 149.635 24.5306C149.48 24.1632 149.4 23.7686 149.4 23.37C149.4 22.9714 149.48 22.5769 149.635 22.2094C149.789 21.842 150.015 21.509 150.3 21.23C150.498 21.0526 150.657 20.8353 150.766 20.5923C150.874 20.3493 150.93 20.0862 150.93 19.82C150.931 19.5537 150.876 19.2901 150.767 19.047C150.659 18.8038 150.499 18.5866 150.3 18.41C150.015 18.131 149.789 17.798 149.635 17.4306C149.48 17.0632 149.4 16.6686 149.4 16.27C149.4 15.8743 149.479 15.4825 149.634 15.1182C149.788 14.7539 150.015 14.4246 150.3 14.15C150.497 13.978 150.655 13.7659 150.764 13.528C150.872 13.29 150.929 13.0316 150.93 12.77H152.04C152.019 13.5621 151.697 14.3165 151.14 14.88C150.942 15.0555 150.783 15.2711 150.675 15.5124C150.566 15.7537 150.51 16.0154 150.51 16.28C150.509 16.5449 150.564 16.8069 150.673 17.0485C150.782 17.29 150.941 17.5054 151.14 17.68C151.425 17.959 151.651 18.292 151.805 18.6594C151.96 19.0269 152.04 19.4214 152.04 19.82C152.04 20.2186 151.96 20.6132 151.805 20.9806C151.651 21.348 151.425 21.681 151.14 21.96C150.942 22.1374 150.783 22.3548 150.674 22.5977C150.566 22.8407 150.51 23.1039 150.51 23.37C150.51 23.6362 150.566 23.8993 150.674 24.1423C150.783 24.3853 150.942 24.6026 151.14 24.78C151.425 25.059 151.651 25.392 151.805 25.7594C151.96 26.1269 152.04 26.5214 152.04 26.92C152.04 27.3186 151.96 27.7132 151.805 28.0806C151.651 28.448 151.425 28.781 151.14 29.06C150.941 29.2366 150.781 29.4538 150.673 29.6969C150.564 29.9401 150.508 30.2037 150.51 30.47C150.51 30.7362 150.566 30.9993 150.674 31.2423C150.783 31.4853 150.942 31.7026 151.14 31.88C151.425 32.159 151.651 32.492 151.805 32.8594C151.96 33.2269 152.04 33.6214 152.04 34.02C152.04 34.4186 151.96 34.8132 151.805 35.1806C151.651 35.548 151.425 35.881 151.14 36.16C150.941 36.3366 150.781 36.5538 150.673 36.797C150.564 37.0401 150.508 37.3037 150.51 37.57C150.508 37.8291 150.564 38.0853 150.673 38.3204C150.782 38.5555 150.941 38.7637 151.14 38.93C151.69 39.4902 152.011 40.2355 152.04 41.02L152 40.97Z" fill="url(#paint4_linear)"/>
<path d="M106.29 38.92C106.7 38.81 107.12 38.72 107.54 38.63C107.555 38.7059 107.555 38.7841 107.54 38.86C107.54 39.0324 107.472 39.1977 107.35 39.3196C107.228 39.4415 107.062 39.51 106.89 39.51C106.729 39.5082 106.575 39.4469 106.457 39.338C106.338 39.229 106.265 39.0801 106.25 38.92H106.29Z" fill="url(#paint5_linear)"/>
<path d="M110.31 38.8601C110.31 38.6877 110.379 38.5224 110.5 38.4005C110.622 38.2786 110.788 38.2101 110.96 38.2101C111.131 38.2127 111.293 38.2824 111.413 38.404C111.533 38.5256 111.6 38.6895 111.6 38.8601C111.6 39.0308 111.533 39.1946 111.413 39.3162C111.293 39.4379 111.131 39.5075 110.96 39.5101C110.788 39.5101 110.622 39.4416 110.5 39.3197C110.379 39.1978 110.31 39.0325 110.31 38.8601Z" fill="url(#paint6_linear)"/>
<path d="M114.33 38.8601C114.33 38.6877 114.398 38.5224 114.52 38.4005C114.642 38.2786 114.808 38.2101 114.98 38.2101C115.151 38.2127 115.313 38.2824 115.433 38.404C115.553 38.5256 115.62 38.6895 115.62 38.8601C115.62 39.0308 115.553 39.1946 115.433 39.3162C115.313 39.4379 115.151 39.5075 114.98 39.5101C114.808 39.5101 114.642 39.4416 114.52 39.3197C114.398 39.1978 114.33 39.0325 114.33 38.8601Z" fill="url(#paint7_linear)"/>
<path d="M118.35 38.86C118.34 38.7837 118.34 38.7063 118.35 38.63C118.77 38.72 119.19 38.81 119.6 38.92C119.587 39.0809 119.514 39.2312 119.396 39.3406C119.277 39.45 119.121 39.5105 118.96 39.51C118.788 39.51 118.622 39.4415 118.5 39.3196C118.379 39.1977 118.31 39.0324 118.31 38.86H118.35Z" fill="url(#paint8_linear)"/>
<path d="M98.24 42.92C98.2426 42.7484 98.3119 42.5846 98.4332 42.4633C98.5546 42.3419 98.7184 42.2726 98.89 42.27C99.0624 42.27 99.2277 42.3385 99.3496 42.4604C99.4715 42.5823 99.54 42.7476 99.54 42.92C99.54 43.0924 99.4715 43.2577 99.3496 43.3796C99.2277 43.5015 99.0624 43.57 98.89 43.57C98.7184 43.5674 98.5546 43.4981 98.4332 43.3768C98.3119 43.2554 98.2426 43.0916 98.24 42.92Z" fill="url(#paint9_linear)"/>
<path d="M102.27 42.92C102.27 42.7493 102.337 42.5855 102.457 42.4639C102.577 42.3423 102.739 42.2726 102.91 42.27C102.995 42.27 103.08 42.2868 103.159 42.3195C103.238 42.3522 103.309 42.4 103.37 42.4604C103.43 42.5208 103.478 42.5924 103.511 42.6713C103.543 42.7501 103.56 42.8347 103.56 42.92C103.56 43.0924 103.492 43.2577 103.37 43.3796C103.248 43.5015 103.082 43.57 102.91 43.57C102.739 43.5674 102.577 43.4978 102.457 43.3761C102.337 43.2545 102.27 43.0907 102.27 42.92Z" fill="url(#paint10_linear)"/>
<path d="M106.29 42.92C106.29 42.7493 106.357 42.5855 106.477 42.4639C106.597 42.3423 106.759 42.2726 106.93 42.27C107.015 42.27 107.1 42.2868 107.179 42.3195C107.258 42.3522 107.329 42.4 107.39 42.4604C107.45 42.5208 107.498 42.5924 107.531 42.6713C107.563 42.7501 107.58 42.8347 107.58 42.92C107.58 43.0924 107.512 43.2577 107.39 43.3796C107.268 43.5015 107.102 43.57 106.93 43.57C106.759 43.5674 106.597 43.4978 106.477 43.3761C106.357 43.2545 106.29 43.0907 106.29 42.92Z" fill="url(#paint11_linear)"/>
<path d="M110.31 42.92C110.31 42.7476 110.379 42.5823 110.5 42.4604C110.622 42.3385 110.788 42.27 110.96 42.27C111.131 42.2726 111.293 42.3423 111.413 42.4639C111.533 42.5855 111.6 42.7493 111.6 42.92C111.6 43.0907 111.533 43.2545 111.413 43.3761C111.293 43.4978 111.131 43.5674 110.96 43.57C110.788 43.57 110.622 43.5015 110.5 43.3796C110.379 43.2577 110.31 43.0924 110.31 42.92Z" fill="url(#paint12_linear)"/>
<path d="M114.33 42.92C114.33 42.8347 114.347 42.7501 114.379 42.6713C114.412 42.5924 114.46 42.5208 114.52 42.4604C114.581 42.4 114.652 42.3522 114.731 42.3195C114.81 42.2868 114.895 42.27 114.98 42.27C115.151 42.2726 115.313 42.3423 115.433 42.4639C115.553 42.5855 115.62 42.7493 115.62 42.92C115.62 43.0907 115.553 43.2545 115.433 43.3761C115.313 43.4978 115.151 43.5674 114.98 43.57C114.808 43.57 114.642 43.5015 114.52 43.3796C114.398 43.2577 114.33 43.0924 114.33 42.92Z" fill="url(#paint13_linear)"/>
<path d="M118.35 42.92C118.35 42.8347 118.367 42.7501 118.399 42.6713C118.432 42.5924 118.48 42.5208 118.54 42.4604C118.601 42.4 118.672 42.3522 118.751 42.3195C118.83 42.2868 118.915 42.27 119 42.27C119.172 42.2726 119.335 42.3419 119.457 42.4633C119.578 42.5846 119.647 42.7484 119.65 42.92C119.647 43.0916 119.578 43.2554 119.457 43.3768C119.335 43.4981 119.172 43.5674 119 43.57C118.828 43.57 118.662 43.5015 118.54 43.3796C118.418 43.2577 118.35 43.0924 118.35 42.92Z" fill="url(#paint14_linear)"/>
<path d="M122.37 42.92C122.37 42.8347 122.387 42.7501 122.419 42.6713C122.452 42.5924 122.5 42.5208 122.56 42.4604C122.621 42.4 122.692 42.3522 122.771 42.3195C122.85 42.2868 122.935 42.27 123.02 42.27C123.105 42.27 123.19 42.2868 123.269 42.3195C123.348 42.3522 123.419 42.4 123.48 42.4604C123.54 42.5208 123.588 42.5924 123.621 42.6713C123.653 42.7501 123.67 42.8347 123.67 42.92C123.67 43.0924 123.602 43.2577 123.48 43.3796C123.358 43.5015 123.192 43.57 123.02 43.57C122.848 43.57 122.682 43.5015 122.56 43.3796C122.438 43.2577 122.37 43.0924 122.37 42.92Z" fill="url(#paint15_linear)"/>
<path d="M126.39 42.92C126.39 42.8347 126.407 42.7501 126.44 42.6713C126.472 42.5924 126.52 42.5208 126.58 42.4604C126.641 42.4 126.712 42.3522 126.791 42.3195C126.87 42.2868 126.955 42.27 127.04 42.27C127.125 42.27 127.21 42.2868 127.289 42.3195C127.368 42.3522 127.439 42.4 127.5 42.4604C127.56 42.5208 127.608 42.5924 127.641 42.6713C127.673 42.7501 127.69 42.8347 127.69 42.92C127.69 43.0924 127.622 43.2577 127.5 43.3796C127.378 43.5015 127.212 43.57 127.04 43.57C126.868 43.57 126.702 43.5015 126.58 43.3796C126.459 43.2577 126.39 43.0924 126.39 42.92Z" fill="url(#paint16_linear)"/>
<path d="M94.22 46.92C94.2226 46.7494 94.2922 46.5866 94.4138 46.4669C94.5355 46.3471 94.6993 46.28 94.87 46.28C95.0406 46.28 95.2045 46.3471 95.3261 46.4669C95.4477 46.5866 95.5173 46.7494 95.52 46.92C95.52 47.0924 95.4515 47.2577 95.3296 47.3796C95.2077 47.5015 95.0424 47.57 94.87 47.57C94.6976 47.57 94.5322 47.5015 94.4103 47.3796C94.2884 47.2577 94.22 47.0924 94.22 46.92Z" fill="url(#paint17_linear)"/>
<path d="M98.24 46.92C98.2426 46.7494 98.3123 46.5866 98.4339 46.4669C98.5555 46.3471 98.7193 46.28 98.89 46.28C99.0607 46.28 99.2245 46.3471 99.3461 46.4669C99.4677 46.5866 99.5374 46.7494 99.54 46.92C99.54 47.0924 99.4715 47.2577 99.3496 47.3796C99.2277 47.5015 99.0624 47.57 98.89 47.57C98.7184 47.5674 98.5546 47.4981 98.4332 47.3768C98.3119 47.2554 98.2426 47.0916 98.24 46.92Z" fill="url(#paint18_linear)"/>
<path d="M102.27 46.92C102.27 46.7503 102.337 46.5875 102.457 46.4675C102.578 46.3475 102.74 46.28 102.91 46.28C103.081 46.28 103.245 46.3471 103.366 46.4669C103.488 46.5866 103.557 46.7494 103.56 46.92C103.56 47.0924 103.492 47.2577 103.37 47.3796C103.248 47.5015 103.082 47.57 102.91 47.57C102.739 47.5674 102.577 47.4978 102.457 47.3762C102.337 47.2545 102.27 47.0907 102.27 46.92Z" fill="url(#paint19_linear)"/>
<path d="M106.29 46.92C106.29 46.7503 106.357 46.5875 106.478 46.4675C106.598 46.3475 106.76 46.28 106.93 46.28C107.101 46.28 107.265 46.3471 107.386 46.4669C107.508 46.5866 107.577 46.7494 107.58 46.92C107.58 47.0924 107.512 47.2577 107.39 47.3796C107.268 47.5015 107.102 47.57 106.93 47.57C106.759 47.5674 106.597 47.4978 106.477 47.3762C106.357 47.2545 106.29 47.0907 106.29 46.92Z" fill="url(#paint20_linear)"/>
<path d="M110.31 46.92C110.313 46.7494 110.382 46.5866 110.504 46.4669C110.626 46.3471 110.789 46.28 110.96 46.28C111.13 46.28 111.293 46.3475 111.413 46.4675C111.533 46.5875 111.6 46.7503 111.6 46.92C111.6 47.0907 111.533 47.2545 111.413 47.3762C111.293 47.4978 111.131 47.5674 110.96 47.57C110.788 47.57 110.622 47.5015 110.5 47.3796C110.379 47.2577 110.31 47.0924 110.31 46.92Z" fill="url(#paint21_linear)"/>
<path d="M114.33 46.92C114.333 46.7494 114.402 46.5866 114.524 46.4669C114.645 46.3471 114.809 46.28 114.98 46.28C115.15 46.28 115.313 46.3475 115.433 46.4675C115.553 46.5875 115.62 46.7503 115.62 46.92C115.62 47.0907 115.553 47.2545 115.433 47.3762C115.313 47.4978 115.151 47.5674 114.98 47.57C114.808 47.57 114.642 47.5015 114.52 47.3796C114.398 47.2577 114.33 47.0924 114.33 46.92Z" fill="url(#paint22_linear)"/>
<path d="M118.35 46.92C118.353 46.7494 118.422 46.5866 118.544 46.4669C118.665 46.3471 118.829 46.28 119 46.28C119.171 46.28 119.334 46.3471 119.456 46.4669C119.578 46.5866 119.647 46.7494 119.65 46.92C119.647 47.0916 119.578 47.2554 119.457 47.3768C119.335 47.4981 119.172 47.5674 119 47.57C118.828 47.57 118.662 47.5015 118.54 47.3796C118.418 47.2577 118.35 47.0924 118.35 46.92Z" fill="url(#paint23_linear)"/>
<path d="M122.37 46.92C122.373 46.7494 122.442 46.5866 122.564 46.4669C122.685 46.3471 122.849 46.28 123.02 46.28C123.191 46.28 123.354 46.3471 123.476 46.4669C123.598 46.5866 123.667 46.7494 123.67 46.92C123.67 47.0924 123.602 47.2577 123.48 47.3796C123.358 47.5015 123.192 47.57 123.02 47.57C122.848 47.57 122.682 47.5015 122.56 47.3796C122.438 47.2577 122.37 47.0924 122.37 46.92Z" fill="url(#paint24_linear)"/>
<path d="M126.39 46.92C126.393 46.7494 126.462 46.5866 126.584 46.4669C126.706 46.3471 126.869 46.28 127.04 46.28C127.211 46.28 127.375 46.3471 127.496 46.4669C127.618 46.5866 127.687 46.7494 127.69 46.92C127.69 47.0924 127.622 47.2577 127.5 47.3796C127.378 47.5015 127.212 47.57 127.04 47.57C126.868 47.57 126.702 47.5015 126.58 47.3796C126.459 47.2577 126.39 47.0924 126.39 46.92Z" fill="url(#paint25_linear)"/>
<path d="M130.41 46.92C130.413 46.7494 130.482 46.5866 130.604 46.4669C130.726 46.3471 130.889 46.28 131.06 46.28C131.231 46.28 131.395 46.3471 131.516 46.4669C131.638 46.5866 131.707 46.7494 131.71 46.92C131.71 47.0924 131.642 47.2577 131.52 47.3796C131.398 47.5015 131.232 47.57 131.06 47.57C130.888 47.57 130.722 47.5015 130.6 47.3796C130.479 47.2577 130.41 47.0924 130.41 46.92Z" fill="url(#paint26_linear)"/>
<path d="M90.2 50.92C90.2026 50.7494 90.2722 50.5866 90.3938 50.4669C90.5154 50.3471 90.6793 50.28 90.85 50.28C91.0206 50.28 91.1845 50.3471 91.3061 50.4669C91.4277 50.5866 91.4973 50.7494 91.5 50.92C91.5 51.0924 91.4315 51.2577 91.3096 51.3796C91.1877 51.5015 91.0224 51.57 90.85 51.57C90.6776 51.57 90.5122 51.5015 90.3904 51.3796C90.2685 51.2577 90.2 51.0924 90.2 50.92Z" fill="url(#paint27_linear)"/>
<path d="M94.22 50.92C94.2226 50.7494 94.2922 50.5866 94.4138 50.4669C94.5355 50.3471 94.6993 50.28 94.87 50.28C95.0406 50.28 95.2045 50.3471 95.3261 50.4669C95.4477 50.5866 95.5173 50.7494 95.52 50.92C95.52 51.0924 95.4515 51.2577 95.3296 51.3796C95.2077 51.5015 95.0424 51.57 94.87 51.57C94.6976 51.57 94.5322 51.5015 94.4103 51.3796C94.2884 51.2577 94.22 51.0924 94.22 50.92Z" fill="url(#paint28_linear)"/>
<path d="M98.24 50.92C98.2426 50.7494 98.3123 50.5866 98.4339 50.4669C98.5555 50.3471 98.7193 50.28 98.89 50.28C99.0607 50.28 99.2245 50.3471 99.3461 50.4669C99.4677 50.5866 99.5374 50.7494 99.54 50.92C99.54 51.0924 99.4715 51.2577 99.3496 51.3796C99.2277 51.5015 99.0624 51.57 98.89 51.57C98.7184 51.5674 98.5546 51.4981 98.4332 51.3768C98.3119 51.2554 98.2426 51.0916 98.24 50.92Z" fill="url(#paint29_linear)"/>
<path d="M102.27 50.92C102.27 50.7503 102.337 50.5875 102.457 50.4675C102.578 50.3475 102.74 50.28 102.91 50.28C103.081 50.28 103.245 50.3471 103.366 50.4669C103.488 50.5866 103.557 50.7494 103.56 50.92C103.56 51.0924 103.492 51.2577 103.37 51.3796C103.248 51.5015 103.082 51.57 102.91 51.57C102.739 51.5674 102.577 51.4978 102.457 51.3762C102.337 51.2545 102.27 51.0907 102.27 50.92Z" fill="url(#paint30_linear)"/>
<path d="M106.29 50.92C106.29 50.7503 106.357 50.5875 106.478 50.4675C106.598 50.3475 106.76 50.28 106.93 50.28C107.101 50.28 107.265 50.3471 107.386 50.4669C107.508 50.5866 107.577 50.7494 107.58 50.92C107.58 51.0924 107.512 51.2577 107.39 51.3796C107.268 51.5015 107.102 51.57 106.93 51.57C106.759 51.5674 106.597 51.4978 106.477 51.3762C106.357 51.2545 106.29 51.0907 106.29 50.92Z" fill="url(#paint31_linear)"/>
<path d="M110.31 50.92C110.313 50.7494 110.382 50.5866 110.504 50.4669C110.626 50.3471 110.789 50.28 110.96 50.28C111.13 50.28 111.293 50.3475 111.413 50.4675C111.533 50.5875 111.6 50.7503 111.6 50.92C111.6 51.0907 111.533 51.2545 111.413 51.3762C111.293 51.4978 111.131 51.5674 110.96 51.57C110.788 51.57 110.622 51.5015 110.5 51.3796C110.379 51.2577 110.31 51.0924 110.31 50.92Z" fill="url(#paint32_linear)"/>
<path d="M114.33 50.92C114.333 50.7494 114.402 50.5866 114.524 50.4669C114.645 50.3471 114.809 50.28 114.98 50.28C115.15 50.28 115.313 50.3475 115.433 50.4675C115.553 50.5875 115.62 50.7503 115.62 50.92C115.62 51.0907 115.553 51.2545 115.433 51.3762C115.313 51.4978 115.151 51.5674 114.98 51.57C114.808 51.57 114.642 51.5015 114.52 51.3796C114.398 51.2577 114.33 51.0924 114.33 50.92Z" fill="url(#paint33_linear)"/>
<path d="M118.35 50.92C118.353 50.7494 118.422 50.5866 118.544 50.4669C118.665 50.3471 118.829 50.28 119 50.28C119.171 50.28 119.334 50.3471 119.456 50.4669C119.578 50.5866 119.647 50.7494 119.65 50.92C119.647 51.0916 119.578 51.2554 119.457 51.3768C119.335 51.4981 119.172 51.5674 119 51.57C118.828 51.57 118.662 51.5015 118.54 51.3796C118.418 51.2577 118.35 51.0924 118.35 50.92Z" fill="url(#paint34_linear)"/>
<path d="M122.37 50.92C122.373 50.7494 122.442 50.5866 122.564 50.4669C122.685 50.3471 122.849 50.28 123.02 50.28C123.191 50.28 123.354 50.3471 123.476 50.4669C123.598 50.5866 123.667 50.7494 123.67 50.92C123.67 51.0924 123.602 51.2577 123.48 51.3796C123.358 51.5015 123.192 51.57 123.02 51.57C122.848 51.57 122.682 51.5015 122.56 51.3796C122.438 51.2577 122.37 51.0924 122.37 50.92Z" fill="url(#paint35_linear)"/>
<path d="M126.39 50.92C126.393 50.7494 126.462 50.5866 126.584 50.4669C126.706 50.3471 126.869 50.28 127.04 50.28C127.211 50.28 127.375 50.3471 127.496 50.4669C127.618 50.5866 127.687 50.7494 127.69 50.92C127.69 51.0924 127.622 51.2577 127.5 51.3796C127.378 51.5015 127.212 51.57 127.04 51.57C126.868 51.57 126.702 51.5015 126.58 51.3796C126.459 51.2577 126.39 51.0924 126.39 50.92Z" fill="url(#paint36_linear)"/>
<path d="M130.41 50.92C130.413 50.7494 130.482 50.5866 130.604 50.4669C130.726 50.3471 130.889 50.28 131.06 50.28C131.231 50.28 131.395 50.3471 131.516 50.4669C131.638 50.5866 131.707 50.7494 131.71 50.92C131.71 51.0924 131.642 51.2577 131.52 51.3796C131.398 51.5015 131.232 51.57 131.06 51.57C130.888 51.57 130.722 51.5015 130.6 51.3796C130.479 51.2577 130.41 51.0924 130.41 50.92Z" fill="url(#paint37_linear)"/>
<path d="M134.43 50.92C134.433 50.7494 134.502 50.5866 134.624 50.4669C134.745 50.3471 134.909 50.28 135.08 50.28C135.251 50.28 135.414 50.3471 135.536 50.4669C135.658 50.5866 135.727 50.7494 135.73 50.92C135.73 51.0924 135.661 51.2577 135.54 51.3796C135.418 51.5015 135.252 51.57 135.08 51.57C134.908 51.57 134.742 51.5015 134.62 51.3796C134.498 51.2577 134.43 51.0924 134.43 50.92Z" fill="url(#paint38_linear)"/>
<path d="M90.2 54.92C90.2 54.7476 90.2685 54.5823 90.3904 54.4604C90.5122 54.3385 90.6776 54.27 90.85 54.27C91.0224 54.27 91.1877 54.3385 91.3096 54.4604C91.4315 54.5823 91.5 54.7476 91.5 54.92C91.4973 55.0907 91.4277 55.2534 91.3061 55.3732C91.1845 55.4929 91.0206 55.56 90.85 55.56C90.6793 55.56 90.5154 55.4929 90.3938 55.3732C90.2722 55.2534 90.2026 55.0907 90.2 54.92Z" fill="url(#paint39_linear)"/>
<path d="M94.22 54.92C94.22 54.7476 94.2884 54.5823 94.4103 54.4604C94.5322 54.3385 94.6976 54.27 94.87 54.27C95.0424 54.27 95.2077 54.3385 95.3296 54.4604C95.4515 54.5823 95.52 54.7476 95.52 54.92C95.5173 55.0907 95.4477 55.2534 95.3261 55.3732C95.2045 55.4929 95.0406 55.56 94.87 55.56C94.6993 55.56 94.5355 55.4929 94.4138 55.3732C94.2922 55.2534 94.2226 55.0907 94.22 54.92Z" fill="url(#paint40_linear)"/>
<path d="M98.24 54.92C98.2426 54.7484 98.3119 54.5846 98.4332 54.4633C98.5546 54.3419 98.7184 54.2726 98.89 54.27C99.0624 54.27 99.2277 54.3385 99.3496 54.4604C99.4715 54.5823 99.54 54.7476 99.54 54.92C99.5374 55.0907 99.4677 55.2534 99.3461 55.3732C99.2245 55.4929 99.0607 55.56 98.89 55.56C98.7193 55.56 98.5555 55.4929 98.4339 55.3732C98.3123 55.2534 98.2426 55.0907 98.24 54.92Z" fill="url(#paint41_linear)"/>
<path d="M102.27 54.92C102.27 54.7493 102.337 54.5855 102.457 54.4639C102.577 54.3423 102.739 54.2726 102.91 54.27C103.082 54.27 103.248 54.3385 103.37 54.4604C103.492 54.5823 103.56 54.7476 103.56 54.92C103.557 55.0907 103.488 55.2534 103.366 55.3732C103.245 55.4929 103.081 55.56 102.91 55.56C102.74 55.56 102.578 55.4926 102.457 55.3726C102.337 55.2525 102.27 55.0898 102.27 54.92Z" fill="url(#paint42_linear)"/>
<path d="M122.37 54.92C122.37 54.7476 122.438 54.5823 122.56 54.4604C122.682 54.3385 122.848 54.27 123.02 54.27C123.192 54.27 123.358 54.3385 123.48 54.4604C123.602 54.5823 123.67 54.7476 123.67 54.92C123.667 55.0907 123.598 55.2534 123.476 55.3732C123.354 55.4929 123.191 55.56 123.02 55.56C122.849 55.56 122.685 55.4929 122.564 55.3732C122.442 55.2534 122.373 55.0907 122.37 54.92Z" fill="url(#paint43_linear)"/>
<path d="M126.39 54.92C126.39 54.7476 126.459 54.5823 126.58 54.4604C126.702 54.3385 126.868 54.27 127.04 54.27C127.212 54.27 127.378 54.3385 127.5 54.4604C127.622 54.5823 127.69 54.7476 127.69 54.92C127.687 55.0907 127.618 55.2534 127.496 55.3732C127.375 55.4929 127.211 55.56 127.04 55.56C126.869 55.56 126.706 55.4929 126.584 55.3732C126.462 55.2534 126.393 55.0907 126.39 54.92Z" fill="url(#paint44_linear)"/>
<path d="M130.41 54.92C130.41 54.7476 130.479 54.5823 130.6 54.4604C130.722 54.3385 130.888 54.27 131.06 54.27C131.232 54.27 131.398 54.3385 131.52 54.4604C131.642 54.5823 131.71 54.7476 131.71 54.92C131.707 55.0907 131.638 55.2534 131.516 55.3732C131.395 55.4929 131.231 55.56 131.06 55.56C130.889 55.56 130.726 55.4929 130.604 55.3732C130.482 55.2534 130.413 55.0907 130.41 54.92Z" fill="url(#paint45_linear)"/>
<path d="M134.43 54.92C134.43 54.7476 134.498 54.5823 134.62 54.4604C134.742 54.3385 134.908 54.27 135.08 54.27C135.252 54.27 135.418 54.3385 135.54 54.4604C135.661 54.5823 135.73 54.7476 135.73 54.92C135.727 55.0907 135.658 55.2534 135.536 55.3732C135.414 55.4929 135.251 55.56 135.08 55.56C134.909 55.56 134.745 55.4929 134.624 55.3732C134.502 55.2534 134.433 55.0907 134.43 54.92Z" fill="url(#paint46_linear)"/>
<path d="M86.93 58.3201C87.0936 58.3327 87.2464 58.4067 87.3576 58.5273C87.4689 58.6479 87.5305 58.806 87.53 58.9701C87.5274 59.1408 87.4578 59.3035 87.3362 59.4233C87.2145 59.543 87.0507 59.6101 86.88 59.6101C86.8007 59.6246 86.7194 59.6246 86.64 59.6101C86.73 59.1901 86.83 58.7701 86.93 58.3601V58.3201Z" fill="url(#paint47_linear)"/>
<path d="M90.2 58.9701C90.2 58.8847 90.2168 58.8002 90.2495 58.7214C90.2821 58.6425 90.33 58.5708 90.3904 58.5105C90.4507 58.4501 90.5224 58.4022 90.6012 58.3696C90.6801 58.3369 90.7646 58.3201 90.85 58.3201C90.9353 58.3201 91.0198 58.3369 91.0987 58.3696C91.1776 58.4022 91.2492 58.4501 91.3096 58.5105C91.3699 58.5708 91.4178 58.6425 91.4505 58.7214C91.4831 58.8002 91.5 58.8847 91.5 58.9701C91.4973 59.1408 91.4277 59.3035 91.3061 59.4233C91.1845 59.543 91.0206 59.6101 90.85 59.6101C90.6793 59.6101 90.5154 59.543 90.3938 59.4233C90.2722 59.3035 90.2026 59.1408 90.2 58.9701Z" fill="url(#paint48_linear)"/>
<path d="M94.22 58.9701C94.22 58.8847 94.2368 58.8002 94.2694 58.7214C94.3021 58.6425 94.35 58.5708 94.4103 58.5105C94.4707 58.4501 94.5424 58.4022 94.6212 58.3696C94.7001 58.3369 94.7846 58.3201 94.87 58.3201C94.9553 58.3201 95.0399 58.3369 95.1187 58.3696C95.1976 58.4022 95.2692 58.4501 95.3296 58.5105C95.3899 58.5708 95.4378 58.6425 95.4705 58.7214C95.5032 58.8002 95.52 58.8847 95.52 58.9701C95.5173 59.1408 95.4477 59.3035 95.3261 59.4233C95.2045 59.543 95.0406 59.6101 94.87 59.6101C94.6993 59.6101 94.5355 59.543 94.4138 59.4233C94.2922 59.3035 94.2226 59.1408 94.22 58.9701Z" fill="url(#paint49_linear)"/>
<path d="M98.24 58.9701C98.2426 58.7985 98.3119 58.6347 98.4332 58.5133C98.5546 58.392 98.7184 58.3227 98.89 58.3201C99.0624 58.3201 99.2277 58.3886 99.3496 58.5105C99.4715 58.6324 99.54 58.7977 99.54 58.9701C99.5374 59.1408 99.4677 59.3035 99.3461 59.4233C99.2245 59.543 99.0607 59.6101 98.89 59.6101C98.7193 59.6101 98.5555 59.543 98.4339 59.4233C98.3123 59.3035 98.2426 59.1408 98.24 58.9701Z" fill="url(#paint50_linear)"/>
<path d="M126.39 58.9701C126.39 58.8847 126.407 58.8002 126.44 58.7214C126.472 58.6425 126.52 58.5708 126.58 58.5105C126.641 58.4501 126.712 58.4022 126.791 58.3696C126.87 58.3369 126.955 58.3201 127.04 58.3201C127.125 58.3201 127.21 58.3369 127.289 58.3696C127.368 58.4022 127.439 58.4501 127.5 58.5105C127.56 58.5708 127.608 58.6425 127.641 58.7214C127.673 58.8002 127.69 58.8847 127.69 58.9701C127.687 59.1408 127.618 59.3035 127.496 59.4233C127.375 59.543 127.211 59.6101 127.04 59.6101C126.869 59.6101 126.706 59.543 126.584 59.4233C126.462 59.3035 126.393 59.1408 126.39 58.9701Z" fill="url(#paint51_linear)"/>
<path d="M130.41 58.9701C130.41 58.8847 130.427 58.8002 130.46 58.7214C130.492 58.6425 130.54 58.5708 130.6 58.5105C130.661 58.4501 130.732 58.4022 130.811 58.3696C130.89 58.3369 130.975 58.3201 131.06 58.3201C131.145 58.3201 131.23 58.3369 131.309 58.3696C131.388 58.4022 131.459 58.4501 131.52 58.5105C131.58 58.5708 131.628 58.6425 131.661 58.7214C131.693 58.8002 131.71 58.8847 131.71 58.9701C131.707 59.1408 131.638 59.3035 131.516 59.4233C131.395 59.543 131.231 59.6101 131.06 59.6101C130.889 59.6101 130.726 59.543 130.604 59.4233C130.482 59.3035 130.413 59.1408 130.41 58.9701Z" fill="url(#paint52_linear)"/>
<path d="M134.43 58.9701C134.43 58.8847 134.447 58.8002 134.479 58.7214C134.512 58.6425 134.56 58.5708 134.62 58.5105C134.681 58.4501 134.752 58.4022 134.831 58.3696C134.91 58.3369 134.995 58.3201 135.08 58.3201C135.165 58.3201 135.25 58.3369 135.329 58.3696C135.408 58.4022 135.479 58.4501 135.54 58.5105C135.6 58.5708 135.648 58.6425 135.68 58.7214C135.713 58.8002 135.73 58.8847 135.73 58.9701C135.727 59.1408 135.658 59.3035 135.536 59.4233C135.414 59.543 135.251 59.6101 135.08 59.6101C134.909 59.6101 134.745 59.543 134.624 59.4233C134.502 59.3035 134.433 59.1408 134.43 58.9701Z" fill="url(#paint53_linear)"/>
<path d="M138.45 58.9701C138.449 58.8076 138.509 58.6508 138.619 58.5305C138.728 58.4102 138.878 58.3351 139.04 58.3201C139.15 58.7401 139.24 59.1501 139.33 59.5701C139.254 59.5852 139.176 59.5852 139.1 59.5701C138.929 59.5701 138.765 59.503 138.644 59.3833C138.522 59.2635 138.453 59.1008 138.45 58.9301V58.9701Z" fill="url(#paint54_linear)"/>
<path d="M86.1801 62.9901C86.1801 62.8177 86.2485 62.6523 86.3704 62.5304C86.4923 62.4086 86.6577 62.3401 86.83 62.3401C87.0024 62.3401 87.1678 62.4086 87.2897 62.5304C87.4116 62.6523 87.48 62.8177 87.48 62.9901C87.4775 63.1617 87.4081 63.3255 87.2868 63.4468C87.1655 63.5682 87.0016 63.6375 86.83 63.6401C86.6585 63.6375 86.4946 63.5682 86.3733 63.4468C86.2519 63.3255 86.1826 63.1617 86.1801 62.9901Z" fill="url(#paint55_linear)"/>
<path d="M90.2 62.9901C90.2 62.8177 90.2685 62.6523 90.3904 62.5304C90.5122 62.4086 90.6776 62.3401 90.85 62.3401C91.0224 62.3401 91.1877 62.4086 91.3096 62.5304C91.4315 62.6523 91.5 62.8177 91.5 62.9901C91.4974 63.1617 91.4281 63.3255 91.3067 63.4468C91.1854 63.5682 91.0216 63.6375 90.85 63.6401C90.6784 63.6375 90.5145 63.5682 90.3932 63.4468C90.2718 63.3255 90.2025 63.1617 90.2 62.9901Z" fill="url(#paint56_linear)"/>
<path d="M94.22 62.9901C94.22 62.8177 94.2884 62.6523 94.4103 62.5304C94.5322 62.4086 94.6976 62.3401 94.87 62.3401C95.0424 62.3401 95.2077 62.4086 95.3296 62.5304C95.4515 62.6523 95.52 62.8177 95.52 62.9901C95.5174 63.1617 95.4481 63.3255 95.3267 63.4468C95.2054 63.5682 95.0416 63.6375 94.87 63.6401C94.6984 63.6375 94.5346 63.5682 94.4132 63.4468C94.2919 63.3255 94.2226 63.1617 94.22 62.9901Z" fill="url(#paint57_linear)"/>
<path d="M98.24 62.9901C98.2426 62.8185 98.3119 62.6546 98.4332 62.5333C98.5546 62.412 98.7184 62.3426 98.89 62.3401C99.0624 62.3401 99.2277 62.4086 99.3496 62.5304C99.4715 62.6523 99.54 62.8177 99.54 62.9901C99.5374 63.1617 99.4681 63.3255 99.3468 63.4468C99.2254 63.5682 99.0616 63.6375 98.89 63.6401C98.7184 63.6375 98.5546 63.5682 98.4332 63.4468C98.3119 63.3255 98.2426 63.1617 98.24 62.9901Z" fill="url(#paint58_linear)"/>
<path d="M126.39 62.9901C126.39 62.8177 126.459 62.6523 126.58 62.5304C126.702 62.4086 126.868 62.3401 127.04 62.3401C127.212 62.3401 127.378 62.4086 127.5 62.5304C127.622 62.6523 127.69 62.8177 127.69 62.9901C127.687 63.1617 127.618 63.3255 127.497 63.4468C127.375 63.5682 127.212 63.6375 127.04 63.6401C126.868 63.6375 126.705 63.5682 126.583 63.4468C126.462 63.3255 126.393 63.1617 126.39 62.9901Z" fill="url(#paint59_linear)"/>
<path d="M130.41 62.9901C130.41 62.8177 130.479 62.6523 130.6 62.5304C130.722 62.4086 130.888 62.3401 131.06 62.3401C131.232 62.3401 131.398 62.4086 131.52 62.5304C131.642 62.6523 131.71 62.8177 131.71 62.9901C131.707 63.1617 131.638 63.3255 131.517 63.4468C131.395 63.5682 131.232 63.6375 131.06 63.6401C130.888 63.6375 130.725 63.5682 130.603 63.4468C130.482 63.3255 130.413 63.1617 130.41 62.9901Z" fill="url(#paint60_linear)"/>
<path d="M134.43 62.9901C134.43 62.8177 134.498 62.6523 134.62 62.5304C134.742 62.4086 134.908 62.3401 135.08 62.3401C135.252 62.3401 135.418 62.4086 135.54 62.5304C135.661 62.6523 135.73 62.8177 135.73 62.9901C135.727 63.1617 135.658 63.3255 135.537 63.4468C135.415 63.5682 135.252 63.6375 135.08 63.6401C134.908 63.6375 134.745 63.5682 134.623 63.4468C134.502 63.3255 134.433 63.1617 134.43 62.9901Z" fill="url(#paint61_linear)"/>
<path d="M138.45 62.9901C138.45 62.8177 138.518 62.6523 138.64 62.5304C138.762 62.4086 138.928 62.3401 139.1 62.3401C139.272 62.3401 139.438 62.4086 139.56 62.5304C139.681 62.6523 139.75 62.8177 139.75 62.9901C139.747 63.1617 139.678 63.3255 139.557 63.4468C139.435 63.5682 139.272 63.6375 139.1 63.6401C138.928 63.6375 138.765 63.5682 138.643 63.4468C138.522 63.3255 138.453 63.1617 138.45 62.9901Z" fill="url(#paint62_linear)"/>
<path fill-rule="evenodd" clip-rule="evenodd" d="M25.25 15.0701C25.25 15.2936 25.1837 15.5121 25.0596 15.6979C24.9354 15.8837 24.7589 16.0286 24.5524 16.1141C24.3459 16.1996 24.1187 16.222 23.8995 16.1784C23.6803 16.1348 23.479 16.0272 23.321 15.8691C23.1629 15.7111 23.0553 15.5098 23.0117 15.2906C22.9681 15.0714 22.9905 14.8441 23.076 14.6377C23.1615 14.4312 23.3064 14.2547 23.4922 14.1305C23.678 14.0064 23.8965 13.9401 24.12 13.9401C24.4197 13.9401 24.7071 14.0592 24.919 14.2711C25.1309 14.483 25.25 14.7704 25.25 15.0701Z" fill="url(#paint63_linear)"/>
<path fill-rule="evenodd" clip-rule="evenodd" d="M25.2499 22.0701C25.2519 22.294 25.1873 22.5135 25.0644 22.7006C24.9414 22.8877 24.7657 23.0341 24.5594 23.1212C24.3531 23.2083 24.1255 23.2321 23.9057 23.1896C23.6858 23.1471 23.4836 23.0403 23.3245 22.8827C23.1655 22.7251 23.0569 22.5237 23.0124 22.3043C22.968 22.0848 22.9898 21.8571 23.075 21.65C23.1603 21.443 23.3051 21.2659 23.4911 21.1413C23.6772 21.0167 23.896 20.9501 24.1199 20.9501C24.4179 20.9501 24.7038 21.0678 24.9155 21.2775C25.1271 21.4873 25.2473 21.7722 25.2499 22.0701Z" fill="url(#paint64_linear)"/>
<path fill-rule="evenodd" clip-rule="evenodd" d="M32.22 8.13012C32.22 8.35361 32.1537 8.57209 32.0295 8.75791C31.9054 8.94374 31.7289 9.08858 31.5224 9.1741C31.3159 9.25963 31.0887 9.28201 30.8695 9.23841C30.6503 9.19481 30.449 9.08718 30.2909 8.92915C30.1329 8.77112 30.0253 8.56977 29.9817 8.35057C29.9381 8.13137 29.9605 7.90417 30.046 7.69769C30.1315 7.49121 30.2763 7.31473 30.4622 7.19056C30.648 7.06639 30.8665 7.00012 31.09 7.00012C31.3897 7.00012 31.6771 7.11917 31.889 7.33109C32.1009 7.543 32.22 7.83043 32.22 8.13012Z" fill="url(#paint65_linear)"/>
<path fill-rule="evenodd" clip-rule="evenodd" d="M32.22 15.0701C32.22 15.2936 32.1537 15.5121 32.0295 15.6979C31.9054 15.8837 31.7289 16.0286 31.5224 16.1141C31.3159 16.1996 31.0887 16.222 30.8695 16.1784C30.6503 16.1348 30.449 16.0272 30.2909 15.8691C30.1329 15.7111 30.0253 15.5098 29.9817 15.2906C29.9381 15.0714 29.9605 14.8441 30.046 14.6377C30.1315 14.4312 30.2763 14.2547 30.4622 14.1305C30.648 14.0064 30.8665 13.9401 31.09 13.9401C31.3897 13.9401 31.6771 14.0592 31.889 14.2711C32.1009 14.483 32.22 14.7704 32.22 15.0701Z" fill="url(#paint66_linear)"/>
<path fill-rule="evenodd" clip-rule="evenodd" d="M32.22 22.0701C32.222 22.294 32.1574 22.5135 32.0345 22.7006C31.9115 22.8877 31.7357 23.0341 31.5294 23.1212C31.3231 23.2083 31.0956 23.2321 30.8758 23.1896C30.6559 23.1471 30.4536 23.0403 30.2946 22.8827C30.1356 22.7251 30.027 22.5237 29.9825 22.3043C29.9381 22.0848 29.9599 21.8571 30.0451 21.65C30.1304 21.443 30.2752 21.2659 30.4612 21.1413C30.6473 21.0167 30.8661 20.9501 31.09 20.9501C31.388 20.9501 31.6739 21.0678 31.8856 21.2775C32.0972 21.4873 32.2174 21.7722 32.22 22.0701Z" fill="url(#paint67_linear)"/>
<path fill-rule="evenodd" clip-rule="evenodd" d="M32.22 29.0701C32.2348 29.2268 32.2167 29.3848 32.1668 29.534C32.117 29.6833 32.0366 29.8205 31.9307 29.9369C31.8248 30.0532 31.6957 30.1462 31.5518 30.2098C31.4079 30.2734 31.2523 30.3063 31.095 30.3063C30.9376 30.3063 30.782 30.2734 30.6381 30.2098C30.4942 30.1462 30.3651 30.0532 30.2592 29.9369C30.1533 29.8205 30.0729 29.6833 30.0231 29.534C29.9733 29.3848 29.9552 29.2268 29.97 29.0701C29.9964 28.7901 30.1263 28.5299 30.3344 28.3406C30.5425 28.1512 30.8137 28.0463 31.095 28.0463C31.3763 28.0463 31.6475 28.1512 31.8555 28.3406C32.0636 28.5299 32.1935 28.7901 32.22 29.0701Z" fill="url(#paint68_linear)"/>
<path fill-rule="evenodd" clip-rule="evenodd" d="M39.1901 8.13004C39.19 8.35396 39.1235 8.57282 38.9989 8.75886C38.8743 8.9449 38.6972 9.08973 38.4901 9.17495C38.2831 9.26018 38.0554 9.28196 37.8359 9.23754C37.6164 9.19312 37.4151 9.0845 37.2575 8.92547C37.0999 8.76643 36.993 8.56415 36.9506 8.3443C36.9081 8.12445 36.9319 7.89694 37.019 7.69064C37.106 7.48434 37.2524 7.30856 37.4396 7.1856C37.6267 7.06265 37.8461 6.99806 38.0701 7.00004C38.218 7.00004 38.3644 7.02933 38.501 7.08624C38.6375 7.14315 38.7614 7.22655 38.8656 7.33161C38.9697 7.43667 39.052 7.56132 39.1077 7.69837C39.1634 7.83541 39.1914 7.98212 39.1901 8.13004Z" fill="url(#paint69_linear)"/>
<path fill-rule="evenodd" clip-rule="evenodd" d="M39.1901 15.0701C39.19 15.294 39.1235 15.5129 38.9989 15.6989C38.8743 15.8849 38.6972 16.0298 38.4901 16.115C38.2831 16.2002 38.0554 16.222 37.8359 16.1776C37.6164 16.1332 37.4151 16.0245 37.2575 15.8655C37.0999 15.7065 36.993 15.5042 36.9506 15.2843C36.9081 15.0645 36.9319 14.837 37.019 14.6307C37.106 14.4244 37.2524 14.2486 37.4396 14.1256C37.6267 14.0027 37.8461 13.9381 38.0701 13.9401C38.218 13.9401 38.3644 13.9694 38.501 14.0263C38.6375 14.0832 38.7614 14.1666 38.8656 14.2717C38.9697 14.3767 39.052 14.5014 39.1077 14.6384C39.1634 14.7754 39.1914 14.9222 39.1901 15.0701Z" fill="url(#paint70_linear)"/>
<path fill-rule="evenodd" clip-rule="evenodd" d="M39.19 22.0701C39.192 22.2944 39.1271 22.5143 39.0037 22.7016C38.8803 22.889 38.704 23.0354 38.4971 23.1221C38.2902 23.2089 38.0622 23.2321 37.842 23.1888C37.6219 23.1455 37.4197 23.0377 37.261 22.8791C37.1024 22.7204 36.9946 22.5182 36.9513 22.2981C36.908 22.0779 36.9312 21.8499 37.018 21.643C37.1048 21.4361 37.2511 21.2598 37.4385 21.1364C37.6258 21.013 37.8457 20.9481 38.07 20.9501C38.3671 20.9501 38.6519 21.0681 38.862 21.2781C39.072 21.4882 39.19 21.7731 39.19 22.0701Z" fill="url(#paint71_linear)"/>
<path fill-rule="evenodd" clip-rule="evenodd" d="M39.19 29.0701C39.192 29.2944 39.1271 29.5143 39.0037 29.7016C38.8803 29.889 38.704 30.0354 38.4971 30.1221C38.2902 30.2089 38.0622 30.2321 37.842 30.1888C37.6219 30.1455 37.4197 30.0377 37.261 29.8791C37.1024 29.7204 36.9946 29.5182 36.9513 29.2981C36.908 29.0779 36.9312 28.8499 37.018 28.643C37.1048 28.4361 37.2511 28.2598 37.4385 28.1364C37.6258 28.013 37.8457 27.9481 38.07 27.9501C38.3662 27.9527 38.6496 28.0715 38.8591 28.281C39.0686 28.4905 39.1874 28.7739 39.19 29.0701Z" fill="url(#paint72_linear)"/>
<path fill-rule="evenodd" clip-rule="evenodd" d="M46.16 15.0701C46.1336 15.3502 46.0036 15.6103 45.7956 15.7996C45.5875 15.989 45.3163 16.0939 45.035 16.0939C44.7537 16.0939 44.4825 15.989 44.2745 15.7996C44.0664 15.6103 43.9365 15.3502 43.91 15.0701C43.8952 14.9134 43.9133 14.7554 43.9631 14.6062C44.013 14.4569 44.0934 14.3197 44.1993 14.2033C44.3052 14.087 44.4342 13.994 44.5782 13.9304C44.7221 13.8668 44.8777 13.8339 45.035 13.8339C45.1924 13.8339 45.348 13.8668 45.4919 13.9304C45.6358 13.994 45.7649 14.087 45.8708 14.2033C45.9767 14.3197 46.0571 14.4569 46.1069 14.6062C46.1567 14.7554 46.1748 14.9134 46.16 15.0701Z" fill="url(#paint73_linear)"/>
<path fill-rule="evenodd" clip-rule="evenodd" d="M46.16 22.0701C46.162 22.2944 46.0971 22.5143 45.9737 22.7016C45.8503 22.889 45.6739 23.0354 45.4671 23.1221C45.2602 23.2089 45.0321 23.2321 44.812 23.1888C44.5919 23.1455 44.3896 23.0377 44.231 22.8791C44.0724 22.7204 43.9645 22.5182 43.9213 22.2981C43.878 22.0779 43.9012 21.8499 43.988 21.643C44.0747 21.4361 44.2211 21.2598 44.4085 21.1364C44.5958 21.013 44.8156 20.9481 45.04 20.9501C45.337 20.9501 45.6219 21.0681 45.8319 21.2781C46.042 21.4882 46.16 21.7731 46.16 22.0701Z" fill="url(#paint74_linear)"/>
<path d="M26.9613 25.928C26.9613 29.3986 24.6475 30.979 20.9807 30.979H19.3177V34.1913C19.3177 34.3148 19.2933 34.437 19.2461 34.551C19.1988 34.6651 19.1296 34.7687 19.0423 34.856C18.955 34.9433 18.8515 35.0125 18.7374 35.0597C18.6234 35.107 18.5012 35.1313 18.3777 35.1313H15.9194C15.7973 35.13 15.6767 35.1046 15.5644 35.0566C15.4522 35.0086 15.3505 34.939 15.2651 34.8517C15.1797 34.7644 15.1123 34.6612 15.0669 34.5479C15.0214 34.4346 14.9987 34.3134 15.0001 34.1913V21.4865C15.0028 21.2445 15.1008 21.0133 15.2729 20.8431C15.445 20.6729 15.6773 20.5775 15.9194 20.5775H20.9807C25.0091 20.5775 26.9613 22.726 26.9613 25.928ZM22.6023 25.928C22.6101 25.7193 22.5723 25.5114 22.4915 25.3188C22.4107 25.1263 22.2888 24.9536 22.1344 24.813C21.98 24.6724 21.7968 24.5671 21.5975 24.5046C21.3982 24.4421 21.1878 24.4238 20.9807 24.451H19.3177V27.4361H20.96C21.1714 27.4672 21.387 27.4508 21.5912 27.388C21.7954 27.3252 21.983 27.2177 22.1403 27.0732C22.2977 26.9287 22.4209 26.7509 22.5008 26.5528C22.5807 26.3547 22.6153 26.1412 22.6023 25.928Z" fill="black"/>
<path d="M43.1263 27.87C43.1181 29.3539 42.6706 30.802 41.84 32.0317C41.0095 33.2614 39.8332 34.2174 38.4597 34.7792C37.0863 35.3409 35.5772 35.4831 34.123 35.1878C32.6688 34.8926 31.3347 34.1732 30.2891 33.1203C29.2434 32.0675 28.5331 30.7284 28.2478 29.2722C27.9626 27.816 28.1152 26.308 28.6864 24.9384C29.2575 23.5688 30.2216 22.3992 31.4569 21.5771C32.6922 20.755 34.1434 20.3174 35.6273 20.3194C36.6235 20.2935 37.6145 20.4715 38.5394 20.8425C39.4643 21.2135 40.3037 21.7696 41.006 22.4766C41.7082 23.1837 42.2586 24.0269 42.6232 24.9543C42.9878 25.8818 43.159 26.874 43.1263 27.87ZM38.8191 27.87C38.7828 27.248 38.5652 26.6501 38.1932 26.1503C37.8211 25.6504 37.3108 25.2704 36.7254 25.0571C36.1399 24.8438 35.5049 24.8065 34.8985 24.9498C34.2921 25.0932 33.7409 25.4109 33.3129 25.8638C32.885 26.3167 32.5989 26.885 32.4901 27.4985C32.3812 28.112 32.4544 28.744 32.7005 29.3165C32.9466 29.8889 33.3548 30.3768 33.8749 30.72C34.395 31.0632 35.0042 31.2466 35.6273 31.2476C36.0665 31.2626 36.5039 31.184 36.9105 31.017C37.317 30.85 37.6834 30.5984 37.9853 30.279C38.2871 29.9595 38.5176 29.5795 38.6613 29.1642C38.8051 28.7489 38.8589 28.3077 38.8191 27.87Z" fill="black"/>
<path d="M45.8222 20.5776H48.2909C48.4116 20.5762 48.5315 20.5987 48.6436 20.6436C48.7557 20.6886 48.8577 20.7551 48.9441 20.8395C49.0304 20.9239 49.0992 21.0245 49.1467 21.1356C49.1941 21.2466 49.2192 21.3659 49.2206 21.4866V34.1914C49.2219 34.3144 49.199 34.4364 49.1529 34.5504C49.1068 34.6643 49.0385 34.7681 48.952 34.8555C48.8655 34.9429 48.7626 35.0123 48.6491 35.0597C48.5357 35.107 48.4139 35.1314 48.2909 35.1314H45.8222C45.5775 35.126 45.3448 35.0242 45.1746 34.8482C45.0045 34.6723 44.9105 34.4362 44.9133 34.1914V21.4866C44.916 21.2463 45.0126 21.0167 45.1825 20.8468C45.3524 20.6769 45.582 20.5803 45.8222 20.5776Z" fill="black"/>
<path d="M61.2954 20.5776H63.7434C63.9836 20.5802 64.2133 20.6769 64.3832 20.8468C64.5531 21.0166 64.6497 21.2463 64.6524 21.4865V34.1914C64.6552 34.4362 64.5612 34.6722 64.391 34.8482C64.2208 35.0242 63.9882 35.1259 63.7434 35.1314H61.409C61.219 35.1386 61.0307 35.0932 60.8648 35.0002C60.699 34.9073 60.562 34.7704 60.469 34.6046L55.8416 27.3741V34.1914C55.8416 34.4371 55.7455 34.6732 55.5736 34.8488C55.4018 35.0245 55.168 35.1259 54.9223 35.1314H52.4639C52.2146 35.1314 51.9756 35.0323 51.7993 34.856C51.623 34.6798 51.5239 34.4407 51.5239 34.1914V21.4865C51.5253 21.3649 51.5507 21.2448 51.5988 21.1331C51.6469 21.0214 51.7167 20.9203 51.8041 20.8358C51.8915 20.7512 51.9948 20.6849 52.1081 20.6405C52.2213 20.5962 52.3423 20.5748 52.4639 20.5776H54.7776C54.9637 20.5776 55.1467 20.625 55.3094 20.7153C55.472 20.8057 55.609 20.936 55.7073 21.094L60.3657 28.3244V21.4865C60.3671 21.3658 60.3922 21.2465 60.4396 21.1355C60.4871 21.0245 60.5559 20.9239 60.6423 20.8395C60.7286 20.7551 60.8307 20.6885 60.9427 20.6436C61.0548 20.5986 61.1747 20.5762 61.2954 20.5776Z" fill="black"/>
<path d="M77.4811 21.4866V23.5524C77.4811 23.7944 77.3857 24.0267 77.2155 24.1988C77.0453 24.3709 76.8141 24.469 76.5721 24.4717H74.0622V34.1914C74.065 34.4362 73.971 34.6722 73.8008 34.8482C73.6306 35.0242 73.398 35.126 73.1532 35.1314H70.6845C70.5616 35.1314 70.4398 35.107 70.3263 35.0596C70.2128 35.0123 70.1099 34.9429 70.0234 34.8555C69.937 34.7681 69.8688 34.6643 69.8227 34.5503C69.7766 34.4364 69.7535 34.3144 69.7549 34.1914V24.451H67.2655C67.0225 24.4484 66.7902 24.3506 66.6184 24.1788C66.4466 24.007 66.3489 23.7747 66.3462 23.5317V21.4659C66.3515 21.2247 66.4505 20.9951 66.6221 20.8255C66.7936 20.6558 67.0243 20.5595 67.2655 20.5569H76.5617C76.6833 20.5569 76.8038 20.581 76.9161 20.6279C77.0283 20.6747 77.13 20.7434 77.2155 20.8298C77.301 20.9163 77.3685 21.0189 77.4141 21.1316C77.4597 21.2443 77.4824 21.365 77.4811 21.4866Z" fill="black"/>
<path d="M90.0001 30.7104C90.0001 33.2307 87.8104 35.4205 84.2675 35.4205C81.8711 35.4205 79.2682 34.6045 78.3489 32.3218C78.3007 32.2254 78.2743 32.1196 78.2717 32.0119C78.2691 31.9042 78.2902 31.7972 78.3336 31.6986C78.377 31.6 78.4416 31.5122 78.5227 31.4414C78.6039 31.3705 78.6997 31.3185 78.8033 31.2889L81.1377 30.5658C81.297 30.5187 81.4675 30.5256 81.6225 30.5854C81.7775 30.6452 81.9085 30.7545 81.995 30.8963C82.2377 31.2071 82.5531 31.4534 82.9133 31.6137C83.2735 31.774 83.6675 31.8434 84.0608 31.8157C85.1867 31.8157 85.6619 31.2889 85.6619 30.7827C85.6619 29.9048 84.5773 29.8221 83.1209 29.4709C80.2907 28.7789 78.6793 27.6323 78.6793 24.9674C78.6793 22.3025 81.0137 20.309 84.2261 20.309C85.2951 20.2284 86.3632 20.4773 87.2865 21.0221C88.2099 21.5668 88.9442 22.3814 89.3907 23.3561C89.4325 23.4579 89.4518 23.5676 89.4473 23.6776C89.4428 23.7876 89.4145 23.8954 89.3645 23.9935C89.3144 24.0916 89.2438 24.1777 89.1574 24.2459C89.071 24.3142 88.9709 24.363 88.8639 24.389L86.5502 24.9467C86.4039 24.9836 86.2499 24.9758 86.1081 24.9242C85.9663 24.8727 85.8432 24.7798 85.7548 24.6575C85.597 24.4272 85.3811 24.2428 85.1289 24.123C84.8767 24.0033 84.5972 23.9525 84.319 23.9758C83.4617 23.9758 82.8627 24.327 82.8627 25.0087C82.8627 25.835 84.1331 25.9384 85.259 26.2586C88.7916 27.2088 90.0001 28.3967 90.0001 30.7104Z" fill="black"/>
</g>
<defs>
<linearGradient id="paint0_linear" x1="76" y1="0" x2="76" y2="64" gradientUnits="userSpaceOnUse">
<stop stop-color="#6FD74A"/>
<stop offset="1" stop-color="#24A240"/>
</linearGradient>
<linearGradient id="paint1_linear" x1="109.54" y1="7.56008" x2="136.03" y2="7.56008" gradientUnits="userSpaceOnUse">
<stop offset="0.05" stop-color="#7DB828"/>
<stop offset="0.41" stop-color="#EFE300" stop-opacity="0.34"/>
<stop offset="0.68" stop-color="#EFE300" stop-opacity="0.34"/>
<stop offset="1" stop-color="#BAC32F"/>
</linearGradient>
<linearGradient id="paint2_linear" x1="7.55673" y1="45.49" x2="7.55673" y2="19" gradientUnits="userSpaceOnUse">
<stop offset="0.05" stop-color="#1EA723"/>
<stop offset="0.41" stop-color="#EFE300" stop-opacity="0.34"/>
<stop offset="0.588542" stop-color="#B1EF00" stop-opacity="0.34"/>
<stop offset="1" stop-color="#36B477"/>
</linearGradient>
<linearGradient id="paint3_linear" x1="146.71" y1="34.0701" x2="149.36" y2="34.0701" gradientUnits="userSpaceOnUse">
<stop offset="0.05" stop-color="#7DB828"/>
<stop offset="1" stop-color="#EFE300" stop-opacity="0.34"/>
</linearGradient>
<linearGradient id="paint4_linear" x1="-889.627" y1="-2729.46" x2="-882.658" y2="-2729.46" gradientUnits="userSpaceOnUse">
<stop offset="0.05" stop-color="#7DB828"/>
<stop offset="1" stop-color="#EFE300" stop-opacity="0.34"/>
</linearGradient>
<linearGradient id="paint5_linear" x1="-461.947" y1="-36.0376" x2="-460.268" y2="-36.0376" gradientUnits="userSpaceOnUse">
<stop offset="0.05" stop-color="#7DB828"/>
<stop offset="0.41" stop-color="#EFE300" stop-opacity="0.34"/>
<stop offset="0.68" stop-color="#EFE300" stop-opacity="0.34"/>
<stop offset="1" stop-color="#BAC32F"/>
</linearGradient>
<linearGradient id="paint6_linear" x1="-447.773" y1="-72.3674" x2="-446.109" y2="-72.3674" gradientUnits="userSpaceOnUse">
<stop offset="0.05" stop-color="#7DB828"/>
<stop offset="0.41" stop-color="#EFE300" stop-opacity="0.34"/>
<stop offset="0.68" stop-color="#EFE300" stop-opacity="0.34"/>
<stop offset="1" stop-color="#BAC32F"/>
</linearGradient>
<linearGradient id="paint7_linear" x1="-438.568" y1="-72.3674" x2="-436.904" y2="-72.3674" gradientUnits="userSpaceOnUse">
<stop offset="0.05" stop-color="#7DB828"/>
<stop offset="0.41" stop-color="#EFE300" stop-opacity="0.34"/>
<stop offset="0.68" stop-color="#EFE300" stop-opacity="0.34"/>
<stop offset="1" stop-color="#BAC32F"/>
</linearGradient>
<linearGradient id="paint8_linear" x1="-429.402" y1="-36.0378" x2="-427.738" y2="-36.0378" gradientUnits="userSpaceOnUse">
<stop offset="0.05" stop-color="#7DB828"/>
<stop offset="0.41" stop-color="#EFE300" stop-opacity="0.34"/>
<stop offset="0.68" stop-color="#EFE300" stop-opacity="0.34"/>
<stop offset="1" stop-color="#BAC32F"/>
</linearGradient>
<linearGradient id="paint9_linear" x1="-479.853" y1="-63.0821" x2="-478.163" y2="-63.0821" gradientUnits="userSpaceOnUse">
<stop offset="0.05" stop-color="#7DB828"/>
<stop offset="0.41" stop-color="#EFE300" stop-opacity="0.34"/>
<stop offset="0.68" stop-color="#EFE300" stop-opacity="0.34"/>
<stop offset="1" stop-color="#BAC32F"/>
</linearGradient>
<linearGradient id="paint10_linear" x1="-466.185" y1="-63.0821" x2="-464.521" y2="-63.0821" gradientUnits="userSpaceOnUse">
<stop offset="0.05" stop-color="#7DB828"/>
<stop offset="0.41" stop-color="#EFE300" stop-opacity="0.34"/>
<stop offset="0.68" stop-color="#EFE300" stop-opacity="0.34"/>
<stop offset="1" stop-color="#BAC32F"/>
</linearGradient>
<linearGradient id="paint11_linear" x1="-456.979" y1="-63.0821" x2="-455.315" y2="-63.0821" gradientUnits="userSpaceOnUse">
<stop offset="0.05" stop-color="#7DB828"/>
<stop offset="0.41" stop-color="#EFE300" stop-opacity="0.34"/>
<stop offset="0.68" stop-color="#EFE300" stop-opacity="0.34"/>
<stop offset="1" stop-color="#BAC32F"/>
</linearGradient>
<linearGradient id="paint12_linear" x1="-447.773" y1="-63.0821" x2="-446.109" y2="-63.0821" gradientUnits="userSpaceOnUse">
<stop offset="0.05" stop-color="#7DB828"/>
<stop offset="0.41" stop-color="#EFE300" stop-opacity="0.34"/>
<stop offset="0.68" stop-color="#EFE300" stop-opacity="0.34"/>
<stop offset="1" stop-color="#BAC32F"/>
</linearGradient>
<linearGradient id="paint13_linear" x1="-438.568" y1="-63.0821" x2="-436.904" y2="-63.0821" gradientUnits="userSpaceOnUse">
<stop offset="0.05" stop-color="#7DB828"/>
<stop offset="0.41" stop-color="#EFE300" stop-opacity="0.34"/>
<stop offset="0.68" stop-color="#EFE300" stop-opacity="0.34"/>
<stop offset="1" stop-color="#BAC32F"/>
</linearGradient>
<linearGradient id="paint14_linear" x1="-433.6" y1="-63.0821" x2="-431.91" y2="-63.0821" gradientUnits="userSpaceOnUse">
<stop offset="0.05" stop-color="#7DB828"/>
<stop offset="0.41" stop-color="#EFE300" stop-opacity="0.34"/>
<stop offset="0.68" stop-color="#EFE300" stop-opacity="0.34"/>
<stop offset="1" stop-color="#BAC32F"/>
</linearGradient>
<linearGradient id="paint15_linear" x1="-424.351" y1="-63.0821" x2="-422.661" y2="-63.0821" gradientUnits="userSpaceOnUse">
<stop offset="0.05" stop-color="#7DB828"/>
<stop offset="0.41" stop-color="#EFE300" stop-opacity="0.34"/>
<stop offset="0.68" stop-color="#EFE300" stop-opacity="0.34"/>
<stop offset="1" stop-color="#BAC32F"/>
</linearGradient>
<linearGradient id="paint16_linear" x1="-415.121" y1="-63.0821" x2="-413.431" y2="-63.0821" gradientUnits="userSpaceOnUse">
<stop offset="0.05" stop-color="#7DB828"/>
<stop offset="0.41" stop-color="#EFE300" stop-opacity="0.34"/>
<stop offset="0.68" stop-color="#EFE300" stop-opacity="0.34"/>
<stop offset="1" stop-color="#BAC32F"/>
</linearGradient>
<linearGradient id="paint17_linear" x1="-489.096" y1="-53.0758" x2="-487.406" y2="-53.0758" gradientUnits="userSpaceOnUse">
<stop offset="0.05" stop-color="#7DB828"/>
<stop offset="0.41" stop-color="#EFE300" stop-opacity="0.34"/>
<stop offset="0.68" stop-color="#EFE300" stop-opacity="0.34"/>
<stop offset="1" stop-color="#BAC32F"/>
</linearGradient>
<linearGradient id="paint18_linear" x1="-479.853" y1="-53.0758" x2="-478.163" y2="-53.0758" gradientUnits="userSpaceOnUse">
<stop offset="0.05" stop-color="#7DB828"/>
<stop offset="0.41" stop-color="#EFE300" stop-opacity="0.34"/>
<stop offset="0.68" stop-color="#EFE300" stop-opacity="0.34"/>
<stop offset="1" stop-color="#BAC32F"/>
</linearGradient>
<linearGradient id="paint19_linear" x1="-466.185" y1="-53.0758" x2="-464.521" y2="-53.0758" gradientUnits="userSpaceOnUse">
<stop offset="0.05" stop-color="#7DB828"/>
<stop offset="0.41" stop-color="#EFE300" stop-opacity="0.34"/>
<stop offset="0.68" stop-color="#EFE300" stop-opacity="0.34"/>
<stop offset="1" stop-color="#BAC32F"/>
</linearGradient>
<linearGradient id="paint20_linear" x1="-456.979" y1="-53.0758" x2="-455.315" y2="-53.0758" gradientUnits="userSpaceOnUse">
<stop offset="0.05" stop-color="#7DB828"/>
<stop offset="0.41" stop-color="#EFE300" stop-opacity="0.34"/>
<stop offset="0.68" stop-color="#EFE300" stop-opacity="0.34"/>
<stop offset="1" stop-color="#BAC32F"/>
</linearGradient>
<linearGradient id="paint21_linear" x1="-447.773" y1="-53.0758" x2="-446.109" y2="-53.0758" gradientUnits="userSpaceOnUse">
<stop offset="0.05" stop-color="#7DB828"/>
<stop offset="0.41" stop-color="#EFE300" stop-opacity="0.34"/>
<stop offset="0.68" stop-color="#EFE300" stop-opacity="0.34"/>
<stop offset="1" stop-color="#BAC32F"/>
</linearGradient>
<linearGradient id="paint22_linear" x1="-438.568" y1="-53.0758" x2="-436.904" y2="-53.0758" gradientUnits="userSpaceOnUse">
<stop offset="0.05" stop-color="#7DB828"/>
<stop offset="0.41" stop-color="#EFE300" stop-opacity="0.34"/>
<stop offset="0.68" stop-color="#EFE300" stop-opacity="0.34"/>
<stop offset="1" stop-color="#BAC32F"/>
</linearGradient>
<linearGradient id="paint23_linear" x1="-433.6" y1="-53.0758" x2="-431.91" y2="-53.0758" gradientUnits="userSpaceOnUse">
<stop offset="0.05" stop-color="#7DB828"/>
<stop offset="0.41" stop-color="#EFE300" stop-opacity="0.34"/>
<stop offset="0.68" stop-color="#EFE300" stop-opacity="0.34"/>
<stop offset="1" stop-color="#BAC32F"/>
</linearGradient>
<linearGradient id="paint24_linear" x1="-424.351" y1="-53.0758" x2="-422.661" y2="-53.0758" gradientUnits="userSpaceOnUse">
<stop offset="0.05" stop-color="#7DB828"/>
<stop offset="0.41" stop-color="#EFE300" stop-opacity="0.34"/>
<stop offset="0.68" stop-color="#EFE300" stop-opacity="0.34"/>
<stop offset="1" stop-color="#BAC32F"/>
</linearGradient>
<linearGradient id="paint25_linear" x1="-415.121" y1="-53.0758" x2="-413.431" y2="-53.0758" gradientUnits="userSpaceOnUse">
<stop offset="0.05" stop-color="#7DB828"/>
<stop offset="0.41" stop-color="#EFE300" stop-opacity="0.34"/>
<stop offset="0.68" stop-color="#EFE300" stop-opacity="0.34"/>
<stop offset="1" stop-color="#BAC32F"/>
</linearGradient>
<linearGradient id="paint26_linear" x1="-405.862" y1="-53.0758" x2="-404.172" y2="-53.0758" gradientUnits="userSpaceOnUse">
<stop offset="0.05" stop-color="#7DB828"/>
<stop offset="0.41" stop-color="#EFE300" stop-opacity="0.34"/>
<stop offset="0.68" stop-color="#EFE300" stop-opacity="0.34"/>
<stop offset="1" stop-color="#BAC32F"/>
</linearGradient>
<linearGradient id="paint27_linear" x1="-498.358" y1="-43.89" x2="-496.668" y2="-43.89" gradientUnits="userSpaceOnUse">
<stop offset="0.05" stop-color="#7DB828"/>
<stop offset="0.41" stop-color="#EFE300" stop-opacity="0.34"/>
<stop offset="0.68" stop-color="#EFE300" stop-opacity="0.34"/>
<stop offset="1" stop-color="#BAC32F"/>
</linearGradient>
<linearGradient id="paint28_linear" x1="-489.096" y1="-43.89" x2="-487.406" y2="-43.89" gradientUnits="userSpaceOnUse">
<stop offset="0.05" stop-color="#7DB828"/>
<stop offset="0.41" stop-color="#EFE300" stop-opacity="0.34"/>
<stop offset="0.68" stop-color="#EFE300" stop-opacity="0.34"/>
<stop offset="1" stop-color="#BAC32F"/>
</linearGradient>
<linearGradient id="paint29_linear" x1="-479.853" y1="-43.89" x2="-478.163" y2="-43.89" gradientUnits="userSpaceOnUse">
<stop offset="0.05" stop-color="#7DB828"/>
<stop offset="0.41" stop-color="#EFE300" stop-opacity="0.34"/>
<stop offset="0.68" stop-color="#EFE300" stop-opacity="0.34"/>
<stop offset="1" stop-color="#BAC32F"/>
</linearGradient>
<linearGradient id="paint30_linear" x1="-466.185" y1="-43.89" x2="-464.521" y2="-43.89" gradientUnits="userSpaceOnUse">
<stop offset="0.05" stop-color="#7DB828"/>
<stop offset="0.41" stop-color="#EFE300" stop-opacity="0.34"/>
<stop offset="0.68" stop-color="#EFE300" stop-opacity="0.34"/>
<stop offset="1" stop-color="#BAC32F"/>
</linearGradient>
<linearGradient id="paint31_linear" x1="-456.979" y1="-43.89" x2="-455.315" y2="-43.89" gradientUnits="userSpaceOnUse">
<stop offset="0.05" stop-color="#7DB828"/>
<stop offset="0.41" stop-color="#EFE300" stop-opacity="0.34"/>
<stop offset="0.68" stop-color="#EFE300" stop-opacity="0.34"/>
<stop offset="1" stop-color="#BAC32F"/>
</linearGradient>
<linearGradient id="paint32_linear" x1="-447.773" y1="-43.89" x2="-446.109" y2="-43.89" gradientUnits="userSpaceOnUse">
<stop offset="0.05" stop-color="#7DB828"/>
<stop offset="0.41" stop-color="#EFE300" stop-opacity="0.34"/>
<stop offset="0.68" stop-color="#EFE300" stop-opacity="0.34"/>
<stop offset="1" stop-color="#BAC32F"/>
</linearGradient>
<linearGradient id="paint33_linear" x1="-438.568" y1="-43.89" x2="-436.904" y2="-43.89" gradientUnits="userSpaceOnUse">
<stop offset="0.05" stop-color="#7DB828"/>
<stop offset="0.41" stop-color="#EFE300" stop-opacity="0.34"/>
<stop offset="0.68" stop-color="#EFE300" stop-opacity="0.34"/>
<stop offset="1" stop-color="#BAC32F"/>
</linearGradient>
<linearGradient id="paint34_linear" x1="-433.6" y1="-43.89" x2="-431.91" y2="-43.89" gradientUnits="userSpaceOnUse">
<stop offset="0.05" stop-color="#7DB828"/>
<stop offset="0.41" stop-color="#EFE300" stop-opacity="0.34"/>
<stop offset="0.68" stop-color="#EFE300" stop-opacity="0.34"/>
<stop offset="1" stop-color="#BAC32F"/>
</linearGradient>
<linearGradient id="paint35_linear" x1="-424.351" y1="-43.89" x2="-422.661" y2="-43.89" gradientUnits="userSpaceOnUse">
<stop offset="0.05" stop-color="#7DB828"/>
<stop offset="0.41" stop-color="#EFE300" stop-opacity="0.34"/>
<stop offset="0.68" stop-color="#EFE300" stop-opacity="0.34"/>
<stop offset="1" stop-color="#BAC32F"/>
</linearGradient>
<linearGradient id="paint36_linear" x1="-415.121" y1="-43.89" x2="-413.431" y2="-43.89" gradientUnits="userSpaceOnUse">
<stop offset="0.05" stop-color="#7DB828"/>
<stop offset="0.41" stop-color="#EFE300" stop-opacity="0.34"/>
<stop offset="0.68" stop-color="#EFE300" stop-opacity="0.34"/>
<stop offset="1" stop-color="#BAC32F"/>
</linearGradient>
<linearGradient id="paint37_linear" x1="-405.862" y1="-43.89" x2="-404.172" y2="-43.89" gradientUnits="userSpaceOnUse">
<stop offset="0.05" stop-color="#7DB828"/>
<stop offset="0.41" stop-color="#EFE300" stop-opacity="0.34"/>
<stop offset="0.68" stop-color="#EFE300" stop-opacity="0.34"/>
<stop offset="1" stop-color="#BAC32F"/>
</linearGradient>
<linearGradient id="paint38_linear" x1="-396.616" y1="-43.89" x2="-394.926" y2="-43.89" gradientUnits="userSpaceOnUse">
<stop offset="0.05" stop-color="#7DB828"/>
<stop offset="0.41" stop-color="#EFE300" stop-opacity="0.34"/>
<stop offset="0.68" stop-color="#EFE300" stop-opacity="0.34"/>
<stop offset="1" stop-color="#BAC32F"/>
</linearGradient>
<linearGradient id="paint39_linear" x1="-498.358" y1="-34.7013" x2="-496.668" y2="-34.7013" gradientUnits="userSpaceOnUse">
<stop offset="0.05" stop-color="#7DB828"/>
<stop offset="0.41" stop-color="#EFE300" stop-opacity="0.34"/>
<stop offset="0.68" stop-color="#EFE300" stop-opacity="0.34"/>
<stop offset="1" stop-color="#BAC32F"/>
</linearGradient>
<linearGradient id="paint40_linear" x1="-489.096" y1="-34.7013" x2="-487.406" y2="-34.7013" gradientUnits="userSpaceOnUse">
<stop offset="0.05" stop-color="#7DB828"/>
<stop offset="0.41" stop-color="#EFE300" stop-opacity="0.34"/>
<stop offset="0.68" stop-color="#EFE300" stop-opacity="0.34"/>
<stop offset="1" stop-color="#BAC32F"/>
</linearGradient>
<linearGradient id="paint41_linear" x1="-479.853" y1="-34.7013" x2="-478.163" y2="-34.7013" gradientUnits="userSpaceOnUse">
<stop offset="0.05" stop-color="#7DB828"/>
<stop offset="0.41" stop-color="#EFE300" stop-opacity="0.34"/>
<stop offset="0.68" stop-color="#EFE300" stop-opacity="0.34"/>
<stop offset="1" stop-color="#BAC32F"/>
</linearGradient>
<linearGradient id="paint42_linear" x1="-466.185" y1="-34.7013" x2="-464.521" y2="-34.7013" gradientUnits="userSpaceOnUse">
<stop offset="0.05" stop-color="#7DB828"/>
<stop offset="0.41" stop-color="#EFE300" stop-opacity="0.34"/>
<stop offset="0.68" stop-color="#EFE300" stop-opacity="0.34"/>
<stop offset="1" stop-color="#BAC32F"/>
</linearGradient>
<linearGradient id="paint43_linear" x1="-424.351" y1="-34.7013" x2="-422.661" y2="-34.7013" gradientUnits="userSpaceOnUse">
<stop offset="0.05" stop-color="#7DB828"/>
<stop offset="0.41" stop-color="#EFE300" stop-opacity="0.34"/>
<stop offset="0.68" stop-color="#EFE300" stop-opacity="0.34"/>
<stop offset="1" stop-color="#BAC32F"/>
</linearGradient>
<linearGradient id="paint44_linear" x1="-415.121" y1="-34.7013" x2="-413.431" y2="-34.7013" gradientUnits="userSpaceOnUse">
<stop offset="0.05" stop-color="#7DB828"/>
<stop offset="0.41" stop-color="#EFE300" stop-opacity="0.34"/>
<stop offset="0.68" stop-color="#EFE300" stop-opacity="0.34"/>
<stop offset="1" stop-color="#BAC32F"/>
</linearGradient>
<linearGradient id="paint45_linear" x1="-405.862" y1="-34.7013" x2="-404.172" y2="-34.7013" gradientUnits="userSpaceOnUse">
<stop offset="0.05" stop-color="#7DB828"/>
<stop offset="0.41" stop-color="#EFE300" stop-opacity="0.34"/>
<stop offset="0.68" stop-color="#EFE300" stop-opacity="0.34"/>
<stop offset="1" stop-color="#BAC32F"/>
</linearGradient>
<linearGradient id="paint46_linear" x1="-396.616" y1="-34.7013" x2="-394.926" y2="-34.7013" gradientUnits="userSpaceOnUse">
<stop offset="0.05" stop-color="#7DB828"/>
<stop offset="0.41" stop-color="#EFE300" stop-opacity="0.34"/>
<stop offset="0.68" stop-color="#EFE300" stop-opacity="0.34"/>
<stop offset="1" stop-color="#BAC32F"/>
</linearGradient>
<linearGradient id="paint47_linear" x1="-319.511" y1="-26.1692" x2="-318.718" y2="-26.1692" gradientUnits="userSpaceOnUse">
<stop offset="0.05" stop-color="#7DB828"/>
<stop offset="0.41" stop-color="#EFE300" stop-opacity="0.34"/>
<stop offset="0.68" stop-color="#EFE300" stop-opacity="0.34"/>
<stop offset="1" stop-color="#BAC32F"/>
</linearGradient>
<linearGradient id="paint48_linear" x1="-498.358" y1="-25.4656" x2="-496.668" y2="-25.4656" gradientUnits="userSpaceOnUse">
<stop offset="0.05" stop-color="#7DB828"/>
<stop offset="0.41" stop-color="#EFE300" stop-opacity="0.34"/>
<stop offset="0.68" stop-color="#EFE300" stop-opacity="0.34"/>
<stop offset="1" stop-color="#BAC32F"/>
</linearGradient>
<linearGradient id="paint49_linear" x1="-489.096" y1="-25.4656" x2="-487.406" y2="-25.4656" gradientUnits="userSpaceOnUse">
<stop offset="0.05" stop-color="#7DB828"/>
<stop offset="0.41" stop-color="#EFE300" stop-opacity="0.34"/>
<stop offset="0.68" stop-color="#EFE300" stop-opacity="0.34"/>
<stop offset="1" stop-color="#BAC32F"/>
</linearGradient>
<linearGradient id="paint50_linear" x1="-479.853" y1="-25.4656" x2="-478.163" y2="-25.4656" gradientUnits="userSpaceOnUse">
<stop offset="0.05" stop-color="#7DB828"/>
<stop offset="0.41" stop-color="#EFE300" stop-opacity="0.34"/>
<stop offset="0.68" stop-color="#EFE300" stop-opacity="0.34"/>
<stop offset="1" stop-color="#BAC32F"/>
</linearGradient>
<linearGradient id="paint51_linear" x1="-415.121" y1="-25.4656" x2="-413.431" y2="-25.4656" gradientUnits="userSpaceOnUse">
<stop offset="0.05" stop-color="#7DB828"/>
<stop offset="0.41" stop-color="#EFE300" stop-opacity="0.34"/>
<stop offset="0.68" stop-color="#EFE300" stop-opacity="0.34"/>
<stop offset="1" stop-color="#BAC32F"/>
</linearGradient>
<linearGradient id="paint52_linear" x1="-405.862" y1="-25.4656" x2="-404.172" y2="-25.4656" gradientUnits="userSpaceOnUse">
<stop offset="0.05" stop-color="#7DB828"/>
<stop offset="0.41" stop-color="#EFE300" stop-opacity="0.34"/>
<stop offset="0.68" stop-color="#EFE300" stop-opacity="0.34"/>
<stop offset="1" stop-color="#BAC32F"/>
</linearGradient>
<linearGradient id="paint53_linear" x1="-396.616" y1="-25.4656" x2="-394.926" y2="-25.4656" gradientUnits="userSpaceOnUse">
<stop offset="0.05" stop-color="#7DB828"/>
<stop offset="0.41" stop-color="#EFE300" stop-opacity="0.34"/>
<stop offset="0.68" stop-color="#EFE300" stop-opacity="0.34"/>
<stop offset="1" stop-color="#BAC32F"/>
</linearGradient>
<linearGradient id="paint54_linear" x1="-217.499" y1="-23.6024" x2="-216.724" y2="-23.6024" gradientUnits="userSpaceOnUse">
<stop offset="0.05" stop-color="#7DB828"/>
<stop offset="0.41" stop-color="#EFE300" stop-opacity="0.34"/>
<stop offset="0.68" stop-color="#EFE300" stop-opacity="0.34"/>
<stop offset="1" stop-color="#BAC32F"/>
</linearGradient>
<linearGradient id="paint55_linear" x1="-507.591" y1="-16.8691" x2="-505.901" y2="-16.8691" gradientUnits="userSpaceOnUse">
<stop offset="0.05" stop-color="#7DB828"/>
<stop offset="0.41" stop-color="#EFE300" stop-opacity="0.34"/>
<stop offset="0.68" stop-color="#EFE300" stop-opacity="0.34"/>
<stop offset="1" stop-color="#BAC32F"/>
</linearGradient>
<linearGradient id="paint56_linear" x1="-498.358" y1="-16.8691" x2="-496.668" y2="-16.8691" gradientUnits="userSpaceOnUse">
<stop offset="0.05" stop-color="#7DB828"/>
<stop offset="0.41" stop-color="#EFE300" stop-opacity="0.34"/>
<stop offset="0.68" stop-color="#EFE300" stop-opacity="0.34"/>
<stop offset="1" stop-color="#BAC32F"/>
</linearGradient>
<linearGradient id="paint57_linear" x1="-489.096" y1="-16.8691" x2="-487.406" y2="-16.8691" gradientUnits="userSpaceOnUse">
<stop offset="0.05" stop-color="#7DB828"/>
<stop offset="0.41" stop-color="#EFE300" stop-opacity="0.34"/>
<stop offset="0.68" stop-color="#EFE300" stop-opacity="0.34"/>
<stop offset="1" stop-color="#BAC32F"/>
</linearGradient>
<linearGradient id="paint58_linear" x1="-479.853" y1="-16.8691" x2="-478.163" y2="-16.8691" gradientUnits="userSpaceOnUse">
<stop offset="0.05" stop-color="#7DB828"/>
<stop offset="0.41" stop-color="#EFE300" stop-opacity="0.34"/>
<stop offset="0.68" stop-color="#EFE300" stop-opacity="0.34"/>
<stop offset="1" stop-color="#BAC32F"/>
</linearGradient>
<linearGradient id="paint59_linear" x1="-415.121" y1="-16.8691" x2="-413.431" y2="-16.8691" gradientUnits="userSpaceOnUse">
<stop offset="0.05" stop-color="#7DB828"/>
<stop offset="0.41" stop-color="#EFE300" stop-opacity="0.34"/>
<stop offset="0.68" stop-color="#EFE300" stop-opacity="0.34"/>
<stop offset="1" stop-color="#BAC32F"/>
</linearGradient>
<linearGradient id="paint60_linear" x1="-405.862" y1="-16.8691" x2="-404.172" y2="-16.8691" gradientUnits="userSpaceOnUse">
<stop offset="0.05" stop-color="#7DB828"/>
<stop offset="0.41" stop-color="#EFE300" stop-opacity="0.34"/>
<stop offset="0.68" stop-color="#EFE300" stop-opacity="0.34"/>
<stop offset="1" stop-color="#BAC32F"/>
</linearGradient>
<linearGradient id="paint61_linear" x1="-396.616" y1="-16.8691" x2="-394.926" y2="-16.8691" gradientUnits="userSpaceOnUse">
<stop offset="0.05" stop-color="#7DB828"/>
<stop offset="0.41" stop-color="#EFE300" stop-opacity="0.34"/>
<stop offset="0.68" stop-color="#EFE300" stop-opacity="0.34"/>
<stop offset="1" stop-color="#BAC32F"/>
</linearGradient>
<linearGradient id="paint62_linear" x1="-387.382" y1="-16.8691" x2="-385.692" y2="-16.8691" gradientUnits="userSpaceOnUse">
<stop offset="0.05" stop-color="#7DB828"/>
<stop offset="0.41" stop-color="#EFE300" stop-opacity="0.34"/>
<stop offset="0.68" stop-color="#EFE300" stop-opacity="0.34"/>
<stop offset="1" stop-color="#BAC32F"/>
</linearGradient>
<linearGradient id="paint63_linear" x1="23" y1="15.1001" x2="25.25" y2="15.1001" gradientUnits="userSpaceOnUse">
<stop offset="0.05" stop-color="#7DB828"/>
<stop offset="0.41" stop-color="#EFE300" stop-opacity="0.34"/>
<stop offset="0.68" stop-color="#EFE300" stop-opacity="0.34"/>
<stop offset="1" stop-color="#BAC32F"/>
</linearGradient>
<linearGradient id="paint64_linear" x1="70.789" y1="124.91" x2="75.874" y2="124.91" gradientUnits="userSpaceOnUse">
<stop offset="0.05" stop-color="#7DB828"/>
<stop offset="0.41" stop-color="#EFE300" stop-opacity="0.34"/>
<stop offset="0.68" stop-color="#EFE300" stop-opacity="0.34"/>
<stop offset="1" stop-color="#BAC32F"/>
</linearGradient>
<linearGradient id="paint65_linear" x1="93.5112" y1="79.4558" x2="98.5962" y2="79.4558" gradientUnits="userSpaceOnUse">
<stop offset="0.05" stop-color="#7DB828"/>
<stop offset="0.41" stop-color="#EFE300" stop-opacity="0.34"/>
<stop offset="0.68" stop-color="#EFE300" stop-opacity="0.34"/>
<stop offset="1" stop-color="#BAC32F"/>
</linearGradient>
<linearGradient id="paint66_linear" x1="93.5112" y1="102.148" x2="98.5962" y2="102.148" gradientUnits="userSpaceOnUse">
<stop offset="0.05" stop-color="#7DB828"/>
<stop offset="0.41" stop-color="#EFE300" stop-opacity="0.34"/>
<stop offset="0.68" stop-color="#EFE300" stop-opacity="0.34"/>
<stop offset="1" stop-color="#BAC32F"/>
</linearGradient>
<linearGradient id="paint67_linear" x1="93.5113" y1="124.91" x2="98.5963" y2="124.91" gradientUnits="userSpaceOnUse">
<stop offset="0.05" stop-color="#7DB828"/>
<stop offset="0.41" stop-color="#EFE300" stop-opacity="0.34"/>
<stop offset="0.68" stop-color="#EFE300" stop-opacity="0.34"/>
<stop offset="1" stop-color="#BAC32F"/>
</linearGradient>
<linearGradient id="paint68_linear" x1="93.5163" y1="147.758" x2="98.6013" y2="147.758" gradientUnits="userSpaceOnUse">
<stop offset="0.05" stop-color="#7DB828"/>
<stop offset="0.41" stop-color="#EFE300" stop-opacity="0.34"/>
<stop offset="0.68" stop-color="#EFE300" stop-opacity="0.34"/>
<stop offset="1" stop-color="#BAC32F"/>
</linearGradient>
<linearGradient id="paint69_linear" x1="116.235" y1="79.4556" x2="121.32" y2="79.4556" gradientUnits="userSpaceOnUse">
<stop offset="0.05" stop-color="#7DB828"/>
<stop offset="0.41" stop-color="#EFE300" stop-opacity="0.34"/>
<stop offset="0.68" stop-color="#EFE300" stop-opacity="0.34"/>
<stop offset="1" stop-color="#BAC32F"/>
</linearGradient>
<linearGradient id="paint70_linear" x1="116.235" y1="102.148" x2="121.32" y2="102.148" gradientUnits="userSpaceOnUse">
<stop offset="0.05" stop-color="#7DB828"/>
<stop offset="0.41" stop-color="#EFE300" stop-opacity="0.34"/>
<stop offset="0.68" stop-color="#EFE300" stop-opacity="0.34"/>
<stop offset="1" stop-color="#BAC32F"/>
</linearGradient>
<linearGradient id="paint71_linear" x1="116.233" y1="124.91" x2="121.318" y2="124.91" gradientUnits="userSpaceOnUse">
<stop offset="0.05" stop-color="#7DB828"/>
<stop offset="0.41" stop-color="#EFE300" stop-opacity="0.34"/>
<stop offset="0.68" stop-color="#EFE300" stop-opacity="0.34"/>
<stop offset="1" stop-color="#BAC32F"/>
</linearGradient>
<linearGradient id="paint72_linear" x1="116.233" y1="147.662" x2="121.318" y2="147.662" gradientUnits="userSpaceOnUse">
<stop offset="0.05" stop-color="#7DB828"/>
<stop offset="0.41" stop-color="#EFE300" stop-opacity="0.34"/>
<stop offset="0.68" stop-color="#EFE300" stop-opacity="0.34"/>
<stop offset="1" stop-color="#BAC32F"/>
</linearGradient>
<linearGradient id="paint73_linear" x1="138.961" y1="102.042" x2="144.046" y2="102.042" gradientUnits="userSpaceOnUse">
<stop offset="0.05" stop-color="#7DB828"/>
<stop offset="0.41" stop-color="#EFE300" stop-opacity="0.34"/>
<stop offset="0.68" stop-color="#EFE300" stop-opacity="0.34"/>
<stop offset="1" stop-color="#BAC32F"/>
</linearGradient>
<linearGradient id="paint74_linear" x1="138.956" y1="124.91" x2="144.041" y2="124.91" gradientUnits="userSpaceOnUse">
<stop offset="0.05" stop-color="#7DB828"/>
<stop offset="0.41" stop-color="#EFE300" stop-opacity="0.34"/>
<stop offset="0.68" stop-color="#EFE300" stop-opacity="0.34"/>
<stop offset="1" stop-color="#BAC32F"/>
</linearGradient>
<clipPath id="clip0">
<rect width="152" height="64" fill="white"/>
</clipPath>
</defs>
</svg>
