<svg width="312" height="108" viewBox="0 0 312 108" fill="none" xmlns="http://www.w3.org/2000/svg">
<rect width="312" height="108" rx="24" fill="url(#paint0_linear)"/>
<mask id="mask0" mask-type="alpha" maskUnits="userSpaceOnUse" x="0" y="0" width="312" height="108">
<rect width="312" height="108" rx="24" fill="url(#paint1_linear)"/>
</mask>
<g mask="url(#mask0)">
<path d="M17.942 49.1082C18.0373 49.4577 18.1114 49.8072 18.1856 50.1673C18.1224 50.1782 18.058 50.1782 17.9949 50.1673C17.9217 50.1687 17.849 50.1555 17.7809 50.1284C17.7129 50.1014 17.6509 50.0611 17.5986 50.0098C17.5464 49.9585 17.5049 49.8973 17.4765 49.8298C17.4482 49.7623 17.4336 49.6897 17.4336 49.6166C17.4358 49.4794 17.4892 49.348 17.5832 49.2481C17.6773 49.1482 17.8052 49.087 17.942 49.0764V49.1082Z" fill="url(#paint2_linear)"/>
<path d="M17.9949 52.4542C18.0667 52.4528 18.1381 52.4657 18.2049 52.4922C18.2717 52.5187 18.3325 52.5583 18.3837 52.6086C18.435 52.6589 18.4758 52.7189 18.5036 52.7852C18.5314 52.8514 18.5457 52.9225 18.5457 52.9943C18.5457 53.1404 18.4876 53.2805 18.3844 53.3838C18.2811 53.487 18.141 53.5451 17.9949 53.5451C17.9217 53.5465 17.849 53.5332 17.7809 53.5062C17.7129 53.4792 17.6509 53.4389 17.5986 53.3876C17.5464 53.3362 17.5049 53.2751 17.4765 53.2075C17.4482 53.1401 17.4336 53.0675 17.4336 52.9943C17.435 52.922 17.4506 52.8506 17.4796 52.7843C17.5085 52.718 17.5502 52.6582 17.6024 52.608C17.6545 52.5578 17.716 52.5184 17.7833 52.492C17.8507 52.4656 17.9226 52.4528 17.9949 52.4542Z" fill="url(#paint3_linear)"/>
<path d="M17.9949 55.8318C18.0667 55.8304 18.1381 55.8433 18.2049 55.8698C18.2717 55.8963 18.3325 55.9359 18.3837 55.9862C18.435 56.0365 18.4758 56.0964 18.5036 56.1627C18.5314 56.2289 18.5457 56.3001 18.5457 56.3719C18.5457 56.518 18.4876 56.6581 18.3844 56.7613C18.2811 56.8646 18.141 56.9226 17.9949 56.9226C17.9217 56.924 17.849 56.9109 17.7809 56.8838C17.7129 56.8568 17.6509 56.8164 17.5986 56.7652C17.5464 56.7138 17.5049 56.6527 17.4765 56.5851C17.4482 56.5176 17.4336 56.4451 17.4336 56.3719C17.435 56.2996 17.4506 56.2282 17.4796 56.1619C17.5085 56.0956 17.5502 56.0357 17.6024 55.9855C17.6545 55.9353 17.716 55.8959 17.7833 55.8696C17.8507 55.8432 17.9226 55.8304 17.9949 55.8318Z" fill="url(#paint4_linear)"/>
<path d="M17.9949 59.2094C18.058 59.1993 18.1224 59.1993 18.1856 59.2094C18.1114 59.5695 18.0373 59.919 17.942 60.2685C17.8043 60.2603 17.675 60.1999 17.5804 60.0995C17.4859 59.9991 17.4334 59.8663 17.4336 59.7284C17.435 59.656 17.4506 59.5846 17.4796 59.5183C17.5085 59.4521 17.5502 59.3922 17.6024 59.342C17.6545 59.2918 17.716 59.2524 17.7833 59.226C17.8507 59.1996 17.9226 59.1868 17.9949 59.1882V59.2094Z" fill="url(#paint5_linear)"/>
<path d="M14.5312 42.3211C14.6035 42.3198 14.6755 42.3326 14.7428 42.359C14.8102 42.3854 14.8716 42.4248 14.9237 42.4749C14.9759 42.5251 15.0177 42.5851 15.0466 42.6514C15.0756 42.7176 15.0912 42.789 15.0925 42.8613C15.0925 42.9345 15.0779 43.007 15.0496 43.0745C15.0213 43.1421 14.9797 43.2033 14.9275 43.2545C14.8752 43.3058 14.8132 43.3462 14.7453 43.3732C14.6772 43.4003 14.6044 43.4134 14.5312 43.412C14.3852 43.412 14.245 43.354 14.1418 43.2507C14.0385 43.1475 13.9805 43.0073 13.9805 42.8613C13.9805 42.7895 13.9948 42.7183 14.0225 42.6521C14.0504 42.5859 14.0911 42.5259 14.1424 42.4756C14.1937 42.4253 14.2545 42.3858 14.3213 42.3592C14.388 42.3327 14.4594 42.3198 14.5312 42.3211Z" fill="url(#paint6_linear)"/>
<path d="M14.5312 45.6988C14.6035 45.6975 14.6755 45.7103 14.7428 45.7366C14.8102 45.7631 14.8716 45.8025 14.9237 45.8526C14.9759 45.9028 15.0177 45.9628 15.0466 46.0291C15.0756 46.0954 15.0912 46.1666 15.0925 46.239C15.0925 46.3122 15.0779 46.3847 15.0496 46.4522C15.0213 46.5197 14.9797 46.581 14.9275 46.6322C14.8752 46.6835 14.8132 46.7238 14.7453 46.7508C14.6772 46.778 14.6044 46.7911 14.5312 46.7897C14.3852 46.7897 14.245 46.7317 14.1418 46.6284C14.0385 46.5251 13.9805 46.385 13.9805 46.239C13.9805 46.1672 13.9948 46.096 14.0225 46.0298C14.0504 45.9636 14.0911 45.9036 14.1424 45.8532C14.1937 45.8029 14.2545 45.7634 14.3213 45.7369C14.388 45.7104 14.4594 45.6975 14.5312 45.6988Z" fill="url(#paint7_linear)"/>
<path d="M14.5312 49.1082C14.6035 49.1068 14.6755 49.1196 14.7428 49.146C14.8102 49.1723 14.8716 49.2117 14.9237 49.2619C14.9759 49.3121 15.0177 49.3721 15.0466 49.4383C15.0756 49.5046 15.0912 49.576 15.0925 49.6483C15.0844 49.7906 15.0213 49.9242 14.9166 50.021C14.8119 50.1178 14.6738 50.1702 14.5312 50.1673C14.4589 50.1673 14.3873 50.1531 14.3204 50.1253C14.2536 50.0977 14.1929 50.0571 14.1418 50.006C14.0906 49.9548 14.0501 49.8941 14.0224 49.8273C13.9947 49.7605 13.9805 49.6889 13.9805 49.6165C13.9886 49.477 14.0506 49.346 14.1533 49.2512C14.256 49.1565 14.3915 49.1052 14.5312 49.1082Z" fill="url(#paint8_linear)"/>
<path d="M14.5312 52.4542C14.6035 52.4528 14.6755 52.4656 14.7428 52.492C14.8102 52.5184 14.8716 52.5578 14.9237 52.608C14.9759 52.6582 15.0177 52.718 15.0466 52.7843C15.0756 52.8506 15.0912 52.922 15.0925 52.9943C15.0925 53.0675 15.0779 53.1401 15.0496 53.2075C15.0213 53.2751 14.9797 53.3362 14.9275 53.3876C14.8752 53.4389 14.8132 53.4792 14.7453 53.5062C14.6772 53.5332 14.6044 53.5465 14.5312 53.5451C14.3852 53.5451 14.245 53.487 14.1418 53.3838C14.0385 53.2805 13.9805 53.1404 13.9805 52.9943C13.9805 52.9225 13.9948 52.8514 14.0225 52.7852C14.0504 52.7189 14.0911 52.6589 14.1424 52.6086C14.1937 52.5583 14.2545 52.5187 14.3213 52.4922C14.388 52.4657 14.4594 52.4528 14.5312 52.4542Z" fill="url(#paint9_linear)"/>
<path d="M14.5312 55.8318C14.6035 55.8304 14.6755 55.8432 14.7428 55.8696C14.8102 55.8959 14.8716 55.9353 14.9237 55.9855C14.9759 56.0357 15.0177 56.0956 15.0466 56.1619C15.0756 56.2282 15.0912 56.2996 15.0925 56.3719C15.0925 56.4451 15.0779 56.5176 15.0496 56.5851C15.0213 56.6527 14.9797 56.7138 14.9275 56.7652C14.8752 56.8164 14.8132 56.8568 14.7453 56.8838C14.6772 56.9109 14.6044 56.924 14.5312 56.9226C14.4589 56.9226 14.3873 56.9084 14.3204 56.8807C14.2536 56.8531 14.1929 56.8125 14.1418 56.7613C14.0906 56.7102 14.0501 56.6495 14.0224 56.5827C13.9947 56.5158 13.9805 56.4443 13.9805 56.3719C13.9805 56.3001 13.9948 56.2289 14.0225 56.1627C14.0504 56.0964 14.0911 56.0365 14.1424 55.9862C14.1937 55.9359 14.2545 55.8963 14.3213 55.8698C14.388 55.8433 14.4594 55.8304 14.5312 55.8318Z" fill="url(#paint10_linear)"/>
<path d="M14.5312 59.2095C14.6035 59.2081 14.6755 59.2209 14.7428 59.2473C14.8102 59.2736 14.8716 59.313 14.9237 59.3632C14.9759 59.4134 15.0177 59.4733 15.0466 59.5396C15.0756 59.6059 15.0912 59.6773 15.0925 59.7496C15.0925 59.8228 15.0779 59.8953 15.0496 59.9628C15.0213 60.0304 14.9797 60.0915 14.9275 60.1428C14.8752 60.1941 14.8132 60.2345 14.7453 60.2615C14.6772 60.2886 14.6044 60.3017 14.5312 60.3003C14.3852 60.3003 14.245 60.2423 14.1418 60.139C14.0385 60.0358 13.9805 59.8957 13.9805 59.7496C13.9805 59.6778 13.9948 59.6066 14.0225 59.5404C14.0504 59.4741 14.0911 59.4142 14.1424 59.3639C14.1937 59.3136 14.2545 59.274 14.3213 59.2475C14.388 59.221 14.4594 59.2081 14.5312 59.2095Z" fill="url(#paint11_linear)"/>
<path d="M14.5312 62.5869C14.6035 62.5855 14.6755 62.5983 14.7428 62.6247C14.8102 62.6511 14.8716 62.6905 14.9237 62.7407C14.9759 62.7909 15.0177 62.8508 15.0466 62.917C15.0756 62.9833 15.0912 63.0547 15.0925 63.127C15.0925 63.2002 15.0779 63.2728 15.0496 63.3402C15.0213 63.4078 14.9797 63.469 14.9275 63.5203C14.8752 63.5715 14.8132 63.6119 14.7453 63.6389C14.6772 63.666 14.6044 63.6792 14.5312 63.6778C14.3852 63.6778 14.245 63.6197 14.1418 63.5165C14.0385 63.4132 13.9805 63.2731 13.9805 63.127C13.9805 63.0552 13.9948 62.9841 14.0225 62.9179C14.0504 62.8516 14.0911 62.7916 14.1424 62.7413C14.1937 62.691 14.2545 62.6514 14.3213 62.6249C14.388 62.5984 14.4594 62.5855 14.5312 62.5869Z" fill="url(#paint12_linear)"/>
<path d="M14.5312 65.9647C14.6035 65.9633 14.6755 65.9761 14.7428 66.0025C14.8102 66.0289 14.8716 66.0683 14.9237 66.1185C14.9759 66.1687 15.0177 66.2286 15.0466 66.2948C15.0756 66.3611 15.0912 66.4325 15.0925 66.5048C15.1001 66.5824 15.0911 66.6606 15.0661 66.7345C15.0411 66.8083 15.0007 66.876 14.9476 66.9329C14.8946 66.99 14.8301 67.0351 14.7583 67.0654C14.6865 67.0957 14.6091 67.1104 14.5312 67.1085C14.3852 67.1085 14.245 67.0505 14.1418 66.9472C14.0385 66.844 13.9805 66.7039 13.9805 66.5578C13.9805 66.486 13.9948 66.4148 14.0225 66.3486C14.0504 66.2824 14.0911 66.2224 14.1424 66.1721C14.1937 66.1218 14.2545 66.0822 14.3213 66.0557C14.388 66.0292 14.4594 66.0163 14.5312 66.0177V65.9647Z" fill="url(#paint13_linear)"/>
<path d="M11.0996 38.9436C11.1719 38.9422 11.2438 38.955 11.3112 38.9814C11.3785 39.0078 11.44 39.0472 11.4922 39.0974C11.5443 39.1476 11.586 39.2075 11.6149 39.2738C11.6439 39.3401 11.6595 39.4114 11.6609 39.4837C11.6609 39.5569 11.6463 39.6295 11.618 39.6969C11.5896 39.7645 11.5481 39.8257 11.4959 39.877C11.4436 39.9282 11.3816 39.9686 11.3136 39.9956C11.2455 40.0227 11.1727 40.0358 11.0996 40.0345C10.9535 40.0345 10.8134 39.9764 10.7101 39.8732C10.6069 39.7699 10.5488 39.6298 10.5488 39.4837C10.5488 39.4119 10.5631 39.3407 10.591 39.2746C10.6187 39.2084 10.6595 39.1483 10.7108 39.098C10.762 39.0477 10.8228 39.0082 10.8896 38.9816C10.9564 38.9551 11.0278 38.9422 11.0996 38.9436Z" fill="url(#paint14_linear)"/>
<path d="M11.0996 42.3211C11.1719 42.3198 11.2438 42.3326 11.3112 42.359C11.3785 42.3854 11.44 42.4248 11.4922 42.4749C11.5443 42.5251 11.586 42.5851 11.6149 42.6514C11.6439 42.7176 11.6595 42.789 11.6609 42.8613C11.6609 42.9345 11.6463 43.007 11.618 43.0745C11.5896 43.1421 11.5481 43.2033 11.4959 43.2545C11.4436 43.3058 11.3816 43.3462 11.3136 43.3732C11.2455 43.4003 11.1727 43.4134 11.0996 43.412C10.9535 43.412 10.8134 43.354 10.7101 43.2507C10.6069 43.1475 10.5488 43.0073 10.5488 42.8613C10.5488 42.7895 10.5631 42.7183 10.591 42.6521C10.6187 42.5859 10.6595 42.5259 10.7108 42.4756C10.762 42.4253 10.8228 42.3858 10.8896 42.3592C10.9564 42.3327 11.0278 42.3198 11.0996 42.3211Z" fill="url(#paint15_linear)"/>
<path d="M11.0996 45.6988C11.1719 45.6975 11.2438 45.7103 11.3112 45.7366C11.3785 45.7631 11.44 45.8025 11.4922 45.8526C11.5443 45.9028 11.586 45.9628 11.6149 46.0291C11.6439 46.0954 11.6595 46.1666 11.6609 46.239C11.6609 46.3122 11.6463 46.3847 11.618 46.4522C11.5896 46.5197 11.5481 46.581 11.4959 46.6322C11.4436 46.6835 11.3816 46.7238 11.3136 46.7508C11.2455 46.778 11.1727 46.7911 11.0996 46.7897C10.9535 46.7897 10.8134 46.7317 10.7101 46.6284C10.6069 46.5251 10.5488 46.385 10.5488 46.239C10.5488 46.1672 10.5631 46.096 10.591 46.0298C10.6187 45.9636 10.6595 45.9036 10.7108 45.8532C10.762 45.8029 10.8228 45.7634 10.8896 45.7369C10.9564 45.7104 11.0278 45.6975 11.0996 45.6988Z" fill="url(#paint16_linear)"/>
<path d="M11.0996 49.1081C11.1719 49.1068 11.2438 49.1196 11.3112 49.1459C11.3785 49.1724 11.44 49.2118 11.4922 49.2619C11.5443 49.3121 11.586 49.3721 11.6149 49.4384C11.6439 49.5047 11.6595 49.5759 11.6609 49.6483C11.6609 49.7215 11.6463 49.794 11.618 49.8615C11.5896 49.929 11.5481 49.9903 11.4959 50.0415C11.4436 50.0928 11.3816 50.1331 11.3136 50.1601C11.2455 50.1873 11.1727 50.2004 11.0996 50.199C10.9535 50.199 10.8134 50.141 10.7101 50.0377C10.6069 49.9345 10.5488 49.7943 10.5488 49.6483C10.5488 49.5765 10.5631 49.5053 10.591 49.4391C10.6187 49.3729 10.6595 49.3129 10.7108 49.2626C10.762 49.2122 10.8228 49.1727 10.8896 49.1462C10.9564 49.1197 11.0278 49.1068 11.0996 49.1081Z" fill="url(#paint17_linear)"/>
<path d="M11.0996 52.4542C11.1719 52.4528 11.2438 52.4656 11.3112 52.492C11.3785 52.5184 11.44 52.5578 11.4922 52.608C11.5443 52.6582 11.586 52.718 11.6149 52.7843C11.6439 52.8506 11.6595 52.922 11.6609 52.9943C11.6609 53.0675 11.6463 53.1401 11.618 53.2075C11.5896 53.2751 11.5481 53.3362 11.4959 53.3876C11.4436 53.4389 11.3816 53.4792 11.3136 53.5062C11.2455 53.5332 11.1727 53.5465 11.0996 53.5451C10.9535 53.5451 10.8134 53.487 10.7101 53.3838C10.6069 53.2805 10.5488 53.1404 10.5488 52.9943C10.5488 52.9225 10.5631 52.8514 10.591 52.7852C10.6187 52.7189 10.6595 52.6589 10.7108 52.6086C10.762 52.5583 10.8228 52.5187 10.8896 52.4922C10.9564 52.4657 11.0278 52.4528 11.0996 52.4542Z" fill="url(#paint18_linear)"/>
<path d="M11.0996 55.8318C11.1719 55.8304 11.2438 55.8432 11.3112 55.8696C11.3785 55.8959 11.44 55.9353 11.4922 55.9855C11.5443 56.0357 11.586 56.0956 11.6149 56.1619C11.6439 56.2282 11.6595 56.2996 11.6609 56.3719C11.6609 56.4451 11.6463 56.5176 11.618 56.5851C11.5896 56.6527 11.5481 56.7138 11.4959 56.7652C11.4436 56.8164 11.3816 56.8568 11.3136 56.8838C11.2455 56.9109 11.1727 56.924 11.0996 56.9226C10.9535 56.9226 10.8134 56.8646 10.7101 56.7613C10.6069 56.6581 10.5488 56.518 10.5488 56.3719C10.5488 56.3001 10.5631 56.2289 10.591 56.1627C10.6187 56.0964 10.6595 56.0365 10.7108 55.9862C10.762 55.9359 10.8228 55.8963 10.8896 55.8698C10.9564 55.8433 11.0278 55.8304 11.0996 55.8318Z" fill="url(#paint19_linear)"/>
<path d="M11.0996 59.2095C11.1719 59.2081 11.2438 59.2209 11.3112 59.2473C11.3785 59.2736 11.44 59.313 11.4922 59.3632C11.5443 59.4134 11.586 59.4733 11.6149 59.5396C11.6439 59.6059 11.6595 59.6773 11.6609 59.7496C11.6609 59.8228 11.6463 59.8953 11.618 59.9628C11.5896 60.0304 11.5481 60.0915 11.4959 60.1428C11.4436 60.1941 11.3816 60.2345 11.3136 60.2615C11.2455 60.2886 11.1727 60.3017 11.0996 60.3003C10.9535 60.3003 10.8134 60.2423 10.7101 60.139C10.6069 60.0358 10.5488 59.8957 10.5488 59.7496C10.5488 59.6778 10.5631 59.6066 10.591 59.5404C10.6187 59.4741 10.6595 59.4142 10.7108 59.3639C10.762 59.3136 10.8228 59.274 10.8896 59.2475C10.9564 59.221 11.0278 59.2081 11.0996 59.2095Z" fill="url(#paint20_linear)"/>
<path d="M11.0996 62.5869C11.1719 62.5855 11.2438 62.5983 11.3112 62.6247C11.3785 62.6511 11.44 62.6905 11.4922 62.7407C11.5443 62.7909 11.586 62.8508 11.6149 62.917C11.6439 62.9833 11.6595 63.0547 11.6609 63.127C11.6609 63.2002 11.6463 63.2728 11.618 63.3402C11.5896 63.4078 11.5481 63.469 11.4959 63.5203C11.4436 63.5715 11.3816 63.6119 11.3136 63.6389C11.2455 63.666 11.1727 63.6792 11.0996 63.6778C10.9535 63.6778 10.8134 63.6197 10.7101 63.5165C10.6069 63.4132 10.5488 63.2731 10.5488 63.127C10.5488 63.0552 10.5631 62.9841 10.591 62.9179C10.6187 62.8516 10.6595 62.7916 10.7108 62.7413C10.762 62.691 10.8228 62.6514 10.8896 62.6249C10.9564 62.5984 11.0278 62.5855 11.0996 62.5869Z" fill="url(#paint21_linear)"/>
<path d="M11.0996 65.9647C11.1719 65.9633 11.2438 65.9761 11.3112 66.0025C11.3785 66.0289 11.44 66.0683 11.4922 66.1185C11.5443 66.1687 11.586 66.2286 11.6149 66.2948C11.6439 66.3611 11.6595 66.4325 11.6609 66.5048C11.6609 66.578 11.6463 66.6506 11.618 66.718C11.5896 66.7856 11.5481 66.8468 11.4959 66.8981C11.4436 66.9494 11.3816 66.9897 11.3136 67.0167C11.2455 67.0438 11.1727 67.057 11.0996 67.0556C10.9535 67.0556 10.8134 66.9975 10.7101 66.8943C10.6069 66.791 10.5488 66.6509 10.5488 66.5048C10.5488 66.433 10.5631 66.3619 10.591 66.2957C10.6187 66.2295 10.6595 66.1694 10.7108 66.1191C10.762 66.0688 10.8228 66.0292 10.8896 66.0027C10.9564 65.9762 11.0278 65.9633 11.0996 65.9647Z" fill="url(#paint22_linear)"/>
<path d="M11.0996 69.3424C11.1719 69.341 11.2438 69.3538 11.3112 69.3802C11.3785 69.4066 11.44 69.446 11.4922 69.4962C11.5443 69.5464 11.586 69.6063 11.6149 69.6725C11.6439 69.7388 11.6595 69.8102 11.6609 69.8825C11.6609 69.9557 11.6463 70.0283 11.618 70.0957C11.5896 70.1633 11.5481 70.2245 11.4959 70.2758C11.4436 70.327 11.3816 70.3674 11.3136 70.3944C11.2455 70.4215 11.1727 70.4346 11.0996 70.4333C10.9535 70.4333 10.8134 70.3752 10.7101 70.272C10.6069 70.1687 10.5488 70.0286 10.5488 69.8825C10.5488 69.8107 10.5631 69.7396 10.591 69.6734C10.6187 69.6072 10.6595 69.5471 10.7108 69.4968C10.762 69.4465 10.8228 69.4069 10.8896 69.3804C10.9564 69.3539 11.0278 69.341 11.0996 69.3424Z" fill="url(#paint23_linear)"/>
<path d="M7.65816 35.5668C7.7305 35.5654 7.80241 35.5782 7.86977 35.6046C7.93713 35.6309 7.99856 35.6703 8.05077 35.7205C8.10288 35.7707 8.14461 35.8307 8.17352 35.897C8.20254 35.9632 8.21811 36.0346 8.21949 36.1069C8.21949 36.1801 8.20487 36.2526 8.17659 36.3201C8.14821 36.3877 8.10669 36.4489 8.05448 36.5001C8.00216 36.5514 7.9402 36.5918 7.8722 36.6188C7.8041 36.6459 7.73134 36.659 7.65816 36.6576C7.51211 36.6576 7.37199 36.5996 7.26872 36.4963C7.16546 36.3931 7.10742 36.2529 7.10742 36.1069C7.10742 36.0351 7.12172 35.9639 7.14957 35.8977C7.17732 35.8315 7.2181 35.7715 7.26936 35.7212C7.32062 35.6709 7.38141 35.6313 7.44824 35.6048C7.51497 35.5783 7.58635 35.5654 7.65816 35.5668Z" fill="url(#paint24_linear)"/>
<path d="M7.65816 38.9436C7.7305 38.9422 7.80241 38.955 7.86977 38.9814C7.93713 39.0078 7.99856 39.0472 8.05077 39.0974C8.10288 39.1476 8.14461 39.2075 8.17352 39.2738C8.20254 39.3401 8.21811 39.4114 8.21949 39.4837C8.21949 39.5569 8.20487 39.6295 8.17659 39.6969C8.14821 39.7645 8.10669 39.8257 8.05448 39.877C8.00216 39.9282 7.9402 39.9686 7.8722 39.9956C7.8041 40.0227 7.73134 40.0358 7.65816 40.0345C7.51211 40.0345 7.37199 39.9764 7.26872 39.8732C7.16546 39.7699 7.10742 39.6298 7.10742 39.4837C7.10742 39.4119 7.12172 39.3407 7.14957 39.2746C7.17732 39.2084 7.2181 39.1483 7.26936 39.098C7.32062 39.0477 7.38141 39.0082 7.44824 38.9816C7.51497 38.9551 7.58635 38.9422 7.65816 38.9436Z" fill="url(#paint25_linear)"/>
<path d="M7.65831 42.3211C7.73065 42.3198 7.80256 42.3326 7.86992 42.359C7.93728 42.3854 7.99881 42.4248 8.05092 42.4749C8.10303 42.5251 8.14476 42.5851 8.17367 42.6514C8.20269 42.7176 8.21826 42.789 8.21964 42.8613C8.21964 42.9345 8.20513 43.007 8.17674 43.0745C8.14836 43.1421 8.10684 43.2033 8.05463 43.2545C8.00231 43.3058 7.94035 43.3462 7.87236 43.3732C7.80425 43.4003 7.73149 43.4134 7.65831 43.412C7.51406 43.4093 7.37669 43.35 7.27576 43.247C7.17472 43.1441 7.11816 43.0055 7.11816 42.8613C7.11816 42.7895 7.13246 42.7183 7.16032 42.6521C7.18806 42.5859 7.22884 42.5259 7.2801 42.4756C7.33136 42.4253 7.39215 42.3858 7.45898 42.3592C7.52571 42.3327 7.59709 42.3198 7.6689 42.3211H7.65831Z" fill="url(#paint26_linear)"/>
<path d="M7.65816 45.6988C7.7305 45.6975 7.80241 45.7103 7.86977 45.7366C7.93713 45.7631 7.99856 45.8025 8.05077 45.8526C8.10288 45.9028 8.14461 45.9628 8.17352 46.0291C8.20254 46.0954 8.21811 46.1666 8.21949 46.239C8.21949 46.3122 8.20487 46.3847 8.17659 46.4522C8.14821 46.5197 8.10669 46.581 8.05448 46.6322C8.00216 46.6835 7.9402 46.7238 7.8722 46.7508C7.8041 46.778 7.73134 46.7911 7.65816 46.7897C7.51211 46.7897 7.37199 46.7317 7.26872 46.6284C7.16546 46.5251 7.10742 46.385 7.10742 46.239C7.10742 46.1672 7.12172 46.096 7.14957 46.0298C7.17732 45.9636 7.2181 45.9036 7.26936 45.8532C7.32062 45.8029 7.38141 45.7634 7.44824 45.7369C7.51497 45.7104 7.58635 45.6975 7.65816 45.6988Z" fill="url(#paint27_linear)"/>
<path d="M7.65816 49.1081C7.7305 49.1068 7.80241 49.1196 7.86977 49.1459C7.93713 49.1724 7.99856 49.2118 8.05077 49.2619C8.10288 49.3121 8.14461 49.3721 8.17352 49.4384C8.20254 49.5047 8.21811 49.5759 8.21949 49.6483C8.21949 49.7215 8.20487 49.794 8.17659 49.8615C8.14821 49.929 8.10669 49.9903 8.05448 50.0415C8.00216 50.0928 7.9402 50.1331 7.8722 50.1601C7.8041 50.1873 7.73134 50.2004 7.65816 50.199C7.51211 50.199 7.37199 50.141 7.26872 50.0377C7.16546 49.9345 7.10742 49.7943 7.10742 49.6483C7.10742 49.5765 7.12172 49.5053 7.14957 49.4391C7.17732 49.3729 7.2181 49.3129 7.26936 49.2626C7.32062 49.2122 7.38141 49.1727 7.44824 49.1462C7.51497 49.1197 7.58635 49.1068 7.65816 49.1081Z" fill="url(#paint28_linear)"/>
<path d="M7.65816 52.4542C7.7305 52.4528 7.80241 52.4656 7.86977 52.492C7.93713 52.5184 7.99856 52.5578 8.05077 52.608C8.10288 52.6582 8.14461 52.718 8.17352 52.7843C8.20254 52.8506 8.21811 52.922 8.21949 52.9943C8.21949 53.0675 8.20487 53.1401 8.17659 53.2075C8.14821 53.2751 8.10669 53.3362 8.05448 53.3876C8.00216 53.4389 7.9402 53.4792 7.8722 53.5062C7.8041 53.5332 7.73134 53.5465 7.65816 53.5451C7.51211 53.5451 7.37199 53.487 7.26872 53.3838C7.16546 53.2805 7.10742 53.1404 7.10742 52.9943C7.10742 52.9225 7.12172 52.8514 7.14957 52.7852C7.17732 52.7189 7.2181 52.6589 7.26936 52.6086C7.32062 52.5583 7.38141 52.5187 7.44824 52.4922C7.51497 52.4657 7.58635 52.4528 7.65816 52.4542Z" fill="url(#paint29_linear)"/>
<path d="M7.65816 55.8318C7.7305 55.8304 7.80241 55.8432 7.86977 55.8696C7.93713 55.8959 7.99856 55.9353 8.05077 55.9855C8.10288 56.0357 8.14461 56.0956 8.17352 56.1619C8.20254 56.2282 8.21811 56.2996 8.21949 56.3719C8.21949 56.4451 8.20487 56.5176 8.17659 56.5851C8.14821 56.6527 8.10669 56.7138 8.05448 56.7652C8.00216 56.8164 7.9402 56.8568 7.8722 56.8838C7.8041 56.9109 7.73134 56.924 7.65816 56.9226C7.51211 56.9226 7.37199 56.8646 7.26872 56.7613C7.16546 56.6581 7.10742 56.518 7.10742 56.3719C7.10742 56.3001 7.12172 56.2289 7.14957 56.1627C7.17732 56.0964 7.2181 56.0365 7.26936 55.9862C7.32062 55.9359 7.38141 55.8963 7.44824 55.8698C7.51497 55.8433 7.58635 55.8304 7.65816 55.8318Z" fill="url(#paint30_linear)"/>
<path d="M7.65816 59.2095C7.7305 59.2081 7.80241 59.2209 7.86977 59.2473C7.93713 59.2736 7.99856 59.313 8.05077 59.3632C8.10288 59.4134 8.14461 59.4733 8.17352 59.5396C8.20254 59.6059 8.21811 59.6773 8.21949 59.7496C8.21949 59.8228 8.20487 59.8953 8.17659 59.9628C8.14821 60.0304 8.10669 60.0915 8.05448 60.1428C8.00216 60.1941 7.9402 60.2345 7.8722 60.2615C7.8041 60.2886 7.73134 60.3017 7.65816 60.3003C7.51211 60.3003 7.37199 60.2423 7.26872 60.139C7.16546 60.0358 7.10742 59.8957 7.10742 59.7496C7.10742 59.6778 7.12172 59.6066 7.14957 59.5404C7.17732 59.4741 7.2181 59.4142 7.26936 59.3639C7.32062 59.3136 7.38141 59.274 7.44824 59.2475C7.51497 59.221 7.58635 59.2081 7.65816 59.2095Z" fill="url(#paint31_linear)"/>
<path d="M7.65816 62.5869C7.7305 62.5855 7.80241 62.5983 7.86977 62.6247C7.93713 62.6511 7.99856 62.6905 8.05077 62.7407C8.10288 62.7909 8.14461 62.8508 8.17352 62.917C8.20254 62.9833 8.21811 63.0547 8.21949 63.127C8.21949 63.2002 8.20487 63.2728 8.17659 63.3402C8.14821 63.4078 8.10669 63.469 8.05448 63.5203C8.00216 63.5715 7.9402 63.6119 7.8722 63.6389C7.8041 63.666 7.73134 63.6792 7.65816 63.6778C7.51211 63.6778 7.37199 63.6197 7.26872 63.5165C7.16546 63.4132 7.10742 63.2731 7.10742 63.127C7.10742 63.0552 7.12172 62.9841 7.14957 62.9179C7.17732 62.8516 7.2181 62.7916 7.26936 62.7413C7.32062 62.691 7.38141 62.6514 7.44824 62.6249C7.51497 62.5984 7.58635 62.5855 7.65816 62.5869Z" fill="url(#paint32_linear)"/>
<path d="M7.65816 65.9647C7.7305 65.9633 7.80241 65.9761 7.86977 66.0025C7.93713 66.0289 7.99856 66.0683 8.05077 66.1185C8.10288 66.1687 8.14461 66.2286 8.17352 66.2948C8.20254 66.3611 8.21811 66.4325 8.21949 66.5048C8.21949 66.578 8.20487 66.6506 8.17659 66.718C8.14821 66.7856 8.10669 66.8468 8.05448 66.8981C8.00216 66.9494 7.9402 66.9897 7.8722 67.0167C7.8041 67.0438 7.73134 67.057 7.65816 67.0556C7.51211 67.0556 7.37199 66.9975 7.26872 66.8943C7.16546 66.791 7.10742 66.6509 7.10742 66.5048C7.10742 66.433 7.12172 66.3619 7.14957 66.2957C7.17732 66.2295 7.2181 66.1694 7.26936 66.1191C7.32062 66.0688 7.38141 66.0292 7.44824 66.0027C7.51497 65.9762 7.58635 65.9633 7.65816 65.9647Z" fill="url(#paint33_linear)"/>
<path d="M7.65816 69.3424C7.7305 69.341 7.80241 69.3538 7.86977 69.3802C7.93713 69.4066 7.99856 69.446 8.05077 69.4962C8.10288 69.5464 8.14461 69.6063 8.17352 69.6725C8.20254 69.7388 8.21811 69.8102 8.21949 69.8825C8.21949 69.9557 8.20487 70.0283 8.17659 70.0957C8.14821 70.1633 8.10669 70.2245 8.05448 70.2758C8.00216 70.327 7.9402 70.3674 7.8722 70.3944C7.8041 70.4215 7.73134 70.4346 7.65816 70.4333C7.51211 70.4333 7.37199 70.3752 7.26872 70.272C7.16546 70.1687 7.10742 70.0286 7.10742 69.8825C7.10742 69.8107 7.12172 69.7396 7.14957 69.6734C7.17732 69.6072 7.2181 69.5471 7.26936 69.4968C7.32062 69.4465 7.38141 69.4069 7.44824 69.3804C7.51497 69.3539 7.58635 69.341 7.65816 69.3424Z" fill="url(#paint34_linear)"/>
<path d="M7.65816 72.7199C7.7305 72.7186 7.80241 72.7314 7.86977 72.7578C7.93713 72.7841 7.99856 72.8235 8.05077 72.8737C8.10288 72.9239 8.14461 72.9839 8.17352 73.0502C8.20254 73.1164 8.21811 73.1878 8.21949 73.2601C8.21949 73.3333 8.20487 73.4058 8.17659 73.4733C8.14821 73.5409 8.10669 73.6021 8.05448 73.6533C8.00216 73.7046 7.9402 73.745 7.8722 73.772C7.8041 73.7991 7.73134 73.8122 7.65816 73.8108C7.51211 73.8108 7.37199 73.7528 7.26872 73.6495C7.16546 73.5463 7.10742 73.4061 7.10742 73.2601C7.10742 73.1883 7.12172 73.1171 7.14957 73.0509C7.17732 72.9847 7.2181 72.9247 7.26936 72.8744C7.32062 72.8241 7.38141 72.7844 7.44824 72.758C7.51497 72.7315 7.58635 72.7186 7.65816 72.7199Z" fill="url(#paint35_linear)"/>
<path d="M4.21578 35.5667C4.28759 35.5654 4.35898 35.5783 4.42574 35.6048C4.4925 35.6312 4.5533 35.6709 4.60459 35.7212C4.65587 35.7715 4.6966 35.8315 4.7244 35.8977C4.75222 35.9639 4.76652 36.0351 4.76651 36.1069C4.76651 36.2529 4.70848 36.3931 4.60521 36.4963C4.50193 36.5996 4.36185 36.6576 4.21578 36.6576C4.06971 36.6576 3.92963 36.5996 3.82635 36.4963C3.72307 36.3931 3.66504 36.2529 3.66504 36.1069C3.66503 36.0351 3.67934 35.9639 3.70715 35.8977C3.73495 35.8315 3.77568 35.7715 3.82697 35.7212C3.87825 35.6709 3.93906 35.6312 4.00582 35.6048C4.07258 35.5783 4.14396 35.5654 4.21578 35.5667Z" fill="url(#paint36_linear)"/>
<path d="M4.21578 38.9436C4.28759 38.9422 4.35898 38.9551 4.42574 38.9816C4.4925 39.0082 4.5533 39.0477 4.60459 39.098C4.65587 39.1483 4.6966 39.2084 4.7244 39.2746C4.75222 39.3407 4.76652 39.4119 4.76651 39.4837C4.76651 39.6298 4.70848 39.7699 4.60521 39.8732C4.50193 39.9764 4.36185 40.0345 4.21578 40.0345C4.06971 40.0345 3.92963 39.9764 3.82635 39.8732C3.72307 39.7699 3.66504 39.6298 3.66504 39.4837C3.66503 39.4119 3.67934 39.3407 3.70715 39.2746C3.73495 39.2084 3.77568 39.1483 3.82697 39.098C3.87825 39.0477 3.93906 39.0082 4.00582 38.9816C4.07258 38.9551 4.14396 38.9422 4.21578 38.9436Z" fill="url(#paint37_linear)"/>
<path d="M4.21578 42.3211C4.28759 42.3198 4.35898 42.3327 4.42574 42.3592C4.4925 42.3858 4.5533 42.4253 4.60459 42.4756C4.65587 42.5259 4.6966 42.5859 4.7244 42.6521C4.75222 42.7183 4.76652 42.7895 4.76651 42.8613C4.76651 43.0073 4.70848 43.1475 4.60521 43.2507C4.50193 43.354 4.36185 43.412 4.21578 43.412C4.06971 43.412 3.92963 43.354 3.82635 43.2507C3.72307 43.1475 3.66504 43.0073 3.66504 42.8613C3.66503 42.7895 3.67934 42.7183 3.70715 42.6521C3.73495 42.5859 3.77568 42.5259 3.82697 42.4756C3.87825 42.4253 3.93906 42.3858 4.00582 42.3592C4.07258 42.3327 4.14396 42.3198 4.21578 42.3211Z" fill="url(#paint38_linear)"/>
<path d="M4.21578 45.6988C4.28759 45.6975 4.35898 45.7104 4.42574 45.7369C4.4925 45.7634 4.5533 45.8029 4.60459 45.8532C4.65587 45.9036 4.6966 45.9636 4.7244 46.0298C4.75222 46.096 4.76652 46.1672 4.76651 46.239C4.76651 46.385 4.70848 46.5251 4.60521 46.6284C4.50193 46.7317 4.36185 46.7897 4.21578 46.7897C4.06971 46.7897 3.92963 46.7317 3.82635 46.6284C3.72307 46.5251 3.66504 46.385 3.66504 46.239C3.66503 46.1672 3.67934 46.096 3.70715 46.0298C3.73495 45.9636 3.77568 45.9036 3.82697 45.8532C3.87825 45.8029 3.93906 45.7634 4.00582 45.7369C4.07258 45.7104 4.14396 45.6975 4.21578 45.6988Z" fill="url(#paint39_linear)"/>
<path d="M4.21578 62.5869C4.28759 62.5855 4.35898 62.5984 4.42574 62.6249C4.4925 62.6514 4.5533 62.691 4.60459 62.7413C4.65587 62.7916 4.6966 62.8516 4.7244 62.9179C4.75222 62.9841 4.76652 63.0552 4.76651 63.127C4.76651 63.2731 4.70848 63.4132 4.60521 63.5165C4.50193 63.6197 4.36185 63.6778 4.21578 63.6778C4.06971 63.6778 3.92963 63.6197 3.82635 63.5165C3.72307 63.4132 3.66504 63.2731 3.66504 63.127C3.66503 63.0552 3.67934 62.9841 3.70715 62.9179C3.73495 62.8516 3.77568 62.7916 3.82697 62.7413C3.87825 62.691 3.93906 62.6514 4.00582 62.6249C4.07258 62.5984 4.14396 62.5855 4.21578 62.5869Z" fill="url(#paint40_linear)"/>
<path d="M4.21578 65.9647C4.28759 65.9633 4.35898 65.9762 4.42574 66.0027C4.4925 66.0292 4.5533 66.0688 4.60459 66.1191C4.65587 66.1694 4.6966 66.2295 4.7244 66.2957C4.75222 66.3619 4.76652 66.433 4.76651 66.5048C4.76651 66.6509 4.70848 66.791 4.60521 66.8943C4.50193 66.9975 4.36185 67.0556 4.21578 67.0556C4.06971 67.0556 3.92963 66.9975 3.82635 66.8943C3.72307 66.791 3.66504 66.6509 3.66504 66.5048C3.66503 66.433 3.67934 66.3619 3.70715 66.2957C3.73495 66.2295 3.77568 66.1694 3.82697 66.1191C3.87825 66.0688 3.93906 66.0292 4.00582 66.0027C4.07258 65.9762 4.14396 65.9633 4.21578 65.9647Z" fill="url(#paint41_linear)"/>
<path d="M4.21578 69.3424C4.28759 69.341 4.35898 69.3539 4.42574 69.3804C4.4925 69.4069 4.5533 69.4465 4.60459 69.4968C4.65587 69.5471 4.6966 69.6072 4.7244 69.6734C4.75222 69.7396 4.76652 69.8107 4.76651 69.8825C4.76651 70.0286 4.70848 70.1687 4.60521 70.272C4.50193 70.3752 4.36185 70.4333 4.21578 70.4333C4.06971 70.4333 3.92963 70.3752 3.82635 70.272C3.72307 70.1687 3.66504 70.0286 3.66504 69.8825C3.66503 69.8107 3.67934 69.7396 3.70715 69.6734C3.73495 69.6072 3.77568 69.5471 3.82697 69.4968C3.87825 69.4465 3.93906 69.4069 4.00582 69.3804C4.07258 69.3539 4.14396 69.341 4.21578 69.3424Z" fill="url(#paint42_linear)"/>
<path d="M4.21578 72.7199C4.28759 72.7186 4.35898 72.7315 4.42574 72.758C4.4925 72.7844 4.5533 72.8241 4.60459 72.8744C4.65587 72.9247 4.6966 72.9847 4.7244 73.0509C4.75222 73.1171 4.76652 73.1883 4.76651 73.2601C4.76651 73.4061 4.70848 73.5463 4.60521 73.6495C4.50193 73.7528 4.36185 73.8108 4.21578 73.8108C4.06971 73.8108 3.92963 73.7528 3.82635 73.6495C3.72307 73.5463 3.66504 73.4061 3.66504 73.2601C3.66503 73.1883 3.67934 73.1171 3.70715 73.0509C3.73495 72.9847 3.77568 72.9247 3.82697 72.8744C3.87825 72.8241 3.93906 72.7844 4.00582 72.758C4.07258 72.7315 4.14396 72.7186 4.21578 72.7199Z" fill="url(#paint43_linear)"/>
<path d="M1.32551 32.7708C1.31481 32.9095 1.2521 33.0389 1.14995 33.1331C1.0478 33.2274 0.913779 33.2796 0.77477 33.2792C0.701565 33.2806 0.628804 33.2674 0.560756 33.2403C0.492708 33.2133 0.43075 33.173 0.378472 33.1217C0.326205 33.0704 0.284688 33.0092 0.256347 32.9417C0.228016 32.8742 0.213431 32.8016 0.213442 32.7285C0.203592 32.6617 0.203592 32.5939 0.213442 32.5272L1.27255 32.7708H1.32551Z" fill="url(#paint44_linear)"/>
<path d="M0.763476 35.5668C0.835295 35.5654 0.906678 35.5783 0.973434 35.6048C1.0402 35.6313 1.10099 35.6709 1.15228 35.7212C1.20356 35.7715 1.2443 35.8315 1.27211 35.8977C1.29992 35.9639 1.31422 36.0351 1.31421 36.1069C1.31421 36.2529 1.2562 36.3931 1.15291 36.4963C1.04963 36.5996 0.909538 36.6576 0.763476 36.6576C0.69026 36.659 0.61751 36.6459 0.549462 36.6188C0.481425 36.5918 0.419446 36.5514 0.367179 36.5001C0.314912 36.4489 0.273394 36.3877 0.245053 36.3201C0.216721 36.2526 0.202138 36.1801 0.202148 36.1069C0.203525 36.0346 0.219136 35.9632 0.248092 35.897C0.277048 35.8307 0.318788 35.7707 0.370917 35.7205C0.423047 35.6703 0.484539 35.6309 0.551898 35.6046C0.619257 35.5782 0.69115 35.5654 0.763476 35.5668Z" fill="url(#paint45_linear)"/>
<path d="M0.763476 38.9436C0.835295 38.9422 0.906678 38.9551 0.973434 38.9816C1.0402 39.0082 1.10099 39.0477 1.15228 39.098C1.20356 39.1483 1.2443 39.2084 1.27211 39.2746C1.29992 39.3407 1.31422 39.4119 1.31421 39.4837C1.31421 39.6298 1.2562 39.7699 1.15291 39.8732C1.04963 39.9764 0.909538 40.0345 0.763476 40.0345C0.69026 40.0358 0.61751 40.0227 0.549462 39.9956C0.481425 39.9686 0.419446 39.9282 0.367179 39.877C0.314912 39.8257 0.273394 39.7645 0.245053 39.6969C0.216721 39.6295 0.202138 39.5569 0.202148 39.4837C0.203525 39.4114 0.219136 39.3401 0.248092 39.2738C0.277048 39.2075 0.318788 39.1476 0.370917 39.0974C0.423047 39.0472 0.484539 39.0078 0.551898 38.9814C0.619257 38.955 0.69115 38.9422 0.763476 38.9436Z" fill="url(#paint46_linear)"/>
<path d="M0.763476 42.3211C0.835295 42.3198 0.906678 42.3327 0.973434 42.3592C1.0402 42.3858 1.10099 42.4253 1.15228 42.4756C1.20356 42.5259 1.2443 42.5859 1.27211 42.6521C1.29992 42.7183 1.31422 42.7895 1.31421 42.8613C1.31421 43.0073 1.2562 43.1475 1.15291 43.2507C1.04963 43.354 0.909538 43.412 0.763476 43.412C0.69026 43.4134 0.61751 43.4003 0.549462 43.3732C0.481425 43.3462 0.419446 43.3058 0.367179 43.2545C0.314912 43.2033 0.273394 43.1421 0.245053 43.0745C0.216721 43.007 0.202138 42.9345 0.202148 42.8613C0.203525 42.789 0.219136 42.7176 0.248092 42.6514C0.277048 42.5851 0.318788 42.5251 0.370917 42.4749C0.423047 42.4248 0.484539 42.3854 0.551898 42.359C0.619257 42.3326 0.69115 42.3198 0.763476 42.3211Z" fill="url(#paint47_linear)"/>
<path d="M0.763476 65.9647C0.835295 65.9633 0.906678 65.9762 0.973434 66.0027C1.0402 66.0292 1.10099 66.0688 1.15228 66.1191C1.20356 66.1694 1.2443 66.2295 1.27211 66.2957C1.29992 66.3619 1.31422 66.433 1.31421 66.5048C1.32162 66.5815 1.31286 66.6588 1.28852 66.7319C1.26418 66.805 1.22479 66.872 1.1729 66.929C1.12099 66.9859 1.05774 67.0312 0.987224 67.0622C0.916698 67.0931 0.840484 67.1089 0.763476 67.1085C0.69026 67.1099 0.61751 67.0968 0.549462 67.0697C0.481425 67.0427 0.419446 67.0023 0.367179 66.951C0.314912 66.8998 0.273394 66.8386 0.245053 66.771C0.216721 66.7035 0.202138 66.631 0.202148 66.5578C0.203525 66.4855 0.219136 66.4141 0.248092 66.3478C0.277048 66.2816 0.318788 66.2216 0.370917 66.1714C0.423047 66.1212 0.484539 66.0818 0.551898 66.0555C0.619257 66.0291 0.69115 66.0163 0.763476 66.0177V65.9647Z" fill="url(#paint48_linear)"/>
<path d="M0.763476 69.3424C0.835295 69.341 0.906678 69.3539 0.973434 69.3804C1.0402 69.4069 1.10099 69.4465 1.15228 69.4968C1.20356 69.5471 1.2443 69.6072 1.27211 69.6734C1.29992 69.7396 1.31422 69.8107 1.31421 69.8825C1.31421 70.0286 1.2562 70.1687 1.15291 70.272C1.04963 70.3752 0.909538 70.4333 0.763476 70.4333C0.69026 70.4346 0.61751 70.4215 0.549462 70.3944C0.481425 70.3674 0.419446 70.327 0.367179 70.2758C0.314912 70.2245 0.273394 70.1633 0.245053 70.0957C0.216721 70.0283 0.202138 69.9557 0.202148 69.8825C0.203525 69.8102 0.219136 69.7388 0.248092 69.6725C0.277048 69.6063 0.318788 69.5464 0.370917 69.4962C0.423047 69.446 0.484539 69.4066 0.551898 69.3802C0.619257 69.3538 0.69115 69.341 0.763476 69.3424Z" fill="url(#paint49_linear)"/>
<path d="M0.763476 72.7199C0.835295 72.7186 0.906678 72.7315 0.973434 72.758C1.0402 72.7844 1.10099 72.8241 1.15228 72.8744C1.20356 72.9247 1.2443 72.9847 1.27211 73.0509C1.29992 73.1171 1.31422 73.1883 1.31421 73.2601C1.31421 73.4061 1.2562 73.5463 1.15291 73.6495C1.04963 73.7528 0.909538 73.8108 0.763476 73.8108C0.69026 73.8122 0.61751 73.7991 0.549462 73.772C0.481425 73.745 0.419446 73.7046 0.367179 73.6533C0.314912 73.6021 0.273394 73.5409 0.245053 73.4733C0.216721 73.4058 0.202138 73.3333 0.202148 73.2601C0.203525 73.1878 0.219136 73.1164 0.248092 73.0502C0.277048 72.9839 0.318788 72.9239 0.370917 72.8737C0.423047 72.8235 0.484539 72.7841 0.551898 72.7578C0.619257 72.7314 0.69115 72.7186 0.763476 72.7199Z" fill="url(#paint50_linear)"/>
<path d="M0.763736 76.0975C0.901071 76.0969 1.03369 76.1476 1.13558 76.2396C1.23746 76.3318 1.30127 76.4586 1.31447 76.5953L0.255363 76.8389C0.244306 76.7723 0.244306 76.7043 0.255363 76.6377C0.25674 76.5653 0.272362 76.4939 0.301318 76.4277C0.330274 76.3614 0.372003 76.3015 0.424132 76.2513C0.476251 76.2011 0.537753 76.1617 0.605113 76.1353C0.672472 76.109 0.744375 76.0961 0.816702 76.0975H0.763736Z" fill="url(#paint51_linear)"/>
<path d="M211.103 49.9986C210.793 49.9986 210.496 49.8762 210.276 49.658C210.056 49.4399 209.93 49.1435 209.928 48.8336V47.7745C209.93 47.4645 210.056 47.1683 210.276 46.9501C210.496 46.7319 210.793 46.6095 211.103 46.6095C211.413 46.6095 211.711 46.7319 211.931 46.9501C212.151 47.1683 212.276 47.4645 212.279 47.7745V48.8336C212.276 49.1435 212.151 49.4399 211.931 49.658C211.711 49.8762 211.413 49.9986 211.103 49.9986Z" fill="url(#paint52_linear)" fill-opacity="0.5"/>
<path d="M211.103 42.5974C210.793 42.5974 210.496 42.475 210.276 42.2568C210.056 42.0386 209.93 41.7424 209.928 41.4324V40.3732C209.928 40.0614 210.052 39.7625 210.272 39.5419C210.493 39.3215 210.792 39.1976 211.103 39.1976C211.415 39.1976 211.714 39.3215 211.935 39.5419C212.155 39.7625 212.279 40.0614 212.279 40.3732V41.4324C212.276 41.7424 212.151 42.0386 211.931 42.2568C211.711 42.475 211.413 42.5974 211.103 42.5974Z" fill="url(#paint53_linear)" fill-opacity="0.5"/>
<path d="M215.339 45.763H214.28C213.97 45.7602 213.674 45.6351 213.456 45.4149C213.238 45.1948 213.115 44.8974 213.115 44.5874C213.115 44.2775 213.238 43.98 213.456 43.7598C213.674 43.5397 213.97 43.4145 214.28 43.4117H215.339C215.651 43.4117 215.95 43.5357 216.171 43.7561C216.391 43.9766 216.515 44.2756 216.515 44.5874C216.515 44.8992 216.391 45.1981 216.171 45.4186C215.95 45.6392 215.651 45.763 215.339 45.763Z" fill="url(#paint54_linear)" fill-opacity="0.5"/>
<path d="M207.947 45.763H206.888C206.576 45.763 206.277 45.6392 206.056 45.4186C205.836 45.1981 205.712 44.8992 205.712 44.5874C205.712 44.2756 205.836 43.9766 206.056 43.7561C206.277 43.5357 206.576 43.4117 206.888 43.4117H207.947C208.257 43.4145 208.553 43.5397 208.771 43.7598C208.989 43.98 209.112 44.2775 209.112 44.5874C209.112 44.8974 208.989 45.1948 208.771 45.4149C208.553 45.6351 208.257 45.7602 207.947 45.763Z" fill="url(#paint55_linear)" fill-opacity="0.5"/>
<path d="M98.3914 70.801C98.0815 70.801 97.784 70.6786 97.5638 70.4604C97.3438 70.2422 97.2186 69.9459 97.2158 69.636V68.5769C97.2186 68.2669 97.3438 67.9706 97.5638 67.7525C97.784 67.5343 98.0815 67.4119 98.3914 67.4119C98.7014 67.4119 98.9988 67.5343 99.219 67.7525C99.4392 67.9706 99.5643 68.2669 99.567 68.5769V69.636C99.5643 69.9459 99.4392 70.2422 99.219 70.4604C98.9988 70.6786 98.7014 70.801 98.3914 70.801Z" fill="url(#paint56_linear)" fill-opacity="0.5"/>
<path d="M98.3914 63.3997C98.0815 63.3997 97.784 63.2774 97.5638 63.0591C97.3438 62.841 97.2186 62.5447 97.2158 62.2347V61.1756C97.2158 60.8638 97.3396 60.5648 97.5601 60.3443C97.7806 60.1239 98.0796 60 98.3914 60C98.7032 60 99.0022 60.1239 99.2227 60.3443C99.4432 60.5648 99.567 60.8638 99.567 61.1756V62.2347C99.5643 62.5447 99.4392 62.841 99.219 63.0591C98.9988 63.2774 98.7014 63.3997 98.3914 63.3997Z" fill="url(#paint57_linear)" fill-opacity="0.5"/>
<path d="M102.627 66.5653H101.568C101.258 66.5626 100.962 66.4375 100.744 66.2173C100.526 65.9971 100.403 65.6997 100.403 65.3897C100.403 65.0798 100.526 64.7823 100.744 64.5621C100.962 64.3421 101.258 64.2169 101.568 64.2141H102.627C102.939 64.2141 103.238 64.338 103.459 64.5584C103.679 64.7789 103.803 65.0779 103.803 65.3897C103.803 65.7015 103.679 66.0005 103.459 66.221C103.238 66.4415 102.939 66.5653 102.627 66.5653Z" fill="url(#paint58_linear)" fill-opacity="0.5"/>
<path d="M95.2347 66.5653H94.1756C93.8638 66.5653 93.5648 66.4415 93.3443 66.221C93.1239 66.0005 93 65.7015 93 65.3897C93 65.0779 93.1239 64.7789 93.3443 64.5584C93.5648 64.338 93.8638 64.2141 94.1756 64.2141H95.2347C95.5447 64.2169 95.841 64.3421 96.0591 64.5621C96.2774 64.7823 96.3997 65.0798 96.3997 65.3897C96.3997 65.6997 96.2774 65.9971 96.0591 66.2173C95.841 66.4375 95.5447 66.5626 95.2347 66.5653Z" fill="url(#paint59_linear)" fill-opacity="0.5"/>
<path fill-rule="evenodd" clip-rule="evenodd" d="M254.052 0H262.524C262.512 1.43411 262.786 2.85629 263.332 4.18257C263.878 5.50885 264.684 6.71234 265.703 7.722C266.722 8.73166 267.932 9.52702 269.264 10.0611C270.595 10.5952 272.02 10.8573 273.454 10.8318C274.892 10.8616 276.319 10.6027 277.655 10.0705C278.99 9.53836 280.204 8.74368 281.227 7.73357C282.249 6.72348 283.059 5.51851 283.606 4.19009C284.154 2.86168 284.429 1.43684 284.416 0H292.667C292.605 5.07785 290.544 9.92674 286.93 13.4947C283.315 17.0627 278.439 19.062 273.359 19.0588C268.279 19.062 263.401 17.063 259.786 13.4953C256.169 9.9277 254.105 5.07882 254.041 0H254.052Z" fill="url(#paint60_linear)"/>
<g opacity="0.59">
<path opacity="0.59" d="M270.435 95.5047V97.2835C269.97 97.237 269.524 97.0763 269.135 96.8159C268.748 96.5555 268.43 96.2032 268.211 95.7906C267.798 95.2188 267.522 94.8271 266.919 94.8271C266.315 94.8271 266.04 95.2188 265.626 95.7906C265.416 96.208 265.102 96.5644 264.715 96.8258C264.327 97.0871 263.879 97.2448 263.413 97.2835C262.948 97.245 262.501 97.0875 262.116 96.8259C261.73 96.5644 261.418 96.2078 261.21 95.7906C260.797 95.2188 260.522 94.8271 259.918 94.8271C259.314 94.8271 259.049 95.2188 258.636 95.7906C258.426 96.208 258.112 96.5644 257.724 96.8258C257.337 97.0871 256.889 97.2448 256.423 97.2835C255.958 97.245 255.511 97.0875 255.125 96.8259C254.74 96.5644 254.427 96.2078 254.22 95.7906C253.807 95.2188 253.531 94.8271 252.928 94.8271C252.324 94.8271 252.049 95.2188 251.636 95.7906C251.429 96.2084 251.117 96.5656 250.731 96.8272C250.345 97.0888 249.898 97.2461 249.433 97.2835C248.968 97.2461 248.521 97.0888 248.134 96.8272C247.749 96.5656 247.436 96.2084 247.23 95.7906C246.817 95.2188 246.541 94.8271 245.938 94.8271C245.334 94.8271 245.048 95.2188 244.635 95.7906C244.434 96.2153 244.122 96.5779 243.733 96.8406C243.344 97.1033 242.89 97.2563 242.421 97.2835C241.953 97.2403 241.502 97.0813 241.11 96.8206C240.718 96.56 240.397 96.2061 240.176 95.7906C239.763 95.2188 239.488 94.8271 238.884 94.8271C238.28 94.8271 238.005 95.2188 237.592 95.7906C237.381 96.208 237.067 96.5644 236.68 96.8258C236.292 97.0871 235.844 97.2448 235.378 97.2835C234.914 97.245 234.467 97.0875 234.081 96.8259C233.695 96.5644 233.383 96.2078 233.175 95.7906C232.762 95.2188 232.487 94.8271 231.883 94.8271C231.28 94.8271 231.004 95.2188 230.602 95.7906C230.391 96.208 230.077 96.5644 229.69 96.8258C229.302 97.0871 228.854 97.2448 228.388 97.2835C227.923 97.2461 227.476 97.0888 227.09 96.8272C226.704 96.5656 226.392 96.2084 226.185 95.7906C225.772 95.2188 225.497 94.8271 224.893 94.8271C224.289 94.8271 224.014 95.2188 223.601 95.7906C223.394 96.2084 223.082 96.5656 222.696 96.8272C222.31 97.0888 221.863 97.2461 221.398 97.2835C220.933 97.2461 220.486 97.0888 220.1 96.8272C219.714 96.5656 219.402 96.2084 219.195 95.7906C218.782 95.2188 218.507 94.8271 217.903 94.8271C217.299 94.8271 217.013 95.2188 216.6 95.7906C216.399 96.2153 216.088 96.5779 215.698 96.8406C215.309 97.1033 214.856 97.2563 214.387 97.2835V95.5047C215.054 95.5047 215.276 95.1235 215.689 94.5518C215.9 94.128 216.218 93.7671 216.612 93.5051C217.006 93.2431 217.462 93.0892 217.935 93.0588C218.401 93.0976 218.849 93.2553 219.236 93.5166C219.624 93.778 219.938 94.1344 220.148 94.5518C220.561 95.1235 220.837 95.5047 221.44 95.5047C222.044 95.5047 222.309 95.1235 222.722 94.5518C222.932 94.1344 223.246 93.778 223.634 93.5166C224.021 93.2553 224.47 93.0976 224.935 93.0588C225.4 93.0963 225.848 93.2536 226.234 93.5152C226.62 93.7768 226.931 94.134 227.138 94.5518C227.551 95.1235 227.827 95.5047 228.431 95.5047C229.034 95.5047 229.31 95.1235 229.723 94.5518C229.93 94.134 230.241 93.7768 230.627 93.5152C231.013 93.2536 231.461 93.0963 231.926 93.0588C232.39 93.0963 232.838 93.2536 233.224 93.5152C233.61 93.7768 233.922 94.134 234.129 94.5518C234.542 95.1235 234.817 95.5047 235.421 95.5047C236.024 95.5047 236.3 95.1235 236.713 94.5518C236.921 94.1346 237.232 93.778 237.618 93.5165C238.004 93.2549 238.451 93.0974 238.916 93.0588C239.383 93.0978 239.832 93.2555 240.222 93.5167C240.611 93.778 240.927 94.1342 241.14 94.5518C241.553 95.1235 241.775 95.5047 242.443 95.5047C243.11 95.5047 243.332 95.1235 243.745 94.5518C243.953 94.1346 244.265 93.778 244.651 93.5165C245.036 93.2549 245.483 93.0974 245.948 93.0588C246.414 93.0966 246.863 93.2538 247.251 93.5153C247.639 93.7768 247.952 94.1338 248.162 94.5518C248.575 95.1235 248.85 95.5047 249.454 95.5047C250.058 95.5047 250.312 95.113 250.767 94.5518C250.966 94.1453 251.265 93.7956 251.636 93.5347C252.005 93.2738 252.435 93.1102 252.885 93.0588C253.35 93.0963 253.797 93.2536 254.184 93.5152C254.569 93.7768 254.882 94.134 255.088 94.5518C255.501 95.1235 255.777 95.5047 256.38 95.5047C256.984 95.5047 257.259 95.1235 257.673 94.5518C257.879 94.134 258.191 93.7768 258.577 93.5152C258.964 93.2536 259.411 93.0963 259.875 93.0588C260.341 93.0976 260.789 93.2553 261.177 93.5166C261.565 93.778 261.878 94.1344 262.089 94.5518C262.491 95.1235 262.767 95.5047 263.371 95.5047C263.974 95.5047 264.25 95.1235 264.663 94.5518C264.872 94.1359 265.185 93.7803 265.57 93.5191C265.956 93.2578 266.402 93.0994 266.866 93.0588C267.334 93.0958 267.784 93.2526 268.174 93.5141C268.562 93.7756 268.878 94.133 269.09 94.5518C269.545 95.113 269.768 95.5047 270.435 95.5047Z" fill="url(#paint61_linear)"/>
<path opacity="0.59" d="M277.012 99.6446V101.466C276.548 101.419 276.104 101.259 275.717 100.998C275.331 100.738 275.016 100.385 274.799 99.9728C274.386 99.4011 274.11 99.0199 273.507 99.0199C272.903 99.0199 272.617 99.4011 272.214 99.9728C272.004 100.39 271.69 100.747 271.303 101.008C270.915 101.269 270.467 101.427 270.001 101.466C269.536 101.428 269.089 101.271 268.702 101.009C268.317 100.748 268.005 100.391 267.798 99.9728C267.385 99.4011 267.11 99.0199 266.506 99.0199C265.902 99.0199 265.627 99.4011 265.214 99.9728C265.007 100.391 264.695 100.748 264.309 101.009C263.923 101.271 263.476 101.428 263.011 101.466C262.546 101.428 262.099 101.271 261.712 101.009C261.327 100.748 261.014 100.391 260.808 99.9728C260.395 99.4011 260.119 99.0199 259.516 99.0199C258.912 99.0199 258.637 99.4011 258.224 99.9728C258.019 100.384 257.714 100.737 257.336 100.998C256.958 101.259 256.521 101.42 256.063 101.466C255.597 101.427 255.149 101.269 254.761 101.008C254.374 100.747 254.06 100.39 253.85 99.9728C253.436 99.4011 253.172 99.0199 252.568 99.0199C251.964 99.0199 251.678 99.4011 251.265 99.9728C251.06 100.405 250.74 100.773 250.341 101.036C249.941 101.299 249.478 101.448 248.999 101.466C248.535 101.419 248.09 101.259 247.704 100.998C247.318 100.738 247.002 100.385 246.785 99.9728C246.372 99.4011 246.097 99.0199 245.493 99.0199C244.889 99.0199 244.603 99.4011 244.19 99.9728C243.984 100.391 243.671 100.748 243.286 101.009C242.9 101.271 242.452 101.428 241.987 101.466C241.523 101.428 241.075 101.271 240.689 101.009C240.303 100.748 239.992 100.391 239.785 99.9728C239.371 99.4011 239.096 99.0199 238.492 99.0199C237.889 99.0199 237.613 99.4011 237.2 99.9728C236.993 100.391 236.682 100.748 236.296 101.009C235.909 101.271 235.462 101.428 234.997 101.466C234.523 101.426 234.068 101.264 233.676 100.995C233.284 100.726 232.969 100.359 232.763 99.9305C232.35 99.3587 232.085 98.9775 231.481 98.9775C230.877 98.9775 230.602 99.3587 230.189 99.9305C229.989 100.353 229.682 100.716 229.3 100.985C228.918 101.254 228.472 101.42 228.007 101.466C227.541 101.427 227.093 101.269 226.706 101.008C226.318 100.747 226.004 100.39 225.794 99.9728C225.381 99.4011 225.116 99.0199 224.512 99.0199C223.908 99.0199 223.623 99.4011 223.209 99.9728C223.008 100.399 222.695 100.763 222.303 101.026C221.912 101.288 221.456 101.44 220.985 101.466V99.6869C221.653 99.6869 221.875 99.3058 222.288 98.734C222.497 98.3147 222.81 97.9561 223.198 97.6928C223.586 97.4295 224.035 97.2703 224.502 97.2305C224.967 97.2692 225.416 97.4269 225.803 97.6882C226.191 97.9496 226.505 98.306 226.715 98.7234C227.128 99.2952 227.393 99.6764 228.007 99.6764C228.622 99.6764 228.876 99.2952 229.289 98.7234C229.499 98.306 229.813 97.9496 230.201 97.6882C230.588 97.4269 231.036 97.2692 231.502 97.2305C231.967 97.269 232.414 97.4266 232.8 97.6881C233.185 97.9496 233.497 98.3062 233.705 98.7234C234.118 99.2952 234.394 99.6764 234.997 99.6764C235.601 99.6764 235.866 99.2952 236.279 98.7234C236.489 98.306 236.803 97.9496 237.191 97.6882C237.578 97.4269 238.027 97.2692 238.492 97.2305C238.957 97.269 239.404 97.4266 239.79 97.6881C240.176 97.9496 240.488 98.3062 240.695 98.7234C241.108 99.2952 241.384 99.6764 241.987 99.6764C242.591 99.6764 242.867 99.2952 243.28 98.7234C243.486 98.3071 243.795 97.9509 244.18 97.6894C244.564 97.4277 245.009 97.2698 245.472 97.2305C245.937 97.2633 246.385 97.4149 246.775 97.6707C247.164 97.9266 247.481 98.2782 247.696 98.6916C248.109 99.2634 248.342 99.6446 248.999 99.6446C249.655 99.6446 249.888 99.2634 250.302 98.6916C250.515 98.2802 250.832 97.9301 251.219 97.6745C251.606 97.4189 252.052 97.266 252.515 97.2305C252.981 97.2692 253.429 97.4269 253.817 97.6882C254.204 97.9496 254.518 98.306 254.729 98.7234C255.142 99.2952 255.406 99.6764 256.021 99.6764C256.635 99.6764 256.889 99.2952 257.302 98.7234C257.513 98.306 257.826 97.9496 258.214 97.6882C258.602 97.4269 259.05 97.2692 259.516 97.2305C259.981 97.269 260.428 97.4266 260.813 97.6881C261.199 97.9496 261.511 98.3062 261.719 98.7234C262.132 99.2952 262.407 99.6764 263.011 99.6764C263.615 99.6764 263.879 99.2952 264.292 98.7234C264.503 98.306 264.817 97.9496 265.204 97.6882C265.592 97.4269 266.04 97.2692 266.506 97.2305C266.971 97.268 267.418 97.4252 267.804 97.6868C268.19 97.9485 268.502 98.3056 268.709 98.7234C269.122 99.2952 269.397 99.6764 270.001 99.6764C270.605 99.6764 270.88 99.2952 271.293 98.7234C271.5 98.3056 271.812 97.9485 272.198 97.6868C272.584 97.4252 273.031 97.268 273.496 97.2305C273.963 97.2694 274.413 97.4271 274.802 97.6883C275.192 97.9496 275.507 98.3059 275.72 98.7234C276.123 99.2634 276.356 99.6446 277.012 99.6446Z" fill="url(#paint62_linear)"/>
<path opacity="0.59" d="M284.257 103.785V105.563C283.793 105.517 283.346 105.356 282.958 105.096C282.57 104.835 282.253 104.483 282.033 104.071C281.62 103.499 281.345 103.118 280.741 103.118C280.138 103.118 279.862 103.499 279.449 104.071C279.239 104.486 278.927 104.842 278.541 105.103C278.156 105.364 277.71 105.523 277.246 105.563C276.78 105.526 276.331 105.369 275.943 105.107C275.556 104.845 275.242 104.489 275.033 104.071C274.62 103.499 274.355 103.118 273.741 103.118C273.126 103.118 272.872 103.499 272.459 104.071C272.248 104.488 271.935 104.844 271.547 105.106C271.159 105.367 270.711 105.525 270.245 105.563C269.781 105.525 269.334 105.367 268.948 105.106C268.563 104.844 268.25 104.488 268.043 104.071C267.629 103.499 267.354 103.118 266.75 103.118C266.147 103.118 265.871 103.499 265.469 104.071C265.258 104.488 264.945 104.844 264.557 105.106C264.169 105.367 263.721 105.525 263.255 105.563C262.79 105.526 262.343 105.369 261.957 105.107C261.571 104.845 261.259 104.488 261.052 104.071C260.639 103.499 260.364 103.118 259.76 103.118C259.157 103.118 258.871 103.499 258.458 104.071C258.26 104.497 257.948 104.862 257.558 105.125C257.169 105.388 256.714 105.54 256.244 105.563C255.779 105.517 255.332 105.356 254.944 105.096C254.557 104.835 254.239 104.483 254.02 104.071C253.607 103.499 253.331 103.118 252.728 103.118C252.124 103.118 251.849 103.499 251.436 104.071C251.225 104.488 250.911 104.844 250.524 105.106C250.136 105.367 249.688 105.525 249.222 105.563C248.757 105.525 248.31 105.367 247.925 105.106C247.539 104.844 247.227 104.488 247.019 104.071C246.606 103.499 246.331 103.118 245.727 103.118C245.123 103.118 244.859 103.499 244.446 104.071C244.235 104.488 243.921 104.844 243.534 105.106C243.146 105.367 242.698 105.525 242.232 105.563C241.767 105.526 241.32 105.369 240.934 105.107C240.548 104.845 240.236 104.488 240.029 104.071C239.616 103.499 239.341 103.118 238.737 103.118C238.133 103.118 237.858 103.499 237.445 104.071C237.238 104.488 236.926 104.845 236.54 105.107C236.154 105.369 235.707 105.526 235.242 105.563C234.777 105.526 234.33 105.369 233.944 105.107C233.558 104.845 233.246 104.488 233.039 104.071C232.626 103.499 232.35 103.118 231.747 103.118C231.143 103.118 230.857 103.499 230.444 104.071C230.243 104.495 229.932 104.858 229.542 105.121C229.153 105.383 228.7 105.536 228.23 105.563V103.785C228.898 103.785 229.12 103.403 229.533 102.832C229.738 102.419 230.045 102.065 230.425 101.804C230.805 101.543 231.245 101.382 231.704 101.339C232.171 101.377 232.619 101.534 233.007 101.795C233.395 102.057 233.708 102.414 233.918 102.832C234.331 103.403 234.606 103.785 235.21 103.785C235.814 103.785 236.089 103.403 236.502 102.832C236.709 102.414 237.021 102.057 237.407 101.795C237.793 101.533 238.24 101.376 238.705 101.339C239.17 101.376 239.617 101.533 240.003 101.795C240.389 102.057 240.701 102.414 240.908 102.832C241.321 103.403 241.596 103.785 242.2 103.785C242.804 103.785 243.079 103.403 243.492 102.832C243.699 102.414 244.011 102.057 244.397 101.795C244.783 101.533 245.23 101.376 245.695 101.339C246.161 101.377 246.609 101.535 246.997 101.796C247.385 102.058 247.698 102.414 247.909 102.832C248.311 103.403 248.587 103.785 249.19 103.785C249.794 103.785 250.069 103.403 250.482 102.832C250.692 102.416 251.005 102.06 251.39 101.799C251.776 101.538 252.222 101.379 252.685 101.339C253.152 101.378 253.602 101.535 253.991 101.797C254.38 102.058 254.697 102.414 254.91 102.832C255.323 103.403 255.545 103.785 256.212 103.785C256.879 103.785 257.102 103.403 257.515 102.832C257.723 102.415 258.035 102.058 258.42 101.796C258.806 101.535 259.253 101.377 259.718 101.339C260.185 101.375 260.634 101.531 261.022 101.793C261.41 102.054 261.724 102.412 261.931 102.832C262.345 103.403 262.62 103.785 263.224 103.785C263.827 103.785 264.103 103.403 264.516 102.832C264.722 102.414 265.035 102.057 265.42 101.795C265.807 101.533 266.254 101.376 266.719 101.339C267.184 101.376 267.631 101.533 268.017 101.795C268.403 102.057 268.715 102.414 268.922 102.832C269.335 103.403 269.61 103.785 270.214 103.785C270.817 103.785 271.093 103.403 271.506 102.832C271.713 102.415 272.026 102.058 272.411 101.796C272.797 101.535 273.244 101.377 273.709 101.339C274.175 101.377 274.623 101.535 275.01 101.796C275.398 102.058 275.712 102.414 275.922 102.832C276.335 103.403 276.6 103.785 277.214 103.785C277.829 103.785 278.083 103.403 278.496 102.832C278.706 102.416 279.018 102.06 279.404 101.799C279.789 101.538 280.235 101.379 280.699 101.339C281.167 101.376 281.617 101.533 282.007 101.794C282.396 102.056 282.711 102.413 282.923 102.832C283.368 103.403 283.601 103.785 284.257 103.785Z" fill="url(#paint63_linear)"/>
<path opacity="0.59" d="M290.092 106.94V108.762H289.605C289.478 108.6 289.362 108.441 289.256 108.286C288.843 107.724 288.567 107.343 287.964 107.343C287.865 107.332 287.766 107.332 287.667 107.343C287.254 107.449 287.01 107.788 286.672 108.254C286.566 108.409 286.449 108.568 286.322 108.73H282.594C282.467 108.568 282.35 108.409 282.244 108.254C281.831 107.682 281.556 107.301 280.952 107.301C280.349 107.301 280.084 107.682 279.671 108.254L279.311 108.73H275.604C275.477 108.568 275.36 108.409 275.254 108.254C274.841 107.682 274.566 107.301 273.962 107.301C273.359 107.301 273.083 107.682 272.67 108.254C272.564 108.413 272.458 108.572 272.331 108.73H268.614C268.487 108.568 268.37 108.409 268.264 108.254C267.851 107.682 267.576 107.301 266.972 107.301C266.368 107.301 266.082 107.682 265.669 108.254C265.563 108.413 265.458 108.572 265.33 108.73H261.592L261.232 108.254C260.819 107.682 260.543 107.301 259.94 107.301C259.336 107.301 259.061 107.682 258.647 108.254C258.542 108.409 258.425 108.568 258.298 108.73H254.58C254.453 108.568 254.337 108.409 254.231 108.254C253.818 107.682 253.553 107.301 252.939 107.301C252.325 107.301 252.07 107.682 251.657 108.254C251.541 108.413 251.435 108.572 251.297 108.73H247.59C247.463 108.568 247.347 108.409 247.241 108.254C246.828 107.682 246.552 107.301 245.949 107.301C245.345 107.301 245.07 107.682 244.667 108.254L244.307 108.73H240.59C240.463 108.572 240.357 108.413 240.251 108.254C239.838 107.682 239.562 107.301 238.959 107.301C238.355 107.301 238.069 107.682 237.656 108.254L237.317 108.73H235.442V107.978C236.11 107.978 236.332 107.597 236.745 107.015C236.956 106.601 237.269 106.247 237.654 105.988C238.04 105.728 238.485 105.571 238.948 105.532C239.413 105.568 239.862 105.723 240.249 105.983C240.637 106.242 240.951 106.598 241.162 107.015C241.575 107.597 241.85 107.978 242.454 107.978C243.057 107.978 243.333 107.597 243.735 107.015C243.948 106.6 244.263 106.246 244.65 105.986C245.037 105.727 245.484 105.571 245.949 105.532C246.413 105.569 246.859 105.725 247.244 105.985C247.63 106.245 247.942 106.599 248.152 107.015C248.565 107.597 248.84 107.978 249.444 107.978C250.048 107.978 250.323 107.597 250.736 107.015C250.946 106.599 251.258 106.245 251.644 105.985C252.029 105.725 252.475 105.569 252.939 105.532C253.404 105.571 253.851 105.727 254.237 105.986C254.625 106.246 254.94 106.6 255.152 107.015C255.565 107.597 255.83 107.978 256.434 107.978C257.038 107.978 257.313 107.597 257.726 107.015C257.937 106.601 258.25 106.247 258.636 105.988C259.02 105.728 259.466 105.571 259.929 105.532C260.395 105.571 260.843 105.727 261.232 105.987C261.621 106.246 261.938 106.6 262.153 107.015C262.566 107.597 262.789 107.978 263.456 107.978C264.123 107.978 264.345 107.597 264.759 107.015C264.969 106.601 265.283 106.247 265.668 105.988C266.053 105.728 266.499 105.571 266.961 105.532C267.426 105.57 267.873 105.726 268.261 105.985C268.649 106.245 268.963 106.599 269.175 107.015C269.588 107.597 269.863 107.978 270.467 107.978C271.071 107.978 271.346 107.597 271.759 107.015C271.969 106.599 272.281 106.245 272.667 105.985C273.052 105.725 273.498 105.569 273.962 105.532C274.432 105.569 274.886 105.728 275.276 105.994C275.665 106.259 275.98 106.622 276.186 107.046C276.599 107.629 276.875 108.01 277.478 108.01C278.082 108.01 278.358 107.629 278.771 107.046C278.982 106.633 279.296 106.28 279.68 106.021C280.066 105.761 280.511 105.604 280.974 105.564C281.438 105.601 281.885 105.757 282.273 106.017C282.661 106.277 282.975 106.631 283.187 107.046C283.6 107.629 283.865 108.01 284.479 108.01C285.093 108.01 285.348 107.629 285.761 107.046C285.888 106.877 286.015 106.686 286.163 106.517C286.371 106.228 286.642 105.992 286.956 105.826C287.271 105.661 287.619 105.571 287.974 105.564C288.414 105.598 288.838 105.743 289.208 105.983C289.578 106.224 289.882 106.553 290.092 106.94Z" fill="url(#paint64_linear)"/>
</g>
</g>
<path d="M129.249 53.9852C129.249 60.3384 125.038 64.2402 118.199 64.2402H111.694C111.521 64.2402 111.349 64.206 111.189 64.1397C111.028 64.0734 110.883 63.9762 110.76 63.8536C110.637 63.731 110.54 63.5856 110.474 63.4254C110.407 63.2653 110.373 63.0936 110.373 62.9202V45.0212C110.381 44.6762 110.523 44.3479 110.77 44.1065C111.017 43.8652 111.349 43.7302 111.694 43.7302H118.199C125.038 43.7302 129.249 47.6757 129.249 53.9852ZM123.194 53.9852C123.194 51.0843 121.423 49.2421 118.199 49.2421H116.442V58.7283H118.199C121.423 58.7283 123.194 56.9152 123.194 53.9852Z" fill="black"/>
<path d="M144.365 59.2794C144.534 59.2794 144.701 59.3129 144.857 59.378C145.013 59.443 145.154 59.5383 145.273 59.6584C145.392 59.7785 145.486 59.9209 145.549 60.0775C145.613 60.234 145.644 60.4015 145.642 60.5704V62.9492C145.646 63.2929 145.514 63.6244 145.275 63.8716C145.036 64.1187 144.709 64.2616 144.365 64.2691H133.01C132.665 64.2616 132.336 64.1192 132.094 63.8725C131.853 63.6258 131.718 63.2944 131.718 62.9492V45.0212C131.725 44.6811 131.864 44.357 132.105 44.1165C132.345 43.876 132.67 43.7376 133.01 43.7302H144.06C144.231 43.7283 144.402 43.7601 144.561 43.824C144.72 43.8878 144.865 43.9824 144.988 44.1022C145.111 44.2221 145.209 44.3649 145.276 44.5226C145.344 44.6803 145.379 44.8498 145.381 45.0212V47.4289C145.379 47.6003 145.344 47.7697 145.276 47.9275C145.209 48.0851 145.111 48.2279 144.988 48.3477C144.865 48.4676 144.72 48.5623 144.561 48.6261C144.402 48.69 144.231 48.7217 144.06 48.7199H137.787V51.5193H143.159C143.5 51.5267 143.824 51.6651 144.065 51.9056C144.306 52.1461 144.444 52.4703 144.452 52.8103V54.9279C144.452 55.2718 144.316 55.6016 144.074 55.8459C143.832 56.0904 143.504 56.2296 143.159 56.2334H137.787V59.2794H144.365Z" fill="black"/>
<path d="M161.25 63.2683L160.596 60.9187H154.324L153.685 63.2683C153.611 63.5469 153.447 63.7932 153.219 63.969C152.991 64.1449 152.71 64.2402 152.422 64.2402H148.284C148.119 64.2383 147.958 64.1972 147.813 64.1203C147.667 64.0434 147.543 63.9329 147.449 63.798C147.355 63.6631 147.295 63.5079 147.274 63.3451C147.252 63.1823 147.27 63.0167 147.325 62.8623L153.366 44.7892C153.473 44.4874 153.669 44.2251 153.928 44.0362C154.187 43.8474 154.497 43.7408 154.818 43.7302H160.03C160.35 43.7427 160.659 43.8501 160.918 44.0386C161.176 44.2272 161.373 44.4885 161.482 44.7892L167.523 62.8623C167.576 63.0203 167.591 63.1887 167.565 63.3536C167.54 63.5183 167.476 63.6748 167.378 63.8097C167.28 63.9445 167.151 64.0541 167.002 64.129C166.853 64.2038 166.687 64.2421 166.521 64.2402H162.426C162.152 64.2241 161.89 64.1209 161.679 63.9462C161.467 63.7715 161.317 63.5341 161.25 63.2683ZM159.406 56.6251L157.46 49.6193L155.529 56.6251H159.406Z" fill="black"/>
<path d="M182.276 58.7283C182.616 58.7321 182.941 58.8698 183.18 59.1115C183.419 59.3531 183.554 59.6794 183.554 60.0193V62.9202C183.558 63.2639 183.425 63.5953 183.186 63.8426C182.947 64.0897 182.62 64.2325 182.276 64.2402H171.168C170.995 64.2402 170.823 64.206 170.662 64.1397C170.502 64.0734 170.356 63.9761 170.234 63.8535C170.111 63.731 170.014 63.5854 169.947 63.4253C169.881 63.2652 169.847 63.0936 169.847 62.9202V45.0212C169.849 44.8498 169.884 44.6803 169.952 44.5226C170.019 44.3649 170.117 44.2221 170.24 44.1022C170.362 43.9824 170.508 43.8878 170.667 43.824C170.826 43.7601 170.996 43.7283 171.168 43.7302H174.624C174.964 43.7376 175.289 43.876 175.529 44.1165C175.77 44.357 175.909 44.6811 175.916 45.0212V58.7283H182.276Z" fill="black"/>
<path d="M201.457 57.9594C201.457 61.5131 198.379 64.5882 193.398 64.5882C190.03 64.5882 186.371 63.4423 185.078 60.2367C185.023 60.1049 184.996 59.9631 184.999 59.8203C185.002 59.6776 185.034 59.537 185.094 59.4074C185.154 59.2778 185.241 59.1621 185.348 59.0676C185.455 58.9733 185.581 58.9021 185.717 58.8588L188.999 57.8289C189.224 57.7588 189.467 57.7681 189.686 57.8551C189.906 57.9424 190.088 58.102 190.204 58.3075C190.547 58.7412 190.991 59.0844 191.497 59.3069C192.003 59.5294 192.556 59.6246 193.108 59.5839C194.691 59.5839 195.359 58.8588 195.359 58.1335C195.359 56.9006 193.907 56.7845 191.787 56.2768C187.808 55.3195 185.543 53.7096 185.543 49.9527C185.543 46.196 188.825 43.4256 193.34 43.4256C194.839 43.3336 196.331 43.701 197.615 44.4786C198.899 45.2563 199.915 46.407 200.528 47.777C200.586 47.9201 200.614 48.0741 200.607 48.2286C200.601 48.383 200.561 48.5343 200.491 48.6721C200.42 48.8099 200.321 48.9308 200.2 49.0267C200.078 49.1225 199.937 49.191 199.787 49.2276L196.535 50.0107C196.329 50.0586 196.114 50.0458 195.915 49.9736C195.717 49.9016 195.543 49.7733 195.417 49.6046C195.196 49.2796 194.892 49.0186 194.538 48.848C194.184 48.6774 193.791 48.6031 193.398 48.6328C192.193 48.6328 191.351 49.1405 191.351 50.0832C191.351 51.2581 193.137 51.4032 194.72 51.8384C199.743 53.0423 201.457 54.7103 201.457 57.9594Z" fill="black"/>
<defs>
<linearGradient id="paint0_linear" x1="155.945" y1="0.0835687" x2="155.945" y2="108" gradientUnits="userSpaceOnUse">
<stop stop-color="#FF9894"/>
<stop offset="1" stop-color="#FE5252"/>
</linearGradient>
<linearGradient id="paint1_linear" x1="155.982" y1="0" x2="155.982" y2="107.927" gradientUnits="userSpaceOnUse">
<stop stop-color="#6FD74A"/>
<stop offset="1" stop-color="#24A240"/>
</linearGradient>
<linearGradient id="paint2_linear" x1="17.4336" y1="49.6166" x2="18.1856" y2="49.6166" gradientUnits="userSpaceOnUse">
<stop offset="0.15" stop-color="#9F3632"/>
<stop offset="0.48" stop-color="#C04342"/>
<stop offset="0.79" stop-color="#E25052"/>
</linearGradient>
<linearGradient id="paint3_linear" x1="-79.6055" y1="-5.73354" x2="-78.4378" y2="-5.73354" gradientUnits="userSpaceOnUse">
<stop offset="0.15" stop-color="#9F3632"/>
<stop offset="0.48" stop-color="#C04342"/>
<stop offset="0.79" stop-color="#E25052"/>
</linearGradient>
<linearGradient id="paint4_linear" x1="-79.6055" y1="1.12436" x2="-78.4378" y2="1.12436" gradientUnits="userSpaceOnUse">
<stop offset="0.15" stop-color="#9F3632"/>
<stop offset="0.48" stop-color="#C04342"/>
<stop offset="0.79" stop-color="#E25052"/>
</linearGradient>
<linearGradient id="paint5_linear" x1="-48.183" y1="8.46367" x2="-47.6491" y2="8.46367" gradientUnits="userSpaceOnUse">
<stop offset="0.15" stop-color="#9F3632"/>
<stop offset="0.48" stop-color="#C04342"/>
<stop offset="0.79" stop-color="#E25052"/>
</linearGradient>
<linearGradient id="paint6_linear" x1="-86.6721" y1="-26.3084" x2="-85.5044" y2="-26.3084" gradientUnits="userSpaceOnUse">
<stop offset="0.15" stop-color="#9F3632"/>
<stop offset="0.48" stop-color="#C04342"/>
<stop offset="0.79" stop-color="#E25052"/>
</linearGradient>
<linearGradient id="paint7_linear" x1="-86.6721" y1="-19.4503" x2="-85.5044" y2="-19.4503" gradientUnits="userSpaceOnUse">
<stop offset="0.15" stop-color="#9F3632"/>
<stop offset="0.48" stop-color="#C04342"/>
<stop offset="0.79" stop-color="#E25052"/>
</linearGradient>
<linearGradient id="paint8_linear" x1="-86.6721" y1="-10.7666" x2="-85.5044" y2="-10.7666" gradientUnits="userSpaceOnUse">
<stop offset="0.15" stop-color="#9F3632"/>
<stop offset="0.48" stop-color="#C04342"/>
<stop offset="0.79" stop-color="#E25052"/>
</linearGradient>
<linearGradient id="paint9_linear" x1="-86.6721" y1="-5.73354" x2="-85.5044" y2="-5.73354" gradientUnits="userSpaceOnUse">
<stop offset="0.15" stop-color="#9F3632"/>
<stop offset="0.48" stop-color="#C04342"/>
<stop offset="0.79" stop-color="#E25052"/>
</linearGradient>
<linearGradient id="paint10_linear" x1="-86.6721" y1="1.12436" x2="-85.5044" y2="1.12436" gradientUnits="userSpaceOnUse">
<stop offset="0.15" stop-color="#9F3632"/>
<stop offset="0.48" stop-color="#C04342"/>
<stop offset="0.79" stop-color="#E25052"/>
</linearGradient>
<linearGradient id="paint11_linear" x1="-86.6721" y1="7.98262" x2="-85.5044" y2="7.98262" gradientUnits="userSpaceOnUse">
<stop offset="0.15" stop-color="#9F3632"/>
<stop offset="0.48" stop-color="#C04342"/>
<stop offset="0.79" stop-color="#E25052"/>
</linearGradient>
<linearGradient id="paint12_linear" x1="-86.6721" y1="14.8408" x2="-85.5044" y2="14.8408" gradientUnits="userSpaceOnUse">
<stop offset="0.15" stop-color="#9F3632"/>
<stop offset="0.48" stop-color="#C04342"/>
<stop offset="0.79" stop-color="#E25052"/>
</linearGradient>
<linearGradient id="paint13_linear" x1="-86.9044" y1="19.5483" x2="-85.734" y2="19.5483" gradientUnits="userSpaceOnUse">
<stop offset="0.15" stop-color="#9F3632"/>
<stop offset="0.48" stop-color="#C04342"/>
<stop offset="0.79" stop-color="#E25052"/>
</linearGradient>
<linearGradient id="paint14_linear" x1="-93.7187" y1="-33.1664" x2="-92.5511" y2="-33.1664" gradientUnits="userSpaceOnUse">
<stop offset="0.15" stop-color="#9F3632"/>
<stop offset="0.48" stop-color="#C04342"/>
<stop offset="0.79" stop-color="#E25052"/>
</linearGradient>
<linearGradient id="paint15_linear" x1="-93.7187" y1="-26.3084" x2="-92.5511" y2="-26.3084" gradientUnits="userSpaceOnUse">
<stop offset="0.15" stop-color="#9F3632"/>
<stop offset="0.48" stop-color="#C04342"/>
<stop offset="0.79" stop-color="#E25052"/>
</linearGradient>
<linearGradient id="paint16_linear" x1="-93.7187" y1="-19.4503" x2="-92.5511" y2="-19.4503" gradientUnits="userSpaceOnUse">
<stop offset="0.15" stop-color="#9F3632"/>
<stop offset="0.48" stop-color="#C04342"/>
<stop offset="0.79" stop-color="#E25052"/>
</linearGradient>
<linearGradient id="paint17_linear" x1="-93.7187" y1="-12.5603" x2="-92.5511" y2="-12.5603" gradientUnits="userSpaceOnUse">
<stop offset="0.15" stop-color="#9F3632"/>
<stop offset="0.48" stop-color="#C04342"/>
<stop offset="0.79" stop-color="#E25052"/>
</linearGradient>
<linearGradient id="paint18_linear" x1="-93.7187" y1="-5.73354" x2="-92.5511" y2="-5.73354" gradientUnits="userSpaceOnUse">
<stop offset="0.15" stop-color="#9F3632"/>
<stop offset="0.48" stop-color="#C04342"/>
<stop offset="0.79" stop-color="#E25052"/>
</linearGradient>
<linearGradient id="paint19_linear" x1="-93.7187" y1="1.12436" x2="-92.5511" y2="1.12436" gradientUnits="userSpaceOnUse">
<stop offset="0.15" stop-color="#9F3632"/>
<stop offset="0.48" stop-color="#C04342"/>
<stop offset="0.79" stop-color="#E25052"/>
</linearGradient>
<linearGradient id="paint20_linear" x1="-93.7187" y1="7.98262" x2="-92.5511" y2="7.98262" gradientUnits="userSpaceOnUse">
<stop offset="0.15" stop-color="#9F3632"/>
<stop offset="0.48" stop-color="#C04342"/>
<stop offset="0.79" stop-color="#E25052"/>
</linearGradient>
<linearGradient id="paint21_linear" x1="-93.7187" y1="14.8408" x2="-92.5511" y2="14.8408" gradientUnits="userSpaceOnUse">
<stop offset="0.15" stop-color="#9F3632"/>
<stop offset="0.48" stop-color="#C04342"/>
<stop offset="0.79" stop-color="#E25052"/>
</linearGradient>
<linearGradient id="paint22_linear" x1="-93.7187" y1="21.6989" x2="-92.5511" y2="21.6989" gradientUnits="userSpaceOnUse">
<stop offset="0.15" stop-color="#9F3632"/>
<stop offset="0.48" stop-color="#C04342"/>
<stop offset="0.79" stop-color="#E25052"/>
</linearGradient>
<linearGradient id="paint23_linear" x1="-93.7187" y1="28.5575" x2="-92.5511" y2="28.5575" gradientUnits="userSpaceOnUse">
<stop offset="0.15" stop-color="#9F3632"/>
<stop offset="0.48" stop-color="#C04342"/>
<stop offset="0.79" stop-color="#E25052"/>
</linearGradient>
<linearGradient id="paint24_linear" x1="-100.774" y1="-40.024" x2="-99.6067" y2="-40.024" gradientUnits="userSpaceOnUse">
<stop offset="0.15" stop-color="#9F3632"/>
<stop offset="0.48" stop-color="#C04342"/>
<stop offset="0.79" stop-color="#E25052"/>
</linearGradient>
<linearGradient id="paint25_linear" x1="-100.774" y1="-33.1664" x2="-99.6067" y2="-33.1664" gradientUnits="userSpaceOnUse">
<stop offset="0.15" stop-color="#9F3632"/>
<stop offset="0.48" stop-color="#C04342"/>
<stop offset="0.79" stop-color="#E25052"/>
</linearGradient>
<linearGradient id="paint26_linear" x1="-99.7359" y1="-26.3084" x2="-98.5794" y2="-26.3084" gradientUnits="userSpaceOnUse">
<stop offset="0.15" stop-color="#9F3632"/>
<stop offset="0.48" stop-color="#C04342"/>
<stop offset="0.79" stop-color="#E25052"/>
</linearGradient>
<linearGradient id="paint27_linear" x1="-100.774" y1="-19.4503" x2="-99.6067" y2="-19.4503" gradientUnits="userSpaceOnUse">
<stop offset="0.15" stop-color="#9F3632"/>
<stop offset="0.48" stop-color="#C04342"/>
<stop offset="0.79" stop-color="#E25052"/>
</linearGradient>
<linearGradient id="paint28_linear" x1="-100.774" y1="-12.5603" x2="-99.6067" y2="-12.5603" gradientUnits="userSpaceOnUse">
<stop offset="0.15" stop-color="#9F3632"/>
<stop offset="0.48" stop-color="#C04342"/>
<stop offset="0.79" stop-color="#E25052"/>
</linearGradient>
<linearGradient id="paint29_linear" x1="-100.774" y1="-5.73354" x2="-99.6067" y2="-5.73354" gradientUnits="userSpaceOnUse">
<stop offset="0.15" stop-color="#9F3632"/>
<stop offset="0.48" stop-color="#C04342"/>
<stop offset="0.79" stop-color="#E25052"/>
</linearGradient>
<linearGradient id="paint30_linear" x1="-100.774" y1="1.12436" x2="-99.6067" y2="1.12436" gradientUnits="userSpaceOnUse">
<stop offset="0.15" stop-color="#9F3632"/>
<stop offset="0.48" stop-color="#C04342"/>
<stop offset="0.79" stop-color="#E25052"/>
</linearGradient>
<linearGradient id="paint31_linear" x1="-100.774" y1="7.98262" x2="-99.6067" y2="7.98262" gradientUnits="userSpaceOnUse">
<stop offset="0.15" stop-color="#9F3632"/>
<stop offset="0.48" stop-color="#C04342"/>
<stop offset="0.79" stop-color="#E25052"/>
</linearGradient>
<linearGradient id="paint32_linear" x1="-100.774" y1="14.8408" x2="-99.6067" y2="14.8408" gradientUnits="userSpaceOnUse">
<stop offset="0.15" stop-color="#9F3632"/>
<stop offset="0.48" stop-color="#C04342"/>
<stop offset="0.79" stop-color="#E25052"/>
</linearGradient>
<linearGradient id="paint33_linear" x1="-100.774" y1="21.6989" x2="-99.6067" y2="21.6989" gradientUnits="userSpaceOnUse">
<stop offset="0.15" stop-color="#9F3632"/>
<stop offset="0.48" stop-color="#C04342"/>
<stop offset="0.79" stop-color="#E25052"/>
</linearGradient>
<linearGradient id="paint34_linear" x1="-100.774" y1="28.5575" x2="-99.6067" y2="28.5575" gradientUnits="userSpaceOnUse">
<stop offset="0.15" stop-color="#9F3632"/>
<stop offset="0.48" stop-color="#C04342"/>
<stop offset="0.79" stop-color="#E25052"/>
</linearGradient>
<linearGradient id="paint35_linear" x1="-100.774" y1="35.4155" x2="-99.6067" y2="35.4155" gradientUnits="userSpaceOnUse">
<stop offset="0.15" stop-color="#9F3632"/>
<stop offset="0.48" stop-color="#C04342"/>
<stop offset="0.79" stop-color="#E25052"/>
</linearGradient>
<linearGradient id="paint36_linear" x1="-106.769" y1="-40.0169" x2="-105.623" y2="-40.0169" gradientUnits="userSpaceOnUse">
<stop offset="0.15" stop-color="#9F3632"/>
<stop offset="0.48" stop-color="#C04342"/>
<stop offset="0.79" stop-color="#E25052"/>
</linearGradient>
<linearGradient id="paint37_linear" x1="-106.769" y1="-33.1597" x2="-105.623" y2="-33.1597" gradientUnits="userSpaceOnUse">
<stop offset="0.15" stop-color="#9F3632"/>
<stop offset="0.48" stop-color="#C04342"/>
<stop offset="0.79" stop-color="#E25052"/>
</linearGradient>
<linearGradient id="paint38_linear" x1="-106.769" y1="-26.302" x2="-105.623" y2="-26.302" gradientUnits="userSpaceOnUse">
<stop offset="0.15" stop-color="#9F3632"/>
<stop offset="0.48" stop-color="#C04342"/>
<stop offset="0.79" stop-color="#E25052"/>
</linearGradient>
<linearGradient id="paint39_linear" x1="-106.769" y1="-19.4443" x2="-105.623" y2="-19.4443" gradientUnits="userSpaceOnUse">
<stop offset="0.15" stop-color="#9F3632"/>
<stop offset="0.48" stop-color="#C04342"/>
<stop offset="0.79" stop-color="#E25052"/>
</linearGradient>
<linearGradient id="paint40_linear" x1="-106.769" y1="14.8453" x2="-105.623" y2="14.8453" gradientUnits="userSpaceOnUse">
<stop offset="0.15" stop-color="#9F3632"/>
<stop offset="0.48" stop-color="#C04342"/>
<stop offset="0.79" stop-color="#E25052"/>
</linearGradient>
<linearGradient id="paint41_linear" x1="-106.769" y1="21.703" x2="-105.623" y2="21.703" gradientUnits="userSpaceOnUse">
<stop offset="0.15" stop-color="#9F3632"/>
<stop offset="0.48" stop-color="#C04342"/>
<stop offset="0.79" stop-color="#E25052"/>
</linearGradient>
<linearGradient id="paint42_linear" x1="-106.769" y1="28.5613" x2="-105.623" y2="28.5613" gradientUnits="userSpaceOnUse">
<stop offset="0.15" stop-color="#9F3632"/>
<stop offset="0.48" stop-color="#C04342"/>
<stop offset="0.79" stop-color="#E25052"/>
</linearGradient>
<linearGradient id="paint43_linear" x1="-106.769" y1="35.419" x2="-105.623" y2="35.419" gradientUnits="userSpaceOnUse">
<stop offset="0.15" stop-color="#9F3632"/>
<stop offset="0.48" stop-color="#C04342"/>
<stop offset="0.79" stop-color="#E25052"/>
</linearGradient>
<linearGradient id="paint44_linear" x1="-115.68" y1="-21.8479" x2="-114.504" y2="-21.8479" gradientUnits="userSpaceOnUse">
<stop offset="0.15" stop-color="#9F3632"/>
<stop offset="0.48" stop-color="#C04342"/>
<stop offset="0.79" stop-color="#E25052"/>
</linearGradient>
<linearGradient id="paint45_linear" x1="-114.919" y1="-40.024" x2="-113.751" y2="-40.024" gradientUnits="userSpaceOnUse">
<stop offset="0.15" stop-color="#9F3632"/>
<stop offset="0.48" stop-color="#C04342"/>
<stop offset="0.79" stop-color="#E25052"/>
</linearGradient>
<linearGradient id="paint46_linear" x1="-114.919" y1="-33.1664" x2="-113.751" y2="-33.1664" gradientUnits="userSpaceOnUse">
<stop offset="0.15" stop-color="#9F3632"/>
<stop offset="0.48" stop-color="#C04342"/>
<stop offset="0.79" stop-color="#E25052"/>
</linearGradient>
<linearGradient id="paint47_linear" x1="-114.919" y1="-26.3084" x2="-113.751" y2="-26.3084" gradientUnits="userSpaceOnUse">
<stop offset="0.15" stop-color="#9F3632"/>
<stop offset="0.48" stop-color="#C04342"/>
<stop offset="0.79" stop-color="#E25052"/>
</linearGradient>
<linearGradient id="paint48_linear" x1="-115.183" y1="19.5506" x2="-114.012" y2="19.5506" gradientUnits="userSpaceOnUse">
<stop offset="0.15" stop-color="#9F3632"/>
<stop offset="0.48" stop-color="#C04342"/>
<stop offset="0.79" stop-color="#E25052"/>
</linearGradient>
<linearGradient id="paint49_linear" x1="-114.919" y1="28.5575" x2="-113.751" y2="28.5575" gradientUnits="userSpaceOnUse">
<stop offset="0.15" stop-color="#9F3632"/>
<stop offset="0.48" stop-color="#C04342"/>
<stop offset="0.79" stop-color="#E25052"/>
</linearGradient>
<linearGradient id="paint50_linear" x1="-114.919" y1="35.4155" x2="-113.751" y2="35.4155" gradientUnits="userSpaceOnUse">
<stop offset="0.15" stop-color="#9F3632"/>
<stop offset="0.48" stop-color="#C04342"/>
<stop offset="0.79" stop-color="#E25052"/>
</linearGradient>
<linearGradient id="paint51_linear" x1="-110.251" y1="52.9928" x2="-109.13" y2="52.9928" gradientUnits="userSpaceOnUse">
<stop offset="0.15" stop-color="#9F3632"/>
<stop offset="0.48" stop-color="#C04342"/>
<stop offset="0.79" stop-color="#E25052"/>
</linearGradient>
<linearGradient id="paint52_linear" x1="211.103" y1="46.6095" x2="211.103" y2="49.9986" gradientUnits="userSpaceOnUse">
<stop stop-color="#FF4F5B"/>
<stop offset="1" stop-color="#F14241"/>
</linearGradient>
<linearGradient id="paint53_linear" x1="211.103" y1="39.1976" x2="211.103" y2="42.5974" gradientUnits="userSpaceOnUse">
<stop stop-color="#FF4F5B"/>
<stop offset="1" stop-color="#F14241"/>
</linearGradient>
<linearGradient id="paint54_linear" x1="214.815" y1="43.4117" x2="214.815" y2="45.763" gradientUnits="userSpaceOnUse">
<stop stop-color="#FF4F5B"/>
<stop offset="1" stop-color="#F14241"/>
</linearGradient>
<linearGradient id="paint55_linear" x1="207.412" y1="43.4117" x2="207.412" y2="45.763" gradientUnits="userSpaceOnUse">
<stop stop-color="#FF4F5B"/>
<stop offset="1" stop-color="#F14241"/>
</linearGradient>
<linearGradient id="paint56_linear" x1="98.3914" y1="67.4119" x2="98.3914" y2="70.801" gradientUnits="userSpaceOnUse">
<stop stop-color="#FF4F5B"/>
<stop offset="1" stop-color="#F14241"/>
</linearGradient>
<linearGradient id="paint57_linear" x1="98.3914" y1="60" x2="98.3914" y2="63.3997" gradientUnits="userSpaceOnUse">
<stop stop-color="#FF4F5B"/>
<stop offset="1" stop-color="#F14241"/>
</linearGradient>
<linearGradient id="paint58_linear" x1="102.103" y1="64.2141" x2="102.103" y2="66.5653" gradientUnits="userSpaceOnUse">
<stop stop-color="#FF4F5B"/>
<stop offset="1" stop-color="#F14241"/>
</linearGradient>
<linearGradient id="paint59_linear" x1="94.6999" y1="64.2141" x2="94.6999" y2="66.5653" gradientUnits="userSpaceOnUse">
<stop stop-color="#FF4F5B"/>
<stop offset="1" stop-color="#F14241"/>
</linearGradient>
<linearGradient id="paint60_linear" x1="292.667" y1="9.54" x2="254.052" y2="9.54" gradientUnits="userSpaceOnUse">
<stop stop-color="#FF8594"/>
<stop offset="1" stop-color="#FE4652"/>
</linearGradient>
<linearGradient id="paint61_linear" x1="214.408" y1="95.1659" x2="270.435" y2="95.1659" gradientUnits="userSpaceOnUse">
<stop stop-color="#E95456"/>
<stop offset="0.26" stop-color="#9F3632"/>
<stop offset="0.42" stop-color="#C04341"/>
<stop offset="0.51" stop-color="#D24A4A"/>
<stop offset="0.8" stop-color="#A63935"/>
<stop offset="1" stop-color="#E95256"/>
</linearGradient>
<linearGradient id="paint62_linear" x1="-1354.49" y1="-25.7624" x2="1609.33" y2="-25.7624" gradientUnits="userSpaceOnUse">
<stop stop-color="#E95456"/>
<stop offset="0.26" stop-color="#9F3632"/>
<stop offset="0.42" stop-color="#C04341"/>
<stop offset="0.51" stop-color="#D24A4A"/>
<stop offset="0.8" stop-color="#A63935"/>
<stop offset="1" stop-color="#E95256"/>
</linearGradient>
<linearGradient id="paint63_linear" x1="-964.02" y1="-4.82823" x2="1999.8" y2="-4.82823" gradientUnits="userSpaceOnUse">
<stop stop-color="#E95456"/>
<stop offset="0.26" stop-color="#9F3632"/>
<stop offset="0.42" stop-color="#C04341"/>
<stop offset="0.51" stop-color="#D24A4A"/>
<stop offset="0.8" stop-color="#A63935"/>
<stop offset="1" stop-color="#E95256"/>
</linearGradient>
<linearGradient id="paint64_linear" x1="-555.344" y1="35.6931" x2="2264.6" y2="35.6931" gradientUnits="userSpaceOnUse">
<stop stop-color="#E95456"/>
<stop offset="0.26" stop-color="#9F3632"/>
<stop offset="0.42" stop-color="#C04341"/>
<stop offset="0.51" stop-color="#D24A4A"/>
<stop offset="0.8" stop-color="#A63935"/>
<stop offset="1" stop-color="#E95256"/>
</linearGradient>
</defs>
</svg>
