<svg width="312" height="108" viewBox="0 0 312 108" fill="none" xmlns="http://www.w3.org/2000/svg">
<rect width="312" height="108" rx="24" fill="url(#paint0_linear)"/>
<mask id="mask0" mask-type="alpha" maskUnits="userSpaceOnUse" x="0" y="0" width="312" height="108">
<rect width="312" height="108" rx="24" fill="url(#paint1_linear)"/>
</mask>
<g mask="url(#mask0)">
<path fill-rule="evenodd" clip-rule="evenodd" d="M253.455 17.6576C261.912 17.6576 268.772 9.37724 268.772 0.400025H238.138C238.138 0.400025 238.138 -0.296784 238.138 0.400025C238.138 9.37724 244.998 17.6576 253.467 17.6576H253.455Z" fill="url(#paint2_linear)"/>
<path fill-rule="evenodd" clip-rule="evenodd" d="M14.1397 54.2968C14.1397 45.8073 5.89103 38.9204 -3.05176 38.9204L-3.05176 69.6729C5.89103 69.6729 14.1397 62.7861 14.1397 54.285V54.2968Z" fill="url(#paint3_linear)"/>
<path d="M297.643 72.82H296.359C296.35 72.5212 296.279 72.2273 296.155 71.956C296.03 71.6847 295.852 71.4414 295.631 71.2406C295.298 70.9266 295.032 70.5469 294.85 70.1254C294.67 69.7038 294.577 69.2492 294.578 68.7902C294.58 68.3264 294.674 67.8677 294.855 67.4409C295.035 67.0142 295.3 66.628 295.631 66.3049C295.86 66.1006 296.042 65.8502 296.167 65.57C296.293 65.2899 296.358 64.9863 296.359 64.679C296.358 64.3718 296.293 64.0681 296.167 63.788C296.042 63.5078 295.86 63.2574 295.631 63.0531C295.3 62.73 295.035 62.3438 294.855 61.9171C294.674 61.4903 294.58 61.0315 294.578 60.5678C294.576 60.1035 294.668 59.6436 294.849 59.2162C295.03 58.789 295.296 58.4032 295.631 58.0825C295.858 57.8751 296.041 57.6225 296.166 57.3405C296.291 57.0587 296.357 56.7537 296.359 56.445C296.358 56.1362 296.292 55.831 296.167 55.5491C296.041 55.2671 295.858 55.0145 295.631 54.8075C295.3 54.4844 295.035 54.0982 294.855 53.6715C294.674 53.2447 294.58 52.786 294.578 52.3222C294.576 51.8579 294.668 51.398 294.849 50.9707C295.03 50.5434 295.296 50.1576 295.631 49.837C295.858 49.6295 296.041 49.377 296.166 49.095C296.291 48.8131 296.357 48.5082 296.359 48.1995C296.358 47.8907 296.292 47.5855 296.167 47.3035C296.041 47.0215 295.858 46.7689 295.631 46.562C295.3 46.2389 295.035 45.8526 294.855 45.4259C294.674 44.9991 294.58 44.5404 294.578 44.0767C294.577 43.616 294.67 43.1598 294.851 42.7365C295.032 42.3131 295.298 41.9313 295.631 41.6146C295.857 41.4135 296.039 41.1669 296.164 40.8909C296.29 40.6148 296.356 40.3154 296.359 40.012H297.643C297.619 40.9319 297.246 41.808 296.602 42.4624C296.373 42.6662 296.189 42.9165 296.064 43.1968C295.938 43.4771 295.874 43.781 295.874 44.0883C295.872 44.3959 295.936 44.7002 296.062 44.9807C296.188 45.2613 296.372 45.5113 296.602 45.7142C296.932 46.0382 297.193 46.4249 297.371 46.8516C297.551 47.2784 297.643 47.7366 297.643 48.1995C297.643 48.6624 297.551 49.1206 297.371 49.5473C297.193 49.974 296.932 50.3607 296.602 50.6847C296.373 50.8908 296.189 51.1431 296.063 51.4253C295.938 51.7075 295.874 52.0132 295.874 52.3222C295.874 52.6313 295.938 52.9369 296.063 53.2192C296.189 53.5014 296.373 53.7537 296.602 53.9597C296.932 54.2838 297.193 54.6705 297.371 55.0972C297.551 55.524 297.643 55.9821 297.643 56.445C297.643 56.9079 297.551 57.3662 297.371 57.7929C297.193 58.2196 296.932 58.6063 296.602 58.9303C296.372 59.1354 296.187 59.3877 296.062 59.67C295.936 59.9524 295.872 60.2586 295.874 60.5678C295.874 60.8769 295.938 61.1825 296.063 61.4647C296.189 61.7469 296.373 61.9993 296.602 62.2053C296.932 62.5293 297.193 62.9161 297.371 63.3427C297.551 63.7695 297.643 64.2277 297.643 64.6906C297.643 65.1535 297.551 65.6118 297.371 66.0385C297.193 66.4651 296.932 66.8519 296.602 67.1759C296.372 67.381 296.187 67.6332 296.062 67.9155C295.936 68.198 295.872 68.5041 295.874 68.8134C295.871 69.1143 295.936 69.4118 296.062 69.6849C296.188 69.9579 296.372 70.1997 296.602 70.3928C297.238 71.0434 297.61 71.909 297.643 72.82Z" fill="url(#paint4_linear)"/>
<path d="M300.697 64.4351H299.459C299.452 64.1357 299.384 63.841 299.258 63.5693C299.133 63.2976 298.954 63.0547 298.73 62.8556C298.4 62.5375 298.137 62.1553 297.958 61.732C297.779 61.3088 297.687 60.8534 297.689 60.3936C297.692 59.9326 297.784 59.4766 297.962 59.052C298.142 58.6274 298.402 58.2426 298.73 57.9199C298.966 57.712 299.155 57.4543 299.28 57.1654C299.406 56.8763 299.467 56.563 299.459 56.2476C299.46 55.94 299.397 55.6356 299.271 55.3552C299.144 55.0747 298.961 54.8246 298.73 54.6217C298.401 54.2977 298.139 53.9109 297.961 53.4842C297.782 53.0576 297.689 52.5993 297.689 52.1364C297.689 51.6735 297.782 51.2153 297.961 50.7885C298.139 50.3619 298.401 49.9751 298.73 49.6511C298.947 49.457 299.124 49.2215 299.249 48.9582C299.373 48.6951 299.445 48.4095 299.459 48.1181C299.46 47.8089 299.397 47.5027 299.271 47.2203C299.146 46.938 298.961 46.6857 298.73 46.4806C298.401 46.1566 298.139 45.7699 297.961 45.3432C297.782 44.9165 297.689 44.4583 297.689 43.9953C297.689 43.5324 297.782 43.0743 297.961 42.6475C298.139 42.2208 298.401 41.8341 298.73 41.5101C298.959 41.304 299.143 41.0517 299.269 40.7695C299.394 40.4873 299.459 40.1817 299.459 39.8726C299.46 39.5633 299.397 39.2572 299.271 38.9748C299.146 38.6924 298.961 38.4402 298.73 38.2351C298.401 37.911 298.139 37.5243 297.961 37.0976C297.782 36.671 297.689 36.2127 297.689 35.7498C297.689 35.2902 297.781 34.8352 297.96 34.4121C298.138 33.9891 298.401 33.6066 298.73 33.2877C298.958 33.088 299.141 32.8416 299.267 32.5654C299.392 32.289 299.458 31.9889 299.459 31.6851H300.743C300.719 32.605 300.346 33.4811 299.702 34.1355C299.473 34.3393 299.289 34.5897 299.164 34.8699C299.038 35.1502 298.973 35.4541 298.973 35.7614C298.972 36.069 299.036 36.3733 299.162 36.6539C299.288 36.9343 299.472 37.1845 299.702 37.3873C300.032 37.7113 300.293 38.098 300.471 38.5247C300.65 38.9515 300.743 39.4096 300.743 39.8726C300.743 40.3355 300.65 40.7937 300.471 41.2204C300.293 41.6471 300.032 42.0338 299.702 42.3578C299.473 42.5639 299.289 42.8163 299.163 43.0984C299.038 43.3806 298.973 43.6863 298.973 43.9953C298.973 44.3045 299.038 44.61 299.163 44.8923C299.289 45.1745 299.473 45.4268 299.702 45.6328C300.032 45.9569 300.293 46.3436 300.471 46.7703C300.65 47.1971 300.743 47.6552 300.743 48.1181C300.743 48.581 300.65 49.0393 300.471 49.466C300.293 49.8927 300.032 50.2794 299.702 50.6034C299.472 50.8085 299.287 51.0607 299.162 51.3431C299.036 51.6255 298.971 51.9316 298.973 52.2409C298.973 52.5501 299.038 52.8556 299.163 53.1378C299.289 53.42 299.473 53.6724 299.702 53.8784C300.032 54.2024 300.293 54.5892 300.471 55.0158C300.65 55.4426 300.743 55.9008 300.743 56.3637C300.743 56.8266 300.65 57.2849 300.471 57.7116C300.293 58.1382 300.032 58.525 299.702 58.849C299.472 59.0541 299.287 59.3063 299.162 59.5888C299.036 59.8711 298.971 60.1772 298.973 60.4865C298.971 60.7874 299.036 61.0849 299.162 61.358C299.288 61.631 299.472 61.8728 299.702 62.0659C300.338 62.7165 300.709 63.5821 300.743 64.4931L300.697 64.4351Z" fill="url(#paint5_linear)"/>
<path d="M64.3656 79.7082C64.8398 79.5805 65.3256 79.476 65.8113 79.3715C65.8287 79.4596 65.8287 79.5504 65.8113 79.6386C65.8113 79.8388 65.7327 80.0308 65.5916 80.1723C65.4505 80.3139 65.2585 80.3934 65.0595 80.3934C64.8733 80.3914 64.6952 80.3202 64.5587 80.1937C64.4211 80.0671 64.3367 79.8942 64.3193 79.7082H64.3656Z" fill="url(#paint6_linear)"/>
<path d="M69.0215 79.6383C69.0215 79.4381 69.1013 79.2461 69.2412 79.1045C69.3823 78.963 69.5743 78.8834 69.7733 78.8834C69.971 78.8864 70.1584 78.9674 70.2972 79.1086C70.436 79.2498 70.5135 79.4402 70.5135 79.6383C70.5135 79.8365 70.436 80.0268 70.2972 80.168C70.1584 80.3093 69.971 80.3902 69.7733 80.3932C69.5743 80.3932 69.3823 80.3136 69.2412 80.1721C69.1013 80.0305 69.0215 79.8385 69.0215 79.6383Z" fill="url(#paint7_linear)"/>
<path d="M73.665 79.6383C73.665 79.4381 73.7437 79.2461 73.8848 79.1045C74.0259 78.963 74.2179 78.8834 74.4168 78.8834C74.6146 78.8864 74.802 78.9674 74.9407 79.1086C75.0795 79.2498 75.157 79.4402 75.157 79.6383C75.157 79.8365 75.0795 80.0268 74.9407 80.168C74.802 80.3093 74.6146 80.3902 74.4168 80.3932C74.2179 80.3932 74.0259 80.3136 73.8848 80.1721C73.7437 80.0305 73.665 79.8385 73.665 79.6383Z" fill="url(#paint8_linear)"/>
<path d="M78.3197 79.6386C78.3081 79.55 78.3081 79.4601 78.3197 79.3715C78.8055 79.476 79.2912 79.5805 79.7654 79.7082C79.7504 79.8951 79.666 80.0697 79.5295 80.1967C79.3919 80.3238 79.2114 80.394 79.0252 80.3934C78.8263 80.3934 78.6343 80.3139 78.4932 80.1723C78.3532 80.0308 78.2734 79.8388 78.2734 79.6386H78.3197Z" fill="url(#paint9_linear)"/>
<path d="M55.0537 84.3538C55.0567 84.1545 55.1369 83.9642 55.2772 83.8234C55.4176 83.6824 55.607 83.6019 55.8055 83.5989C56.0049 83.5989 56.1961 83.6784 56.3371 83.82C56.478 83.9616 56.5573 84.1535 56.5573 84.3538C56.5573 84.554 56.478 84.7459 56.3371 84.8875C56.1961 85.0291 56.0049 85.1086 55.8055 85.1086C55.607 85.1056 55.4176 85.0251 55.2772 84.8843C55.1369 84.7433 55.0567 84.553 55.0537 84.3538Z" fill="url(#paint10_linear)"/>
<path d="M59.7129 84.3538C59.7129 84.1555 59.7904 83.9653 59.9292 83.8241C60.068 83.6828 60.2553 83.6019 60.4531 83.5989C60.5514 83.5989 60.6497 83.6184 60.7411 83.6564C60.8325 83.6943 60.9146 83.7499 60.9851 83.82C61.0545 83.8901 61.11 83.9733 61.1482 84.0649C61.1852 84.1564 61.2049 84.2547 61.2049 84.3538C61.2049 84.554 61.1262 84.7459 60.9851 84.8875C60.844 85.0291 60.652 85.1086 60.4531 85.1086C60.2553 85.1056 60.068 85.0248 59.9292 84.8834C59.7904 84.7422 59.7129 84.552 59.7129 84.3538Z" fill="url(#paint11_linear)"/>
<path d="M64.3682 84.3538C64.3682 84.1555 64.4457 83.9653 64.5844 83.8241C64.7232 83.6828 64.9106 83.6019 65.1084 83.5989C65.2067 83.5989 65.305 83.6184 65.3964 83.6564C65.4877 83.6943 65.5699 83.7499 65.6404 83.82C65.7098 83.8901 65.7653 83.9733 65.8035 84.0649C65.8405 84.1564 65.8602 84.2547 65.8602 84.3538C65.8602 84.554 65.7815 84.7459 65.6404 84.8875C65.4993 85.0291 65.3073 85.1086 65.1084 85.1086C64.9106 85.1056 64.7232 85.0248 64.5844 84.8834C64.4457 84.7422 64.3682 84.552 64.3682 84.3538Z" fill="url(#paint12_linear)"/>
<path d="M69.0215 84.3538C69.0215 84.1535 69.1013 83.9616 69.2412 83.82C69.3823 83.6784 69.5743 83.5989 69.7733 83.5989C69.971 83.6019 70.1584 83.6828 70.2972 83.8241C70.436 83.9653 70.5135 84.1555 70.5135 84.3538C70.5135 84.552 70.436 84.7422 70.2972 84.8834C70.1584 85.0248 69.971 85.1056 69.7733 85.1086C69.5743 85.1086 69.3823 85.0291 69.2412 84.8875C69.1013 84.7459 69.0215 84.554 69.0215 84.3538Z" fill="url(#paint13_linear)"/>
<path d="M73.6641 84.3538C73.6641 84.2547 73.6837 84.1564 73.7207 84.0649C73.7589 83.9733 73.8144 83.8901 73.8838 83.82C73.9544 83.7499 74.0365 83.6943 74.1279 83.6564C74.2192 83.6184 74.3175 83.5989 74.4158 83.5989C74.6136 83.6019 74.801 83.6828 74.9398 83.8241C75.0786 83.9653 75.1561 84.1555 75.1561 84.3538C75.1561 84.552 75.0786 84.7422 74.9398 84.8834C74.801 85.0248 74.6136 85.1056 74.4158 85.1086C74.2169 85.1086 74.0249 85.0291 73.8838 84.8875C73.7427 84.7459 73.6641 84.554 73.6641 84.3538Z" fill="url(#paint14_linear)"/>
<path d="M78.3193 84.3538C78.3193 84.2547 78.339 84.1564 78.376 84.0649C78.4142 83.9733 78.4697 83.8901 78.5391 83.82C78.6096 83.7499 78.6918 83.6943 78.7831 83.6564C78.8745 83.6184 78.9728 83.5989 79.0711 83.5989C79.27 83.6019 79.4586 83.6824 79.5997 83.8234C79.7396 83.9642 79.8194 84.1545 79.8229 84.3538C79.8194 84.553 79.7396 84.7433 79.5997 84.8843C79.4586 85.0251 79.27 85.1056 79.0711 85.1086C78.8722 85.1086 78.6802 85.0291 78.5391 84.8875C78.398 84.7459 78.3193 84.554 78.3193 84.3538Z" fill="url(#paint15_linear)"/>
<path d="M82.9736 84.3538C82.9736 84.2547 82.9933 84.1564 83.0303 84.0649C83.0685 83.9733 83.124 83.8901 83.1934 83.82C83.2639 83.7499 83.3461 83.6943 83.4374 83.6564C83.5288 83.6184 83.6271 83.5989 83.7254 83.5989C83.8237 83.5989 83.922 83.6184 84.0134 83.6564C84.1048 83.6943 84.1869 83.7499 84.2574 83.82C84.3268 83.8901 84.3823 83.9733 84.4205 84.0649C84.4575 84.1564 84.4772 84.2547 84.4772 84.3538C84.4772 84.554 84.3985 84.7459 84.2574 84.8875C84.1163 85.0291 83.9243 85.1086 83.7254 85.1086C83.5265 85.1086 83.3345 85.0291 83.1934 84.8875C83.0523 84.7459 82.9736 84.554 82.9736 84.3538Z" fill="url(#paint16_linear)"/>
<path d="M87.6211 84.3538C87.6211 84.2547 87.6408 84.1564 87.6789 84.0649C87.7159 83.9733 87.7715 83.8901 87.8408 83.82C87.9114 83.7499 87.9935 83.6943 88.0849 83.6564C88.1763 83.6184 88.2746 83.5989 88.3729 83.5989C88.4712 83.5989 88.5695 83.6184 88.6609 83.6564C88.7522 83.6943 88.8343 83.7499 88.9049 83.82C88.9743 83.8901 89.0298 83.9733 89.068 84.0649C89.105 84.1564 89.1247 84.2547 89.1247 84.3538C89.1247 84.554 89.046 84.7459 88.9049 84.8875C88.7638 85.0291 88.5718 85.1086 88.3729 85.1086C88.1739 85.1086 87.9819 85.0291 87.8408 84.8875C87.7009 84.7459 87.6211 84.554 87.6211 84.3538Z" fill="url(#paint17_linear)"/>
<path d="M50.4014 88.9989C50.4044 88.8008 50.4849 88.6117 50.6255 88.4727C50.7663 88.3335 50.9557 88.2556 51.1531 88.2556C51.3505 88.2556 51.54 88.3335 51.6807 88.4727C51.8213 88.6117 51.9018 88.8008 51.9049 88.9989C51.9049 89.1991 51.8257 89.3911 51.6847 89.5326C51.5437 89.6742 51.3525 89.7538 51.1531 89.7538C50.9538 89.7538 50.7625 89.6742 50.6215 89.5326C50.4805 89.3911 50.4014 89.1991 50.4014 88.9989Z" fill="url(#paint18_linear)"/>
<path d="M55.0537 88.9989C55.0567 88.8008 55.1373 88.6117 55.278 88.4727C55.4186 88.3335 55.6081 88.2556 55.8055 88.2556C56.0029 88.2556 56.1924 88.3335 56.333 88.4727C56.4736 88.6117 56.5543 88.8008 56.5573 88.9989C56.5573 89.1991 56.478 89.3911 56.3371 89.5326C56.1961 89.6742 56.0049 89.7538 55.8055 89.7538C55.607 89.7507 55.4176 89.6703 55.2772 89.5294C55.1369 89.3884 55.0567 89.1982 55.0537 88.9989Z" fill="url(#paint19_linear)"/>
<path d="M59.7129 88.9989C59.7129 88.8018 59.7904 88.6127 59.9292 88.4734C60.0691 88.334 60.2565 88.2556 60.4531 88.2556C60.6509 88.2556 60.8406 88.3335 60.9805 88.4727C61.1216 88.6117 61.2014 88.8008 61.2049 88.9989C61.2049 89.1991 61.1262 89.3911 60.9851 89.5326C60.844 89.6742 60.652 89.7538 60.4531 89.7538C60.2553 89.7507 60.068 89.6699 59.9292 89.5287C59.7904 89.3874 59.7129 89.1971 59.7129 88.9989Z" fill="url(#paint20_linear)"/>
<path d="M64.3682 88.9989C64.3682 88.8018 64.4457 88.6127 64.5856 88.4734C64.7244 88.334 64.9118 88.2556 65.1084 88.2556C65.3062 88.2556 65.4958 88.3335 65.6358 88.4727C65.7769 88.6117 65.8567 88.8008 65.8602 88.9989C65.8602 89.1991 65.7815 89.3911 65.6404 89.5326C65.4993 89.6742 65.3073 89.7538 65.1084 89.7538C64.9106 89.7507 64.7232 89.6699 64.5844 89.5287C64.4457 89.3874 64.3682 89.1971 64.3682 88.9989Z" fill="url(#paint21_linear)"/>
<path d="M69.0215 88.9989C69.025 88.8008 69.1048 88.6117 69.2459 88.4727C69.387 88.3335 69.5755 88.2556 69.7733 88.2556C69.9699 88.2556 70.1584 88.334 70.2972 88.4734C70.436 88.6127 70.5135 88.8018 70.5135 88.9989C70.5135 89.1971 70.436 89.3874 70.2972 89.5287C70.1584 89.6699 69.971 89.7507 69.7733 89.7538C69.5743 89.7538 69.3823 89.6742 69.2412 89.5326C69.1013 89.3911 69.0215 89.1991 69.0215 88.9989Z" fill="url(#paint22_linear)"/>
<path d="M73.6641 88.9989C73.6675 88.8008 73.7473 88.6117 73.8884 88.4727C74.0284 88.3335 74.2181 88.2556 74.4158 88.2556C74.6125 88.2556 74.801 88.334 74.9398 88.4734C75.0786 88.6127 75.1561 88.8018 75.1561 88.9989C75.1561 89.1971 75.0786 89.3874 74.9398 89.5287C74.801 89.6699 74.6136 89.7507 74.4158 89.7538C74.2169 89.7538 74.0249 89.6742 73.8838 89.5326C73.7427 89.3911 73.6641 89.1991 73.6641 88.9989Z" fill="url(#paint23_linear)"/>
<path d="M78.3193 88.9989C78.3228 88.8008 78.4026 88.6117 78.5437 88.4727C78.6837 88.3335 78.8733 88.2556 79.0711 88.2556C79.2689 88.2556 79.4574 88.3335 79.5985 88.4727C79.7396 88.6117 79.8194 88.8008 79.8229 88.9989C79.8194 89.1982 79.7396 89.3884 79.5997 89.5294C79.4586 89.6703 79.27 89.7507 79.0711 89.7538C78.8722 89.7538 78.6802 89.6742 78.5391 89.5326C78.398 89.3911 78.3193 89.1991 78.3193 88.9989Z" fill="url(#paint24_linear)"/>
<path d="M82.9736 88.9989C82.9771 88.8008 83.0569 88.6117 83.198 88.4727C83.338 88.3335 83.5276 88.2556 83.7254 88.2556C83.9232 88.2556 84.1117 88.3335 84.2528 88.4727C84.3939 88.6117 84.4737 88.8008 84.4772 88.9989C84.4772 89.1991 84.3985 89.3911 84.2574 89.5326C84.1163 89.6742 83.9243 89.7538 83.7254 89.7538C83.5265 89.7538 83.3345 89.6742 83.1934 89.5326C83.0523 89.3911 82.9736 89.1991 82.9736 88.9989Z" fill="url(#paint25_linear)"/>
<path d="M87.6211 88.9989C87.6246 88.8008 87.7044 88.6117 87.8455 88.4727C87.9866 88.3335 88.1751 88.2556 88.3729 88.2556C88.5706 88.2556 88.7603 88.3335 88.9003 88.4727C89.0414 88.6117 89.1212 88.8008 89.1247 88.9989C89.1247 89.1991 89.046 89.3911 88.9049 89.5326C88.7638 89.6742 88.5718 89.7538 88.3729 89.7538C88.1739 89.7538 87.9819 89.6742 87.8408 89.5326C87.7009 89.3911 87.6211 89.1991 87.6211 88.9989Z" fill="url(#paint26_linear)"/>
<path d="M92.2734 88.9989C92.2769 88.8008 92.3567 88.6117 92.4978 88.4727C92.6389 88.3335 92.8274 88.2556 93.0252 88.2556C93.223 88.2556 93.4127 88.3335 93.5526 88.4727C93.6937 88.6117 93.7735 88.8008 93.777 88.9989C93.777 89.1991 93.6983 89.3911 93.5572 89.5326C93.4161 89.6742 93.2241 89.7538 93.0252 89.7538C92.8263 89.7538 92.6343 89.6742 92.4932 89.5326C92.3532 89.3911 92.2734 89.1991 92.2734 88.9989Z" fill="url(#paint27_linear)"/>
<path d="M45.7568 93.6449C45.7598 93.4467 45.8403 93.2577 45.981 93.1187C46.1216 92.9795 46.3112 92.9016 46.5086 92.9016C46.7059 92.9016 46.8955 92.9795 47.0361 93.1187C47.1768 93.2577 47.2573 93.4467 47.2604 93.6449C47.2604 93.8451 47.1812 94.0371 47.0402 94.1786C46.8992 94.3202 46.708 94.3998 46.5086 94.3998C46.3092 94.3998 46.1179 94.3202 45.9771 94.1786C45.8361 94.0371 45.7568 93.8451 45.7568 93.6449Z" fill="url(#paint28_linear)"/>
<path d="M50.4014 93.6449C50.4044 93.4467 50.4849 93.2577 50.6255 93.1187C50.7663 92.9795 50.9557 92.9016 51.1531 92.9016C51.3505 92.9016 51.54 92.9795 51.6807 93.1187C51.8213 93.2577 51.9018 93.4467 51.9049 93.6449C51.9049 93.8451 51.8257 94.0371 51.6847 94.1786C51.5437 94.3202 51.3525 94.3998 51.1531 94.3998C50.9538 94.3998 50.7625 94.3202 50.6215 94.1786C50.4805 94.0371 50.4014 93.8451 50.4014 93.6449Z" fill="url(#paint29_linear)"/>
<path d="M55.0537 93.6449C55.0567 93.4467 55.1373 93.2577 55.278 93.1187C55.4186 92.9795 55.6081 92.9016 55.8055 92.9016C56.0029 92.9016 56.1924 92.9795 56.333 93.1187C56.4736 93.2577 56.5543 93.4467 56.5573 93.6449C56.5573 93.8451 56.478 94.0371 56.3371 94.1786C56.1961 94.3202 56.0049 94.3998 55.8055 94.3998C55.607 94.3967 55.4176 94.3163 55.2772 94.1754C55.1369 94.0344 55.0567 93.8442 55.0537 93.6449Z" fill="url(#paint30_linear)"/>
<path d="M59.7129 93.6449C59.7129 93.4478 59.7904 93.2587 59.9292 93.1194C60.0691 92.98 60.2565 92.9016 60.4531 92.9016C60.6509 92.9016 60.8406 92.9795 60.9805 93.1187C61.1216 93.2577 61.2014 93.4467 61.2049 93.6449C61.2049 93.8451 61.1262 94.0371 60.9851 94.1786C60.844 94.3202 60.652 94.3998 60.4531 94.3998C60.2553 94.3967 60.068 94.3159 59.9292 94.1747C59.7904 94.0333 59.7129 93.8431 59.7129 93.6449Z" fill="url(#paint31_linear)"/>
<path d="M64.3682 93.6449C64.3682 93.4478 64.4457 93.2587 64.5856 93.1194C64.7244 92.98 64.9118 92.9016 65.1084 92.9016C65.3062 92.9016 65.4958 92.9795 65.6358 93.1187C65.7769 93.2577 65.8567 93.4467 65.8602 93.6449C65.8602 93.8451 65.7815 94.0371 65.6404 94.1786C65.4993 94.3202 65.3073 94.3998 65.1084 94.3998C64.9106 94.3967 64.7232 94.3159 64.5844 94.1747C64.4457 94.0333 64.3682 93.8431 64.3682 93.6449Z" fill="url(#paint32_linear)"/>
<path d="M69.0215 93.6449C69.025 93.4467 69.1048 93.2577 69.2459 93.1187C69.387 92.9795 69.5755 92.9016 69.7733 92.9016C69.9699 92.9016 70.1584 92.98 70.2972 93.1194C70.436 93.2587 70.5135 93.4478 70.5135 93.6449C70.5135 93.8431 70.436 94.0333 70.2972 94.1747C70.1584 94.3159 69.971 94.3967 69.7733 94.3998C69.5743 94.3998 69.3823 94.3202 69.2412 94.1786C69.1013 94.0371 69.0215 93.8451 69.0215 93.6449Z" fill="url(#paint33_linear)"/>
<path d="M73.6641 93.6449C73.6675 93.4467 73.7473 93.2577 73.8884 93.1187C74.0284 92.9795 74.2181 92.9016 74.4158 92.9016C74.6125 92.9016 74.801 92.98 74.9398 93.1194C75.0786 93.2587 75.1561 93.4478 75.1561 93.6449C75.1561 93.8431 75.0786 94.0333 74.9398 94.1747C74.801 94.3159 74.6136 94.3967 74.4158 94.3998C74.2169 94.3998 74.0249 94.3202 73.8838 94.1786C73.7427 94.0371 73.6641 93.8451 73.6641 93.6449Z" fill="url(#paint34_linear)"/>
<path d="M78.3193 93.6449C78.3228 93.4467 78.4026 93.2577 78.5437 93.1187C78.6837 92.9795 78.8733 92.9016 79.0711 92.9016C79.2689 92.9016 79.4574 92.9795 79.5985 93.1187C79.7396 93.2577 79.8194 93.4467 79.8229 93.6449C79.8194 93.8442 79.7396 94.0344 79.5997 94.1754C79.4586 94.3163 79.27 94.3967 79.0711 94.3998C78.8722 94.3998 78.6802 94.3202 78.5391 94.1786C78.398 94.0371 78.3193 93.8451 78.3193 93.6449Z" fill="url(#paint35_linear)"/>
<path d="M82.9736 93.6449C82.9771 93.4467 83.0569 93.2577 83.198 93.1187C83.338 92.9795 83.5276 92.9016 83.7254 92.9016C83.9232 92.9016 84.1117 92.9795 84.2528 93.1187C84.3939 93.2577 84.4737 93.4467 84.4772 93.6449C84.4772 93.8451 84.3985 94.0371 84.2574 94.1786C84.1163 94.3202 83.9243 94.3998 83.7254 94.3998C83.5265 94.3998 83.3345 94.3202 83.1934 94.1786C83.0523 94.0371 82.9736 93.8451 82.9736 93.6449Z" fill="url(#paint36_linear)"/>
<path d="M87.6211 93.6449C87.6246 93.4467 87.7044 93.2577 87.8455 93.1187C87.9866 92.9795 88.1751 92.9016 88.3729 92.9016C88.5706 92.9016 88.7603 92.9795 88.9003 93.1187C89.0414 93.2577 89.1212 93.4467 89.1247 93.6449C89.1247 93.8451 89.046 94.0371 88.9049 94.1786C88.7638 94.3202 88.5718 94.3998 88.3729 94.3998C88.1739 94.3998 87.9819 94.3202 87.8408 94.1786C87.7009 94.0371 87.6211 93.8451 87.6211 93.6449Z" fill="url(#paint37_linear)"/>
<path d="M92.2734 93.6449C92.2769 93.4467 92.3567 93.2577 92.4978 93.1187C92.6389 92.9795 92.8274 92.9016 93.0252 92.9016C93.223 92.9016 93.4127 92.9795 93.5526 93.1187C93.6937 93.2577 93.7735 93.4467 93.777 93.6449C93.777 93.8451 93.6983 94.0371 93.5572 94.1786C93.4161 94.3202 93.2241 94.3998 93.0252 94.3998C92.8263 94.3998 92.6343 94.3202 92.4932 94.1786C92.3532 94.0371 92.2734 93.8451 92.2734 93.6449Z" fill="url(#paint38_linear)"/>
<path d="M96.918 93.6449C96.9214 93.4467 97.0012 93.2577 97.1423 93.1187C97.2823 92.9795 97.472 92.9016 97.6698 92.9016C97.8675 92.9016 98.056 92.9795 98.1972 93.1187C98.3383 93.2577 98.4181 93.4467 98.4215 93.6449C98.4215 93.8451 98.3417 94.0371 98.2018 94.1786C98.0607 94.3202 97.8687 94.3998 97.6698 94.3998C97.4708 94.3998 97.2788 94.3202 97.1377 94.1786C96.9966 94.0371 96.918 93.8451 96.918 93.6449Z" fill="url(#paint39_linear)"/>
<path d="M45.7568 98.2891C45.7568 98.0888 45.8361 97.8969 45.9771 97.7553C46.1179 97.6137 46.3092 97.5342 46.5086 97.5342C46.708 97.5342 46.8992 97.6137 47.0402 97.7553C47.1812 97.8969 47.2604 98.0888 47.2604 98.2891C47.2573 98.4873 47.1768 98.6762 47.0361 98.8154C46.8955 98.9544 46.7059 99.0323 46.5086 99.0323C46.3112 99.0323 46.1216 98.9544 45.981 98.8154C45.8403 98.6762 45.7598 98.4873 45.7568 98.2891Z" fill="url(#paint40_linear)"/>
<path d="M50.4014 98.2891C50.4014 98.0888 50.4805 97.8969 50.6215 97.7553C50.7625 97.6137 50.9538 97.5342 51.1531 97.5342C51.3525 97.5342 51.5437 97.6137 51.6847 97.7553C51.8257 97.8969 51.9049 98.0888 51.9049 98.2891C51.9018 98.4873 51.8213 98.6762 51.6807 98.8154C51.54 98.9544 51.3505 99.0323 51.1531 99.0323C50.9557 99.0323 50.7663 98.9544 50.6255 98.8154C50.4849 98.6762 50.4044 98.4873 50.4014 98.2891Z" fill="url(#paint41_linear)"/>
<path d="M55.0537 98.2891C55.0567 98.0898 55.1369 97.8995 55.2772 97.7587C55.4176 97.6177 55.607 97.5372 55.8055 97.5342C56.0049 97.5342 56.1961 97.6137 56.3371 97.7553C56.478 97.8969 56.5573 98.0888 56.5573 98.2891C56.5543 98.4873 56.4736 98.6762 56.333 98.8154C56.1924 98.9544 56.0029 99.0323 55.8055 99.0323C55.6081 99.0323 55.4186 98.9544 55.278 98.8154C55.1373 98.6762 55.0567 98.4873 55.0537 98.2891Z" fill="url(#paint42_linear)"/>
<path d="M59.7129 98.2891C59.7129 98.0908 59.7904 97.9006 59.9292 97.7594C60.068 97.6181 60.2553 97.5372 60.4531 97.5342C60.652 97.5342 60.844 97.6137 60.9851 97.7553C61.1262 97.8969 61.2049 98.0888 61.2049 98.2891C61.2014 98.4873 61.1216 98.6762 60.9805 98.8154C60.8406 98.9544 60.6509 99.0323 60.4531 99.0323C60.2565 99.0323 60.0691 98.954 59.9292 98.8147C59.7904 98.6752 59.7129 98.4862 59.7129 98.2891Z" fill="url(#paint43_linear)"/>
<path d="M82.9736 98.2891C82.9736 98.0888 83.0523 97.8969 83.1934 97.7553C83.3345 97.6137 83.5265 97.5342 83.7254 97.5342C83.9243 97.5342 84.1163 97.6137 84.2574 97.7553C84.3985 97.8969 84.4772 98.0888 84.4772 98.2891C84.4737 98.4873 84.3939 98.6762 84.2528 98.8154C84.1117 98.9544 83.9232 99.0323 83.7254 99.0323C83.5276 99.0323 83.338 98.9544 83.198 98.8154C83.0569 98.6762 82.9771 98.4873 82.9736 98.2891Z" fill="url(#paint44_linear)"/>
<path d="M87.6211 98.2891C87.6211 98.0888 87.7009 97.8969 87.8408 97.7553C87.9819 97.6137 88.1739 97.5342 88.3729 97.5342C88.5718 97.5342 88.7638 97.6137 88.9049 97.7553C89.046 97.8969 89.1247 98.0888 89.1247 98.2891C89.1212 98.4873 89.0414 98.6762 88.9003 98.8154C88.7603 98.9544 88.5706 99.0323 88.3729 99.0323C88.1751 99.0323 87.9866 98.9544 87.8455 98.8154C87.7044 98.6762 87.6246 98.4873 87.6211 98.2891Z" fill="url(#paint45_linear)"/>
<path d="M92.2734 98.2891C92.2734 98.0888 92.3532 97.8969 92.4932 97.7553C92.6343 97.6137 92.8263 97.5342 93.0252 97.5342C93.2241 97.5342 93.4161 97.6137 93.5572 97.7553C93.6983 97.8969 93.777 98.0888 93.777 98.2891C93.7735 98.4873 93.6937 98.6762 93.5526 98.8154C93.4127 98.9544 93.223 99.0323 93.0252 99.0323C92.8274 99.0323 92.6389 98.9544 92.4978 98.8154C92.3567 98.6762 92.2769 98.4873 92.2734 98.2891Z" fill="url(#paint46_linear)"/>
<path d="M96.918 98.2891C96.918 98.0888 96.9966 97.8969 97.1377 97.7553C97.2788 97.6137 97.4708 97.5342 97.6698 97.5342C97.8687 97.5342 98.0607 97.6137 98.2018 97.7553C98.3417 97.8969 98.4215 98.0888 98.4215 98.2891C98.4181 98.4873 98.3383 98.6762 98.1972 98.8154C98.056 98.9544 97.8675 99.0323 97.6698 99.0323C97.472 99.0323 97.2823 98.9544 97.1423 98.8154C97.0012 98.6762 96.9214 98.4873 96.918 98.2891Z" fill="url(#paint47_linear)"/>
<path d="M41.9643 102.238C42.1535 102.253 42.3303 102.339 42.4589 102.479C42.5876 102.619 42.6588 102.802 42.6583 102.993C42.6553 103.191 42.5748 103.38 42.4341 103.519C42.2934 103.658 42.1039 103.736 41.9065 103.736C41.8148 103.753 41.7207 103.753 41.6289 103.736C41.733 103.248 41.8487 102.761 41.9643 102.284V102.238Z" fill="url(#paint48_linear)"/>
<path d="M45.7568 102.993C45.7568 102.894 45.7763 102.796 45.8141 102.704C45.8518 102.612 45.9072 102.529 45.9771 102.459C46.0468 102.389 46.1297 102.333 46.2209 102.296C46.3121 102.258 46.4098 102.238 46.5086 102.238C46.6073 102.238 46.705 102.258 46.7963 102.296C46.8875 102.333 46.9703 102.389 47.0402 102.459C47.1099 102.529 47.1653 102.612 47.2031 102.704C47.2408 102.796 47.2604 102.894 47.2604 102.993C47.2573 103.191 47.1768 103.38 47.0361 103.519C46.8955 103.658 46.7059 103.736 46.5086 103.736C46.3112 103.736 46.1216 103.658 45.981 103.519C45.8403 103.38 45.7598 103.191 45.7568 102.993Z" fill="url(#paint49_linear)"/>
<path d="M50.4014 102.993C50.4014 102.894 50.4208 102.796 50.4585 102.704C50.4963 102.612 50.5517 102.529 50.6215 102.459C50.6913 102.389 50.7742 102.333 50.8654 102.296C50.9566 102.258 51.0544 102.238 51.1531 102.238C51.2518 102.238 51.3496 102.258 51.4408 102.296C51.532 102.333 51.6148 102.389 51.6847 102.459C51.7544 102.529 51.8098 102.612 51.8477 102.704C51.8855 102.796 51.9049 102.894 51.9049 102.993C51.9018 103.191 51.8213 103.38 51.6807 103.519C51.54 103.658 51.3505 103.736 51.1531 103.736C50.9557 103.736 50.7663 103.658 50.6255 103.519C50.4849 103.38 50.4044 103.191 50.4014 102.993Z" fill="url(#paint50_linear)"/>
<path d="M55.0537 102.993C55.0567 102.794 55.1369 102.603 55.2772 102.462C55.4176 102.322 55.607 102.241 55.8055 102.238C56.0049 102.238 56.1961 102.318 56.3371 102.459C56.478 102.601 56.5573 102.793 56.5573 102.993C56.5543 103.191 56.4736 103.38 56.333 103.519C56.1924 103.658 56.0029 103.736 55.8055 103.736C55.6081 103.736 55.4186 103.658 55.278 103.519C55.1373 103.38 55.0567 103.191 55.0537 102.993Z" fill="url(#paint51_linear)"/>
<path d="M87.6211 102.993C87.6211 102.894 87.6408 102.796 87.6789 102.704C87.7159 102.612 87.7715 102.529 87.8408 102.459C87.9114 102.389 87.9935 102.333 88.0849 102.296C88.1763 102.258 88.2746 102.238 88.3729 102.238C88.4712 102.238 88.5695 102.258 88.6609 102.296C88.7522 102.333 88.8343 102.389 88.9049 102.459C88.9743 102.529 89.0298 102.612 89.068 102.704C89.105 102.796 89.1247 102.894 89.1247 102.993C89.1212 103.191 89.0414 103.38 88.9003 103.519C88.7603 103.658 88.5706 103.736 88.3729 103.736C88.1751 103.736 87.9866 103.658 87.8455 103.519C87.7044 103.38 87.6246 103.191 87.6211 102.993Z" fill="url(#paint52_linear)"/>
<path d="M92.2734 102.993C92.2734 102.894 92.2931 102.796 92.3313 102.704C92.3683 102.612 92.4238 102.529 92.4932 102.459C92.5637 102.389 92.6459 102.333 92.7372 102.296C92.8286 102.258 92.9269 102.238 93.0252 102.238C93.1235 102.238 93.2218 102.258 93.3132 102.296C93.4046 102.333 93.4867 102.389 93.5572 102.459C93.6266 102.529 93.6821 102.612 93.7203 102.704C93.7573 102.796 93.777 102.894 93.777 102.993C93.7735 103.191 93.6937 103.38 93.5526 103.519C93.4127 103.658 93.223 103.736 93.0252 103.736C92.8274 103.736 92.6389 103.658 92.4978 103.519C92.3567 103.38 92.2769 103.191 92.2734 102.993Z" fill="url(#paint53_linear)"/>
<path d="M96.918 102.993C96.918 102.894 96.9376 102.796 96.9747 102.704C97.0128 102.612 97.0683 102.529 97.1377 102.459C97.2083 102.389 97.2904 102.333 97.3818 102.296C97.4731 102.258 97.5714 102.238 97.6698 102.238C97.7681 102.238 97.8664 102.258 97.9577 102.296C98.0491 102.333 98.1312 102.389 98.2018 102.459C98.2712 102.529 98.3267 102.612 98.3637 102.704C98.4019 102.796 98.4215 102.894 98.4215 102.993C98.4181 103.191 98.3383 103.38 98.1972 103.519C98.056 103.658 97.8675 103.736 97.6698 103.736C97.472 103.736 97.2823 103.658 97.1423 103.519C97.0012 103.38 96.9214 103.191 96.918 102.993Z" fill="url(#paint54_linear)"/>
<path d="M101.572 102.993C101.571 102.804 101.641 102.622 101.768 102.482C101.894 102.343 102.067 102.255 102.255 102.238C102.382 102.726 102.486 103.202 102.59 103.69C102.502 103.707 102.412 103.707 102.324 103.69C102.126 103.69 101.937 103.612 101.797 103.473C101.656 103.334 101.576 103.145 101.572 102.946V102.993Z" fill="url(#paint55_linear)"/>
<path d="M41.1016 107.661C41.1016 107.461 41.1807 107.269 41.3217 107.127C41.4626 106.986 41.6539 106.906 41.8532 106.906C42.0526 106.906 42.2439 106.986 42.3849 107.127C42.5259 107.269 42.605 107.461 42.605 107.661C42.6021 107.861 42.5218 108.051 42.3815 108.192C42.2413 108.333 42.0517 108.413 41.8532 108.416C41.6549 108.413 41.4653 108.333 41.325 108.192C41.1846 108.051 41.1045 107.861 41.1016 107.661Z" fill="url(#paint56_linear)"/>
<path d="M45.7568 107.661C45.7568 107.461 45.8361 107.269 45.9771 107.127C46.1179 106.986 46.3092 106.906 46.5086 106.906C46.708 106.906 46.8992 106.986 47.0402 107.127C47.1812 107.269 47.2604 107.461 47.2604 107.661C47.2574 107.861 47.1772 108.051 47.0368 108.192C46.8965 108.333 46.7071 108.413 46.5086 108.416C46.3101 108.413 46.1206 108.333 45.9803 108.192C45.8399 108.051 45.7597 107.861 45.7568 107.661Z" fill="url(#paint57_linear)"/>
<path d="M50.4014 107.661C50.4014 107.461 50.4805 107.269 50.6215 107.127C50.7625 106.986 50.9538 106.906 51.1531 106.906C51.3525 106.906 51.5437 106.986 51.6847 107.127C51.8257 107.269 51.9049 107.461 51.9049 107.661C51.9019 107.861 51.8218 108.051 51.6814 108.192C51.5411 108.333 51.3516 108.413 51.1531 108.416C50.9547 108.413 50.7652 108.333 50.6248 108.192C50.4845 108.051 50.4044 107.861 50.4014 107.661Z" fill="url(#paint58_linear)"/>
<path d="M55.0537 107.661C55.0567 107.462 55.1369 107.272 55.2772 107.131C55.4176 106.99 55.607 106.909 55.8055 106.906C56.0049 106.906 56.1961 106.986 56.3371 107.127C56.478 107.269 56.5573 107.461 56.5573 107.661C56.5543 107.861 56.4741 108.051 56.3338 108.192C56.1934 108.333 56.004 108.413 55.8055 108.416C55.607 108.413 55.4176 108.333 55.2772 108.192C55.1369 108.051 55.0567 107.861 55.0537 107.661Z" fill="url(#paint59_linear)"/>
<path d="M87.6211 107.661C87.6211 107.461 87.7009 107.269 87.8408 107.127C87.9819 106.986 88.1739 106.906 88.3729 106.906C88.5718 106.906 88.7638 106.986 88.9049 107.127C89.046 107.269 89.1247 107.461 89.1247 107.661C89.1212 107.861 89.0414 108.051 88.9014 108.192C88.7603 108.333 88.5718 108.413 88.3729 108.416C88.1739 108.413 87.9854 108.333 87.8443 108.192C87.7044 108.051 87.6246 107.861 87.6211 107.661Z" fill="url(#paint60_linear)"/>
<path d="M92.2734 107.661C92.2734 107.461 92.3532 107.269 92.4932 107.127C92.6343 106.986 92.8263 106.906 93.0252 106.906C93.2241 106.906 93.4161 106.986 93.5572 107.127C93.6983 107.269 93.777 107.461 93.777 107.661C93.7735 107.861 93.6937 108.051 93.5538 108.192C93.4127 108.333 93.2241 108.413 93.0252 108.416C92.8263 108.413 92.6378 108.333 92.4966 108.192C92.3567 108.051 92.2769 107.861 92.2734 107.661Z" fill="url(#paint61_linear)"/>
<path d="M96.918 107.661C96.918 107.461 96.9966 107.269 97.1377 107.127C97.2788 106.986 97.4708 106.906 97.6698 106.906C97.8687 106.906 98.0607 106.986 98.2018 107.127C98.3417 107.269 98.4215 107.461 98.4215 107.661C98.4181 107.861 98.3383 108.051 98.1983 108.192C98.0572 108.333 97.8687 108.413 97.6698 108.416C97.4708 108.413 97.2823 108.333 97.1412 108.192C97.0013 108.051 96.9214 107.861 96.918 107.661Z" fill="url(#paint62_linear)"/>
<path d="M101.572 107.661C101.572 107.461 101.651 107.269 101.792 107.127C101.933 106.986 102.125 106.906 102.324 106.906C102.523 106.906 102.715 106.986 102.856 107.127C102.996 107.269 103.076 107.461 103.076 107.661C103.072 107.861 102.993 108.051 102.853 108.192C102.712 108.333 102.523 108.413 102.324 108.416C102.125 108.413 101.937 108.333 101.795 108.192C101.656 108.051 101.576 107.861 101.572 107.661Z" fill="url(#paint63_linear)"/>
<path fill-rule="evenodd" clip-rule="evenodd" d="M55.8551 24.3568C55.8551 24.6163 55.7784 24.8701 55.6349 25.0859C55.4912 25.3016 55.2871 25.4699 55.0483 25.5692C54.8094 25.6685 54.5467 25.6945 54.2931 25.6439C54.0396 25.5932 53.8068 25.4683 53.624 25.2847C53.4412 25.1012 53.3167 24.8674 53.2663 24.6128C53.2159 24.3583 53.2418 24.0943 53.3407 23.8546C53.4396 23.6148 53.6072 23.4098 53.8221 23.2656C54.0369 23.1214 54.2897 23.0444 54.5482 23.0444C54.8948 23.0444 55.2272 23.1828 55.4723 23.4288C55.7173 23.6749 55.8551 24.0087 55.8551 24.3568Z" fill="url(#paint64_linear)"/>
<path fill-rule="evenodd" clip-rule="evenodd" d="M55.855 32.4863C55.8573 32.7463 55.7826 33.0012 55.6405 33.2185C55.4982 33.4358 55.295 33.6058 55.0564 33.7069C54.8178 33.8081 54.5546 33.8357 54.3003 33.7864C54.046 33.737 53.8121 33.613 53.6281 33.43C53.4442 33.2469 53.3186 33.013 53.2672 32.7582C53.2158 32.5033 53.241 32.2389 53.3396 31.9984C53.4382 31.758 53.6057 31.5523 53.8208 31.4076C54.0361 31.2629 54.2891 31.1855 54.5481 31.1855C54.8927 31.1855 55.2234 31.3222 55.4683 31.5658C55.713 31.8094 55.852 32.1403 55.855 32.4863Z" fill="url(#paint65_linear)"/>
<path fill-rule="evenodd" clip-rule="evenodd" d="M63.9215 16.2974C63.9215 16.557 63.8448 16.8107 63.7012 17.0265C63.5576 17.2423 63.3535 17.4105 63.1147 17.5099C62.8758 17.6092 62.6131 17.6352 62.3595 17.5845C62.106 17.5339 61.8732 17.4089 61.6903 17.2254C61.5076 17.0419 61.3832 16.808 61.3327 16.5534C61.2823 16.2989 61.3082 16.035 61.4071 15.7952C61.506 15.5554 61.6735 15.3505 61.8885 15.2063C62.1034 15.0621 62.3561 14.9851 62.6146 14.9851C62.9612 14.9851 63.2936 15.1234 63.5387 15.3695C63.7838 15.6156 63.9215 15.9494 63.9215 16.2974Z" fill="url(#paint66_linear)"/>
<path fill-rule="evenodd" clip-rule="evenodd" d="M63.9215 24.3568C63.9215 24.6163 63.8448 24.8701 63.7012 25.0859C63.5576 25.3016 63.3535 25.4699 63.1147 25.5692C62.8758 25.6685 62.6131 25.6945 62.3595 25.6439C62.106 25.5932 61.8732 25.4683 61.6903 25.2847C61.5076 25.1012 61.3832 24.8674 61.3327 24.6128C61.2823 24.3583 61.3082 24.0943 61.4071 23.8546C61.506 23.6148 61.6735 23.4098 61.8885 23.2656C62.1034 23.1214 62.3561 23.0444 62.6146 23.0444C62.9612 23.0444 63.2936 23.1828 63.5387 23.4288C63.7838 23.6749 63.9215 24.0087 63.9215 24.3568Z" fill="url(#paint67_linear)"/>
<path fill-rule="evenodd" clip-rule="evenodd" d="M63.9214 32.4863C63.9237 32.7463 63.849 33.0012 63.7069 33.2185C63.5646 33.4358 63.3613 33.6058 63.1227 33.7069C62.8841 33.8081 62.621 33.8357 62.3667 33.7864C62.1124 33.737 61.8784 33.613 61.6945 33.43C61.5106 33.2469 61.385 33.013 61.3336 32.7582C61.2822 32.5033 61.3074 32.2389 61.406 31.9984C61.5046 31.758 61.6721 31.5523 61.8872 31.4076C62.1025 31.2629 62.3555 31.1855 62.6145 31.1855C62.9591 31.1855 63.2898 31.3222 63.5347 31.5658C63.7794 31.8094 63.9184 32.1403 63.9214 32.4863Z" fill="url(#paint68_linear)"/>
<path fill-rule="evenodd" clip-rule="evenodd" d="M63.9216 40.6157C63.9387 40.7977 63.9178 40.9812 63.86 41.1545C63.8025 41.3279 63.7095 41.4872 63.587 41.6224C63.4645 41.7575 63.3152 41.8655 63.1487 41.9393C62.9823 42.0132 62.8024 42.0514 62.6204 42.0514C62.4384 42.0514 62.2584 42.0132 62.092 41.9393C61.9255 41.8655 61.7762 41.7575 61.6538 41.6224C61.5313 41.4872 61.4383 41.3279 61.3807 41.1545C61.3231 40.9812 61.3022 40.7977 61.3193 40.6157C61.3498 40.2906 61.5 39.9884 61.7407 39.7685C61.9814 39.5486 62.2951 39.4268 62.6204 39.4268C62.9458 39.4268 63.2594 39.5486 63.5 39.7685C63.7407 39.9884 63.8909 40.2906 63.9216 40.6157Z" fill="url(#paint69_linear)"/>
<path fill-rule="evenodd" clip-rule="evenodd" d="M71.985 16.2975C71.9849 16.5575 71.908 16.8117 71.7639 17.0278C71.6198 17.2438 71.4149 17.412 71.1754 17.511C70.936 17.61 70.6726 17.6353 70.4188 17.5837C70.1649 17.5321 69.9321 17.4059 69.7498 17.2213C69.5675 17.0366 69.4439 16.8016 69.3948 16.5463C69.3457 16.291 69.3732 16.0268 69.474 15.7872C69.5746 15.5476 69.7439 15.3435 69.9604 15.2007C70.1768 15.0579 70.4306 14.9829 70.6896 14.9852C70.8607 14.9852 71.03 15.0192 71.188 15.0853C71.3459 15.1514 71.4892 15.2482 71.6097 15.3702C71.7301 15.4922 71.8253 15.637 71.8897 15.7962C71.9541 15.9553 71.9865 16.1257 71.985 16.2975Z" fill="url(#paint70_linear)"/>
<path fill-rule="evenodd" clip-rule="evenodd" d="M71.986 24.3568C71.9859 24.6168 71.909 24.8711 71.7648 25.0871C71.6207 25.3031 71.4159 25.4714 71.1764 25.5703C70.937 25.6692 70.6736 25.6946 70.4197 25.643C70.1659 25.5914 69.933 25.4652 69.7508 25.2805C69.5685 25.0959 69.4449 24.861 69.3958 24.6056C69.3467 24.3503 69.3742 24.0861 69.4749 23.8465C69.5756 23.6069 69.7449 23.4028 69.9614 23.2599C70.1778 23.1172 70.4315 23.0422 70.6906 23.0445C70.8617 23.0445 71.031 23.0785 71.189 23.1446C71.3469 23.2107 71.4902 23.3075 71.6107 23.4296C71.7311 23.5515 71.8263 23.6964 71.8907 23.8555C71.9551 24.0146 71.9875 24.185 71.986 24.3568Z" fill="url(#paint71_linear)"/>
<path fill-rule="evenodd" clip-rule="evenodd" d="M71.9859 32.4863C71.9882 32.7468 71.9131 33.0022 71.7704 33.2197C71.6277 33.4373 71.4238 33.6074 71.1845 33.708C70.9452 33.8088 70.6815 33.8358 70.4268 33.7855C70.1722 33.7352 69.9384 33.61 69.7548 33.4258C69.5714 33.2415 69.4467 33.0067 69.3966 32.7511C69.3466 32.4954 69.3734 32.2306 69.4738 31.9903C69.5742 31.75 69.7434 31.5453 69.9601 31.402C70.1768 31.2586 70.4311 31.1833 70.6905 31.1856C71.0341 31.1856 71.3635 31.3226 71.6065 31.5665C71.8494 31.8105 71.9859 32.1414 71.9859 32.4863Z" fill="url(#paint72_linear)"/>
<path fill-rule="evenodd" clip-rule="evenodd" d="M71.9859 40.6162C71.9882 40.8767 71.9131 41.1321 71.7704 41.3496C71.6277 41.5672 71.4238 41.7372 71.1845 41.8379C70.9452 41.9387 70.6815 41.9657 70.4268 41.9154C70.1722 41.8651 69.9384 41.7399 69.7548 41.5557C69.5714 41.3714 69.4467 41.1366 69.3966 40.881C69.3466 40.6252 69.3734 40.3605 69.4738 40.1202C69.5742 39.8799 69.7434 39.6751 69.9601 39.5318C70.1768 39.3885 70.4311 39.3132 70.6905 39.3155C71.0331 39.3185 71.3609 39.4565 71.6032 39.6998C71.8455 39.9431 71.9829 40.2722 71.9859 40.6162Z" fill="url(#paint73_linear)"/>
<path fill-rule="evenodd" clip-rule="evenodd" d="M80.0446 24.3573C80.0141 24.6826 79.8637 24.9846 79.6232 25.2045C79.3825 25.4245 79.0688 25.5463 78.7435 25.5463C78.4181 25.5463 78.1045 25.4245 77.8639 25.2045C77.6232 24.9846 77.473 24.6826 77.4423 24.3573C77.4252 24.1753 77.4461 23.9918 77.5037 23.8185C77.5614 23.6452 77.6544 23.4858 77.7769 23.3506C77.8994 23.2156 78.0486 23.1076 78.2151 23.0337C78.3816 22.9598 78.5615 22.9216 78.7435 22.9216C78.9255 22.9216 79.1055 22.9598 79.2719 23.0337C79.4383 23.1076 79.5877 23.2156 79.7101 23.3506C79.8326 23.4858 79.9256 23.6452 79.9832 23.8185C80.0408 23.9918 80.0617 24.1753 80.0446 24.3573Z" fill="url(#paint74_linear)"/>
<path fill-rule="evenodd" clip-rule="evenodd" d="M80.0425 32.4863C80.0448 32.7468 79.9698 33.0022 79.8271 33.2197C79.6843 33.4373 79.4803 33.6074 79.2411 33.708C79.0018 33.8088 78.738 33.8358 78.4835 33.7855C78.2289 33.7352 77.9949 33.61 77.8115 33.4258C77.628 33.2415 77.5032 33.0067 77.4533 32.7511C77.4032 32.4954 77.43 32.2306 77.5304 31.9903C77.6307 31.75 77.8 31.5453 78.0168 31.402C78.2334 31.2586 78.4876 31.1833 78.7472 31.1856C79.0907 31.1856 79.4202 31.3226 79.6631 31.5665C79.906 31.8105 80.0425 32.1414 80.0425 32.4863Z" fill="url(#paint75_linear)"/>
</g>
<path d="M120.722 50.8874C120.722 55.7462 117.487 57.9587 112.361 57.9587H110.036V62.4558C110.036 62.6287 110.002 62.7998 109.936 62.9594C109.87 63.1191 109.773 63.2641 109.651 63.3864C109.529 63.5086 109.384 63.6055 109.225 63.6715C109.066 63.7378 108.895 63.7718 108.722 63.7718H105.285C105.115 63.77 104.946 63.7344 104.789 63.6672C104.632 63.6 104.49 63.5026 104.371 63.3803C104.251 63.2581 104.157 63.1136 104.093 62.955C104.03 62.7964 103.998 62.6267 104 62.4558V44.6694C104.004 44.3306 104.141 44.007 104.381 43.7687C104.622 43.5304 104.947 43.3969 105.285 43.3969H112.361C117.993 43.3969 120.722 46.4047 120.722 50.8874ZM114.628 50.8874C114.639 50.5952 114.586 50.3042 114.473 50.0345C114.36 49.765 114.19 49.5233 113.974 49.3264C113.758 49.1296 113.502 48.9822 113.223 48.8947C112.945 48.8072 112.651 48.7816 112.361 48.8196H110.036V52.9987H112.332C112.628 53.0422 112.929 53.0193 113.215 52.9314C113.5 52.8434 113.762 52.693 113.982 52.4907C114.202 52.2884 114.375 52.0394 114.486 51.7621C114.598 51.4848 114.646 51.1859 114.628 50.8874Z" fill="black"/>
<path d="M143.319 53.6056C143.308 55.683 142.682 57.7103 141.521 59.4319C140.36 61.1534 138.716 62.4918 136.795 63.2783C134.875 64.0646 132.766 64.2637 130.733 63.8503C128.7 63.437 126.835 62.4299 125.373 60.9559C123.911 59.482 122.918 57.6073 122.519 55.5686C122.12 53.53 122.334 51.4188 123.132 49.5014C123.931 47.584 125.278 45.9466 127.005 44.7957C128.732 43.6448 130.761 43.0322 132.836 43.035C134.228 42.9987 135.614 43.2479 136.907 43.7673C138.2 44.2867 139.373 45.0652 140.355 46.055C141.337 47.0449 142.106 48.2254 142.616 49.5237C143.126 50.8222 143.365 52.2112 143.319 53.6056ZM137.298 53.6056C137.247 52.7348 136.943 51.8978 136.423 51.1981C135.903 50.4982 135.189 49.9662 134.371 49.6676C133.552 49.369 132.665 49.3168 131.817 49.5174C130.969 49.7181 130.198 50.1629 129.6 50.797C129.002 51.431 128.602 52.2266 128.45 53.0855C128.298 53.9444 128.4 54.8292 128.744 55.6306C129.088 56.432 129.659 57.115 130.386 57.5955C131.113 58.076 131.965 58.3327 132.836 58.3341C133.45 58.3551 134.061 58.2451 134.63 58.0113C135.198 57.7775 135.71 57.4253 136.132 56.9781C136.554 56.5308 136.876 55.9988 137.077 55.4174C137.278 54.836 137.354 54.2184 137.298 53.6056Z" fill="black"/>
<path d="M147.086 43.3969H150.537C150.706 43.395 150.874 43.4265 151.031 43.4893C151.187 43.5523 151.33 43.6454 151.451 43.7636C151.571 43.8817 151.668 44.0226 151.734 44.1781C151.8 44.3335 151.835 44.5005 151.837 44.6695V62.4559C151.839 62.6281 151.807 62.7989 151.743 62.9585C151.678 63.1179 151.583 63.2633 151.462 63.3856C151.341 63.508 151.197 63.6051 151.038 63.6715C150.88 63.7377 150.709 63.7719 150.537 63.7719H147.086C146.744 63.7643 146.419 63.6218 146.181 63.3754C145.943 63.1291 145.812 62.7986 145.816 62.4559V44.6695C145.819 44.3331 145.954 44.0117 146.192 43.7738C146.429 43.536 146.75 43.4007 147.086 43.3969Z" fill="black"/>
<path d="M168.716 43.3972H172.139C172.475 43.4008 172.796 43.5362 173.033 43.7741C173.271 44.0118 173.406 44.3334 173.41 44.6696V62.4561C173.414 62.7989 173.282 63.1292 173.044 63.3756C172.806 63.622 172.481 63.7644 172.139 63.7721H168.875C168.61 63.7822 168.346 63.7186 168.114 63.5884C167.883 63.4584 167.691 63.2667 167.561 63.0346L161.092 52.9121V62.4561C161.092 62.8001 160.958 63.1306 160.717 63.3765C160.477 63.6225 160.15 63.7644 159.807 63.7721H156.37C156.021 63.7721 155.687 63.6334 155.441 63.3866C155.194 63.1399 155.056 62.8052 155.056 62.4561V44.6696C155.058 44.4994 155.093 44.3313 155.16 44.1749C155.228 44.0185 155.325 43.877 155.447 43.7587C155.57 43.6402 155.714 43.5474 155.872 43.4852C156.031 43.4232 156.2 43.3933 156.37 43.3972H159.604C159.865 43.3972 160.12 43.4635 160.348 43.59C160.575 43.7165 160.767 43.8989 160.904 44.1201L167.417 54.2425V44.6696C167.419 44.5006 167.454 44.3336 167.52 44.1782C167.586 44.0228 167.683 43.882 167.803 43.7638C167.924 43.6457 168.067 43.5524 168.223 43.4896C168.38 43.4266 168.548 43.3952 168.716 43.3972Z" fill="black"/>
<path d="M191.349 44.6694V47.5614C191.349 47.9002 191.216 48.2254 190.978 48.4664C190.74 48.7073 190.417 48.8446 190.078 48.8484H186.569V62.4557C186.573 62.7984 186.442 63.1288 186.204 63.3752C185.966 63.6216 185.641 63.7641 185.299 63.7717H181.847C181.675 63.7717 181.505 63.7375 181.347 63.6712C181.188 63.6049 181.044 63.5078 180.923 63.3854C180.802 63.2631 180.707 63.1178 180.642 62.9582C180.578 62.7987 180.546 62.6279 180.548 62.4557V48.8194H177.067C176.728 48.8158 176.403 48.6789 176.163 48.4384C175.923 48.1978 175.786 47.8726 175.782 47.5324V44.6404C175.79 44.3027 175.928 43.9813 176.168 43.7438C176.408 43.5063 176.73 43.3714 177.067 43.3678H190.064C190.234 43.3678 190.402 43.4015 190.559 43.4672C190.716 43.5327 190.858 43.6289 190.978 43.7498C191.097 43.8709 191.192 44.0146 191.255 44.1724C191.319 44.3301 191.351 44.4991 191.349 44.6694Z" fill="black"/>
<path d="M208.848 57.5825C208.848 61.1108 205.787 64.1765 200.834 64.1765C197.484 64.1765 193.845 63.0341 192.559 59.8384C192.492 59.7034 192.455 59.5553 192.451 59.4045C192.448 59.2537 192.477 59.1039 192.538 58.9659C192.599 58.8279 192.689 58.705 192.802 58.6058C192.916 58.5066 193.05 58.4338 193.195 58.3923L196.458 57.38C196.681 57.3141 196.919 57.3237 197.136 57.4075C197.353 57.4912 197.536 57.6442 197.657 57.8427C197.996 58.2778 198.437 58.6226 198.941 58.8471C199.444 59.0715 199.995 59.1686 200.545 59.1298C202.119 59.1298 202.783 58.3923 202.783 57.6837C202.783 56.4546 201.267 56.3389 199.231 55.8472C195.274 54.8784 193.021 53.2732 193.021 49.5424C193.021 45.8116 196.285 43.0208 200.776 43.0208C202.27 42.908 203.764 43.2564 205.054 44.0191C206.345 44.7817 207.372 45.9221 207.996 47.2866C208.055 47.4292 208.082 47.5827 208.075 47.7367C208.069 47.8907 208.029 48.0416 207.959 48.179C207.889 48.3163 207.791 48.4369 207.67 48.5323C207.549 48.628 207.409 48.6963 207.26 48.7327L204.025 49.5134C203.82 49.5651 203.605 49.5542 203.407 49.4819C203.209 49.4098 203.037 49.2798 202.913 49.1086C202.692 48.7862 202.391 48.528 202.038 48.3603C201.685 48.1927 201.295 48.1216 200.906 48.1542C199.707 48.1542 198.87 48.6459 198.87 49.6002C198.87 50.757 200.646 50.9018 202.22 51.3501C207.159 52.6803 208.848 54.3433 208.848 57.5825Z" fill="black"/>
<defs>
<linearGradient id="paint0_linear" x1="155.982" y1="0" x2="155.982" y2="107.927" gradientUnits="userSpaceOnUse">
<stop stop-color="#6FD74A"/>
<stop offset="1" stop-color="#24A240"/>
</linearGradient>
<linearGradient id="paint1_linear" x1="155.982" y1="0" x2="155.982" y2="107.927" gradientUnits="userSpaceOnUse">
<stop stop-color="#6FD74A"/>
<stop offset="1" stop-color="#24A240"/>
</linearGradient>
<linearGradient id="paint2_linear" x1="238.126" y1="8.86625" x2="268.772" y2="8.86625" gradientUnits="userSpaceOnUse">
<stop offset="0.05" stop-color="#7DB828"/>
<stop offset="0.41" stop-color="#EFE300" stop-opacity="0.34"/>
<stop offset="0.68" stop-color="#EFE300" stop-opacity="0.34"/>
<stop offset="1" stop-color="#BAC32F"/>
</linearGradient>
<linearGradient id="paint3_linear" x1="5.38201" y1="69.6845" x2="5.38201" y2="38.9204" gradientUnits="userSpaceOnUse">
<stop offset="0.05" stop-color="#1EA723"/>
<stop offset="0.41" stop-color="#EFE300" stop-opacity="0.34"/>
<stop offset="0.588542" stop-color="#B1EF00" stop-opacity="0.34"/>
<stop offset="1" stop-color="#36B477"/>
</linearGradient>
<linearGradient id="paint4_linear" x1="294.578" y1="56.4218" x2="297.643" y2="56.4218" gradientUnits="userSpaceOnUse">
<stop offset="0.05" stop-color="#7DB828"/>
<stop offset="1" stop-color="#EFE300" stop-opacity="0.34"/>
</linearGradient>
<linearGradient id="paint5_linear" x1="-904.03" y1="-3153" x2="-895.969" y2="-3153" gradientUnits="userSpaceOnUse">
<stop offset="0.05" stop-color="#7DB828"/>
<stop offset="1" stop-color="#EFE300" stop-opacity="0.34"/>
</linearGradient>
<linearGradient id="paint6_linear" x1="-592.847" y1="-7.34355" x2="-590.905" y2="-7.34355" gradientUnits="userSpaceOnUse">
<stop offset="0.05" stop-color="#7DB828"/>
<stop offset="0.41" stop-color="#EFE300" stop-opacity="0.34"/>
<stop offset="0.68" stop-color="#EFE300" stop-opacity="0.34"/>
<stop offset="1" stop-color="#BAC32F"/>
</linearGradient>
<linearGradient id="paint7_linear" x1="-576.447" y1="-49.5355" x2="-574.523" y2="-49.5355" gradientUnits="userSpaceOnUse">
<stop offset="0.05" stop-color="#7DB828"/>
<stop offset="0.41" stop-color="#EFE300" stop-opacity="0.34"/>
<stop offset="0.68" stop-color="#EFE300" stop-opacity="0.34"/>
<stop offset="1" stop-color="#BAC32F"/>
</linearGradient>
<linearGradient id="paint8_linear" x1="-565.807" y1="-49.5355" x2="-563.882" y2="-49.5355" gradientUnits="userSpaceOnUse">
<stop offset="0.05" stop-color="#7DB828"/>
<stop offset="0.41" stop-color="#EFE300" stop-opacity="0.34"/>
<stop offset="0.68" stop-color="#EFE300" stop-opacity="0.34"/>
<stop offset="1" stop-color="#BAC32F"/>
</linearGradient>
<linearGradient id="paint9_linear" x1="-555.2" y1="-7.34379" x2="-553.276" y2="-7.34379" gradientUnits="userSpaceOnUse">
<stop offset="0.05" stop-color="#7DB828"/>
<stop offset="0.41" stop-color="#EFE300" stop-opacity="0.34"/>
<stop offset="0.68" stop-color="#EFE300" stop-opacity="0.34"/>
<stop offset="1" stop-color="#BAC32F"/>
</linearGradient>
<linearGradient id="paint10_linear" x1="-613.558" y1="-38.7516" x2="-611.604" y2="-38.7516" gradientUnits="userSpaceOnUse">
<stop offset="0.05" stop-color="#7DB828"/>
<stop offset="0.41" stop-color="#EFE300" stop-opacity="0.34"/>
<stop offset="0.68" stop-color="#EFE300" stop-opacity="0.34"/>
<stop offset="1" stop-color="#BAC32F"/>
</linearGradient>
<linearGradient id="paint11_linear" x1="-597.752" y1="-38.7516" x2="-595.827" y2="-38.7516" gradientUnits="userSpaceOnUse">
<stop offset="0.05" stop-color="#7DB828"/>
<stop offset="0.41" stop-color="#EFE300" stop-opacity="0.34"/>
<stop offset="0.68" stop-color="#EFE300" stop-opacity="0.34"/>
<stop offset="1" stop-color="#BAC32F"/>
</linearGradient>
<linearGradient id="paint12_linear" x1="-587.099" y1="-38.7516" x2="-585.174" y2="-38.7516" gradientUnits="userSpaceOnUse">
<stop offset="0.05" stop-color="#7DB828"/>
<stop offset="0.41" stop-color="#EFE300" stop-opacity="0.34"/>
<stop offset="0.68" stop-color="#EFE300" stop-opacity="0.34"/>
<stop offset="1" stop-color="#BAC32F"/>
</linearGradient>
<linearGradient id="paint13_linear" x1="-576.447" y1="-38.7516" x2="-574.523" y2="-38.7516" gradientUnits="userSpaceOnUse">
<stop offset="0.05" stop-color="#7DB828"/>
<stop offset="0.41" stop-color="#EFE300" stop-opacity="0.34"/>
<stop offset="0.68" stop-color="#EFE300" stop-opacity="0.34"/>
<stop offset="1" stop-color="#BAC32F"/>
</linearGradient>
<linearGradient id="paint14_linear" x1="-565.808" y1="-38.7516" x2="-563.883" y2="-38.7516" gradientUnits="userSpaceOnUse">
<stop offset="0.05" stop-color="#7DB828"/>
<stop offset="0.41" stop-color="#EFE300" stop-opacity="0.34"/>
<stop offset="0.68" stop-color="#EFE300" stop-opacity="0.34"/>
<stop offset="1" stop-color="#BAC32F"/>
</linearGradient>
<linearGradient id="paint15_linear" x1="-560.056" y1="-38.7516" x2="-558.101" y2="-38.7516" gradientUnits="userSpaceOnUse">
<stop offset="0.05" stop-color="#7DB828"/>
<stop offset="0.41" stop-color="#EFE300" stop-opacity="0.34"/>
<stop offset="0.68" stop-color="#EFE300" stop-opacity="0.34"/>
<stop offset="1" stop-color="#BAC32F"/>
</linearGradient>
<linearGradient id="paint16_linear" x1="-549.354" y1="-38.7516" x2="-547.399" y2="-38.7516" gradientUnits="userSpaceOnUse">
<stop offset="0.05" stop-color="#7DB828"/>
<stop offset="0.41" stop-color="#EFE300" stop-opacity="0.34"/>
<stop offset="0.68" stop-color="#EFE300" stop-opacity="0.34"/>
<stop offset="1" stop-color="#BAC32F"/>
</linearGradient>
<linearGradient id="paint17_linear" x1="-538.681" y1="-38.7516" x2="-536.726" y2="-38.7516" gradientUnits="userSpaceOnUse">
<stop offset="0.05" stop-color="#7DB828"/>
<stop offset="0.41" stop-color="#EFE300" stop-opacity="0.34"/>
<stop offset="0.68" stop-color="#EFE300" stop-opacity="0.34"/>
<stop offset="1" stop-color="#BAC32F"/>
</linearGradient>
<linearGradient id="paint18_linear" x1="-624.251" y1="-27.1311" x2="-622.296" y2="-27.1311" gradientUnits="userSpaceOnUse">
<stop offset="0.05" stop-color="#7DB828"/>
<stop offset="0.41" stop-color="#EFE300" stop-opacity="0.34"/>
<stop offset="0.68" stop-color="#EFE300" stop-opacity="0.34"/>
<stop offset="1" stop-color="#BAC32F"/>
</linearGradient>
<linearGradient id="paint19_linear" x1="-613.558" y1="-27.1311" x2="-611.604" y2="-27.1311" gradientUnits="userSpaceOnUse">
<stop offset="0.05" stop-color="#7DB828"/>
<stop offset="0.41" stop-color="#EFE300" stop-opacity="0.34"/>
<stop offset="0.68" stop-color="#EFE300" stop-opacity="0.34"/>
<stop offset="1" stop-color="#BAC32F"/>
</linearGradient>
<linearGradient id="paint20_linear" x1="-597.752" y1="-27.1311" x2="-595.827" y2="-27.1311" gradientUnits="userSpaceOnUse">
<stop offset="0.05" stop-color="#7DB828"/>
<stop offset="0.41" stop-color="#EFE300" stop-opacity="0.34"/>
<stop offset="0.68" stop-color="#EFE300" stop-opacity="0.34"/>
<stop offset="1" stop-color="#BAC32F"/>
</linearGradient>
<linearGradient id="paint21_linear" x1="-587.099" y1="-27.1311" x2="-585.174" y2="-27.1311" gradientUnits="userSpaceOnUse">
<stop offset="0.05" stop-color="#7DB828"/>
<stop offset="0.41" stop-color="#EFE300" stop-opacity="0.34"/>
<stop offset="0.68" stop-color="#EFE300" stop-opacity="0.34"/>
<stop offset="1" stop-color="#BAC32F"/>
</linearGradient>
<linearGradient id="paint22_linear" x1="-576.447" y1="-27.1311" x2="-574.523" y2="-27.1311" gradientUnits="userSpaceOnUse">
<stop offset="0.05" stop-color="#7DB828"/>
<stop offset="0.41" stop-color="#EFE300" stop-opacity="0.34"/>
<stop offset="0.68" stop-color="#EFE300" stop-opacity="0.34"/>
<stop offset="1" stop-color="#BAC32F"/>
</linearGradient>
<linearGradient id="paint23_linear" x1="-565.808" y1="-27.1311" x2="-563.883" y2="-27.1311" gradientUnits="userSpaceOnUse">
<stop offset="0.05" stop-color="#7DB828"/>
<stop offset="0.41" stop-color="#EFE300" stop-opacity="0.34"/>
<stop offset="0.68" stop-color="#EFE300" stop-opacity="0.34"/>
<stop offset="1" stop-color="#BAC32F"/>
</linearGradient>
<linearGradient id="paint24_linear" x1="-560.056" y1="-27.1311" x2="-558.101" y2="-27.1311" gradientUnits="userSpaceOnUse">
<stop offset="0.05" stop-color="#7DB828"/>
<stop offset="0.41" stop-color="#EFE300" stop-opacity="0.34"/>
<stop offset="0.68" stop-color="#EFE300" stop-opacity="0.34"/>
<stop offset="1" stop-color="#BAC32F"/>
</linearGradient>
<linearGradient id="paint25_linear" x1="-549.354" y1="-27.1311" x2="-547.399" y2="-27.1311" gradientUnits="userSpaceOnUse">
<stop offset="0.05" stop-color="#7DB828"/>
<stop offset="0.41" stop-color="#EFE300" stop-opacity="0.34"/>
<stop offset="0.68" stop-color="#EFE300" stop-opacity="0.34"/>
<stop offset="1" stop-color="#BAC32F"/>
</linearGradient>
<linearGradient id="paint26_linear" x1="-538.681" y1="-27.1311" x2="-536.726" y2="-27.1311" gradientUnits="userSpaceOnUse">
<stop offset="0.05" stop-color="#7DB828"/>
<stop offset="0.41" stop-color="#EFE300" stop-opacity="0.34"/>
<stop offset="0.68" stop-color="#EFE300" stop-opacity="0.34"/>
<stop offset="1" stop-color="#BAC32F"/>
</linearGradient>
<linearGradient id="paint27_linear" x1="-527.969" y1="-27.1311" x2="-526.014" y2="-27.1311" gradientUnits="userSpaceOnUse">
<stop offset="0.05" stop-color="#7DB828"/>
<stop offset="0.41" stop-color="#EFE300" stop-opacity="0.34"/>
<stop offset="0.68" stop-color="#EFE300" stop-opacity="0.34"/>
<stop offset="1" stop-color="#BAC32F"/>
</linearGradient>
<linearGradient id="paint28_linear" x1="-634.959" y1="-16.4626" x2="-633.004" y2="-16.4626" gradientUnits="userSpaceOnUse">
<stop offset="0.05" stop-color="#7DB828"/>
<stop offset="0.41" stop-color="#EFE300" stop-opacity="0.34"/>
<stop offset="0.68" stop-color="#EFE300" stop-opacity="0.34"/>
<stop offset="1" stop-color="#BAC32F"/>
</linearGradient>
<linearGradient id="paint29_linear" x1="-624.251" y1="-16.4626" x2="-622.296" y2="-16.4626" gradientUnits="userSpaceOnUse">
<stop offset="0.05" stop-color="#7DB828"/>
<stop offset="0.41" stop-color="#EFE300" stop-opacity="0.34"/>
<stop offset="0.68" stop-color="#EFE300" stop-opacity="0.34"/>
<stop offset="1" stop-color="#BAC32F"/>
</linearGradient>
<linearGradient id="paint30_linear" x1="-613.558" y1="-16.4626" x2="-611.604" y2="-16.4626" gradientUnits="userSpaceOnUse">
<stop offset="0.05" stop-color="#7DB828"/>
<stop offset="0.41" stop-color="#EFE300" stop-opacity="0.34"/>
<stop offset="0.68" stop-color="#EFE300" stop-opacity="0.34"/>
<stop offset="1" stop-color="#BAC32F"/>
</linearGradient>
<linearGradient id="paint31_linear" x1="-597.752" y1="-16.4626" x2="-595.827" y2="-16.4626" gradientUnits="userSpaceOnUse">
<stop offset="0.05" stop-color="#7DB828"/>
<stop offset="0.41" stop-color="#EFE300" stop-opacity="0.34"/>
<stop offset="0.68" stop-color="#EFE300" stop-opacity="0.34"/>
<stop offset="1" stop-color="#BAC32F"/>
</linearGradient>
<linearGradient id="paint32_linear" x1="-587.099" y1="-16.4626" x2="-585.174" y2="-16.4626" gradientUnits="userSpaceOnUse">
<stop offset="0.05" stop-color="#7DB828"/>
<stop offset="0.41" stop-color="#EFE300" stop-opacity="0.34"/>
<stop offset="0.68" stop-color="#EFE300" stop-opacity="0.34"/>
<stop offset="1" stop-color="#BAC32F"/>
</linearGradient>
<linearGradient id="paint33_linear" x1="-576.447" y1="-16.4626" x2="-574.523" y2="-16.4626" gradientUnits="userSpaceOnUse">
<stop offset="0.05" stop-color="#7DB828"/>
<stop offset="0.41" stop-color="#EFE300" stop-opacity="0.34"/>
<stop offset="0.68" stop-color="#EFE300" stop-opacity="0.34"/>
<stop offset="1" stop-color="#BAC32F"/>
</linearGradient>
<linearGradient id="paint34_linear" x1="-565.808" y1="-16.4626" x2="-563.883" y2="-16.4626" gradientUnits="userSpaceOnUse">
<stop offset="0.05" stop-color="#7DB828"/>
<stop offset="0.41" stop-color="#EFE300" stop-opacity="0.34"/>
<stop offset="0.68" stop-color="#EFE300" stop-opacity="0.34"/>
<stop offset="1" stop-color="#BAC32F"/>
</linearGradient>
<linearGradient id="paint35_linear" x1="-560.056" y1="-16.4626" x2="-558.101" y2="-16.4626" gradientUnits="userSpaceOnUse">
<stop offset="0.05" stop-color="#7DB828"/>
<stop offset="0.41" stop-color="#EFE300" stop-opacity="0.34"/>
<stop offset="0.68" stop-color="#EFE300" stop-opacity="0.34"/>
<stop offset="1" stop-color="#BAC32F"/>
</linearGradient>
<linearGradient id="paint36_linear" x1="-549.354" y1="-16.4626" x2="-547.399" y2="-16.4626" gradientUnits="userSpaceOnUse">
<stop offset="0.05" stop-color="#7DB828"/>
<stop offset="0.41" stop-color="#EFE300" stop-opacity="0.34"/>
<stop offset="0.68" stop-color="#EFE300" stop-opacity="0.34"/>
<stop offset="1" stop-color="#BAC32F"/>
</linearGradient>
<linearGradient id="paint37_linear" x1="-538.681" y1="-16.4626" x2="-536.726" y2="-16.4626" gradientUnits="userSpaceOnUse">
<stop offset="0.05" stop-color="#7DB828"/>
<stop offset="0.41" stop-color="#EFE300" stop-opacity="0.34"/>
<stop offset="0.68" stop-color="#EFE300" stop-opacity="0.34"/>
<stop offset="1" stop-color="#BAC32F"/>
</linearGradient>
<linearGradient id="paint38_linear" x1="-527.969" y1="-16.4626" x2="-526.014" y2="-16.4626" gradientUnits="userSpaceOnUse">
<stop offset="0.05" stop-color="#7DB828"/>
<stop offset="0.41" stop-color="#EFE300" stop-opacity="0.34"/>
<stop offset="0.68" stop-color="#EFE300" stop-opacity="0.34"/>
<stop offset="1" stop-color="#BAC32F"/>
</linearGradient>
<linearGradient id="paint39_linear" x1="-517.28" y1="-16.4626" x2="-515.326" y2="-16.4626" gradientUnits="userSpaceOnUse">
<stop offset="0.05" stop-color="#7DB828"/>
<stop offset="0.41" stop-color="#EFE300" stop-opacity="0.34"/>
<stop offset="0.68" stop-color="#EFE300" stop-opacity="0.34"/>
<stop offset="1" stop-color="#BAC32F"/>
</linearGradient>
<linearGradient id="paint40_linear" x1="-634.959" y1="-5.7925" x2="-633.004" y2="-5.7925" gradientUnits="userSpaceOnUse">
<stop offset="0.05" stop-color="#7DB828"/>
<stop offset="0.41" stop-color="#EFE300" stop-opacity="0.34"/>
<stop offset="0.68" stop-color="#EFE300" stop-opacity="0.34"/>
<stop offset="1" stop-color="#BAC32F"/>
</linearGradient>
<linearGradient id="paint41_linear" x1="-624.251" y1="-5.7925" x2="-622.296" y2="-5.7925" gradientUnits="userSpaceOnUse">
<stop offset="0.05" stop-color="#7DB828"/>
<stop offset="0.41" stop-color="#EFE300" stop-opacity="0.34"/>
<stop offset="0.68" stop-color="#EFE300" stop-opacity="0.34"/>
<stop offset="1" stop-color="#BAC32F"/>
</linearGradient>
<linearGradient id="paint42_linear" x1="-613.558" y1="-5.7925" x2="-611.604" y2="-5.7925" gradientUnits="userSpaceOnUse">
<stop offset="0.05" stop-color="#7DB828"/>
<stop offset="0.41" stop-color="#EFE300" stop-opacity="0.34"/>
<stop offset="0.68" stop-color="#EFE300" stop-opacity="0.34"/>
<stop offset="1" stop-color="#BAC32F"/>
</linearGradient>
<linearGradient id="paint43_linear" x1="-597.752" y1="-5.7925" x2="-595.827" y2="-5.7925" gradientUnits="userSpaceOnUse">
<stop offset="0.05" stop-color="#7DB828"/>
<stop offset="0.41" stop-color="#EFE300" stop-opacity="0.34"/>
<stop offset="0.68" stop-color="#EFE300" stop-opacity="0.34"/>
<stop offset="1" stop-color="#BAC32F"/>
</linearGradient>
<linearGradient id="paint44_linear" x1="-549.354" y1="-5.7925" x2="-547.399" y2="-5.7925" gradientUnits="userSpaceOnUse">
<stop offset="0.05" stop-color="#7DB828"/>
<stop offset="0.41" stop-color="#EFE300" stop-opacity="0.34"/>
<stop offset="0.68" stop-color="#EFE300" stop-opacity="0.34"/>
<stop offset="1" stop-color="#BAC32F"/>
</linearGradient>
<linearGradient id="paint45_linear" x1="-538.681" y1="-5.7925" x2="-536.726" y2="-5.7925" gradientUnits="userSpaceOnUse">
<stop offset="0.05" stop-color="#7DB828"/>
<stop offset="0.41" stop-color="#EFE300" stop-opacity="0.34"/>
<stop offset="0.68" stop-color="#EFE300" stop-opacity="0.34"/>
<stop offset="1" stop-color="#BAC32F"/>
</linearGradient>
<linearGradient id="paint46_linear" x1="-527.969" y1="-5.7925" x2="-526.014" y2="-5.7925" gradientUnits="userSpaceOnUse">
<stop offset="0.05" stop-color="#7DB828"/>
<stop offset="0.41" stop-color="#EFE300" stop-opacity="0.34"/>
<stop offset="0.68" stop-color="#EFE300" stop-opacity="0.34"/>
<stop offset="1" stop-color="#BAC32F"/>
</linearGradient>
<linearGradient id="paint47_linear" x1="-517.28" y1="-5.7925" x2="-515.326" y2="-5.7925" gradientUnits="userSpaceOnUse">
<stop offset="0.05" stop-color="#7DB828"/>
<stop offset="0.41" stop-color="#EFE300" stop-opacity="0.34"/>
<stop offset="0.68" stop-color="#EFE300" stop-opacity="0.34"/>
<stop offset="1" stop-color="#BAC32F"/>
</linearGradient>
<linearGradient id="paint48_linear" x1="-428.117" y1="4.11665" x2="-427.2" y2="4.11665" gradientUnits="userSpaceOnUse">
<stop offset="0.05" stop-color="#7DB828"/>
<stop offset="0.41" stop-color="#EFE300" stop-opacity="0.34"/>
<stop offset="0.68" stop-color="#EFE300" stop-opacity="0.34"/>
<stop offset="1" stop-color="#BAC32F"/>
</linearGradient>
<linearGradient id="paint49_linear" x1="-634.959" y1="4.93377" x2="-633.004" y2="4.93377" gradientUnits="userSpaceOnUse">
<stop offset="0.05" stop-color="#7DB828"/>
<stop offset="0.41" stop-color="#EFE300" stop-opacity="0.34"/>
<stop offset="0.68" stop-color="#EFE300" stop-opacity="0.34"/>
<stop offset="1" stop-color="#BAC32F"/>
</linearGradient>
<linearGradient id="paint50_linear" x1="-624.251" y1="4.93377" x2="-622.296" y2="4.93377" gradientUnits="userSpaceOnUse">
<stop offset="0.05" stop-color="#7DB828"/>
<stop offset="0.41" stop-color="#EFE300" stop-opacity="0.34"/>
<stop offset="0.68" stop-color="#EFE300" stop-opacity="0.34"/>
<stop offset="1" stop-color="#BAC32F"/>
</linearGradient>
<linearGradient id="paint51_linear" x1="-613.558" y1="4.93377" x2="-611.604" y2="4.93377" gradientUnits="userSpaceOnUse">
<stop offset="0.05" stop-color="#7DB828"/>
<stop offset="0.41" stop-color="#EFE300" stop-opacity="0.34"/>
<stop offset="0.68" stop-color="#EFE300" stop-opacity="0.34"/>
<stop offset="1" stop-color="#BAC32F"/>
</linearGradient>
<linearGradient id="paint52_linear" x1="-538.681" y1="4.93377" x2="-536.726" y2="4.93377" gradientUnits="userSpaceOnUse">
<stop offset="0.05" stop-color="#7DB828"/>
<stop offset="0.41" stop-color="#EFE300" stop-opacity="0.34"/>
<stop offset="0.68" stop-color="#EFE300" stop-opacity="0.34"/>
<stop offset="1" stop-color="#BAC32F"/>
</linearGradient>
<linearGradient id="paint53_linear" x1="-527.969" y1="4.93377" x2="-526.014" y2="4.93377" gradientUnits="userSpaceOnUse">
<stop offset="0.05" stop-color="#7DB828"/>
<stop offset="0.41" stop-color="#EFE300" stop-opacity="0.34"/>
<stop offset="0.68" stop-color="#EFE300" stop-opacity="0.34"/>
<stop offset="1" stop-color="#BAC32F"/>
</linearGradient>
<linearGradient id="paint54_linear" x1="-517.28" y1="4.93377" x2="-515.326" y2="4.93377" gradientUnits="userSpaceOnUse">
<stop offset="0.05" stop-color="#7DB828"/>
<stop offset="0.41" stop-color="#EFE300" stop-opacity="0.34"/>
<stop offset="0.68" stop-color="#EFE300" stop-opacity="0.34"/>
<stop offset="1" stop-color="#BAC32F"/>
</linearGradient>
<linearGradient id="paint55_linear" x1="-310.112" y1="7.09755" x2="-309.215" y2="7.09755" gradientUnits="userSpaceOnUse">
<stop offset="0.05" stop-color="#7DB828"/>
<stop offset="0.41" stop-color="#EFE300" stop-opacity="0.34"/>
<stop offset="0.68" stop-color="#EFE300" stop-opacity="0.34"/>
<stop offset="1" stop-color="#BAC32F"/>
</linearGradient>
<linearGradient id="paint56_linear" x1="-645.643" y1="14.917" x2="-643.688" y2="14.917" gradientUnits="userSpaceOnUse">
<stop offset="0.05" stop-color="#7DB828"/>
<stop offset="0.41" stop-color="#EFE300" stop-opacity="0.34"/>
<stop offset="0.68" stop-color="#EFE300" stop-opacity="0.34"/>
<stop offset="1" stop-color="#BAC32F"/>
</linearGradient>
<linearGradient id="paint57_linear" x1="-634.959" y1="14.917" x2="-633.004" y2="14.917" gradientUnits="userSpaceOnUse">
<stop offset="0.05" stop-color="#7DB828"/>
<stop offset="0.41" stop-color="#EFE300" stop-opacity="0.34"/>
<stop offset="0.68" stop-color="#EFE300" stop-opacity="0.34"/>
<stop offset="1" stop-color="#BAC32F"/>
</linearGradient>
<linearGradient id="paint58_linear" x1="-624.251" y1="14.917" x2="-622.296" y2="14.917" gradientUnits="userSpaceOnUse">
<stop offset="0.05" stop-color="#7DB828"/>
<stop offset="0.41" stop-color="#EFE300" stop-opacity="0.34"/>
<stop offset="0.68" stop-color="#EFE300" stop-opacity="0.34"/>
<stop offset="1" stop-color="#BAC32F"/>
</linearGradient>
<linearGradient id="paint59_linear" x1="-613.558" y1="14.917" x2="-611.604" y2="14.917" gradientUnits="userSpaceOnUse">
<stop offset="0.05" stop-color="#7DB828"/>
<stop offset="0.41" stop-color="#EFE300" stop-opacity="0.34"/>
<stop offset="0.68" stop-color="#EFE300" stop-opacity="0.34"/>
<stop offset="1" stop-color="#BAC32F"/>
</linearGradient>
<linearGradient id="paint60_linear" x1="-538.681" y1="14.917" x2="-536.726" y2="14.917" gradientUnits="userSpaceOnUse">
<stop offset="0.05" stop-color="#7DB828"/>
<stop offset="0.41" stop-color="#EFE300" stop-opacity="0.34"/>
<stop offset="0.68" stop-color="#EFE300" stop-opacity="0.34"/>
<stop offset="1" stop-color="#BAC32F"/>
</linearGradient>
<linearGradient id="paint61_linear" x1="-527.969" y1="14.917" x2="-526.014" y2="14.917" gradientUnits="userSpaceOnUse">
<stop offset="0.05" stop-color="#7DB828"/>
<stop offset="0.41" stop-color="#EFE300" stop-opacity="0.34"/>
<stop offset="0.68" stop-color="#EFE300" stop-opacity="0.34"/>
<stop offset="1" stop-color="#BAC32F"/>
</linearGradient>
<linearGradient id="paint62_linear" x1="-517.28" y1="14.917" x2="-515.326" y2="14.917" gradientUnits="userSpaceOnUse">
<stop offset="0.05" stop-color="#7DB828"/>
<stop offset="0.41" stop-color="#EFE300" stop-opacity="0.34"/>
<stop offset="0.68" stop-color="#EFE300" stop-opacity="0.34"/>
<stop offset="1" stop-color="#BAC32F"/>
</linearGradient>
<linearGradient id="paint63_linear" x1="-506.596" y1="14.917" x2="-504.641" y2="14.917" gradientUnits="userSpaceOnUse">
<stop offset="0.05" stop-color="#7DB828"/>
<stop offset="0.41" stop-color="#EFE300" stop-opacity="0.34"/>
<stop offset="0.68" stop-color="#EFE300" stop-opacity="0.34"/>
<stop offset="1" stop-color="#BAC32F"/>
</linearGradient>
<linearGradient id="paint64_linear" x1="53.2528" y1="24.3916" x2="55.8551" y2="24.3916" gradientUnits="userSpaceOnUse">
<stop offset="0.05" stop-color="#7DB828"/>
<stop offset="0.41" stop-color="#EFE300" stop-opacity="0.34"/>
<stop offset="0.68" stop-color="#EFE300" stop-opacity="0.34"/>
<stop offset="1" stop-color="#BAC32F"/>
</linearGradient>
<linearGradient id="paint65_linear" x1="108.525" y1="151.919" x2="114.406" y2="151.919" gradientUnits="userSpaceOnUse">
<stop offset="0.05" stop-color="#7DB828"/>
<stop offset="0.41" stop-color="#EFE300" stop-opacity="0.34"/>
<stop offset="0.68" stop-color="#EFE300" stop-opacity="0.34"/>
<stop offset="1" stop-color="#BAC32F"/>
</linearGradient>
<linearGradient id="paint66_linear" x1="134.81" y1="99.1313" x2="140.691" y2="99.1313" gradientUnits="userSpaceOnUse">
<stop offset="0.05" stop-color="#7DB828"/>
<stop offset="0.41" stop-color="#EFE300" stop-opacity="0.34"/>
<stop offset="0.68" stop-color="#EFE300" stop-opacity="0.34"/>
<stop offset="1" stop-color="#BAC32F"/>
</linearGradient>
<linearGradient id="paint67_linear" x1="134.81" y1="125.485" x2="140.691" y2="125.485" gradientUnits="userSpaceOnUse">
<stop offset="0.05" stop-color="#7DB828"/>
<stop offset="0.41" stop-color="#EFE300" stop-opacity="0.34"/>
<stop offset="0.68" stop-color="#EFE300" stop-opacity="0.34"/>
<stop offset="1" stop-color="#BAC32F"/>
</linearGradient>
<linearGradient id="paint68_linear" x1="134.81" y1="151.919" x2="140.691" y2="151.919" gradientUnits="userSpaceOnUse">
<stop offset="0.05" stop-color="#7DB828"/>
<stop offset="0.41" stop-color="#EFE300" stop-opacity="0.34"/>
<stop offset="0.68" stop-color="#EFE300" stop-opacity="0.34"/>
<stop offset="1" stop-color="#BAC32F"/>
</linearGradient>
<linearGradient id="paint69_linear" x1="134.816" y1="178.454" x2="140.697" y2="178.454" gradientUnits="userSpaceOnUse">
<stop offset="0.05" stop-color="#7DB828"/>
<stop offset="0.41" stop-color="#EFE300" stop-opacity="0.34"/>
<stop offset="0.68" stop-color="#EFE300" stop-opacity="0.34"/>
<stop offset="1" stop-color="#BAC32F"/>
</linearGradient>
<linearGradient id="paint70_linear" x1="161.094" y1="99.1312" x2="166.975" y2="99.1312" gradientUnits="userSpaceOnUse">
<stop offset="0.05" stop-color="#7DB828"/>
<stop offset="0.41" stop-color="#EFE300" stop-opacity="0.34"/>
<stop offset="0.68" stop-color="#EFE300" stop-opacity="0.34"/>
<stop offset="1" stop-color="#BAC32F"/>
</linearGradient>
<linearGradient id="paint71_linear" x1="161.095" y1="125.485" x2="166.976" y2="125.485" gradientUnits="userSpaceOnUse">
<stop offset="0.05" stop-color="#7DB828"/>
<stop offset="0.41" stop-color="#EFE300" stop-opacity="0.34"/>
<stop offset="0.68" stop-color="#EFE300" stop-opacity="0.34"/>
<stop offset="1" stop-color="#BAC32F"/>
</linearGradient>
<linearGradient id="paint72_linear" x1="161.092" y1="151.919" x2="166.974" y2="151.919" gradientUnits="userSpaceOnUse">
<stop offset="0.05" stop-color="#7DB828"/>
<stop offset="0.41" stop-color="#EFE300" stop-opacity="0.34"/>
<stop offset="0.68" stop-color="#EFE300" stop-opacity="0.34"/>
<stop offset="1" stop-color="#BAC32F"/>
</linearGradient>
<linearGradient id="paint73_linear" x1="161.092" y1="178.343" x2="166.974" y2="178.343" gradientUnits="userSpaceOnUse">
<stop offset="0.05" stop-color="#7DB828"/>
<stop offset="0.41" stop-color="#EFE300" stop-opacity="0.34"/>
<stop offset="0.68" stop-color="#EFE300" stop-opacity="0.34"/>
<stop offset="1" stop-color="#BAC32F"/>
</linearGradient>
<linearGradient id="paint74_linear" x1="187.377" y1="125.362" x2="193.258" y2="125.362" gradientUnits="userSpaceOnUse">
<stop offset="0.05" stop-color="#7DB828"/>
<stop offset="0.41" stop-color="#EFE300" stop-opacity="0.34"/>
<stop offset="0.68" stop-color="#EFE300" stop-opacity="0.34"/>
<stop offset="1" stop-color="#BAC32F"/>
</linearGradient>
<linearGradient id="paint75_linear" x1="187.369" y1="151.919" x2="193.25" y2="151.919" gradientUnits="userSpaceOnUse">
<stop offset="0.05" stop-color="#7DB828"/>
<stop offset="0.41" stop-color="#EFE300" stop-opacity="0.34"/>
<stop offset="0.68" stop-color="#EFE300" stop-opacity="0.34"/>
<stop offset="1" stop-color="#BAC32F"/>
</linearGradient>
</defs>
</svg>
