<svg width="312" height="108" viewBox="0 0 312 108" fill="none" xmlns="http://www.w3.org/2000/svg">
<rect width="312" height="108" rx="24" fill="url(#paint0_linear)"/>
<mask id="mask0" mask-type="alpha" maskUnits="userSpaceOnUse" x="0" y="0" width="312" height="108">
<rect width="312" height="108" rx="24" fill="url(#paint1_linear)"/>
</mask>
<g mask="url(#mask0)">
<path d="M63.4333 16.2424V18.0212C62.9691 17.9767 62.5234 17.8168 62.1367 17.556C61.7502 17.2952 61.435 16.942 61.2198 16.5283C60.8067 15.9565 60.5208 15.5754 59.9277 15.5754C59.3346 15.5754 59.038 15.9565 58.625 16.5283C58.4148 16.9387 58.1029 17.2885 57.7192 17.5443C57.3354 17.8001 56.8925 17.9533 56.4326 17.9895C55.9667 17.9507 55.5186 17.7931 55.1311 17.5317C54.7435 17.2703 54.4295 16.9139 54.2191 16.4965C53.8166 15.9248 53.5412 15.5436 52.9375 15.5436C52.3338 15.5436 52.0585 15.9248 51.6454 16.4965C51.4359 16.9125 51.1237 17.268 50.7381 17.5292C50.3526 17.7905 49.9066 17.949 49.4426 17.9895C48.9764 17.9517 48.5277 17.7945 48.1401 17.533C47.7523 17.2715 47.4385 16.9145 47.2289 16.4965C46.8159 15.9248 46.5512 15.5436 45.9369 15.5436C45.3226 15.5436 45.0683 15.9248 44.6553 16.4965C44.4458 16.9145 44.132 17.2715 43.7442 17.533C43.3565 17.7945 42.908 17.9517 42.4418 17.9895C41.9778 17.949 41.5318 17.7905 41.1461 17.5292C40.7606 17.268 40.4483 16.9125 40.2389 16.4965C39.8259 15.9248 39.561 15.5436 38.9573 15.5436C38.3536 15.5436 38.0676 15.9248 37.6546 16.4965C37.4529 16.9227 37.1397 17.2864 36.7482 17.5492C36.3566 17.812 35.9013 17.9641 35.4304 17.9895C34.9662 17.9449 34.5206 17.785 34.1339 17.5242C33.7473 17.2635 33.4321 16.9102 33.2169 16.4965C32.8039 15.9248 32.5179 15.5436 31.9142 15.5436C31.3105 15.5436 31.0351 15.9248 30.6221 16.4965C30.4143 16.9137 30.1024 17.2703 29.7164 17.5318C29.3306 17.7933 28.8838 17.951 28.4191 17.9895C27.9532 17.9507 27.5051 17.7931 27.1176 17.5317C26.7301 17.2703 26.416 16.9139 26.2057 16.4965C25.7927 15.9248 25.5278 15.5436 24.9135 15.5436C24.2992 15.5436 24.0451 15.9248 23.6321 16.4965C23.4226 16.9125 23.1102 17.268 22.7246 17.5292C22.3391 17.7905 21.8931 17.949 21.429 17.9895C20.9629 17.9517 20.5143 17.7945 20.1265 17.533C19.7389 17.2715 19.4251 16.9145 19.2155 16.4965C18.8024 15.9248 18.5376 15.5436 17.9234 15.5436C17.3091 15.5436 17.0549 15.9248 16.6418 16.4965C16.4322 16.9145 16.1185 17.2715 15.7308 17.533C15.3431 17.7945 14.8945 17.9517 14.4284 17.9895C13.9643 17.949 13.5183 17.7905 13.1328 17.5292C12.7472 17.268 12.4348 16.9125 12.2254 16.4965C11.8123 15.9248 11.5369 15.5436 10.9332 15.5436C10.3295 15.5436 10.0436 15.9248 9.63053 16.4965C9.43248 16.9233 9.12173 17.2879 8.73166 17.551C8.34159 17.8141 7.88692 17.9657 7.41699 17.9895V16.2424C8.08423 16.2424 8.30664 15.8612 8.7197 15.2895C8.9223 14.8719 9.22796 14.5127 9.60776 14.246C9.98766 13.9792 10.4292 13.8136 10.8909 13.7648C11.3558 13.8023 11.8031 13.9595 12.1891 14.2211C12.5752 14.4828 12.8869 14.8399 13.0938 15.2577C13.5069 15.8295 13.7822 16.2107 14.3859 16.2107C14.9896 16.2107 15.265 15.8295 15.678 15.2577C15.886 14.8405 16.1979 14.4839 16.5838 14.2224C16.9696 13.9609 17.4164 13.8033 17.881 13.7648C18.3469 13.8035 18.7951 13.9611 19.1826 14.2225C19.5702 14.4839 19.8842 14.8403 20.0945 15.2577C20.5076 15.8295 20.783 16.2107 21.3867 16.2107C21.9903 16.2107 22.2551 15.8295 22.6682 15.2577C22.8777 14.8418 23.19 14.4863 23.5756 14.225C23.9611 13.9637 24.4071 13.8053 24.8711 13.7648C25.3373 13.8025 25.7859 13.9597 26.1736 14.2212C26.5614 14.4827 26.8751 14.8397 27.0847 15.2577C27.4977 15.8295 27.7625 16.2107 28.3768 16.2107C28.9911 16.2107 29.2452 15.8295 29.6583 15.2577C29.8687 14.8403 30.1828 14.4839 30.5703 14.2225C30.9578 13.9611 31.4059 13.8035 31.8718 13.7648C32.3377 13.8035 32.7859 13.9611 33.1735 14.2225C33.561 14.4839 33.875 14.8403 34.0855 15.2577C34.4985 15.8295 34.7208 16.2107 35.3881 16.2107C36.0553 16.2107 36.2777 15.8295 36.6908 15.2577C36.9012 14.8403 37.2153 14.4839 37.6028 14.2225C37.9903 13.9611 38.4385 13.8035 38.9043 13.7648C39.3702 13.8035 39.8184 13.9611 40.206 14.2225C40.5935 14.4839 40.9075 14.8403 41.1179 15.2577C41.5309 15.8295 41.7957 16.2107 42.3994 16.2107C43.0031 16.2107 43.2785 15.8295 43.6915 15.2577C43.901 14.8418 44.2133 14.4863 44.5989 14.225C44.9845 13.9637 45.4305 13.8053 45.8945 13.7648C46.3607 13.8025 46.8092 13.9597 47.1969 14.2212C47.5847 14.4827 47.8985 14.8397 48.108 15.2577C48.521 15.8295 48.7964 16.2107 49.4001 16.2107C50.0038 16.2107 50.2686 15.8295 50.6816 15.2577C50.8921 14.8403 51.206 14.4839 51.5936 14.2225C51.9812 13.9611 52.4293 13.8035 52.8952 13.7648C53.3598 13.8033 53.8066 13.9609 54.1925 14.2224C54.5784 14.4839 54.8903 14.8405 55.0981 15.2577C55.5112 15.8295 55.7866 16.2107 56.3903 16.2107C56.994 16.2107 57.2587 15.8295 57.6718 15.2577C57.8822 14.8403 58.1962 14.4839 58.5838 14.2225C58.9713 13.9611 59.4194 13.8035 59.8853 13.7648C60.3515 13.8025 60.8001 13.9597 61.1878 14.2212C61.5755 14.4827 61.8892 14.8397 62.0988 15.2577C62.5437 15.8295 62.7873 16.2424 63.4333 16.2424Z" fill="url(#paint2_linear)"/>
<path d="M70.022 20.3505V22.1294C69.557 22.0828 69.1107 21.9222 68.7227 21.6617C68.3347 21.4013 68.017 21.0491 67.7978 20.6364C67.3847 20.0647 67.1095 19.6835 66.5058 19.6835C65.9021 19.6835 65.6266 20.0647 65.2136 20.6364C65.0042 21.0524 64.6918 21.4079 64.3063 21.6692C63.9207 21.9304 63.4747 22.0889 63.0107 22.1294C62.5445 22.0916 62.096 21.9344 61.7082 21.6729C61.3205 21.4114 61.0067 21.0544 60.7972 20.6364C60.3841 20.0647 60.1194 19.6835 59.5051 19.6835C58.8908 19.6835 58.6366 20.0647 58.2235 20.6364C58.0131 21.0538 57.6992 21.4102 57.3115 21.6716C56.924 21.933 56.4758 22.0906 56.0099 22.1294C55.5454 22.0909 55.0985 21.9332 54.7127 21.6717C54.3268 21.4102 54.0149 21.0536 53.8071 20.6364C53.394 20.0647 53.1186 19.6835 52.5149 19.6835C51.9113 19.6835 51.6465 20.0647 51.2334 20.6364C51.023 21.0538 50.7089 21.4102 50.3214 21.6716C49.9339 21.933 49.4858 22.0906 49.0199 22.1294C48.5549 22.0919 48.1077 21.9347 47.7216 21.673C47.3356 21.4114 47.0239 21.0543 46.8169 20.6364C46.4039 20.0647 46.1285 19.6835 45.5248 19.6835C44.9211 19.6835 44.6351 20.0647 44.222 20.6364C44.0241 21.0632 43.7132 21.4278 43.3231 21.6909C42.9331 21.954 42.4785 22.1056 42.0086 22.1294C41.5435 22.0828 41.0972 21.9222 40.7093 21.6617C40.3212 21.4013 40.0036 21.0491 39.7844 20.6364C39.3714 20.0647 39.096 19.6835 38.4923 19.6835C37.8886 19.6835 37.6133 20.0647 37.2002 20.6364C36.9898 21.0538 36.6757 21.4102 36.2882 21.6716C35.9007 21.933 35.4526 22.0906 34.9867 22.1294C34.522 22.0909 34.0752 21.9332 33.6894 21.6717C33.3034 21.4102 32.9915 21.0536 32.7837 20.6364C32.3707 20.0647 32.0953 19.6835 31.4916 19.6835C30.8879 19.6835 30.6231 20.0647 30.2101 20.6364C29.9996 21.0538 29.6857 21.4102 29.2981 21.6716C28.9106 21.933 28.4625 22.0906 27.9966 22.1294C27.5319 22.0909 27.0851 21.9332 26.6992 21.6717C26.3133 21.4102 26.0014 21.0536 25.7936 20.6364C25.3805 20.0647 25.1051 19.6835 24.5014 19.6835C23.8977 19.6835 23.6224 20.0647 23.2094 20.6364C23.0023 21.0543 22.6906 21.4114 22.3046 21.673C21.9185 21.9347 21.4713 22.0919 21.0064 22.1294C20.5415 22.0919 20.0943 21.9347 19.7082 21.673C19.3221 21.4114 19.0104 21.0543 18.8034 20.6364C18.3903 20.0647 18.1151 19.6835 17.5114 19.6835C16.9077 19.6835 16.6217 20.0647 16.2087 20.6364C16.0096 21.0625 15.6986 21.4264 15.3087 21.6894C14.9188 21.9524 14.4647 22.1044 13.9951 22.1294V20.3505C14.6624 20.3505 14.8847 19.98 15.2977 19.3976C15.5056 18.9804 15.8175 18.6238 16.2034 18.3623C16.5893 18.1008 17.0361 17.9432 17.5008 17.9047C17.969 17.9445 18.419 18.1049 18.807 18.3702C19.1949 18.6356 19.5075 18.9968 19.7143 19.4188C20.1274 20.0011 20.4027 20.3717 21.0064 20.3717C21.6101 20.3717 21.8855 20.0011 22.2985 19.4188C22.5055 19.0009 22.8172 18.6438 23.2032 18.3822C23.5893 18.1206 24.0365 17.9633 24.5014 17.9258C24.9663 17.9633 25.4136 18.1206 25.7996 18.3822C26.1857 18.6438 26.4974 19.0009 26.7044 19.4188C27.1175 20.0011 27.3929 20.3717 27.9966 20.3717C28.6002 20.3717 28.8756 20.0011 29.2887 19.4188C29.4956 19.0009 29.8073 18.6438 30.1934 18.3822C30.5794 18.1206 31.0267 17.9633 31.4916 17.9258C31.9575 17.9646 32.4056 18.1222 32.7932 18.3836C33.1807 18.645 33.4947 19.0014 33.705 19.4188C34.1181 20.0011 34.383 20.3717 34.9867 20.3717C35.5904 20.3717 35.8656 20.0011 36.2787 19.4188C36.4882 19.0029 36.8005 18.6474 37.1861 18.3861C37.5716 18.1248 38.0176 17.9663 38.4817 17.9258C38.9494 17.9628 39.3998 18.1196 39.7893 18.3811C40.1789 18.6426 40.4946 19 40.7059 19.4188C41.1189 20.0011 41.3413 20.3717 42.0086 20.3717C42.6758 20.3717 42.8982 20.0011 43.3113 19.4188C43.5208 19.0008 43.8346 18.6438 44.2223 18.3823C44.6101 18.1208 45.0586 17.9636 45.5248 17.9258C45.9897 17.9633 46.4369 18.1206 46.823 18.3822C47.209 18.6438 47.5208 19.0009 47.7278 19.4188C48.1408 20.0011 48.4162 20.3717 49.0199 20.3717C49.6236 20.3717 49.8988 20.0011 50.3119 19.4188C50.5189 19.0009 50.8306 18.6438 51.2167 18.3822C51.6028 18.1206 52.05 17.9633 52.5149 17.9258C52.9798 17.9633 53.427 18.1206 53.8131 18.3822C54.1991 18.6438 54.5108 19.0009 54.7179 19.4188C55.1309 20.0011 55.4062 20.3717 56.0099 20.3717C56.6136 20.3717 56.8891 20.0011 57.3021 19.4188C57.5099 19.0016 57.8218 18.645 58.2078 18.3835C58.5936 18.122 59.0404 17.9643 59.5051 17.9258C59.9728 17.9628 60.4231 18.1196 60.8126 18.3811C61.2022 18.6426 61.5178 19 61.7292 19.4188C62.1423 20.0011 62.4069 20.3717 63.0212 20.3717C63.6355 20.3717 63.8898 20.0011 64.3028 19.4188C64.5122 19.0029 64.8247 18.6474 65.2102 18.3861C65.5958 18.1248 66.0417 17.9663 66.5058 17.9258C66.9717 17.9646 67.4198 18.1222 67.8073 18.3836C68.1948 18.645 68.5089 19.0014 68.7192 19.4188C69.1429 19.98 69.3548 20.3505 70.022 20.3505Z" fill="url(#paint3_linear)"/>
<path d="M77.2556 24.5013V26.2695C76.7919 26.2231 76.347 26.0624 75.9606 25.8018C75.5743 25.5413 75.2587 25.189 75.042 24.7766C74.629 24.2048 74.3536 23.8236 73.7499 23.8236C73.1462 23.8236 72.8603 24.2048 72.4472 24.7766C72.2367 25.2003 71.9184 25.5612 71.5243 25.8232C71.1303 26.0853 70.6743 26.2391 70.2019 26.2695C69.752 26.2181 69.3221 26.0546 68.952 25.7937C68.5819 25.5328 68.2832 25.183 68.0837 24.7766C67.6706 24.2048 67.3954 23.8236 66.7917 23.8236C66.188 23.8236 65.9125 24.2048 65.4995 24.7766C65.2917 25.1937 64.9798 25.5503 64.5938 25.8119C64.208 26.0734 63.7611 26.231 63.2965 26.2695C62.8306 26.2307 62.3825 26.0731 61.995 25.8118C61.6073 25.5503 61.2934 25.1939 61.083 24.7766C60.6699 24.2048 60.4051 23.8236 59.7909 23.8236C59.1766 23.8236 58.9225 24.2048 58.5094 24.7766C58.3015 25.1937 57.9896 25.5503 57.6037 25.8119C57.2179 26.0734 56.771 26.231 56.3064 26.2695C55.8405 26.2307 55.3924 26.0731 55.0048 25.8118C54.6173 25.5503 54.3033 25.1939 54.0928 24.7766C53.6798 24.2048 53.415 23.8236 52.8113 23.8236C52.2076 23.8236 51.9217 24.2048 51.5086 24.7766C51.307 25.2027 50.9938 25.5664 50.6022 25.8292C50.2108 26.092 49.7555 26.2442 49.2845 26.2695C48.8203 26.2249 48.3746 26.065 47.9879 25.8042C47.6014 25.5435 47.2861 25.1902 47.0709 24.7766C46.6579 24.2048 46.3719 23.8236 45.7682 23.8236C45.1645 23.8236 44.8893 24.2048 44.4762 24.7766C44.2692 25.1944 43.9575 25.5515 43.5713 25.8131C43.1853 26.0748 42.7381 26.232 42.2732 26.2695C41.8073 26.2307 41.3592 26.0731 40.9716 25.8118C40.5841 25.5503 40.2701 25.1939 40.0596 24.7766C39.6466 24.2048 39.3818 23.8236 38.7781 23.8236C38.1744 23.8236 37.8991 24.2048 37.486 24.7766C37.2738 25.1968 36.9566 25.5551 36.565 25.8167C36.1734 26.0783 35.7209 26.2342 35.2513 26.2695C34.7852 26.2317 34.3365 26.0746 33.9488 25.813C33.5612 25.5515 33.2473 25.1946 33.0377 24.7766C32.6247 24.2048 32.3599 23.8236 31.7456 23.8236C31.1313 23.8236 30.8772 24.2048 30.4641 24.7766C30.2545 25.1946 29.9408 25.5515 29.5531 25.813C29.1653 26.0746 28.7168 26.2317 28.2506 26.2695C27.7866 26.229 27.3406 26.0705 26.9551 25.8093C26.5694 25.548 26.2571 25.1925 26.0476 24.7766C25.6346 24.2048 25.3592 23.8236 24.7661 23.8236C24.173 23.8236 23.8764 24.2048 23.4634 24.7766C23.2617 25.2027 22.9486 25.5664 22.557 25.8292C22.1655 26.092 21.7102 26.2442 21.2393 26.2695V24.5013C21.9065 24.5013 22.1289 24.1201 22.542 23.5377C22.754 23.1216 23.0684 22.7663 23.4557 22.5051C23.8429 22.2439 24.2902 22.0855 24.7556 22.0448C25.2209 22.0855 25.6681 22.2439 26.0555 22.5051C26.4427 22.7663 26.757 23.1216 26.969 23.5377C27.3821 24.1201 27.6469 24.5013 28.2506 24.5013C28.8543 24.5013 29.1296 24.1201 29.5427 23.5377C29.7538 23.123 30.0665 22.7686 30.4518 22.5075C30.837 22.2465 31.2822 22.0872 31.7456 22.0448C32.2113 22.0845 32.659 22.2426 33.0464 22.5038C33.4338 22.7651 33.748 23.121 33.9593 23.5377C34.3723 24.1201 34.6476 24.5013 35.2513 24.5013C35.855 24.5013 36.1199 24.1201 36.5329 23.5377C36.7448 23.1216 37.0593 22.7663 37.4465 22.5051C37.8337 22.2439 38.2811 22.0855 38.7463 22.0448C39.2101 22.0863 39.6557 22.2451 40.0411 22.5063C40.4265 22.7675 40.7391 23.1224 40.9493 23.5377C41.3623 24.1201 41.6377 24.5013 42.2414 24.5013C42.8451 24.5013 43.1099 24.1201 43.5229 23.5377C43.735 23.1216 44.0494 22.7663 44.4366 22.5051C44.8238 22.2439 45.2712 22.0855 45.7366 22.0448C46.204 22.0828 46.6539 22.24 47.0433 22.5014C47.4326 22.7627 47.7485 23.1196 47.9606 23.5377C48.3737 24.1201 48.5961 24.5013 49.2633 24.5013C49.9305 24.5013 50.1531 24.1201 50.5661 23.5377C50.778 23.1216 51.0925 22.7663 51.4797 22.5051C51.8669 22.2439 52.3143 22.0855 52.7796 22.0448C53.2449 22.0855 53.6923 22.2439 54.0795 22.5051C54.4667 22.7663 54.7812 23.1216 54.9931 23.5377C55.4061 24.1201 55.6709 24.5013 56.2852 24.5013C56.8995 24.5013 57.1537 24.1201 57.5667 23.5377C57.7778 23.123 58.0906 22.7686 58.4759 22.5075C58.8611 22.2465 59.3062 22.0872 59.7698 22.0448C60.2354 22.0845 60.683 22.2426 61.0704 22.5038C61.4578 22.7651 61.772 23.121 61.9832 23.5377C62.3963 24.1201 62.6717 24.5013 63.2754 24.5013C63.8791 24.5013 64.1438 24.1201 64.5568 23.5377C64.7689 23.1216 65.0833 22.7663 65.4705 22.5051C65.8578 22.2439 66.3051 22.0855 66.7704 22.0448C67.2342 22.0863 67.6797 22.2451 68.0651 22.5063C68.4506 22.7675 68.7631 23.1224 68.9734 23.5377C69.3865 24.1201 69.6618 24.5013 70.2654 24.5013C70.8691 24.5013 71.1445 24.1201 71.547 23.5377C71.759 23.1216 72.0735 22.7663 72.4607 22.5051C72.8479 22.2439 73.2952 22.0855 73.7605 22.0448C74.2261 22.0845 74.6739 22.2426 75.0613 22.5038C75.4486 22.7651 75.7629 23.121 75.9741 23.5377C76.3659 24.1201 76.5566 24.5013 77.2556 24.5013Z" fill="url(#paint4_linear)"/>
<path d="M83.0908 27.646V29.4671H82.6142C82.4765 29.3083 82.36 29.1495 82.2541 29.0013C81.8516 28.4401 81.5657 28.0695 80.962 28.0695C80.867 28.058 80.771 28.058 80.676 28.0695C80.2736 28.186 80.0194 28.5142 79.6805 28.9907C79.5746 29.1389 79.4686 29.2977 79.331 29.4566H75.6241L75.264 28.9907C74.8509 28.4189 74.5861 28.0377 73.9825 28.0377C73.3788 28.0377 73.1034 28.4189 72.6903 28.9907L72.3408 29.4566H68.634C68.4963 29.2977 68.3904 29.1389 68.2739 28.9907C67.8714 28.4189 67.596 28.0377 66.9923 28.0377C66.3886 28.0377 66.1133 28.4189 65.7002 28.9907L65.3507 29.4566H61.6332L61.2837 28.9907C60.8707 28.4189 60.6059 28.0377 60.0022 28.0377C59.3985 28.0377 59.1126 28.4189 58.6995 28.9907C58.583 29.1389 58.4771 29.2977 58.3606 29.4566H54.6113L54.2618 28.9907C53.8488 28.4189 53.5734 28.0377 52.9697 28.0377C52.366 28.0377 52.0801 28.4189 51.667 28.9907L51.3175 29.4566H47.6C47.4792 29.3071 47.3662 29.1516 47.2611 28.9907C46.8481 28.4189 46.5727 28.0377 45.9584 28.0377C45.3441 28.0377 45.0899 28.4189 44.6769 28.9907L44.3274 29.4566H40.6205C40.4828 29.2977 40.3769 29.1389 40.2604 28.9907C39.8473 28.4189 39.5826 28.0377 38.9789 28.0377C38.3752 28.0377 38.0998 28.4189 37.6868 28.9907C37.5809 29.1389 37.4643 29.2977 37.3373 29.4566H33.6198L33.2703 28.9907C32.8572 28.4189 32.5924 28.0377 31.9782 28.0377C31.3639 28.0377 31.0885 28.4189 30.6755 28.9907C30.5695 29.1389 30.4636 29.2977 30.3365 29.4566H28.4619V28.7048C29.1292 28.7048 29.3516 28.3236 29.7646 27.7413C29.9772 27.3265 30.292 26.9728 30.6793 26.7134C31.0666 26.4541 31.5135 26.2976 31.9782 26.2589C32.4427 26.2976 32.8897 26.4541 33.2771 26.7134C33.6644 26.9728 33.9791 27.3265 34.1917 27.7413C34.6048 28.3236 34.8695 28.7048 35.4732 28.7048C36.0769 28.7048 36.3523 28.3236 36.7653 27.7413C36.9779 27.3265 37.2927 26.9728 37.68 26.7134C38.0673 26.4541 38.5143 26.2976 38.9789 26.2589C39.4416 26.2994 39.8864 26.4566 40.2717 26.7158C40.657 26.9751 40.9701 27.3279 41.1818 27.7413C41.5949 28.3236 41.8702 28.7048 42.4739 28.7048C43.0776 28.7048 43.3424 28.3236 43.7555 27.7413C43.9671 27.3279 44.2802 26.9751 44.6656 26.7158C45.0509 26.4566 45.4957 26.2994 45.9584 26.2589C46.4233 26.2966 46.8706 26.4526 47.258 26.7121C47.6456 26.9716 47.9602 27.3259 48.1719 27.7413C48.585 28.3236 48.8604 28.7048 49.4641 28.7048C50.0678 28.7048 50.3325 28.3236 50.7456 27.7413C50.9581 27.3265 51.2729 26.9728 51.6602 26.7134C52.0476 26.4541 52.4945 26.2976 52.9591 26.2589C53.4239 26.2966 53.8714 26.4526 54.2589 26.7121C54.6463 26.9716 54.9608 27.3259 55.1727 27.7413C55.5857 28.3236 55.8081 28.7048 56.4754 28.7048C57.1426 28.7048 57.365 28.3236 57.7781 27.7413C57.9906 27.3265 58.3054 26.9728 58.6927 26.7134C59.08 26.4541 59.5271 26.2976 59.9916 26.2589C60.4561 26.2976 60.9032 26.4541 61.2905 26.7134C61.6777 26.9728 61.9926 27.3265 62.2052 27.7413C62.6076 28.3236 62.883 28.7048 63.4973 28.7048C64.1116 28.7048 64.3657 28.3236 64.7788 27.7413C64.9914 27.3265 65.3061 26.9728 65.6934 26.7134C66.0808 26.4541 66.5277 26.2976 66.9923 26.2589C67.4553 26.2983 67.9006 26.4552 68.286 26.7145C68.6716 26.9739 68.9844 27.3273 69.1953 27.7413C69.6083 28.3236 69.8837 28.7048 70.4874 28.7048C71.0911 28.7048 71.3665 28.3236 71.7689 27.7413C71.9815 27.3265 72.2962 26.9728 72.6836 26.7134C73.0709 26.4541 73.5179 26.2976 73.9825 26.2589C74.4454 26.2983 74.8906 26.4552 75.2762 26.7145C75.6616 26.9739 75.9745 27.3273 76.1854 27.7413C76.5985 28.3236 76.8738 28.7048 77.4775 28.7048C78.0812 28.7048 78.346 28.3236 78.759 27.7413L79.1615 27.2119C79.3692 26.924 79.6409 26.6881 79.9551 26.5227C80.2693 26.3574 80.6176 26.2671 80.9726 26.2589C81.4139 26.2929 81.8396 26.4379 82.2098 26.6804C82.5802 26.9229 82.8832 27.2551 83.0908 27.646Z" fill="url(#paint5_linear)"/>
<path fill-rule="evenodd" clip-rule="evenodd" d="M272.545 0.773017C272.542 0.978958 272.458 1.17558 272.312 1.32022C272.165 1.46485 271.968 1.54596 271.761 1.54596C271.556 1.54596 271.36 1.46453 271.215 1.31958C271.07 1.17463 270.988 0.978005 270.988 0.773017C270.988 0.568029 271.07 0.371405 271.215 0.226452C271.36 0.0814994 271.556 7.64668e-05 271.761 7.64668e-05C271.864 -0.00136353 271.966 0.017547 272.06 0.0557705C272.155 0.093994 272.242 0.150747 272.315 0.222641C272.388 0.294536 272.446 0.380299 272.486 0.474746C272.525 0.569193 272.545 0.670629 272.545 0.773017Z" fill="url(#paint6_linear)"/>
<path fill-rule="evenodd" clip-rule="evenodd" d="M272.545 5.56945C272.545 5.67184 272.525 5.77317 272.486 5.86762C272.446 5.96217 272.388 6.04783 272.315 6.11972C272.242 6.19162 272.155 6.24837 272.06 6.28659C271.966 6.32481 271.864 6.34377 271.761 6.34239C271.556 6.34239 271.36 6.26097 271.215 6.11591C271.07 5.97096 270.988 5.77444 270.988 5.56945C270.988 5.36446 271.07 5.16784 271.215 5.02289C271.36 4.87793 271.556 4.79651 271.761 4.79651C271.968 4.7964 272.165 4.87751 272.312 5.02225C272.458 5.16689 272.542 5.3634 272.545 5.56945Z" fill="url(#paint7_linear)"/>
<path fill-rule="evenodd" clip-rule="evenodd" d="M272.545 10.3766C272.542 10.5826 272.458 10.7792 272.312 10.9238C272.165 11.0685 271.968 11.1496 271.761 11.1496C271.556 11.1496 271.36 11.0682 271.215 10.9232C271.07 10.7783 270.988 10.5816 270.988 10.3766C270.988 10.1717 271.07 9.97504 271.215 9.83008C271.36 9.68513 271.556 9.60371 271.761 9.60371C271.864 9.60233 271.966 9.62128 272.06 9.6594C272.155 9.69762 272.242 9.75438 272.315 9.82627C272.388 9.89817 272.446 9.98393 272.486 10.0784C272.525 10.1728 272.545 10.2743 272.545 10.3766Z" fill="url(#paint8_linear)"/>
<path fill-rule="evenodd" clip-rule="evenodd" d="M272.545 15.1731C272.545 15.2759 272.525 15.3779 272.486 15.4729C272.447 15.5679 272.388 15.6543 272.315 15.7271C272.243 15.7998 272.156 15.8576 272.061 15.8969C271.966 15.9363 271.864 15.9566 271.761 15.9566C271.555 15.9538 271.359 15.87 271.214 15.7234C271.07 15.5767 270.988 15.379 270.988 15.1731C270.988 14.9681 271.07 14.7715 271.215 14.6265C271.36 14.4816 271.556 14.4001 271.761 14.4001C271.968 14.4 272.165 14.4811 272.312 14.6259C272.458 14.7705 272.542 14.967 272.545 15.1731Z" fill="url(#paint9_linear)"/>
<path fill-rule="evenodd" clip-rule="evenodd" d="M272.545 19.9801C272.542 20.186 272.458 20.3827 272.312 20.5273C272.165 20.6719 271.968 20.753 271.761 20.753C271.556 20.753 271.36 20.6716 271.215 20.5267C271.07 20.3817 270.988 20.1851 270.988 19.9801C270.988 19.7751 271.07 19.5785 271.215 19.4335C271.36 19.2886 271.556 19.2072 271.761 19.2072C271.968 19.2072 272.165 19.2882 272.312 19.4329C272.458 19.5775 272.542 19.7742 272.545 19.9801Z" fill="url(#paint10_linear)"/>
<path fill-rule="evenodd" clip-rule="evenodd" d="M272.545 24.7766C272.545 24.8795 272.525 24.9814 272.486 25.0765C272.447 25.1714 272.388 25.2578 272.315 25.3306C272.243 25.4034 272.156 25.4611 272.061 25.5004C271.966 25.5398 271.864 25.5601 271.761 25.5601C271.555 25.5573 271.359 25.4735 271.214 25.3269C271.07 25.1802 270.988 24.9825 270.988 24.7766C270.988 24.5716 271.07 24.375 271.215 24.23C271.36 24.0851 271.556 24.0037 271.761 24.0037C271.968 24.0037 272.165 24.0847 272.312 24.2294C272.458 24.374 272.542 24.5707 272.545 24.7766Z" fill="url(#paint11_linear)"/>
<path fill-rule="evenodd" clip-rule="evenodd" d="M277.342 0.772941C277.342 0.977929 277.261 1.17445 277.116 1.31951C276.97 1.46446 276.775 1.54588 276.569 1.54588C276.364 1.54588 276.168 1.46446 276.023 1.31951C275.877 1.17445 275.796 0.977929 275.796 0.772941C275.796 0.567952 275.877 0.371329 276.023 0.226376C276.168 0.081423 276.364 0 276.569 0C276.775 0 276.97 0.081423 277.116 0.226376C277.261 0.371329 277.342 0.567952 277.342 0.772941Z" fill="url(#paint12_linear)"/>
<path fill-rule="evenodd" clip-rule="evenodd" d="M277.342 5.56945C277.342 5.77444 277.261 5.97096 277.116 6.11591C276.97 6.26097 276.775 6.34239 276.569 6.34239C276.364 6.34239 276.168 6.26097 276.023 6.11591C275.877 5.97096 275.796 5.77444 275.796 5.56945C275.796 5.36446 275.877 5.16784 276.023 5.02289C276.168 4.87793 276.364 4.79651 276.569 4.79651C276.775 4.79651 276.97 4.87793 277.116 5.02289C277.261 5.16784 277.342 5.36446 277.342 5.56945Z" fill="url(#paint13_linear)"/>
<path fill-rule="evenodd" clip-rule="evenodd" d="M277.342 10.3766C277.342 10.5816 277.261 10.7782 277.116 10.9231C276.97 11.0681 276.775 11.1495 276.569 11.1495C276.364 11.1495 276.168 11.0681 276.023 10.9231C275.877 10.7782 275.796 10.5816 275.796 10.3766C275.796 10.1716 275.877 9.97497 276.023 9.83001C276.168 9.68506 276.364 9.60364 276.569 9.60364C276.775 9.60364 276.97 9.68506 277.116 9.83001C277.261 9.97497 277.342 10.1716 277.342 10.3766Z" fill="url(#paint14_linear)"/>
<path fill-rule="evenodd" clip-rule="evenodd" d="M277.342 15.1731C277.342 15.379 277.261 15.5767 277.117 15.7234C276.972 15.87 276.776 15.9538 276.569 15.9566C276.364 15.9538 276.167 15.87 276.022 15.7234C275.877 15.5767 275.796 15.379 275.796 15.1731C275.796 14.9681 275.877 14.7715 276.023 14.6265C276.168 14.4816 276.364 14.4001 276.569 14.4001C276.775 14.4001 276.97 14.4816 277.116 14.6265C277.261 14.7715 277.342 14.9681 277.342 15.1731Z" fill="url(#paint15_linear)"/>
<path fill-rule="evenodd" clip-rule="evenodd" d="M277.342 19.9801C277.342 20.1851 277.261 20.3817 277.116 20.5267C276.97 20.6716 276.775 20.753 276.569 20.753C276.364 20.753 276.168 20.6716 276.023 20.5267C275.877 20.3817 275.796 20.1851 275.796 19.9801C275.796 19.7751 275.877 19.5785 276.023 19.4335C276.168 19.2886 276.364 19.2072 276.569 19.2072C276.775 19.2072 276.97 19.2886 277.116 19.4335C277.261 19.5785 277.342 19.7751 277.342 19.9801Z" fill="url(#paint16_linear)"/>
<path fill-rule="evenodd" clip-rule="evenodd" d="M277.342 24.7766C277.342 24.9825 277.261 25.1802 277.117 25.3269C276.972 25.4735 276.776 25.5573 276.569 25.5601C276.364 25.5573 276.167 25.4735 276.022 25.3269C275.877 25.1802 275.796 24.9825 275.796 24.7766C275.796 24.5716 275.877 24.375 276.023 24.23C276.168 24.0851 276.364 24.0037 276.569 24.0037C276.775 24.0037 276.97 24.0851 277.116 24.23C277.261 24.375 277.342 24.5716 277.342 24.7766Z" fill="url(#paint17_linear)"/>
<path fill-rule="evenodd" clip-rule="evenodd" d="M282.152 0.773017C282.148 0.978958 282.065 1.17558 281.919 1.32022C281.771 1.46485 281.574 1.54596 281.368 1.54596C281.162 1.54596 280.966 1.46453 280.821 1.31958C280.676 1.17463 280.595 0.978005 280.595 0.773017C280.595 0.568029 280.676 0.371405 280.821 0.226452C280.966 0.0814994 281.162 7.64668e-05 281.368 7.64668e-05C281.471 -0.00136353 281.572 0.017547 281.668 0.0557705C281.762 0.093994 281.849 0.150747 281.922 0.222641C281.995 0.294536 282.052 0.380299 282.092 0.474746C282.131 0.569193 282.152 0.670629 282.152 0.773017Z" fill="url(#paint18_linear)"/>
<path fill-rule="evenodd" clip-rule="evenodd" d="M282.152 5.56955C282.152 5.67194 282.131 5.77327 282.092 5.86771C282.052 5.96227 281.995 6.04792 281.922 6.11982C281.849 6.19171 281.762 6.24846 281.668 6.28669C281.572 6.32491 281.471 6.34386 281.368 6.34249C281.162 6.34249 280.966 6.26107 280.821 6.11601C280.676 5.97105 280.595 5.77454 280.595 5.56955C280.605 5.37007 280.693 5.18265 280.839 5.04649C280.986 4.91022 281.178 4.83589 281.378 4.83896C281.585 4.83885 281.782 4.91996 281.929 5.0647C282.075 5.20934 282.159 5.40585 282.162 5.6119L282.152 5.56955Z" fill="url(#paint19_linear)"/>
<path fill-rule="evenodd" clip-rule="evenodd" d="M282.152 10.3767C282.156 10.4813 282.139 10.5857 282.102 10.6837C282.066 10.7819 282.01 10.8716 281.938 10.9475C281.866 11.0235 281.779 11.0843 281.683 11.1263C281.587 11.1682 281.483 11.1906 281.379 11.192C281.277 11.192 281.176 11.1719 281.083 11.1331C280.989 11.0942 280.904 11.0373 280.832 10.9655C280.76 10.8938 280.703 10.8086 280.665 10.7147C280.626 10.6209 280.605 10.5205 280.605 10.419C280.605 10.3175 280.626 10.217 280.665 10.1232C280.703 10.0294 280.76 9.94424 280.832 9.87245C280.904 9.80067 280.989 9.7437 281.083 9.70484C281.176 9.66598 281.277 9.64608 281.379 9.64608C281.481 9.64459 281.583 9.66355 281.677 9.70177C281.773 9.74 281.859 9.79675 281.933 9.86864C282.006 9.94053 282.063 10.0262 282.103 10.1207C282.142 10.2152 282.162 10.3165 282.162 10.419L282.152 10.3767Z" fill="url(#paint20_linear)"/>
<path fill-rule="evenodd" clip-rule="evenodd" d="M282.152 15.1731C282.152 15.3808 282.07 15.5802 281.922 15.7271C281.775 15.874 281.576 15.9566 281.369 15.9566C281.162 15.9539 280.966 15.87 280.821 15.7233C280.677 15.5767 280.595 15.379 280.595 15.1731C280.591 15.068 280.608 14.9632 280.646 14.865C280.683 14.7668 280.74 14.6773 280.814 14.602C280.888 14.5267 280.976 14.4671 281.072 14.4269C281.169 14.3868 281.274 14.3668 281.379 14.3684C281.585 14.3684 281.783 14.4495 281.93 14.5941C282.076 14.7387 282.16 14.9354 282.163 15.1413L282.152 15.1731Z" fill="url(#paint21_linear)"/>
<path fill-rule="evenodd" clip-rule="evenodd" d="M282.152 19.9801C282.141 20.1787 282.055 20.3657 281.911 20.5034C281.768 20.6409 281.578 20.7189 281.379 20.7213C281.277 20.7213 281.176 20.7013 281.083 20.6624C280.989 20.6236 280.904 20.5666 280.832 20.4949C280.76 20.4231 280.703 20.3379 280.665 20.2441C280.626 20.1504 280.605 20.0498 280.605 19.9484C280.605 19.8468 280.626 19.7463 280.665 19.6525C280.703 19.5588 280.76 19.4736 280.832 19.4018C280.904 19.33 280.989 19.273 281.083 19.2342C281.176 19.1954 281.277 19.1754 281.379 19.1754C281.585 19.1754 281.782 19.2564 281.929 19.4012C282.076 19.5458 282.159 19.7424 282.162 19.9484L282.152 19.9801Z" fill="url(#paint22_linear)"/>
<path fill-rule="evenodd" clip-rule="evenodd" d="M282.152 24.7766C282.152 24.9843 282.069 25.1837 281.922 25.3306C281.776 25.4775 281.575 25.5601 281.368 25.5601C281.162 25.5573 280.965 25.4735 280.82 25.3269C280.676 25.1802 280.595 24.9825 280.595 24.7766C280.595 24.5716 280.676 24.375 280.821 24.23C280.966 24.0851 281.162 24.0037 281.368 24.0037C281.574 24.0037 281.771 24.0847 281.919 24.2294C282.065 24.374 282.148 24.5707 282.152 24.7766Z" fill="url(#paint23_linear)"/>
<path fill-rule="evenodd" clip-rule="evenodd" d="M286.949 0.772941C286.949 0.977929 286.867 1.17445 286.722 1.31951C286.577 1.46446 286.381 1.54588 286.175 1.54588C285.97 1.54588 285.774 1.46446 285.629 1.31951C285.484 1.17445 285.402 0.977929 285.402 0.772941C285.402 0.567952 285.484 0.371329 285.629 0.226376C285.774 0.081423 285.97 0 286.175 0C286.381 0 286.577 0.081423 286.722 0.226376C286.867 0.371329 286.949 0.567952 286.949 0.772941Z" fill="url(#paint24_linear)"/>
<path fill-rule="evenodd" clip-rule="evenodd" d="M286.949 5.56945C286.949 5.77444 286.867 5.97096 286.722 6.11591C286.577 6.26097 286.381 6.34239 286.175 6.34239C285.97 6.34239 285.774 6.26097 285.629 6.11591C285.484 5.97096 285.402 5.77444 285.402 5.56945C285.402 5.36446 285.484 5.16784 285.629 5.02289C285.774 4.87793 285.97 4.79651 286.175 4.79651C286.381 4.79651 286.577 4.87793 286.722 5.02289C286.867 5.16784 286.949 5.36446 286.949 5.56945Z" fill="url(#paint25_linear)"/>
<path fill-rule="evenodd" clip-rule="evenodd" d="M286.949 10.3766C286.949 10.5816 286.867 10.7782 286.722 10.9231C286.577 11.0681 286.381 11.1495 286.175 11.1495C285.97 11.1495 285.774 11.0681 285.629 10.9231C285.484 10.7782 285.402 10.5816 285.402 10.3766C285.402 10.1716 285.484 9.97497 285.629 9.83001C285.774 9.68506 285.97 9.60364 286.175 9.60364C286.381 9.60364 286.577 9.68506 286.722 9.83001C286.867 9.97497 286.949 10.1716 286.949 10.3766Z" fill="url(#paint26_linear)"/>
<path fill-rule="evenodd" clip-rule="evenodd" d="M286.949 15.1731C286.949 15.379 286.867 15.5767 286.723 15.7234C286.578 15.87 286.382 15.9538 286.175 15.9566C285.97 15.9538 285.773 15.87 285.628 15.7234C285.484 15.5767 285.402 15.379 285.402 15.1731C285.402 14.9681 285.484 14.7715 285.629 14.6265C285.774 14.4816 285.97 14.4001 286.175 14.4001C286.381 14.4001 286.577 14.4816 286.722 14.6265C286.867 14.7715 286.949 14.9681 286.949 15.1731Z" fill="url(#paint27_linear)"/>
<path fill-rule="evenodd" clip-rule="evenodd" d="M286.949 19.9801C286.949 20.1851 286.867 20.3817 286.722 20.5267C286.577 20.6716 286.381 20.753 286.175 20.753C285.97 20.753 285.774 20.6716 285.629 20.5267C285.484 20.3817 285.402 20.1851 285.402 19.9801C285.402 19.7751 285.484 19.5785 285.629 19.4335C285.774 19.2886 285.97 19.2072 286.175 19.2072C286.381 19.2072 286.577 19.2886 286.722 19.4335C286.867 19.5785 286.949 19.7751 286.949 19.9801Z" fill="url(#paint28_linear)"/>
<path fill-rule="evenodd" clip-rule="evenodd" d="M286.949 24.7766C286.949 24.9825 286.867 25.1802 286.723 25.3269C286.578 25.4735 286.382 25.5573 286.175 25.5601C285.97 25.5573 285.773 25.4735 285.628 25.3269C285.484 25.1802 285.402 24.9825 285.402 24.7766C285.402 24.5716 285.484 24.375 285.629 24.23C285.774 24.0851 285.97 24.0037 286.175 24.0037C286.381 24.0037 286.577 24.0851 286.722 24.23C286.867 24.375 286.949 24.5716 286.949 24.7766Z" fill="url(#paint29_linear)"/>
<g style="mix-blend-mode:multiply" opacity="0.7">
<path fill-rule="evenodd" clip-rule="evenodd" d="M17.5569 82.773C17.5537 82.979 17.47 83.1756 17.3239 83.3202C17.1767 83.4649 16.9797 83.546 16.7731 83.546C16.5677 83.546 16.3718 83.4645 16.2267 83.3196C16.0816 83.1746 16 82.978 16 82.773C16 82.568 16.0816 82.3714 16.2267 82.2265C16.3718 82.0815 16.5677 82.0001 16.7731 82.0001C16.8759 81.9986 16.9776 82.0175 17.0718 82.0558C17.1671 82.094 17.254 82.1507 17.3271 82.2226C17.4001 82.2945 17.4573 82.3803 17.4976 82.4747C17.5368 82.5692 17.5569 82.6706 17.5569 82.773Z" fill="url(#paint30_linear)"/>
<path fill-rule="evenodd" clip-rule="evenodd" d="M17.5569 87.5695C17.5569 87.6718 17.5368 87.7732 17.4976 87.8676C17.4573 87.9622 17.4001 88.0478 17.3271 88.1197C17.254 88.1916 17.1671 88.2484 17.0718 88.2866C16.9776 88.3248 16.8759 88.3438 16.7731 88.3424C16.5677 88.3424 16.3718 88.261 16.2267 88.1159C16.0816 87.971 16 87.7744 16 87.5695C16 87.3645 16.0816 87.1678 16.2267 87.0229C16.3718 86.8779 16.5677 86.7965 16.7731 86.7965C16.9797 86.7964 17.1767 86.8775 17.3239 87.0223C17.47 87.1669 17.5537 87.3634 17.5569 87.5695Z" fill="url(#paint31_linear)"/>
<path fill-rule="evenodd" clip-rule="evenodd" d="M17.5569 92.3766C17.5537 92.5826 17.47 92.7792 17.3239 92.9238C17.1767 93.0685 16.9797 93.1496 16.7731 93.1496C16.5677 93.1496 16.3718 93.0682 16.2267 92.9232C16.0816 92.7783 16 92.5816 16 92.3766C16 92.1717 16.0816 91.975 16.2267 91.8301C16.3718 91.6851 16.5677 91.6037 16.7731 91.6037C16.8759 91.6023 16.9776 91.6213 17.0718 91.6594C17.1671 91.6976 17.254 91.7544 17.3271 91.8263C17.4001 91.8982 17.4573 91.9839 17.4976 92.0784C17.5368 92.1728 17.5569 92.2743 17.5569 92.3766Z" fill="url(#paint32_linear)"/>
<path fill-rule="evenodd" clip-rule="evenodd" d="M17.5569 97.1731C17.5569 97.2759 17.5368 97.3779 17.4976 97.4729C17.4584 97.5679 17.4001 97.6543 17.3271 97.7271C17.2551 97.7998 17.1682 97.8576 17.0729 97.8969C16.9776 97.9363 16.8759 97.9566 16.7731 97.9566C16.5666 97.9538 16.3707 97.87 16.2256 97.7234C16.0815 97.5767 16 97.379 16 97.1731C16 96.9681 16.0816 96.7715 16.2267 96.6265C16.3718 96.4816 16.5677 96.4001 16.7731 96.4001C16.9797 96.4 17.1767 96.4811 17.3239 96.6259C17.47 96.7705 17.5537 96.967 17.5569 97.1731Z" fill="url(#paint33_linear)"/>
<path fill-rule="evenodd" clip-rule="evenodd" d="M17.5569 101.98C17.5537 102.186 17.47 102.383 17.3239 102.527C17.1767 102.672 16.9797 102.753 16.7731 102.753C16.5677 102.753 16.3718 102.672 16.2267 102.527C16.0816 102.382 16 102.185 16 101.98C16 101.775 16.0816 101.578 16.2267 101.434C16.3718 101.289 16.5677 101.207 16.7731 101.207C16.9797 101.207 17.1767 101.288 17.3239 101.433C17.47 101.578 17.5537 101.774 17.5569 101.98Z" fill="url(#paint34_linear)"/>
<path fill-rule="evenodd" clip-rule="evenodd" d="M17.5569 106.777C17.5569 106.88 17.5368 106.981 17.4976 107.076C17.4584 107.171 17.4001 107.258 17.3271 107.331C17.2551 107.403 17.1682 107.461 17.0729 107.5C16.9776 107.54 16.8759 107.56 16.7731 107.56C16.5666 107.557 16.3707 107.474 16.2256 107.327C16.0815 107.18 16 106.983 16 106.777C16 106.572 16.0816 106.375 16.2267 106.23C16.3718 106.085 16.5677 106.004 16.7731 106.004C16.9797 106.004 17.1767 106.085 17.3239 106.229C17.47 106.374 17.5537 106.571 17.5569 106.777Z" fill="url(#paint35_linear)"/>
<path fill-rule="evenodd" clip-rule="evenodd" d="M22.3539 82.7729C22.3539 82.9779 22.2724 83.1744 22.1273 83.3195C21.9822 83.4645 21.7862 83.5459 21.5808 83.5459C21.3753 83.5459 21.1794 83.4645 21.0343 83.3195C20.8892 83.1744 20.8076 82.9779 20.8076 82.7729C20.8076 82.568 20.8892 82.3713 21.0343 82.2264C21.1794 82.0814 21.3753 82 21.5808 82C21.7862 82 21.9822 82.0814 22.1273 82.2264C22.2724 82.3713 22.3539 82.568 22.3539 82.7729Z" fill="url(#paint36_linear)"/>
<path fill-rule="evenodd" clip-rule="evenodd" d="M22.3539 87.5695C22.3539 87.7744 22.2724 87.971 22.1273 88.1159C21.9822 88.261 21.7862 88.3424 21.5808 88.3424C21.3753 88.3424 21.1794 88.261 21.0343 88.1159C20.8892 87.971 20.8076 87.7744 20.8076 87.5695C20.8076 87.3645 20.8892 87.1678 21.0343 87.0229C21.1794 86.8779 21.3753 86.7965 21.5808 86.7965C21.7862 86.7965 21.9822 86.8779 22.1273 87.0229C22.2724 87.1678 22.3539 87.3645 22.3539 87.5695Z" fill="url(#paint37_linear)"/>
<path fill-rule="evenodd" clip-rule="evenodd" d="M22.3539 92.3766C22.3539 92.5816 22.2724 92.7782 22.1273 92.9231C21.9822 93.0681 21.7862 93.1495 21.5808 93.1495C21.3753 93.1495 21.1794 93.0681 21.0343 92.9231C20.8892 92.7782 20.8076 92.5816 20.8076 92.3766C20.8076 92.1716 20.8892 91.975 21.0343 91.83C21.1794 91.6851 21.3753 91.6036 21.5808 91.6036C21.7862 91.6036 21.9822 91.6851 22.1273 91.83C22.2724 91.975 22.3539 92.1716 22.3539 92.3766Z" fill="url(#paint38_linear)"/>
<path fill-rule="evenodd" clip-rule="evenodd" d="M22.3539 97.1731C22.3539 97.379 22.2724 97.5767 22.1283 97.7234C21.9832 97.87 21.7873 97.9538 21.5808 97.9566C21.3753 97.9538 21.1783 97.87 21.0332 97.7234C20.8892 97.5767 20.8076 97.379 20.8076 97.1731C20.8076 96.9681 20.8892 96.7715 21.0343 96.6265C21.1794 96.4816 21.3753 96.4001 21.5808 96.4001C21.7862 96.4001 21.9822 96.4816 22.1273 96.6265C22.2724 96.7715 22.3539 96.9681 22.3539 97.1731Z" fill="url(#paint39_linear)"/>
<path fill-rule="evenodd" clip-rule="evenodd" d="M22.3539 101.98C22.3539 102.185 22.2724 102.382 22.1273 102.527C21.9822 102.672 21.7862 102.753 21.5808 102.753C21.3753 102.753 21.1794 102.672 21.0343 102.527C20.8892 102.382 20.8076 102.185 20.8076 101.98C20.8076 101.775 20.8892 101.578 21.0343 101.434C21.1794 101.289 21.3753 101.207 21.5808 101.207C21.7862 101.207 21.9822 101.289 22.1273 101.434C22.2724 101.578 22.3539 101.775 22.3539 101.98Z" fill="url(#paint40_linear)"/>
<path fill-rule="evenodd" clip-rule="evenodd" d="M22.3539 106.777C22.3539 106.983 22.2724 107.18 22.1283 107.327C21.9832 107.474 21.7873 107.557 21.5808 107.56C21.3753 107.557 21.1783 107.474 21.0332 107.327C20.8892 107.18 20.8076 106.983 20.8076 106.777C20.8076 106.572 20.8892 106.375 21.0343 106.23C21.1794 106.085 21.3753 106.004 21.5808 106.004C21.7862 106.004 21.9822 106.085 22.1273 106.23C22.2724 106.375 22.3539 106.572 22.3539 106.777Z" fill="url(#paint41_linear)"/>
<path fill-rule="evenodd" clip-rule="evenodd" d="M27.1633 82.773C27.1601 82.979 27.0765 83.1756 26.9303 83.3202C26.7831 83.4649 26.5861 83.546 26.3796 83.546C26.1741 83.546 25.9782 83.4645 25.8331 83.3196C25.688 83.1746 25.6064 82.978 25.6064 82.773C25.6064 82.568 25.688 82.3714 25.8331 82.2265C25.9782 82.0815 26.1741 82.0001 26.3796 82.0001C26.4823 81.9986 26.584 82.0175 26.6793 82.0558C26.7736 82.094 26.8604 82.1507 26.9335 82.2226C27.0066 82.2945 27.0638 82.3803 27.104 82.4747C27.1432 82.5692 27.1633 82.6706 27.1633 82.773Z" fill="url(#paint42_linear)"/>
<path fill-rule="evenodd" clip-rule="evenodd" d="M27.1633 87.5695C27.1633 87.6719 27.1432 87.7733 27.104 87.8677C27.0638 87.9623 27.0066 88.0479 26.9335 88.1198C26.8604 88.1917 26.7736 88.2485 26.6793 88.2867C26.584 88.3249 26.4823 88.3439 26.3796 88.3425C26.1741 88.3425 25.9782 88.2611 25.8331 88.116C25.688 87.9711 25.6064 87.7745 25.6064 87.5695C25.617 87.3701 25.7049 87.1827 25.8511 87.0465C25.9972 86.9102 26.19 86.8359 26.3902 86.839C26.5967 86.8389 26.7937 86.92 26.9409 87.0647C27.0871 87.2093 27.1707 87.4059 27.1739 87.6119L27.1633 87.5695Z" fill="url(#paint43_linear)"/>
<path fill-rule="evenodd" clip-rule="evenodd" d="M27.1635 92.3767C27.1677 92.4813 27.1508 92.5857 27.1137 92.6837C27.0777 92.7819 27.0216 92.8716 26.9495 92.9475C26.8775 93.0235 26.7907 93.0843 26.6943 93.1263C26.599 93.1682 26.4952 93.1906 26.3903 93.192C26.2887 93.192 26.1881 93.1719 26.0949 93.1331C26.0006 93.0942 25.9159 93.0373 25.8438 92.9655C25.7718 92.8938 25.7146 92.8086 25.6765 92.7147C25.6373 92.6209 25.6172 92.5205 25.6172 92.419C25.6172 92.3175 25.6373 92.217 25.6765 92.1232C25.7146 92.0294 25.7718 91.9442 25.8438 91.8725C25.9159 91.8007 26.0006 91.7437 26.0949 91.7048C26.1881 91.666 26.2887 91.6461 26.3903 91.6461C26.4931 91.6446 26.5947 91.6635 26.689 91.7018C26.7843 91.74 26.8712 91.7967 26.9442 91.8686C27.0173 91.9405 27.0745 92.0262 27.1148 92.1207C27.154 92.2152 27.1741 92.3165 27.1741 92.419L27.1635 92.3767Z" fill="url(#paint44_linear)"/>
<path fill-rule="evenodd" clip-rule="evenodd" d="M27.164 97.1731C27.164 97.3808 27.0814 97.5802 26.9341 97.7271C26.7869 97.874 26.5878 97.9566 26.3802 97.9566C26.1737 97.9539 25.9778 97.87 25.8327 97.7233C25.6886 97.5767 25.6071 97.379 25.6071 97.1731C25.6028 97.068 25.6198 96.9632 25.6579 96.865C25.695 96.7668 25.7522 96.6773 25.8253 96.602C25.8994 96.5267 25.9873 96.4671 26.0837 96.4269C26.1811 96.3868 26.286 96.3668 26.3908 96.3684C26.5963 96.3684 26.7943 96.4495 26.9416 96.5941C27.0877 96.7387 27.1714 96.9354 27.1746 97.1413L27.164 97.1731Z" fill="url(#paint45_linear)"/>
<path fill-rule="evenodd" clip-rule="evenodd" d="M27.1635 101.98C27.1529 102.179 27.0671 102.366 26.9231 102.503C26.7801 102.641 26.5894 102.719 26.3903 102.721C26.2887 102.721 26.1881 102.701 26.0949 102.662C26.0006 102.624 25.9159 102.567 25.8438 102.495C25.7718 102.423 25.7146 102.338 25.6765 102.244C25.6373 102.15 25.6172 102.05 25.6172 101.948C25.6172 101.847 25.6373 101.746 25.6765 101.653C25.7146 101.559 25.7718 101.474 25.8438 101.402C25.9159 101.33 26.0006 101.273 26.0949 101.234C26.1881 101.195 26.2887 101.175 26.3903 101.175C26.5969 101.175 26.7939 101.256 26.9411 101.401C27.0872 101.546 27.1709 101.742 27.1741 101.948L27.1635 101.98Z" fill="url(#paint46_linear)"/>
<path fill-rule="evenodd" clip-rule="evenodd" d="M27.1633 106.777C27.1633 106.984 27.0807 107.184 26.9335 107.331C26.7873 107.478 26.5872 107.56 26.3796 107.56C26.1741 107.557 25.9771 107.474 25.832 107.327C25.688 107.18 25.6064 106.983 25.6064 106.777C25.6064 106.572 25.688 106.375 25.8331 106.23C25.9782 106.085 26.1741 106.004 26.3796 106.004C26.5861 106.004 26.7831 106.085 26.9303 106.229C27.0765 106.374 27.1601 106.571 27.1633 106.777Z" fill="url(#paint47_linear)"/>
<path fill-rule="evenodd" clip-rule="evenodd" d="M31.9604 82.7729C31.9604 82.9779 31.8788 83.1744 31.7337 83.3195C31.5886 83.4645 31.3927 83.5459 31.1872 83.5459C30.9817 83.5459 30.7858 83.4645 30.6407 83.3195C30.4956 83.1744 30.4141 82.9779 30.4141 82.7729C30.4141 82.568 30.4956 82.3713 30.6407 82.2264C30.7858 82.0814 30.9817 82 31.1872 82C31.3927 82 31.5886 82.0814 31.7337 82.2264C31.8788 82.3713 31.9604 82.568 31.9604 82.7729Z" fill="url(#paint48_linear)"/>
<path fill-rule="evenodd" clip-rule="evenodd" d="M31.9604 87.5695C31.9604 87.7744 31.8788 87.971 31.7337 88.1159C31.5886 88.261 31.3927 88.3424 31.1872 88.3424C30.9817 88.3424 30.7858 88.261 30.6407 88.1159C30.4956 87.971 30.4141 87.7744 30.4141 87.5695C30.4141 87.3645 30.4956 87.1678 30.6407 87.0229C30.7858 86.8779 30.9817 86.7965 31.1872 86.7965C31.3927 86.7965 31.5886 86.8779 31.7337 87.0229C31.8788 87.1678 31.9604 87.3645 31.9604 87.5695Z" fill="url(#paint49_linear)"/>
<path fill-rule="evenodd" clip-rule="evenodd" d="M31.9604 92.3766C31.9604 92.5816 31.8788 92.7782 31.7337 92.9231C31.5886 93.0681 31.3927 93.1495 31.1872 93.1495C30.9817 93.1495 30.7858 93.0681 30.6407 92.9231C30.4956 92.7782 30.4141 92.5816 30.4141 92.3766C30.4141 92.1716 30.4956 91.975 30.6407 91.83C30.7858 91.6851 30.9817 91.6036 31.1872 91.6036C31.3927 91.6036 31.5886 91.6851 31.7337 91.83C31.8788 91.975 31.9604 92.1716 31.9604 92.3766Z" fill="url(#paint50_linear)"/>
<path fill-rule="evenodd" clip-rule="evenodd" d="M31.9604 97.1731C31.9604 97.379 31.8788 97.5767 31.7348 97.7234C31.5897 97.87 31.3937 97.9538 31.1872 97.9566C30.9817 97.9538 30.7847 97.87 30.6397 97.7234C30.4956 97.5767 30.4141 97.379 30.4141 97.1731C30.4141 96.9681 30.4956 96.7715 30.6407 96.6265C30.7858 96.4816 30.9817 96.4001 31.1872 96.4001C31.3927 96.4001 31.5886 96.4816 31.7337 96.6265C31.8788 96.7715 31.9604 96.9681 31.9604 97.1731Z" fill="url(#paint51_linear)"/>
<path fill-rule="evenodd" clip-rule="evenodd" d="M31.9604 101.98C31.9604 102.185 31.8788 102.382 31.7337 102.527C31.5886 102.672 31.3927 102.753 31.1872 102.753C30.9817 102.753 30.7858 102.672 30.6407 102.527C30.4956 102.382 30.4141 102.185 30.4141 101.98C30.4141 101.775 30.4956 101.578 30.6407 101.434C30.7858 101.289 30.9817 101.207 31.1872 101.207C31.3927 101.207 31.5886 101.289 31.7337 101.434C31.8788 101.578 31.9604 101.775 31.9604 101.98Z" fill="url(#paint52_linear)"/>
<path fill-rule="evenodd" clip-rule="evenodd" d="M31.9604 106.777C31.9604 106.983 31.8788 107.18 31.7348 107.327C31.5897 107.474 31.3937 107.557 31.1872 107.56C30.9817 107.557 30.7847 107.474 30.6397 107.327C30.4956 107.18 30.4141 106.983 30.4141 106.777C30.4141 106.572 30.4956 106.375 30.6407 106.23C30.7858 106.085 30.9817 106.004 31.1872 106.004C31.3927 106.004 31.5886 106.085 31.7337 106.23C31.8788 106.375 31.9604 106.572 31.9604 106.777Z" fill="url(#paint53_linear)"/>
</g>
<path d="M67.3914 89.8001C67.0815 89.8001 66.784 89.6777 66.5638 89.4596C66.3438 89.2415 66.2186 88.9452 66.2158 88.6354V87.5766C66.2186 87.2667 66.3438 86.9705 66.5638 86.7524C66.784 86.5343 67.0815 86.4119 67.3914 86.4119C67.7014 86.4119 67.9988 86.5343 68.219 86.7524C68.4392 86.9705 68.5643 87.2667 68.567 87.5766V88.6354C68.5643 88.9452 68.4392 89.2415 68.219 89.4596C67.9988 89.6777 67.7014 89.8001 67.3914 89.8001Z" fill="url(#paint54_linear)" fill-opacity="0.5"/>
<path d="M67.3914 82.3988C67.0815 82.3988 66.784 82.2765 66.5638 82.0583C66.3438 81.8402 66.2186 81.544 66.2158 81.2341V80.1753C66.2158 79.8636 66.3396 79.5647 66.5601 79.3442C66.7806 79.1239 67.0796 79 67.3914 79C67.7032 79 68.0022 79.1239 68.2227 79.3442C68.4432 79.5647 68.567 79.8636 68.567 80.1753V81.2341C68.5643 81.544 68.4392 81.8402 68.219 82.0583C67.9988 82.2765 67.7014 82.3988 67.3914 82.3988Z" fill="url(#paint55_linear)" fill-opacity="0.5"/>
<path d="M71.6275 85.5647H70.5683C70.2584 85.5619 69.9621 85.4369 69.7439 85.2168C69.5258 84.9966 69.4033 84.6993 69.4033 84.3894C69.4033 84.0796 69.5258 83.7822 69.7439 83.562C69.9621 83.342 70.2584 83.2169 70.5683 83.2141H71.6275C71.9393 83.2141 72.2382 83.338 72.4587 83.5583C72.6793 83.7788 72.8031 84.0777 72.8031 84.3894C72.8031 84.7011 72.6793 85 72.4587 85.2205C72.2382 85.4409 71.9393 85.5647 71.6275 85.5647Z" fill="url(#paint56_linear)" fill-opacity="0.5"/>
<path d="M64.2347 85.5647H63.1756C62.8638 85.5647 62.5648 85.4409 62.3443 85.2205C62.1239 85 62 84.7011 62 84.3894C62 84.0777 62.1239 83.7788 62.3443 83.5583C62.5648 83.338 62.8638 83.2141 63.1756 83.2141H64.2347C64.5447 83.2169 64.841 83.342 65.0591 83.562C65.2774 83.7822 65.3997 84.0796 65.3997 84.3894C65.3997 84.6993 65.2774 84.9966 65.0591 85.2168C64.841 85.4369 64.5447 85.5619 64.2347 85.5647Z" fill="url(#paint57_linear)" fill-opacity="0.5"/>
<path d="M205.391 74.8001C205.082 74.8001 204.784 74.6777 204.564 74.4596C204.344 74.2415 204.219 73.9452 204.216 73.6354V72.5766C204.219 72.2667 204.344 71.9705 204.564 71.7524C204.784 71.5343 205.082 71.4119 205.391 71.4119C205.701 71.4119 205.999 71.5343 206.219 71.7524C206.439 71.9705 206.564 72.2667 206.567 72.5766V73.6354C206.564 73.9452 206.439 74.2415 206.219 74.4596C205.999 74.6777 205.701 74.8001 205.391 74.8001Z" fill="url(#paint58_linear)" fill-opacity="0.5"/>
<path d="M205.391 67.3988C205.082 67.3988 204.784 67.2765 204.564 67.0583C204.344 66.8402 204.219 66.544 204.216 66.2341V65.1753C204.216 64.8636 204.34 64.5647 204.56 64.3442C204.781 64.1239 205.08 64 205.391 64C205.703 64 206.002 64.1239 206.223 64.3442C206.443 64.5647 206.567 64.8636 206.567 65.1753V66.2341C206.564 66.544 206.439 66.8402 206.219 67.0583C205.999 67.2765 205.701 67.3988 205.391 67.3988Z" fill="url(#paint59_linear)" fill-opacity="0.5"/>
<path d="M209.627 70.5647H208.568C208.258 70.5619 207.962 70.4369 207.744 70.2168C207.526 69.9966 207.403 69.6993 207.403 69.3894C207.403 69.0796 207.526 68.7822 207.744 68.562C207.962 68.342 208.258 68.2169 208.568 68.2141H209.627C209.939 68.2141 210.238 68.338 210.459 68.5583C210.679 68.7788 210.803 69.0777 210.803 69.3894C210.803 69.7011 210.679 70 210.459 70.2205C210.238 70.4409 209.939 70.5647 209.627 70.5647Z" fill="url(#paint60_linear)" fill-opacity="0.5"/>
<path d="M202.235 70.5647H201.176C200.864 70.5647 200.565 70.4409 200.344 70.2205C200.124 70 200 69.7011 200 69.3894C200 69.0777 200.124 68.7788 200.344 68.5583C200.565 68.338 200.864 68.2141 201.176 68.2141H202.235C202.545 68.2169 202.841 68.342 203.059 68.562C203.277 68.7822 203.4 69.0796 203.4 69.3894C203.4 69.6993 203.277 69.9966 203.059 70.2168C202.841 70.4369 202.545 70.5619 202.235 70.5647Z" fill="url(#paint61_linear)" fill-opacity="0.5"/>
<g style="mix-blend-mode:multiply">
<path d="M111.391 42.8001C111.082 42.8001 110.784 42.6777 110.564 42.4596C110.344 42.2415 110.219 41.9452 110.216 41.6354V40.5766C110.219 40.2667 110.344 39.9705 110.564 39.7524C110.784 39.5343 111.082 39.4119 111.391 39.4119C111.701 39.4119 111.999 39.5343 112.219 39.7524C112.439 39.9705 112.564 40.2667 112.567 40.5766V41.6354C112.564 41.9452 112.439 42.2415 112.219 42.4596C111.999 42.6777 111.701 42.8001 111.391 42.8001Z" fill="url(#paint62_linear)" fill-opacity="0.5"/>
<path d="M111.391 35.3988C111.082 35.3988 110.784 35.2765 110.564 35.0583C110.344 34.8402 110.219 34.544 110.216 34.2341V33.1753C110.216 32.8636 110.34 32.5647 110.56 32.3442C110.781 32.1239 111.08 32 111.391 32C111.703 32 112.002 32.1239 112.223 32.3442C112.443 32.5647 112.567 32.8636 112.567 33.1753V34.2341C112.564 34.544 112.439 34.8402 112.219 35.0583C111.999 35.2765 111.701 35.3988 111.391 35.3988Z" fill="url(#paint63_linear)" fill-opacity="0.5"/>
<path d="M115.627 38.5647H114.568C114.258 38.5619 113.962 38.4369 113.744 38.2168C113.526 37.9966 113.403 37.6993 113.403 37.3894C113.403 37.0796 113.526 36.7822 113.744 36.562C113.962 36.342 114.258 36.2169 114.568 36.2141H115.627C115.939 36.2141 116.238 36.338 116.459 36.5583C116.679 36.7788 116.803 37.0777 116.803 37.3894C116.803 37.7011 116.679 38 116.459 38.2205C116.238 38.4409 115.939 38.5647 115.627 38.5647Z" fill="url(#paint64_linear)" fill-opacity="0.5"/>
<path d="M108.235 38.5647H107.176C106.864 38.5647 106.565 38.4409 106.344 38.2205C106.124 38 106 37.7011 106 37.3894C106 37.0777 106.124 36.7788 106.344 36.5583C106.565 36.338 106.864 36.2141 107.176 36.2141H108.235C108.545 36.2169 108.841 36.342 109.059 36.562C109.277 36.7822 109.4 37.0796 109.4 37.3894C109.4 37.6993 109.277 37.9966 109.059 38.2168C108.841 38.4369 108.545 38.5619 108.235 38.5647Z" fill="url(#paint65_linear)" fill-opacity="0.5"/>
</g>
<path d="M277.375 92.1251H259.337C261.752 92.1843 264.046 93.1585 265.731 94.8395C267.417 96.5205 268.358 98.7752 268.355 101.122C268.356 102.307 268.598 103.48 269.066 104.574C269.534 105.668 270.22 106.662 271.084 107.498C271.948 108.334 272.973 108.997 274.101 109.448C275.228 109.898 276.436 110.129 277.656 110.125C280.111 110.122 282.465 109.172 284.2 107.483C285.933 105.795 286.908 103.507 286.908 101.122C286.908 98.7369 285.933 96.4496 284.198 94.7625C282.464 93.0756 280.11 92.1269 277.656 92.1251H277.409" fill="url(#paint66_linear)"/>
</g>
<path d="M133.255 51.3474C133.255 56.1898 130.017 58.4015 124.884 58.4015H122.628V62.897C122.628 63.2459 122.489 63.5805 122.243 63.8271C121.996 64.0739 121.661 64.2125 121.312 64.2125H117.871C117.7 64.2105 117.531 64.175 117.374 64.1079C117.217 64.0408 117.075 63.9433 116.955 63.8212C116.836 63.6991 116.741 63.5546 116.678 63.3959C116.614 63.2374 116.582 63.0678 116.584 62.897V45.0739C116.584 44.7327 116.72 44.4055 116.961 44.1642C117.202 43.9229 117.53 43.7875 117.871 43.7875H124.956C130.523 43.7875 133.255 46.7941 133.255 51.3474ZM127.154 51.3474C127.167 51.0546 127.116 50.7625 127.004 50.4918C126.891 50.2211 126.721 49.9784 126.504 49.7811C126.287 49.5838 126.03 49.4366 125.75 49.3501C125.47 49.2635 125.174 49.2397 124.884 49.2803H122.628V53.4434H124.956C125.243 53.4707 125.532 53.436 125.804 53.3417C126.076 53.2475 126.325 53.0958 126.533 52.897C126.742 52.6983 126.905 52.457 127.012 52.1896C127.119 51.9223 127.167 51.6351 127.154 51.3474Z" fill="black"/>
<path d="M155.885 54.0072C155.874 56.0838 155.247 58.1103 154.085 59.8313C152.922 61.5521 151.276 62.89 149.353 63.6762C147.431 64.4622 145.318 64.6612 143.283 64.2481C141.247 63.835 139.379 62.8281 137.916 61.3548C136.452 59.8813 135.458 58.0074 135.058 55.9696C134.659 53.9316 134.873 51.8211 135.672 49.9045C136.472 47.988 137.821 46.351 139.551 45.2006C141.28 44.0502 143.311 43.4377 145.388 43.4405C146.783 43.4023 148.171 43.6498 149.467 44.1683C150.763 44.6867 151.939 45.4649 152.922 46.4548C153.906 47.4447 154.676 48.6255 155.186 49.9244C155.695 51.2233 155.933 52.6129 155.885 54.0072ZM149.856 54.0072C149.805 53.1367 149.501 52.3 148.98 51.6005C148.459 50.901 147.745 50.3692 146.926 50.0706C146.106 49.7722 145.217 49.7199 144.368 49.9206C143.519 50.1212 142.748 50.5658 142.149 51.1996C141.55 51.8334 141.149 52.6287 140.997 53.4873C140.844 54.3458 140.947 55.2303 141.291 56.0313C141.636 56.8325 142.207 57.5153 142.935 57.9957C143.663 58.4758 144.516 58.7325 145.388 58.7341C146.003 58.7549 146.616 58.645 147.185 58.4113C147.754 58.1776 148.266 57.8255 148.689 57.3784C149.112 56.9314 149.434 56.3996 149.635 55.8183C149.837 55.237 149.912 54.6197 149.856 54.0072Z" fill="black"/>
<path d="M178.669 54.0072C178.657 56.0831 178.031 58.1092 176.869 59.8297C175.707 61.5502 174.061 62.8882 172.14 63.6748C170.218 64.4612 168.106 64.6612 166.071 64.2492C164.036 63.8372 162.168 62.8317 160.704 61.3598C159.24 59.8878 158.244 58.0153 157.843 55.9784C157.442 53.9414 157.654 51.8314 158.451 49.9146C159.249 47.9978 160.596 46.3599 162.323 45.2076C164.05 44.0554 166.08 43.4405 168.157 43.4405C169.553 43.4023 170.942 43.65 172.238 44.1681C173.534 44.6864 174.711 45.4643 175.696 46.4541C176.68 47.4438 177.452 48.6244 177.963 49.9234C178.475 51.2223 178.715 52.612 178.669 54.0072ZM172.625 54.0072C172.574 53.1366 172.269 52.3 171.749 51.6005C171.228 50.901 170.514 50.3692 169.694 50.0706C168.875 49.7722 167.985 49.7199 167.137 49.9206C166.288 50.1212 165.516 50.5658 164.917 51.1996C164.318 51.8334 163.918 52.6287 163.765 53.4873C163.613 54.3458 163.716 55.2303 164.06 56.0313C164.405 56.8325 164.976 57.5153 165.704 57.9955C166.432 58.4758 167.285 58.7325 168.157 58.7339C168.772 58.7549 169.384 58.6449 169.953 58.4111C170.522 58.1774 171.035 57.8254 171.458 57.3784C171.88 56.9314 172.203 56.3995 172.404 55.8183C172.605 55.237 172.681 54.6197 172.625 54.0072Z" fill="black"/>
<path d="M193.476 58.7341C193.814 58.7379 194.135 58.8732 194.373 59.111C194.611 59.3486 194.746 59.67 194.75 60.0062V62.8972C194.754 63.0673 194.723 63.2366 194.662 63.3952C194.6 63.5535 194.506 63.6982 194.388 63.8206C194.269 63.9429 194.128 64.0406 193.972 64.1078C193.815 64.1752 193.647 64.2107 193.476 64.2127H182.402C182.23 64.2127 182.059 64.1785 181.901 64.1123C181.741 64.0459 181.597 63.9489 181.476 63.8265C181.356 63.7041 181.259 63.559 181.195 63.3995C181.13 63.24 181.098 63.0693 181.101 62.8972V45.0741C181.101 44.9039 181.134 44.7355 181.199 44.5785C181.265 44.4214 181.361 44.2789 181.482 44.1592C181.604 44.0396 181.747 43.9451 181.905 43.8814C182.063 43.8175 182.231 43.7857 182.402 43.7875H185.858C186.197 43.7913 186.523 43.9281 186.763 44.1686C187.004 44.409 187.141 44.7341 187.144 45.0741V58.7341H193.476Z" fill="black"/>
<defs>
<linearGradient id="paint0_linear" x1="156" y1="0.157561" x2="156" y2="108" gradientUnits="userSpaceOnUse">
<stop stop-color="#F9B233"/>
<stop offset="1" stop-color="#D97213"/>
</linearGradient>
<linearGradient id="paint1_linear" x1="155.982" y1="0" x2="155.982" y2="107.927" gradientUnits="userSpaceOnUse">
<stop stop-color="#6FD74A"/>
<stop offset="1" stop-color="#24A240"/>
</linearGradient>
<linearGradient id="paint2_linear" x1="7.4064" y1="15.8824" x2="63.4333" y2="15.8824" gradientUnits="userSpaceOnUse">
<stop stop-color="#F8AE31"/>
<stop offset="0.04" stop-color="#FAB622"/>
<stop offset="0.12" stop-color="#FBBF0F"/>
<stop offset="0.2" stop-color="#FDC504"/>
<stop offset="0.28" stop-color="#FDC700"/>
<stop offset="0.67" stop-color="#F8AE31"/>
<stop offset="0.89" stop-color="#FCC600"/>
<stop offset="1" stop-color="#F8AE31"/>
</linearGradient>
<linearGradient id="paint3_linear" x1="-39376.8" y1="-313.439" x2="-36413" y2="-313.439" gradientUnits="userSpaceOnUse">
<stop stop-color="#F8AE31"/>
<stop offset="0.04" stop-color="#FAB622"/>
<stop offset="0.12" stop-color="#FBBF0F"/>
<stop offset="0.2" stop-color="#FDC504"/>
<stop offset="0.28" stop-color="#FDC700"/>
<stop offset="0.67" stop-color="#F8AE31"/>
<stop offset="0.89" stop-color="#FCC600"/>
<stop offset="1" stop-color="#F8AE31"/>
</linearGradient>
<linearGradient id="paint4_linear" x1="-38979.6" y1="-292.781" x2="-36016.3" y2="-292.781" gradientUnits="userSpaceOnUse">
<stop stop-color="#F8AE31"/>
<stop offset="0.04" stop-color="#FAB622"/>
<stop offset="0.12" stop-color="#FBBF0F"/>
<stop offset="0.2" stop-color="#FDC504"/>
<stop offset="0.28" stop-color="#FDC700"/>
<stop offset="0.67" stop-color="#F8AE31"/>
<stop offset="0.89" stop-color="#FCC600"/>
<stop offset="1" stop-color="#F8AE31"/>
</linearGradient>
<linearGradient id="paint5_linear" x1="-37634.3" y1="-201.59" x2="-34815.5" y2="-201.59" gradientUnits="userSpaceOnUse">
<stop stop-color="#F8AE31"/>
<stop offset="0.04" stop-color="#FAB622"/>
<stop offset="0.12" stop-color="#FBBF0F"/>
<stop offset="0.2" stop-color="#FDC504"/>
<stop offset="0.28" stop-color="#FDC700"/>
<stop offset="0.67" stop-color="#F8AE31"/>
<stop offset="0.89" stop-color="#FCC600"/>
<stop offset="1" stop-color="#F8AE31"/>
</linearGradient>
<linearGradient id="paint6_linear" x1="270.988" y1="0.773018" x2="272.545" y2="0.773018" gradientUnits="userSpaceOnUse">
<stop stop-color="#F9B233"/>
<stop offset="1" stop-color="#D97213"/>
</linearGradient>
<linearGradient id="paint7_linear" x1="-630.139" y1="-85.3481" x2="-627.85" y2="-85.3481" gradientUnits="userSpaceOnUse">
<stop stop-color="#F9B233"/>
<stop offset="1" stop-color="#D97213"/>
</linearGradient>
<linearGradient id="paint8_linear" x1="-630.139" y1="-73.5223" x2="-627.85" y2="-73.5223" gradientUnits="userSpaceOnUse">
<stop stop-color="#F9B233"/>
<stop offset="1" stop-color="#D97213"/>
</linearGradient>
<linearGradient id="paint9_linear" x1="-630.139" y1="-62.2406" x2="-627.85" y2="-62.2406" gradientUnits="userSpaceOnUse">
<stop stop-color="#F9B233"/>
<stop offset="1" stop-color="#D97213"/>
</linearGradient>
<linearGradient id="paint10_linear" x1="-630.139" y1="-49.8937" x2="-627.85" y2="-49.8937" gradientUnits="userSpaceOnUse">
<stop stop-color="#F9B233"/>
<stop offset="1" stop-color="#D97213"/>
</linearGradient>
<linearGradient id="paint11_linear" x1="-630.139" y1="-38.5198" x2="-627.85" y2="-38.5198" gradientUnits="userSpaceOnUse">
<stop stop-color="#F9B233"/>
<stop offset="1" stop-color="#D97213"/>
</linearGradient>
<linearGradient id="paint12_linear" x1="-612.216" y1="-97.1432" x2="-609.958" y2="-97.1432" gradientUnits="userSpaceOnUse">
<stop stop-color="#F9B233"/>
<stop offset="1" stop-color="#D97213"/>
</linearGradient>
<linearGradient id="paint13_linear" x1="-612.216" y1="-85.3439" x2="-609.958" y2="-85.3439" gradientUnits="userSpaceOnUse">
<stop stop-color="#F9B233"/>
<stop offset="1" stop-color="#D97213"/>
</linearGradient>
<linearGradient id="paint14_linear" x1="-612.216" y1="-73.5184" x2="-609.958" y2="-73.5184" gradientUnits="userSpaceOnUse">
<stop stop-color="#F9B233"/>
<stop offset="1" stop-color="#D97213"/>
</linearGradient>
<linearGradient id="paint15_linear" x1="-612.216" y1="-62.2406" x2="-609.958" y2="-62.2406" gradientUnits="userSpaceOnUse">
<stop stop-color="#F9B233"/>
<stop offset="1" stop-color="#D97213"/>
</linearGradient>
<linearGradient id="paint16_linear" x1="-612.216" y1="-49.8938" x2="-609.958" y2="-49.8938" gradientUnits="userSpaceOnUse">
<stop stop-color="#F9B233"/>
<stop offset="1" stop-color="#D97213"/>
</linearGradient>
<linearGradient id="paint17_linear" x1="-612.216" y1="-38.5198" x2="-609.958" y2="-38.5198" gradientUnits="userSpaceOnUse">
<stop stop-color="#F9B233"/>
<stop offset="1" stop-color="#D97213"/>
</linearGradient>
<linearGradient id="paint18_linear" x1="-606.402" y1="-97.1477" x2="-604.114" y2="-97.1477" gradientUnits="userSpaceOnUse">
<stop stop-color="#F9B233"/>
<stop offset="1" stop-color="#D97213"/>
</linearGradient>
<linearGradient id="paint19_linear" x1="-612.448" y1="-82.8413" x2="-610.144" y2="-82.8413" gradientUnits="userSpaceOnUse">
<stop stop-color="#F9B233"/>
<stop offset="1" stop-color="#D97213"/>
</linearGradient>
<linearGradient id="paint20_linear" x1="-606.401" y1="-73.4801" x2="-604.112" y2="-73.4801" gradientUnits="userSpaceOnUse">
<stop stop-color="#F9B233"/>
<stop offset="1" stop-color="#D97213"/>
</linearGradient>
<linearGradient id="paint21_linear" x1="-612.823" y1="-63.8405" x2="-610.518" y2="-63.8405" gradientUnits="userSpaceOnUse">
<stop stop-color="#F9B233"/>
<stop offset="1" stop-color="#D97213"/>
</linearGradient>
<linearGradient id="paint22_linear" x1="-606.401" y1="-49.9256" x2="-604.112" y2="-49.9256" gradientUnits="userSpaceOnUse">
<stop stop-color="#F9B233"/>
<stop offset="1" stop-color="#D97213"/>
</linearGradient>
<linearGradient id="paint23_linear" x1="-606.402" y1="-38.5198" x2="-604.114" y2="-38.5198" gradientUnits="userSpaceOnUse">
<stop stop-color="#F9B233"/>
<stop offset="1" stop-color="#D97213"/>
</linearGradient>
<linearGradient id="paint24_linear" x1="-588.583" y1="-97.1433" x2="-586.326" y2="-97.1433" gradientUnits="userSpaceOnUse">
<stop stop-color="#F9B233"/>
<stop offset="1" stop-color="#D97213"/>
</linearGradient>
<linearGradient id="paint25_linear" x1="-588.583" y1="-85.3439" x2="-586.326" y2="-85.3439" gradientUnits="userSpaceOnUse">
<stop stop-color="#F9B233"/>
<stop offset="1" stop-color="#D97213"/>
</linearGradient>
<linearGradient id="paint26_linear" x1="-588.583" y1="-73.5184" x2="-586.326" y2="-73.5184" gradientUnits="userSpaceOnUse">
<stop stop-color="#F9B233"/>
<stop offset="1" stop-color="#D97213"/>
</linearGradient>
<linearGradient id="paint27_linear" x1="-588.583" y1="-62.2406" x2="-586.326" y2="-62.2406" gradientUnits="userSpaceOnUse">
<stop stop-color="#F9B233"/>
<stop offset="1" stop-color="#D97213"/>
</linearGradient>
<linearGradient id="paint28_linear" x1="-588.583" y1="-49.8938" x2="-586.326" y2="-49.8938" gradientUnits="userSpaceOnUse">
<stop stop-color="#F9B233"/>
<stop offset="1" stop-color="#D97213"/>
</linearGradient>
<linearGradient id="paint29_linear" x1="-588.583" y1="-38.5198" x2="-586.326" y2="-38.5198" gradientUnits="userSpaceOnUse">
<stop stop-color="#F9B233"/>
<stop offset="1" stop-color="#D97213"/>
</linearGradient>
<linearGradient id="paint30_linear" x1="16" y1="82.773" x2="17.5569" y2="82.773" gradientUnits="userSpaceOnUse">
<stop stop-color="#F9B233"/>
<stop offset="1" stop-color="#D97213"/>
</linearGradient>
<linearGradient id="paint31_linear" x1="-885.127" y1="-3.34813" x2="-882.839" y2="-3.34813" gradientUnits="userSpaceOnUse">
<stop stop-color="#F9B233"/>
<stop offset="1" stop-color="#D97213"/>
</linearGradient>
<linearGradient id="paint32_linear" x1="-885.127" y1="8.47775" x2="-882.839" y2="8.47775" gradientUnits="userSpaceOnUse">
<stop stop-color="#F9B233"/>
<stop offset="1" stop-color="#D97213"/>
</linearGradient>
<linearGradient id="paint33_linear" x1="-885.127" y1="19.7594" x2="-882.839" y2="19.7594" gradientUnits="userSpaceOnUse">
<stop stop-color="#F9B233"/>
<stop offset="1" stop-color="#D97213"/>
</linearGradient>
<linearGradient id="paint34_linear" x1="-885.127" y1="32.1063" x2="-882.839" y2="32.1063" gradientUnits="userSpaceOnUse">
<stop stop-color="#F9B233"/>
<stop offset="1" stop-color="#D97213"/>
</linearGradient>
<linearGradient id="paint35_linear" x1="-885.127" y1="43.4802" x2="-882.839" y2="43.4802" gradientUnits="userSpaceOnUse">
<stop stop-color="#F9B233"/>
<stop offset="1" stop-color="#D97213"/>
</linearGradient>
<linearGradient id="paint36_linear" x1="-867.204" y1="-15.1432" x2="-864.946" y2="-15.1432" gradientUnits="userSpaceOnUse">
<stop stop-color="#F9B233"/>
<stop offset="1" stop-color="#D97213"/>
</linearGradient>
<linearGradient id="paint37_linear" x1="-867.204" y1="-3.34389" x2="-864.946" y2="-3.34389" gradientUnits="userSpaceOnUse">
<stop stop-color="#F9B233"/>
<stop offset="1" stop-color="#D97213"/>
</linearGradient>
<linearGradient id="paint38_linear" x1="-867.204" y1="8.48159" x2="-864.946" y2="8.48159" gradientUnits="userSpaceOnUse">
<stop stop-color="#F9B233"/>
<stop offset="1" stop-color="#D97213"/>
</linearGradient>
<linearGradient id="paint39_linear" x1="-867.204" y1="19.7594" x2="-864.946" y2="19.7594" gradientUnits="userSpaceOnUse">
<stop stop-color="#F9B233"/>
<stop offset="1" stop-color="#D97213"/>
</linearGradient>
<linearGradient id="paint40_linear" x1="-867.204" y1="32.1062" x2="-864.946" y2="32.1062" gradientUnits="userSpaceOnUse">
<stop stop-color="#F9B233"/>
<stop offset="1" stop-color="#D97213"/>
</linearGradient>
<linearGradient id="paint41_linear" x1="-867.204" y1="43.4802" x2="-864.946" y2="43.4802" gradientUnits="userSpaceOnUse">
<stop stop-color="#F9B233"/>
<stop offset="1" stop-color="#D97213"/>
</linearGradient>
<linearGradient id="paint42_linear" x1="-861.391" y1="-15.1477" x2="-859.102" y2="-15.1477" gradientUnits="userSpaceOnUse">
<stop stop-color="#F9B233"/>
<stop offset="1" stop-color="#D97213"/>
</linearGradient>
<linearGradient id="paint43_linear" x1="-867.437" y1="-0.841265" x2="-865.132" y2="-0.841265" gradientUnits="userSpaceOnUse">
<stop stop-color="#F9B233"/>
<stop offset="1" stop-color="#D97213"/>
</linearGradient>
<linearGradient id="paint44_linear" x1="-861.389" y1="8.5199" x2="-859.1" y2="8.5199" gradientUnits="userSpaceOnUse">
<stop stop-color="#F9B233"/>
<stop offset="1" stop-color="#D97213"/>
</linearGradient>
<linearGradient id="paint45_linear" x1="-867.811" y1="18.1595" x2="-865.506" y2="18.1595" gradientUnits="userSpaceOnUse">
<stop stop-color="#F9B233"/>
<stop offset="1" stop-color="#D97213"/>
</linearGradient>
<linearGradient id="paint46_linear" x1="-861.389" y1="32.0744" x2="-859.1" y2="32.0744" gradientUnits="userSpaceOnUse">
<stop stop-color="#F9B233"/>
<stop offset="1" stop-color="#D97213"/>
</linearGradient>
<linearGradient id="paint47_linear" x1="-861.391" y1="43.4802" x2="-859.102" y2="43.4802" gradientUnits="userSpaceOnUse">
<stop stop-color="#F9B233"/>
<stop offset="1" stop-color="#D97213"/>
</linearGradient>
<linearGradient id="paint48_linear" x1="-843.572" y1="-15.1433" x2="-841.315" y2="-15.1433" gradientUnits="userSpaceOnUse">
<stop stop-color="#F9B233"/>
<stop offset="1" stop-color="#D97213"/>
</linearGradient>
<linearGradient id="paint49_linear" x1="-843.572" y1="-3.34389" x2="-841.315" y2="-3.34389" gradientUnits="userSpaceOnUse">
<stop stop-color="#F9B233"/>
<stop offset="1" stop-color="#D97213"/>
</linearGradient>
<linearGradient id="paint50_linear" x1="-843.572" y1="8.48158" x2="-841.315" y2="8.48158" gradientUnits="userSpaceOnUse">
<stop stop-color="#F9B233"/>
<stop offset="1" stop-color="#D97213"/>
</linearGradient>
<linearGradient id="paint51_linear" x1="-843.572" y1="19.7594" x2="-841.315" y2="19.7594" gradientUnits="userSpaceOnUse">
<stop stop-color="#F9B233"/>
<stop offset="1" stop-color="#D97213"/>
</linearGradient>
<linearGradient id="paint52_linear" x1="-843.572" y1="32.1062" x2="-841.315" y2="32.1062" gradientUnits="userSpaceOnUse">
<stop stop-color="#F9B233"/>
<stop offset="1" stop-color="#D97213"/>
</linearGradient>
<linearGradient id="paint53_linear" x1="-843.572" y1="43.4802" x2="-841.315" y2="43.4802" gradientUnits="userSpaceOnUse">
<stop stop-color="#F9B233"/>
<stop offset="1" stop-color="#D97213"/>
</linearGradient>
<linearGradient id="paint54_linear" x1="67.3914" y1="86.4119" x2="67.3914" y2="89.8001" gradientUnits="userSpaceOnUse">
<stop stop-color="#F4A82E"/>
<stop offset="1" stop-color="#FF8C1A"/>
</linearGradient>
<linearGradient id="paint55_linear" x1="67.3914" y1="79" x2="67.3914" y2="82.3988" gradientUnits="userSpaceOnUse">
<stop stop-color="#F4A82E"/>
<stop offset="1" stop-color="#FF8C1A"/>
</linearGradient>
<linearGradient id="paint56_linear" x1="71.1032" y1="83.2141" x2="71.1032" y2="85.5647" gradientUnits="userSpaceOnUse">
<stop stop-color="#F4A82E"/>
<stop offset="1" stop-color="#FF8C1A"/>
</linearGradient>
<linearGradient id="paint57_linear" x1="63.6999" y1="83.2141" x2="63.6999" y2="85.5647" gradientUnits="userSpaceOnUse">
<stop stop-color="#F4A82E"/>
<stop offset="1" stop-color="#FF8C1A"/>
</linearGradient>
<linearGradient id="paint58_linear" x1="205.391" y1="71.4119" x2="205.391" y2="74.8001" gradientUnits="userSpaceOnUse">
<stop stop-color="#F4A82E"/>
<stop offset="1" stop-color="#FF8C1A"/>
</linearGradient>
<linearGradient id="paint59_linear" x1="205.391" y1="64" x2="205.391" y2="67.3988" gradientUnits="userSpaceOnUse">
<stop stop-color="#F4A82E"/>
<stop offset="1" stop-color="#FF8C1A"/>
</linearGradient>
<linearGradient id="paint60_linear" x1="209.103" y1="68.2141" x2="209.103" y2="70.5647" gradientUnits="userSpaceOnUse">
<stop stop-color="#F4A82E"/>
<stop offset="1" stop-color="#FF8C1A"/>
</linearGradient>
<linearGradient id="paint61_linear" x1="201.7" y1="68.2141" x2="201.7" y2="70.5647" gradientUnits="userSpaceOnUse">
<stop stop-color="#F4A82E"/>
<stop offset="1" stop-color="#FF8C1A"/>
</linearGradient>
<linearGradient id="paint62_linear" x1="111.391" y1="39.4119" x2="111.391" y2="42.8001" gradientUnits="userSpaceOnUse">
<stop stop-color="#F4A82E"/>
<stop offset="1" stop-color="#FF8C1A"/>
</linearGradient>
<linearGradient id="paint63_linear" x1="111.391" y1="32" x2="111.391" y2="35.3988" gradientUnits="userSpaceOnUse">
<stop stop-color="#F4A82E"/>
<stop offset="1" stop-color="#FF8C1A"/>
</linearGradient>
<linearGradient id="paint64_linear" x1="115.103" y1="36.2141" x2="115.103" y2="38.5647" gradientUnits="userSpaceOnUse">
<stop stop-color="#F4A82E"/>
<stop offset="1" stop-color="#FF8C1A"/>
</linearGradient>
<linearGradient id="paint65_linear" x1="107.7" y1="36.2141" x2="107.7" y2="38.5647" gradientUnits="userSpaceOnUse">
<stop stop-color="#F4A82E"/>
<stop offset="1" stop-color="#FF8C1A"/>
</linearGradient>
<linearGradient id="paint66_linear" x1="273.122" y1="92.1251" x2="273.122" y2="110.125" gradientUnits="userSpaceOnUse">
<stop stop-color="#F4A92E"/>
<stop offset="1" stop-color="#DB7615"/>
</linearGradient>
</defs>
</svg>
