<svg width="26" height="17" viewBox="0 0 26 17" fill="none" xmlns="http://www.w3.org/2000/svg">
<path d="M17.6753 7.01299C19.6155 7.01299 21.1701 5.44675 21.1701 3.50649C21.1701 1.56623 19.6155 0 17.6753 0C15.735 0 14.1688 1.56623 14.1688 3.50649C14.1688 5.44675 15.735 7.01299 17.6753 7.01299ZM8.32464 7.01299C10.2649 7.01299 11.8194 5.44675 11.8194 3.50649C11.8194 1.56623 10.2649 0 8.32464 0C6.38438 0 4.81815 1.56623 4.81815 3.50649C4.81815 5.44675 6.38438 7.01299 8.32464 7.01299ZM8.32464 9.35065C5.60126 9.35065 0.142822 10.7182 0.142822 13.4416V15.1948C0.142822 15.8377 0.668796 16.3636 1.31165 16.3636H15.3376C15.9805 16.3636 16.5065 15.8377 16.5065 15.1948V13.4416C16.5065 10.7182 11.048 9.35065 8.32464 9.35065ZM17.6753 9.35065C17.3363 9.35065 16.9506 9.37403 16.5415 9.40909C16.5649 9.42078 16.5766 9.44416 16.5883 9.45584C17.9207 10.426 18.8441 11.7234 18.8441 13.4416V15.1948C18.8441 15.6039 18.7623 16.0013 18.6337 16.3636H24.6883C25.3311 16.3636 25.8571 15.8377 25.8571 15.1948V13.4416C25.8571 10.7182 20.3987 9.35065 17.6753 9.35065Z" fill="#C85C5C"/>
<g filter="url(#filter0_iii)">
<path d="M17.6753 7.01299C19.6155 7.01299 21.1701 5.44675 21.1701 3.50649C21.1701 1.56623 19.6155 0 17.6753 0C15.735 0 14.1688 1.56623 14.1688 3.50649C14.1688 5.44675 15.735 7.01299 17.6753 7.01299ZM8.32464 7.01299C10.2649 7.01299 11.8194 5.44675 11.8194 3.50649C11.8194 1.56623 10.2649 0 8.32464 0C6.38438 0 4.81815 1.56623 4.81815 3.50649C4.81815 5.44675 6.38438 7.01299 8.32464 7.01299ZM8.32464 9.35065C5.60126 9.35065 0.142822 10.7182 0.142822 13.4416V15.1948C0.142822 15.8377 0.668796 16.3636 1.31165 16.3636H15.3376C15.9805 16.3636 16.5065 15.8377 16.5065 15.1948V13.4416C16.5065 10.7182 11.048 9.35065 8.32464 9.35065ZM17.6753 9.35065C17.3543 9.35065 16.9915 9.37161 16.6066 9.4036C16.5881 9.40514 16.5747 9.44168 16.5875 9.45507C16.5882 9.45576 16.5887 9.45613 16.5894 9.45669C17.9213 10.4267 18.8441 11.7239 18.8441 13.4416V15.1948C18.8441 15.7769 19.245 16.3636 19.8271 16.3636H24.6883C25.3311 16.3636 25.8571 15.8377 25.8571 15.1948V13.4416C25.8571 10.7182 20.3987 9.35065 17.6753 9.35065Z" fill="#1E1E1E" fill-opacity="0.01"/>
</g>
<defs>
<filter id="filter0_iii" x="-1.31822" y="-0.730519" width="27.9058" height="18.5552" filterUnits="userSpaceOnUse" color-interpolation-filters="sRGB">
<feFlood flood-opacity="0" result="BackgroundImageFix"/>
<feBlend mode="normal" in="SourceGraphic" in2="BackgroundImageFix" result="shape"/>
<feColorMatrix in="SourceAlpha" type="matrix" values="0 0 0 0 0 0 0 0 0 0 0 0 0 0 0 0 0 0 127 0" result="hardAlpha"/>
<feOffset dx="0.730519" dy="1.46104"/>
<feGaussianBlur stdDeviation="1.46104"/>
<feComposite in2="hardAlpha" operator="arithmetic" k2="-1" k3="1"/>
<feColorMatrix type="matrix" values="0 0 0 0 0 0 0 0 0 0 0 0 0 0 0 0 0 0 0.16 0"/>
<feBlend mode="normal" in2="shape" result="effect1_innerShadow"/>
<feColorMatrix in="SourceAlpha" type="matrix" values="0 0 0 0 0 0 0 0 0 0 0 0 0 0 0 0 0 0 127 0" result="hardAlpha"/>
<feOffset dx="-1.46104" dy="-0.730519"/>
<feGaussianBlur stdDeviation="0.730519"/>
<feComposite in2="hardAlpha" operator="arithmetic" k2="-1" k3="1"/>
<feColorMatrix type="matrix" values="0 0 0 0 1 0 0 0 0 1 0 0 0 0 1 0 0 0 0.12 0"/>
<feBlend mode="normal" in2="effect1_innerShadow" result="effect2_innerShadow"/>
<feColorMatrix in="SourceAlpha" type="matrix" values="0 0 0 0 0 0 0 0 0 0 0 0 0 0 0 0 0 0 127 0" result="hardAlpha"/>
<feOffset dx="-1.46104"/>
<feGaussianBlur stdDeviation="0.730519"/>
<feComposite in2="hardAlpha" operator="arithmetic" k2="-1" k3="1"/>
<feColorMatrix type="matrix" values="0 0 0 0 1 0 0 0 0 1 0 0 0 0 1 0 0 0 1 0"/>
<feBlend mode="overlay" in2="effect2_innerShadow" result="effect3_innerShadow"/>
</filter>
</defs>
</svg>
