<svg width="24" height="23" viewBox="0 0 24 23" fill="none" xmlns="http://www.w3.org/2000/svg">
<path fill-rule="evenodd" clip-rule="evenodd" d="M3.95014 6.57299L6.75058 19.748L15.8718 17.8093L13.0713 4.63423L3.95014 6.57299ZM2.14476 4.30861C1.44511 4.45732 0.998487 5.14506 1.1472 5.84471L4.48619 21.5534C4.6349 22.2531 5.32264 22.6997 6.02229 22.551L17.6771 20.0736C18.3768 19.9249 18.8234 19.2372 18.6747 18.5375L15.3357 2.82885C15.187 2.1292 14.4992 1.68258 13.7996 1.8313L2.14476 4.30861ZM16.5881 2.63448C16.4859 2.22577 16.795 1.82985 17.2163 1.82986L19.8838 1.82986C20.2414 1.82986 20.5313 2.11978 20.5313 2.47742L20.5313 14.3672C20.5313 15.144 19.4133 15.2624 19.2506 14.5029L17.423 5.97428L16.5881 2.63448ZM9.59766 9.07987L7.34045 12.5557L10.8163 14.8129L13.0735 11.3371L9.59766 9.07987Z" fill="url(#paint0_linear)"/>
<defs>
<linearGradient id="paint0_linear" x1="2.79215" y1="13.5836" x2="22.0371" y2="9.49296" gradientUnits="userSpaceOnUse">
<stop stop-color="#39CEEE"/>
<stop offset="1" stop-color="#3CECCD"/>
</linearGradient>
</defs>
</svg>
