<svg width="125" height="104" viewBox="0 0 125 104" fill="none" xmlns="http://www.w3.org/2000/svg">
<rect width="125" height="104" rx="24" fill="url(#paint0_linear)"/>
<mask id="mask0" mask-type="alpha" maskUnits="userSpaceOnUse" x="0" y="0" width="125" height="104">
<rect width="125" height="104" rx="24" fill="url(#paint1_linear)"/>
</mask>
<g mask="url(#mask0)">
<path fill-rule="evenodd" clip-rule="evenodd" d="M92.2889 13.1514C100.464 13.1514 107.096 5.17772 107.096 -3.46701H77.4822C77.4822 -3.46701 77.4822 -4.13801 77.4822 -3.46701C77.4822 5.17772 84.1139 13.1514 92.3001 13.1514H92.2889Z" fill="url(#paint2_linear)"/>
<path fill-rule="evenodd" clip-rule="evenodd" d="M16.6184 52.2862C16.6184 44.1112 8.64472 37.4794 0 37.4794L2.23304e-06 67.0929C8.64472 67.0929 16.6184 60.4611 16.6184 52.2749V52.2862Z" fill="url(#paint3_linear)"/>
<path d="M122.003 70.1236H120.762C120.753 69.8358 120.684 69.5528 120.564 69.2915C120.443 69.0303 120.271 68.796 120.057 68.6026C119.735 68.3002 119.478 67.9347 119.302 67.5287C119.128 67.1227 119.038 66.685 119.039 66.2429C119.042 65.7964 119.132 65.3547 119.307 64.9437C119.481 64.5328 119.737 64.1608 120.057 63.8497C120.278 63.653 120.455 63.4119 120.576 63.142C120.698 62.8723 120.76 62.58 120.762 62.284C120.76 61.9882 120.698 61.6958 120.576 61.4261C120.455 61.1562 120.278 60.9151 120.057 60.7184C119.737 60.4072 119.481 60.0353 119.307 59.6244C119.132 59.2134 119.042 58.7717 119.039 58.3251C119.037 57.878 119.127 57.4352 119.301 57.0236C119.477 56.6122 119.734 56.2407 120.057 55.9319C120.277 55.7322 120.454 55.4889 120.575 55.2174C120.696 54.946 120.759 54.6523 120.762 54.355C120.76 54.0577 120.697 53.7638 120.576 53.4923C120.454 53.2207 120.277 52.9775 120.057 52.7782C119.737 52.4671 119.481 52.0951 119.307 51.6842C119.132 51.2733 119.042 50.8315 119.039 50.385C119.037 49.9379 119.127 49.495 119.301 49.0834C119.477 48.672 119.734 48.3005 120.057 47.9917C120.277 47.792 120.454 47.5488 120.575 47.2772C120.696 47.0058 120.759 46.7121 120.762 46.4149C120.76 46.1175 120.697 45.8236 120.576 45.5521C120.454 45.2805 120.277 45.0373 120.057 44.838C119.737 44.5269 119.481 44.1549 119.307 43.7441C119.132 43.3331 119.042 42.8913 119.039 42.4448C119.038 42.0011 119.128 41.5619 119.303 41.1542C119.478 40.7465 119.735 40.3789 120.057 40.0739C120.276 39.8802 120.452 39.6428 120.573 39.377C120.694 39.1111 120.758 38.8228 120.762 38.5306H122.003C121.979 39.4164 121.619 40.2601 120.996 40.8903C120.775 41.0866 120.597 41.3276 120.476 41.5975C120.354 41.8674 120.292 42.1601 120.292 42.456C120.291 42.7522 120.352 43.0452 120.474 43.3153C120.596 43.5855 120.774 43.8263 120.996 44.0216C121.315 44.3337 121.568 44.7061 121.74 45.1169C121.913 45.5279 122.003 45.9691 122.003 46.4149C122.003 46.8606 121.913 47.3019 121.74 47.7128C121.568 48.1237 121.315 48.4961 120.996 48.8081C120.775 49.0065 120.597 49.2495 120.475 49.5213C120.355 49.793 120.292 50.0874 120.292 50.385C120.292 50.6825 120.355 50.9769 120.475 51.2486C120.597 51.5204 120.775 51.7634 120.996 51.9618C121.315 52.2738 121.568 52.6462 121.74 53.0571C121.913 53.4681 122.003 53.9093 122.003 54.355C122.003 54.8008 121.913 55.2421 121.74 55.653C121.568 56.0639 121.315 56.4363 120.996 56.7483C120.774 56.9458 120.595 57.1887 120.474 57.4606C120.352 57.7325 120.291 58.0273 120.292 58.3251C120.292 58.6227 120.355 58.9171 120.475 59.1888C120.597 59.4606 120.775 59.7036 120.996 59.902C121.315 60.214 121.568 60.5864 121.74 60.9973C121.913 61.4083 122.003 61.8495 122.003 62.2952C122.003 62.741 121.913 63.1823 121.74 63.5932C121.568 64.004 121.315 64.3764 120.996 64.6885C120.774 64.886 120.595 65.1289 120.474 65.4007C120.352 65.6727 120.291 65.9675 120.292 66.2653C120.29 66.5551 120.352 66.8416 120.474 67.1045C120.596 67.3674 120.774 67.6003 120.996 67.7862C121.612 68.4127 121.97 69.2462 122.003 70.1236Z" fill="url(#paint4_linear)"/>
<path d="M124.955 62.0492H123.759C123.752 61.7609 123.686 61.4772 123.564 61.2155C123.443 60.9539 123.27 60.72 123.054 60.5283C122.734 60.222 122.48 59.8539 122.307 59.4463C122.134 59.0388 122.045 58.6002 122.048 58.1574C122.05 57.7135 122.139 57.2744 122.312 56.8655C122.485 56.4566 122.737 56.0861 123.054 55.7754C123.282 55.5752 123.465 55.327 123.585 55.0488C123.707 54.7704 123.767 54.4687 123.759 54.165C123.76 53.8688 123.698 53.5757 123.576 53.3056C123.455 53.0355 123.277 52.7947 123.054 52.5993C122.735 52.2873 122.483 51.9149 122.31 51.504C122.137 51.0931 122.048 50.6518 122.048 50.206C122.048 49.7603 122.137 49.3191 122.31 48.9081C122.483 48.4972 122.735 48.1248 123.054 47.8128C123.263 47.6259 123.434 47.3991 123.555 47.1456C123.676 46.8922 123.745 46.6172 123.759 46.3366C123.76 46.0388 123.698 45.744 123.576 45.472C123.456 45.2002 123.277 44.9573 123.054 44.7598C122.735 44.4477 122.483 44.0753 122.31 43.6645C122.137 43.2536 122.048 42.8123 122.048 42.3665C122.048 41.9208 122.137 41.4796 122.31 41.0686C122.483 40.6577 122.735 40.2853 123.054 39.9733C123.276 39.7749 123.453 39.5319 123.575 39.2601C123.696 38.9884 123.759 38.6941 123.759 38.3964C123.76 38.0986 123.698 37.8038 123.576 37.532C123.456 37.26 123.277 37.0171 123.054 36.8196C122.735 36.5076 122.483 36.1352 122.31 35.7243C122.137 35.3134 122.048 34.8721 122.048 34.4263C122.048 33.9838 122.136 33.5457 122.309 33.1382C122.482 32.7308 122.735 32.3626 123.054 32.0555C123.274 31.8631 123.451 31.6259 123.573 31.3599C123.694 31.0937 123.758 30.8047 123.759 30.5122H125C124.977 31.398 124.616 32.2417 123.994 32.8719C123.772 33.0681 123.594 33.3092 123.474 33.5791C123.352 33.849 123.289 34.1416 123.289 34.4375C123.288 34.7338 123.349 35.0268 123.471 35.297C123.593 35.567 123.771 35.8079 123.994 36.0032C124.312 36.3152 124.565 36.6876 124.737 37.0985C124.911 37.5095 125 37.9507 125 38.3964C125 38.8422 124.911 39.2835 124.737 39.6944C124.565 40.1053 124.312 40.4777 123.994 40.7897C123.772 40.9881 123.594 41.2312 123.472 41.5028C123.352 41.7746 123.289 42.0689 123.289 42.3665C123.289 42.6642 123.352 42.9585 123.472 43.2302C123.594 43.502 123.772 43.745 123.994 43.9434C124.312 44.2554 124.565 44.6278 124.737 45.0387C124.911 45.4497 125 45.8908 125 46.3366C125 46.7824 124.911 47.2237 124.737 47.6346C124.565 48.0454 124.312 48.4178 123.994 48.7298C123.771 48.9273 123.592 49.1702 123.471 49.4421C123.349 49.7141 123.287 50.0089 123.289 50.3067C123.289 50.6044 123.352 50.8986 123.472 51.1704C123.594 51.4421 123.772 51.6852 123.994 51.8836C124.312 52.1956 124.565 52.568 124.737 52.9788C124.911 53.3898 125 53.831 125 54.2768C125 54.7226 124.911 55.1638 124.737 55.5747C124.565 55.9856 124.312 56.358 123.994 56.67C123.771 56.8675 123.592 57.1104 123.471 57.3824C123.349 57.6543 123.287 57.9491 123.289 58.2469C123.287 58.5366 123.349 58.8232 123.471 59.0861C123.593 59.349 123.771 59.5818 123.994 59.7678C124.609 60.3943 124.968 61.2278 125 62.1051L124.955 62.0492Z" fill="url(#paint5_linear)"/>
<path d="M73.8362 76.7566C74.2948 76.6336 74.7645 76.5329 75.2342 76.4323C75.2509 76.5172 75.2509 76.6046 75.2342 76.6895C75.2342 76.8823 75.1581 77.0672 75.0217 77.2035C74.8852 77.3398 74.6996 77.4164 74.5072 77.4164C74.3272 77.4144 74.155 77.3459 74.023 77.2241C73.8899 77.1022 73.8083 76.9357 73.7915 76.7566H73.8362Z" fill="url(#paint6_linear)"/>
<path d="M78.3323 76.6895C78.3323 76.4967 78.4094 76.3119 78.5448 76.1755C78.6812 76.0392 78.8668 75.9626 79.0592 75.9626C79.2504 75.9655 79.4316 76.0435 79.5658 76.1795C79.7 76.3154 79.7749 76.4987 79.7749 76.6895C79.7749 76.8804 79.7 77.0636 79.5658 77.1996C79.4316 77.3357 79.2504 77.4135 79.0592 77.4164C78.8668 77.4164 78.6812 77.3398 78.5448 77.2035C78.4094 77.0672 78.3323 76.8823 78.3323 76.6895Z" fill="url(#paint7_linear)"/>
<path d="M82.8276 76.6895C82.8276 76.4967 82.9037 76.3119 83.0401 76.1755C83.1766 76.0392 83.3622 75.9626 83.5546 75.9626C83.7458 75.9655 83.927 76.0435 84.0612 76.1795C84.1954 76.3154 84.2703 76.4987 84.2703 76.6895C84.2703 76.8804 84.1954 77.0636 84.0612 77.1996C83.927 77.3357 83.7458 77.4135 83.5546 77.4164C83.3622 77.4164 83.1766 77.3398 83.0401 77.2035C82.9037 77.0672 82.8276 76.8823 82.8276 76.6895Z" fill="url(#paint8_linear)"/>
<path d="M87.3235 76.6895C87.3124 76.6042 87.3124 76.5176 87.3235 76.4323C87.7932 76.5329 88.2629 76.6336 88.7215 76.7566C88.7069 76.9366 88.6253 77.1046 88.4933 77.227C88.3602 77.3493 88.1858 77.417 88.0057 77.4164C87.8134 77.4164 87.6277 77.3398 87.4913 77.2035C87.356 77.0672 87.2788 76.8823 87.2788 76.6895H87.3235Z" fill="url(#paint9_linear)"/>
<path d="M64.8337 81.23C64.8366 81.0381 64.9141 80.8549 65.0498 80.7192C65.1856 80.5835 65.3688 80.506 65.5607 80.5031C65.7535 80.5031 65.9383 80.5797 66.0746 80.716C66.211 80.8523 66.2876 81.0372 66.2876 81.23C66.2876 81.4228 66.211 81.6076 66.0746 81.744C65.9383 81.8803 65.7535 81.9569 65.5607 81.9569C65.3688 81.954 65.1856 81.8765 65.0498 81.7408C64.9141 81.6051 64.8366 81.4219 64.8337 81.23Z" fill="url(#paint10_linear)"/>
<path d="M69.3406 81.23C69.3406 81.0391 69.4155 80.8559 69.5497 80.7199C69.6839 80.5839 69.8651 80.506 70.0563 80.5031C70.1514 80.5031 70.2464 80.5218 70.3348 80.5584C70.4231 80.595 70.5025 80.6484 70.5708 80.716C70.6379 80.7835 70.6915 80.8636 70.7284 80.9518C70.7642 81.04 70.7832 81.1346 70.7832 81.23C70.7832 81.4228 70.7072 81.6076 70.5708 81.744C70.4343 81.8803 70.2487 81.9569 70.0563 81.9569C69.8651 81.954 69.6839 81.8761 69.5497 81.74C69.4155 81.6041 69.3406 81.4209 69.3406 81.23Z" fill="url(#paint11_linear)"/>
<path d="M73.8364 81.23C73.8364 81.0391 73.9114 80.8559 74.0456 80.7199C74.1798 80.5839 74.3609 80.506 74.5522 80.5031C74.6472 80.5031 74.7423 80.5218 74.8306 80.5584C74.919 80.595 74.9984 80.6484 75.0666 80.716C75.1337 80.7835 75.1874 80.8636 75.2243 80.9518C75.2601 81.04 75.2791 81.1346 75.2791 81.23C75.2791 81.4228 75.203 81.6076 75.0666 81.744C74.9302 81.8803 74.7445 81.9569 74.5522 81.9569C74.3609 81.954 74.1798 81.8761 74.0456 81.74C73.9114 81.6041 73.8364 81.4209 73.8364 81.23Z" fill="url(#paint12_linear)"/>
<path d="M78.3323 81.23C78.3323 81.0372 78.4094 80.8523 78.5448 80.716C78.6812 80.5797 78.8668 80.5031 79.0592 80.5031C79.2504 80.506 79.4316 80.5839 79.5658 80.7199C79.7 80.8559 79.7749 81.0391 79.7749 81.23C79.7749 81.4209 79.7 81.6041 79.5658 81.74C79.4316 81.8761 79.2504 81.954 79.0592 81.9569C78.8668 81.9569 78.6812 81.8803 78.5448 81.744C78.4094 81.6076 78.3323 81.4228 78.3323 81.23Z" fill="url(#paint13_linear)"/>
<path d="M82.8276 81.23C82.8276 81.1346 82.8466 81.04 82.8824 80.9518C82.9193 80.8636 82.973 80.7835 83.0401 80.716C83.1083 80.6484 83.1877 80.595 83.2761 80.5584C83.3644 80.5218 83.4595 80.5031 83.5546 80.5031C83.7458 80.506 83.927 80.5839 84.0612 80.7199C84.1954 80.8559 84.2703 81.0391 84.2703 81.23C84.2703 81.4209 84.1954 81.6041 84.0612 81.74C83.927 81.8761 83.7458 81.954 83.5546 81.9569C83.3622 81.9569 83.1766 81.8803 83.0401 81.744C82.9037 81.6076 82.8276 81.4228 82.8276 81.23Z" fill="url(#paint14_linear)"/>
<path d="M87.3232 81.23C87.3232 81.1346 87.3423 81.04 87.378 80.9518C87.4149 80.8636 87.4686 80.7835 87.5357 80.716C87.6039 80.6484 87.6833 80.595 87.7717 80.5584C87.86 80.5218 87.9551 80.5031 88.0502 80.5031C88.2425 80.506 88.4248 80.5835 88.5612 80.7192C88.6966 80.8549 88.7737 81.0381 88.7771 81.23C88.7737 81.4219 88.6966 81.6051 88.5612 81.7408C88.4248 81.8765 88.2425 81.954 88.0502 81.9569C87.8578 81.9569 87.6722 81.8803 87.5357 81.744C87.3993 81.6076 87.3232 81.4228 87.3232 81.23Z" fill="url(#paint15_linear)"/>
<path d="M91.8191 81.23C91.8191 81.1346 91.8381 81.04 91.8739 80.9518C91.9108 80.8636 91.9645 80.7835 92.0316 80.716C92.0998 80.6484 92.1792 80.595 92.2675 80.5584C92.3559 80.5218 92.4509 80.5031 92.546 80.5031C92.6411 80.5031 92.7361 80.5218 92.8245 80.5584C92.9128 80.595 92.9922 80.6484 93.0604 80.716C93.1275 80.7835 93.1812 80.8636 93.2181 80.9518C93.2539 81.04 93.2729 81.1346 93.2729 81.23C93.2729 81.4228 93.1969 81.6076 93.0604 81.744C92.924 81.8803 92.7384 81.9569 92.546 81.9569C92.3536 81.9569 92.168 81.8803 92.0316 81.744C91.8951 81.6076 91.8191 81.4228 91.8191 81.23Z" fill="url(#paint16_linear)"/>
<path d="M96.3147 81.23C96.3147 81.1346 96.3337 81.04 96.3706 80.9518C96.4064 80.8636 96.4601 80.7835 96.5272 80.716C96.5954 80.6484 96.6748 80.595 96.7632 80.5584C96.8515 80.5218 96.9466 80.5031 97.0416 80.5031C97.1367 80.5031 97.2317 80.5218 97.3201 80.5584C97.4084 80.595 97.4878 80.6484 97.556 80.716C97.6231 80.7835 97.6768 80.8636 97.7137 80.9518C97.7495 81.04 97.7685 81.1346 97.7685 81.23C97.7685 81.4228 97.6925 81.6076 97.556 81.744C97.4196 81.8803 97.234 81.9569 97.0416 81.9569C96.8493 81.9569 96.6636 81.8803 96.5272 81.744C96.3919 81.6076 96.3147 81.4228 96.3147 81.23Z" fill="url(#paint17_linear)"/>
<path d="M60.3381 85.7033C60.341 85.5125 60.4189 85.3305 60.5549 85.1966C60.691 85.0626 60.8742 84.9876 61.0651 84.9876C61.2558 84.9876 61.4391 85.0626 61.5751 85.1966C61.7111 85.3305 61.7889 85.5125 61.792 85.7033C61.792 85.8961 61.7154 86.081 61.579 86.2173C61.4427 86.3536 61.2579 86.4302 61.0651 86.4302C60.8723 86.4302 60.6873 86.3536 60.551 86.2173C60.4146 86.081 60.3381 85.8961 60.3381 85.7033Z" fill="url(#paint18_linear)"/>
<path d="M64.8337 85.7033C64.8366 85.5125 64.9146 85.3305 65.0506 85.1966C65.1866 85.0626 65.3698 84.9876 65.5607 84.9876C65.7516 84.9876 65.9347 85.0626 66.0707 85.1966C66.2067 85.3305 66.2847 85.5125 66.2876 85.7033C66.2876 85.8961 66.211 86.081 66.0746 86.2173C65.9383 86.3536 65.7535 86.4302 65.5607 86.4302C65.3688 86.4273 65.1856 86.3498 65.0498 86.2142C64.9141 86.0784 64.8366 85.8952 64.8337 85.7033Z" fill="url(#paint19_linear)"/>
<path d="M69.3406 85.7033C69.3406 85.5135 69.4155 85.3315 69.5497 85.1973C69.685 85.0631 69.8662 84.9876 70.0563 84.9876C70.2476 84.9876 70.431 85.0626 70.5663 85.1966C70.7027 85.3305 70.7799 85.5125 70.7832 85.7033C70.7832 85.8961 70.7072 86.081 70.5708 86.2173C70.4343 86.3536 70.2487 86.4302 70.0563 86.4302C69.8651 86.4273 69.6839 86.3495 69.5497 86.2135C69.4155 86.0774 69.3406 85.8942 69.3406 85.7033Z" fill="url(#paint20_linear)"/>
<path d="M73.8364 85.7033C73.8364 85.5135 73.9113 85.3315 74.0467 85.1973C74.1809 85.0631 74.362 84.9876 74.5522 84.9876C74.7434 84.9876 74.9268 85.0626 75.0621 85.1966C75.1986 85.3305 75.2757 85.5125 75.2791 85.7033C75.2791 85.8961 75.203 86.081 75.0666 86.2173C74.9302 86.3536 74.7445 86.4302 74.5522 86.4302C74.3609 86.4273 74.1798 86.3495 74.0456 86.2135C73.9114 86.0774 73.8364 85.8942 73.8364 85.7033Z" fill="url(#paint21_linear)"/>
<path d="M78.3323 85.7033C78.3356 85.5125 78.4128 85.3305 78.5492 85.1966C78.6857 85.0626 78.868 84.9876 79.0592 84.9876C79.2493 84.9876 79.4316 85.0631 79.5658 85.1973C79.7 85.3315 79.7749 85.5135 79.7749 85.7033C79.7749 85.8942 79.7 86.0774 79.5658 86.2135C79.4316 86.3495 79.2504 86.4273 79.0592 86.4302C78.8668 86.4302 78.6812 86.3536 78.5448 86.2173C78.4094 86.081 78.3323 85.8961 78.3323 85.7033Z" fill="url(#paint22_linear)"/>
<path d="M82.8276 85.7033C82.831 85.5125 82.9082 85.3305 83.0446 85.1966C83.1799 85.0626 83.3633 84.9876 83.5546 84.9876C83.7447 84.9876 83.927 85.0631 84.0612 85.1973C84.1954 85.3315 84.2703 85.5135 84.2703 85.7033C84.2703 85.8942 84.1954 86.0774 84.0612 86.2135C83.927 86.3495 83.7458 86.4273 83.5546 86.4302C83.3622 86.4302 83.1766 86.3536 83.0401 86.2173C82.9037 86.081 82.8276 85.8961 82.8276 85.7033Z" fill="url(#paint23_linear)"/>
<path d="M87.3232 85.7033C87.3266 85.5125 87.4038 85.3305 87.5402 85.1966C87.6755 85.0626 87.8589 84.9876 88.0502 84.9876C88.2414 84.9876 88.4237 85.0626 88.5601 85.1966C88.6966 85.3305 88.7737 85.5125 88.7771 85.7033C88.7737 85.8952 88.6966 86.0784 88.5612 86.2142C88.4248 86.3498 88.2425 86.4273 88.0502 86.4302C87.8578 86.4302 87.6722 86.3536 87.5357 86.2173C87.3993 86.081 87.3232 85.8961 87.3232 85.7033Z" fill="url(#paint24_linear)"/>
<path d="M91.8191 85.7033C91.8224 85.5125 91.8996 85.3305 92.036 85.1966C92.1714 85.0626 92.3548 84.9876 92.546 84.9876C92.7372 84.9876 92.9195 85.0626 93.056 85.1966C93.1924 85.3305 93.2696 85.5125 93.2729 85.7033C93.2729 85.8961 93.1969 86.081 93.0604 86.2173C92.924 86.3536 92.7384 86.4302 92.546 86.4302C92.3536 86.4302 92.168 86.3536 92.0316 86.2173C91.8951 86.081 91.8191 85.8961 91.8191 85.7033Z" fill="url(#paint25_linear)"/>
<path d="M96.3147 85.7033C96.3181 85.5125 96.3952 85.3305 96.5317 85.1966C96.6681 85.0626 96.8504 84.9876 97.0416 84.9876C97.2329 84.9876 97.4163 85.0626 97.5516 85.1966C97.688 85.3305 97.7652 85.5125 97.7685 85.7033C97.7685 85.8961 97.6925 86.081 97.556 86.2173C97.4196 86.3536 97.234 86.4302 97.0416 86.4302C96.8493 86.4302 96.6636 86.3536 96.5272 86.2173C96.3919 86.081 96.3147 85.8961 96.3147 85.7033Z" fill="url(#paint26_linear)"/>
<path d="M100.81 85.7033C100.814 85.5125 100.891 85.3305 101.027 85.1966C101.164 85.0626 101.346 84.9876 101.537 84.9876C101.728 84.9876 101.912 85.0626 102.047 85.1966C102.184 85.3305 102.261 85.5125 102.264 85.7033C102.264 85.8961 102.188 86.081 102.052 86.2173C101.915 86.3536 101.73 86.4302 101.537 86.4302C101.345 86.4302 101.159 86.3536 101.023 86.2173C100.887 86.081 100.81 85.8961 100.81 85.7033Z" fill="url(#paint27_linear)"/>
<path d="M55.8423 90.1767C55.8452 89.9859 55.923 89.8038 56.059 89.6699C56.195 89.536 56.3783 89.4609 56.5692 89.4609C56.76 89.4609 56.9433 89.536 57.0793 89.6699C57.2153 89.8038 57.2931 89.9859 57.2961 90.1767C57.2961 90.3695 57.2195 90.5543 57.0832 90.6906C56.9469 90.827 56.762 90.9036 56.5692 90.9036C56.3764 90.9036 56.1914 90.827 56.0552 90.6906C55.9189 90.5543 55.8423 90.3695 55.8423 90.1767Z" fill="url(#paint28_linear)"/>
<path d="M60.3381 90.1767C60.341 89.9859 60.4189 89.8038 60.5549 89.6699C60.691 89.536 60.8742 89.4609 61.0651 89.4609C61.2558 89.4609 61.4391 89.536 61.5751 89.6699C61.7111 89.8038 61.7889 89.9859 61.792 90.1767C61.792 90.3695 61.7154 90.5543 61.579 90.6906C61.4427 90.827 61.2579 90.9036 61.0651 90.9036C60.8723 90.9036 60.6873 90.827 60.551 90.6906C60.4146 90.5543 60.3381 90.3695 60.3381 90.1767Z" fill="url(#paint29_linear)"/>
<path d="M64.8337 90.1767C64.8366 89.9859 64.9146 89.8038 65.0506 89.6699C65.1866 89.536 65.3698 89.4609 65.5607 89.4609C65.7516 89.4609 65.9347 89.536 66.0707 89.6699C66.2067 89.8038 66.2847 89.9859 66.2876 90.1767C66.2876 90.3695 66.211 90.5543 66.0746 90.6906C65.9383 90.827 65.7535 90.9036 65.5607 90.9036C65.3688 90.9007 65.1856 90.8232 65.0498 90.6875C64.9141 90.5517 64.8366 90.3686 64.8337 90.1767Z" fill="url(#paint30_linear)"/>
<path d="M69.3406 90.1767C69.3406 89.9869 69.4155 89.8048 69.5497 89.6706C69.685 89.5364 69.8662 89.4609 70.0563 89.4609C70.2476 89.4609 70.431 89.536 70.5663 89.6699C70.7027 89.8038 70.7799 89.9859 70.7832 90.1767C70.7832 90.3695 70.7072 90.5543 70.5708 90.6906C70.4343 90.827 70.2487 90.9036 70.0563 90.9036C69.8651 90.9007 69.6839 90.8228 69.5497 90.6868C69.4155 90.5507 69.3406 90.3676 69.3406 90.1767Z" fill="url(#paint31_linear)"/>
<path d="M73.8364 90.1767C73.8364 89.9869 73.9113 89.8048 74.0467 89.6706C74.1809 89.5364 74.362 89.4609 74.5522 89.4609C74.7434 89.4609 74.9268 89.536 75.0621 89.6699C75.1986 89.8038 75.2757 89.9859 75.2791 90.1767C75.2791 90.3695 75.203 90.5543 75.0666 90.6906C74.9302 90.827 74.7445 90.9036 74.5522 90.9036C74.3609 90.9007 74.1798 90.8228 74.0456 90.6868C73.9114 90.5507 73.8364 90.3676 73.8364 90.1767Z" fill="url(#paint32_linear)"/>
<path d="M78.3323 90.1767C78.3356 89.9859 78.4128 89.8038 78.5492 89.6699C78.6857 89.536 78.868 89.4609 79.0592 89.4609C79.2493 89.4609 79.4316 89.5364 79.5658 89.6706C79.7 89.8048 79.7749 89.9869 79.7749 90.1767C79.7749 90.3676 79.7 90.5507 79.5658 90.6868C79.4316 90.8228 79.2504 90.9007 79.0592 90.9036C78.8668 90.9036 78.6812 90.827 78.5448 90.6906C78.4094 90.5543 78.3323 90.3695 78.3323 90.1767Z" fill="url(#paint33_linear)"/>
<path d="M82.8276 90.1767C82.831 89.9859 82.9082 89.8038 83.0446 89.6699C83.1799 89.536 83.3633 89.4609 83.5546 89.4609C83.7447 89.4609 83.927 89.5364 84.0612 89.6706C84.1954 89.8048 84.2703 89.9869 84.2703 90.1767C84.2703 90.3676 84.1954 90.5507 84.0612 90.6868C83.927 90.8228 83.7458 90.9007 83.5546 90.9036C83.3622 90.9036 83.1766 90.827 83.0401 90.6906C82.9037 90.5543 82.8276 90.3695 82.8276 90.1767Z" fill="url(#paint34_linear)"/>
<path d="M87.3232 90.1767C87.3266 89.9859 87.4038 89.8038 87.5402 89.6699C87.6755 89.536 87.8589 89.4609 88.0502 89.4609C88.2414 89.4609 88.4237 89.536 88.5601 89.6699C88.6966 89.8038 88.7737 89.9859 88.7771 90.1767C88.7737 90.3686 88.6966 90.5517 88.5612 90.6875C88.4248 90.8232 88.2425 90.9007 88.0502 90.9036C87.8578 90.9036 87.6722 90.827 87.5357 90.6906C87.3993 90.5543 87.3232 90.3695 87.3232 90.1767Z" fill="url(#paint35_linear)"/>
<path d="M91.8191 90.1767C91.8224 89.9859 91.8996 89.8038 92.036 89.6699C92.1714 89.536 92.3548 89.4609 92.546 89.4609C92.7372 89.4609 92.9195 89.536 93.056 89.6699C93.1924 89.8038 93.2696 89.9859 93.2729 90.1767C93.2729 90.3695 93.1969 90.5543 93.0604 90.6906C92.924 90.827 92.7384 90.9036 92.546 90.9036C92.3536 90.9036 92.168 90.827 92.0316 90.6906C91.8951 90.5543 91.8191 90.3695 91.8191 90.1767Z" fill="url(#paint36_linear)"/>
<path d="M96.3147 90.1767C96.3181 89.9859 96.3952 89.8038 96.5317 89.6699C96.6681 89.536 96.8504 89.4609 97.0416 89.4609C97.2329 89.4609 97.4163 89.536 97.5516 89.6699C97.688 89.8038 97.7652 89.9859 97.7685 90.1767C97.7685 90.3695 97.6925 90.5543 97.556 90.6906C97.4196 90.827 97.234 90.9036 97.0416 90.9036C96.8493 90.9036 96.6636 90.827 96.5272 90.6906C96.3919 90.5543 96.3147 90.3695 96.3147 90.1767Z" fill="url(#paint37_linear)"/>
<path d="M100.81 90.1767C100.814 89.9859 100.891 89.8038 101.027 89.6699C101.164 89.536 101.346 89.4609 101.537 89.4609C101.728 89.4609 101.912 89.536 102.047 89.6699C102.184 89.8038 102.261 89.9859 102.264 90.1767C102.264 90.3695 102.188 90.5543 102.052 90.6906C101.915 90.827 101.73 90.9036 101.537 90.9036C101.345 90.9036 101.159 90.827 101.023 90.6906C100.887 90.5543 100.81 90.3695 100.81 90.1767Z" fill="url(#paint38_linear)"/>
<path d="M105.306 90.1767C105.31 89.9859 105.387 89.8038 105.523 89.6699C105.658 89.536 105.842 89.4609 106.033 89.4609C106.224 89.4609 106.407 89.536 106.543 89.6699C106.679 89.8038 106.757 89.9859 106.76 90.1767C106.76 90.3695 106.683 90.5543 106.548 90.6906C106.411 90.827 106.225 90.9036 106.033 90.9036C105.841 90.9036 105.655 90.827 105.519 90.6906C105.382 90.5543 105.306 90.3695 105.306 90.1767Z" fill="url(#paint39_linear)"/>
<path d="M55.8423 94.65C55.8423 94.4572 55.9189 94.2723 56.0552 94.136C56.1914 93.9997 56.3764 93.9231 56.5692 93.9231C56.762 93.9231 56.9469 93.9997 57.0832 94.136C57.2195 94.2723 57.2961 94.4572 57.2961 94.65C57.2931 94.8409 57.2153 95.0228 57.0793 95.1568C56.9433 95.2907 56.76 95.3657 56.5692 95.3657C56.3783 95.3657 56.195 95.2907 56.059 95.1568C55.923 95.0228 55.8452 94.8409 55.8423 94.65Z" fill="url(#paint40_linear)"/>
<path d="M60.3381 94.65C60.3381 94.4572 60.4146 94.2723 60.551 94.136C60.6873 93.9997 60.8723 93.9231 61.0651 93.9231C61.2579 93.9231 61.4427 93.9997 61.579 94.136C61.7154 94.2723 61.792 94.4572 61.792 94.65C61.7889 94.8409 61.7111 95.0228 61.5751 95.1568C61.4391 95.2907 61.2558 95.3657 61.0651 95.3657C60.8742 95.3657 60.691 95.2907 60.5549 95.1568C60.4189 95.0228 60.341 94.8409 60.3381 94.65Z" fill="url(#paint41_linear)"/>
<path d="M64.8337 94.65C64.8366 94.4581 64.9141 94.2749 65.0498 94.1392C65.1856 94.0035 65.3688 93.926 65.5607 93.9231C65.7535 93.9231 65.9383 93.9997 66.0746 94.136C66.211 94.2723 66.2876 94.4572 66.2876 94.65C66.2847 94.8409 66.2067 95.0228 66.0707 95.1568C65.9347 95.2907 65.7516 95.3657 65.5607 95.3657C65.3698 95.3657 65.1866 95.2907 65.0506 95.1568C64.9146 95.0228 64.8366 94.8409 64.8337 94.65Z" fill="url(#paint42_linear)"/>
<path d="M69.3406 94.65C69.3406 94.4591 69.4155 94.2759 69.5497 94.1399C69.6839 94.0039 69.8651 93.926 70.0563 93.9231C70.2487 93.9231 70.4343 93.9997 70.5708 94.136C70.7072 94.2723 70.7832 94.4572 70.7832 94.65C70.7799 94.8409 70.7027 95.0228 70.5663 95.1568C70.431 95.2907 70.2476 95.3657 70.0563 95.3657C69.8662 95.3657 69.685 95.2903 69.5497 95.1561C69.4155 95.0218 69.3406 94.8399 69.3406 94.65Z" fill="url(#paint43_linear)"/>
<path d="M91.8191 94.65C91.8191 94.4572 91.8951 94.2723 92.0316 94.136C92.168 93.9997 92.3536 93.9231 92.546 93.9231C92.7384 93.9231 92.924 93.9997 93.0604 94.136C93.1969 94.2723 93.2729 94.4572 93.2729 94.65C93.2696 94.8409 93.1924 95.0228 93.056 95.1568C92.9195 95.2907 92.7372 95.3657 92.546 95.3657C92.3548 95.3657 92.1714 95.2907 92.036 95.1568C91.8996 95.0228 91.8224 94.8409 91.8191 94.65Z" fill="url(#paint44_linear)"/>
<path d="M96.3147 94.65C96.3147 94.4572 96.3919 94.2723 96.5272 94.136C96.6636 93.9997 96.8493 93.9231 97.0416 93.9231C97.234 93.9231 97.4196 93.9997 97.556 94.136C97.6925 94.2723 97.7685 94.4572 97.7685 94.65C97.7652 94.8409 97.688 95.0228 97.5516 95.1568C97.4163 95.2907 97.2329 95.3657 97.0416 95.3657C96.8504 95.3657 96.6681 95.2907 96.5317 95.1568C96.3952 95.0228 96.3181 94.8409 96.3147 94.65Z" fill="url(#paint45_linear)"/>
<path d="M100.81 94.65C100.81 94.4572 100.887 94.2723 101.023 94.136C101.159 93.9997 101.345 93.9231 101.537 93.9231C101.73 93.9231 101.915 93.9997 102.052 94.136C102.188 94.2723 102.264 94.4572 102.264 94.65C102.261 94.8409 102.184 95.0228 102.047 95.1568C101.912 95.2907 101.728 95.3657 101.537 95.3657C101.346 95.3657 101.164 95.2907 101.027 95.1568C100.891 95.0228 100.814 94.8409 100.81 94.65Z" fill="url(#paint46_linear)"/>
<path d="M105.306 94.65C105.306 94.4572 105.382 94.2723 105.519 94.136C105.655 93.9997 105.841 93.9231 106.033 93.9231C106.225 93.9231 106.411 93.9997 106.548 94.136C106.683 94.2723 106.76 94.4572 106.76 94.65C106.757 94.8409 106.679 95.0228 106.543 95.1568C106.407 95.2907 106.224 95.3657 106.033 95.3657C105.842 95.3657 105.658 95.2907 105.523 95.1568C105.387 95.0228 105.31 94.8409 105.306 94.65Z" fill="url(#paint47_linear)"/>
<path d="M52.1849 98.4523C52.3679 98.4664 52.5388 98.5491 52.6631 98.684C52.7876 98.8189 52.8565 98.9957 52.8559 99.1792C52.853 99.3701 52.7752 99.5521 52.6392 99.686C52.5031 99.8199 52.3199 99.895 52.129 99.895C52.0403 99.9112 51.9494 99.9112 51.8606 99.895C51.9612 99.4253 52.0731 98.9556 52.1849 98.497V98.4523Z" fill="url(#paint48_linear)"/>
<path d="M55.8423 99.1792C55.8423 99.0837 55.8611 98.9892 55.8976 98.9011C55.9341 98.8129 55.9877 98.7327 56.0552 98.6652C56.1227 98.5977 56.2028 98.5441 56.291 98.5077C56.3792 98.4711 56.4737 98.4523 56.5692 98.4523C56.6646 98.4523 56.7591 98.4711 56.8473 98.5077C56.9356 98.5441 57.0156 98.5977 57.0832 98.6652C57.1506 98.7327 57.2042 98.8129 57.2408 98.9011C57.2772 98.9892 57.2961 99.0837 57.2961 99.1792C57.2931 99.3701 57.2153 99.5521 57.0793 99.686C56.9433 99.8199 56.76 99.895 56.5692 99.895C56.3783 99.895 56.195 99.8199 56.059 99.686C55.923 99.5521 55.8452 99.3701 55.8423 99.1792Z" fill="url(#paint49_linear)"/>
<path d="M60.3381 99.1792C60.3381 99.0837 60.3569 98.9892 60.3934 98.9011C60.43 98.8129 60.4835 98.7327 60.551 98.6652C60.6185 98.5977 60.6987 98.5441 60.7868 98.5077C60.875 98.4711 60.9695 98.4523 61.0651 98.4523C61.1604 98.4523 61.2551 98.4711 61.3432 98.5077C61.4314 98.5441 61.5115 98.5977 61.579 98.6652C61.6465 98.7327 61.7 98.8129 61.7366 98.9011C61.7732 98.9892 61.792 99.0837 61.792 99.1792C61.7889 99.3701 61.7111 99.5521 61.5751 99.686C61.4391 99.8199 61.2558 99.895 61.0651 99.895C60.8742 99.895 60.691 99.8199 60.5549 99.686C60.4189 99.5521 60.341 99.3701 60.3381 99.1792Z" fill="url(#paint50_linear)"/>
<path d="M64.8337 99.1792C64.8366 98.9873 64.9141 98.8041 65.0498 98.6684C65.1856 98.5327 65.3688 98.4552 65.5607 98.4523C65.7535 98.4523 65.9383 98.5289 66.0746 98.6652C66.211 98.8016 66.2876 98.9864 66.2876 99.1792C66.2847 99.3701 66.2067 99.5521 66.0707 99.686C65.9347 99.8199 65.7516 99.895 65.5607 99.895C65.3698 99.895 65.1866 99.8199 65.0506 99.686C64.9146 99.5521 64.8366 99.3701 64.8337 99.1792Z" fill="url(#paint51_linear)"/>
<path d="M96.3147 99.1792C96.3147 99.0837 96.3337 98.9892 96.3706 98.9011C96.4064 98.8129 96.4601 98.7327 96.5272 98.6652C96.5954 98.5977 96.6748 98.5441 96.7632 98.5077C96.8515 98.4711 96.9466 98.4523 97.0416 98.4523C97.1367 98.4523 97.2317 98.4711 97.3201 98.5077C97.4084 98.5441 97.4878 98.5977 97.556 98.6652C97.6231 98.7327 97.6768 98.8129 97.7137 98.9011C97.7495 98.9892 97.7685 99.0837 97.7685 99.1792C97.7652 99.3701 97.688 99.5521 97.5516 99.686C97.4163 99.8199 97.2329 99.895 97.0416 99.895C96.8504 99.895 96.6681 99.8199 96.5317 99.686C96.3952 99.5521 96.3181 99.3701 96.3147 99.1792Z" fill="url(#paint52_linear)"/>
<path d="M100.81 99.1792C100.81 99.0837 100.829 98.9892 100.866 98.9011C100.902 98.8129 100.956 98.7327 101.023 98.6652C101.091 98.5977 101.17 98.5441 101.259 98.5077C101.347 98.4711 101.442 98.4523 101.537 98.4523C101.632 98.4523 101.727 98.4711 101.816 98.5077C101.904 98.5441 101.983 98.5977 102.052 98.6652C102.119 98.7327 102.172 98.8129 102.209 98.9011C102.245 98.9892 102.264 99.0837 102.264 99.1792C102.261 99.3701 102.184 99.5521 102.047 99.686C101.912 99.8199 101.728 99.895 101.537 99.895C101.346 99.895 101.164 99.8199 101.027 99.686C100.891 99.5521 100.814 99.3701 100.81 99.1792Z" fill="url(#paint53_linear)"/>
<path d="M105.306 99.1792C105.306 99.0837 105.325 98.9892 105.361 98.9011C105.398 98.8129 105.452 98.7327 105.519 98.6652C105.587 98.5977 105.666 98.5441 105.755 98.5077C105.843 98.4711 105.938 98.4523 106.033 98.4523C106.128 98.4523 106.223 98.4711 106.312 98.5077C106.4 98.5441 106.479 98.5977 106.548 98.6652C106.615 98.7327 106.668 98.8129 106.704 98.9011C106.741 98.9892 106.76 99.0837 106.76 99.1792C106.757 99.3701 106.679 99.5521 106.543 99.686C106.407 99.8199 106.224 99.895 106.033 99.895C105.842 99.895 105.658 99.8199 105.523 99.686C105.387 99.5521 105.31 99.3701 105.306 99.1792Z" fill="url(#paint54_linear)"/>
<path d="M109.802 99.1792C109.801 98.9975 109.868 98.8221 109.991 98.6876C110.113 98.5531 110.281 98.4691 110.462 98.4523C110.585 98.922 110.686 99.3805 110.786 99.8502C110.701 99.8671 110.614 99.8671 110.529 99.8502C110.338 99.8502 110.154 99.7752 110.019 99.6413C109.883 99.5073 109.805 99.3254 109.802 99.1345V99.1792Z" fill="url(#paint55_linear)"/>
<path d="M51.3467 103.675C51.3467 103.482 51.4232 103.297 51.5595 103.161C51.6958 103.025 51.8808 102.948 52.0735 102.948C52.2663 102.948 52.4513 103.025 52.5876 103.161C52.7239 103.297 52.8004 103.482 52.8004 103.675C52.7976 103.867 52.72 104.05 52.5843 104.186C52.4487 104.321 52.2654 104.399 52.0735 104.402C51.8817 104.399 51.6984 104.321 51.5627 104.186C51.427 104.05 51.3495 103.867 51.3467 103.675Z" fill="url(#paint56_linear)"/>
<path d="M55.8423 103.675C55.8423 103.482 55.9189 103.297 56.0552 103.161C56.1914 103.025 56.3764 102.948 56.5692 102.948C56.762 102.948 56.9469 103.025 57.0832 103.161C57.2195 103.297 57.2961 103.482 57.2961 103.675C57.2932 103.867 57.2157 104.05 57.08 104.186C56.9443 104.321 56.7611 104.399 56.5692 104.402C56.3773 104.399 56.194 104.321 56.0584 104.186C55.9226 104.05 55.8451 103.867 55.8423 103.675Z" fill="url(#paint57_linear)"/>
<path d="M60.3381 103.675C60.3381 103.482 60.4146 103.297 60.551 103.161C60.6873 103.025 60.8723 102.948 61.0651 102.948C61.2579 102.948 61.4427 103.025 61.579 103.161C61.7154 103.297 61.792 103.482 61.792 103.675C61.7891 103.867 61.7116 104.05 61.5758 104.186C61.4401 104.321 61.257 104.399 61.0651 104.402C60.8731 104.399 60.69 104.321 60.5542 104.186C60.4185 104.05 60.341 103.867 60.3381 103.675Z" fill="url(#paint58_linear)"/>
<path d="M64.8337 103.675C64.8366 103.483 64.9141 103.3 65.0498 103.164C65.1856 103.028 65.3688 102.951 65.5607 102.948C65.7535 102.948 65.9383 103.025 66.0746 103.161C66.211 103.297 66.2876 103.482 66.2876 103.675C66.2847 103.867 66.2072 104.05 66.0715 104.186C65.9358 104.321 65.7526 104.399 65.5607 104.402C65.3688 104.399 65.1856 104.321 65.0498 104.186C64.9141 104.05 64.8366 103.867 64.8337 103.675Z" fill="url(#paint59_linear)"/>
<path d="M96.3147 103.675C96.3147 103.482 96.3919 103.297 96.5272 103.161C96.6636 103.025 96.8493 102.948 97.0416 102.948C97.234 102.948 97.4196 103.025 97.556 103.161C97.6925 103.297 97.7685 103.482 97.7685 103.675C97.7652 103.867 97.688 104.05 97.5527 104.186C97.4163 104.321 97.234 104.399 97.0416 104.402C96.8493 104.399 96.667 104.321 96.5305 104.186C96.3952 104.05 96.3181 103.867 96.3147 103.675Z" fill="url(#paint60_linear)"/>
<path d="M100.81 103.675C100.81 103.482 100.887 103.297 101.023 103.161C101.159 103.025 101.345 102.948 101.537 102.948C101.73 102.948 101.915 103.025 102.052 103.161C102.188 103.297 102.264 103.482 102.264 103.675C102.261 103.867 102.184 104.05 102.048 104.186C101.912 104.321 101.73 104.399 101.537 104.402C101.345 104.399 101.163 104.321 101.026 104.186C100.891 104.05 100.814 103.867 100.81 103.675Z" fill="url(#paint61_linear)"/>
<path d="M105.306 103.675C105.306 103.482 105.382 103.297 105.519 103.161C105.655 103.025 105.841 102.948 106.033 102.948C106.225 102.948 106.411 103.025 106.548 103.161C106.683 103.297 106.76 103.482 106.76 103.675C106.757 103.867 106.679 104.05 106.544 104.186C106.408 104.321 106.225 104.399 106.033 104.402C105.841 104.399 105.658 104.321 105.522 104.186C105.387 104.05 105.31 103.867 105.306 103.675Z" fill="url(#paint62_linear)"/>
<path d="M109.802 103.675C109.802 103.482 109.878 103.297 110.014 103.161C110.151 103.025 110.337 102.948 110.529 102.948C110.721 102.948 110.907 103.025 111.043 103.161C111.179 103.297 111.256 103.482 111.256 103.675C111.252 103.867 111.175 104.05 111.04 104.186C110.904 104.321 110.721 104.399 110.529 104.402C110.337 104.399 110.154 104.321 110.018 104.186C109.883 104.05 109.805 103.867 109.802 103.675Z" fill="url(#paint63_linear)"/>
<path fill-rule="evenodd" clip-rule="evenodd" d="M27.9398 33.0843C27.9398 33.3343 27.8657 33.5786 27.7269 33.7864C27.588 33.9942 27.3906 34.1562 27.1596 34.2519C26.9287 34.3475 26.6746 34.3725 26.4295 34.3238C26.1843 34.275 25.9592 34.1547 25.7825 33.9779C25.6057 33.8012 25.4854 33.5761 25.4366 33.3309C25.3879 33.0858 25.4129 32.8316 25.5085 32.6008C25.6042 32.3698 25.7662 32.1724 25.974 32.0335C26.1818 31.8947 26.4261 31.8206 26.6761 31.8206C27.0112 31.8206 27.3327 31.9538 27.5696 32.1908C27.8066 32.4277 27.9398 32.7492 27.9398 33.0843Z" fill="url(#paint64_linear)"/>
<path fill-rule="evenodd" clip-rule="evenodd" d="M27.9397 40.9127C27.942 41.1631 27.8697 41.4085 27.7323 41.6178C27.5947 41.827 27.3982 41.9907 27.1675 42.0881C26.9368 42.1856 26.6823 42.2122 26.4365 42.1646C26.1905 42.1171 25.9644 41.9977 25.7865 41.8214C25.6087 41.6452 25.4872 41.4199 25.4374 41.1746C25.3878 40.9291 25.4122 40.6745 25.5075 40.4429C25.6029 40.2114 25.7648 40.0133 25.9728 39.874C26.1809 39.7346 26.4256 39.6601 26.676 39.6601C27.0093 39.6601 27.329 39.7918 27.5658 40.0263C27.8024 40.2609 27.9368 40.5795 27.9397 40.9127Z" fill="url(#paint65_linear)"/>
<path fill-rule="evenodd" clip-rule="evenodd" d="M35.7345 25.3231C35.7345 25.573 35.6603 25.8174 35.5214 26.0252C35.3826 26.233 35.1853 26.395 34.9543 26.4906C34.7234 26.5863 34.4693 26.6113 34.2242 26.5625C33.979 26.5138 33.7539 26.3934 33.5771 26.2167C33.4004 26.0399 33.2801 25.8148 33.2313 25.5696C33.1825 25.3245 33.2076 25.0704 33.3032 24.8395C33.3988 24.6086 33.5608 24.4112 33.7687 24.2723C33.9765 24.1335 34.2208 24.0594 34.4708 24.0594C34.8059 24.0594 35.1273 24.1925 35.3643 24.4295C35.6013 24.6665 35.7345 24.9879 35.7345 25.3231Z" fill="url(#paint66_linear)"/>
<path fill-rule="evenodd" clip-rule="evenodd" d="M35.7345 33.0843C35.7345 33.3343 35.6603 33.5786 35.5214 33.7864C35.3826 33.9942 35.1853 34.1562 34.9543 34.2519C34.7234 34.3475 34.4693 34.3725 34.2242 34.3238C33.979 34.275 33.7539 34.1547 33.5771 33.9779C33.4004 33.8012 33.2801 33.5761 33.2313 33.3309C33.1825 33.0858 33.2076 32.8316 33.3032 32.6008C33.3988 32.3698 33.5608 32.1724 33.7687 32.0335C33.9765 31.8947 34.2208 31.8206 34.4708 31.8206C34.8059 31.8206 35.1273 31.9538 35.3643 32.1908C35.6013 32.4277 35.7345 32.7492 35.7345 33.0843Z" fill="url(#paint67_linear)"/>
<path fill-rule="evenodd" clip-rule="evenodd" d="M35.7346 40.9127C35.7369 41.1631 35.6646 41.4085 35.5272 41.6178C35.3896 41.827 35.193 41.9907 34.9623 42.0881C34.7316 42.1856 34.4772 42.2122 34.2314 42.1646C33.9855 42.1171 33.7592 41.9977 33.5814 41.8214C33.4036 41.6452 33.2821 41.4199 33.2324 41.1746C33.1827 40.9291 33.2071 40.6745 33.3024 40.4429C33.3978 40.2114 33.5597 40.0133 33.7677 39.874C33.9758 39.7346 34.2205 39.6601 34.4709 39.6601C34.8042 39.6601 35.1239 39.7918 35.3607 40.0263C35.5973 40.2609 35.7317 40.5795 35.7346 40.9127Z" fill="url(#paint68_linear)"/>
<path fill-rule="evenodd" clip-rule="evenodd" d="M35.7347 48.741C35.7513 48.9163 35.7311 49.093 35.6753 49.2598C35.6196 49.4268 35.5296 49.5802 35.4112 49.7104C35.2928 49.8404 35.1484 49.9445 34.9875 50.0156C34.8265 50.0867 34.6525 50.1235 34.4766 50.1235C34.3006 50.1235 34.1266 50.0867 33.9656 50.0156C33.8047 49.9445 33.6603 49.8404 33.5419 49.7104C33.4235 49.5802 33.3336 49.4268 33.2779 49.2598C33.2222 49.093 33.2019 48.9163 33.2185 48.741C33.248 48.4279 33.3933 48.1369 33.626 47.9252C33.8587 47.7134 34.162 47.5961 34.4766 47.5961C34.7912 47.5961 35.0945 47.7134 35.3271 47.9252C35.5598 48.1369 35.7051 48.4279 35.7347 48.741Z" fill="url(#paint69_linear)"/>
<path fill-rule="evenodd" clip-rule="evenodd" d="M43.5294 25.3231C43.5293 25.5735 43.4549 25.8182 43.3156 26.0263C43.1763 26.2343 42.9782 26.3963 42.7466 26.4916C42.5151 26.5869 42.2605 26.6113 42.015 26.5616C41.7695 26.5119 41.5444 26.3905 41.3681 26.2126C41.1919 26.0348 41.0723 25.8085 41.0249 25.5627C40.9774 25.3168 41.004 25.0624 41.1014 24.8317C41.1987 24.601 41.3624 24.4044 41.5718 24.2669C41.781 24.1294 42.0264 24.0571 42.2769 24.0593C42.4423 24.0593 42.606 24.0921 42.7588 24.1557C42.9114 24.2194 43.05 24.3127 43.1665 24.4301C43.2829 24.5476 43.375 24.687 43.4373 24.8403C43.4996 24.9936 43.5309 25.1576 43.5294 25.3231Z" fill="url(#paint70_linear)"/>
<path fill-rule="evenodd" clip-rule="evenodd" d="M43.5294 33.0843C43.5293 33.3347 43.4549 33.5795 43.3156 33.7875C43.1763 33.9955 42.9782 34.1576 42.7466 34.2529C42.5151 34.3482 42.2605 34.3725 42.015 34.3229C41.7695 34.2732 41.5444 34.1517 41.3681 33.9738C41.1919 33.796 41.0723 33.5698 41.0249 33.3239C40.9774 33.0781 41.004 32.8236 41.1014 32.5929C41.1987 32.3622 41.3624 32.1656 41.5718 32.0281C41.781 31.8906 42.0264 31.8184 42.2769 31.8206C42.4423 31.8206 42.606 31.8534 42.7588 31.917C42.9114 31.9806 43.05 32.0739 43.1665 32.1914C43.2829 32.3089 43.375 32.4483 43.4373 32.6015C43.4996 32.7548 43.5309 32.9189 43.5294 33.0843Z" fill="url(#paint71_linear)"/>
<path fill-rule="evenodd" clip-rule="evenodd" d="M43.5293 40.9127C43.5316 41.1635 43.459 41.4094 43.321 41.6189C43.183 41.8285 42.9858 41.9922 42.7544 42.0892C42.5231 42.1862 42.2681 42.2122 42.0218 42.1637C41.7757 42.1153 41.5495 41.9948 41.3721 41.8174C41.1947 41.6399 41.0741 41.4138 41.0257 41.1676C40.9773 40.9214 41.0032 40.6664 41.1003 40.435C41.1974 40.2036 41.361 40.0065 41.5706 39.8685C41.78 39.7305 42.026 39.6579 42.2768 39.6601C42.6091 39.6601 42.9276 39.7921 43.1625 40.0269C43.3974 40.2619 43.5293 40.5805 43.5293 40.9127Z" fill="url(#paint72_linear)"/>
<path fill-rule="evenodd" clip-rule="evenodd" d="M43.5293 48.741C43.5316 48.9919 43.459 49.2378 43.321 49.4472C43.183 49.6568 42.9858 49.8205 42.7544 49.9175C42.5231 50.0146 42.2681 50.0405 42.0218 49.9921C41.7757 49.9437 41.5495 49.8231 41.3721 49.6457C41.1947 49.4683 41.0741 49.2421 41.0257 48.996C40.9773 48.7497 41.0032 48.4948 41.1003 48.2634C41.1974 48.032 41.361 47.8348 41.5706 47.6968C41.78 47.5588 42.026 47.4862 42.2768 47.4885C42.608 47.4914 42.925 47.6242 43.1593 47.8585C43.3936 48.0928 43.5264 48.4098 43.5293 48.741Z" fill="url(#paint73_linear)"/>
<path fill-rule="evenodd" clip-rule="evenodd" d="M51.3241 33.0843C51.2946 33.3976 51.1492 33.6885 50.9166 33.9002C50.6839 34.112 50.3806 34.2293 50.066 34.2293C49.7514 34.2293 49.4481 34.112 49.2155 33.9002C48.9828 33.6885 48.8375 33.3976 48.8078 33.0843C48.7913 32.9091 48.8115 32.7324 48.8672 32.5655C48.923 32.3986 49.0129 32.2451 49.1314 32.115C49.2498 31.9849 49.3941 31.8809 49.5551 31.8098C49.716 31.7386 49.8901 31.7018 50.066 31.7018C50.242 31.7018 50.416 31.7386 50.5769 31.8098C50.7379 31.8809 50.8822 31.9849 51.0007 32.115C51.1191 32.2451 51.209 32.3986 51.2647 32.5655C51.3204 32.7324 51.3407 32.9091 51.3241 33.0843Z" fill="url(#paint74_linear)"/>
<path fill-rule="evenodd" clip-rule="evenodd" d="M51.3243 40.9127C51.3265 41.1635 51.2539 41.4094 51.1159 41.6189C50.9779 41.8285 50.7806 41.9922 50.5494 42.0892C50.318 42.1862 50.0629 42.2122 49.8167 42.1637C49.5706 42.1153 49.3444 41.9948 49.167 41.8174C48.9896 41.6399 48.8689 41.4138 48.8206 41.1676C48.7722 40.9214 48.7982 40.6664 48.8952 40.435C48.9922 40.2036 49.1559 40.0065 49.3655 39.8685C49.575 39.7305 49.8208 39.6579 50.0717 39.6601C50.4039 39.6601 50.7225 39.7921 50.9573 40.0269C51.1923 40.2619 51.3243 40.5805 51.3243 40.9127Z" fill="url(#paint75_linear)"/>
</g>
<path d="M28.7888 49.4491C28.7888 54.0379 25.7346 56.1275 20.8945 56.1275H18.6993V60.3748C18.6993 60.5381 18.6671 60.6997 18.6048 60.8504C18.5424 61.0013 18.451 61.1382 18.3358 61.2537C18.2205 61.3691 18.0839 61.4606 17.9333 61.523C17.7828 61.5855 17.6215 61.6177 17.4585 61.6177H14.2136C14.0524 61.616 13.8932 61.5824 13.745 61.5189C13.5969 61.4554 13.4626 61.3634 13.3499 61.248C13.2372 61.1326 13.1482 60.9961 13.0883 60.8463C13.0282 60.6965 12.9982 60.5362 13.0001 60.3748V43.5766C13.0036 43.2566 13.133 42.9509 13.3602 42.7259C13.5873 42.5008 13.894 42.3747 14.2136 42.3747H20.8945C26.2119 42.3747 28.7888 45.2154 28.7888 49.4491ZM23.035 49.4491C23.0453 49.1732 22.9954 48.8983 22.8887 48.6436C22.7821 48.3891 22.6212 48.1608 22.4173 47.9749C22.2135 47.789 21.9717 47.6497 21.7086 47.5671C21.4456 47.4845 21.1678 47.4603 20.8945 47.4962H18.6993V51.4431H20.8671C21.1462 51.4842 21.4308 51.4625 21.7003 51.3795C21.9699 51.2965 22.2175 51.1543 22.4251 50.9633C22.6329 50.7722 22.7955 50.5371 22.901 50.2752C23.0065 50.0133 23.0521 49.731 23.035 49.4491Z" fill="black"/>
<path d="M50.1269 52.0167C50.1161 53.9787 49.5254 55.8933 48.429 57.5192C47.3327 59.1451 45.78 60.4092 43.967 61.152C42.1541 61.8947 40.1621 62.0827 38.2426 61.6922C36.323 61.3019 34.562 60.3507 33.1818 58.9586C31.8015 57.5666 30.8639 55.796 30.4873 53.8706C30.1108 51.9453 30.3123 49.9514 31.0663 48.1405C31.8201 46.3296 33.0927 44.7832 34.7233 43.6962C36.3539 42.6092 38.2695 42.0306 40.2282 42.0333C41.5432 41.999 42.8513 42.2344 44.0722 42.7249C45.2931 43.2155 46.4011 43.9507 47.3281 44.8855C48.255 45.8205 48.9815 46.9353 49.4628 48.1615C49.9441 49.3879 50.1701 50.6998 50.1269 52.0167ZM44.4414 52.0167C44.3935 51.1943 44.1063 50.4037 43.6152 49.7429C43.124 49.0819 42.4505 48.5795 41.6777 48.2975C40.9049 48.0154 40.0667 47.9661 39.2662 48.1556C38.4658 48.3452 37.7382 48.7653 37.1732 49.3641C36.6084 49.9629 36.2308 50.7143 36.0871 51.5255C35.9434 52.3366 36.04 53.1723 36.3649 53.9292C36.6897 54.686 37.2285 55.3311 37.9151 55.7849C38.6016 56.2387 39.4057 56.4812 40.2282 56.4825C40.808 56.5023 41.3853 56.3984 41.9221 56.1776C42.4586 55.9568 42.9423 55.6241 43.3408 55.2018C43.7392 54.7794 44.0434 54.277 44.2331 53.7278C44.4229 53.1787 44.4939 52.5954 44.4414 52.0167Z" fill="black"/>
<path d="M53.6854 42.3747H56.9441C57.1034 42.3728 57.2617 42.4026 57.4097 42.462C57.5576 42.5215 57.6923 42.6094 57.8063 42.721C57.9202 42.8326 58.0111 42.9656 58.0738 43.1125C58.1363 43.2592 58.1695 43.417 58.1713 43.5766V60.3748C58.173 60.5374 58.1428 60.6987 58.0819 60.8495C58.0211 61.0001 57.9309 61.1373 57.8168 61.2529C57.7026 61.3684 57.5667 61.4602 57.4169 61.5229C57.2672 61.5854 57.1065 61.6177 56.9441 61.6177H53.6854C53.3624 61.6105 53.0553 61.4759 52.8306 61.2432C52.6061 61.0107 52.482 60.6985 52.4857 60.3748V43.5766C52.4892 43.2588 52.6168 42.9553 52.841 42.7306C53.0653 42.506 53.3684 42.3783 53.6854 42.3747Z" fill="black"/>
<path d="M74.1098 42.3748H77.3412C77.6582 42.3782 77.9614 42.5061 78.1857 42.7307C78.41 42.9552 78.5375 43.2589 78.541 43.5765V60.3749C78.5447 60.6986 78.4206 61.0106 78.196 61.2433C77.9713 61.476 77.6643 61.6105 77.3412 61.6177H74.2597C74.0089 61.6273 73.7604 61.5672 73.5414 61.4443C73.3225 61.3214 73.1417 61.1404 73.019 60.9212L66.9108 51.3611V60.3749C66.9108 60.6997 66.7839 61.0119 66.557 61.2441C66.3303 61.4764 66.0216 61.6105 65.6973 61.6177H62.4522C62.1232 61.6177 61.8077 61.4867 61.575 61.2536C61.3422 61.0206 61.2114 60.7045 61.2114 60.3749V43.5765C61.2133 43.4157 61.2468 43.2569 61.3103 43.1092C61.3738 42.9616 61.4659 42.8279 61.5813 42.7162C61.6967 42.6043 61.833 42.5166 61.9826 42.4579C62.132 42.3994 62.2917 42.3711 62.4522 42.3748H65.5063C65.752 42.3748 65.9935 42.4374 66.2083 42.5568C66.4229 42.6764 66.6038 42.8486 66.7335 43.0575L72.8826 52.6176V43.5765C72.8844 43.4169 72.9176 43.2592 72.9801 43.1124C73.0428 42.9657 73.1337 42.8326 73.2477 42.7211C73.3616 42.6095 73.4964 42.5214 73.6442 42.462C73.7922 42.4025 73.9505 42.3729 74.1098 42.3748Z" fill="black"/>
<path d="M95.4749 43.5766V46.308C95.4749 46.6279 95.349 46.9351 95.1243 47.1626C94.8997 47.3902 94.5945 47.5199 94.275 47.5235H90.962V60.3748C90.9657 60.6985 90.8416 61.0105 90.6169 61.2432C90.3922 61.4759 90.0852 61.6105 89.7621 61.6177H86.5034C86.3412 61.6177 86.1804 61.5854 86.0306 61.5227C85.8808 61.4602 85.7449 61.3684 85.6308 61.2529C85.5167 61.1373 85.4267 61.0001 85.3658 60.8493C85.305 60.6987 85.2745 60.5374 85.2763 60.3748V47.4961H81.9903C81.6696 47.4927 81.3629 47.3633 81.1362 47.1362C80.9094 46.909 80.7804 46.6019 80.7769 46.2806V43.5492C80.7839 43.2303 80.9145 42.9267 81.141 42.7025C81.3674 42.4781 81.672 42.3508 81.9903 42.3473H94.2613C94.4218 42.3473 94.5809 42.3792 94.7291 42.4412C94.8772 42.5031 95.0115 42.5939 95.1243 42.7082C95.2372 42.8225 95.3263 42.9582 95.3865 43.1072C95.4467 43.2562 95.4766 43.4158 95.4749 43.5766Z" fill="black"/>
<path d="M112 55.7723C112 59.1047 109.109 62 104.433 62C101.27 62 97.8337 60.9211 96.6203 57.9029C96.5566 57.7754 96.5218 57.6356 96.5183 57.4932C96.5149 57.3508 96.5428 57.2093 96.6001 57.0789C96.6574 56.9485 96.7426 56.8325 96.8497 56.7388C96.9569 56.6451 97.0833 56.5764 97.2201 56.5372L100.301 55.5811C100.512 55.5189 100.737 55.528 100.941 55.607C101.146 55.6861 101.319 55.8306 101.433 56.0181C101.753 56.4291 102.17 56.7547 102.645 56.9667C103.121 57.1786 103.641 57.2704 104.16 57.2337C105.646 57.2337 106.273 56.5372 106.273 55.8679C106.273 54.7072 104.842 54.5978 102.919 54.1335C99.1834 53.2185 97.0564 51.7025 97.0564 48.179C97.0564 44.6554 100.138 42.0196 104.378 42.0196C105.789 41.9131 107.199 42.2422 108.418 42.9625C109.637 43.6827 110.606 44.7598 111.195 46.0485C111.251 46.1831 111.276 46.3281 111.27 46.4736C111.264 46.619 111.227 46.7616 111.161 46.8913C111.095 47.021 111.002 47.1348 110.887 47.225C110.773 47.3153 110.641 47.3798 110.5 47.4142L107.446 48.1516C107.253 48.2004 107.05 48.1901 106.862 48.1218C106.675 48.0537 106.513 47.9309 106.396 47.7692C106.188 47.4647 105.903 47.2209 105.57 47.0625C105.237 46.9042 104.868 46.8371 104.501 46.8679C103.369 46.8679 102.578 47.3322 102.578 48.2336C102.578 49.3261 104.255 49.4628 105.742 49.8862C110.405 51.1425 112 52.7132 112 55.7723Z" fill="black"/>
<defs>
<linearGradient id="paint0_linear" x1="62.4927" y1="0" x2="62.4927" y2="103.93" gradientUnits="userSpaceOnUse">
<stop stop-color="#6FD74A"/>
<stop offset="1" stop-color="#24A240"/>
</linearGradient>
<linearGradient id="paint1_linear" x1="62.4927" y1="0" x2="62.4927" y2="103.93" gradientUnits="userSpaceOnUse">
<stop stop-color="#6FD74A"/>
<stop offset="1" stop-color="#24A240"/>
</linearGradient>
<linearGradient id="paint2_linear" x1="77.471" y1="4.68565" x2="107.096" y2="4.68565" gradientUnits="userSpaceOnUse">
<stop offset="0.05" stop-color="#7DB828"/>
<stop offset="0.41" stop-color="#EFE300" stop-opacity="0.34"/>
<stop offset="0.68" stop-color="#EFE300" stop-opacity="0.34"/>
<stop offset="1" stop-color="#BAC32F"/>
</linearGradient>
<linearGradient id="paint3_linear" x1="8.15267" y1="67.1041" x2="8.15267" y2="37.4794" gradientUnits="userSpaceOnUse">
<stop offset="0.05" stop-color="#1EA723"/>
<stop offset="0.41" stop-color="#EFE300" stop-opacity="0.34"/>
<stop offset="0.588542" stop-color="#B1EF00" stop-opacity="0.34"/>
<stop offset="1" stop-color="#36B477"/>
</linearGradient>
<linearGradient id="paint4_linear" x1="119.039" y1="54.3327" x2="122.003" y2="54.3327" gradientUnits="userSpaceOnUse">
<stop offset="0.05" stop-color="#7DB828"/>
<stop offset="1" stop-color="#EFE300" stop-opacity="0.34"/>
</linearGradient>
<linearGradient id="paint5_linear" x1="-1039.93" y1="-3036.22" x2="-1032.14" y2="-3036.22" gradientUnits="userSpaceOnUse">
<stop offset="0.05" stop-color="#7DB828"/>
<stop offset="1" stop-color="#EFE300" stop-opacity="0.34"/>
</linearGradient>
<linearGradient id="paint6_linear" x1="-561.643" y1="-7.07103" x2="-559.766" y2="-7.07103" gradientUnits="userSpaceOnUse">
<stop offset="0.05" stop-color="#7DB828"/>
<stop offset="0.41" stop-color="#EFE300" stop-opacity="0.34"/>
<stop offset="0.68" stop-color="#EFE300" stop-opacity="0.34"/>
<stop offset="1" stop-color="#BAC32F"/>
</linearGradient>
<linearGradient id="paint7_linear" x1="-545.792" y1="-47.7001" x2="-543.931" y2="-47.7001" gradientUnits="userSpaceOnUse">
<stop offset="0.05" stop-color="#7DB828"/>
<stop offset="0.41" stop-color="#EFE300" stop-opacity="0.34"/>
<stop offset="0.68" stop-color="#EFE300" stop-opacity="0.34"/>
<stop offset="1" stop-color="#BAC32F"/>
</linearGradient>
<linearGradient id="paint8_linear" x1="-535.498" y1="-47.7001" x2="-533.637" y2="-47.7001" gradientUnits="userSpaceOnUse">
<stop offset="0.05" stop-color="#7DB828"/>
<stop offset="0.41" stop-color="#EFE300" stop-opacity="0.34"/>
<stop offset="0.68" stop-color="#EFE300" stop-opacity="0.34"/>
<stop offset="1" stop-color="#BAC32F"/>
</linearGradient>
<linearGradient id="paint9_linear" x1="-525.247" y1="-7.07126" x2="-523.386" y2="-7.07126" gradientUnits="userSpaceOnUse">
<stop offset="0.05" stop-color="#7DB828"/>
<stop offset="0.41" stop-color="#EFE300" stop-opacity="0.34"/>
<stop offset="0.68" stop-color="#EFE300" stop-opacity="0.34"/>
<stop offset="1" stop-color="#BAC32F"/>
</linearGradient>
<linearGradient id="paint10_linear" x1="-581.668" y1="-37.3159" x2="-579.778" y2="-37.3159" gradientUnits="userSpaceOnUse">
<stop offset="0.05" stop-color="#7DB828"/>
<stop offset="0.41" stop-color="#EFE300" stop-opacity="0.34"/>
<stop offset="0.68" stop-color="#EFE300" stop-opacity="0.34"/>
<stop offset="1" stop-color="#BAC32F"/>
</linearGradient>
<linearGradient id="paint11_linear" x1="-566.383" y1="-37.3159" x2="-564.522" y2="-37.3159" gradientUnits="userSpaceOnUse">
<stop offset="0.05" stop-color="#7DB828"/>
<stop offset="0.41" stop-color="#EFE300" stop-opacity="0.34"/>
<stop offset="0.68" stop-color="#EFE300" stop-opacity="0.34"/>
<stop offset="1" stop-color="#BAC32F"/>
</linearGradient>
<linearGradient id="paint12_linear" x1="-556.087" y1="-37.3159" x2="-554.226" y2="-37.3159" gradientUnits="userSpaceOnUse">
<stop offset="0.05" stop-color="#7DB828"/>
<stop offset="0.41" stop-color="#EFE300" stop-opacity="0.34"/>
<stop offset="0.68" stop-color="#EFE300" stop-opacity="0.34"/>
<stop offset="1" stop-color="#BAC32F"/>
</linearGradient>
<linearGradient id="paint13_linear" x1="-545.792" y1="-37.3159" x2="-543.931" y2="-37.3159" gradientUnits="userSpaceOnUse">
<stop offset="0.05" stop-color="#7DB828"/>
<stop offset="0.41" stop-color="#EFE300" stop-opacity="0.34"/>
<stop offset="0.68" stop-color="#EFE300" stop-opacity="0.34"/>
<stop offset="1" stop-color="#BAC32F"/>
</linearGradient>
<linearGradient id="paint14_linear" x1="-535.498" y1="-37.3159" x2="-533.637" y2="-37.3159" gradientUnits="userSpaceOnUse">
<stop offset="0.05" stop-color="#7DB828"/>
<stop offset="0.41" stop-color="#EFE300" stop-opacity="0.34"/>
<stop offset="0.68" stop-color="#EFE300" stop-opacity="0.34"/>
<stop offset="1" stop-color="#BAC32F"/>
</linearGradient>
<linearGradient id="paint15_linear" x1="-529.942" y1="-37.3159" x2="-528.052" y2="-37.3159" gradientUnits="userSpaceOnUse">
<stop offset="0.05" stop-color="#7DB828"/>
<stop offset="0.41" stop-color="#EFE300" stop-opacity="0.34"/>
<stop offset="0.68" stop-color="#EFE300" stop-opacity="0.34"/>
<stop offset="1" stop-color="#BAC32F"/>
</linearGradient>
<linearGradient id="paint16_linear" x1="-519.598" y1="-37.3159" x2="-517.708" y2="-37.3159" gradientUnits="userSpaceOnUse">
<stop offset="0.05" stop-color="#7DB828"/>
<stop offset="0.41" stop-color="#EFE300" stop-opacity="0.34"/>
<stop offset="0.68" stop-color="#EFE300" stop-opacity="0.34"/>
<stop offset="1" stop-color="#BAC32F"/>
</linearGradient>
<linearGradient id="paint17_linear" x1="-509.276" y1="-37.3159" x2="-507.386" y2="-37.3159" gradientUnits="userSpaceOnUse">
<stop offset="0.05" stop-color="#7DB828"/>
<stop offset="0.41" stop-color="#EFE300" stop-opacity="0.34"/>
<stop offset="0.68" stop-color="#EFE300" stop-opacity="0.34"/>
<stop offset="1" stop-color="#BAC32F"/>
</linearGradient>
<linearGradient id="paint18_linear" x1="-592.004" y1="-26.1255" x2="-590.114" y2="-26.1255" gradientUnits="userSpaceOnUse">
<stop offset="0.05" stop-color="#7DB828"/>
<stop offset="0.41" stop-color="#EFE300" stop-opacity="0.34"/>
<stop offset="0.68" stop-color="#EFE300" stop-opacity="0.34"/>
<stop offset="1" stop-color="#BAC32F"/>
</linearGradient>
<linearGradient id="paint19_linear" x1="-581.668" y1="-26.1255" x2="-579.778" y2="-26.1255" gradientUnits="userSpaceOnUse">
<stop offset="0.05" stop-color="#7DB828"/>
<stop offset="0.41" stop-color="#EFE300" stop-opacity="0.34"/>
<stop offset="0.68" stop-color="#EFE300" stop-opacity="0.34"/>
<stop offset="1" stop-color="#BAC32F"/>
</linearGradient>
<linearGradient id="paint20_linear" x1="-566.383" y1="-26.1255" x2="-564.522" y2="-26.1255" gradientUnits="userSpaceOnUse">
<stop offset="0.05" stop-color="#7DB828"/>
<stop offset="0.41" stop-color="#EFE300" stop-opacity="0.34"/>
<stop offset="0.68" stop-color="#EFE300" stop-opacity="0.34"/>
<stop offset="1" stop-color="#BAC32F"/>
</linearGradient>
<linearGradient id="paint21_linear" x1="-556.087" y1="-26.1255" x2="-554.226" y2="-26.1255" gradientUnits="userSpaceOnUse">
<stop offset="0.05" stop-color="#7DB828"/>
<stop offset="0.41" stop-color="#EFE300" stop-opacity="0.34"/>
<stop offset="0.68" stop-color="#EFE300" stop-opacity="0.34"/>
<stop offset="1" stop-color="#BAC32F"/>
</linearGradient>
<linearGradient id="paint22_linear" x1="-545.792" y1="-26.1255" x2="-543.931" y2="-26.1255" gradientUnits="userSpaceOnUse">
<stop offset="0.05" stop-color="#7DB828"/>
<stop offset="0.41" stop-color="#EFE300" stop-opacity="0.34"/>
<stop offset="0.68" stop-color="#EFE300" stop-opacity="0.34"/>
<stop offset="1" stop-color="#BAC32F"/>
</linearGradient>
<linearGradient id="paint23_linear" x1="-535.498" y1="-26.1255" x2="-533.637" y2="-26.1255" gradientUnits="userSpaceOnUse">
<stop offset="0.05" stop-color="#7DB828"/>
<stop offset="0.41" stop-color="#EFE300" stop-opacity="0.34"/>
<stop offset="0.68" stop-color="#EFE300" stop-opacity="0.34"/>
<stop offset="1" stop-color="#BAC32F"/>
</linearGradient>
<linearGradient id="paint24_linear" x1="-529.942" y1="-26.1255" x2="-528.052" y2="-26.1255" gradientUnits="userSpaceOnUse">
<stop offset="0.05" stop-color="#7DB828"/>
<stop offset="0.41" stop-color="#EFE300" stop-opacity="0.34"/>
<stop offset="0.68" stop-color="#EFE300" stop-opacity="0.34"/>
<stop offset="1" stop-color="#BAC32F"/>
</linearGradient>
<linearGradient id="paint25_linear" x1="-519.598" y1="-26.1255" x2="-517.708" y2="-26.1255" gradientUnits="userSpaceOnUse">
<stop offset="0.05" stop-color="#7DB828"/>
<stop offset="0.41" stop-color="#EFE300" stop-opacity="0.34"/>
<stop offset="0.68" stop-color="#EFE300" stop-opacity="0.34"/>
<stop offset="1" stop-color="#BAC32F"/>
</linearGradient>
<linearGradient id="paint26_linear" x1="-509.276" y1="-26.1255" x2="-507.386" y2="-26.1255" gradientUnits="userSpaceOnUse">
<stop offset="0.05" stop-color="#7DB828"/>
<stop offset="0.41" stop-color="#EFE300" stop-opacity="0.34"/>
<stop offset="0.68" stop-color="#EFE300" stop-opacity="0.34"/>
<stop offset="1" stop-color="#BAC32F"/>
</linearGradient>
<linearGradient id="paint27_linear" x1="-498.922" y1="-26.1255" x2="-497.032" y2="-26.1255" gradientUnits="userSpaceOnUse">
<stop offset="0.05" stop-color="#7DB828"/>
<stop offset="0.41" stop-color="#EFE300" stop-opacity="0.34"/>
<stop offset="0.68" stop-color="#EFE300" stop-opacity="0.34"/>
<stop offset="1" stop-color="#BAC32F"/>
</linearGradient>
<linearGradient id="paint28_linear" x1="-602.363" y1="-15.8527" x2="-600.473" y2="-15.8527" gradientUnits="userSpaceOnUse">
<stop offset="0.05" stop-color="#7DB828"/>
<stop offset="0.41" stop-color="#EFE300" stop-opacity="0.34"/>
<stop offset="0.68" stop-color="#EFE300" stop-opacity="0.34"/>
<stop offset="1" stop-color="#BAC32F"/>
</linearGradient>
<linearGradient id="paint29_linear" x1="-592.004" y1="-15.8527" x2="-590.114" y2="-15.8527" gradientUnits="userSpaceOnUse">
<stop offset="0.05" stop-color="#7DB828"/>
<stop offset="0.41" stop-color="#EFE300" stop-opacity="0.34"/>
<stop offset="0.68" stop-color="#EFE300" stop-opacity="0.34"/>
<stop offset="1" stop-color="#BAC32F"/>
</linearGradient>
<linearGradient id="paint30_linear" x1="-581.668" y1="-15.8527" x2="-579.778" y2="-15.8527" gradientUnits="userSpaceOnUse">
<stop offset="0.05" stop-color="#7DB828"/>
<stop offset="0.41" stop-color="#EFE300" stop-opacity="0.34"/>
<stop offset="0.68" stop-color="#EFE300" stop-opacity="0.34"/>
<stop offset="1" stop-color="#BAC32F"/>
</linearGradient>
<linearGradient id="paint31_linear" x1="-566.383" y1="-15.8527" x2="-564.522" y2="-15.8527" gradientUnits="userSpaceOnUse">
<stop offset="0.05" stop-color="#7DB828"/>
<stop offset="0.41" stop-color="#EFE300" stop-opacity="0.34"/>
<stop offset="0.68" stop-color="#EFE300" stop-opacity="0.34"/>
<stop offset="1" stop-color="#BAC32F"/>
</linearGradient>
<linearGradient id="paint32_linear" x1="-556.087" y1="-15.8527" x2="-554.226" y2="-15.8527" gradientUnits="userSpaceOnUse">
<stop offset="0.05" stop-color="#7DB828"/>
<stop offset="0.41" stop-color="#EFE300" stop-opacity="0.34"/>
<stop offset="0.68" stop-color="#EFE300" stop-opacity="0.34"/>
<stop offset="1" stop-color="#BAC32F"/>
</linearGradient>
<linearGradient id="paint33_linear" x1="-545.792" y1="-15.8527" x2="-543.931" y2="-15.8527" gradientUnits="userSpaceOnUse">
<stop offset="0.05" stop-color="#7DB828"/>
<stop offset="0.41" stop-color="#EFE300" stop-opacity="0.34"/>
<stop offset="0.68" stop-color="#EFE300" stop-opacity="0.34"/>
<stop offset="1" stop-color="#BAC32F"/>
</linearGradient>
<linearGradient id="paint34_linear" x1="-535.498" y1="-15.8527" x2="-533.637" y2="-15.8527" gradientUnits="userSpaceOnUse">
<stop offset="0.05" stop-color="#7DB828"/>
<stop offset="0.41" stop-color="#EFE300" stop-opacity="0.34"/>
<stop offset="0.68" stop-color="#EFE300" stop-opacity="0.34"/>
<stop offset="1" stop-color="#BAC32F"/>
</linearGradient>
<linearGradient id="paint35_linear" x1="-529.942" y1="-15.8527" x2="-528.052" y2="-15.8527" gradientUnits="userSpaceOnUse">
<stop offset="0.05" stop-color="#7DB828"/>
<stop offset="0.41" stop-color="#EFE300" stop-opacity="0.34"/>
<stop offset="0.68" stop-color="#EFE300" stop-opacity="0.34"/>
<stop offset="1" stop-color="#BAC32F"/>
</linearGradient>
<linearGradient id="paint36_linear" x1="-519.598" y1="-15.8527" x2="-517.708" y2="-15.8527" gradientUnits="userSpaceOnUse">
<stop offset="0.05" stop-color="#7DB828"/>
<stop offset="0.41" stop-color="#EFE300" stop-opacity="0.34"/>
<stop offset="0.68" stop-color="#EFE300" stop-opacity="0.34"/>
<stop offset="1" stop-color="#BAC32F"/>
</linearGradient>
<linearGradient id="paint37_linear" x1="-509.276" y1="-15.8527" x2="-507.386" y2="-15.8527" gradientUnits="userSpaceOnUse">
<stop offset="0.05" stop-color="#7DB828"/>
<stop offset="0.41" stop-color="#EFE300" stop-opacity="0.34"/>
<stop offset="0.68" stop-color="#EFE300" stop-opacity="0.34"/>
<stop offset="1" stop-color="#BAC32F"/>
</linearGradient>
<linearGradient id="paint38_linear" x1="-498.922" y1="-15.8527" x2="-497.032" y2="-15.8527" gradientUnits="userSpaceOnUse">
<stop offset="0.05" stop-color="#7DB828"/>
<stop offset="0.41" stop-color="#EFE300" stop-opacity="0.34"/>
<stop offset="0.68" stop-color="#EFE300" stop-opacity="0.34"/>
<stop offset="1" stop-color="#BAC32F"/>
</linearGradient>
<linearGradient id="paint39_linear" x1="-488.581" y1="-15.8527" x2="-486.691" y2="-15.8527" gradientUnits="userSpaceOnUse">
<stop offset="0.05" stop-color="#7DB828"/>
<stop offset="0.41" stop-color="#EFE300" stop-opacity="0.34"/>
<stop offset="0.68" stop-color="#EFE300" stop-opacity="0.34"/>
<stop offset="1" stop-color="#BAC32F"/>
</linearGradient>
<linearGradient id="paint40_linear" x1="-602.363" y1="-5.5767" x2="-600.473" y2="-5.5767" gradientUnits="userSpaceOnUse">
<stop offset="0.05" stop-color="#7DB828"/>
<stop offset="0.41" stop-color="#EFE300" stop-opacity="0.34"/>
<stop offset="0.68" stop-color="#EFE300" stop-opacity="0.34"/>
<stop offset="1" stop-color="#BAC32F"/>
</linearGradient>
<linearGradient id="paint41_linear" x1="-592.004" y1="-5.5767" x2="-590.114" y2="-5.5767" gradientUnits="userSpaceOnUse">
<stop offset="0.05" stop-color="#7DB828"/>
<stop offset="0.41" stop-color="#EFE300" stop-opacity="0.34"/>
<stop offset="0.68" stop-color="#EFE300" stop-opacity="0.34"/>
<stop offset="1" stop-color="#BAC32F"/>
</linearGradient>
<linearGradient id="paint42_linear" x1="-581.668" y1="-5.5767" x2="-579.778" y2="-5.5767" gradientUnits="userSpaceOnUse">
<stop offset="0.05" stop-color="#7DB828"/>
<stop offset="0.41" stop-color="#EFE300" stop-opacity="0.34"/>
<stop offset="0.68" stop-color="#EFE300" stop-opacity="0.34"/>
<stop offset="1" stop-color="#BAC32F"/>
</linearGradient>
<linearGradient id="paint43_linear" x1="-566.383" y1="-5.5767" x2="-564.522" y2="-5.5767" gradientUnits="userSpaceOnUse">
<stop offset="0.05" stop-color="#7DB828"/>
<stop offset="0.41" stop-color="#EFE300" stop-opacity="0.34"/>
<stop offset="0.68" stop-color="#EFE300" stop-opacity="0.34"/>
<stop offset="1" stop-color="#BAC32F"/>
</linearGradient>
<linearGradient id="paint44_linear" x1="-519.598" y1="-5.5767" x2="-517.708" y2="-5.5767" gradientUnits="userSpaceOnUse">
<stop offset="0.05" stop-color="#7DB828"/>
<stop offset="0.41" stop-color="#EFE300" stop-opacity="0.34"/>
<stop offset="0.68" stop-color="#EFE300" stop-opacity="0.34"/>
<stop offset="1" stop-color="#BAC32F"/>
</linearGradient>
<linearGradient id="paint45_linear" x1="-509.276" y1="-5.5767" x2="-507.386" y2="-5.5767" gradientUnits="userSpaceOnUse">
<stop offset="0.05" stop-color="#7DB828"/>
<stop offset="0.41" stop-color="#EFE300" stop-opacity="0.34"/>
<stop offset="0.68" stop-color="#EFE300" stop-opacity="0.34"/>
<stop offset="1" stop-color="#BAC32F"/>
</linearGradient>
<linearGradient id="paint46_linear" x1="-498.922" y1="-5.5767" x2="-497.032" y2="-5.5767" gradientUnits="userSpaceOnUse">
<stop offset="0.05" stop-color="#7DB828"/>
<stop offset="0.41" stop-color="#EFE300" stop-opacity="0.34"/>
<stop offset="0.68" stop-color="#EFE300" stop-opacity="0.34"/>
<stop offset="1" stop-color="#BAC32F"/>
</linearGradient>
<linearGradient id="paint47_linear" x1="-488.581" y1="-5.5767" x2="-486.691" y2="-5.5767" gradientUnits="userSpaceOnUse">
<stop offset="0.05" stop-color="#7DB828"/>
<stop offset="0.41" stop-color="#EFE300" stop-opacity="0.34"/>
<stop offset="0.68" stop-color="#EFE300" stop-opacity="0.34"/>
<stop offset="1" stop-color="#BAC32F"/>
</linearGradient>
<linearGradient id="paint48_linear" x1="-402.352" y1="3.96504" x2="-401.465" y2="3.96504" gradientUnits="userSpaceOnUse">
<stop offset="0.05" stop-color="#7DB828"/>
<stop offset="0.41" stop-color="#EFE300" stop-opacity="0.34"/>
<stop offset="0.68" stop-color="#EFE300" stop-opacity="0.34"/>
<stop offset="1" stop-color="#BAC32F"/>
</linearGradient>
<linearGradient id="paint49_linear" x1="-602.363" y1="4.75189" x2="-600.473" y2="4.75189" gradientUnits="userSpaceOnUse">
<stop offset="0.05" stop-color="#7DB828"/>
<stop offset="0.41" stop-color="#EFE300" stop-opacity="0.34"/>
<stop offset="0.68" stop-color="#EFE300" stop-opacity="0.34"/>
<stop offset="1" stop-color="#BAC32F"/>
</linearGradient>
<linearGradient id="paint50_linear" x1="-592.004" y1="4.75189" x2="-590.114" y2="4.75189" gradientUnits="userSpaceOnUse">
<stop offset="0.05" stop-color="#7DB828"/>
<stop offset="0.41" stop-color="#EFE300" stop-opacity="0.34"/>
<stop offset="0.68" stop-color="#EFE300" stop-opacity="0.34"/>
<stop offset="1" stop-color="#BAC32F"/>
</linearGradient>
<linearGradient id="paint51_linear" x1="-581.668" y1="4.75189" x2="-579.778" y2="4.75189" gradientUnits="userSpaceOnUse">
<stop offset="0.05" stop-color="#7DB828"/>
<stop offset="0.41" stop-color="#EFE300" stop-opacity="0.34"/>
<stop offset="0.68" stop-color="#EFE300" stop-opacity="0.34"/>
<stop offset="1" stop-color="#BAC32F"/>
</linearGradient>
<linearGradient id="paint52_linear" x1="-509.276" y1="4.75189" x2="-507.386" y2="4.75189" gradientUnits="userSpaceOnUse">
<stop offset="0.05" stop-color="#7DB828"/>
<stop offset="0.41" stop-color="#EFE300" stop-opacity="0.34"/>
<stop offset="0.68" stop-color="#EFE300" stop-opacity="0.34"/>
<stop offset="1" stop-color="#BAC32F"/>
</linearGradient>
<linearGradient id="paint53_linear" x1="-498.922" y1="4.75189" x2="-497.032" y2="4.75189" gradientUnits="userSpaceOnUse">
<stop offset="0.05" stop-color="#7DB828"/>
<stop offset="0.41" stop-color="#EFE300" stop-opacity="0.34"/>
<stop offset="0.68" stop-color="#EFE300" stop-opacity="0.34"/>
<stop offset="1" stop-color="#BAC32F"/>
</linearGradient>
<linearGradient id="paint54_linear" x1="-488.581" y1="4.75189" x2="-486.691" y2="4.75189" gradientUnits="userSpaceOnUse">
<stop offset="0.05" stop-color="#7DB828"/>
<stop offset="0.41" stop-color="#EFE300" stop-opacity="0.34"/>
<stop offset="0.68" stop-color="#EFE300" stop-opacity="0.34"/>
<stop offset="1" stop-color="#BAC32F"/>
</linearGradient>
<linearGradient id="paint55_linear" x1="-288.268" y1="6.83553" x2="-287.401" y2="6.83553" gradientUnits="userSpaceOnUse">
<stop offset="0.05" stop-color="#7DB828"/>
<stop offset="0.41" stop-color="#EFE300" stop-opacity="0.34"/>
<stop offset="0.68" stop-color="#EFE300" stop-opacity="0.34"/>
<stop offset="1" stop-color="#BAC32F"/>
</linearGradient>
<linearGradient id="paint56_linear" x1="-612.688" y1="14.3657" x2="-610.798" y2="14.3657" gradientUnits="userSpaceOnUse">
<stop offset="0.05" stop-color="#7DB828"/>
<stop offset="0.41" stop-color="#EFE300" stop-opacity="0.34"/>
<stop offset="0.68" stop-color="#EFE300" stop-opacity="0.34"/>
<stop offset="1" stop-color="#BAC32F"/>
</linearGradient>
<linearGradient id="paint57_linear" x1="-602.363" y1="14.3657" x2="-600.473" y2="14.3657" gradientUnits="userSpaceOnUse">
<stop offset="0.05" stop-color="#7DB828"/>
<stop offset="0.41" stop-color="#EFE300" stop-opacity="0.34"/>
<stop offset="0.68" stop-color="#EFE300" stop-opacity="0.34"/>
<stop offset="1" stop-color="#BAC32F"/>
</linearGradient>
<linearGradient id="paint58_linear" x1="-592.004" y1="14.3657" x2="-590.114" y2="14.3657" gradientUnits="userSpaceOnUse">
<stop offset="0.05" stop-color="#7DB828"/>
<stop offset="0.41" stop-color="#EFE300" stop-opacity="0.34"/>
<stop offset="0.68" stop-color="#EFE300" stop-opacity="0.34"/>
<stop offset="1" stop-color="#BAC32F"/>
</linearGradient>
<linearGradient id="paint59_linear" x1="-581.668" y1="14.3657" x2="-579.778" y2="14.3657" gradientUnits="userSpaceOnUse">
<stop offset="0.05" stop-color="#7DB828"/>
<stop offset="0.41" stop-color="#EFE300" stop-opacity="0.34"/>
<stop offset="0.68" stop-color="#EFE300" stop-opacity="0.34"/>
<stop offset="1" stop-color="#BAC32F"/>
</linearGradient>
<linearGradient id="paint60_linear" x1="-509.276" y1="14.3657" x2="-507.386" y2="14.3657" gradientUnits="userSpaceOnUse">
<stop offset="0.05" stop-color="#7DB828"/>
<stop offset="0.41" stop-color="#EFE300" stop-opacity="0.34"/>
<stop offset="0.68" stop-color="#EFE300" stop-opacity="0.34"/>
<stop offset="1" stop-color="#BAC32F"/>
</linearGradient>
<linearGradient id="paint61_linear" x1="-498.922" y1="14.3657" x2="-497.032" y2="14.3657" gradientUnits="userSpaceOnUse">
<stop offset="0.05" stop-color="#7DB828"/>
<stop offset="0.41" stop-color="#EFE300" stop-opacity="0.34"/>
<stop offset="0.68" stop-color="#EFE300" stop-opacity="0.34"/>
<stop offset="1" stop-color="#BAC32F"/>
</linearGradient>
<linearGradient id="paint62_linear" x1="-488.581" y1="14.3657" x2="-486.691" y2="14.3657" gradientUnits="userSpaceOnUse">
<stop offset="0.05" stop-color="#7DB828"/>
<stop offset="0.41" stop-color="#EFE300" stop-opacity="0.34"/>
<stop offset="0.68" stop-color="#EFE300" stop-opacity="0.34"/>
<stop offset="1" stop-color="#BAC32F"/>
</linearGradient>
<linearGradient id="paint63_linear" x1="-478.254" y1="14.3657" x2="-476.364" y2="14.3657" gradientUnits="userSpaceOnUse">
<stop offset="0.05" stop-color="#7DB828"/>
<stop offset="0.41" stop-color="#EFE300" stop-opacity="0.34"/>
<stop offset="0.68" stop-color="#EFE300" stop-opacity="0.34"/>
<stop offset="1" stop-color="#BAC32F"/>
</linearGradient>
<linearGradient id="paint64_linear" x1="25.4235" y1="33.1179" x2="27.9398" y2="33.1179" gradientUnits="userSpaceOnUse">
<stop offset="0.05" stop-color="#7DB828"/>
<stop offset="0.41" stop-color="#EFE300" stop-opacity="0.34"/>
<stop offset="0.68" stop-color="#EFE300" stop-opacity="0.34"/>
<stop offset="1" stop-color="#BAC32F"/>
</linearGradient>
<linearGradient id="paint65_linear" x1="78.8677" y1="155.922" x2="84.5544" y2="155.922" gradientUnits="userSpaceOnUse">
<stop offset="0.05" stop-color="#7DB828"/>
<stop offset="0.41" stop-color="#EFE300" stop-opacity="0.34"/>
<stop offset="0.68" stop-color="#EFE300" stop-opacity="0.34"/>
<stop offset="1" stop-color="#BAC32F"/>
</linearGradient>
<linearGradient id="paint66_linear" x1="104.279" y1="105.089" x2="109.965" y2="105.089" gradientUnits="userSpaceOnUse">
<stop offset="0.05" stop-color="#7DB828"/>
<stop offset="0.41" stop-color="#EFE300" stop-opacity="0.34"/>
<stop offset="0.68" stop-color="#EFE300" stop-opacity="0.34"/>
<stop offset="1" stop-color="#BAC32F"/>
</linearGradient>
<linearGradient id="paint67_linear" x1="104.279" y1="130.467" x2="109.965" y2="130.467" gradientUnits="userSpaceOnUse">
<stop offset="0.05" stop-color="#7DB828"/>
<stop offset="0.41" stop-color="#EFE300" stop-opacity="0.34"/>
<stop offset="0.68" stop-color="#EFE300" stop-opacity="0.34"/>
<stop offset="1" stop-color="#BAC32F"/>
</linearGradient>
<linearGradient id="paint68_linear" x1="104.279" y1="155.922" x2="109.966" y2="155.922" gradientUnits="userSpaceOnUse">
<stop offset="0.05" stop-color="#7DB828"/>
<stop offset="0.41" stop-color="#EFE300" stop-opacity="0.34"/>
<stop offset="0.68" stop-color="#EFE300" stop-opacity="0.34"/>
<stop offset="1" stop-color="#BAC32F"/>
</linearGradient>
<linearGradient id="paint69_linear" x1="104.284" y1="181.474" x2="109.971" y2="181.474" gradientUnits="userSpaceOnUse">
<stop offset="0.05" stop-color="#7DB828"/>
<stop offset="0.41" stop-color="#EFE300" stop-opacity="0.34"/>
<stop offset="0.68" stop-color="#EFE300" stop-opacity="0.34"/>
<stop offset="1" stop-color="#BAC32F"/>
</linearGradient>
<linearGradient id="paint70_linear" x1="129.691" y1="105.089" x2="135.378" y2="105.089" gradientUnits="userSpaceOnUse">
<stop offset="0.05" stop-color="#7DB828"/>
<stop offset="0.41" stop-color="#EFE300" stop-opacity="0.34"/>
<stop offset="0.68" stop-color="#EFE300" stop-opacity="0.34"/>
<stop offset="1" stop-color="#BAC32F"/>
</linearGradient>
<linearGradient id="paint71_linear" x1="129.691" y1="130.467" x2="135.378" y2="130.467" gradientUnits="userSpaceOnUse">
<stop offset="0.05" stop-color="#7DB828"/>
<stop offset="0.41" stop-color="#EFE300" stop-opacity="0.34"/>
<stop offset="0.68" stop-color="#EFE300" stop-opacity="0.34"/>
<stop offset="1" stop-color="#BAC32F"/>
</linearGradient>
<linearGradient id="paint72_linear" x1="129.689" y1="155.922" x2="135.376" y2="155.922" gradientUnits="userSpaceOnUse">
<stop offset="0.05" stop-color="#7DB828"/>
<stop offset="0.41" stop-color="#EFE300" stop-opacity="0.34"/>
<stop offset="0.68" stop-color="#EFE300" stop-opacity="0.34"/>
<stop offset="1" stop-color="#BAC32F"/>
</linearGradient>
<linearGradient id="paint73_linear" x1="129.689" y1="181.366" x2="135.376" y2="181.366" gradientUnits="userSpaceOnUse">
<stop offset="0.05" stop-color="#7DB828"/>
<stop offset="0.41" stop-color="#EFE300" stop-opacity="0.34"/>
<stop offset="0.68" stop-color="#EFE300" stop-opacity="0.34"/>
<stop offset="1" stop-color="#BAC32F"/>
</linearGradient>
<linearGradient id="paint74_linear" x1="155.107" y1="130.348" x2="160.793" y2="130.348" gradientUnits="userSpaceOnUse">
<stop offset="0.05" stop-color="#7DB828"/>
<stop offset="0.41" stop-color="#EFE300" stop-opacity="0.34"/>
<stop offset="0.68" stop-color="#EFE300" stop-opacity="0.34"/>
<stop offset="1" stop-color="#BAC32F"/>
</linearGradient>
<linearGradient id="paint75_linear" x1="155.101" y1="155.922" x2="160.788" y2="155.922" gradientUnits="userSpaceOnUse">
<stop offset="0.05" stop-color="#7DB828"/>
<stop offset="0.41" stop-color="#EFE300" stop-opacity="0.34"/>
<stop offset="0.68" stop-color="#EFE300" stop-opacity="0.34"/>
<stop offset="1" stop-color="#BAC32F"/>
</linearGradient>
</defs>
</svg>
