<svg width="274" height="228" viewBox="0 0 274 228" fill="none" xmlns="http://www.w3.org/2000/svg">
<rect width="274" height="228" rx="24" fill="url(#paint0_linear)"/>
<mask id="mask0" mask-type="alpha" maskUnits="userSpaceOnUse" x="0" y="0" width="274" height="228">
<rect width="274" height="228" rx="24" fill="url(#paint1_linear)"/>
</mask>
<g mask="url(#mask0)">
<path fill-rule="evenodd" clip-rule="evenodd" d="M211.587 26.0597C224.611 26.0597 235.175 13.305 235.175 -0.522967H188C188 -0.522967 188 -1.59629 188 -0.522967C188 13.305 198.564 26.0597 211.605 26.0597H211.587Z" fill="url(#paint2_linear)"/>
<path fill-rule="evenodd" clip-rule="evenodd" d="M26.4735 83.6361C26.4735 70.5594 13.7712 59.9512 0 59.9512L3.55729e-06 107.321C13.7712 107.321 26.4735 96.7126 26.4735 83.618V83.6361Z" fill="url(#paint3_linear)"/>
<path d="M269.858 122.168H267.88C267.866 121.708 267.757 121.255 267.565 120.837C267.373 120.419 267.098 120.045 266.758 119.735C266.245 119.252 265.835 118.667 265.555 118.018C265.278 117.368 265.135 116.668 265.137 115.961C265.14 115.247 265.285 114.54 265.563 113.883C265.84 113.225 266.248 112.63 266.758 112.133C267.111 111.818 267.392 111.432 267.585 111.001C267.779 110.569 267.879 110.102 267.88 109.628C267.879 109.155 267.779 108.687 267.585 108.256C267.392 107.824 267.111 107.439 266.758 107.124C266.248 106.626 265.84 106.031 265.563 105.374C265.285 104.717 265.14 104.01 265.137 103.296C265.133 102.58 265.276 101.872 265.554 101.214C265.833 100.556 266.243 99.9614 266.758 99.4675C267.109 99.148 267.39 98.7589 267.583 98.3245C267.775 97.8904 267.877 97.4206 267.88 96.9451C267.879 96.4695 267.777 95.9994 267.585 95.565C267.39 95.1307 267.109 94.7416 266.758 94.4228C266.248 93.9252 265.84 93.3302 265.563 92.673C265.285 92.0155 265.14 91.3089 265.137 90.5946C265.133 89.8794 265.276 89.1711 265.554 88.5127C265.833 87.8546 266.243 87.2604 266.758 86.7664C267.109 86.447 267.39 86.0579 267.583 85.6235C267.775 85.1894 267.877 84.7196 267.88 84.2441C267.879 83.7685 267.777 83.2984 267.585 82.864C267.39 82.4297 267.109 82.0406 266.758 81.7218C266.248 81.2242 265.84 80.6292 265.563 79.9719C265.285 79.3145 265.14 78.6079 265.137 77.8936C265.135 77.184 265.278 76.4813 265.557 75.8293C265.835 75.177 266.245 74.589 266.758 74.1012C267.107 73.7914 267.387 73.4116 267.579 72.9864C267.773 72.5612 267.875 72.1 267.88 71.6326H269.858C269.82 73.0495 269.247 74.3991 268.254 75.4071C267.902 75.721 267.618 76.1065 267.426 76.5384C267.232 76.97 267.132 77.4382 267.132 77.9115C267.13 78.3854 267.228 78.8541 267.422 79.2861C267.617 79.7183 267.9 80.1034 268.254 80.4159C268.762 80.915 269.165 81.5107 269.439 82.168C269.715 82.8254 269.858 83.5311 269.858 84.2441C269.858 84.9572 269.715 85.6631 269.439 86.3203C269.165 86.9775 268.762 87.5732 268.254 88.0723C267.902 88.3897 267.618 88.7784 267.424 89.2131C267.232 89.6478 267.132 90.1186 267.132 90.5946C267.132 91.0707 267.232 91.5415 267.424 91.9762C267.618 92.4109 267.902 92.7996 268.254 93.117C268.762 93.6161 269.165 94.2117 269.439 94.869C269.715 95.5264 269.858 96.2321 269.858 96.9451C269.858 97.6582 269.715 98.3641 269.439 99.0213C269.165 99.6785 268.762 100.274 268.254 100.773C267.9 101.089 267.615 101.478 267.422 101.913C267.228 102.348 267.13 102.819 267.132 103.296C267.132 103.772 267.232 104.243 267.424 104.677C267.618 105.112 267.902 105.501 268.254 105.818C268.762 106.317 269.165 106.913 269.439 107.57C269.715 108.227 269.858 108.933 269.858 109.646C269.858 110.359 269.715 111.065 269.439 111.722C269.165 112.38 268.762 112.975 268.254 113.474C267.9 113.79 267.615 114.179 267.422 114.614C267.228 115.049 267.13 115.52 267.132 115.997C267.129 116.46 267.228 116.918 267.422 117.339C267.617 117.76 267.9 118.132 268.254 118.43C269.234 119.432 269.806 120.765 269.858 122.168Z" fill="url(#paint4_linear)"/>
<path d="M274.56 109.253H272.654C272.643 108.791 272.538 108.338 272.344 107.919C272.151 107.501 271.875 107.126 271.531 106.82C271.022 106.33 270.617 105.741 270.341 105.089C270.065 104.437 269.924 103.736 269.928 103.027C269.931 102.317 270.074 101.615 270.348 100.961C270.624 100.307 271.025 99.7142 271.531 99.2171C271.895 98.8969 272.185 98.4999 272.377 98.0548C272.572 97.6096 272.666 97.127 272.654 96.6411C272.655 96.1674 272.557 95.6985 272.363 95.2665C272.169 94.8345 271.886 94.4492 271.531 94.1367C271.023 93.6376 270.621 93.0419 270.346 92.3846C270.07 91.7274 269.928 91.0215 269.928 90.3085C269.928 89.5954 270.07 88.8897 270.346 88.2323C270.621 87.5751 271.023 86.9794 271.531 86.4803C271.864 86.1814 272.137 85.8186 272.329 85.413C272.522 85.0077 272.632 84.5678 272.654 84.119C272.655 83.6426 272.557 83.171 272.363 82.736C272.171 82.3011 271.886 81.9126 271.531 81.5967C271.023 81.0976 270.621 80.5019 270.346 79.8446C270.07 79.1874 269.928 78.4815 269.928 77.7685C269.928 77.0554 270.07 76.3497 270.346 75.6923C270.621 75.0351 271.023 74.4394 271.531 73.9403C271.884 73.6229 272.167 73.2342 272.361 72.7995C272.554 72.3648 272.654 71.8942 272.654 71.418C272.655 70.9416 272.557 70.47 272.363 70.0352C272.171 69.6001 271.886 69.2116 271.531 68.8956C271.023 68.3966 270.621 67.8009 270.346 67.1436C270.07 66.4864 269.928 65.7805 269.928 65.0675C269.928 64.3596 270.069 63.6587 270.345 63.007C270.619 62.3553 271.023 61.7663 271.531 61.275C271.882 60.9674 272.164 60.5879 272.358 60.1624C272.55 59.7366 272.652 59.2744 272.654 58.8064H274.631C274.594 60.2234 274.02 61.5729 273.028 62.5809C272.675 62.8949 272.392 63.2805 272.199 63.7122C272.005 64.1439 271.905 64.612 271.905 65.0853C271.904 65.5592 272.002 66.0279 272.196 66.4601C272.39 66.8921 272.673 67.2774 273.028 67.5898C273.535 68.0889 273.938 68.6846 274.212 69.3418C274.489 69.9992 274.631 70.7049 274.631 71.418C274.631 72.131 274.489 72.8369 274.212 73.4941C273.938 74.1514 273.535 74.7471 273.028 75.2462C272.675 75.5635 272.392 75.9524 272.197 76.3869C272.005 76.8216 271.905 77.2924 271.905 77.7685C271.905 78.2447 272.005 78.7153 272.197 79.15C272.392 79.5847 272.675 79.9734 273.028 80.2908C273.535 80.7899 273.938 81.3856 274.212 82.0428C274.489 82.7002 274.631 83.4059 274.631 84.119C274.631 84.832 274.489 85.5379 274.212 86.1951C273.938 86.8524 273.535 87.4481 273.028 87.9472C272.673 88.2631 272.388 88.6516 272.196 89.0865C272.002 89.5216 271.902 89.9931 271.905 90.4695C271.905 90.9457 272.005 91.4163 272.197 91.851C272.392 92.2857 272.675 92.6744 273.028 92.9918C273.535 93.4909 273.938 94.0866 274.212 94.7438C274.489 95.4012 274.631 96.1069 274.631 96.82C274.631 97.533 274.489 98.2389 274.212 98.8962C273.938 99.5534 273.535 100.149 273.028 100.648C272.673 100.964 272.388 101.353 272.196 101.788C272.002 102.223 271.902 102.694 271.905 103.17C271.902 103.634 272.002 104.092 272.196 104.513C272.39 104.933 272.673 105.306 273.028 105.603C274.008 106.605 274.579 107.939 274.631 109.342L274.56 109.253Z" fill="url(#paint5_linear)"/>
<path d="M260.721 148.362H258.744C258.729 147.902 258.621 147.449 258.428 147.031C258.236 146.613 257.962 146.238 257.621 145.929C257.108 145.445 256.698 144.861 256.419 144.211C256.141 143.562 255.998 142.862 256 142.154C256.004 141.44 256.148 140.734 256.426 140.076C256.704 139.419 257.112 138.824 257.621 138.326C257.974 138.012 258.255 137.626 258.448 137.194C258.642 136.763 258.742 136.295 258.744 135.822C258.742 135.349 258.642 134.881 258.448 134.449C258.255 134.018 257.974 133.632 257.621 133.317C257.112 132.82 256.704 132.225 256.426 131.568C256.148 130.91 256.004 130.204 256 129.489C255.997 128.774 256.139 128.066 256.417 127.407C256.697 126.749 257.106 126.155 257.621 125.661C257.972 125.342 258.254 124.952 258.446 124.518C258.638 124.084 258.74 123.614 258.744 123.139C258.742 122.663 258.64 122.193 258.448 121.759C258.254 121.324 257.972 120.935 257.621 120.616C257.112 120.119 256.704 119.524 256.426 118.867C256.148 118.209 256.004 117.503 256 116.788C255.997 116.073 256.139 115.365 256.417 114.706C256.697 114.048 257.106 113.454 257.621 112.96C257.972 112.641 258.254 112.251 258.446 111.817C258.638 111.383 258.74 110.913 258.744 110.438C258.742 109.962 258.64 109.492 258.448 109.058C258.254 108.623 257.972 108.234 257.621 107.915C257.112 107.418 256.704 106.823 256.426 106.166C256.148 105.508 256.004 104.802 256 104.087C255.998 103.378 256.141 102.675 256.42 102.023C256.698 101.371 257.108 100.783 257.621 100.295C257.97 99.985 258.25 99.6052 258.443 99.18C258.637 98.7548 258.738 98.2936 258.744 97.8262H260.721C260.684 99.2431 260.11 100.593 259.118 101.601C258.765 101.915 258.482 102.3 258.289 102.732C258.095 103.164 257.995 103.632 257.995 104.105C257.994 104.579 258.092 105.048 258.286 105.48C258.48 105.912 258.763 106.297 259.118 106.61C259.625 107.109 260.028 107.704 260.302 108.362C260.579 109.019 260.721 109.725 260.721 110.438C260.721 111.151 260.579 111.857 260.302 112.514C260.028 113.171 259.625 113.767 259.118 114.266C258.765 114.583 258.482 114.972 258.288 115.407C258.095 115.841 257.995 116.312 257.995 116.788C257.995 117.264 258.095 117.735 258.288 118.17C258.482 118.604 258.765 118.993 259.118 119.311C259.625 119.81 260.028 120.405 260.302 121.063C260.579 121.72 260.721 122.426 260.721 123.139C260.721 123.852 260.579 124.558 260.302 125.215C260.028 125.872 259.625 126.468 259.118 126.967C258.763 127.283 258.478 127.671 258.286 128.106C258.092 128.541 257.994 129.013 257.995 129.489C257.995 129.965 258.095 130.436 258.288 130.871C258.482 131.306 258.765 131.694 259.118 132.012C259.625 132.511 260.028 133.106 260.302 133.764C260.579 134.421 260.721 135.127 260.721 135.84C260.721 136.553 260.579 137.259 260.302 137.916C260.028 138.573 259.625 139.169 259.118 139.668C258.763 139.984 258.478 140.372 258.286 140.807C258.092 141.242 257.994 141.714 257.995 142.19C257.992 142.654 258.092 143.112 258.286 143.533C258.48 143.953 258.763 144.326 259.118 144.623C260.098 145.625 260.669 146.959 260.721 148.362Z" fill="url(#paint6_linear)"/>
<path d="M265.423 135.446H263.517C263.506 134.985 263.401 134.531 263.207 134.113C263.014 133.694 262.738 133.32 262.394 133.013C261.885 132.523 261.481 131.935 261.204 131.283C260.928 130.631 260.788 129.929 260.791 129.221C260.795 128.511 260.937 127.808 261.212 127.154C261.488 126.5 261.889 125.908 262.394 125.411C262.758 125.09 263.048 124.694 263.241 124.248C263.435 123.803 263.529 123.321 263.517 122.835C263.519 122.361 263.421 121.892 263.226 121.46C263.032 121.028 262.749 120.643 262.394 120.33C261.887 119.831 261.484 119.235 261.21 118.578C260.934 117.921 260.791 117.215 260.791 116.502C260.791 115.789 260.934 115.083 261.21 114.426C261.484 113.769 261.887 113.173 262.394 112.674C262.728 112.375 263 112.012 263.193 111.607C263.385 111.201 263.495 110.761 263.517 110.313C263.519 109.836 263.421 109.365 263.226 108.93C263.034 108.495 262.749 108.106 262.394 107.79C261.887 107.291 261.484 106.695 261.21 106.038C260.934 105.381 260.791 104.675 260.791 103.962C260.791 103.249 260.934 102.543 261.21 101.886C261.484 101.229 261.887 100.633 262.394 100.134C262.747 99.8165 263.03 99.4278 263.225 98.9931C263.417 98.5584 263.517 98.0878 263.517 97.6116C263.519 97.1352 263.421 96.6636 263.226 96.2288C263.034 95.7937 262.749 95.4052 262.394 95.0893C261.887 94.5902 261.484 93.9945 261.21 93.3372C260.934 92.68 260.791 91.9741 260.791 91.2611C260.791 90.5532 260.932 89.8523 261.208 89.2006C261.482 88.5489 261.887 87.9599 262.394 87.4686C262.745 87.161 263.027 86.7815 263.221 86.356C263.414 85.9302 263.515 85.468 263.517 85H265.494C265.457 86.417 264.883 87.7665 263.891 88.7745C263.538 89.0885 263.255 89.4742 263.063 89.9058C262.868 90.3375 262.769 90.8056 262.769 91.279C262.767 91.7528 262.865 92.2215 263.059 92.6537C263.253 93.0857 263.536 93.471 263.891 93.7834C264.399 94.2825 264.801 94.8782 265.076 95.5354C265.352 96.1928 265.494 96.8985 265.494 97.6116C265.494 98.3246 265.352 99.0305 265.076 99.6877C264.801 100.345 264.399 100.941 263.891 101.44C263.538 101.757 263.255 102.146 263.061 102.581C262.868 103.015 262.769 103.486 262.769 103.962C262.769 104.438 262.868 104.909 263.061 105.344C263.255 105.778 263.538 106.167 263.891 106.484C264.399 106.983 264.801 107.579 265.076 108.236C265.352 108.894 265.494 109.6 265.494 110.313C265.494 111.026 265.352 111.732 265.076 112.389C264.801 113.046 264.399 113.642 263.891 114.141C263.536 114.457 263.251 114.845 263.059 115.28C262.865 115.715 262.765 116.187 262.769 116.663C262.769 117.139 262.868 117.61 263.061 118.045C263.255 118.479 263.538 118.868 263.891 119.185C264.399 119.684 264.801 120.28 265.076 120.937C265.352 121.595 265.494 122.301 265.494 123.014C265.494 123.727 265.352 124.433 265.076 125.09C264.801 125.747 264.399 126.343 263.891 126.842C263.536 127.158 263.251 127.546 263.059 127.981C262.865 128.416 262.765 128.888 262.769 129.364C262.765 129.828 262.865 130.286 263.059 130.706C263.253 131.127 263.536 131.499 263.891 131.797C264.871 132.799 265.443 134.132 265.494 135.536L265.423 135.446Z" fill="url(#paint7_linear)"/>
<path fill-rule="evenodd" clip-rule="evenodd" d="M64.5165 72.9208C64.5165 73.3207 64.3984 73.7115 64.1773 74.0439C63.956 74.3763 63.6416 74.6355 63.2737 74.7884C62.9058 74.9414 62.5011 74.9815 62.1106 74.9035C61.72 74.8255 61.3614 74.633 61.0799 74.3502C60.7983 74.0675 60.6066 73.7074 60.5289 73.3153C60.4512 72.9232 60.4911 72.5166 60.6435 72.1473C60.7958 71.7779 61.0539 71.4622 61.3849 71.24C61.7159 71.018 62.1052 70.8994 62.5034 70.8994C63.0373 70.8994 63.5493 71.1125 63.9268 71.4915C64.3043 71.8706 64.5165 72.3847 64.5165 72.9208Z" fill="url(#paint8_linear)"/>
<path fill-rule="evenodd" clip-rule="evenodd" d="M64.5164 85.4425C64.52 85.843 64.4049 86.2357 64.1859 86.5704C63.9668 86.9051 63.6538 87.167 63.2862 87.3228C62.9187 87.4786 62.5132 87.5212 62.1217 87.4451C61.7299 87.3691 61.3697 87.1781 61.0862 86.8961C60.803 86.6142 60.6095 86.2539 60.5302 85.8615C60.4511 85.4688 60.49 85.0615 60.6417 84.691C60.7937 84.3207 61.0517 84.0039 61.383 83.781C61.7146 83.5581 62.1044 83.439 62.5033 83.439C63.0342 83.439 63.5435 83.6495 63.9207 84.0246C64.2976 84.3999 64.5118 84.9096 64.5164 85.4425Z" fill="url(#paint9_linear)"/>
<path fill-rule="evenodd" clip-rule="evenodd" d="M76.9364 60.5063C76.9364 60.9061 76.8183 61.2969 76.597 61.6293C76.376 61.9618 76.0615 62.2209 75.6936 62.3738C75.3257 62.5268 74.921 62.5669 74.5305 62.4889C74.14 62.4109 73.7813 62.2184 73.4997 61.9357C73.2182 61.653 73.0265 61.2928 72.9488 60.9006C72.8712 60.5085 72.9111 60.1021 73.0634 59.7327C73.2157 59.3634 73.4737 59.0477 73.8049 58.8255C74.1359 58.6034 74.5251 58.4849 74.9233 58.4849C75.4572 58.4849 75.9692 58.6978 76.3467 59.0769C76.7243 59.456 76.9364 59.9702 76.9364 60.5063Z" fill="url(#paint10_linear)"/>
<path fill-rule="evenodd" clip-rule="evenodd" d="M76.9364 72.9208C76.9364 73.3207 76.8183 73.7115 76.597 74.0439C76.376 74.3763 76.0615 74.6355 75.6936 74.7884C75.3257 74.9414 74.921 74.9815 74.5305 74.9035C74.14 74.8255 73.7813 74.633 73.4997 74.3502C73.2182 74.0675 73.0265 73.7074 72.9488 73.3153C72.8712 72.9232 72.9111 72.5166 73.0634 72.1473C73.2157 71.7779 73.4737 71.4622 73.8049 71.24C74.1359 71.018 74.5251 70.8994 74.9233 70.8994C75.4572 70.8994 75.9692 71.1125 76.3467 71.4915C76.7243 71.8706 76.9364 72.3847 76.9364 72.9208Z" fill="url(#paint11_linear)"/>
<path fill-rule="evenodd" clip-rule="evenodd" d="M76.9363 85.4425C76.9399 85.843 76.8248 86.2357 76.6058 86.5704C76.3867 86.9051 76.0735 87.167 75.706 87.3228C75.3385 87.4786 74.9332 87.5212 74.5416 87.4451C74.1498 87.3691 73.7894 87.1781 73.5062 86.8961C73.2229 86.6142 73.0294 86.2539 72.9501 85.8615C72.871 85.4688 72.9099 85.0615 73.0617 84.691C73.2136 84.3207 73.4716 84.0039 73.803 83.781C74.1345 83.5581 74.5243 83.439 74.9232 83.439C75.4541 83.439 75.9634 83.6495 76.3406 84.0246C76.7175 84.3999 76.9317 84.9096 76.9363 85.4425Z" fill="url(#paint12_linear)"/>
<path fill-rule="evenodd" clip-rule="evenodd" d="M76.9373 97.965C76.9637 98.2453 76.9314 98.528 76.8425 98.7949C76.7538 99.0619 76.6106 99.3074 76.4219 99.5156C76.2332 99.7236 76.0032 99.89 75.7469 100.004C75.4905 100.118 75.2133 100.176 74.9331 100.176C74.6527 100.176 74.3754 100.118 74.1191 100.004C73.8627 99.89 73.6327 99.7236 73.4441 99.5156C73.2554 99.3074 73.1122 99.0619 73.0234 98.7949C72.9347 98.528 72.9025 98.2453 72.9288 97.965C72.9759 97.4641 73.2073 96.9986 73.578 96.66C73.9488 96.3212 74.4319 96.1335 74.9331 96.1335C75.4342 96.1335 75.9174 96.3212 76.2879 96.66C76.6587 96.9986 76.8901 97.4641 76.9373 97.965Z" fill="url(#paint13_linear)"/>
<path fill-rule="evenodd" clip-rule="evenodd" d="M89.3549 60.5064C89.3548 60.9069 89.2363 61.2984 89.0143 61.6312C88.7923 61.9641 88.4768 62.2231 88.1079 62.3756C87.7391 62.528 87.3334 62.567 86.9424 62.4875C86.5513 62.4081 86.1927 62.2138 85.9119 61.9293C85.6312 61.6448 85.4407 61.2829 85.3652 60.8897C85.2895 60.4964 85.3319 60.0894 85.4871 59.7203C85.642 59.3513 85.9029 59.0368 86.2364 58.8169C86.5697 58.5969 86.9606 58.4814 87.3596 58.4849C87.6231 58.4849 87.8839 58.5373 88.1273 58.6391C88.3705 58.7409 88.5912 58.8901 88.7768 59.0781C88.9623 59.266 89.1089 59.489 89.2081 59.7342C89.3074 59.9793 89.3573 60.2418 89.3549 60.5064Z" fill="url(#paint14_linear)"/>
<path fill-rule="evenodd" clip-rule="evenodd" d="M89.3569 72.9209C89.3567 73.3215 89.2382 73.713 89.0163 74.0458C88.7943 74.3785 88.4788 74.6377 88.1098 74.7901C87.741 74.9425 87.3354 74.9815 86.9443 74.9021C86.5533 74.8227 86.1947 74.6282 85.9139 74.3438C85.6331 74.0594 85.4427 73.6975 85.3671 73.3041C85.2914 72.9109 85.3338 72.5039 85.489 72.1349C85.644 71.7658 85.9048 71.4514 86.2383 71.2313C86.5716 71.0115 86.9625 70.8959 87.3616 70.8995C87.6251 70.8995 87.8859 70.9519 88.1292 71.0537C88.3724 71.1555 88.5931 71.3047 88.7788 71.4927C88.9642 71.6805 89.1109 71.9036 89.2101 72.1487C89.3093 72.3937 89.3592 72.6563 89.3569 72.9209Z" fill="url(#paint15_linear)"/>
<path fill-rule="evenodd" clip-rule="evenodd" d="M89.3567 85.4426C89.3603 85.8438 89.2447 86.2372 89.0248 86.5723C88.805 86.9075 88.4909 87.1694 88.1223 87.3245C87.7537 87.4798 87.3475 87.5213 86.9552 87.4438C86.5631 87.3663 86.2029 87.1735 85.9202 86.8898C85.6376 86.6059 85.4456 86.2442 85.3684 85.8504C85.2913 85.4565 85.3326 85.0487 85.4872 84.6786C85.6419 84.3084 85.9025 83.9931 86.2364 83.7723C86.5701 83.5516 86.9618 83.4355 87.3614 83.439C87.8907 83.439 88.3981 83.6501 88.7724 84.0258C89.1465 84.4016 89.3567 84.9113 89.3567 85.4426Z" fill="url(#paint16_linear)"/>
<path fill-rule="evenodd" clip-rule="evenodd" d="M89.3567 97.9653C89.3603 98.3665 89.2447 98.7599 89.0248 99.095C88.805 99.4302 88.4909 99.6921 88.1223 99.8472C87.7537 100.002 87.3475 100.044 86.9552 99.9665C86.5631 99.889 86.2029 99.6962 85.9202 99.4125C85.6376 99.1286 85.4456 98.7669 85.3684 98.3732C85.2913 97.9792 85.3326 97.5714 85.4872 97.2013C85.6419 96.8311 85.9025 96.5158 86.2364 96.295C86.5701 96.0743 86.9618 95.9582 87.3614 95.9618C87.8891 95.9664 88.394 96.1789 88.7672 96.5537C89.1405 96.9285 89.3521 97.4354 89.3567 97.9653Z" fill="url(#paint17_linear)"/>
<path fill-rule="evenodd" clip-rule="evenodd" d="M101.765 72.9211C101.718 73.4222 101.486 73.8875 101.116 74.2261C100.745 74.5649 100.262 74.7526 99.7607 74.7526C99.2596 74.7526 98.7764 74.5649 98.4059 74.2261C98.0351 73.8875 97.8037 73.4222 97.7565 72.9211C97.7301 72.6408 97.7624 72.3582 97.8511 72.0913C97.94 71.8242 98.0832 71.5788 98.2719 71.3705C98.4605 71.1625 98.6904 70.9961 98.9469 70.8823C99.2033 70.7686 99.4805 70.7097 99.7607 70.7097C100.041 70.7097 100.318 70.7686 100.575 70.8823C100.831 70.9961 101.061 71.1625 101.25 71.3705C101.438 71.5788 101.582 71.8242 101.67 72.0913C101.759 72.3582 101.791 72.6408 101.765 72.9211Z" fill="url(#paint18_linear)"/>
<path fill-rule="evenodd" clip-rule="evenodd" d="M101.764 85.4426C101.768 85.8438 101.652 86.2372 101.432 86.5723C101.212 86.9075 100.898 87.1694 100.53 87.3245C100.161 87.4798 99.7546 87.5213 99.3625 87.4438C98.9703 87.3663 98.6099 87.1735 98.3274 86.8898C98.0448 86.6059 97.8526 86.2442 97.7756 85.8504C97.6985 85.4565 97.7398 85.0487 97.8945 84.6786C98.0489 84.3084 98.3098 83.9931 98.6436 83.7723C98.9773 83.5516 99.3689 83.4355 99.7686 83.439C100.298 83.439 100.805 83.6501 101.179 84.0258C101.554 84.4016 101.764 84.9113 101.764 85.4426Z" fill="url(#paint19_linear)"/>
<path d="M165.415 184.779C166.145 184.582 166.894 184.421 167.642 184.26C167.669 184.396 167.669 184.536 167.642 184.672C167.642 184.98 167.521 185.276 167.303 185.494C167.086 185.712 166.79 185.834 166.484 185.834C166.197 185.831 165.923 185.722 165.713 185.527C165.501 185.332 165.37 185.065 165.344 184.779H165.415Z" fill="url(#paint20_linear)"/>
<path d="M172.583 184.671C172.583 184.363 172.706 184.067 172.922 183.849C173.139 183.631 173.435 183.509 173.741 183.509C174.046 183.513 174.334 183.638 174.548 183.855C174.762 184.073 174.881 184.366 174.881 184.671C174.881 184.977 174.762 185.27 174.548 185.487C174.334 185.705 174.046 185.829 173.741 185.834C173.435 185.834 173.139 185.712 172.922 185.493C172.706 185.275 172.583 184.98 172.583 184.671Z" fill="url(#paint21_linear)"/>
<path d="M179.737 184.671C179.737 184.363 179.858 184.067 180.076 183.849C180.293 183.631 180.589 183.509 180.895 183.509C181.2 183.513 181.489 183.638 181.702 183.855C181.916 184.073 182.035 184.366 182.035 184.671C182.035 184.977 181.916 185.27 181.702 185.487C181.489 185.705 181.2 185.829 180.895 185.834C180.589 185.834 180.293 185.712 180.076 185.493C179.858 185.275 179.737 184.98 179.737 184.671Z" fill="url(#paint22_linear)"/>
<path d="M186.901 184.672C186.884 184.535 186.884 184.397 186.901 184.26C187.65 184.421 188.398 184.582 189.128 184.779C189.105 185.067 188.975 185.336 188.765 185.531C188.553 185.727 188.275 185.835 187.988 185.834C187.682 185.834 187.386 185.712 187.169 185.494C186.953 185.276 186.83 184.98 186.83 184.672H186.901Z" fill="url(#paint23_linear)"/>
<path d="M151.076 191.934C151.081 191.628 151.204 191.335 151.42 191.118C151.637 190.9 151.928 190.776 152.234 190.772C152.541 190.772 152.836 190.894 153.053 191.112C153.27 191.33 153.392 191.626 153.392 191.934C153.392 192.243 153.27 192.539 153.053 192.757C152.836 192.975 152.541 193.097 152.234 193.097C151.928 193.093 151.637 192.969 151.42 192.752C151.204 192.534 151.081 192.241 151.076 191.934Z" fill="url(#paint24_linear)"/>
<path d="M158.25 191.934C158.25 191.629 158.369 191.336 158.583 191.119C158.797 190.901 159.086 190.776 159.39 190.772C159.542 190.772 159.693 190.802 159.834 190.86C159.975 190.919 160.101 191.004 160.21 191.112C160.317 191.22 160.402 191.348 160.461 191.49C160.518 191.631 160.548 191.782 160.548 191.934C160.548 192.243 160.427 192.539 160.21 192.757C159.992 192.975 159.697 193.097 159.39 193.097C159.086 193.093 158.797 192.968 158.583 192.75C158.369 192.533 158.25 192.24 158.25 191.934Z" fill="url(#paint25_linear)"/>
<path d="M165.417 191.934C165.417 191.629 165.537 191.336 165.751 191.119C165.964 190.901 166.253 190.776 166.558 190.772C166.709 190.772 166.861 190.802 167.001 190.86C167.142 190.919 167.268 191.004 167.377 191.112C167.484 191.22 167.57 191.348 167.628 191.49C167.685 191.631 167.716 191.782 167.716 191.934C167.716 192.243 167.595 192.539 167.377 192.757C167.16 192.975 166.864 193.097 166.558 193.097C166.253 193.093 165.964 192.968 165.751 192.75C165.537 192.533 165.417 192.24 165.417 191.934Z" fill="url(#paint26_linear)"/>
<path d="M172.584 191.934C172.584 191.626 172.707 191.33 172.923 191.112C173.14 190.894 173.436 190.772 173.742 190.772C174.047 190.776 174.336 190.901 174.55 191.119C174.763 191.336 174.883 191.629 174.883 191.934C174.883 192.24 174.763 192.533 174.55 192.75C174.336 192.968 174.047 193.093 173.742 193.097C173.436 193.097 173.14 192.975 172.923 192.757C172.707 192.539 172.584 192.243 172.584 191.934Z" fill="url(#paint27_linear)"/>
<path d="M179.735 191.934C179.735 191.782 179.766 191.631 179.823 191.49C179.881 191.348 179.967 191.22 180.074 191.112C180.183 191.004 180.309 190.919 180.45 190.86C180.59 190.802 180.742 190.772 180.893 190.772C181.198 190.776 181.487 190.901 181.7 191.119C181.914 191.336 182.034 191.629 182.034 191.934C182.034 192.24 181.914 192.533 181.7 192.75C181.487 192.968 181.198 193.093 180.893 193.097C180.587 193.097 180.291 192.975 180.074 192.757C179.856 192.539 179.735 192.243 179.735 191.934Z" fill="url(#paint28_linear)"/>
<path d="M186.903 191.934C186.903 191.782 186.933 191.631 186.99 191.49C187.049 191.348 187.134 191.22 187.241 191.112C187.35 191.004 187.476 190.919 187.617 190.86C187.758 190.802 187.909 190.772 188.061 190.772C188.367 190.776 188.658 190.9 188.875 191.118C189.091 191.335 189.213 191.628 189.219 191.934C189.213 192.241 189.091 192.534 188.875 192.752C188.658 192.969 188.367 193.093 188.061 193.097C187.754 193.097 187.459 192.975 187.241 192.757C187.024 192.539 186.903 192.243 186.903 191.934Z" fill="url(#paint29_linear)"/>
<path d="M194.07 191.934C194.07 191.782 194.101 191.631 194.158 191.49C194.216 191.348 194.302 191.22 194.409 191.112C194.517 191.004 194.644 190.919 194.785 190.86C194.925 190.802 195.077 190.772 195.228 190.772C195.38 190.772 195.531 190.802 195.672 190.86C195.813 190.919 195.939 191.004 196.048 191.112C196.155 191.22 196.24 191.348 196.299 191.49C196.356 191.631 196.386 191.782 196.386 191.934C196.386 192.243 196.265 192.539 196.048 192.757C195.83 192.975 195.535 193.097 195.228 193.097C194.922 193.097 194.626 192.975 194.409 192.757C194.191 192.539 194.07 192.243 194.07 191.934Z" fill="url(#paint30_linear)"/>
<path d="M201.225 191.934C201.225 191.782 201.255 191.631 201.314 191.49C201.371 191.348 201.457 191.22 201.564 191.112C201.672 191.004 201.799 190.919 201.939 190.86C202.08 190.802 202.232 190.772 202.383 190.772C202.535 190.772 202.686 190.802 202.827 190.86C202.967 190.919 203.094 191.004 203.203 191.112C203.309 191.22 203.395 191.348 203.454 191.49C203.511 191.631 203.541 191.782 203.541 191.934C203.541 192.243 203.42 192.539 203.203 192.757C202.985 192.975 202.69 193.097 202.383 193.097C202.077 193.097 201.781 192.975 201.564 192.757C201.348 192.539 201.225 192.243 201.225 191.934Z" fill="url(#paint31_linear)"/>
<path d="M143.912 199.089C143.917 198.784 144.041 198.493 144.257 198.279C144.474 198.065 144.766 197.945 145.07 197.945C145.374 197.945 145.666 198.065 145.883 198.279C146.099 198.493 146.223 198.784 146.228 199.089C146.228 199.398 146.106 199.694 145.889 199.912C145.672 200.13 145.377 200.252 145.07 200.252C144.763 200.252 144.468 200.13 144.251 199.912C144.034 199.694 143.912 199.398 143.912 199.089Z" fill="url(#paint32_linear)"/>
<path d="M151.076 199.089C151.081 198.784 151.205 198.493 151.422 198.279C151.638 198.065 151.93 197.945 152.234 197.945C152.538 197.945 152.83 198.065 153.047 198.279C153.263 198.493 153.388 198.784 153.392 199.089C153.392 199.398 153.27 199.694 153.053 199.912C152.836 200.13 152.541 200.252 152.234 200.252C151.928 200.248 151.637 200.124 151.42 199.907C151.204 199.689 151.081 199.396 151.076 199.089Z" fill="url(#paint33_linear)"/>
<path d="M158.25 199.089C158.25 198.786 158.369 198.495 158.583 198.28C158.799 198.065 159.087 197.945 159.39 197.945C159.695 197.945 159.987 198.065 160.203 198.279C160.42 198.493 160.543 198.784 160.548 199.089C160.548 199.398 160.427 199.694 160.21 199.912C159.992 200.13 159.697 200.252 159.39 200.252C159.086 200.248 158.797 200.123 158.583 199.906C158.369 199.688 158.25 199.395 158.25 199.089Z" fill="url(#paint34_linear)"/>
<path d="M165.417 199.089C165.417 198.786 165.537 198.495 165.752 198.28C165.966 198.065 166.255 197.945 166.558 197.945C166.862 197.945 167.154 198.065 167.37 198.279C167.587 198.493 167.71 198.784 167.716 199.089C167.716 199.398 167.595 199.694 167.377 199.912C167.16 200.13 166.864 200.252 166.558 200.252C166.253 200.248 165.964 200.123 165.751 199.906C165.537 199.688 165.417 199.395 165.417 199.089Z" fill="url(#paint35_linear)"/>
<path d="M172.584 199.089C172.59 198.784 172.713 198.493 172.93 198.279C173.147 198.065 173.438 197.945 173.742 197.945C174.045 197.945 174.336 198.065 174.55 198.28C174.763 198.495 174.883 198.786 174.883 199.089C174.883 199.395 174.763 199.688 174.55 199.906C174.336 200.123 174.047 200.248 173.742 200.252C173.436 200.252 173.14 200.13 172.923 199.912C172.707 199.694 172.584 199.398 172.584 199.089Z" fill="url(#paint36_linear)"/>
<path d="M179.735 199.089C179.741 198.784 179.864 198.493 180.081 198.279C180.297 198.065 180.589 197.945 180.893 197.945C181.196 197.945 181.487 198.065 181.7 198.28C181.914 198.495 182.034 198.786 182.034 199.089C182.034 199.395 181.914 199.688 181.7 199.906C181.487 200.123 181.198 200.248 180.893 200.252C180.587 200.252 180.291 200.13 180.074 199.912C179.856 199.694 179.735 199.398 179.735 199.089Z" fill="url(#paint37_linear)"/>
<path d="M186.903 199.089C186.908 198.784 187.031 198.493 187.248 198.279C187.464 198.065 187.756 197.945 188.061 197.945C188.365 197.945 188.656 198.065 188.873 198.279C189.091 198.493 189.213 198.784 189.219 199.089C189.213 199.396 189.091 199.689 188.875 199.907C188.658 200.124 188.367 200.248 188.061 200.252C187.754 200.252 187.459 200.13 187.241 199.912C187.024 199.694 186.903 199.398 186.903 199.089Z" fill="url(#paint38_linear)"/>
<path d="M194.07 199.089C194.076 198.784 194.199 198.493 194.416 198.279C194.631 198.065 194.924 197.945 195.228 197.945C195.533 197.945 195.823 198.065 196.041 198.279C196.258 198.493 196.381 198.784 196.386 199.089C196.386 199.398 196.265 199.694 196.048 199.912C195.83 200.13 195.535 200.252 195.228 200.252C194.922 200.252 194.626 200.13 194.409 199.912C194.191 199.694 194.07 199.398 194.07 199.089Z" fill="url(#paint39_linear)"/>
<path d="M201.225 199.089C201.23 198.784 201.353 198.493 201.571 198.279C201.788 198.065 202.078 197.945 202.383 197.945C202.688 197.945 202.98 198.065 203.195 198.279C203.413 198.493 203.536 198.784 203.541 199.089C203.541 199.398 203.42 199.694 203.203 199.912C202.985 200.13 202.69 200.252 202.383 200.252C202.077 200.252 201.781 200.13 201.564 199.912C201.348 199.694 201.225 199.398 201.225 199.089Z" fill="url(#paint40_linear)"/>
<path d="M208.389 199.089C208.395 198.784 208.517 198.493 208.735 198.279C208.952 198.065 209.243 197.945 209.547 197.945C209.852 197.945 210.144 198.065 210.36 198.279C210.577 198.493 210.7 198.784 210.705 199.089C210.705 199.398 210.584 199.694 210.367 199.912C210.149 200.13 209.854 200.252 209.547 200.252C209.241 200.252 208.945 200.13 208.728 199.912C208.512 199.694 208.389 199.398 208.389 199.089Z" fill="url(#paint41_linear)"/>
<path d="M136.758 206.246C136.762 205.941 136.886 205.65 137.103 205.436C137.32 205.221 137.612 205.101 137.916 205.101C138.22 205.101 138.512 205.221 138.728 205.436C138.945 205.65 139.069 205.941 139.074 206.246C139.074 206.555 138.952 206.85 138.735 207.068C138.517 207.286 138.223 207.409 137.916 207.409C137.609 207.409 137.314 207.286 137.097 207.068C136.88 206.85 136.758 206.555 136.758 206.246Z" fill="url(#paint42_linear)"/>
<path d="M143.912 206.246C143.917 205.941 144.041 205.65 144.257 205.436C144.474 205.221 144.766 205.101 145.07 205.101C145.374 205.101 145.666 205.221 145.883 205.436C146.099 205.65 146.223 205.941 146.228 206.246C146.228 206.555 146.106 206.85 145.889 207.068C145.672 207.286 145.377 207.409 145.07 207.409C144.763 207.409 144.468 207.286 144.251 207.068C144.034 206.85 143.912 206.555 143.912 206.246Z" fill="url(#paint43_linear)"/>
<path d="M151.076 206.246C151.081 205.941 151.205 205.65 151.422 205.436C151.638 205.221 151.93 205.101 152.234 205.101C152.538 205.101 152.83 205.221 153.047 205.436C153.263 205.65 153.388 205.941 153.392 206.246C153.392 206.555 153.27 206.85 153.053 207.068C152.836 207.286 152.541 207.409 152.234 207.409C151.928 207.404 151.637 207.28 151.42 207.063C151.204 206.846 151.081 206.553 151.076 206.246Z" fill="url(#paint44_linear)"/>
<path d="M158.25 206.246C158.25 205.943 158.369 205.651 158.583 205.437C158.799 205.222 159.087 205.101 159.39 205.101C159.695 205.101 159.987 205.221 160.203 205.436C160.42 205.65 160.543 205.941 160.548 206.246C160.548 206.555 160.427 206.85 160.21 207.068C159.992 207.286 159.697 207.409 159.39 207.409C159.086 207.404 158.797 207.28 158.583 207.062C158.369 206.845 158.25 206.552 158.25 206.246Z" fill="url(#paint45_linear)"/>
<path d="M165.417 206.246C165.417 205.943 165.537 205.651 165.752 205.437C165.966 205.222 166.255 205.101 166.558 205.101C166.862 205.101 167.154 205.221 167.37 205.436C167.587 205.65 167.71 205.941 167.716 206.246C167.716 206.555 167.595 206.85 167.377 207.068C167.16 207.286 166.864 207.409 166.558 207.409C166.253 207.404 165.964 207.28 165.751 207.062C165.537 206.845 165.417 206.552 165.417 206.246Z" fill="url(#paint46_linear)"/>
<path d="M172.584 206.246C172.59 205.941 172.713 205.65 172.93 205.436C173.147 205.221 173.438 205.101 173.742 205.101C174.045 205.101 174.336 205.222 174.55 205.437C174.763 205.651 174.883 205.943 174.883 206.246C174.883 206.552 174.763 206.845 174.55 207.062C174.336 207.28 174.047 207.404 173.742 207.409C173.436 207.409 173.14 207.286 172.923 207.068C172.707 206.85 172.584 206.555 172.584 206.246Z" fill="url(#paint47_linear)"/>
<path d="M179.735 206.246C179.741 205.941 179.864 205.65 180.081 205.436C180.297 205.221 180.589 205.101 180.893 205.101C181.196 205.101 181.487 205.222 181.7 205.437C181.914 205.651 182.034 205.943 182.034 206.246C182.034 206.552 181.914 206.845 181.7 207.062C181.487 207.28 181.198 207.404 180.893 207.409C180.587 207.409 180.291 207.286 180.074 207.068C179.856 206.85 179.735 206.555 179.735 206.246Z" fill="url(#paint48_linear)"/>
<path d="M186.903 206.246C186.908 205.941 187.031 205.65 187.248 205.436C187.464 205.221 187.756 205.101 188.061 205.101C188.365 205.101 188.656 205.221 188.873 205.436C189.091 205.65 189.213 205.941 189.219 206.246C189.213 206.553 189.091 206.846 188.875 207.063C188.658 207.28 188.367 207.404 188.061 207.409C187.754 207.409 187.459 207.286 187.241 207.068C187.024 206.85 186.903 206.555 186.903 206.246Z" fill="url(#paint49_linear)"/>
<path d="M194.07 206.246C194.076 205.941 194.199 205.65 194.416 205.436C194.631 205.221 194.924 205.101 195.228 205.101C195.533 205.101 195.823 205.221 196.041 205.436C196.258 205.65 196.381 205.941 196.386 206.246C196.386 206.555 196.265 206.85 196.048 207.068C195.83 207.286 195.535 207.409 195.228 207.409C194.922 207.409 194.626 207.286 194.409 207.068C194.191 206.85 194.07 206.555 194.07 206.246Z" fill="url(#paint50_linear)"/>
<path d="M201.225 206.246C201.23 205.941 201.353 205.65 201.571 205.436C201.788 205.221 202.078 205.101 202.383 205.101C202.688 205.101 202.98 205.221 203.195 205.436C203.413 205.65 203.536 205.941 203.541 206.246C203.541 206.555 203.42 206.85 203.203 207.068C202.985 207.286 202.69 207.409 202.383 207.409C202.077 207.409 201.781 207.286 201.564 207.068C201.348 206.85 201.225 206.555 201.225 206.246Z" fill="url(#paint51_linear)"/>
<path d="M208.389 206.246C208.395 205.941 208.517 205.65 208.735 205.436C208.952 205.221 209.243 205.101 209.547 205.101C209.852 205.101 210.144 205.221 210.36 205.436C210.577 205.65 210.7 205.941 210.705 206.246C210.705 206.555 210.584 206.85 210.367 207.068C210.149 207.286 209.854 207.409 209.547 207.409C209.241 207.409 208.945 207.286 208.728 207.068C208.512 206.85 208.389 206.555 208.389 206.246Z" fill="url(#paint52_linear)"/>
<path d="M215.543 206.246C215.549 205.941 215.672 205.65 215.889 205.436C216.105 205.221 216.397 205.101 216.701 205.101C217.006 205.101 217.296 205.221 217.514 205.436C217.731 205.65 217.854 205.941 217.859 206.246C217.859 206.555 217.737 206.85 217.521 207.068C217.304 207.286 217.008 207.409 216.701 207.409C216.395 207.409 216.099 207.286 215.882 207.068C215.665 206.85 215.543 206.555 215.543 206.246Z" fill="url(#paint53_linear)"/>
<path d="M136.758 213.4C136.758 213.092 136.88 212.796 137.097 212.578C137.314 212.36 137.609 212.237 137.916 212.237C138.223 212.237 138.517 212.36 138.735 212.578C138.952 212.796 139.074 213.092 139.074 213.4C139.069 213.705 138.945 213.996 138.728 214.211C138.512 214.425 138.22 214.545 137.916 214.545C137.612 214.545 137.32 214.425 137.103 214.211C136.886 213.996 136.762 213.705 136.758 213.4Z" fill="url(#paint54_linear)"/>
<path d="M143.912 213.4C143.912 213.092 144.034 212.796 144.251 212.578C144.468 212.36 144.763 212.237 145.07 212.237C145.377 212.237 145.672 212.36 145.889 212.578C146.106 212.796 146.228 213.092 146.228 213.4C146.223 213.705 146.099 213.996 145.883 214.211C145.666 214.425 145.374 214.545 145.07 214.545C144.766 214.545 144.474 214.425 144.257 214.211C144.041 213.996 143.917 213.705 143.912 213.4Z" fill="url(#paint55_linear)"/>
<path d="M151.076 213.4C151.081 213.093 151.204 212.8 151.42 212.583C151.637 212.366 151.928 212.242 152.234 212.237C152.541 212.237 152.836 212.36 153.053 212.578C153.27 212.796 153.392 213.092 153.392 213.4C153.388 213.705 153.263 213.996 153.047 214.211C152.83 214.425 152.538 214.545 152.234 214.545C151.93 214.545 151.638 214.425 151.422 214.211C151.205 213.996 151.081 213.705 151.076 213.4Z" fill="url(#paint56_linear)"/>
<path d="M158.25 213.4C158.25 213.095 158.369 212.802 158.583 212.584C158.797 212.367 159.086 212.242 159.39 212.237C159.697 212.237 159.992 212.36 160.21 212.578C160.427 212.796 160.548 213.092 160.548 213.4C160.543 213.705 160.42 213.996 160.203 214.211C159.987 214.425 159.695 214.545 159.39 214.545C159.087 214.545 158.799 214.424 158.583 214.21C158.369 213.995 158.25 213.704 158.25 213.4Z" fill="url(#paint57_linear)"/>
<path d="M194.07 213.4C194.07 213.092 194.191 212.796 194.409 212.578C194.626 212.36 194.922 212.237 195.228 212.237C195.535 212.237 195.83 212.36 196.048 212.578C196.265 212.796 196.386 213.092 196.386 213.4C196.381 213.705 196.258 213.996 196.041 214.211C195.823 214.425 195.533 214.545 195.228 214.545C194.924 214.545 194.631 214.425 194.416 214.211C194.199 213.996 194.076 213.705 194.07 213.4Z" fill="url(#paint58_linear)"/>
<path d="M201.225 213.4C201.225 213.092 201.348 212.796 201.564 212.578C201.781 212.36 202.077 212.237 202.383 212.237C202.69 212.237 202.985 212.36 203.203 212.578C203.42 212.796 203.541 213.092 203.541 213.4C203.536 213.705 203.413 213.996 203.195 214.211C202.98 214.425 202.688 214.545 202.383 214.545C202.078 214.545 201.788 214.425 201.571 214.211C201.353 213.996 201.23 213.705 201.225 213.4Z" fill="url(#paint59_linear)"/>
<path d="M208.389 213.4C208.389 213.092 208.512 212.796 208.728 212.578C208.945 212.36 209.241 212.237 209.547 212.237C209.854 212.237 210.149 212.36 210.367 212.578C210.584 212.796 210.705 213.092 210.705 213.4C210.7 213.705 210.577 213.996 210.36 214.211C210.144 214.425 209.852 214.545 209.547 214.545C209.243 214.545 208.952 214.425 208.735 214.211C208.517 213.996 208.395 213.705 208.389 213.4Z" fill="url(#paint60_linear)"/>
<path d="M215.543 213.4C215.543 213.092 215.665 212.796 215.882 212.578C216.099 212.36 216.395 212.237 216.701 212.237C217.008 212.237 217.304 212.36 217.521 212.578C217.737 212.796 217.859 213.092 217.859 213.4C217.854 213.705 217.731 213.996 217.514 214.211C217.296 214.425 217.006 214.545 216.701 214.545C216.397 214.545 216.105 214.425 215.889 214.211C215.672 213.996 215.549 213.705 215.543 213.4Z" fill="url(#paint61_linear)"/>
<path d="M130.919 219.482C131.211 219.505 131.483 219.637 131.681 219.853C131.88 220.069 131.989 220.352 131.988 220.645C131.984 220.951 131.86 221.242 131.643 221.456C131.426 221.67 131.135 221.79 130.83 221.79C130.689 221.816 130.544 221.816 130.403 221.79C130.563 221.039 130.741 220.287 130.919 219.554V219.482Z" fill="url(#paint62_linear)"/>
<path d="M136.758 220.645C136.758 220.492 136.788 220.341 136.846 220.2C136.904 220.059 136.989 219.931 137.097 219.823C137.204 219.715 137.332 219.629 137.473 219.571C137.613 219.512 137.764 219.482 137.916 219.482C138.068 219.482 138.218 219.512 138.359 219.571C138.499 219.629 138.627 219.715 138.735 219.823C138.842 219.931 138.927 220.059 138.986 220.2C139.044 220.341 139.074 220.492 139.074 220.645C139.069 220.951 138.945 221.242 138.728 221.456C138.512 221.67 138.22 221.79 137.916 221.79C137.612 221.79 137.32 221.67 137.103 221.456C136.886 221.242 136.762 220.951 136.758 220.645Z" fill="url(#paint63_linear)"/>
<path d="M143.912 220.645C143.912 220.492 143.942 220.341 144 220.2C144.058 220.059 144.144 219.931 144.251 219.823C144.359 219.715 144.486 219.629 144.627 219.571C144.767 219.512 144.918 219.482 145.07 219.482C145.222 219.482 145.373 219.512 145.513 219.571C145.654 219.629 145.781 219.715 145.889 219.823C145.996 219.931 146.082 220.059 146.14 220.2C146.198 220.341 146.228 220.492 146.228 220.645C146.223 220.951 146.099 221.242 145.883 221.456C145.666 221.67 145.374 221.79 145.07 221.79C144.766 221.79 144.474 221.67 144.257 221.456C144.041 221.242 143.917 220.951 143.912 220.645Z" fill="url(#paint64_linear)"/>
<path d="M151.076 220.645C151.081 220.338 151.204 220.045 151.42 219.828C151.637 219.611 151.928 219.487 152.234 219.482C152.541 219.482 152.836 219.605 153.053 219.823C153.27 220.041 153.392 220.337 153.392 220.645C153.388 220.951 153.263 221.242 153.047 221.456C152.83 221.67 152.538 221.79 152.234 221.79C151.93 221.79 151.638 221.67 151.422 221.456C151.205 221.242 151.081 220.951 151.076 220.645Z" fill="url(#paint65_linear)"/>
<path d="M201.225 220.645C201.225 220.492 201.255 220.341 201.314 220.2C201.371 220.059 201.457 219.931 201.564 219.823C201.672 219.715 201.799 219.629 201.939 219.571C202.08 219.512 202.232 219.482 202.383 219.482C202.535 219.482 202.686 219.512 202.827 219.571C202.967 219.629 203.094 219.715 203.203 219.823C203.309 219.931 203.395 220.059 203.454 220.2C203.511 220.341 203.541 220.492 203.541 220.645C203.536 220.951 203.413 221.242 203.195 221.456C202.98 221.67 202.688 221.79 202.383 221.79C202.078 221.79 201.788 221.67 201.571 221.456C201.353 221.242 201.23 220.951 201.225 220.645Z" fill="url(#paint66_linear)"/>
<path d="M208.389 220.645C208.389 220.492 208.419 220.341 208.478 220.2C208.535 220.059 208.621 219.931 208.728 219.823C208.836 219.715 208.963 219.629 209.104 219.571C209.244 219.512 209.396 219.482 209.547 219.482C209.699 219.482 209.85 219.512 209.991 219.571C210.132 219.629 210.258 219.715 210.367 219.823C210.474 219.931 210.559 220.059 210.618 220.2C210.675 220.341 210.705 220.492 210.705 220.645C210.7 220.951 210.577 221.242 210.36 221.456C210.144 221.67 209.852 221.79 209.547 221.79C209.243 221.79 208.952 221.67 208.735 221.456C208.517 221.242 208.395 220.951 208.389 220.645Z" fill="url(#paint67_linear)"/>
<path d="M215.543 220.645C215.543 220.492 215.574 220.341 215.631 220.2C215.69 220.059 215.775 219.931 215.882 219.823C215.991 219.715 216.117 219.629 216.258 219.571C216.399 219.512 216.55 219.482 216.701 219.482C216.853 219.482 217.004 219.512 217.145 219.571C217.286 219.629 217.412 219.715 217.521 219.823C217.628 219.931 217.713 220.059 217.77 220.2C217.829 220.341 217.859 220.492 217.859 220.645C217.854 220.951 217.731 221.242 217.514 221.456C217.296 221.67 217.006 221.79 216.701 221.79C216.397 221.79 216.105 221.67 215.889 221.456C215.672 221.242 215.549 220.951 215.543 220.645Z" fill="url(#paint68_linear)"/>
<path d="M222.71 220.645C222.709 220.355 222.816 220.074 223.012 219.859C223.206 219.644 223.473 219.509 223.762 219.482C223.958 220.234 224.118 220.967 224.278 221.719C224.143 221.746 224.004 221.746 223.868 221.719C223.564 221.719 223.272 221.598 223.056 221.384C222.839 221.17 222.716 220.879 222.71 220.574V220.645Z" fill="url(#paint69_linear)"/>
<path d="M129.59 227.836C129.59 227.528 129.712 227.232 129.929 227.014C130.147 226.796 130.441 226.674 130.748 226.674C131.055 226.674 131.35 226.796 131.567 227.014C131.784 227.232 131.906 227.528 131.906 227.836C131.902 228.143 131.778 228.436 131.562 228.653C131.346 228.871 131.054 228.994 130.748 228.999C130.443 228.994 130.151 228.871 129.935 228.653C129.718 228.436 129.595 228.143 129.59 227.836Z" fill="url(#paint70_linear)"/>
<path d="M136.758 227.836C136.758 227.528 136.88 227.232 137.097 227.014C137.314 226.796 137.609 226.674 137.916 226.674C138.223 226.674 138.517 226.796 138.735 227.014C138.952 227.232 139.074 227.528 139.074 227.836C139.069 228.143 138.946 228.436 138.729 228.653C138.513 228.871 138.222 228.994 137.916 228.999C137.61 228.994 137.318 228.871 137.102 228.653C136.886 228.436 136.762 228.143 136.758 227.836Z" fill="url(#paint71_linear)"/>
<path d="M143.912 227.836C143.912 227.528 144.034 227.232 144.251 227.014C144.468 226.796 144.763 226.674 145.07 226.674C145.377 226.674 145.672 226.796 145.889 227.014C146.106 227.232 146.228 227.528 146.228 227.836C146.223 228.143 146.1 228.436 145.884 228.653C145.668 228.871 145.376 228.994 145.07 228.999C144.764 228.994 144.473 228.871 144.256 228.653C144.04 228.436 143.917 228.143 143.912 227.836Z" fill="url(#paint72_linear)"/>
<path d="M151.076 227.836C151.081 227.529 151.204 227.236 151.42 227.019C151.637 226.802 151.928 226.678 152.234 226.674C152.541 226.674 152.836 226.796 153.053 227.014C153.27 227.232 153.392 227.528 153.392 227.836C153.388 228.143 153.264 228.436 153.048 228.653C152.832 228.871 152.54 228.994 152.234 228.999C151.928 228.994 151.637 228.871 151.42 228.653C151.204 228.436 151.081 228.143 151.076 227.836Z" fill="url(#paint73_linear)"/>
<path d="M201.225 227.836C201.225 227.528 201.348 227.232 201.564 227.014C201.781 226.796 202.077 226.674 202.383 226.674C202.69 226.674 202.985 226.796 203.203 227.014C203.42 227.232 203.541 227.528 203.541 227.836C203.536 228.143 203.413 228.436 203.197 228.653C202.98 228.871 202.69 228.994 202.383 228.999C202.077 228.994 201.786 228.871 201.569 228.653C201.353 228.436 201.23 228.143 201.225 227.836Z" fill="url(#paint74_linear)"/>
<path d="M208.389 227.836C208.389 227.528 208.512 227.232 208.728 227.014C208.945 226.796 209.241 226.674 209.547 226.674C209.854 226.674 210.149 226.796 210.367 227.014C210.584 227.232 210.705 227.528 210.705 227.836C210.7 228.143 210.577 228.436 210.361 228.653C210.144 228.871 209.854 228.994 209.547 228.999C209.241 228.994 208.95 228.871 208.733 228.653C208.517 228.436 208.395 228.143 208.389 227.836Z" fill="url(#paint75_linear)"/>
<path d="M215.543 227.836C215.543 227.528 215.665 227.232 215.882 227.014C216.099 226.796 216.395 226.674 216.701 226.674C217.008 226.674 217.304 226.796 217.521 227.014C217.737 227.232 217.859 227.528 217.859 227.836C217.854 228.143 217.731 228.436 217.516 228.653C217.298 228.871 217.008 228.994 216.701 228.999C216.395 228.994 216.105 228.871 215.887 228.653C215.672 228.436 215.549 228.143 215.543 227.836Z" fill="url(#paint76_linear)"/>
<path d="M222.71 227.836C222.71 227.528 222.832 227.232 223.049 227.014C223.266 226.796 223.562 226.674 223.868 226.674C224.175 226.674 224.471 226.796 224.688 227.014C224.904 227.232 225.026 227.528 225.026 227.836C225.021 228.143 224.898 228.436 224.683 228.653C224.465 228.871 224.175 228.994 223.868 228.999C223.562 228.994 223.272 228.871 223.054 228.653C222.839 228.436 222.716 228.143 222.71 227.836Z" fill="url(#paint77_linear)"/>
</g>
<path d="M83.2622 109.919C83.2622 117.261 78.3754 120.604 70.6311 120.604H67.1189V127.4C67.1189 127.661 67.0674 127.92 66.9677 128.161C66.8678 128.402 66.7216 128.621 66.5372 128.806C66.3529 128.991 66.1343 129.137 65.8933 129.237C65.6525 129.337 65.3944 129.388 65.1336 129.388H59.9417C59.6838 129.386 59.4291 129.332 59.1919 129.23C58.955 129.129 58.7402 128.982 58.5598 128.797C58.3794 128.612 58.2371 128.394 58.1412 128.154C58.0451 127.915 57.9972 127.658 58.0001 127.4V100.523C58.0058 100.011 58.2128 99.5216 58.5763 99.1615C58.9398 98.8014 59.4304 98.5996 59.9417 98.5996H70.6311C79.1391 98.5996 83.2622 103.145 83.2622 109.919ZM74.056 109.919C74.0724 109.477 73.9926 109.037 73.8219 108.63C73.6513 108.223 73.3938 107.857 73.0678 107.56C72.7417 107.262 72.3547 107.04 71.9338 106.907C71.5129 106.775 71.0685 106.737 70.6311 106.794H67.1189V113.109H70.5874C71.0339 113.175 71.4892 113.14 71.9205 113.007C72.3518 112.874 72.748 112.647 73.0802 112.341C73.4126 112.036 73.6728 111.66 73.8416 111.24C74.0103 110.821 74.0834 110.37 74.056 109.919Z" fill="black"/>
<path d="M117.4 114.026C117.383 117.165 116.438 120.229 114.684 122.83C112.93 125.432 110.445 127.454 107.544 128.643C104.644 129.831 101.457 130.132 98.3853 129.507C95.314 128.883 92.4964 127.361 90.2881 125.133C88.0796 122.906 86.5794 120.073 85.9769 116.993C85.3745 113.912 85.6968 110.722 86.9032 107.824C88.1093 104.927 90.1455 102.453 92.7545 100.714C95.3634 98.9744 98.4284 98.0486 101.562 98.0528C103.666 97.998 105.759 98.3746 107.713 99.1595C109.666 99.9443 111.439 101.121 112.922 102.616C114.405 104.112 115.568 105.896 116.338 107.858C117.108 109.82 117.469 111.919 117.4 114.026ZM108.303 114.026C108.227 112.71 107.767 111.446 106.982 110.388C106.196 109.331 105.118 108.527 103.882 108.076C102.645 107.624 101.304 107.545 100.023 107.849C98.7424 108.152 97.5783 108.824 96.6743 109.782C95.7706 110.74 95.1664 111.942 94.9366 113.24C94.7066 114.538 94.8612 115.875 95.381 117.086C95.9007 118.297 96.7628 119.329 97.8613 120.055C98.9597 120.781 100.246 121.169 101.562 121.172C102.49 121.203 103.414 121.037 104.272 120.684C105.131 120.33 105.905 119.798 106.542 119.123C107.18 118.447 107.667 117.643 107.97 116.764C108.274 115.886 108.387 114.952 108.303 114.026Z" fill="black"/>
<path d="M123.092 98.5995H128.305C128.56 98.5965 128.814 98.6441 129.05 98.7391C129.287 98.8343 129.503 98.975 129.685 99.1535C129.867 99.3321 130.013 99.5449 130.113 99.78C130.213 100.015 130.266 100.267 130.269 100.522V127.4C130.272 127.66 130.223 127.918 130.126 128.159C130.029 128.4 129.884 128.62 129.702 128.805C129.519 128.989 129.302 129.136 129.062 129.237C128.823 129.337 128.565 129.388 128.305 129.388H123.092C122.575 129.377 122.083 129.161 121.724 128.789C121.365 128.417 121.166 127.918 121.172 127.4V100.522C121.178 100.014 121.382 99.5284 121.741 99.169C122.099 98.8096 122.584 98.6052 123.092 98.5995Z" fill="black"/>
<path d="M155.768 98.5999H160.938C161.446 98.6054 161.931 98.8099 162.29 99.1694C162.649 99.5286 162.853 100.015 162.858 100.523V127.4C162.864 127.918 162.666 128.417 162.306 128.79C161.947 129.162 161.455 129.377 160.938 129.389H156.008C155.607 129.404 155.209 129.308 154.859 129.111C154.509 128.915 154.219 128.625 154.023 128.274L144.25 112.978V127.4C144.25 127.92 144.047 128.419 143.684 128.791C143.321 129.163 142.827 129.377 142.308 129.389H137.116C136.59 129.389 136.085 129.179 135.713 128.806C135.34 128.433 135.131 127.927 135.131 127.4V100.523C135.134 100.265 135.187 100.011 135.289 99.775C135.391 99.5387 135.538 99.3249 135.723 99.1461C135.907 98.9671 136.125 98.8269 136.365 98.7329C136.604 98.6392 136.859 98.594 137.116 98.5999H142.003C142.396 98.5999 142.782 98.7002 143.126 98.8912C143.469 99.0824 143.759 99.3581 143.966 99.6923L153.805 114.988V100.523C153.808 100.267 153.861 100.015 153.961 99.7801C154.061 99.5453 154.206 99.3325 154.389 99.1539C154.571 98.9754 154.787 98.8345 155.023 98.7395C155.26 98.6443 155.513 98.5969 155.768 98.5999Z" fill="black"/>
<path d="M189.958 100.523V104.893C189.958 105.405 189.756 105.897 189.397 106.261C189.037 106.625 188.549 106.832 188.038 106.838H182.737V127.4C182.743 127.918 182.544 128.417 182.185 128.79C181.826 129.162 181.334 129.377 180.817 129.389H175.603C175.344 129.389 175.087 129.337 174.847 129.237C174.607 129.137 174.39 128.99 174.207 128.805C174.025 128.62 173.881 128.401 173.783 128.159C173.686 127.918 173.637 127.66 173.64 127.4V106.794H168.382C167.869 106.789 167.379 106.582 167.016 106.218C166.653 105.855 166.447 105.363 166.441 104.849V100.479C166.452 99.9689 166.661 99.4832 167.024 99.1244C167.386 98.7654 167.873 98.5617 168.382 98.5562H188.016C188.273 98.5562 188.527 98.6071 188.765 98.7064C189.001 98.8054 189.216 98.9507 189.397 99.1335C189.577 99.3165 189.72 99.5335 189.816 99.7719C189.913 100.01 189.961 100.266 189.958 100.523Z" fill="black"/>
<path d="M216.393 120.036C216.393 125.367 211.768 130 204.286 130C199.224 130 193.727 128.274 191.786 123.445C191.684 123.241 191.628 123.017 191.623 122.789C191.617 122.561 191.662 122.335 191.753 122.126C191.845 121.918 191.981 121.732 192.153 121.582C192.324 121.432 192.526 121.322 192.745 121.26L197.676 119.73C198.012 119.63 198.372 119.645 198.699 119.771C199.027 119.898 199.303 120.129 199.486 120.429C199.999 121.086 200.665 121.608 201.426 121.947C202.186 122.286 203.018 122.433 203.849 122.374C206.227 122.374 207.231 121.26 207.231 120.189C207.231 118.331 204.94 118.157 201.864 117.414C195.887 115.95 192.483 113.524 192.483 107.886C192.483 102.249 197.414 98.0314 204.198 98.0314C206.456 97.8609 208.712 98.3875 210.662 99.54C212.612 100.692 214.163 102.416 215.106 104.478C215.194 104.693 215.235 104.925 215.225 105.158C215.216 105.39 215.156 105.618 215.05 105.826C214.945 106.034 214.796 106.216 214.613 106.36C214.431 106.504 214.219 106.608 213.993 106.663L209.107 107.843C208.798 107.921 208.472 107.904 208.173 107.795C207.874 107.686 207.614 107.489 207.427 107.231C207.094 106.744 206.638 106.353 206.105 106.1C205.572 105.847 204.982 105.739 204.394 105.789C202.584 105.789 201.319 106.532 201.319 107.974C201.319 109.722 204.002 109.94 206.38 110.618C213.841 112.628 216.393 115.141 216.393 120.036Z" fill="black"/>
<defs>
<linearGradient id="paint0_linear" x1="136.984" y1="0" x2="136.984" y2="227.846" gradientUnits="userSpaceOnUse">
<stop stop-color="#6FD74A"/>
<stop offset="1" stop-color="#24A240"/>
</linearGradient>
<linearGradient id="paint1_linear" x1="136.984" y1="0" x2="136.984" y2="227.846" gradientUnits="userSpaceOnUse">
<stop stop-color="#6FD74A"/>
<stop offset="1" stop-color="#24A240"/>
</linearGradient>
<linearGradient id="paint2_linear" x1="187.982" y1="12.5179" x2="235.175" y2="12.5179" gradientUnits="userSpaceOnUse">
<stop offset="0.05" stop-color="#7DB828"/>
<stop offset="0.41" stop-color="#EFE300" stop-opacity="0.34"/>
<stop offset="0.68" stop-color="#EFE300" stop-opacity="0.34"/>
<stop offset="1" stop-color="#BAC32F"/>
</linearGradient>
<linearGradient id="paint3_linear" x1="12.9874" y1="107.338" x2="12.9874" y2="59.9512" gradientUnits="userSpaceOnUse">
<stop offset="0.05" stop-color="#1EA723"/>
<stop offset="0.41" stop-color="#EFE300" stop-opacity="0.34"/>
<stop offset="0.588542" stop-color="#B1EF00" stop-opacity="0.34"/>
<stop offset="1" stop-color="#36B477"/>
</linearGradient>
<linearGradient id="paint4_linear" x1="265.137" y1="96.9094" x2="269.858" y2="96.9094" gradientUnits="userSpaceOnUse">
<stop offset="0.05" stop-color="#7DB828"/>
<stop offset="1" stop-color="#EFE300" stop-opacity="0.34"/>
</linearGradient>
<linearGradient id="paint5_linear" x1="-1581.13" y1="-4846.7" x2="-1568.72" y2="-4846.7" gradientUnits="userSpaceOnUse">
<stop offset="0.05" stop-color="#7DB828"/>
<stop offset="1" stop-color="#EFE300" stop-opacity="0.34"/>
</linearGradient>
<linearGradient id="paint6_linear" x1="256" y1="123.103" x2="260.721" y2="123.103" gradientUnits="userSpaceOnUse">
<stop offset="0.05" stop-color="#7DB828"/>
<stop offset="1" stop-color="#EFE300" stop-opacity="0.34"/>
</linearGradient>
<linearGradient id="paint7_linear" x1="-1590.27" y1="-4820.51" x2="-1577.85" y2="-4820.51" gradientUnits="userSpaceOnUse">
<stop offset="0.05" stop-color="#7DB828"/>
<stop offset="1" stop-color="#EFE300" stop-opacity="0.34"/>
</linearGradient>
<linearGradient id="paint8_linear" x1="60.5081" y1="72.9745" x2="64.5165" y2="72.9745" gradientUnits="userSpaceOnUse">
<stop offset="0.05" stop-color="#7DB828"/>
<stop offset="0.41" stop-color="#EFE300" stop-opacity="0.34"/>
<stop offset="0.68" stop-color="#EFE300" stop-opacity="0.34"/>
<stop offset="1" stop-color="#BAC32F"/>
</linearGradient>
<linearGradient id="paint9_linear" x1="145.646" y1="269.41" x2="154.705" y2="269.41" gradientUnits="userSpaceOnUse">
<stop offset="0.05" stop-color="#7DB828"/>
<stop offset="0.41" stop-color="#EFE300" stop-opacity="0.34"/>
<stop offset="0.68" stop-color="#EFE300" stop-opacity="0.34"/>
<stop offset="1" stop-color="#BAC32F"/>
</linearGradient>
<linearGradient id="paint10_linear" x1="186.129" y1="188.099" x2="195.188" y2="188.099" gradientUnits="userSpaceOnUse">
<stop offset="0.05" stop-color="#7DB828"/>
<stop offset="0.41" stop-color="#EFE300" stop-opacity="0.34"/>
<stop offset="0.68" stop-color="#EFE300" stop-opacity="0.34"/>
<stop offset="1" stop-color="#BAC32F"/>
</linearGradient>
<linearGradient id="paint11_linear" x1="186.129" y1="228.693" x2="195.188" y2="228.693" gradientUnits="userSpaceOnUse">
<stop offset="0.05" stop-color="#7DB828"/>
<stop offset="0.41" stop-color="#EFE300" stop-opacity="0.34"/>
<stop offset="0.68" stop-color="#EFE300" stop-opacity="0.34"/>
<stop offset="1" stop-color="#BAC32F"/>
</linearGradient>
<linearGradient id="paint12_linear" x1="186.129" y1="269.41" x2="195.188" y2="269.41" gradientUnits="userSpaceOnUse">
<stop offset="0.05" stop-color="#7DB828"/>
<stop offset="0.41" stop-color="#EFE300" stop-opacity="0.34"/>
<stop offset="0.68" stop-color="#EFE300" stop-opacity="0.34"/>
<stop offset="1" stop-color="#BAC32F"/>
</linearGradient>
<linearGradient id="paint13_linear" x1="186.139" y1="310.283" x2="195.198" y2="310.283" gradientUnits="userSpaceOnUse">
<stop offset="0.05" stop-color="#7DB828"/>
<stop offset="0.41" stop-color="#EFE300" stop-opacity="0.34"/>
<stop offset="0.68" stop-color="#EFE300" stop-opacity="0.34"/>
<stop offset="1" stop-color="#BAC32F"/>
</linearGradient>
<linearGradient id="paint14_linear" x1="226.613" y1="188.099" x2="235.672" y2="188.099" gradientUnits="userSpaceOnUse">
<stop offset="0.05" stop-color="#7DB828"/>
<stop offset="0.41" stop-color="#EFE300" stop-opacity="0.34"/>
<stop offset="0.68" stop-color="#EFE300" stop-opacity="0.34"/>
<stop offset="1" stop-color="#BAC32F"/>
</linearGradient>
<linearGradient id="paint15_linear" x1="226.615" y1="228.693" x2="235.674" y2="228.693" gradientUnits="userSpaceOnUse">
<stop offset="0.05" stop-color="#7DB828"/>
<stop offset="0.41" stop-color="#EFE300" stop-opacity="0.34"/>
<stop offset="0.68" stop-color="#EFE300" stop-opacity="0.34"/>
<stop offset="1" stop-color="#BAC32F"/>
</linearGradient>
<linearGradient id="paint16_linear" x1="226.611" y1="269.41" x2="235.67" y2="269.41" gradientUnits="userSpaceOnUse">
<stop offset="0.05" stop-color="#7DB828"/>
<stop offset="0.41" stop-color="#EFE300" stop-opacity="0.34"/>
<stop offset="0.68" stop-color="#EFE300" stop-opacity="0.34"/>
<stop offset="1" stop-color="#BAC32F"/>
</linearGradient>
<linearGradient id="paint17_linear" x1="226.611" y1="310.111" x2="235.67" y2="310.111" gradientUnits="userSpaceOnUse">
<stop offset="0.05" stop-color="#7DB828"/>
<stop offset="0.41" stop-color="#EFE300" stop-opacity="0.34"/>
<stop offset="0.68" stop-color="#EFE300" stop-opacity="0.34"/>
<stop offset="1" stop-color="#BAC32F"/>
</linearGradient>
<linearGradient id="paint18_linear" x1="267.093" y1="228.503" x2="276.152" y2="228.503" gradientUnits="userSpaceOnUse">
<stop offset="0.05" stop-color="#7DB828"/>
<stop offset="0.41" stop-color="#EFE300" stop-opacity="0.34"/>
<stop offset="0.68" stop-color="#EFE300" stop-opacity="0.34"/>
<stop offset="1" stop-color="#BAC32F"/>
</linearGradient>
<linearGradient id="paint19_linear" x1="267.083" y1="269.41" x2="276.142" y2="269.41" gradientUnits="userSpaceOnUse">
<stop offset="0.05" stop-color="#7DB828"/>
<stop offset="0.41" stop-color="#EFE300" stop-opacity="0.34"/>
<stop offset="0.68" stop-color="#EFE300" stop-opacity="0.34"/>
<stop offset="1" stop-color="#BAC32F"/>
</linearGradient>
<linearGradient id="paint20_linear" x1="-846.919" y1="50.6893" x2="-843.928" y2="50.6893" gradientUnits="userSpaceOnUse">
<stop offset="0.05" stop-color="#7DB828"/>
<stop offset="0.41" stop-color="#EFE300" stop-opacity="0.34"/>
<stop offset="0.68" stop-color="#EFE300" stop-opacity="0.34"/>
<stop offset="1" stop-color="#BAC32F"/>
</linearGradient>
<linearGradient id="paint21_linear" x1="-821.661" y1="-14.3008" x2="-818.696" y2="-14.3008" gradientUnits="userSpaceOnUse">
<stop offset="0.05" stop-color="#7DB828"/>
<stop offset="0.41" stop-color="#EFE300" stop-opacity="0.34"/>
<stop offset="0.68" stop-color="#EFE300" stop-opacity="0.34"/>
<stop offset="1" stop-color="#BAC32F"/>
</linearGradient>
<linearGradient id="paint22_linear" x1="-805.269" y1="-14.3008" x2="-802.305" y2="-14.3008" gradientUnits="userSpaceOnUse">
<stop offset="0.05" stop-color="#7DB828"/>
<stop offset="0.41" stop-color="#EFE300" stop-opacity="0.34"/>
<stop offset="0.68" stop-color="#EFE300" stop-opacity="0.34"/>
<stop offset="1" stop-color="#BAC32F"/>
</linearGradient>
<linearGradient id="paint23_linear" x1="-788.938" y1="50.689" x2="-785.973" y2="50.689" gradientUnits="userSpaceOnUse">
<stop offset="0.05" stop-color="#7DB828"/>
<stop offset="0.41" stop-color="#EFE300" stop-opacity="0.34"/>
<stop offset="0.68" stop-color="#EFE300" stop-opacity="0.34"/>
<stop offset="1" stop-color="#BAC32F"/>
</linearGradient>
<linearGradient id="paint24_linear" x1="-878.816" y1="2.30995" x2="-875.805" y2="2.30995" gradientUnits="userSpaceOnUse">
<stop offset="0.05" stop-color="#7DB828"/>
<stop offset="0.41" stop-color="#EFE300" stop-opacity="0.34"/>
<stop offset="0.68" stop-color="#EFE300" stop-opacity="0.34"/>
<stop offset="1" stop-color="#BAC32F"/>
</linearGradient>
<linearGradient id="paint25_linear" x1="-854.472" y1="2.30995" x2="-851.508" y2="2.30995" gradientUnits="userSpaceOnUse">
<stop offset="0.05" stop-color="#7DB828"/>
<stop offset="0.41" stop-color="#EFE300" stop-opacity="0.34"/>
<stop offset="0.68" stop-color="#EFE300" stop-opacity="0.34"/>
<stop offset="1" stop-color="#BAC32F"/>
</linearGradient>
<linearGradient id="paint26_linear" x1="-838.066" y1="2.30995" x2="-835.101" y2="2.30995" gradientUnits="userSpaceOnUse">
<stop offset="0.05" stop-color="#7DB828"/>
<stop offset="0.41" stop-color="#EFE300" stop-opacity="0.34"/>
<stop offset="0.68" stop-color="#EFE300" stop-opacity="0.34"/>
<stop offset="1" stop-color="#BAC32F"/>
</linearGradient>
<linearGradient id="paint27_linear" x1="-821.66" y1="2.30995" x2="-818.695" y2="2.30995" gradientUnits="userSpaceOnUse">
<stop offset="0.05" stop-color="#7DB828"/>
<stop offset="0.41" stop-color="#EFE300" stop-opacity="0.34"/>
<stop offset="0.68" stop-color="#EFE300" stop-opacity="0.34"/>
<stop offset="1" stop-color="#BAC32F"/>
</linearGradient>
<linearGradient id="paint28_linear" x1="-805.271" y1="2.30995" x2="-802.307" y2="2.30995" gradientUnits="userSpaceOnUse">
<stop offset="0.05" stop-color="#7DB828"/>
<stop offset="0.41" stop-color="#EFE300" stop-opacity="0.34"/>
<stop offset="0.68" stop-color="#EFE300" stop-opacity="0.34"/>
<stop offset="1" stop-color="#BAC32F"/>
</linearGradient>
<linearGradient id="paint29_linear" x1="-796.415" y1="2.30995" x2="-793.404" y2="2.30995" gradientUnits="userSpaceOnUse">
<stop offset="0.05" stop-color="#7DB828"/>
<stop offset="0.41" stop-color="#EFE300" stop-opacity="0.34"/>
<stop offset="0.68" stop-color="#EFE300" stop-opacity="0.34"/>
<stop offset="1" stop-color="#BAC32F"/>
</linearGradient>
<linearGradient id="paint30_linear" x1="-779.931" y1="2.30995" x2="-776.92" y2="2.30995" gradientUnits="userSpaceOnUse">
<stop offset="0.05" stop-color="#7DB828"/>
<stop offset="0.41" stop-color="#EFE300" stop-opacity="0.34"/>
<stop offset="0.68" stop-color="#EFE300" stop-opacity="0.34"/>
<stop offset="1" stop-color="#BAC32F"/>
</linearGradient>
<linearGradient id="paint31_linear" x1="-763.495" y1="2.30995" x2="-760.484" y2="2.30995" gradientUnits="userSpaceOnUse">
<stop offset="0.05" stop-color="#7DB828"/>
<stop offset="0.41" stop-color="#EFE300" stop-opacity="0.34"/>
<stop offset="0.68" stop-color="#EFE300" stop-opacity="0.34"/>
<stop offset="1" stop-color="#BAC32F"/>
</linearGradient>
<linearGradient id="paint32_linear" x1="-895.284" y1="20.2094" x2="-892.274" y2="20.2094" gradientUnits="userSpaceOnUse">
<stop offset="0.05" stop-color="#7DB828"/>
<stop offset="0.41" stop-color="#EFE300" stop-opacity="0.34"/>
<stop offset="0.68" stop-color="#EFE300" stop-opacity="0.34"/>
<stop offset="1" stop-color="#BAC32F"/>
</linearGradient>
<linearGradient id="paint33_linear" x1="-878.816" y1="20.2094" x2="-875.805" y2="20.2094" gradientUnits="userSpaceOnUse">
<stop offset="0.05" stop-color="#7DB828"/>
<stop offset="0.41" stop-color="#EFE300" stop-opacity="0.34"/>
<stop offset="0.68" stop-color="#EFE300" stop-opacity="0.34"/>
<stop offset="1" stop-color="#BAC32F"/>
</linearGradient>
<linearGradient id="paint34_linear" x1="-854.472" y1="20.2094" x2="-851.508" y2="20.2094" gradientUnits="userSpaceOnUse">
<stop offset="0.05" stop-color="#7DB828"/>
<stop offset="0.41" stop-color="#EFE300" stop-opacity="0.34"/>
<stop offset="0.68" stop-color="#EFE300" stop-opacity="0.34"/>
<stop offset="1" stop-color="#BAC32F"/>
</linearGradient>
<linearGradient id="paint35_linear" x1="-838.066" y1="20.2094" x2="-835.101" y2="20.2094" gradientUnits="userSpaceOnUse">
<stop offset="0.05" stop-color="#7DB828"/>
<stop offset="0.41" stop-color="#EFE300" stop-opacity="0.34"/>
<stop offset="0.68" stop-color="#EFE300" stop-opacity="0.34"/>
<stop offset="1" stop-color="#BAC32F"/>
</linearGradient>
<linearGradient id="paint36_linear" x1="-821.66" y1="20.2094" x2="-818.695" y2="20.2094" gradientUnits="userSpaceOnUse">
<stop offset="0.05" stop-color="#7DB828"/>
<stop offset="0.41" stop-color="#EFE300" stop-opacity="0.34"/>
<stop offset="0.68" stop-color="#EFE300" stop-opacity="0.34"/>
<stop offset="1" stop-color="#BAC32F"/>
</linearGradient>
<linearGradient id="paint37_linear" x1="-805.271" y1="20.2094" x2="-802.307" y2="20.2094" gradientUnits="userSpaceOnUse">
<stop offset="0.05" stop-color="#7DB828"/>
<stop offset="0.41" stop-color="#EFE300" stop-opacity="0.34"/>
<stop offset="0.68" stop-color="#EFE300" stop-opacity="0.34"/>
<stop offset="1" stop-color="#BAC32F"/>
</linearGradient>
<linearGradient id="paint38_linear" x1="-796.415" y1="20.2094" x2="-793.404" y2="20.2094" gradientUnits="userSpaceOnUse">
<stop offset="0.05" stop-color="#7DB828"/>
<stop offset="0.41" stop-color="#EFE300" stop-opacity="0.34"/>
<stop offset="0.68" stop-color="#EFE300" stop-opacity="0.34"/>
<stop offset="1" stop-color="#BAC32F"/>
</linearGradient>
<linearGradient id="paint39_linear" x1="-779.931" y1="20.2094" x2="-776.92" y2="20.2094" gradientUnits="userSpaceOnUse">
<stop offset="0.05" stop-color="#7DB828"/>
<stop offset="0.41" stop-color="#EFE300" stop-opacity="0.34"/>
<stop offset="0.68" stop-color="#EFE300" stop-opacity="0.34"/>
<stop offset="1" stop-color="#BAC32F"/>
</linearGradient>
<linearGradient id="paint40_linear" x1="-763.495" y1="20.2094" x2="-760.484" y2="20.2094" gradientUnits="userSpaceOnUse">
<stop offset="0.05" stop-color="#7DB828"/>
<stop offset="0.41" stop-color="#EFE300" stop-opacity="0.34"/>
<stop offset="0.68" stop-color="#EFE300" stop-opacity="0.34"/>
<stop offset="1" stop-color="#BAC32F"/>
</linearGradient>
<linearGradient id="paint41_linear" x1="-746.998" y1="20.2094" x2="-743.987" y2="20.2094" gradientUnits="userSpaceOnUse">
<stop offset="0.05" stop-color="#7DB828"/>
<stop offset="0.41" stop-color="#EFE300" stop-opacity="0.34"/>
<stop offset="0.68" stop-color="#EFE300" stop-opacity="0.34"/>
<stop offset="1" stop-color="#BAC32F"/>
</linearGradient>
<linearGradient id="paint42_linear" x1="-911.778" y1="36.6429" x2="-908.768" y2="36.6429" gradientUnits="userSpaceOnUse">
<stop offset="0.05" stop-color="#7DB828"/>
<stop offset="0.41" stop-color="#EFE300" stop-opacity="0.34"/>
<stop offset="0.68" stop-color="#EFE300" stop-opacity="0.34"/>
<stop offset="1" stop-color="#BAC32F"/>
</linearGradient>
<linearGradient id="paint43_linear" x1="-895.284" y1="36.6429" x2="-892.274" y2="36.6429" gradientUnits="userSpaceOnUse">
<stop offset="0.05" stop-color="#7DB828"/>
<stop offset="0.41" stop-color="#EFE300" stop-opacity="0.34"/>
<stop offset="0.68" stop-color="#EFE300" stop-opacity="0.34"/>
<stop offset="1" stop-color="#BAC32F"/>
</linearGradient>
<linearGradient id="paint44_linear" x1="-878.816" y1="36.6429" x2="-875.805" y2="36.6429" gradientUnits="userSpaceOnUse">
<stop offset="0.05" stop-color="#7DB828"/>
<stop offset="0.41" stop-color="#EFE300" stop-opacity="0.34"/>
<stop offset="0.68" stop-color="#EFE300" stop-opacity="0.34"/>
<stop offset="1" stop-color="#BAC32F"/>
</linearGradient>
<linearGradient id="paint45_linear" x1="-854.472" y1="36.6429" x2="-851.508" y2="36.6429" gradientUnits="userSpaceOnUse">
<stop offset="0.05" stop-color="#7DB828"/>
<stop offset="0.41" stop-color="#EFE300" stop-opacity="0.34"/>
<stop offset="0.68" stop-color="#EFE300" stop-opacity="0.34"/>
<stop offset="1" stop-color="#BAC32F"/>
</linearGradient>
<linearGradient id="paint46_linear" x1="-838.066" y1="36.6429" x2="-835.101" y2="36.6429" gradientUnits="userSpaceOnUse">
<stop offset="0.05" stop-color="#7DB828"/>
<stop offset="0.41" stop-color="#EFE300" stop-opacity="0.34"/>
<stop offset="0.68" stop-color="#EFE300" stop-opacity="0.34"/>
<stop offset="1" stop-color="#BAC32F"/>
</linearGradient>
<linearGradient id="paint47_linear" x1="-821.66" y1="36.6429" x2="-818.695" y2="36.6429" gradientUnits="userSpaceOnUse">
<stop offset="0.05" stop-color="#7DB828"/>
<stop offset="0.41" stop-color="#EFE300" stop-opacity="0.34"/>
<stop offset="0.68" stop-color="#EFE300" stop-opacity="0.34"/>
<stop offset="1" stop-color="#BAC32F"/>
</linearGradient>
<linearGradient id="paint48_linear" x1="-805.271" y1="36.6429" x2="-802.307" y2="36.6429" gradientUnits="userSpaceOnUse">
<stop offset="0.05" stop-color="#7DB828"/>
<stop offset="0.41" stop-color="#EFE300" stop-opacity="0.34"/>
<stop offset="0.68" stop-color="#EFE300" stop-opacity="0.34"/>
<stop offset="1" stop-color="#BAC32F"/>
</linearGradient>
<linearGradient id="paint49_linear" x1="-796.415" y1="36.6429" x2="-793.404" y2="36.6429" gradientUnits="userSpaceOnUse">
<stop offset="0.05" stop-color="#7DB828"/>
<stop offset="0.41" stop-color="#EFE300" stop-opacity="0.34"/>
<stop offset="0.68" stop-color="#EFE300" stop-opacity="0.34"/>
<stop offset="1" stop-color="#BAC32F"/>
</linearGradient>
<linearGradient id="paint50_linear" x1="-779.931" y1="36.6429" x2="-776.92" y2="36.6429" gradientUnits="userSpaceOnUse">
<stop offset="0.05" stop-color="#7DB828"/>
<stop offset="0.41" stop-color="#EFE300" stop-opacity="0.34"/>
<stop offset="0.68" stop-color="#EFE300" stop-opacity="0.34"/>
<stop offset="1" stop-color="#BAC32F"/>
</linearGradient>
<linearGradient id="paint51_linear" x1="-763.495" y1="36.6429" x2="-760.484" y2="36.6429" gradientUnits="userSpaceOnUse">
<stop offset="0.05" stop-color="#7DB828"/>
<stop offset="0.41" stop-color="#EFE300" stop-opacity="0.34"/>
<stop offset="0.68" stop-color="#EFE300" stop-opacity="0.34"/>
<stop offset="1" stop-color="#BAC32F"/>
</linearGradient>
<linearGradient id="paint52_linear" x1="-746.998" y1="36.6429" x2="-743.987" y2="36.6429" gradientUnits="userSpaceOnUse">
<stop offset="0.05" stop-color="#7DB828"/>
<stop offset="0.41" stop-color="#EFE300" stop-opacity="0.34"/>
<stop offset="0.68" stop-color="#EFE300" stop-opacity="0.34"/>
<stop offset="1" stop-color="#BAC32F"/>
</linearGradient>
<linearGradient id="paint53_linear" x1="-730.533" y1="36.6429" x2="-727.522" y2="36.6429" gradientUnits="userSpaceOnUse">
<stop offset="0.05" stop-color="#7DB828"/>
<stop offset="0.41" stop-color="#EFE300" stop-opacity="0.34"/>
<stop offset="0.68" stop-color="#EFE300" stop-opacity="0.34"/>
<stop offset="1" stop-color="#BAC32F"/>
</linearGradient>
<linearGradient id="paint54_linear" x1="-911.778" y1="53.0787" x2="-908.768" y2="53.0787" gradientUnits="userSpaceOnUse">
<stop offset="0.05" stop-color="#7DB828"/>
<stop offset="0.41" stop-color="#EFE300" stop-opacity="0.34"/>
<stop offset="0.68" stop-color="#EFE300" stop-opacity="0.34"/>
<stop offset="1" stop-color="#BAC32F"/>
</linearGradient>
<linearGradient id="paint55_linear" x1="-895.284" y1="53.0787" x2="-892.274" y2="53.0787" gradientUnits="userSpaceOnUse">
<stop offset="0.05" stop-color="#7DB828"/>
<stop offset="0.41" stop-color="#EFE300" stop-opacity="0.34"/>
<stop offset="0.68" stop-color="#EFE300" stop-opacity="0.34"/>
<stop offset="1" stop-color="#BAC32F"/>
</linearGradient>
<linearGradient id="paint56_linear" x1="-878.816" y1="53.0787" x2="-875.805" y2="53.0787" gradientUnits="userSpaceOnUse">
<stop offset="0.05" stop-color="#7DB828"/>
<stop offset="0.41" stop-color="#EFE300" stop-opacity="0.34"/>
<stop offset="0.68" stop-color="#EFE300" stop-opacity="0.34"/>
<stop offset="1" stop-color="#BAC32F"/>
</linearGradient>
<linearGradient id="paint57_linear" x1="-854.472" y1="53.0787" x2="-851.508" y2="53.0787" gradientUnits="userSpaceOnUse">
<stop offset="0.05" stop-color="#7DB828"/>
<stop offset="0.41" stop-color="#EFE300" stop-opacity="0.34"/>
<stop offset="0.68" stop-color="#EFE300" stop-opacity="0.34"/>
<stop offset="1" stop-color="#BAC32F"/>
</linearGradient>
<linearGradient id="paint58_linear" x1="-779.931" y1="53.0787" x2="-776.92" y2="53.0787" gradientUnits="userSpaceOnUse">
<stop offset="0.05" stop-color="#7DB828"/>
<stop offset="0.41" stop-color="#EFE300" stop-opacity="0.34"/>
<stop offset="0.68" stop-color="#EFE300" stop-opacity="0.34"/>
<stop offset="1" stop-color="#BAC32F"/>
</linearGradient>
<linearGradient id="paint59_linear" x1="-763.495" y1="53.0787" x2="-760.484" y2="53.0787" gradientUnits="userSpaceOnUse">
<stop offset="0.05" stop-color="#7DB828"/>
<stop offset="0.41" stop-color="#EFE300" stop-opacity="0.34"/>
<stop offset="0.68" stop-color="#EFE300" stop-opacity="0.34"/>
<stop offset="1" stop-color="#BAC32F"/>
</linearGradient>
<linearGradient id="paint60_linear" x1="-746.998" y1="53.0787" x2="-743.987" y2="53.0787" gradientUnits="userSpaceOnUse">
<stop offset="0.05" stop-color="#7DB828"/>
<stop offset="0.41" stop-color="#EFE300" stop-opacity="0.34"/>
<stop offset="0.68" stop-color="#EFE300" stop-opacity="0.34"/>
<stop offset="1" stop-color="#BAC32F"/>
</linearGradient>
<linearGradient id="paint61_linear" x1="-730.533" y1="53.0787" x2="-727.522" y2="53.0787" gradientUnits="userSpaceOnUse">
<stop offset="0.05" stop-color="#7DB828"/>
<stop offset="0.41" stop-color="#EFE300" stop-opacity="0.34"/>
<stop offset="0.68" stop-color="#EFE300" stop-opacity="0.34"/>
<stop offset="1" stop-color="#BAC32F"/>
</linearGradient>
<linearGradient id="paint62_linear" x1="-593.168" y1="68.3417" x2="-591.755" y2="68.3417" gradientUnits="userSpaceOnUse">
<stop offset="0.05" stop-color="#7DB828"/>
<stop offset="0.41" stop-color="#EFE300" stop-opacity="0.34"/>
<stop offset="0.68" stop-color="#EFE300" stop-opacity="0.34"/>
<stop offset="1" stop-color="#BAC32F"/>
</linearGradient>
<linearGradient id="paint63_linear" x1="-911.778" y1="69.6004" x2="-908.768" y2="69.6004" gradientUnits="userSpaceOnUse">
<stop offset="0.05" stop-color="#7DB828"/>
<stop offset="0.41" stop-color="#EFE300" stop-opacity="0.34"/>
<stop offset="0.68" stop-color="#EFE300" stop-opacity="0.34"/>
<stop offset="1" stop-color="#BAC32F"/>
</linearGradient>
<linearGradient id="paint64_linear" x1="-895.284" y1="69.6004" x2="-892.274" y2="69.6004" gradientUnits="userSpaceOnUse">
<stop offset="0.05" stop-color="#7DB828"/>
<stop offset="0.41" stop-color="#EFE300" stop-opacity="0.34"/>
<stop offset="0.68" stop-color="#EFE300" stop-opacity="0.34"/>
<stop offset="1" stop-color="#BAC32F"/>
</linearGradient>
<linearGradient id="paint65_linear" x1="-878.816" y1="69.6004" x2="-875.805" y2="69.6004" gradientUnits="userSpaceOnUse">
<stop offset="0.05" stop-color="#7DB828"/>
<stop offset="0.41" stop-color="#EFE300" stop-opacity="0.34"/>
<stop offset="0.68" stop-color="#EFE300" stop-opacity="0.34"/>
<stop offset="1" stop-color="#BAC32F"/>
</linearGradient>
<linearGradient id="paint66_linear" x1="-763.495" y1="69.6004" x2="-760.484" y2="69.6004" gradientUnits="userSpaceOnUse">
<stop offset="0.05" stop-color="#7DB828"/>
<stop offset="0.41" stop-color="#EFE300" stop-opacity="0.34"/>
<stop offset="0.68" stop-color="#EFE300" stop-opacity="0.34"/>
<stop offset="1" stop-color="#BAC32F"/>
</linearGradient>
<linearGradient id="paint67_linear" x1="-746.998" y1="69.6004" x2="-743.987" y2="69.6004" gradientUnits="userSpaceOnUse">
<stop offset="0.05" stop-color="#7DB828"/>
<stop offset="0.41" stop-color="#EFE300" stop-opacity="0.34"/>
<stop offset="0.68" stop-color="#EFE300" stop-opacity="0.34"/>
<stop offset="1" stop-color="#BAC32F"/>
</linearGradient>
<linearGradient id="paint68_linear" x1="-730.533" y1="69.6004" x2="-727.522" y2="69.6004" gradientUnits="userSpaceOnUse">
<stop offset="0.05" stop-color="#7DB828"/>
<stop offset="0.41" stop-color="#EFE300" stop-opacity="0.34"/>
<stop offset="0.68" stop-color="#EFE300" stop-opacity="0.34"/>
<stop offset="1" stop-color="#BAC32F"/>
</linearGradient>
<linearGradient id="paint69_linear" x1="-411.424" y1="72.9334" x2="-410.044" y2="72.9334" gradientUnits="userSpaceOnUse">
<stop offset="0.05" stop-color="#7DB828"/>
<stop offset="0.41" stop-color="#EFE300" stop-opacity="0.34"/>
<stop offset="0.68" stop-color="#EFE300" stop-opacity="0.34"/>
<stop offset="1" stop-color="#BAC32F"/>
</linearGradient>
<linearGradient id="paint70_linear" x1="-928.232" y1="84.9783" x2="-925.221" y2="84.9783" gradientUnits="userSpaceOnUse">
<stop offset="0.05" stop-color="#7DB828"/>
<stop offset="0.41" stop-color="#EFE300" stop-opacity="0.34"/>
<stop offset="0.68" stop-color="#EFE300" stop-opacity="0.34"/>
<stop offset="1" stop-color="#BAC32F"/>
</linearGradient>
<linearGradient id="paint71_linear" x1="-911.778" y1="84.9783" x2="-908.768" y2="84.9783" gradientUnits="userSpaceOnUse">
<stop offset="0.05" stop-color="#7DB828"/>
<stop offset="0.41" stop-color="#EFE300" stop-opacity="0.34"/>
<stop offset="0.68" stop-color="#EFE300" stop-opacity="0.34"/>
<stop offset="1" stop-color="#BAC32F"/>
</linearGradient>
<linearGradient id="paint72_linear" x1="-895.284" y1="84.9783" x2="-892.274" y2="84.9783" gradientUnits="userSpaceOnUse">
<stop offset="0.05" stop-color="#7DB828"/>
<stop offset="0.41" stop-color="#EFE300" stop-opacity="0.34"/>
<stop offset="0.68" stop-color="#EFE300" stop-opacity="0.34"/>
<stop offset="1" stop-color="#BAC32F"/>
</linearGradient>
<linearGradient id="paint73_linear" x1="-878.816" y1="84.9783" x2="-875.805" y2="84.9783" gradientUnits="userSpaceOnUse">
<stop offset="0.05" stop-color="#7DB828"/>
<stop offset="0.41" stop-color="#EFE300" stop-opacity="0.34"/>
<stop offset="0.68" stop-color="#EFE300" stop-opacity="0.34"/>
<stop offset="1" stop-color="#BAC32F"/>
</linearGradient>
<linearGradient id="paint74_linear" x1="-763.495" y1="84.9783" x2="-760.484" y2="84.9783" gradientUnits="userSpaceOnUse">
<stop offset="0.05" stop-color="#7DB828"/>
<stop offset="0.41" stop-color="#EFE300" stop-opacity="0.34"/>
<stop offset="0.68" stop-color="#EFE300" stop-opacity="0.34"/>
<stop offset="1" stop-color="#BAC32F"/>
</linearGradient>
<linearGradient id="paint75_linear" x1="-746.998" y1="84.9783" x2="-743.987" y2="84.9783" gradientUnits="userSpaceOnUse">
<stop offset="0.05" stop-color="#7DB828"/>
<stop offset="0.41" stop-color="#EFE300" stop-opacity="0.34"/>
<stop offset="0.68" stop-color="#EFE300" stop-opacity="0.34"/>
<stop offset="1" stop-color="#BAC32F"/>
</linearGradient>
<linearGradient id="paint76_linear" x1="-730.533" y1="84.9783" x2="-727.522" y2="84.9783" gradientUnits="userSpaceOnUse">
<stop offset="0.05" stop-color="#7DB828"/>
<stop offset="0.41" stop-color="#EFE300" stop-opacity="0.34"/>
<stop offset="0.68" stop-color="#EFE300" stop-opacity="0.34"/>
<stop offset="1" stop-color="#BAC32F"/>
</linearGradient>
<linearGradient id="paint77_linear" x1="-714.077" y1="84.9783" x2="-711.066" y2="84.9783" gradientUnits="userSpaceOnUse">
<stop offset="0.05" stop-color="#7DB828"/>
<stop offset="0.41" stop-color="#EFE300" stop-opacity="0.34"/>
<stop offset="0.68" stop-color="#EFE300" stop-opacity="0.34"/>
<stop offset="1" stop-color="#BAC32F"/>
</linearGradient>
</defs>
</svg>
