<svg width="168" height="102" viewBox="0 0 168 102" fill="none" xmlns="http://www.w3.org/2000/svg">
<rect width="168" height="102" rx="24" fill="url(#paint0_linear)"/>
<mask id="mask0" mask-type="alpha" maskUnits="userSpaceOnUse" x="0" y="0" width="168" height="102">
<rect width="168" height="102" rx="24" fill="url(#paint1_linear)"/>
</mask>
<g mask="url(#mask0)">
<path fill-rule="evenodd" clip-rule="evenodd" d="M119.445 12.8989C127.43 12.8989 133.907 5.07858 133.907 -3.3999H104.982C104.982 -3.3999 104.982 -4.05799 104.982 -3.3999C104.982 5.07858 111.46 12.8989 119.456 12.8989H119.445Z" fill="url(#paint2_linear)"/>
<path fill-rule="evenodd" clip-rule="evenodd" d="M16.232 51.2804C16.232 43.2626 8.44368 36.7583 0 36.7583L2.18111e-06 65.8023C8.44368 65.8023 16.232 59.2981 16.232 51.2693V51.2804Z" fill="url(#paint3_linear)"/>
<path d="M161.168 68.7747H159.956C159.947 68.4925 159.88 68.2149 159.762 67.9587C159.644 67.7024 159.476 67.4727 159.267 67.283C158.953 66.9864 158.702 66.6279 158.53 66.2297C158.36 65.8316 158.272 65.4023 158.273 64.9687C158.276 64.5308 158.364 64.0975 158.535 63.6944C158.705 63.2914 158.955 62.9266 159.267 62.6215C159.484 62.4286 159.656 62.1921 159.774 61.9274C159.893 61.6629 159.955 61.3762 159.956 61.0859C159.955 60.7958 159.893 60.509 159.774 60.2445C159.656 59.9798 159.484 59.7433 159.267 59.5504C158.955 59.2452 158.705 58.8804 158.535 58.4775C158.364 58.0744 158.276 57.6411 158.273 57.2032C158.271 56.7647 158.359 56.3303 158.529 55.9267C158.701 55.5232 158.952 55.1588 159.267 54.856C159.483 54.6601 159.655 54.4215 159.773 54.1552C159.891 53.889 159.953 53.601 159.956 53.3094C159.955 53.0178 159.892 52.7295 159.774 52.4632C159.655 52.1969 159.483 51.9584 159.267 51.7629C158.955 51.4578 158.705 51.093 158.535 50.69C158.364 50.2869 158.276 49.8537 158.273 49.4157C158.271 48.9772 158.359 48.5428 158.529 48.1392C158.701 47.7357 158.952 47.3713 159.267 47.0685C159.483 46.8726 159.655 46.634 159.773 46.3677C159.891 46.1015 159.953 45.8135 159.956 45.5219C159.955 45.2303 159.892 44.9421 159.774 44.6757C159.655 44.4094 159.483 44.1709 159.267 43.9754C158.955 43.6703 158.705 43.3055 158.535 42.9025C158.364 42.4994 158.276 42.0662 158.273 41.6282C158.272 41.1931 158.36 40.7623 158.531 40.3625C158.702 39.9626 158.953 39.602 159.267 39.3029C159.482 39.113 159.653 38.8801 159.771 38.6194C159.89 38.3587 159.952 38.0759 159.956 37.7893H161.168C161.145 38.6581 160.793 39.4856 160.185 40.1036C159.969 40.2961 159.795 40.5325 159.677 40.7972C159.558 41.0619 159.497 41.349 159.497 41.6392C159.496 41.9297 159.556 42.2171 159.675 42.482C159.794 42.747 159.968 42.9831 160.185 43.1747C160.496 43.4807 160.743 43.846 160.911 44.249C161.081 44.6521 161.168 45.0848 161.168 45.5219C161.168 45.9591 161.081 46.392 160.911 46.7949C160.743 47.1979 160.496 47.5631 160.185 47.8692C159.969 48.0637 159.795 48.3021 159.676 48.5686C159.558 48.8351 159.497 49.1238 159.497 49.4157C159.497 49.7076 159.558 49.9962 159.676 50.2628C159.795 50.5293 159.969 50.7676 160.185 50.9622C160.496 51.2682 160.743 51.6335 160.911 52.0365C161.081 52.4395 161.168 52.8722 161.168 53.3094C161.168 53.7466 161.081 54.1794 160.911 54.5824C160.743 54.9854 160.496 55.3506 160.185 55.6566C159.968 55.8503 159.793 56.0886 159.675 56.3552C159.556 56.622 159.496 56.9111 159.497 57.2032C159.497 57.495 159.558 57.7837 159.676 58.0503C159.795 58.3168 159.969 58.5551 160.185 58.7497C160.496 59.0557 160.743 59.421 160.911 59.8239C161.081 60.227 161.168 60.6597 161.168 61.0969C161.168 61.5341 161.081 61.9669 160.911 62.3699C160.743 62.7729 160.496 63.1381 160.185 63.4441C159.968 63.6378 159.793 63.8761 159.675 64.1427C159.556 64.4094 159.496 64.6986 159.497 64.9907C159.495 65.2748 159.556 65.5558 159.675 65.8137C159.794 66.0716 159.968 66.2999 160.185 66.4823C160.786 67.0968 161.136 67.9142 161.168 68.7747Z" fill="url(#paint4_linear)"/>
<path d="M164.051 60.8556H162.882C162.876 60.5728 162.811 60.2946 162.692 60.0379C162.574 59.7814 162.405 59.5519 162.194 59.3639C161.882 59.0635 161.634 58.7025 161.464 58.3027C161.295 57.9031 161.209 57.4729 161.211 57.0386C161.213 56.6033 161.301 56.1726 161.469 55.7716C161.638 55.3706 161.884 55.0072 162.194 54.7024C162.417 54.5061 162.595 54.2627 162.713 53.9898C162.832 53.7168 162.89 53.4209 162.882 53.123C162.883 52.8325 162.823 52.545 162.704 52.2802C162.585 52.0153 162.411 51.779 162.194 51.5874C161.883 51.2814 161.636 50.9161 161.468 50.5132C161.298 50.1102 161.211 49.6774 161.211 49.2402C161.211 48.803 161.298 48.3703 161.468 47.9672C161.636 47.5642 161.883 47.199 162.194 46.893C162.398 46.7097 162.565 46.4873 162.683 46.2386C162.801 45.9901 162.869 45.7204 162.882 45.4452C162.883 45.1531 162.823 44.864 162.704 44.5972C162.586 44.3306 162.411 44.0923 162.194 43.8986C161.883 43.5926 161.636 43.2274 161.468 42.8244C161.298 42.4214 161.211 41.9886 161.211 41.5514C161.211 41.1142 161.298 40.6815 161.468 40.2785C161.636 39.8755 161.883 39.5102 162.194 39.2042C162.41 39.0096 162.584 38.7713 162.703 38.5048C162.821 38.2382 162.882 37.9497 162.882 37.6577C162.883 37.3656 162.823 37.0765 162.704 36.8098C162.586 36.5431 162.411 36.3049 162.194 36.1112C161.883 35.8051 161.636 35.4399 161.468 35.0369C161.298 34.634 161.211 34.2011 161.211 33.7639C161.211 33.3299 161.297 32.9002 161.467 32.5006C161.635 32.101 161.883 31.7399 162.194 31.4387C162.409 31.25 162.582 31.0174 162.701 30.7564C162.819 30.4954 162.881 30.212 162.882 29.925H164.095C164.072 30.7938 163.72 31.6213 163.112 32.2394C162.895 32.4318 162.722 32.6683 162.604 32.933C162.485 33.1977 162.423 33.4847 162.423 33.7749C162.422 34.0655 162.482 34.3528 162.602 34.6178C162.721 34.8827 162.894 35.119 163.112 35.3105C163.423 35.6165 163.67 35.9817 163.838 36.3847C164.007 36.7878 164.095 37.2205 164.095 37.6577C164.095 38.0949 164.007 38.5277 163.838 38.9307C163.67 39.3336 163.423 39.6989 163.112 40.0049C162.895 40.1995 162.722 40.4379 162.603 40.7043C162.485 40.9709 162.423 41.2596 162.423 41.5514C162.423 41.8434 162.485 42.132 162.603 42.3985C162.722 42.665 162.895 42.9034 163.112 43.098C163.423 43.404 163.67 43.7692 163.838 44.1722C164.007 44.5753 164.095 45.008 164.095 45.4452C164.095 45.8824 164.007 46.3152 163.838 46.7181C163.67 47.1211 163.423 47.4864 163.112 47.7924C162.894 47.9861 162.719 48.2243 162.602 48.491C162.482 48.7577 162.421 49.0468 162.423 49.3389C162.423 49.6309 162.485 49.9195 162.603 50.186C162.722 50.4525 162.895 50.6909 163.112 50.8854C163.423 51.1915 163.67 51.5567 163.838 51.9597C164.007 52.3628 164.095 52.7955 164.095 53.2327C164.095 53.6698 164.007 54.1027 163.838 54.5056C163.67 54.9086 163.423 55.2738 163.112 55.5799C162.894 55.7736 162.719 56.0118 162.602 56.2785C162.482 56.5452 162.421 56.8343 162.423 57.1264C162.421 57.4106 162.482 57.6916 162.602 57.9495C162.721 58.2073 162.894 58.4357 163.112 58.6181C163.712 59.2325 164.063 60.05 164.095 60.9104L164.051 60.8556Z" fill="url(#paint5_linear)"/>
<path d="M101.423 75.2807C101.87 75.1601 102.329 75.0614 102.788 74.9626C102.804 75.0459 102.804 75.1317 102.788 75.2149C102.788 75.404 102.714 75.5853 102.58 75.719C102.447 75.8527 102.266 75.9279 102.078 75.9279C101.902 75.9259 101.734 75.8586 101.605 75.7392C101.475 75.6196 101.395 75.4563 101.379 75.2807H101.423Z" fill="url(#paint6_linear)"/>
<path d="M105.818 75.2146C105.818 75.0256 105.893 74.8442 106.025 74.7105C106.159 74.5768 106.34 74.5017 106.528 74.5017C106.715 74.5046 106.892 74.581 107.023 74.7144C107.154 74.8478 107.227 75.0275 107.227 75.2146C107.227 75.4019 107.154 75.5815 107.023 75.7149C106.892 75.8484 106.715 75.9247 106.528 75.9276C106.34 75.9276 106.159 75.8525 106.025 75.7187C105.893 75.585 105.818 75.4037 105.818 75.2146Z" fill="url(#paint7_linear)"/>
<path d="M110.204 75.2146C110.204 75.0256 110.278 74.8442 110.411 74.7105C110.544 74.5768 110.726 74.5017 110.914 74.5017C111.1 74.5046 111.277 74.581 111.408 74.7144C111.54 74.8478 111.613 75.0275 111.613 75.2146C111.613 75.4019 111.54 75.5815 111.408 75.7149C111.277 75.8484 111.1 75.9247 110.914 75.9276C110.726 75.9276 110.544 75.8525 110.411 75.7187C110.278 75.585 110.204 75.4037 110.204 75.2146Z" fill="url(#paint8_linear)"/>
<path d="M114.596 75.2149C114.586 75.1312 114.586 75.0463 114.596 74.9626C115.055 75.0614 115.514 75.1601 115.962 75.2807C115.948 75.4572 115.868 75.6221 115.739 75.7421C115.609 75.862 115.439 75.9284 115.263 75.9279C115.075 75.9279 114.894 75.8527 114.76 75.719C114.628 75.5853 114.553 75.404 114.553 75.2149H114.596Z" fill="url(#paint9_linear)"/>
<path d="M92.6309 79.668C92.6337 79.4798 92.7094 79.3001 92.8419 79.1671C92.9745 79.0339 93.1534 78.9579 93.3409 78.9551C93.5292 78.9551 93.7098 79.0302 93.8429 79.1639C93.9761 79.2976 94.0509 79.4789 94.0509 79.668C94.0509 79.8571 93.9761 80.0384 93.8429 80.1721C93.7098 80.3058 93.5292 80.381 93.3409 80.381C93.1534 80.3781 92.9745 80.3021 92.8419 80.169C92.7094 80.0359 92.6337 79.8562 92.6309 79.668Z" fill="url(#paint10_linear)"/>
<path d="M97.0293 79.668C97.0293 79.4808 97.1025 79.3011 97.2336 79.1678C97.3646 79.0344 97.5416 78.9579 97.7284 78.9551C97.8212 78.9551 97.9141 78.9735 98.0004 79.0094C98.0867 79.0452 98.1642 79.0977 98.2309 79.1639C98.2964 79.2302 98.3488 79.3087 98.3849 79.3952C98.4198 79.4817 98.4384 79.5745 98.4384 79.668C98.4384 79.8571 98.3641 80.0384 98.2309 80.1721C98.0976 80.3058 97.9163 80.381 97.7284 80.381C97.5416 80.3781 97.3646 80.3018 97.2336 80.1683C97.1025 80.0349 97.0293 79.8552 97.0293 79.668Z" fill="url(#paint11_linear)"/>
<path d="M101.424 79.668C101.424 79.4808 101.497 79.3011 101.628 79.1678C101.759 79.0344 101.936 78.9579 102.123 78.9551C102.216 78.9551 102.309 78.9735 102.395 79.0094C102.481 79.0452 102.559 79.0977 102.625 79.1639C102.691 79.2302 102.743 79.3087 102.779 79.3952C102.814 79.4817 102.833 79.5745 102.833 79.668C102.833 79.8571 102.759 80.0384 102.625 80.1721C102.492 80.3058 102.311 80.381 102.123 80.381C101.936 80.3781 101.759 80.3018 101.628 80.1683C101.497 80.0349 101.424 79.8552 101.424 79.668Z" fill="url(#paint12_linear)"/>
<path d="M105.818 79.668C105.818 79.4789 105.894 79.2976 106.026 79.1639C106.159 79.0302 106.34 78.9551 106.528 78.9551C106.715 78.9579 106.892 79.0344 107.023 79.1678C107.154 79.3011 107.227 79.4808 107.227 79.668C107.227 79.8552 107.154 80.0349 107.023 80.1683C106.892 80.3018 106.715 80.3781 106.528 80.381C106.34 80.381 106.159 80.3058 106.026 80.1721C105.894 80.0384 105.818 79.8571 105.818 79.668Z" fill="url(#paint13_linear)"/>
<path d="M110.203 79.668C110.203 79.5745 110.222 79.4817 110.257 79.3952C110.293 79.3087 110.345 79.2302 110.411 79.1639C110.477 79.0977 110.555 79.0452 110.641 79.0094C110.727 78.9735 110.82 78.9551 110.913 78.9551C111.1 78.9579 111.277 79.0344 111.408 79.1678C111.539 79.3011 111.612 79.4808 111.612 79.668C111.612 79.8552 111.539 80.0349 111.408 80.1683C111.277 80.3018 111.1 80.3781 110.913 80.381C110.725 80.381 110.544 80.3058 110.411 80.1721C110.277 80.0384 110.203 79.8571 110.203 79.668Z" fill="url(#paint14_linear)"/>
<path d="M114.598 79.668C114.598 79.5745 114.616 79.4817 114.651 79.3952C114.687 79.3087 114.74 79.2302 114.805 79.1639C114.872 79.0977 114.949 79.0452 115.036 79.0094C115.122 78.9735 115.215 78.9551 115.308 78.9551C115.496 78.9579 115.674 79.0339 115.807 79.1671C115.939 79.3001 116.014 79.4798 116.018 79.668C116.014 79.8562 115.939 80.0359 115.807 80.169C115.674 80.3021 115.496 80.3781 115.308 80.381C115.12 80.381 114.938 80.3058 114.805 80.1721C114.672 80.0384 114.598 79.8571 114.598 79.668Z" fill="url(#paint15_linear)"/>
<path d="M118.992 79.668C118.992 79.5745 119.011 79.4817 119.046 79.3952C119.082 79.3087 119.134 79.2302 119.2 79.1639C119.266 79.0977 119.344 79.0452 119.43 79.0094C119.517 78.9735 119.609 78.9551 119.702 78.9551C119.795 78.9551 119.888 78.9735 119.974 79.0094C120.06 79.0452 120.138 79.0977 120.205 79.1639C120.27 79.2302 120.323 79.3087 120.359 79.3952C120.394 79.4817 120.412 79.5745 120.412 79.668C120.412 79.8571 120.338 80.0384 120.205 80.1721C120.071 80.3058 119.89 80.381 119.702 80.381C119.514 80.381 119.333 80.3058 119.2 80.1721C119.066 80.0384 118.992 79.8571 118.992 79.668Z" fill="url(#paint16_linear)"/>
<path d="M123.379 79.668C123.379 79.5745 123.397 79.4817 123.434 79.3952C123.468 79.3087 123.521 79.2302 123.586 79.1639C123.653 79.0977 123.731 79.0452 123.817 79.0094C123.903 78.9735 123.996 78.9551 124.089 78.9551C124.182 78.9551 124.275 78.9735 124.361 79.0094C124.447 79.0452 124.525 79.0977 124.591 79.1639C124.657 79.2302 124.709 79.3087 124.745 79.3952C124.78 79.4817 124.799 79.5745 124.799 79.668C124.799 79.8571 124.725 80.0384 124.591 80.1721C124.458 80.3058 124.277 80.381 124.089 80.381C123.901 80.381 123.72 80.3058 123.586 80.1721C123.454 80.0384 123.379 79.8571 123.379 79.668Z" fill="url(#paint17_linear)"/>
<path d="M88.2383 84.055C88.2411 83.8679 88.3171 83.6893 88.45 83.558C88.5829 83.4266 88.7618 83.353 88.9483 83.353C89.1346 83.353 89.3137 83.4266 89.4465 83.558C89.5793 83.6893 89.6554 83.8679 89.6583 84.055C89.6583 84.2441 89.5835 84.4254 89.4503 84.5591C89.3172 84.6928 89.1366 84.7679 88.9483 84.7679C88.76 84.7679 88.5793 84.6928 88.4462 84.5591C88.313 84.4254 88.2383 84.2441 88.2383 84.055Z" fill="url(#paint18_linear)"/>
<path d="M92.6309 84.055C92.6337 83.8679 92.7098 83.6893 92.8427 83.558C92.9755 83.4266 93.1544 83.353 93.3409 83.353C93.5273 83.353 93.7063 83.4266 93.8391 83.558C93.9719 83.6893 94.048 83.8679 94.0509 84.055C94.0509 84.2441 93.9761 84.4254 93.8429 84.5591C93.7098 84.6928 93.5292 84.7679 93.3409 84.7679C93.1534 84.7651 92.9745 84.6891 92.8419 84.556C92.7094 84.4229 92.6337 84.2432 92.6309 84.055Z" fill="url(#paint19_linear)"/>
<path d="M97.0293 84.055C97.0293 83.8689 97.1025 83.6903 97.2336 83.5587C97.3657 83.4271 97.5427 83.353 97.7284 83.353C97.9152 83.353 98.0943 83.4266 98.2265 83.558C98.3598 83.6893 98.4351 83.8679 98.4384 84.055C98.4384 84.2441 98.3641 84.4254 98.2309 84.5591C98.0976 84.6928 97.9163 84.7679 97.7284 84.7679C97.5416 84.7651 97.3646 84.6887 97.2336 84.5554C97.1025 84.4219 97.0293 84.2422 97.0293 84.055Z" fill="url(#paint20_linear)"/>
<path d="M101.424 84.055C101.424 83.8689 101.497 83.6903 101.629 83.5587C101.76 83.4271 101.937 83.353 102.123 83.353C102.31 83.353 102.489 83.4266 102.621 83.558C102.754 83.6893 102.83 83.8679 102.833 84.055C102.833 84.2441 102.759 84.4254 102.625 84.5591C102.492 84.6928 102.311 84.7679 102.123 84.7679C101.936 84.7651 101.759 84.6887 101.628 84.5554C101.497 84.4219 101.424 84.2422 101.424 84.055Z" fill="url(#paint21_linear)"/>
<path d="M105.818 84.055C105.822 83.8679 105.897 83.6893 106.03 83.558C106.164 83.4266 106.342 83.353 106.528 83.353C106.714 83.353 106.892 83.4271 107.023 83.5587C107.154 83.6903 107.227 83.8689 107.227 84.055C107.227 84.2422 107.154 84.4219 107.023 84.5554C106.892 84.6887 106.715 84.7651 106.528 84.7679C106.34 84.7679 106.159 84.6928 106.026 84.5591C105.894 84.4254 105.818 84.2441 105.818 84.055Z" fill="url(#paint22_linear)"/>
<path d="M110.203 84.055C110.206 83.8679 110.282 83.6893 110.415 83.558C110.547 83.4266 110.726 83.353 110.913 83.353C111.099 83.353 111.277 83.4271 111.408 83.5587C111.539 83.6903 111.612 83.8689 111.612 84.055C111.612 84.2422 111.539 84.4219 111.408 84.5554C111.277 84.6887 111.1 84.7651 110.913 84.7679C110.725 84.7679 110.544 84.6928 110.411 84.5591C110.277 84.4254 110.203 84.2441 110.203 84.055Z" fill="url(#paint23_linear)"/>
<path d="M114.598 84.055C114.601 83.8679 114.676 83.6893 114.81 83.558C114.942 83.4266 115.121 83.353 115.308 83.353C115.494 83.353 115.673 83.4266 115.806 83.558C115.939 83.6893 116.014 83.8679 116.018 84.055C116.014 84.2432 115.939 84.4229 115.807 84.556C115.674 84.6891 115.496 84.7651 115.308 84.7679C115.12 84.7679 114.938 84.6928 114.805 84.5591C114.672 84.4254 114.598 84.2441 114.598 84.055Z" fill="url(#paint24_linear)"/>
<path d="M118.992 84.055C118.995 83.8679 119.071 83.6893 119.204 83.558C119.336 83.4266 119.515 83.353 119.702 83.353C119.889 83.353 120.067 83.4266 120.2 83.558C120.334 83.6893 120.409 83.8679 120.412 84.055C120.412 84.2441 120.338 84.4254 120.205 84.5591C120.071 84.6928 119.89 84.7679 119.702 84.7679C119.514 84.7679 119.333 84.6928 119.2 84.5591C119.066 84.4254 118.992 84.2441 118.992 84.055Z" fill="url(#paint25_linear)"/>
<path d="M123.379 84.055C123.382 83.8679 123.458 83.6893 123.591 83.558C123.724 83.4266 123.902 83.353 124.089 83.353C124.276 83.353 124.455 83.4266 124.587 83.558C124.72 83.6893 124.796 83.8679 124.799 84.055C124.799 84.2441 124.725 84.4254 124.591 84.5591C124.458 84.6928 124.277 84.7679 124.089 84.7679C123.901 84.7679 123.72 84.6928 123.586 84.5591C123.454 84.4254 123.379 84.2441 123.379 84.055Z" fill="url(#paint26_linear)"/>
<path d="M127.771 84.055C127.775 83.8679 127.85 83.6893 127.983 83.558C128.117 83.4266 128.295 83.353 128.481 83.353C128.668 83.353 128.847 83.4266 128.98 83.558C129.113 83.6893 129.188 83.8679 129.192 84.055C129.192 84.2441 129.117 84.4254 128.984 84.5591C128.851 84.6928 128.669 84.7679 128.481 84.7679C128.294 84.7679 128.112 84.6928 127.979 84.5591C127.847 84.4254 127.771 84.2441 127.771 84.055Z" fill="url(#paint27_linear)"/>
<path d="M83.8516 88.4429C83.8544 88.2558 83.9304 88.0773 84.0633 87.946C84.1961 87.8146 84.3751 87.741 84.5616 87.741C84.7479 87.741 84.927 87.8146 85.0598 87.946C85.1926 88.0773 85.2686 88.2558 85.2716 88.4429C85.2716 88.632 85.1968 88.8133 85.0636 88.947C84.9305 89.0807 84.7499 89.1559 84.5616 89.1559C84.3733 89.1559 84.1926 89.0807 84.0595 88.947C83.9264 88.8133 83.8516 88.632 83.8516 88.4429Z" fill="url(#paint28_linear)"/>
<path d="M88.2383 88.4429C88.2411 88.2558 88.3171 88.0773 88.45 87.946C88.5829 87.8146 88.7618 87.741 88.9483 87.741C89.1346 87.741 89.3137 87.8146 89.4465 87.946C89.5793 88.0773 89.6554 88.2558 89.6583 88.4429C89.6583 88.632 89.5835 88.8133 89.4503 88.947C89.3172 89.0807 89.1366 89.1559 88.9483 89.1559C88.76 89.1559 88.5793 89.0807 88.4462 88.947C88.313 88.8133 88.2383 88.632 88.2383 88.4429Z" fill="url(#paint29_linear)"/>
<path d="M92.6309 88.4429C92.6337 88.2558 92.7098 88.0773 92.8427 87.946C92.9755 87.8146 93.1544 87.741 93.3409 87.741C93.5273 87.741 93.7063 87.8146 93.8391 87.946C93.9719 88.0773 94.048 88.2558 94.0509 88.4429C94.0509 88.632 93.9761 88.8133 93.8429 88.947C93.7098 89.0807 93.5292 89.1559 93.3409 89.1559C93.1534 89.153 92.9745 89.077 92.8419 88.944C92.7094 88.8108 92.6337 88.6312 92.6309 88.4429Z" fill="url(#paint30_linear)"/>
<path d="M97.0293 88.4429C97.0293 88.2568 97.1025 88.0782 97.2336 87.9466C97.3657 87.815 97.5427 87.741 97.7284 87.741C97.9152 87.741 98.0943 87.8146 98.2265 87.946C98.3598 88.0773 98.4351 88.2558 98.4384 88.4429C98.4384 88.632 98.3641 88.8133 98.2309 88.947C98.0976 89.0807 97.9163 89.1559 97.7284 89.1559C97.5416 89.153 97.3646 89.0767 97.2336 88.9433C97.1025 88.8098 97.0293 88.6302 97.0293 88.4429Z" fill="url(#paint31_linear)"/>
<path d="M101.424 88.4429C101.424 88.2568 101.497 88.0782 101.629 87.9466C101.76 87.815 101.937 87.741 102.123 87.741C102.31 87.741 102.489 87.8146 102.621 87.946C102.754 88.0773 102.83 88.2558 102.833 88.4429C102.833 88.632 102.759 88.8133 102.625 88.947C102.492 89.0807 102.311 89.1559 102.123 89.1559C101.936 89.153 101.759 89.0767 101.628 88.9433C101.497 88.8098 101.424 88.6302 101.424 88.4429Z" fill="url(#paint32_linear)"/>
<path d="M105.818 88.4429C105.822 88.2558 105.897 88.0773 106.03 87.946C106.164 87.8146 106.342 87.741 106.528 87.741C106.714 87.741 106.892 87.815 107.023 87.9466C107.154 88.0782 107.227 88.2568 107.227 88.4429C107.227 88.6302 107.154 88.8098 107.023 88.9433C106.892 89.0767 106.715 89.153 106.528 89.1559C106.34 89.1559 106.159 89.0807 106.026 88.947C105.894 88.8133 105.818 88.632 105.818 88.4429Z" fill="url(#paint33_linear)"/>
<path d="M110.203 88.4429C110.206 88.2558 110.282 88.0773 110.415 87.946C110.547 87.8146 110.726 87.741 110.913 87.741C111.099 87.741 111.277 87.815 111.408 87.9466C111.539 88.0782 111.612 88.2568 111.612 88.4429C111.612 88.6302 111.539 88.8098 111.408 88.9433C111.277 89.0767 111.1 89.153 110.913 89.1559C110.725 89.1559 110.544 89.0807 110.411 88.947C110.277 88.8133 110.203 88.632 110.203 88.4429Z" fill="url(#paint34_linear)"/>
<path d="M114.598 88.4429C114.601 88.2558 114.676 88.0773 114.81 87.946C114.942 87.8146 115.121 87.741 115.308 87.741C115.494 87.741 115.673 87.8146 115.806 87.946C115.939 88.0773 116.014 88.2558 116.018 88.4429C116.014 88.6312 115.939 88.8108 115.807 88.944C115.674 89.077 115.496 89.153 115.308 89.1559C115.12 89.1559 114.938 89.0807 114.805 88.947C114.672 88.8133 114.598 88.632 114.598 88.4429Z" fill="url(#paint35_linear)"/>
<path d="M118.992 88.4429C118.995 88.2558 119.071 88.0773 119.204 87.946C119.336 87.8146 119.515 87.741 119.702 87.741C119.889 87.741 120.067 87.8146 120.2 87.946C120.334 88.0773 120.409 88.2558 120.412 88.4429C120.412 88.632 120.338 88.8133 120.205 88.947C120.071 89.0807 119.89 89.1559 119.702 89.1559C119.514 89.1559 119.333 89.0807 119.2 88.947C119.066 88.8133 118.992 88.632 118.992 88.4429Z" fill="url(#paint36_linear)"/>
<path d="M123.379 88.4429C123.382 88.2558 123.458 88.0773 123.591 87.946C123.724 87.8146 123.902 87.741 124.089 87.741C124.276 87.741 124.455 87.8146 124.587 87.946C124.72 88.0773 124.796 88.2558 124.799 88.4429C124.799 88.632 124.725 88.8133 124.591 88.947C124.458 89.0807 124.277 89.1559 124.089 89.1559C123.901 89.1559 123.72 89.0807 123.586 88.947C123.454 88.8133 123.379 88.632 123.379 88.4429Z" fill="url(#paint37_linear)"/>
<path d="M127.771 88.4429C127.775 88.2558 127.85 88.0773 127.983 87.946C128.117 87.8146 128.295 87.741 128.481 87.741C128.668 87.741 128.847 87.8146 128.98 87.946C129.113 88.0773 129.188 88.2558 129.192 88.4429C129.192 88.632 129.117 88.8133 128.984 88.947C128.851 89.0807 128.669 89.1559 128.481 89.1559C128.294 89.1559 128.112 89.0807 127.979 88.947C127.847 88.8133 127.771 88.632 127.771 88.4429Z" fill="url(#paint38_linear)"/>
<path d="M132.158 88.4429C132.161 88.2558 132.237 88.0773 132.37 87.946C132.502 87.8146 132.681 87.741 132.868 87.741C133.055 87.741 133.233 87.8146 133.366 87.946C133.5 88.0773 133.575 88.2558 133.578 88.4429C133.578 88.632 133.503 88.8133 133.371 88.947C133.237 89.0807 133.056 89.1559 132.868 89.1559C132.68 89.1559 132.499 89.0807 132.366 88.947C132.232 88.8133 132.158 88.632 132.158 88.4429Z" fill="url(#paint39_linear)"/>
<path d="M83.8516 92.8294C83.8516 92.6403 83.9264 92.459 84.0595 92.3253C84.1926 92.1916 84.3733 92.1165 84.5616 92.1165C84.7499 92.1165 84.9305 92.1916 85.0636 92.3253C85.1968 92.459 85.2716 92.6403 85.2716 92.8294C85.2686 93.0166 85.1926 93.1951 85.0598 93.3265C84.927 93.4578 84.7479 93.5314 84.5616 93.5314C84.3751 93.5314 84.1961 93.4578 84.0633 93.3265C83.9304 93.1951 83.8544 93.0166 83.8516 92.8294Z" fill="url(#paint40_linear)"/>
<path d="M88.2383 92.8294C88.2383 92.6403 88.313 92.459 88.4462 92.3253C88.5793 92.1916 88.76 92.1165 88.9483 92.1165C89.1366 92.1165 89.3172 92.1916 89.4503 92.3253C89.5835 92.459 89.6583 92.6403 89.6583 92.8294C89.6554 93.0166 89.5793 93.1951 89.4465 93.3265C89.3137 93.4578 89.1346 93.5314 88.9483 93.5314C88.7618 93.5314 88.5829 93.4578 88.45 93.3265C88.3171 93.1951 88.2411 93.0166 88.2383 92.8294Z" fill="url(#paint41_linear)"/>
<path d="M92.6309 92.8294C92.6337 92.6412 92.7094 92.4615 92.8419 92.3285C92.9745 92.1953 93.1534 92.1193 93.3409 92.1165C93.5292 92.1165 93.7098 92.1916 93.8429 92.3253C93.9761 92.459 94.0509 92.6403 94.0509 92.8294C94.048 93.0166 93.9719 93.1951 93.8391 93.3265C93.7063 93.4578 93.5273 93.5314 93.3409 93.5314C93.1544 93.5314 92.9755 93.4578 92.8427 93.3265C92.7098 93.1951 92.6337 93.0166 92.6309 92.8294Z" fill="url(#paint42_linear)"/>
<path d="M97.0293 92.8294C97.0293 92.6422 97.1025 92.4625 97.2336 92.3291C97.3646 92.1958 97.5416 92.1193 97.7284 92.1165C97.9163 92.1165 98.0976 92.1916 98.2309 92.3253C98.3641 92.459 98.4384 92.6403 98.4384 92.8294C98.4351 93.0166 98.3598 93.1951 98.2265 93.3265C98.0943 93.4578 97.9152 93.5314 97.7284 93.5314C97.5427 93.5314 97.3657 93.4574 97.2336 93.3258C97.1025 93.1941 97.0293 93.0156 97.0293 92.8294Z" fill="url(#paint43_linear)"/>
<path d="M118.992 92.8294C118.992 92.6403 119.066 92.459 119.2 92.3253C119.333 92.1916 119.514 92.1165 119.702 92.1165C119.89 92.1165 120.071 92.1916 120.205 92.3253C120.338 92.459 120.412 92.6403 120.412 92.8294C120.409 93.0166 120.334 93.1951 120.2 93.3265C120.067 93.4578 119.889 93.5314 119.702 93.5314C119.515 93.5314 119.336 93.4578 119.204 93.3265C119.071 93.1951 118.995 93.0166 118.992 92.8294Z" fill="url(#paint44_linear)"/>
<path d="M123.379 92.8294C123.379 92.6403 123.454 92.459 123.586 92.3253C123.72 92.1916 123.901 92.1165 124.089 92.1165C124.277 92.1165 124.458 92.1916 124.591 92.3253C124.725 92.459 124.799 92.6403 124.799 92.8294C124.796 93.0166 124.72 93.1951 124.587 93.3265C124.455 93.4578 124.276 93.5314 124.089 93.5314C123.902 93.5314 123.724 93.4578 123.591 93.3265C123.458 93.1951 123.382 93.0166 123.379 92.8294Z" fill="url(#paint45_linear)"/>
<path d="M127.771 92.8294C127.771 92.6403 127.847 92.459 127.979 92.3253C128.112 92.1916 128.294 92.1165 128.481 92.1165C128.669 92.1165 128.851 92.1916 128.984 92.3253C129.117 92.459 129.192 92.6403 129.192 92.8294C129.188 93.0166 129.113 93.1951 128.98 93.3265C128.847 93.4578 128.668 93.5314 128.481 93.5314C128.295 93.5314 128.117 93.4578 127.983 93.3265C127.85 93.1951 127.775 93.0166 127.771 92.8294Z" fill="url(#paint46_linear)"/>
<path d="M132.158 92.8294C132.158 92.6403 132.232 92.459 132.366 92.3253C132.499 92.1916 132.68 92.1165 132.868 92.1165C133.056 92.1165 133.237 92.1916 133.371 92.3253C133.503 92.459 133.578 92.6403 133.578 92.8294C133.575 93.0166 133.5 93.1951 133.366 93.3265C133.233 93.4578 133.055 93.5314 132.868 93.5314C132.681 93.5314 132.502 93.4578 132.37 93.3265C132.237 93.1951 132.161 93.0166 132.158 92.8294Z" fill="url(#paint47_linear)"/>
<path d="M80.2719 96.5586C80.4506 96.5724 80.6175 96.6536 80.7389 96.7859C80.8605 96.9181 80.9278 97.0915 80.9272 97.2715C80.9244 97.4588 80.8484 97.6372 80.7156 97.7686C80.5826 97.8999 80.4037 97.9735 80.2172 97.9735C80.1306 97.9894 80.0418 97.9894 79.9551 97.9735C80.0534 97.5128 80.1626 97.0522 80.2719 96.6025V96.5586Z" fill="url(#paint48_linear)"/>
<path d="M83.8516 97.2715C83.8516 97.1779 83.8699 97.0852 83.9056 96.9987C83.9412 96.9122 83.9936 96.8336 84.0595 96.7674C84.1254 96.7012 84.2037 96.6486 84.2898 96.6129C84.376 96.577 84.4683 96.5586 84.5616 96.5586C84.6548 96.5586 84.7471 96.577 84.8332 96.6129C84.9194 96.6486 84.9976 96.7012 85.0636 96.7674C85.1295 96.8336 85.1818 96.9122 85.2175 96.9987C85.2531 97.0852 85.2716 97.1779 85.2716 97.2715C85.2686 97.4588 85.1926 97.6372 85.0598 97.7686C84.927 97.8999 84.7479 97.9735 84.5616 97.9735C84.3751 97.9735 84.1961 97.8999 84.0633 97.7686C83.9304 97.6372 83.8544 97.4588 83.8516 97.2715Z" fill="url(#paint49_linear)"/>
<path d="M88.2383 97.2715C88.2383 97.1779 88.2566 97.0852 88.2922 96.9987C88.328 96.9122 88.3803 96.8336 88.4462 96.7674C88.5121 96.7012 88.5904 96.6486 88.6765 96.6129C88.7627 96.577 88.855 96.5586 88.9483 96.5586C89.0415 96.5586 89.1339 96.577 89.22 96.6129C89.3061 96.6486 89.3843 96.7012 89.4503 96.7674C89.5162 96.8336 89.5685 96.9122 89.6042 96.9987C89.64 97.0852 89.6583 97.1779 89.6583 97.2715C89.6554 97.4588 89.5793 97.6372 89.4465 97.7686C89.3137 97.8999 89.1346 97.9735 88.9483 97.9735C88.7618 97.9735 88.5829 97.8999 88.45 97.7686C88.3171 97.6372 88.2411 97.4588 88.2383 97.2715Z" fill="url(#paint50_linear)"/>
<path d="M92.6309 97.2715C92.6337 97.0833 92.7094 96.9037 92.8419 96.7705C92.9745 96.6375 93.1534 96.5614 93.3409 96.5586C93.5292 96.5586 93.7098 96.6337 93.8429 96.7674C93.9761 96.9011 94.0509 97.0824 94.0509 97.2715C94.048 97.4588 93.9719 97.6372 93.8391 97.7686C93.7063 97.8999 93.5273 97.9735 93.3409 97.9735C93.1544 97.9735 92.9755 97.8999 92.8427 97.7686C92.7098 97.6372 92.6337 97.4588 92.6309 97.2715Z" fill="url(#paint51_linear)"/>
<path d="M123.379 97.2715C123.379 97.1779 123.397 97.0852 123.434 96.9987C123.468 96.9122 123.521 96.8336 123.586 96.7674C123.653 96.7012 123.731 96.6486 123.817 96.6129C123.903 96.577 123.996 96.5586 124.089 96.5586C124.182 96.5586 124.275 96.577 124.361 96.6129C124.447 96.6486 124.525 96.7012 124.591 96.7674C124.657 96.8336 124.709 96.9122 124.745 96.9987C124.78 97.0852 124.799 97.1779 124.799 97.2715C124.796 97.4588 124.72 97.6372 124.587 97.7686C124.455 97.8999 124.276 97.9735 124.089 97.9735C123.902 97.9735 123.724 97.8999 123.591 97.7686C123.458 97.6372 123.382 97.4588 123.379 97.2715Z" fill="url(#paint52_linear)"/>
<path d="M127.771 97.2715C127.771 97.1779 127.79 97.0852 127.826 96.9987C127.861 96.9122 127.913 96.8336 127.979 96.7674C128.046 96.7012 128.123 96.6486 128.21 96.6129C128.296 96.577 128.389 96.5586 128.481 96.5586C128.574 96.5586 128.667 96.577 128.753 96.6129C128.84 96.6486 128.917 96.7012 128.984 96.7674C129.05 96.8336 129.102 96.9122 129.138 96.9987C129.173 97.0852 129.192 97.1779 129.192 97.2715C129.188 97.4588 129.113 97.6372 128.98 97.7686C128.847 97.8999 128.668 97.9735 128.481 97.9735C128.295 97.9735 128.117 97.8999 127.983 97.7686C127.85 97.6372 127.775 97.4588 127.771 97.2715Z" fill="url(#paint53_linear)"/>
<path d="M132.158 97.2715C132.158 97.1779 132.177 97.0852 132.212 96.9987C132.248 96.9122 132.3 96.8336 132.366 96.7674C132.432 96.7012 132.51 96.6486 132.596 96.6129C132.683 96.577 132.775 96.5586 132.868 96.5586C132.961 96.5586 133.054 96.577 133.14 96.6129C133.227 96.6486 133.304 96.7012 133.371 96.7674C133.436 96.8336 133.489 96.9122 133.524 96.9987C133.56 97.0852 133.578 97.1779 133.578 97.2715C133.575 97.4588 133.5 97.6372 133.366 97.7686C133.233 97.8999 133.055 97.9735 132.868 97.9735C132.681 97.9735 132.502 97.8999 132.37 97.7686C132.237 97.6372 132.161 97.4588 132.158 97.2715Z" fill="url(#paint54_linear)"/>
<path d="M136.553 97.2715C136.552 97.0933 136.617 96.9213 136.737 96.7894C136.856 96.6574 137.02 96.575 137.197 96.5586C137.317 97.0193 137.416 97.469 137.514 97.9296C137.431 97.9462 137.346 97.9462 137.263 97.9296C137.076 97.9296 136.897 97.856 136.765 97.7247C136.631 97.5933 136.556 97.4149 136.553 97.2277V97.2715Z" fill="url(#paint55_linear)"/>
<path d="M79.457 101.681C79.457 101.492 79.5317 101.31 79.6649 101.176C79.7981 101.043 79.9787 100.968 80.1669 100.968C80.3553 100.968 80.5359 101.043 80.6691 101.176C80.8022 101.31 80.877 101.492 80.877 101.681C80.8742 101.869 80.7984 102.049 80.6659 102.182C80.5334 102.315 80.3544 102.391 80.1669 102.394C79.9796 102.391 79.8006 102.315 79.6681 102.182C79.5355 102.049 79.4598 101.869 79.457 101.681Z" fill="url(#paint56_linear)"/>
<path d="M83.8516 101.681C83.8516 101.492 83.9264 101.31 84.0595 101.176C84.1926 101.043 84.3733 100.968 84.5616 100.968C84.7499 100.968 84.9305 101.043 85.0636 101.176C85.1968 101.31 85.2716 101.492 85.2716 101.681C85.2688 101.869 85.1931 102.049 85.0604 102.182C84.9279 102.315 84.749 102.391 84.5616 102.394C84.3741 102.391 84.1951 102.315 84.0626 102.182C83.93 102.049 83.8543 101.869 83.8516 101.681Z" fill="url(#paint57_linear)"/>
<path d="M88.2383 101.681C88.2383 101.492 88.313 101.31 88.4462 101.176C88.5793 101.043 88.76 100.968 88.9483 100.968C89.1366 100.968 89.3172 101.043 89.4503 101.176C89.5835 101.31 89.6583 101.492 89.6583 101.681C89.6555 101.869 89.5798 102.049 89.4472 102.182C89.3147 102.315 89.1357 102.391 88.9483 102.394C88.7609 102.391 88.5819 102.315 88.4493 102.182C88.3168 102.049 88.2411 101.869 88.2383 101.681Z" fill="url(#paint58_linear)"/>
<path d="M92.6309 101.681C92.6337 101.492 92.7094 101.313 92.8419 101.18C92.9745 101.047 93.1534 100.971 93.3409 100.968C93.5292 100.968 93.7098 101.043 93.8429 101.176C93.9761 101.31 94.0509 101.492 94.0509 101.681C94.048 101.869 93.9724 102.049 93.8399 102.182C93.7072 102.315 93.5283 102.391 93.3409 102.394C93.1534 102.391 92.9745 102.315 92.8419 102.182C92.7094 102.049 92.6337 101.869 92.6309 101.681Z" fill="url(#paint59_linear)"/>
<path d="M123.379 101.681C123.379 101.492 123.454 101.31 123.586 101.176C123.72 101.043 123.901 100.968 124.089 100.968C124.277 100.968 124.458 101.043 124.591 101.176C124.725 101.31 124.799 101.492 124.799 101.681C124.796 101.869 124.72 102.049 124.588 102.182C124.455 102.315 124.277 102.391 124.089 102.394C123.901 102.391 123.723 102.315 123.59 102.182C123.458 102.049 123.382 101.869 123.379 101.681Z" fill="url(#paint60_linear)"/>
<path d="M127.771 101.681C127.771 101.492 127.847 101.31 127.979 101.176C128.112 101.043 128.294 100.968 128.481 100.968C128.669 100.968 128.851 101.043 128.984 101.176C129.117 101.31 129.192 101.492 129.192 101.681C129.188 101.869 129.113 102.049 128.981 102.182C128.847 102.315 128.669 102.391 128.481 102.394C128.294 102.391 128.116 102.315 127.982 102.182C127.85 102.049 127.775 101.869 127.771 101.681Z" fill="url(#paint61_linear)"/>
<path d="M132.158 101.681C132.158 101.492 132.232 101.31 132.366 101.176C132.499 101.043 132.68 100.968 132.868 100.968C133.056 100.968 133.237 101.043 133.371 101.176C133.503 101.31 133.578 101.492 133.578 101.681C133.575 101.869 133.5 102.049 133.367 102.182C133.234 102.315 133.056 102.391 132.868 102.394C132.68 102.391 132.502 102.315 132.369 102.182C132.237 102.049 132.161 101.869 132.158 101.681Z" fill="url(#paint62_linear)"/>
<path d="M136.553 101.681C136.553 101.492 136.627 101.31 136.76 101.176C136.894 101.043 137.075 100.968 137.263 100.968C137.451 100.968 137.632 101.043 137.765 101.176C137.897 101.31 137.973 101.492 137.973 101.681C137.969 101.869 137.894 102.049 137.762 102.182C137.629 102.315 137.451 102.391 137.263 102.394C137.075 102.391 136.897 102.315 136.764 102.182C136.631 102.049 136.556 101.869 136.553 101.681Z" fill="url(#paint63_linear)"/>
<path fill-rule="evenodd" clip-rule="evenodd" d="M27.2948 32.4479C27.2948 32.6931 27.2224 32.9327 27.0869 33.1365C26.9512 33.3403 26.7584 33.4992 26.5328 33.593C26.3073 33.6868 26.0591 33.7114 25.8197 33.6635C25.5802 33.6157 25.3603 33.4977 25.1877 33.3243C25.015 33.151 24.8975 32.9302 24.8499 32.6898C24.8023 32.4493 24.8267 32.2 24.9201 31.9736C25.0135 31.7471 25.1718 31.5536 25.3747 31.4173C25.5777 31.2812 25.8164 31.2085 26.0605 31.2085C26.3879 31.2085 26.7018 31.3391 26.9333 31.5715C27.1647 31.804 27.2948 32.1192 27.2948 32.4479Z" fill="url(#paint64_linear)"/>
<path fill-rule="evenodd" clip-rule="evenodd" d="M27.2948 40.1254C27.297 40.371 27.2264 40.6118 27.0921 40.817C26.9578 41.0222 26.7659 41.1828 26.5405 41.2783C26.3152 41.3738 26.0666 41.3999 25.8265 41.3533C25.5863 41.3067 25.3654 41.1896 25.1916 41.0167C25.0179 40.8438 24.8993 40.6229 24.8507 40.3823C24.8022 40.1415 24.826 39.8918 24.9191 39.6646C25.0122 39.4376 25.1704 39.2433 25.3736 39.1067C25.5769 38.97 25.8159 38.897 26.0604 38.897C26.386 38.897 26.6982 39.0261 26.9295 39.2561C27.1606 39.4862 27.2919 39.7987 27.2948 40.1254Z" fill="url(#paint65_linear)"/>
<path fill-rule="evenodd" clip-rule="evenodd" d="M34.9096 24.8361C34.9096 25.0812 34.8372 25.3209 34.7015 25.5247C34.5659 25.7285 34.3731 25.8874 34.1476 25.9812C33.922 26.075 33.6738 26.0995 33.4344 26.0517C33.195 26.0039 32.9751 25.8858 32.8024 25.7125C32.6298 25.5392 32.5123 25.3183 32.4646 25.0779C32.417 24.8375 32.4415 24.5883 32.5349 24.3618C32.6283 24.1353 32.7864 23.9418 32.9895 23.8056C33.1924 23.6694 33.4311 23.5967 33.6753 23.5967C34.0026 23.5967 34.3166 23.7273 34.548 23.9597C34.7795 24.1921 34.9096 24.5074 34.9096 24.8361Z" fill="url(#paint66_linear)"/>
<path fill-rule="evenodd" clip-rule="evenodd" d="M34.9101 32.4479C34.9101 32.6931 34.8377 32.9327 34.702 33.1365C34.5664 33.3403 34.3736 33.4992 34.1481 33.593C33.9225 33.6868 33.6743 33.7114 33.4349 33.6635C33.1954 33.6157 32.9756 33.4977 32.8029 33.3243C32.6303 33.151 32.5127 32.9302 32.4651 32.6898C32.4175 32.4493 32.442 32.2 32.5354 31.9736C32.6287 31.7471 32.7869 31.5536 32.99 31.4173C33.1929 31.2812 33.4316 31.2085 33.6757 31.2085C34.0031 31.2085 34.317 31.3391 34.5485 31.5715C34.78 31.804 34.9101 32.1192 34.9101 32.4479Z" fill="url(#paint67_linear)"/>
<path fill-rule="evenodd" clip-rule="evenodd" d="M34.91 40.1254C34.9122 40.371 34.8416 40.6118 34.7074 40.817C34.573 41.0222 34.381 41.1828 34.1556 41.2783C33.9303 41.3738 33.6818 41.3999 33.4417 41.3533C33.2015 41.3067 32.9805 41.1896 32.8068 41.0167C32.6332 40.8438 32.5145 40.6229 32.4659 40.3823C32.4174 40.1415 32.4412 39.8918 32.5343 39.6646C32.6275 39.4376 32.7856 39.2433 32.9888 39.1067C33.1921 38.97 33.4311 38.897 33.6757 38.897C34.0012 38.897 34.3135 39.0261 34.5447 39.2561C34.7759 39.4862 34.9072 39.7987 34.91 40.1254Z" fill="url(#paint68_linear)"/>
<path fill-rule="evenodd" clip-rule="evenodd" d="M34.9105 47.8034C34.9266 47.9752 34.9069 48.1485 34.8524 48.3122C34.798 48.4759 34.7101 48.6264 34.5945 48.7541C34.4788 48.8816 34.3378 48.9836 34.1806 49.0534C34.0234 49.1232 33.8534 49.1593 33.6816 49.1593C33.5097 49.1593 33.3397 49.1232 33.1825 49.0534C33.0253 48.9836 32.8843 48.8816 32.7686 48.7541C32.653 48.6264 32.5651 48.4759 32.5107 48.3122C32.4563 48.1485 32.4366 47.9752 32.4527 47.8034C32.4816 47.4962 32.6235 47.2108 32.8508 47.0032C33.0781 46.7955 33.3743 46.6804 33.6816 46.6804C33.9889 46.6804 34.2851 46.7955 34.5123 47.0032C34.7396 47.2108 34.8815 47.4962 34.9105 47.8034Z" fill="url(#paint69_linear)"/>
<path fill-rule="evenodd" clip-rule="evenodd" d="M42.5244 24.8361C42.5243 25.0817 42.4516 25.3218 42.3155 25.5259C42.1794 25.7299 41.986 25.8888 41.7597 25.9822C41.5336 26.0757 41.2849 26.0996 41.0451 26.0509C40.8054 26.0022 40.5855 25.883 40.4133 25.7086C40.2412 25.5342 40.1244 25.3123 40.0781 25.0712C40.0317 24.83 40.0577 24.5805 40.1528 24.3542C40.2478 24.1279 40.4078 23.9351 40.6122 23.8003C40.8166 23.6654 41.0563 23.5946 41.301 23.5967C41.4625 23.5967 41.6224 23.6289 41.7716 23.6913C41.9207 23.7537 42.0561 23.8452 42.1699 23.9604C42.2836 24.0756 42.3735 24.2124 42.4344 24.3627C42.4952 24.513 42.5258 24.6739 42.5244 24.8361Z" fill="url(#paint70_linear)"/>
<path fill-rule="evenodd" clip-rule="evenodd" d="M42.5253 32.448C42.5252 32.6935 42.4526 32.9336 42.3165 33.1376C42.1804 33.3417 41.9869 33.5006 41.7607 33.594C41.5346 33.6875 41.2859 33.7114 41.0461 33.6627C40.8063 33.614 40.5865 33.4948 40.4143 33.3204C40.2422 33.146 40.1254 32.9241 40.0791 32.6829C40.0326 32.4418 40.0586 32.1923 40.1538 31.966C40.2488 31.7397 40.4087 31.5469 40.6132 31.412C40.8176 31.2772 41.0572 31.2064 41.3019 31.2085C41.4635 31.2085 41.6234 31.2407 41.7726 31.3031C41.9217 31.3655 42.0571 31.457 42.1709 31.5723C42.2846 31.6874 42.3745 31.8242 42.4353 31.9745C42.4962 32.1247 42.5268 32.2857 42.5253 32.448Z" fill="url(#paint71_linear)"/>
<path fill-rule="evenodd" clip-rule="evenodd" d="M42.5252 40.1255C42.5274 40.3715 42.4565 40.6127 42.3217 40.8181C42.1869 41.0237 41.9944 41.1842 41.7684 41.2793C41.5424 41.3745 41.2933 41.4 41.0528 41.3525C40.8124 41.305 40.5915 41.1868 40.4181 41.0128C40.2449 40.8387 40.1271 40.617 40.0798 40.3755C40.0326 40.134 40.0579 39.8839 40.1527 39.657C40.2475 39.4301 40.4073 39.2367 40.612 39.1014C40.8166 38.966 41.0568 38.8948 41.3018 38.897C41.6264 38.897 41.9375 39.0264 42.167 39.2568C42.3963 39.4872 42.5252 39.7997 42.5252 40.1255Z" fill="url(#paint72_linear)"/>
<path fill-rule="evenodd" clip-rule="evenodd" d="M42.5252 47.8037C42.5274 48.0497 42.4565 48.2909 42.3217 48.4963C42.1869 48.7019 41.9944 48.8625 41.7684 48.9576C41.5424 49.0528 41.2933 49.0782 41.0528 49.0307C40.8124 48.9832 40.5915 48.865 40.4181 48.691C40.2449 48.517 40.1271 48.2952 40.0798 48.0538C40.0326 47.8122 40.0579 47.5622 40.1527 47.3352C40.2475 47.1083 40.4073 46.9149 40.612 46.7796C40.8166 46.6442 41.0568 46.5731 41.3018 46.5752C41.6254 46.5781 41.9349 46.7084 42.1638 46.9382C42.3926 47.168 42.5224 47.4788 42.5252 47.8037Z" fill="url(#paint73_linear)"/>
<path fill-rule="evenodd" clip-rule="evenodd" d="M50.1331 32.4482C50.1043 32.7554 49.9623 33.0407 49.7351 33.2483C49.5078 33.4561 49.2115 33.5711 48.9043 33.5711C48.597 33.5711 48.3008 33.4561 48.0735 33.2483C47.8462 33.0407 47.7043 32.7554 47.6754 32.4482C47.6592 32.2763 47.679 32.103 47.7334 31.9394C47.7879 31.7756 47.8757 31.6251 47.9914 31.4975C48.1071 31.3699 48.248 31.2679 48.4053 31.1981C48.5625 31.1284 48.7324 31.0923 48.9043 31.0923C49.0762 31.0923 49.2462 31.1284 49.4033 31.1981C49.5605 31.2679 49.7015 31.3699 49.8172 31.4975C49.9329 31.6251 50.0207 31.7756 50.0751 31.9394C50.1295 32.103 50.1493 32.2763 50.1331 32.4482Z" fill="url(#paint74_linear)"/>
<path fill-rule="evenodd" clip-rule="evenodd" d="M50.1327 40.1255C50.1348 40.3715 50.064 40.6127 49.9292 40.8181C49.7944 41.0237 49.6017 41.1842 49.3758 41.2793C49.1498 41.3745 48.9006 41.4 48.6602 41.3525C48.4198 41.305 48.1988 41.1868 48.0256 41.0128C47.8523 40.8387 47.7345 40.617 47.6873 40.3755C47.64 40.134 47.6653 39.8839 47.7601 39.657C47.8548 39.4301 48.0148 39.2367 48.2195 39.1014C48.424 38.966 48.6641 38.8948 48.9093 38.897C49.2337 38.897 49.5449 39.0264 49.7743 39.2568C50.0038 39.4872 50.1327 39.7997 50.1327 40.1255Z" fill="url(#paint75_linear)"/>
</g>
<path d="M50.7888 48.4492C50.7888 53.038 47.7346 55.1276 42.8945 55.1276H40.6993V59.3749C40.6993 59.5382 40.6671 59.6997 40.6048 59.8505C40.5424 60.0013 40.451 60.1383 40.3358 60.2537C40.2205 60.3692 40.0839 60.4607 39.9333 60.5231C39.7828 60.5856 39.6215 60.6177 39.4585 60.6177H36.2136C36.0524 60.616 35.8932 60.5824 35.745 60.519C35.5969 60.4555 35.4626 60.3635 35.3499 60.2481C35.2372 60.1326 35.1482 59.9962 35.0883 59.8464C35.0282 59.6966 34.9982 59.5363 35.0001 59.3749V42.5766C35.0036 42.2567 35.133 41.951 35.3602 41.7259C35.5873 41.5009 35.894 41.3748 36.2136 41.3748H42.8945C48.2119 41.3748 50.7888 44.2155 50.7888 48.4492ZM45.035 48.4492C45.0453 48.1732 44.9954 47.8983 44.8887 47.6437C44.7821 47.3892 44.6212 47.1608 44.4173 46.9749C44.2135 46.789 43.9717 46.6498 43.7086 46.5672C43.4456 46.4845 43.1678 46.4603 42.8945 46.4963H40.6993V50.4432H42.8671C43.1462 50.4843 43.4308 50.4626 43.7003 50.3796C43.9699 50.2965 44.2175 50.1544 44.4251 49.9633C44.6329 49.7723 44.7955 49.5372 44.901 49.2753C45.0065 49.0133 45.0521 48.7311 45.035 48.4492Z" fill="black"/>
<path d="M72.1252 51.0164C72.1144 52.9784 71.5237 54.8931 70.4273 56.519C69.331 58.1449 67.7783 59.4089 65.9653 60.1517C64.1524 60.8944 62.1604 61.0824 60.2409 60.692C58.3213 60.3017 56.5603 59.3505 55.1801 57.9584C53.7998 56.5663 52.8622 54.7958 52.4856 52.8704C52.1091 50.945 52.3106 48.9512 53.0645 47.1403C53.8184 45.3294 55.091 43.783 56.7216 42.696C58.3522 41.609 60.2678 41.0304 62.2265 41.0331C63.5415 40.9988 64.8496 41.2342 66.0705 41.7247C67.2914 42.2152 68.3994 42.9505 69.3264 43.8853C70.2533 44.8202 70.9798 45.9351 71.4611 47.1613C71.9424 48.3876 72.1684 49.6995 72.1252 51.0164ZM66.4397 51.0164C66.3918 50.194 66.1046 49.4035 65.6135 48.7426C65.1223 48.0817 64.4487 47.5792 63.676 47.2972C62.9032 47.0152 62.065 46.9659 61.2645 47.1553C60.4641 47.345 59.7365 47.765 59.1715 48.3638C58.6067 48.9627 58.229 49.7141 58.0854 50.5252C57.9417 51.3364 58.0383 52.172 58.3632 52.929C58.688 53.6858 59.2268 54.3309 59.9134 54.7847C60.5999 55.2385 61.404 55.481 62.2265 55.4823C62.8063 55.5021 63.3836 55.3982 63.9204 55.1774C64.4569 54.9566 64.9406 54.6239 65.3391 54.2016C65.7375 53.7792 66.0417 53.2767 66.2314 52.7276C66.4212 52.1785 66.4922 51.5952 66.4397 51.0164Z" fill="black"/>
<path d="M75.6827 41.3746H78.9414C79.1007 41.3727 79.259 41.4025 79.407 41.4619C79.555 41.5214 79.6896 41.6093 79.8036 41.7209C79.9176 41.8325 80.0084 41.9655 80.0711 42.1124C80.1336 42.2591 80.1668 42.4169 80.1686 42.5765V59.3747C80.1703 59.5373 80.1401 59.6987 80.0793 59.8494C80.0184 60 79.9282 60.1372 79.8141 60.2528C79.6999 60.3683 79.5641 60.4601 79.4142 60.5228C79.2646 60.5853 79.1038 60.6176 78.9414 60.6176H75.6827C75.3597 60.6104 75.0526 60.4758 74.8279 60.2431C74.6034 60.0106 74.4793 59.6984 74.483 59.3747V42.5765C74.4866 42.2587 74.6141 41.9552 74.8383 41.7305C75.0626 41.5059 75.3657 41.3782 75.6827 41.3746Z" fill="black"/>
<path d="M96.1054 41.3748H99.3368C99.6538 41.3783 99.957 41.5061 100.181 41.7308C100.406 41.9553 100.533 42.259 100.537 42.5766V59.3749C100.54 59.6986 100.416 60.0107 100.192 60.2434C99.9669 60.4761 99.6599 60.6105 99.3368 60.6178H96.2554C96.0046 60.6273 95.756 60.5673 95.537 60.4443C95.3182 60.3215 95.1373 60.1405 95.0146 59.9213L88.9064 50.3611V59.3749C88.9064 59.6998 88.7795 60.012 88.5526 60.2442C88.3259 60.4765 88.0172 60.6105 87.6929 60.6178H84.4478C84.1188 60.6178 83.8033 60.4868 83.5706 60.2537C83.3378 60.0207 83.207 59.7046 83.207 59.3749V42.5766C83.2089 42.4158 83.2424 42.257 83.3059 42.1093C83.3694 41.9616 83.4615 41.8279 83.5769 41.7162C83.6923 41.6044 83.8286 41.5167 83.9782 41.458C84.1276 41.3994 84.2873 41.3711 84.4478 41.3748H87.5019C87.7476 41.3748 87.9891 41.4375 88.2039 41.5569C88.4185 41.6764 88.5994 41.8487 88.7291 42.0576L94.8782 51.6176V42.5766C94.88 42.417 94.9132 42.2592 94.9757 42.1125C95.0384 41.9657 95.1293 41.8327 95.2433 41.7211C95.3572 41.6095 95.492 41.5215 95.6398 41.4621C95.7878 41.4026 95.9461 41.373 96.1054 41.3748Z" fill="black"/>
<path d="M117.473 42.5769V45.3083C117.473 45.6283 117.348 45.9354 117.123 46.163C116.898 46.3905 116.593 46.5202 116.274 46.5238H112.961V59.3751C112.964 59.6988 112.84 60.0108 112.615 60.2435C112.391 60.4763 112.084 60.6109 111.761 60.618H108.502C108.34 60.618 108.179 60.5857 108.029 60.5231C107.879 60.4605 107.743 60.3688 107.629 60.2532C107.515 60.1376 107.425 60.0004 107.364 59.8497C107.304 59.6991 107.273 59.5378 107.275 59.3751V46.4964H103.989C103.668 46.493 103.361 46.3637 103.135 46.1365C102.908 45.9094 102.779 45.6022 102.775 45.2809V42.5495C102.782 42.2306 102.913 41.927 103.14 41.7028C103.366 41.4784 103.67 41.3511 103.989 41.3477H116.26C116.42 41.3477 116.579 41.3795 116.728 41.4415C116.876 41.5034 117.01 41.5942 117.123 41.7085C117.236 41.8229 117.325 41.9585 117.385 42.1075C117.445 42.2565 117.475 42.4161 117.473 42.5769Z" fill="black"/>
<path d="M133.995 54.7723C133.995 58.1047 131.105 61 126.428 61C123.265 61 119.829 59.9211 118.616 56.9029C118.552 56.7754 118.517 56.6356 118.514 56.4932C118.511 56.3508 118.538 56.2093 118.596 56.0789C118.653 55.9485 118.738 55.8325 118.845 55.7388C118.952 55.6451 119.079 55.5764 119.216 55.5372L122.297 54.5811C122.507 54.5189 122.732 54.528 122.937 54.607C123.142 54.6861 123.315 54.8306 123.429 55.0181C123.749 55.4291 124.165 55.7547 124.641 55.9667C125.116 56.1786 125.636 56.2704 126.156 56.2337C127.642 56.2337 128.269 55.5372 128.269 54.8679C128.269 53.7072 126.837 53.5978 124.915 53.1335C121.179 52.2185 119.052 50.7025 119.052 47.179C119.052 43.6554 122.133 41.0196 126.374 41.0196C127.785 40.9131 129.195 41.2422 130.413 41.9625C131.632 42.6827 132.602 43.7598 133.191 45.0485C133.246 45.1831 133.272 45.3281 133.266 45.4736C133.26 45.619 133.222 45.7616 133.156 45.8913C133.09 46.021 132.997 46.1348 132.883 46.225C132.769 46.3153 132.637 46.3798 132.496 46.4142L129.442 47.1516C129.248 47.2004 129.045 47.1901 128.858 47.1218C128.671 47.0537 128.508 46.9309 128.392 46.7692C128.183 46.4647 127.898 46.2209 127.565 46.0625C127.233 45.9042 126.864 45.8371 126.496 45.8679C125.365 45.8679 124.574 46.3322 124.574 47.2336C124.574 48.3261 126.251 48.4628 127.737 48.8862C132.4 50.1425 133.995 51.7132 133.995 54.7723Z" fill="black"/>
<defs>
<linearGradient id="paint0_linear" x1="83.9902" y1="0" x2="83.9902" y2="101.931" gradientUnits="userSpaceOnUse">
<stop stop-color="#6FD74A"/>
<stop offset="1" stop-color="#24A240"/>
</linearGradient>
<linearGradient id="paint1_linear" x1="83.9902" y1="0" x2="83.9902" y2="101.931" gradientUnits="userSpaceOnUse">
<stop stop-color="#6FD74A"/>
<stop offset="1" stop-color="#24A240"/>
</linearGradient>
<linearGradient id="paint2_linear" x1="104.971" y1="4.59598" x2="133.907" y2="4.59598" gradientUnits="userSpaceOnUse">
<stop offset="0.05" stop-color="#7DB828"/>
<stop offset="0.41" stop-color="#EFE300" stop-opacity="0.34"/>
<stop offset="0.68" stop-color="#EFE300" stop-opacity="0.34"/>
<stop offset="1" stop-color="#BAC32F"/>
</linearGradient>
<linearGradient id="paint3_linear" x1="7.96307" y1="65.8133" x2="7.96307" y2="36.7583" gradientUnits="userSpaceOnUse">
<stop offset="0.05" stop-color="#1EA723"/>
<stop offset="0.41" stop-color="#EFE300" stop-opacity="0.34"/>
<stop offset="0.588542" stop-color="#B1EF00" stop-opacity="0.34"/>
<stop offset="1" stop-color="#36B477"/>
</linearGradient>
<linearGradient id="paint4_linear" x1="158.273" y1="53.2875" x2="161.168" y2="53.2875" gradientUnits="userSpaceOnUse">
<stop offset="0.05" stop-color="#7DB828"/>
<stop offset="1" stop-color="#EFE300" stop-opacity="0.34"/>
</linearGradient>
<linearGradient id="paint5_linear" x1="-973.746" y1="-2977.83" x2="-966.133" y2="-2977.83" gradientUnits="userSpaceOnUse">
<stop offset="0.05" stop-color="#7DB828"/>
<stop offset="1" stop-color="#EFE300" stop-opacity="0.34"/>
</linearGradient>
<linearGradient id="paint6_linear" x1="-519.278" y1="-6.93486" x2="-517.444" y2="-6.93486" gradientUnits="userSpaceOnUse">
<stop offset="0.05" stop-color="#7DB828"/>
<stop offset="0.41" stop-color="#EFE300" stop-opacity="0.34"/>
<stop offset="0.68" stop-color="#EFE300" stop-opacity="0.34"/>
<stop offset="1" stop-color="#BAC32F"/>
</linearGradient>
<linearGradient id="paint7_linear" x1="-503.792" y1="-46.7828" x2="-501.974" y2="-46.7828" gradientUnits="userSpaceOnUse">
<stop offset="0.05" stop-color="#7DB828"/>
<stop offset="0.41" stop-color="#EFE300" stop-opacity="0.34"/>
<stop offset="0.68" stop-color="#EFE300" stop-opacity="0.34"/>
<stop offset="1" stop-color="#BAC32F"/>
</linearGradient>
<linearGradient id="paint8_linear" x1="-493.742" y1="-46.7828" x2="-491.925" y2="-46.7828" gradientUnits="userSpaceOnUse">
<stop offset="0.05" stop-color="#7DB828"/>
<stop offset="0.41" stop-color="#EFE300" stop-opacity="0.34"/>
<stop offset="0.68" stop-color="#EFE300" stop-opacity="0.34"/>
<stop offset="1" stop-color="#BAC32F"/>
</linearGradient>
<linearGradient id="paint9_linear" x1="-483.728" y1="-6.93508" x2="-481.911" y2="-6.93508" gradientUnits="userSpaceOnUse">
<stop offset="0.05" stop-color="#7DB828"/>
<stop offset="0.41" stop-color="#EFE300" stop-opacity="0.34"/>
<stop offset="0.68" stop-color="#EFE300" stop-opacity="0.34"/>
<stop offset="1" stop-color="#BAC32F"/>
</linearGradient>
<linearGradient id="paint10_linear" x1="-538.836" y1="-36.5981" x2="-536.99" y2="-36.5981" gradientUnits="userSpaceOnUse">
<stop offset="0.05" stop-color="#7DB828"/>
<stop offset="0.41" stop-color="#EFE300" stop-opacity="0.34"/>
<stop offset="0.68" stop-color="#EFE300" stop-opacity="0.34"/>
<stop offset="1" stop-color="#BAC32F"/>
</linearGradient>
<linearGradient id="paint11_linear" x1="-523.91" y1="-36.5981" x2="-522.092" y2="-36.5981" gradientUnits="userSpaceOnUse">
<stop offset="0.05" stop-color="#7DB828"/>
<stop offset="0.41" stop-color="#EFE300" stop-opacity="0.34"/>
<stop offset="0.68" stop-color="#EFE300" stop-opacity="0.34"/>
<stop offset="1" stop-color="#BAC32F"/>
</linearGradient>
<linearGradient id="paint12_linear" x1="-513.85" y1="-36.5981" x2="-512.033" y2="-36.5981" gradientUnits="userSpaceOnUse">
<stop offset="0.05" stop-color="#7DB828"/>
<stop offset="0.41" stop-color="#EFE300" stop-opacity="0.34"/>
<stop offset="0.68" stop-color="#EFE300" stop-opacity="0.34"/>
<stop offset="1" stop-color="#BAC32F"/>
</linearGradient>
<linearGradient id="paint13_linear" x1="-503.791" y1="-36.5981" x2="-501.973" y2="-36.5981" gradientUnits="userSpaceOnUse">
<stop offset="0.05" stop-color="#7DB828"/>
<stop offset="0.41" stop-color="#EFE300" stop-opacity="0.34"/>
<stop offset="0.68" stop-color="#EFE300" stop-opacity="0.34"/>
<stop offset="1" stop-color="#BAC32F"/>
</linearGradient>
<linearGradient id="paint14_linear" x1="-493.743" y1="-36.5981" x2="-491.925" y2="-36.5981" gradientUnits="userSpaceOnUse">
<stop offset="0.05" stop-color="#7DB828"/>
<stop offset="0.41" stop-color="#EFE300" stop-opacity="0.34"/>
<stop offset="0.68" stop-color="#EFE300" stop-opacity="0.34"/>
<stop offset="1" stop-color="#BAC32F"/>
</linearGradient>
<linearGradient id="paint15_linear" x1="-488.313" y1="-36.5981" x2="-486.466" y2="-36.5981" gradientUnits="userSpaceOnUse">
<stop offset="0.05" stop-color="#7DB828"/>
<stop offset="0.41" stop-color="#EFE300" stop-opacity="0.34"/>
<stop offset="0.68" stop-color="#EFE300" stop-opacity="0.34"/>
<stop offset="1" stop-color="#BAC32F"/>
</linearGradient>
<linearGradient id="paint16_linear" x1="-478.206" y1="-36.5981" x2="-476.36" y2="-36.5981" gradientUnits="userSpaceOnUse">
<stop offset="0.05" stop-color="#7DB828"/>
<stop offset="0.41" stop-color="#EFE300" stop-opacity="0.34"/>
<stop offset="0.68" stop-color="#EFE300" stop-opacity="0.34"/>
<stop offset="1" stop-color="#BAC32F"/>
</linearGradient>
<linearGradient id="paint17_linear" x1="-468.128" y1="-36.5981" x2="-466.282" y2="-36.5981" gradientUnits="userSpaceOnUse">
<stop offset="0.05" stop-color="#7DB828"/>
<stop offset="0.41" stop-color="#EFE300" stop-opacity="0.34"/>
<stop offset="0.68" stop-color="#EFE300" stop-opacity="0.34"/>
<stop offset="1" stop-color="#BAC32F"/>
</linearGradient>
<linearGradient id="paint18_linear" x1="-548.933" y1="-25.6233" x2="-547.087" y2="-25.6233" gradientUnits="userSpaceOnUse">
<stop offset="0.05" stop-color="#7DB828"/>
<stop offset="0.41" stop-color="#EFE300" stop-opacity="0.34"/>
<stop offset="0.68" stop-color="#EFE300" stop-opacity="0.34"/>
<stop offset="1" stop-color="#BAC32F"/>
</linearGradient>
<linearGradient id="paint19_linear" x1="-538.836" y1="-25.6233" x2="-536.99" y2="-25.6233" gradientUnits="userSpaceOnUse">
<stop offset="0.05" stop-color="#7DB828"/>
<stop offset="0.41" stop-color="#EFE300" stop-opacity="0.34"/>
<stop offset="0.68" stop-color="#EFE300" stop-opacity="0.34"/>
<stop offset="1" stop-color="#BAC32F"/>
</linearGradient>
<linearGradient id="paint20_linear" x1="-523.91" y1="-25.6233" x2="-522.092" y2="-25.6233" gradientUnits="userSpaceOnUse">
<stop offset="0.05" stop-color="#7DB828"/>
<stop offset="0.41" stop-color="#EFE300" stop-opacity="0.34"/>
<stop offset="0.68" stop-color="#EFE300" stop-opacity="0.34"/>
<stop offset="1" stop-color="#BAC32F"/>
</linearGradient>
<linearGradient id="paint21_linear" x1="-513.85" y1="-25.6233" x2="-512.033" y2="-25.6233" gradientUnits="userSpaceOnUse">
<stop offset="0.05" stop-color="#7DB828"/>
<stop offset="0.41" stop-color="#EFE300" stop-opacity="0.34"/>
<stop offset="0.68" stop-color="#EFE300" stop-opacity="0.34"/>
<stop offset="1" stop-color="#BAC32F"/>
</linearGradient>
<linearGradient id="paint22_linear" x1="-503.791" y1="-25.6233" x2="-501.973" y2="-25.6233" gradientUnits="userSpaceOnUse">
<stop offset="0.05" stop-color="#7DB828"/>
<stop offset="0.41" stop-color="#EFE300" stop-opacity="0.34"/>
<stop offset="0.68" stop-color="#EFE300" stop-opacity="0.34"/>
<stop offset="1" stop-color="#BAC32F"/>
</linearGradient>
<linearGradient id="paint23_linear" x1="-493.743" y1="-25.6233" x2="-491.925" y2="-25.6233" gradientUnits="userSpaceOnUse">
<stop offset="0.05" stop-color="#7DB828"/>
<stop offset="0.41" stop-color="#EFE300" stop-opacity="0.34"/>
<stop offset="0.68" stop-color="#EFE300" stop-opacity="0.34"/>
<stop offset="1" stop-color="#BAC32F"/>
</linearGradient>
<linearGradient id="paint24_linear" x1="-488.313" y1="-25.6233" x2="-486.466" y2="-25.6233" gradientUnits="userSpaceOnUse">
<stop offset="0.05" stop-color="#7DB828"/>
<stop offset="0.41" stop-color="#EFE300" stop-opacity="0.34"/>
<stop offset="0.68" stop-color="#EFE300" stop-opacity="0.34"/>
<stop offset="1" stop-color="#BAC32F"/>
</linearGradient>
<linearGradient id="paint25_linear" x1="-478.206" y1="-25.6233" x2="-476.36" y2="-25.6233" gradientUnits="userSpaceOnUse">
<stop offset="0.05" stop-color="#7DB828"/>
<stop offset="0.41" stop-color="#EFE300" stop-opacity="0.34"/>
<stop offset="0.68" stop-color="#EFE300" stop-opacity="0.34"/>
<stop offset="1" stop-color="#BAC32F"/>
</linearGradient>
<linearGradient id="paint26_linear" x1="-468.128" y1="-25.6233" x2="-466.282" y2="-25.6233" gradientUnits="userSpaceOnUse">
<stop offset="0.05" stop-color="#7DB828"/>
<stop offset="0.41" stop-color="#EFE300" stop-opacity="0.34"/>
<stop offset="0.68" stop-color="#EFE300" stop-opacity="0.34"/>
<stop offset="1" stop-color="#BAC32F"/>
</linearGradient>
<linearGradient id="paint27_linear" x1="-458.013" y1="-25.6233" x2="-456.167" y2="-25.6233" gradientUnits="userSpaceOnUse">
<stop offset="0.05" stop-color="#7DB828"/>
<stop offset="0.41" stop-color="#EFE300" stop-opacity="0.34"/>
<stop offset="0.68" stop-color="#EFE300" stop-opacity="0.34"/>
<stop offset="1" stop-color="#BAC32F"/>
</linearGradient>
<linearGradient id="paint28_linear" x1="-559.047" y1="-15.5474" x2="-557.201" y2="-15.5474" gradientUnits="userSpaceOnUse">
<stop offset="0.05" stop-color="#7DB828"/>
<stop offset="0.41" stop-color="#EFE300" stop-opacity="0.34"/>
<stop offset="0.68" stop-color="#EFE300" stop-opacity="0.34"/>
<stop offset="1" stop-color="#BAC32F"/>
</linearGradient>
<linearGradient id="paint29_linear" x1="-548.933" y1="-15.5474" x2="-547.087" y2="-15.5474" gradientUnits="userSpaceOnUse">
<stop offset="0.05" stop-color="#7DB828"/>
<stop offset="0.41" stop-color="#EFE300" stop-opacity="0.34"/>
<stop offset="0.68" stop-color="#EFE300" stop-opacity="0.34"/>
<stop offset="1" stop-color="#BAC32F"/>
</linearGradient>
<linearGradient id="paint30_linear" x1="-538.836" y1="-15.5474" x2="-536.99" y2="-15.5474" gradientUnits="userSpaceOnUse">
<stop offset="0.05" stop-color="#7DB828"/>
<stop offset="0.41" stop-color="#EFE300" stop-opacity="0.34"/>
<stop offset="0.68" stop-color="#EFE300" stop-opacity="0.34"/>
<stop offset="1" stop-color="#BAC32F"/>
</linearGradient>
<linearGradient id="paint31_linear" x1="-523.91" y1="-15.5474" x2="-522.092" y2="-15.5474" gradientUnits="userSpaceOnUse">
<stop offset="0.05" stop-color="#7DB828"/>
<stop offset="0.41" stop-color="#EFE300" stop-opacity="0.34"/>
<stop offset="0.68" stop-color="#EFE300" stop-opacity="0.34"/>
<stop offset="1" stop-color="#BAC32F"/>
</linearGradient>
<linearGradient id="paint32_linear" x1="-513.85" y1="-15.5474" x2="-512.033" y2="-15.5474" gradientUnits="userSpaceOnUse">
<stop offset="0.05" stop-color="#7DB828"/>
<stop offset="0.41" stop-color="#EFE300" stop-opacity="0.34"/>
<stop offset="0.68" stop-color="#EFE300" stop-opacity="0.34"/>
<stop offset="1" stop-color="#BAC32F"/>
</linearGradient>
<linearGradient id="paint33_linear" x1="-503.791" y1="-15.5474" x2="-501.973" y2="-15.5474" gradientUnits="userSpaceOnUse">
<stop offset="0.05" stop-color="#7DB828"/>
<stop offset="0.41" stop-color="#EFE300" stop-opacity="0.34"/>
<stop offset="0.68" stop-color="#EFE300" stop-opacity="0.34"/>
<stop offset="1" stop-color="#BAC32F"/>
</linearGradient>
<linearGradient id="paint34_linear" x1="-493.743" y1="-15.5474" x2="-491.925" y2="-15.5474" gradientUnits="userSpaceOnUse">
<stop offset="0.05" stop-color="#7DB828"/>
<stop offset="0.41" stop-color="#EFE300" stop-opacity="0.34"/>
<stop offset="0.68" stop-color="#EFE300" stop-opacity="0.34"/>
<stop offset="1" stop-color="#BAC32F"/>
</linearGradient>
<linearGradient id="paint35_linear" x1="-488.313" y1="-15.5474" x2="-486.466" y2="-15.5474" gradientUnits="userSpaceOnUse">
<stop offset="0.05" stop-color="#7DB828"/>
<stop offset="0.41" stop-color="#EFE300" stop-opacity="0.34"/>
<stop offset="0.68" stop-color="#EFE300" stop-opacity="0.34"/>
<stop offset="1" stop-color="#BAC32F"/>
</linearGradient>
<linearGradient id="paint36_linear" x1="-478.206" y1="-15.5474" x2="-476.36" y2="-15.5474" gradientUnits="userSpaceOnUse">
<stop offset="0.05" stop-color="#7DB828"/>
<stop offset="0.41" stop-color="#EFE300" stop-opacity="0.34"/>
<stop offset="0.68" stop-color="#EFE300" stop-opacity="0.34"/>
<stop offset="1" stop-color="#BAC32F"/>
</linearGradient>
<linearGradient id="paint37_linear" x1="-468.128" y1="-15.5474" x2="-466.282" y2="-15.5474" gradientUnits="userSpaceOnUse">
<stop offset="0.05" stop-color="#7DB828"/>
<stop offset="0.41" stop-color="#EFE300" stop-opacity="0.34"/>
<stop offset="0.68" stop-color="#EFE300" stop-opacity="0.34"/>
<stop offset="1" stop-color="#BAC32F"/>
</linearGradient>
<linearGradient id="paint38_linear" x1="-458.013" y1="-15.5474" x2="-456.167" y2="-15.5474" gradientUnits="userSpaceOnUse">
<stop offset="0.05" stop-color="#7DB828"/>
<stop offset="0.41" stop-color="#EFE300" stop-opacity="0.34"/>
<stop offset="0.68" stop-color="#EFE300" stop-opacity="0.34"/>
<stop offset="1" stop-color="#BAC32F"/>
</linearGradient>
<linearGradient id="paint39_linear" x1="-447.918" y1="-15.5474" x2="-446.072" y2="-15.5474" gradientUnits="userSpaceOnUse">
<stop offset="0.05" stop-color="#7DB828"/>
<stop offset="0.41" stop-color="#EFE300" stop-opacity="0.34"/>
<stop offset="0.68" stop-color="#EFE300" stop-opacity="0.34"/>
<stop offset="1" stop-color="#BAC32F"/>
</linearGradient>
<linearGradient id="paint40_linear" x1="-559.047" y1="-5.46985" x2="-557.201" y2="-5.46985" gradientUnits="userSpaceOnUse">
<stop offset="0.05" stop-color="#7DB828"/>
<stop offset="0.41" stop-color="#EFE300" stop-opacity="0.34"/>
<stop offset="0.68" stop-color="#EFE300" stop-opacity="0.34"/>
<stop offset="1" stop-color="#BAC32F"/>
</linearGradient>
<linearGradient id="paint41_linear" x1="-548.933" y1="-5.46985" x2="-547.087" y2="-5.46985" gradientUnits="userSpaceOnUse">
<stop offset="0.05" stop-color="#7DB828"/>
<stop offset="0.41" stop-color="#EFE300" stop-opacity="0.34"/>
<stop offset="0.68" stop-color="#EFE300" stop-opacity="0.34"/>
<stop offset="1" stop-color="#BAC32F"/>
</linearGradient>
<linearGradient id="paint42_linear" x1="-538.836" y1="-5.46985" x2="-536.99" y2="-5.46985" gradientUnits="userSpaceOnUse">
<stop offset="0.05" stop-color="#7DB828"/>
<stop offset="0.41" stop-color="#EFE300" stop-opacity="0.34"/>
<stop offset="0.68" stop-color="#EFE300" stop-opacity="0.34"/>
<stop offset="1" stop-color="#BAC32F"/>
</linearGradient>
<linearGradient id="paint43_linear" x1="-523.91" y1="-5.46985" x2="-522.092" y2="-5.46985" gradientUnits="userSpaceOnUse">
<stop offset="0.05" stop-color="#7DB828"/>
<stop offset="0.41" stop-color="#EFE300" stop-opacity="0.34"/>
<stop offset="0.68" stop-color="#EFE300" stop-opacity="0.34"/>
<stop offset="1" stop-color="#BAC32F"/>
</linearGradient>
<linearGradient id="paint44_linear" x1="-478.206" y1="-5.46985" x2="-476.36" y2="-5.46985" gradientUnits="userSpaceOnUse">
<stop offset="0.05" stop-color="#7DB828"/>
<stop offset="0.41" stop-color="#EFE300" stop-opacity="0.34"/>
<stop offset="0.68" stop-color="#EFE300" stop-opacity="0.34"/>
<stop offset="1" stop-color="#BAC32F"/>
</linearGradient>
<linearGradient id="paint45_linear" x1="-468.128" y1="-5.46985" x2="-466.282" y2="-5.46985" gradientUnits="userSpaceOnUse">
<stop offset="0.05" stop-color="#7DB828"/>
<stop offset="0.41" stop-color="#EFE300" stop-opacity="0.34"/>
<stop offset="0.68" stop-color="#EFE300" stop-opacity="0.34"/>
<stop offset="1" stop-color="#BAC32F"/>
</linearGradient>
<linearGradient id="paint46_linear" x1="-458.013" y1="-5.46985" x2="-456.167" y2="-5.46985" gradientUnits="userSpaceOnUse">
<stop offset="0.05" stop-color="#7DB828"/>
<stop offset="0.41" stop-color="#EFE300" stop-opacity="0.34"/>
<stop offset="0.68" stop-color="#EFE300" stop-opacity="0.34"/>
<stop offset="1" stop-color="#BAC32F"/>
</linearGradient>
<linearGradient id="paint47_linear" x1="-447.918" y1="-5.46985" x2="-446.072" y2="-5.46985" gradientUnits="userSpaceOnUse">
<stop offset="0.05" stop-color="#7DB828"/>
<stop offset="0.41" stop-color="#EFE300" stop-opacity="0.34"/>
<stop offset="0.68" stop-color="#EFE300" stop-opacity="0.34"/>
<stop offset="1" stop-color="#BAC32F"/>
</linearGradient>
<linearGradient id="paint48_linear" x1="-363.694" y1="3.8884" x2="-362.828" y2="3.8884" gradientUnits="userSpaceOnUse">
<stop offset="0.05" stop-color="#7DB828"/>
<stop offset="0.41" stop-color="#EFE300" stop-opacity="0.34"/>
<stop offset="0.68" stop-color="#EFE300" stop-opacity="0.34"/>
<stop offset="1" stop-color="#BAC32F"/>
</linearGradient>
<linearGradient id="paint49_linear" x1="-559.047" y1="4.66012" x2="-557.201" y2="4.66012" gradientUnits="userSpaceOnUse">
<stop offset="0.05" stop-color="#7DB828"/>
<stop offset="0.41" stop-color="#EFE300" stop-opacity="0.34"/>
<stop offset="0.68" stop-color="#EFE300" stop-opacity="0.34"/>
<stop offset="1" stop-color="#BAC32F"/>
</linearGradient>
<linearGradient id="paint50_linear" x1="-548.933" y1="4.66012" x2="-547.087" y2="4.66012" gradientUnits="userSpaceOnUse">
<stop offset="0.05" stop-color="#7DB828"/>
<stop offset="0.41" stop-color="#EFE300" stop-opacity="0.34"/>
<stop offset="0.68" stop-color="#EFE300" stop-opacity="0.34"/>
<stop offset="1" stop-color="#BAC32F"/>
</linearGradient>
<linearGradient id="paint51_linear" x1="-538.836" y1="4.66012" x2="-536.99" y2="4.66012" gradientUnits="userSpaceOnUse">
<stop offset="0.05" stop-color="#7DB828"/>
<stop offset="0.41" stop-color="#EFE300" stop-opacity="0.34"/>
<stop offset="0.68" stop-color="#EFE300" stop-opacity="0.34"/>
<stop offset="1" stop-color="#BAC32F"/>
</linearGradient>
<linearGradient id="paint52_linear" x1="-468.128" y1="4.66012" x2="-466.282" y2="4.66012" gradientUnits="userSpaceOnUse">
<stop offset="0.05" stop-color="#7DB828"/>
<stop offset="0.41" stop-color="#EFE300" stop-opacity="0.34"/>
<stop offset="0.68" stop-color="#EFE300" stop-opacity="0.34"/>
<stop offset="1" stop-color="#BAC32F"/>
</linearGradient>
<linearGradient id="paint53_linear" x1="-458.013" y1="4.66012" x2="-456.167" y2="4.66012" gradientUnits="userSpaceOnUse">
<stop offset="0.05" stop-color="#7DB828"/>
<stop offset="0.41" stop-color="#EFE300" stop-opacity="0.34"/>
<stop offset="0.68" stop-color="#EFE300" stop-opacity="0.34"/>
<stop offset="1" stop-color="#BAC32F"/>
</linearGradient>
<linearGradient id="paint54_linear" x1="-447.918" y1="4.66012" x2="-446.072" y2="4.66012" gradientUnits="userSpaceOnUse">
<stop offset="0.05" stop-color="#7DB828"/>
<stop offset="0.41" stop-color="#EFE300" stop-opacity="0.34"/>
<stop offset="0.68" stop-color="#EFE300" stop-opacity="0.34"/>
<stop offset="1" stop-color="#BAC32F"/>
</linearGradient>
<linearGradient id="paint55_linear" x1="-252.26" y1="6.70369" x2="-251.413" y2="6.70369" gradientUnits="userSpaceOnUse">
<stop offset="0.05" stop-color="#7DB828"/>
<stop offset="0.41" stop-color="#EFE300" stop-opacity="0.34"/>
<stop offset="0.68" stop-color="#EFE300" stop-opacity="0.34"/>
<stop offset="1" stop-color="#BAC32F"/>
</linearGradient>
<linearGradient id="paint56_linear" x1="-569.135" y1="14.0889" x2="-567.289" y2="14.0889" gradientUnits="userSpaceOnUse">
<stop offset="0.05" stop-color="#7DB828"/>
<stop offset="0.41" stop-color="#EFE300" stop-opacity="0.34"/>
<stop offset="0.68" stop-color="#EFE300" stop-opacity="0.34"/>
<stop offset="1" stop-color="#BAC32F"/>
</linearGradient>
<linearGradient id="paint57_linear" x1="-559.047" y1="14.0889" x2="-557.201" y2="14.0889" gradientUnits="userSpaceOnUse">
<stop offset="0.05" stop-color="#7DB828"/>
<stop offset="0.41" stop-color="#EFE300" stop-opacity="0.34"/>
<stop offset="0.68" stop-color="#EFE300" stop-opacity="0.34"/>
<stop offset="1" stop-color="#BAC32F"/>
</linearGradient>
<linearGradient id="paint58_linear" x1="-548.933" y1="14.0889" x2="-547.087" y2="14.0889" gradientUnits="userSpaceOnUse">
<stop offset="0.05" stop-color="#7DB828"/>
<stop offset="0.41" stop-color="#EFE300" stop-opacity="0.34"/>
<stop offset="0.68" stop-color="#EFE300" stop-opacity="0.34"/>
<stop offset="1" stop-color="#BAC32F"/>
</linearGradient>
<linearGradient id="paint59_linear" x1="-538.836" y1="14.0889" x2="-536.99" y2="14.0889" gradientUnits="userSpaceOnUse">
<stop offset="0.05" stop-color="#7DB828"/>
<stop offset="0.41" stop-color="#EFE300" stop-opacity="0.34"/>
<stop offset="0.68" stop-color="#EFE300" stop-opacity="0.34"/>
<stop offset="1" stop-color="#BAC32F"/>
</linearGradient>
<linearGradient id="paint60_linear" x1="-468.128" y1="14.0889" x2="-466.282" y2="14.0889" gradientUnits="userSpaceOnUse">
<stop offset="0.05" stop-color="#7DB828"/>
<stop offset="0.41" stop-color="#EFE300" stop-opacity="0.34"/>
<stop offset="0.68" stop-color="#EFE300" stop-opacity="0.34"/>
<stop offset="1" stop-color="#BAC32F"/>
</linearGradient>
<linearGradient id="paint61_linear" x1="-458.013" y1="14.0889" x2="-456.167" y2="14.0889" gradientUnits="userSpaceOnUse">
<stop offset="0.05" stop-color="#7DB828"/>
<stop offset="0.41" stop-color="#EFE300" stop-opacity="0.34"/>
<stop offset="0.68" stop-color="#EFE300" stop-opacity="0.34"/>
<stop offset="1" stop-color="#BAC32F"/>
</linearGradient>
<linearGradient id="paint62_linear" x1="-447.918" y1="14.0889" x2="-446.072" y2="14.0889" gradientUnits="userSpaceOnUse">
<stop offset="0.05" stop-color="#7DB828"/>
<stop offset="0.41" stop-color="#EFE300" stop-opacity="0.34"/>
<stop offset="0.68" stop-color="#EFE300" stop-opacity="0.34"/>
<stop offset="1" stop-color="#BAC32F"/>
</linearGradient>
<linearGradient id="paint63_linear" x1="-437.828" y1="14.0889" x2="-435.982" y2="14.0889" gradientUnits="userSpaceOnUse">
<stop offset="0.05" stop-color="#7DB828"/>
<stop offset="0.41" stop-color="#EFE300" stop-opacity="0.34"/>
<stop offset="0.68" stop-color="#EFE300" stop-opacity="0.34"/>
<stop offset="1" stop-color="#BAC32F"/>
</linearGradient>
<linearGradient id="paint64_linear" x1="24.8371" y1="32.4808" x2="27.2948" y2="32.4808" gradientUnits="userSpaceOnUse">
<stop offset="0.05" stop-color="#7DB828"/>
<stop offset="0.41" stop-color="#EFE300" stop-opacity="0.34"/>
<stop offset="0.68" stop-color="#EFE300" stop-opacity="0.34"/>
<stop offset="1" stop-color="#BAC32F"/>
</linearGradient>
<linearGradient id="paint65_linear" x1="77.0384" y1="152.923" x2="82.5929" y2="152.923" gradientUnits="userSpaceOnUse">
<stop offset="0.05" stop-color="#7DB828"/>
<stop offset="0.41" stop-color="#EFE300" stop-opacity="0.34"/>
<stop offset="0.68" stop-color="#EFE300" stop-opacity="0.34"/>
<stop offset="1" stop-color="#BAC32F"/>
</linearGradient>
<linearGradient id="paint66_linear" x1="101.86" y1="103.068" x2="107.414" y2="103.068" gradientUnits="userSpaceOnUse">
<stop offset="0.05" stop-color="#7DB828"/>
<stop offset="0.41" stop-color="#EFE300" stop-opacity="0.34"/>
<stop offset="0.68" stop-color="#EFE300" stop-opacity="0.34"/>
<stop offset="1" stop-color="#BAC32F"/>
</linearGradient>
<linearGradient id="paint67_linear" x1="101.86" y1="127.958" x2="107.415" y2="127.958" gradientUnits="userSpaceOnUse">
<stop offset="0.05" stop-color="#7DB828"/>
<stop offset="0.41" stop-color="#EFE300" stop-opacity="0.34"/>
<stop offset="0.68" stop-color="#EFE300" stop-opacity="0.34"/>
<stop offset="1" stop-color="#BAC32F"/>
</linearGradient>
<linearGradient id="paint68_linear" x1="101.86" y1="152.923" x2="107.415" y2="152.923" gradientUnits="userSpaceOnUse">
<stop offset="0.05" stop-color="#7DB828"/>
<stop offset="0.41" stop-color="#EFE300" stop-opacity="0.34"/>
<stop offset="0.68" stop-color="#EFE300" stop-opacity="0.34"/>
<stop offset="1" stop-color="#BAC32F"/>
</linearGradient>
<linearGradient id="paint69_linear" x1="101.866" y1="177.984" x2="107.421" y2="177.984" gradientUnits="userSpaceOnUse">
<stop offset="0.05" stop-color="#7DB828"/>
<stop offset="0.41" stop-color="#EFE300" stop-opacity="0.34"/>
<stop offset="0.68" stop-color="#EFE300" stop-opacity="0.34"/>
<stop offset="1" stop-color="#BAC32F"/>
</linearGradient>
<linearGradient id="paint70_linear" x1="126.683" y1="103.068" x2="132.237" y2="103.068" gradientUnits="userSpaceOnUse">
<stop offset="0.05" stop-color="#7DB828"/>
<stop offset="0.41" stop-color="#EFE300" stop-opacity="0.34"/>
<stop offset="0.68" stop-color="#EFE300" stop-opacity="0.34"/>
<stop offset="1" stop-color="#BAC32F"/>
</linearGradient>
<linearGradient id="paint71_linear" x1="126.684" y1="127.958" x2="132.238" y2="127.958" gradientUnits="userSpaceOnUse">
<stop offset="0.05" stop-color="#7DB828"/>
<stop offset="0.41" stop-color="#EFE300" stop-opacity="0.34"/>
<stop offset="0.68" stop-color="#EFE300" stop-opacity="0.34"/>
<stop offset="1" stop-color="#BAC32F"/>
</linearGradient>
<linearGradient id="paint72_linear" x1="126.681" y1="152.923" x2="132.236" y2="152.923" gradientUnits="userSpaceOnUse">
<stop offset="0.05" stop-color="#7DB828"/>
<stop offset="0.41" stop-color="#EFE300" stop-opacity="0.34"/>
<stop offset="0.68" stop-color="#EFE300" stop-opacity="0.34"/>
<stop offset="1" stop-color="#BAC32F"/>
</linearGradient>
<linearGradient id="paint73_linear" x1="126.681" y1="177.879" x2="132.236" y2="177.879" gradientUnits="userSpaceOnUse">
<stop offset="0.05" stop-color="#7DB828"/>
<stop offset="0.41" stop-color="#EFE300" stop-opacity="0.34"/>
<stop offset="0.68" stop-color="#EFE300" stop-opacity="0.34"/>
<stop offset="1" stop-color="#BAC32F"/>
</linearGradient>
<linearGradient id="paint74_linear" x1="151.502" y1="127.841" x2="157.057" y2="127.841" gradientUnits="userSpaceOnUse">
<stop offset="0.05" stop-color="#7DB828"/>
<stop offset="0.41" stop-color="#EFE300" stop-opacity="0.34"/>
<stop offset="0.68" stop-color="#EFE300" stop-opacity="0.34"/>
<stop offset="1" stop-color="#BAC32F"/>
</linearGradient>
<linearGradient id="paint75_linear" x1="151.496" y1="152.923" x2="157.051" y2="152.923" gradientUnits="userSpaceOnUse">
<stop offset="0.05" stop-color="#7DB828"/>
<stop offset="0.41" stop-color="#EFE300" stop-opacity="0.34"/>
<stop offset="0.68" stop-color="#EFE300" stop-opacity="0.34"/>
<stop offset="1" stop-color="#BAC32F"/>
</linearGradient>
</defs>
</svg>
