<svg width="104" height="87" viewBox="0 0 104 87" fill="none" xmlns="http://www.w3.org/2000/svg">
<rect width="104" height="86" rx="24" fill="url(#paint0_linear_17_3517)"/>
<g opacity="0.5">
<mask id="mask0_17_3517" style="mask-type:alpha" maskUnits="userSpaceOnUse" x="0" y="0" width="104" height="86">
<rect width="104" height="86" rx="24" fill="url(#paint1_linear_17_3517)"/>
</mask>
<g mask="url(#mask0_17_3517)">
<path d="M27.3643 18.5868V19.9845C26.9997 19.9495 26.6496 19.8238 26.3458 19.619C26.0421 19.4141 25.7945 19.1365 25.6255 18.8114C25.301 18.3621 25.0763 18.0626 24.6104 18.0626C24.1445 18.0626 23.9115 18.3621 23.5871 18.8114C23.422 19.1339 23.177 19.4088 22.8755 19.6098C22.574 19.8108 22.2261 19.9312 21.8648 19.9596C21.4988 19.9291 21.1468 19.8053 20.8424 19.5999C20.5379 19.3945 20.2913 19.1144 20.1259 18.7864C19.8098 18.3372 19.5935 18.0376 19.1192 18.0376C18.645 18.0376 18.4287 18.3372 18.1042 18.7864C17.9396 19.1133 17.6943 19.3926 17.3914 19.5979C17.0886 19.8033 16.7382 19.9277 16.3737 19.9596C16.0075 19.9299 15.655 19.8064 15.3505 19.6009C15.0459 19.3954 14.7994 19.1149 14.6347 18.7864C14.3103 18.3372 14.1023 18.0376 13.6198 18.0376C13.1372 18.0376 12.9375 18.3372 12.613 18.7864C12.4484 19.1149 12.2019 19.3954 11.8973 19.6009C11.5927 19.8064 11.2403 19.9299 10.8741 19.9596C10.5096 19.9277 10.1592 19.8033 9.85632 19.5979C9.55347 19.3926 9.30811 19.1133 9.14363 18.7864C8.81915 18.3372 8.61106 18.0376 8.13682 18.0376C7.66258 18.0376 7.43794 18.3372 7.11346 18.7864C6.95505 19.1213 6.70903 19.4071 6.40144 19.6136C6.09385 19.8201 5.73617 19.9397 5.36626 19.9596C5.0016 19.9246 4.65149 19.7989 4.34773 19.594C4.04405 19.3891 3.79645 19.1115 3.62738 18.7864C3.3029 18.3372 3.07826 18.0376 2.60402 18.0376C2.12978 18.0376 1.91346 18.3372 1.58898 18.7864C1.42574 19.1143 1.18072 19.3945 0.877541 19.5999C0.574442 19.8054 0.223423 19.9293 -0.141577 19.9596C-0.507572 19.9291 -0.859592 19.8053 -1.16402 19.5999C-1.46845 19.3945 -1.71514 19.1144 -1.88037 18.7864C-2.20485 18.3372 -2.41294 18.0376 -2.8955 18.0376C-3.37806 18.0376 -3.57765 18.3372 -3.90213 18.7864C-4.0667 19.1133 -4.31206 19.3926 -4.61499 19.5979C-4.91784 19.8033 -5.2682 19.9277 -5.63278 19.9596C-5.99894 19.9299 -6.35138 19.8064 -6.65597 19.6009C-6.96048 19.3954 -7.207 19.1149 -7.37166 18.7864C-7.69614 18.3372 -7.90414 18.0376 -8.3867 18.0376C-8.86926 18.0376 -9.06894 18.3372 -9.39342 18.7864C-9.55807 19.1149 -9.80451 19.3954 -10.1091 19.6009C-10.4137 19.8064 -10.7661 19.9299 -11.1322 19.9596C-11.4968 19.9277 -11.8472 19.8033 -12.15 19.5979C-12.4529 19.3926 -12.6983 19.1133 -12.8629 18.7864C-13.1873 18.3372 -13.4037 18.0376 -13.8779 18.0376C-14.3521 18.0376 -14.5768 18.3372 -14.9013 18.7864C-15.0568 19.1218 -15.3009 19.4083 -15.6074 19.615C-15.9138 19.8217 -16.271 19.9409 -16.6401 19.9596V18.5868C-16.116 18.5868 -15.9413 18.2872 -15.6168 17.838C-15.4576 17.5098 -15.2175 17.2276 -14.9191 17.018C-14.6207 16.8084 -14.2738 16.6783 -13.9112 16.6399C-13.5459 16.6694 -13.1946 16.7929 -12.8913 16.9985C-12.588 17.2041 -12.3432 17.4847 -12.1806 17.813C-11.8561 18.2623 -11.6398 18.5618 -11.1656 18.5618C-10.6913 18.5618 -10.475 18.2623 -10.1505 17.813C-9.98722 17.4852 -9.74219 17.205 -9.43901 16.9995C-9.13591 16.794 -8.78498 16.6702 -8.41998 16.6399C-8.05398 16.6703 -7.70188 16.7942 -7.39745 16.9996C-7.09302 17.205 -6.84633 17.485 -6.6811 17.813C-6.35662 18.2623 -6.1403 18.5618 -5.66606 18.5618C-5.19182 18.5618 -4.98382 18.2623 -4.65934 17.813C-4.49477 17.4862 -4.24941 17.2068 -3.94648 17.0015C-3.64363 16.7962 -3.29328 16.6717 -2.92878 16.6399C-2.56253 16.6696 -2.21018 16.7931 -1.90558 16.9986C-1.60099 17.2041 -1.35455 17.4845 -1.1899 17.813C-0.865417 18.2623 -0.657416 18.5618 -0.174856 18.5618C0.307703 18.5618 0.507383 18.2623 0.831861 17.813C0.997181 17.485 1.24387 17.205 1.5483 16.9996C1.85273 16.7942 2.20475 16.6703 2.57074 16.6399C2.93674 16.6703 3.28876 16.7942 3.59327 16.9996C3.8977 17.205 4.14439 17.485 4.30971 17.813C4.63419 18.2623 4.80882 18.5618 5.33298 18.5618C5.85714 18.5618 6.03186 18.2623 6.35634 17.813C6.52166 17.485 6.76835 17.205 7.07278 16.9996C7.3772 16.7942 7.72931 16.6703 8.09522 16.6399C8.46122 16.6703 8.81332 16.7942 9.11775 16.9996C9.42218 17.205 9.66887 17.485 9.8341 17.813C10.1586 18.2623 10.3666 18.5618 10.8408 18.5618C11.3151 18.5618 11.5314 18.2623 11.8559 17.813C12.0204 17.4862 12.2658 17.2068 12.5687 17.0015C12.8716 16.7962 13.2219 16.6717 13.5864 16.6399C13.9527 16.6696 14.305 16.7931 14.6096 16.9986C14.9142 17.2041 15.1607 17.4845 15.3253 17.813C15.6498 18.2623 15.8661 18.5618 16.3403 18.5618C16.8146 18.5618 17.0226 18.2623 17.3471 17.813C17.5124 17.485 17.759 17.205 18.0635 16.9996C18.3679 16.7942 18.7199 16.6703 19.0859 16.6399C19.4509 16.6702 19.802 16.794 20.1051 16.9995C20.4082 17.205 20.6533 17.4852 20.8165 17.813C21.141 18.2623 21.3574 18.5618 21.8316 18.5618C22.3059 18.5618 22.5138 18.2623 22.8383 17.813C23.0036 17.485 23.2503 17.205 23.5547 16.9996C23.8591 16.7942 24.2111 16.6703 24.5771 16.6399C24.9434 16.6696 25.2958 16.7931 25.6003 16.9986C25.9049 17.2041 26.1514 17.4845 26.316 17.813C26.6655 18.2623 26.8568 18.5868 27.3643 18.5868Z" fill="url(#paint2_linear_17_3517)"/>
<path d="M32.5394 21.815V23.2127C32.1741 23.1762 31.8235 23.0499 31.5187 22.8453C31.2139 22.6406 30.9644 22.3639 30.7921 22.0396C30.4677 21.5904 30.2514 21.2908 29.7772 21.2908C29.3029 21.2908 29.0865 21.5904 28.7621 22.0396C28.5976 22.3665 28.3522 22.6458 28.0494 22.8511C27.7464 23.0564 27.3961 23.1809 27.0316 23.2127C26.6653 23.1831 26.313 23.0596 26.0084 22.8541C25.7038 22.6486 25.4573 22.3681 25.2927 22.0396C24.9682 21.5904 24.7602 21.2908 24.2777 21.2908C23.7951 21.2908 23.5954 21.5904 23.2709 22.0396C23.1056 22.3676 22.859 22.6477 22.5545 22.853C22.2501 23.0584 21.898 23.1823 21.532 23.2127C21.1671 23.1825 20.816 23.0586 20.5129 22.8531C20.2098 22.6476 19.9647 22.3675 19.8015 22.0396C19.477 21.5904 19.2607 21.2908 18.7865 21.2908C18.3122 21.2908 18.1042 21.5904 17.7797 22.0396C17.6144 22.3676 17.3677 22.6477 17.0633 22.853C16.7589 23.0584 16.4068 23.1823 16.0409 23.2127C15.6756 23.1833 15.3243 23.0597 15.021 22.8542C14.7177 22.6486 14.4729 22.368 14.3103 22.0396C13.9858 21.5904 13.7695 21.2908 13.2953 21.2908C12.821 21.2908 12.5963 21.5904 12.2718 22.0396C12.1163 22.375 11.8721 22.6614 11.5657 22.8682C11.2593 23.0749 10.9022 23.1941 10.533 23.2127C10.1677 23.1762 9.81708 23.0499 9.51232 22.8453C9.20747 22.6406 8.95795 22.3639 8.78581 22.0396C8.46133 21.5904 8.24501 21.2908 7.77077 21.2908C7.29653 21.2908 7.08021 21.5904 6.75573 22.0396C6.59041 22.3676 6.34373 22.6477 6.0393 22.853C5.73487 23.0584 5.38285 23.1823 5.01685 23.2127C4.65185 23.1825 4.30083 23.0586 3.99774 22.8531C3.69455 22.6476 3.44953 22.3675 3.28629 22.0396C2.96181 21.5904 2.74549 21.2908 2.27125 21.2908C1.79701 21.2908 1.58901 21.5904 1.26453 22.0396C1.09921 22.3676 0.852611 22.6477 0.548099 22.853C0.24367 23.0584 -0.108351 23.1823 -0.474347 23.2127C-0.839346 23.1825 -1.19037 23.0586 -1.49346 22.8531C-1.79664 22.6476 -2.04167 22.3675 -2.20491 22.0396C-2.52939 21.5904 -2.74579 21.2908 -3.22003 21.2908C-3.69427 21.2908 -3.91051 21.5904 -4.23499 22.0396C-4.39764 22.368 -4.6425 22.6486 -4.94577 22.8542C-5.24903 23.0597 -5.60038 23.1833 -5.96555 23.2127C-6.3308 23.1833 -6.68207 23.0597 -6.98541 22.8542C-7.28868 22.6486 -7.53353 22.368 -7.69619 22.0396C-8.02067 21.5904 -8.23691 21.2908 -8.71115 21.2908C-9.18539 21.2908 -9.41003 21.5904 -9.73451 22.0396C-9.89084 22.3744 -10.1352 22.6604 -10.4415 22.867C-10.7478 23.0737 -11.1045 23.1932 -11.4734 23.2127V21.815C-10.9492 21.815 -10.7746 21.5238 -10.4501 21.0662C-10.2868 20.7384 -10.0418 20.4582 -9.73867 20.2527C-9.43549 20.0472 -9.08447 19.9233 -8.71947 19.8931C-8.35164 19.9244 -7.99812 20.0504 -7.69336 20.2589C-7.3886 20.4674 -7.14308 20.7513 -6.98059 21.0828C-6.65611 21.5404 -6.43979 21.8316 -5.96555 21.8316C-5.49131 21.8316 -5.27499 21.5404 -4.95051 21.0828C-4.78794 20.7545 -4.54308 20.4739 -4.23981 20.2683C-3.93655 20.0627 -3.5852 19.9392 -3.22003 19.9097C-2.85478 19.9392 -2.50343 20.0627 -2.20017 20.2683C-1.8969 20.4739 -1.65204 20.7545 -1.48939 21.0828C-1.16491 21.5404 -0.948587 21.8316 -0.474347 21.8316C-0.000107765 21.8316 0.216213 21.5404 0.540693 21.0828C0.703266 20.7545 0.948123 20.4739 1.25139 20.2683C1.55465 20.0627 1.906 19.9392 2.27125 19.9097C2.63725 19.9402 2.98927 20.064 3.2937 20.2694C3.59813 20.4748 3.84481 20.7549 4.01005 21.0828C4.33453 21.5404 4.54261 21.8316 5.01685 21.8316C5.49109 21.8316 5.70733 21.5404 6.03181 21.0828C6.19638 20.756 6.44174 20.4767 6.74467 20.2713C7.04752 20.066 7.39787 19.9415 7.76245 19.9097C8.12987 19.9388 8.48363 20.062 8.78964 20.2675C9.09565 20.4729 9.34367 20.7537 9.50965 21.0828C9.83413 21.5404 10.0089 21.8316 10.533 21.8316C11.0572 21.8316 11.2319 21.5404 11.5564 21.0828C11.7209 20.7544 11.9675 20.4739 12.2721 20.2684C12.5767 20.0629 12.929 19.9394 13.2953 19.9097C13.6604 19.9392 14.0118 20.0627 14.315 20.2683C14.6183 20.4739 14.8632 20.7545 15.0258 21.0828C15.3503 21.5404 15.5666 21.8316 16.0409 21.8316C16.5151 21.8316 16.7313 21.5404 17.0558 21.0828C17.2185 20.7545 17.4633 20.4739 17.7666 20.2683C18.0699 20.0627 18.4212 19.9392 18.7865 19.9097C19.1516 19.9392 19.503 20.0627 19.8062 20.2683C20.1095 20.4739 20.3544 20.7545 20.517 21.0828C20.8415 21.5404 21.0577 21.8316 21.532 21.8316C22.0062 21.8316 22.2226 21.5404 22.5471 21.0828C22.7103 20.755 22.9554 20.4748 23.2585 20.2693C23.5616 20.0638 23.9127 19.94 24.2777 19.9097C24.6451 19.9388 24.9988 20.062 25.3048 20.2675C25.6108 20.4729 25.8588 20.7537 26.0249 21.0828C26.3493 21.5404 26.5573 21.8316 27.0398 21.8316C27.5224 21.8316 27.7221 21.5404 28.0466 21.0828C28.2111 20.756 28.4565 20.4767 28.7594 20.2713C29.0623 20.066 29.4126 19.9415 29.7772 19.9097C30.1432 19.9402 30.4952 20.064 30.7996 20.2694C31.104 20.4748 31.3507 20.7549 31.516 21.0828C31.8488 21.5238 32.0153 21.815 32.5394 21.815Z" fill="url(#paint3_linear_17_3517)"/>
<path d="M38.222 25.0765V26.4659C37.8578 26.4295 37.5082 26.3032 37.2047 26.0984C36.9013 25.8937 36.6534 25.6169 36.4831 25.2928C36.1586 24.8435 35.9423 24.544 35.4681 24.544C34.9938 24.544 34.7692 24.8435 34.4447 25.2928C34.2793 25.6258 34.0293 25.9094 33.7197 26.1152C33.4102 26.3211 33.052 26.442 32.6809 26.4659C32.3275 26.4256 31.9897 26.297 31.699 26.092C31.4083 25.887 31.1736 25.6122 31.0169 25.2928C30.6924 24.8435 30.4762 24.544 30.0019 24.544C29.5277 24.544 29.3113 24.8435 28.9868 25.2928C28.8236 25.6206 28.5785 25.9008 28.2754 26.1063C27.9723 26.3118 27.6213 26.4356 27.2563 26.4659C26.8903 26.4355 26.5382 26.3116 26.2338 26.1062C25.9293 25.9008 25.6827 25.6208 25.5174 25.2928C25.1929 24.8435 24.9849 24.544 24.5023 24.544C24.0198 24.544 23.8202 24.8435 23.4957 25.2928C23.3324 25.6206 23.0873 25.9008 22.7842 26.1063C22.4811 26.3118 22.13 26.4356 21.7651 26.4659C21.3991 26.4355 21.047 26.3116 20.7426 26.1062C20.4382 25.9008 20.1915 25.6208 20.0262 25.2928C19.7017 24.8435 19.4937 24.544 19.0195 24.544C18.5452 24.544 18.3206 24.8435 17.9961 25.2928C17.8377 25.6277 17.5917 25.9135 17.2841 26.12C16.9766 26.3265 16.6189 26.446 16.2489 26.4659C15.8842 26.4309 15.5341 26.3053 15.2304 26.1003C14.9267 25.8954 14.679 25.6179 14.51 25.2928C14.1855 24.8435 13.9609 24.544 13.4867 24.544C13.0124 24.544 12.7962 24.8435 12.4717 25.2928C12.309 25.6211 12.0642 25.9017 11.7608 26.1073C11.4576 26.3129 11.1063 26.4365 10.7411 26.4659C10.3751 26.4355 10.023 26.3116 9.71861 26.1062C9.41418 25.9008 9.16749 25.6208 9.00217 25.2928C8.67769 24.8435 8.46969 24.544 7.99545 24.544C7.52121 24.544 7.30489 24.8435 6.98041 25.2928C6.81368 25.623 6.56449 25.9046 6.2569 26.1101C5.94931 26.3157 5.5938 26.4382 5.22489 26.4659C4.85873 26.4362 4.50629 26.3127 4.2017 26.1072C3.89719 25.9017 3.65066 25.6213 3.48601 25.2928C3.16153 24.8435 2.95353 24.544 2.47097 24.544C1.98841 24.544 1.78873 24.8435 1.46425 25.2928C1.2996 25.6213 1.05316 25.9017 0.748563 26.1072C0.443968 26.3127 0.0916147 26.4362 -0.274632 26.4659C-0.639131 26.4341 -0.989484 26.3096 -1.29233 26.1043C-1.59526 25.899 -1.84062 25.6196 -2.00519 25.2928C-2.32967 24.8435 -2.54599 24.544 -3.01191 24.544C-3.47783 24.544 -3.71079 24.8435 -4.03527 25.2928C-4.19368 25.6277 -4.4397 25.9135 -4.74729 26.12C-5.05489 26.3265 -5.41248 26.446 -5.78247 26.4659V25.0765C-5.25831 25.0765 -5.08359 24.777 -4.75911 24.3194C-4.59254 23.9924 -4.34552 23.7131 -4.04134 23.5079C-3.73716 23.3027 -3.38573 23.1782 -3.02015 23.1462C-2.65465 23.1782 -2.3033 23.3027 -1.99903 23.5079C-1.69485 23.7131 -1.44792 23.9924 -1.28135 24.3194C-0.956871 24.777 -0.748871 25.0765 -0.274632 25.0765C0.199608 25.0765 0.41593 24.777 0.740409 24.3194C0.906227 23.9935 1.15192 23.715 1.4546 23.5098C1.7572 23.3047 2.10689 23.1796 2.47097 23.1462C2.8368 23.1775 3.18849 23.3016 3.49283 23.5069C3.79718 23.7122 4.04395 23.9919 4.20993 24.3194C4.53441 24.777 4.75065 25.0765 5.22489 25.0765C5.69913 25.0765 5.90721 24.777 6.23169 24.3194C6.39818 23.9924 6.6452 23.7131 6.94938 23.5079C7.25356 23.3027 7.60499 23.1782 7.97049 23.1462C8.33482 23.1788 8.68485 23.3036 8.98761 23.5089C9.29038 23.7141 9.5359 23.993 9.70105 24.3194C10.0255 24.777 10.2419 25.0765 10.7161 25.0765C11.1903 25.0765 11.3983 24.777 11.7228 24.3194C11.8894 23.9924 12.1364 23.7131 12.4406 23.5079C12.7448 23.3027 13.0962 23.1782 13.4618 23.1462C13.8289 23.1761 14.1824 23.2996 14.4883 23.505C14.7941 23.7104 15.0422 23.9908 15.2089 24.3194C15.5334 24.777 15.7081 25.0765 16.2322 25.0765C16.7564 25.0765 16.9312 24.777 17.2557 24.3194C17.4222 23.9924 17.6692 23.7131 17.9734 23.5079C18.2776 23.3027 18.629 23.1782 18.9945 23.1462C19.3601 23.1782 19.7115 23.3027 20.0157 23.5079C20.3199 23.7131 20.5669 23.9924 20.7334 24.3194C21.0578 24.777 21.2659 25.0765 21.7484 25.0765C22.231 25.0765 22.4306 24.777 22.7551 24.3194C22.9209 23.9935 23.1666 23.715 23.4693 23.5098C23.7719 23.3047 24.1216 23.1796 24.4858 23.1462C24.8515 23.1775 25.2032 23.3016 25.5075 23.5069C25.8118 23.7122 26.0587 23.9919 26.2246 24.3194C26.549 24.777 26.7654 25.0765 27.2397 25.0765C27.7139 25.0765 27.9218 24.777 28.2463 24.3194C28.4129 23.9924 28.6599 23.7131 28.9641 23.5079C29.2683 23.3027 29.6197 23.1782 29.9852 23.1462C30.3495 23.1788 30.6996 23.3036 31.0023 23.5089C31.3051 23.7141 31.5506 23.993 31.7159 24.3194C32.0403 24.777 32.2566 25.0765 32.7308 25.0765C33.205 25.0765 33.4214 24.777 33.7375 24.3194C33.9041 23.9924 34.1511 23.7131 34.4553 23.5079C34.7595 23.3027 35.1109 23.1782 35.4764 23.1462C35.8422 23.1775 36.1939 23.3016 36.4983 23.5069C36.8025 23.7122 37.0494 23.9919 37.2153 24.3194C37.5231 24.777 37.6729 25.0765 38.222 25.0765Z" fill="url(#paint4_linear_17_3517)"/>
<path d="M42.8064 27.5474V28.9785H42.432C42.3238 28.8537 42.2323 28.7289 42.1491 28.6124C41.833 28.1714 41.6083 27.8802 41.1341 27.8802C41.0595 27.8712 40.9841 27.8712 40.9094 27.8802C40.5933 27.9718 40.3936 28.2297 40.1274 28.6041C40.0442 28.7206 39.961 28.8454 39.8528 28.9702H36.9408L36.6579 28.6041C36.3334 28.1548 36.1254 27.8553 35.6512 27.8553C35.177 27.8553 34.9606 28.1548 34.6362 28.6041L34.3616 28.9702H31.4496C31.3414 28.8454 31.2582 28.7206 31.1667 28.6041C30.8506 28.1548 30.6342 27.8553 30.16 27.8553C29.6858 27.8553 29.4694 28.1548 29.145 28.6041L28.8704 28.9702H25.9501L25.6755 28.6041C25.351 28.1548 25.143 27.8553 24.6688 27.8553C24.1946 27.8553 23.9699 28.1548 23.6454 28.6041C23.5539 28.7206 23.4707 28.8454 23.3792 28.9702H20.4339L20.1594 28.6041C19.8349 28.1548 19.6186 27.8553 19.1443 27.8553C18.6701 27.8553 18.4454 28.1548 18.121 28.6041L17.8464 28.9702H14.9261C14.8312 28.8527 14.7424 28.7305 14.6598 28.6041C14.3354 28.1548 14.119 27.8553 13.6365 27.8553C13.1539 27.8553 12.9542 28.1548 12.6298 28.6041L12.3552 28.9702H9.44321C9.33505 28.8454 9.25185 28.7206 9.16033 28.6041C8.83585 28.1548 8.62785 27.8553 8.15361 27.8553C7.67937 27.8553 7.46305 28.1548 7.13857 28.6041C7.05537 28.7206 6.96385 28.8454 6.86401 28.9702H3.94369L3.66913 28.6041C3.34465 28.1548 3.13665 27.8553 2.65409 27.8553C2.17153 27.8553 1.95521 28.1548 1.63073 28.6041C1.54753 28.7206 1.46433 28.8454 1.36449 28.9702H-0.108154V28.3794C0.416006 28.3794 0.590729 28.0799 0.915208 27.6223C1.08219 27.2964 1.32946 27.0185 1.63372 26.8146C1.93798 26.6109 2.28909 26.4879 2.65409 26.4575C3.019 26.4879 3.37019 26.6109 3.67445 26.8146C3.97871 27.0185 4.22599 27.2964 4.39297 27.6223C4.71745 28.0799 4.92545 28.3794 5.39969 28.3794C5.87393 28.3794 6.09025 28.0799 6.41473 27.6223C6.58171 27.2964 6.82898 27.0185 7.13324 26.8146C7.4375 26.6109 7.78869 26.4879 8.15361 26.4575C8.51711 26.4893 8.86655 26.6129 9.16923 26.8165C9.47191 27.0203 9.71785 27.2975 9.88417 27.6223C10.2086 28.0799 10.425 28.3794 10.8992 28.3794C11.3734 28.3794 11.5814 28.0799 11.9059 27.6223C12.0722 27.2975 12.3182 27.0203 12.6209 26.8165C12.9235 26.6129 13.273 26.4893 13.6365 26.4575C14.0017 26.4871 14.3531 26.6097 14.6574 26.8136C14.9619 27.0175 15.2091 27.2959 15.3754 27.6223C15.6998 28.0799 15.9162 28.3794 16.3904 28.3794C16.8646 28.3794 17.0726 28.0799 17.3971 27.6223C17.5641 27.2964 17.8114 27.0185 18.1156 26.8146C18.4199 26.6109 18.771 26.4879 19.136 26.4575C19.5011 26.4871 19.8527 26.6097 20.157 26.8136C20.4614 27.0175 20.7085 27.2959 20.8749 27.6223C21.1994 28.0799 21.3741 28.3794 21.8982 28.3794C22.4224 28.3794 22.5971 28.0799 22.9216 27.6223C23.0886 27.2964 23.3359 27.0185 23.6401 26.8146C23.9444 26.6109 24.2956 26.4879 24.6605 26.4575C25.0254 26.4879 25.3766 26.6109 25.6809 26.8146C25.985 27.0185 26.2324 27.2964 26.3994 27.6223C26.7155 28.0799 26.9319 28.3794 27.4144 28.3794C27.897 28.3794 28.0967 28.0799 28.4211 27.6223C28.5881 27.2964 28.8354 27.0185 29.1396 26.8146C29.4439 26.6109 29.795 26.4879 30.16 26.4575C30.5237 26.4885 30.8735 26.6118 31.1763 26.8155C31.4791 27.0194 31.7249 27.297 31.8906 27.6223C32.215 28.0799 32.4314 28.3794 32.9056 28.3794C33.3798 28.3794 33.5962 28.0799 33.9123 27.6223C34.0793 27.2964 34.3266 27.0185 34.6308 26.8146C34.9351 26.6109 35.2863 26.4879 35.6512 26.4575C36.0149 26.4885 36.3647 26.6118 36.6675 26.8155C36.9703 27.0194 37.2161 27.297 37.3818 27.6223C37.7062 28.0799 37.9226 28.3794 38.3968 28.3794C38.871 28.3794 39.079 28.0799 39.4035 27.6223L39.7197 27.2063C39.8828 26.9801 40.0963 26.7947 40.3431 26.6648C40.59 26.5349 40.8635 26.4639 41.1424 26.4575C41.4891 26.4842 41.8235 26.5981 42.1144 26.7887C42.4053 26.9793 42.6433 27.2403 42.8064 27.5474Z" fill="url(#paint5_linear_17_3517)"/>
<path fill-rule="evenodd" clip-rule="evenodd" d="M85.2548 -0.224612C85.2523 -0.0627876 85.1866 0.0917147 85.0717 0.205366C84.9561 0.319017 84.8013 0.382749 84.6391 0.382749C84.4777 0.382749 84.3238 0.318768 84.2098 0.204867C84.0958 0.0909661 84.0317 -0.0635363 84.0317 -0.224612C84.0317 -0.385687 84.0958 -0.540189 84.2098 -0.65409C84.3238 -0.767991 84.4777 -0.831971 84.6391 -0.831971C84.7198 -0.833103 84.7997 -0.818243 84.8737 -0.788208C84.9486 -0.758173 85.0168 -0.713577 85.0742 -0.657085C85.1316 -0.600592 85.1766 -0.5332 85.2082 -0.458986C85.239 -0.384772 85.2548 -0.305066 85.2548 -0.224612Z" fill="url(#paint6_linear_17_3517)"/>
<path fill-rule="evenodd" clip-rule="evenodd" d="M85.2548 3.54437C85.2548 3.62483 85.239 3.70445 85.2082 3.77866C85.1766 3.85296 85.1316 3.92027 85.0742 3.97676C85.0168 4.03326 84.9486 4.07785 84.8737 4.10789C84.7997 4.13792 84.7198 4.15281 84.6391 4.15173C84.4777 4.15173 84.3238 4.08775 84.2098 3.97377C84.0958 3.85987 84.0317 3.70545 84.0317 3.54437C84.0317 3.3833 84.0958 3.22879 84.2098 3.11489C84.3238 3.00099 84.4777 2.93701 84.6391 2.93701C84.8013 2.93693 84.9561 3.00066 85.0717 3.11439C85.1866 3.22805 85.2523 3.38247 85.2548 3.54437Z" fill="url(#paint7_linear_17_3517)"/>
<path fill-rule="evenodd" clip-rule="evenodd" d="M85.2548 7.32153C85.2523 7.48335 85.1866 7.63785 85.0717 7.7515C84.9561 7.86515 84.8013 7.92889 84.6391 7.92889C84.4777 7.92889 84.3238 7.8649 84.2098 7.751C84.0958 7.6371 84.0317 7.4826 84.0317 7.32153C84.0317 7.16045 84.0958 7.00595 84.2098 6.89205C84.3238 6.77815 84.4777 6.71417 84.6391 6.71417C84.7198 6.71308 84.7997 6.72798 84.8737 6.75793C84.9486 6.78796 85.0168 6.83256 85.0742 6.88905C85.1316 6.94554 85.1766 7.01294 85.2082 7.08715C85.239 7.16137 85.2548 7.24107 85.2548 7.32153Z" fill="url(#paint8_linear_17_3517)"/>
<path fill-rule="evenodd" clip-rule="evenodd" d="M85.2548 11.0905C85.2548 11.1713 85.239 11.2514 85.2082 11.3261C85.1774 11.4008 85.1316 11.4687 85.0742 11.5258C85.0177 11.583 84.9494 11.6284 84.8746 11.6593C84.7997 11.6902 84.7198 11.7062 84.6391 11.7062C84.4769 11.7039 84.3229 11.6381 84.209 11.5229C84.0958 11.4077 84.0317 11.2523 84.0317 11.0905C84.0317 10.9294 84.0958 10.7749 84.2098 10.661C84.3238 10.5471 84.4777 10.4832 84.6391 10.4832C84.8013 10.4831 84.9561 10.5468 85.0717 10.6605C85.1866 10.7742 85.2523 10.9286 85.2548 11.0905Z" fill="url(#paint9_linear_17_3517)"/>
<path fill-rule="evenodd" clip-rule="evenodd" d="M85.2548 14.8679C85.2523 15.0297 85.1866 15.1842 85.0717 15.2978C84.9561 15.4115 84.8013 15.4752 84.6391 15.4752C84.4777 15.4752 84.3238 15.4112 84.2098 15.2973C84.0958 15.1834 84.0317 15.0289 84.0317 14.8679C84.0317 14.7068 84.0958 14.5523 84.2098 14.4384C84.3238 14.3245 84.4777 14.2605 84.6391 14.2605C84.8013 14.2605 84.9561 14.3241 85.0717 14.4379C85.1866 14.5515 85.2523 14.706 85.2548 14.8679Z" fill="url(#paint10_linear_17_3517)"/>
<path fill-rule="evenodd" clip-rule="evenodd" d="M85.2548 18.6369C85.2548 18.7178 85.239 18.7978 85.2082 18.8725C85.1774 18.9472 85.1316 19.015 85.0742 19.0722C85.0177 19.1294 84.9494 19.1748 84.8746 19.2057C84.7997 19.2366 84.7198 19.2526 84.6391 19.2526C84.4769 19.2503 84.3229 19.1845 84.209 19.0693C84.0958 18.9541 84.0317 18.7987 84.0317 18.6369C84.0317 18.4758 84.0958 18.3213 84.2098 18.2074C84.3238 18.0935 84.4777 18.0295 84.6391 18.0295C84.8013 18.0295 84.9561 18.0932 85.0717 18.2069C85.1866 18.3206 85.2523 18.4751 85.2548 18.6369Z" fill="url(#paint11_linear_17_3517)"/>
<path fill-rule="evenodd" clip-rule="evenodd" d="M89.0239 -0.224672C89.0239 -0.0635965 88.9599 0.0908228 88.8459 0.204807C88.7319 0.318708 88.578 0.382689 88.4166 0.382689C88.2552 0.382689 88.1012 0.318708 87.9873 0.204807C87.8733 0.0908228 87.8092 -0.0635965 87.8092 -0.224672C87.8092 -0.385747 87.8733 -0.540249 87.9873 -0.65415C88.1012 -0.768051 88.2552 -0.832031 88.4166 -0.832031C88.578 -0.832031 88.7319 -0.768051 88.8459 -0.65415C88.9599 -0.540249 89.0239 -0.385747 89.0239 -0.224672Z" fill="url(#paint12_linear_17_3517)"/>
<path fill-rule="evenodd" clip-rule="evenodd" d="M89.0239 3.54437C89.0239 3.70545 88.9599 3.85987 88.8459 3.97377C88.7319 4.08775 88.578 4.15173 88.4166 4.15173C88.2552 4.15173 88.1012 4.08775 87.9873 3.97377C87.8733 3.85987 87.8092 3.70545 87.8092 3.54437C87.8092 3.3833 87.8733 3.22879 87.9873 3.11489C88.1012 3.00099 88.2552 2.93701 88.4166 2.93701C88.578 2.93701 88.7319 3.00099 88.8459 3.11489C88.9599 3.22879 89.0239 3.3833 89.0239 3.54437Z" fill="url(#paint13_linear_17_3517)"/>
<path fill-rule="evenodd" clip-rule="evenodd" d="M89.0239 7.32172C89.0239 7.48279 88.9599 7.63729 88.8459 7.75119C88.7319 7.86509 88.578 7.92907 88.4166 7.92907C88.2552 7.92907 88.1012 7.86509 87.9873 7.75119C87.8733 7.63729 87.8092 7.48279 87.8092 7.32172C87.8092 7.16064 87.8733 7.00614 87.9873 6.89224C88.1012 6.77834 88.2552 6.71436 88.4166 6.71436C88.578 6.71436 88.7319 6.77834 88.8459 6.89224C88.9599 7.00614 89.0239 7.16064 89.0239 7.32172Z" fill="url(#paint14_linear_17_3517)"/>
<path fill-rule="evenodd" clip-rule="evenodd" d="M89.0239 11.0905C89.0239 11.2523 88.9599 11.4077 88.8467 11.5229C88.7327 11.6381 88.5788 11.7039 88.4166 11.7062C88.2552 11.7039 88.1004 11.6381 87.9864 11.5229C87.8733 11.4077 87.8092 11.2523 87.8092 11.0905C87.8092 10.9294 87.8733 10.7749 87.9873 10.661C88.1012 10.5471 88.2552 10.4832 88.4166 10.4832C88.578 10.4832 88.7319 10.5471 88.8459 10.661C88.9599 10.7749 89.0239 10.9294 89.0239 11.0905Z" fill="url(#paint15_linear_17_3517)"/>
<path fill-rule="evenodd" clip-rule="evenodd" d="M89.0239 14.8679C89.0239 15.0289 88.9599 15.1834 88.8459 15.2973C88.7319 15.4112 88.578 15.4752 88.4166 15.4752C88.2552 15.4752 88.1012 15.4112 87.9873 15.2973C87.8733 15.1834 87.8092 15.0289 87.8092 14.8679C87.8092 14.7068 87.8733 14.5523 87.9873 14.4384C88.1012 14.3245 88.2552 14.2605 88.4166 14.2605C88.578 14.2605 88.7319 14.3245 88.8459 14.4384C88.9599 14.5523 89.0239 14.7068 89.0239 14.8679Z" fill="url(#paint16_linear_17_3517)"/>
<path fill-rule="evenodd" clip-rule="evenodd" d="M89.0239 18.6369C89.0239 18.7987 88.9599 18.9541 88.8467 19.0693C88.7327 19.1845 88.5788 19.2503 88.4166 19.2526C88.2552 19.2503 88.1004 19.1845 87.9864 19.0693C87.8733 18.9541 87.8092 18.7987 87.8092 18.6369C87.8092 18.4758 87.8733 18.3213 87.9873 18.2074C88.1012 18.0935 88.2552 18.0295 88.4166 18.0295C88.578 18.0295 88.7319 18.0935 88.8459 18.2074C88.9599 18.3213 89.0239 18.4758 89.0239 18.6369Z" fill="url(#paint17_linear_17_3517)"/>
<path fill-rule="evenodd" clip-rule="evenodd" d="M92.8012 -0.224612C92.7987 -0.0627876 92.7329 0.0917147 92.6181 0.205366C92.5025 0.319017 92.3477 0.382749 92.1855 0.382749C92.0241 0.382749 91.8701 0.318768 91.7562 0.204867C91.6422 0.0909661 91.5781 -0.0635363 91.5781 -0.224612C91.5781 -0.385687 91.6422 -0.540189 91.7562 -0.65409C91.8701 -0.767991 92.0241 -0.831971 92.1855 -0.831971C92.2662 -0.833103 92.346 -0.818243 92.4209 -0.788208C92.495 -0.758173 92.5632 -0.713577 92.6206 -0.657085C92.678 -0.600592 92.7229 -0.5332 92.7546 -0.458986C92.7853 -0.384772 92.8012 -0.305066 92.8012 -0.224612Z" fill="url(#paint18_linear_17_3517)"/>
<path fill-rule="evenodd" clip-rule="evenodd" d="M92.8012 3.54437C92.8012 3.62482 92.7853 3.70444 92.7546 3.77866C92.7229 3.85296 92.678 3.92026 92.6206 3.97676C92.5632 4.03325 92.495 4.07785 92.4209 4.10788C92.346 4.13792 92.2662 4.15281 92.1855 4.15173C92.0241 4.15173 91.8701 4.08775 91.7562 3.97376C91.6422 3.85986 91.5781 3.70544 91.5781 3.54437C91.5864 3.38762 91.6555 3.24035 91.7703 3.13336C91.8851 3.02628 92.0365 2.96787 92.1938 2.97029C92.356 2.9702 92.5108 3.03394 92.6264 3.14767C92.7413 3.26132 92.807 3.41574 92.8095 3.57765L92.8012 3.54437Z" fill="url(#paint19_linear_17_3517)"/>
<path fill-rule="evenodd" clip-rule="evenodd" d="M92.8013 7.3217C92.8046 7.4039 92.7913 7.48594 92.7622 7.56298C92.7339 7.64011 92.6898 7.71058 92.6332 7.77023C92.5766 7.82997 92.5084 7.87773 92.4327 7.91076C92.3578 7.94371 92.2763 7.96126 92.1939 7.96234C92.114 7.96234 92.035 7.94662 91.9618 7.91608C91.8877 7.88555 91.8212 7.84079 91.7646 7.78438C91.708 7.72805 91.6631 7.66107 91.6331 7.58736C91.6024 7.51364 91.5865 7.43469 91.5865 7.35498C91.5865 7.27519 91.6024 7.19624 91.6331 7.12252C91.6631 7.04881 91.708 6.98191 91.7646 6.9255C91.8212 6.86909 91.8877 6.82433 91.9618 6.7938C92.035 6.76326 92.114 6.74762 92.1939 6.74762C92.2746 6.74646 92.3545 6.76135 92.4285 6.79139C92.5034 6.82142 92.5716 6.86602 92.629 6.92251C92.6864 6.979 92.7314 7.04631 92.763 7.12061C92.7938 7.19482 92.8096 7.27444 92.8096 7.35498L92.8013 7.3217Z" fill="url(#paint20_linear_17_3517)"/>
<path fill-rule="evenodd" clip-rule="evenodd" d="M92.8012 11.0906C92.8012 11.2539 92.7363 11.4105 92.6206 11.5259C92.505 11.6414 92.3486 11.7063 92.1855 11.7063C92.0233 11.7042 91.8693 11.6383 91.7554 11.523C91.6422 11.4078 91.5781 11.2525 91.5781 11.0906C91.5748 11.0081 91.5881 10.9257 91.6181 10.8485C91.6472 10.7714 91.6921 10.7011 91.7495 10.6419C91.8078 10.5827 91.8768 10.5359 91.9525 10.5043C92.0291 10.4728 92.1114 10.4571 92.1938 10.4583C92.3552 10.4583 92.5108 10.5221 92.6265 10.6357C92.7413 10.7494 92.807 10.9039 92.8095 11.0657L92.8012 11.0906Z" fill="url(#paint21_linear_17_3517)"/>
<path fill-rule="evenodd" clip-rule="evenodd" d="M92.8013 14.8679C92.7929 15.0239 92.7256 15.1709 92.6124 15.2791C92.5001 15.3872 92.3503 15.4484 92.1939 15.4503C92.114 15.4503 92.035 15.4346 91.9618 15.4041C91.8877 15.3735 91.8212 15.3288 91.7646 15.2724C91.708 15.216 91.6631 15.149 91.6331 15.0753C91.6024 15.0017 91.5865 14.9227 91.5865 14.843C91.5865 14.7632 91.6024 14.6842 91.6331 14.6105C91.6631 14.5369 91.708 14.4699 91.7646 14.4135C91.8212 14.3571 91.8877 14.3123 91.9618 14.2818C92.035 14.2513 92.114 14.2356 92.1939 14.2356C92.3561 14.2356 92.5109 14.2992 92.6265 14.413C92.7414 14.5266 92.8071 14.6811 92.8096 14.843L92.8013 14.8679Z" fill="url(#paint22_linear_17_3517)"/>
<path fill-rule="evenodd" clip-rule="evenodd" d="M92.8012 18.6369C92.8012 18.8001 92.7363 18.9568 92.6206 19.0722C92.5058 19.1877 92.3486 19.2526 92.1855 19.2526C92.0241 19.2503 91.8693 19.1845 91.7553 19.0693C91.6422 18.9541 91.5781 18.7987 91.5781 18.6369C91.5781 18.4758 91.6422 18.3213 91.7562 18.2074C91.8701 18.0935 92.0241 18.0295 92.1855 18.0295C92.3477 18.0295 92.5025 18.0932 92.6181 18.2069C92.7329 18.3206 92.7987 18.4751 92.8012 18.6369Z" fill="url(#paint23_linear_17_3517)"/>
<path fill-rule="evenodd" clip-rule="evenodd" d="M96.5702 -0.224672C96.5702 -0.0635965 96.5061 0.0908228 96.3921 0.204807C96.2782 0.318708 96.1242 0.382689 95.9628 0.382689C95.8014 0.382689 95.6475 0.318708 95.5335 0.204807C95.4195 0.0908228 95.3555 -0.0635965 95.3555 -0.224672C95.3555 -0.385747 95.4195 -0.540249 95.5335 -0.65415C95.6475 -0.768051 95.8014 -0.832031 95.9628 -0.832031C96.1242 -0.832031 96.2782 -0.768051 96.3921 -0.65415C96.5061 -0.540249 96.5702 -0.385747 96.5702 -0.224672Z" fill="url(#paint24_linear_17_3517)"/>
<path fill-rule="evenodd" clip-rule="evenodd" d="M96.5702 3.54437C96.5702 3.70545 96.5061 3.85987 96.3921 3.97377C96.2782 4.08775 96.1242 4.15173 95.9628 4.15173C95.8014 4.15173 95.6475 4.08775 95.5335 3.97377C95.4195 3.85987 95.3555 3.70545 95.3555 3.54437C95.3555 3.3833 95.4195 3.22879 95.5335 3.11489C95.6475 3.00099 95.8014 2.93701 95.9628 2.93701C96.1242 2.93701 96.2782 3.00099 96.3921 3.11489C96.5061 3.22879 96.5702 3.3833 96.5702 3.54437Z" fill="url(#paint25_linear_17_3517)"/>
<path fill-rule="evenodd" clip-rule="evenodd" d="M96.5702 7.32172C96.5702 7.48279 96.5061 7.63729 96.3921 7.75119C96.2782 7.86509 96.1242 7.92907 95.9628 7.92907C95.8014 7.92907 95.6475 7.86509 95.5335 7.75119C95.4195 7.63729 95.3555 7.48279 95.3555 7.32172C95.3555 7.16064 95.4195 7.00614 95.5335 6.89224C95.6475 6.77834 95.8014 6.71436 95.9628 6.71436C96.1242 6.71436 96.2782 6.77834 96.3921 6.89224C96.5061 7.00614 96.5702 7.16064 96.5702 7.32172Z" fill="url(#paint26_linear_17_3517)"/>
<path fill-rule="evenodd" clip-rule="evenodd" d="M96.5702 11.0905C96.5702 11.2523 96.5061 11.4077 96.393 11.5229C96.279 11.6381 96.1251 11.7039 95.9628 11.7062C95.8014 11.7039 95.6467 11.6381 95.5327 11.5229C95.4195 11.4077 95.3555 11.2523 95.3555 11.0905C95.3555 10.9294 95.4195 10.7749 95.5335 10.661C95.6475 10.5471 95.8014 10.4832 95.9628 10.4832C96.1242 10.4832 96.2782 10.5471 96.3921 10.661C96.5061 10.7749 96.5702 10.9294 96.5702 11.0905Z" fill="url(#paint27_linear_17_3517)"/>
<path fill-rule="evenodd" clip-rule="evenodd" d="M96.5702 14.8679C96.5702 15.0289 96.5061 15.1834 96.3921 15.2973C96.2782 15.4112 96.1242 15.4752 95.9628 15.4752C95.8014 15.4752 95.6475 15.4112 95.5335 15.2973C95.4195 15.1834 95.3555 15.0289 95.3555 14.8679C95.3555 14.7068 95.4195 14.5523 95.5335 14.4384C95.6475 14.3245 95.8014 14.2605 95.9628 14.2605C96.1242 14.2605 96.2782 14.3245 96.3921 14.4384C96.5061 14.5523 96.5702 14.7068 96.5702 14.8679Z" fill="url(#paint28_linear_17_3517)"/>
<path fill-rule="evenodd" clip-rule="evenodd" d="M96.5702 18.6369C96.5702 18.7987 96.5061 18.9541 96.393 19.0693C96.279 19.1845 96.1251 19.2503 95.9628 19.2526C95.8014 19.2503 95.6467 19.1845 95.5327 19.0693C95.4195 18.9541 95.3555 18.7987 95.3555 18.6369C95.3555 18.4758 95.4195 18.3213 95.5335 18.2074C95.6475 18.0935 95.8014 18.0295 95.9628 18.0295C96.1242 18.0295 96.2782 18.0935 96.3921 18.2074C96.5061 18.3213 96.5702 18.4758 96.5702 18.6369Z" fill="url(#paint29_linear_17_3517)"/>
<path d="M19.2275 73.399C18.984 73.399 18.7503 73.3028 18.5774 73.1314C18.4045 72.96 18.3061 72.7272 18.304 72.4838V71.6518C18.3061 71.4082 18.4045 71.1755 18.5774 71.0041C18.7503 70.8327 18.984 70.7366 19.2275 70.7366C19.471 70.7366 19.7046 70.8327 19.8776 71.0041C20.0506 71.1755 20.1488 71.4082 20.151 71.6518V72.4838C20.1488 72.7272 20.0506 72.96 19.8776 73.1314C19.7046 73.3028 19.471 73.399 19.2275 73.399Z" fill="url(#paint30_linear_17_3517)" fill-opacity="0.5"/>
<path d="M19.2275 67.5833C18.984 67.5833 18.7503 67.4872 18.5774 67.3157C18.4045 67.1444 18.3061 66.9116 18.304 66.6681V65.8361C18.304 65.5912 18.4012 65.3563 18.5744 65.1831C18.7477 65.0099 18.9825 64.9126 19.2275 64.9126C19.4724 64.9126 19.7073 65.0099 19.8805 65.1831C20.0537 65.3563 20.151 65.5912 20.151 65.8361V66.6681C20.1488 66.9116 20.0506 67.1444 19.8776 67.3157C19.7046 67.4872 19.471 67.5833 19.2275 67.5833Z" fill="url(#paint31_linear_17_3517)" fill-opacity="0.5"/>
<path d="M22.5556 70.0709H21.7236C21.4801 70.0688 21.2473 69.9705 21.0759 69.7975C20.9045 69.6245 20.8083 69.3909 20.8083 69.1474C20.8083 68.904 20.9045 68.6702 21.0759 68.4973C21.2473 68.3244 21.4801 68.226 21.7236 68.2239H22.5556C22.8005 68.2239 23.0354 68.3212 23.2086 68.4944C23.3818 68.6676 23.4791 68.9025 23.4791 69.1474C23.4791 69.3923 23.3818 69.6272 23.2086 69.8004C23.0354 69.9737 22.8005 70.0709 22.5556 70.0709Z" fill="url(#paint32_linear_17_3517)" fill-opacity="0.5"/>
<path d="M16.7482 70.0709H15.9162C15.6713 70.0709 15.4364 69.9737 15.2632 69.8004C15.09 69.6272 14.9927 69.3923 14.9927 69.1474C14.9927 68.9025 15.09 68.6676 15.2632 68.4944C15.4364 68.3212 15.6713 68.2239 15.9162 68.2239H16.7482C16.9917 68.226 17.2244 68.3244 17.3958 68.4973C17.5673 68.6702 17.6634 68.904 17.6634 69.1474C17.6634 69.3909 17.5673 69.6245 17.3958 69.7975C17.2244 69.9705 16.9917 70.0688 16.7482 70.0709Z" fill="url(#paint33_linear_17_3517)" fill-opacity="0.5"/>
<path d="M90.7137 72.3899H76.5439C78.4409 72.4364 80.243 73.2019 81.5667 74.5228C82.8913 75.8437 83.6309 77.6154 83.6284 79.4593C83.6293 80.3904 83.819 81.3122 84.1867 82.1719C84.5544 83.0317 85.0936 83.8124 85.7717 84.4695C86.4506 85.1267 87.2559 85.6473 88.142 86.0016C89.0273 86.3558 89.9766 86.5367 90.935 86.534C92.8636 86.5311 94.7123 85.7846 96.0752 84.4581C97.4371 83.1317 98.2026 81.3338 98.2026 79.4593C98.2026 77.5853 97.4371 75.7879 96.0743 74.4623C94.7115 73.1368 92.8628 72.3913 90.935 72.3899H90.7404" fill="url(#paint34_linear_17_3517)"/>
</g>
</g>
<path d="M48.7048 24.26C49.4968 24.26 50.2375 24.3627 50.9268 24.568C51.6162 24.7733 52.2248 25.118 52.7528 25.602C53.2808 26.0713 53.6695 26.7167 53.9188 27.538L50.3108 29.232C50.1788 28.7627 49.9588 28.396 49.6508 28.132C49.3428 27.868 48.9395 27.736 48.4408 27.736C48.0888 27.736 47.7662 27.8167 47.4728 27.978C47.1795 28.1247 46.9302 28.3447 46.7248 28.638C46.5195 28.9313 46.3582 29.3053 46.2408 29.76C46.1235 30.2147 46.0648 30.7353 46.0648 31.322C46.0648 31.366 46.0648 31.4173 46.0648 31.476C46.0648 31.52 46.0648 31.5787 46.0648 31.652L46.0868 31.85C46.2628 31.4687 46.5268 31.146 46.8788 30.882C47.2455 30.6033 47.6562 30.3907 48.1108 30.244C48.5802 30.0973 49.0422 30.024 49.4968 30.024C50.3768 30.024 51.1615 30.1927 51.8508 30.53C52.5402 30.8673 53.0828 31.3587 53.4788 32.004C53.8895 32.6347 54.0948 33.4047 54.0948 34.314C54.0948 35.3113 53.8602 36.184 53.3908 36.932C52.9215 37.6653 52.2688 38.23 51.4328 38.626C50.5968 39.022 49.6142 39.22 48.4848 39.22C47.2235 39.22 46.1015 38.9633 45.1188 38.45C44.1362 37.922 43.3588 37.1227 42.7868 36.052C42.2295 34.9813 41.9508 33.6027 41.9508 31.916C41.9508 30.156 42.2515 28.7187 42.8528 27.604C43.4542 26.4747 44.2608 25.6387 45.2728 25.096C46.2995 24.5387 47.4435 24.26 48.7048 24.26ZM48.3968 32.862C48.0888 32.862 47.8102 32.928 47.5608 33.06C47.3115 33.1773 47.1062 33.3533 46.9448 33.588C46.7835 33.8227 46.7028 34.1013 46.7028 34.424C46.7028 34.732 46.7835 35.0107 46.9448 35.26C47.1062 35.4947 47.3115 35.678 47.5608 35.81C47.8248 35.9273 48.1035 35.986 48.3968 35.986C48.9395 35.986 49.3502 35.854 49.6288 35.59C49.9222 35.3113 50.0688 34.9227 50.0688 34.424C50.0688 34.0867 50.0028 33.808 49.8708 33.588C49.7388 33.3533 49.5482 33.1773 49.2988 33.06C49.0642 32.928 48.7635 32.862 48.3968 32.862ZM58.2028 39V31.476C58.2028 31.036 58.2028 30.596 58.2028 30.156C58.2028 29.7013 58.2101 29.2467 58.2248 28.792C57.7408 29.2173 57.2128 29.584 56.6408 29.892C56.0835 30.2 55.4968 30.4053 54.8808 30.508L54.5728 26.856C54.9835 26.8267 55.4088 26.7313 55.8488 26.57C56.3035 26.4087 56.7361 26.218 57.1468 25.998C57.5575 25.7633 57.9241 25.5213 58.2468 25.272C58.5841 25.008 58.8335 24.744 58.9948 24.48H62.5368V39H58.2028ZM30.7113 48.48C31.958 48.48 33.014 48.678 33.8793 49.074C34.7593 49.4553 35.4267 50.02 35.8813 50.768C36.3507 51.5013 36.5853 52.4033 36.5853 53.474C36.5853 54.5447 36.3507 55.454 35.8813 56.202C35.4267 56.9353 34.7593 57.5 33.8793 57.896C33.014 58.2773 31.958 58.468 30.7113 58.468H27.9833V63H23.4953V48.48H30.7113ZM29.9853 55.212C30.6453 55.212 31.1587 55.0727 31.5253 54.794C31.892 54.5007 32.0753 54.0607 32.0753 53.474C32.0753 52.8873 31.892 52.4547 31.5253 52.176C31.1587 51.8827 30.6453 51.736 29.9853 51.736H27.9833V55.212H29.9853ZM45.3738 48.26C46.8845 48.26 48.1751 48.5607 49.2458 49.162C50.3311 49.7487 51.1598 50.5993 51.7318 51.714C52.3185 52.8287 52.6118 54.1707 52.6118 55.74C52.6118 57.3093 52.3185 58.6513 51.7318 59.766C51.1598 60.8807 50.3311 61.7387 49.2458 62.34C48.1751 62.9267 46.8845 63.22 45.3738 63.22C43.8778 63.22 42.5798 62.9267 41.4798 62.34C40.3945 61.7387 39.5585 60.8807 38.9718 59.766C38.3851 58.6513 38.0918 57.3093 38.0918 55.74C38.0918 54.1707 38.3851 52.8287 38.9718 51.714C39.5585 50.5993 40.3945 49.7487 41.4798 49.162C42.5798 48.5607 43.8778 48.26 45.3738 48.26ZM45.3738 51.692C44.7725 51.692 44.2738 51.846 43.8778 52.154C43.4965 52.4473 43.2031 52.8873 42.9978 53.474C42.8071 54.0607 42.7118 54.816 42.7118 55.74C42.7118 56.6493 42.8071 57.4047 42.9978 58.006C43.2031 58.5927 43.4965 59.04 43.8778 59.348C44.2738 59.6413 44.7725 59.788 45.3738 59.788C45.9605 59.788 46.4518 59.6413 46.8478 59.348C47.2438 59.04 47.5371 58.5927 47.7278 58.006C47.9185 57.4047 48.0138 56.6493 48.0138 55.74C48.0138 54.816 47.9185 54.0607 47.7278 53.474C47.5371 52.8873 47.2438 52.4473 46.8478 52.154C46.4518 51.846 45.9605 51.692 45.3738 51.692ZM61.5086 48.26C63.0192 48.26 64.3099 48.5607 65.3806 49.162C66.4659 49.7487 67.2946 50.5993 67.8666 51.714C68.4532 52.8287 68.7466 54.1707 68.7466 55.74C68.7466 57.3093 68.4532 58.6513 67.8666 59.766C67.2946 60.8807 66.4659 61.7387 65.3806 62.34C64.3099 62.9267 63.0192 63.22 61.5086 63.22C60.0126 63.22 58.7146 62.9267 57.6146 62.34C56.5292 61.7387 55.6932 60.8807 55.1066 59.766C54.5199 58.6513 54.2266 57.3093 54.2266 55.74C54.2266 54.1707 54.5199 52.8287 55.1066 51.714C55.6932 50.5993 56.5292 49.7487 57.6146 49.162C58.7146 48.5607 60.0126 48.26 61.5086 48.26ZM61.5086 51.692C60.9072 51.692 60.4086 51.846 60.0126 52.154C59.6312 52.4473 59.3379 52.8873 59.1326 53.474C58.9419 54.0607 58.8466 54.816 58.8466 55.74C58.8466 56.6493 58.9419 57.4047 59.1326 58.006C59.3379 58.5927 59.6312 59.04 60.0126 59.348C60.4086 59.6413 60.9072 59.788 61.5086 59.788C62.0952 59.788 62.5866 59.6413 62.9826 59.348C63.3786 59.04 63.6719 58.5927 63.8626 58.006C64.0532 57.4047 64.1486 56.6493 64.1486 55.74C64.1486 54.816 64.0532 54.0607 63.8626 53.474C63.6719 52.8873 63.3786 52.4473 62.9826 52.154C62.5866 51.846 62.0952 51.692 61.5086 51.692ZM75.3993 59.634H82.3073V63H70.9113V48.48H75.3993V59.634Z" fill="black"/>
<defs>
<linearGradient id="paint0_linear_17_3517" x1="52.0539" y1="0" x2="52.0539" y2="85.7797" gradientUnits="userSpaceOnUse">
<stop stop-color="#FFE592"/>
<stop offset="1" stop-color="#FFC357"/>
</linearGradient>
<linearGradient id="paint1_linear_17_3517" x1="51.9939" y1="0" x2="51.9939" y2="85.942" gradientUnits="userSpaceOnUse">
<stop stop-color="#6FD74A"/>
<stop offset="1" stop-color="#24A240"/>
</linearGradient>
<linearGradient id="paint2_linear_17_3517" x1="-16.6485" y1="18.3039" x2="27.3643" y2="18.3039" gradientUnits="userSpaceOnUse">
<stop stop-color="#F8AE31"/>
<stop offset="0.04" stop-color="#FAB622"/>
<stop offset="0.12" stop-color="#FBBF0F"/>
<stop offset="0.2" stop-color="#FDC504"/>
<stop offset="0.28" stop-color="#FDC700"/>
<stop offset="0.67" stop-color="#F8AE31"/>
<stop offset="0.89" stop-color="#FCC600"/>
<stop offset="1" stop-color="#F8AE31"/>
</linearGradient>
<linearGradient id="paint3_linear_17_3517" x1="-30955.6" y1="-240.47" x2="-28627.3" y2="-240.47" gradientUnits="userSpaceOnUse">
<stop stop-color="#F8AE31"/>
<stop offset="0.04" stop-color="#FAB622"/>
<stop offset="0.12" stop-color="#FBBF0F"/>
<stop offset="0.2" stop-color="#FDC504"/>
<stop offset="0.28" stop-color="#FDC700"/>
<stop offset="0.67" stop-color="#F8AE31"/>
<stop offset="0.89" stop-color="#FCC600"/>
<stop offset="1" stop-color="#F8AE31"/>
</linearGradient>
<linearGradient id="paint4_linear_17_3517" x1="-30643.5" y1="-224.237" x2="-28315.6" y2="-224.237" gradientUnits="userSpaceOnUse">
<stop stop-color="#F8AE31"/>
<stop offset="0.04" stop-color="#FAB622"/>
<stop offset="0.12" stop-color="#FBBF0F"/>
<stop offset="0.2" stop-color="#FDC504"/>
<stop offset="0.28" stop-color="#FDC700"/>
<stop offset="0.67" stop-color="#F8AE31"/>
<stop offset="0.89" stop-color="#FCC600"/>
<stop offset="1" stop-color="#F8AE31"/>
</linearGradient>
<linearGradient id="paint5_linear_17_3517" x1="-29586.7" y1="-152.581" x2="-27372.3" y2="-152.581" gradientUnits="userSpaceOnUse">
<stop stop-color="#F8AE31"/>
<stop offset="0.04" stop-color="#FAB622"/>
<stop offset="0.12" stop-color="#FBBF0F"/>
<stop offset="0.2" stop-color="#FDC504"/>
<stop offset="0.28" stop-color="#FDC700"/>
<stop offset="0.67" stop-color="#F8AE31"/>
<stop offset="0.89" stop-color="#FCC600"/>
<stop offset="1" stop-color="#F8AE31"/>
</linearGradient>
<linearGradient id="paint6_linear_17_3517" x1="84.0317" y1="-0.224611" x2="85.2548" y2="-0.224611" gradientUnits="userSpaceOnUse">
<stop stop-color="#F9B233"/>
<stop offset="1" stop-color="#D97213"/>
</linearGradient>
<linearGradient id="paint7_linear_17_3517" x1="-623.863" y1="-67.8966" x2="-622.065" y2="-67.8966" gradientUnits="userSpaceOnUse">
<stop stop-color="#F9B233"/>
<stop offset="1" stop-color="#D97213"/>
</linearGradient>
<linearGradient id="paint8_linear_17_3517" x1="-623.863" y1="-58.6044" x2="-622.065" y2="-58.6044" gradientUnits="userSpaceOnUse">
<stop stop-color="#F9B233"/>
<stop offset="1" stop-color="#D97213"/>
</linearGradient>
<linearGradient id="paint9_linear_17_3517" x1="-623.863" y1="-49.7395" x2="-622.065" y2="-49.7395" gradientUnits="userSpaceOnUse">
<stop stop-color="#F9B233"/>
<stop offset="1" stop-color="#D97213"/>
</linearGradient>
<linearGradient id="paint10_linear_17_3517" x1="-623.863" y1="-40.0375" x2="-622.065" y2="-40.0375" gradientUnits="userSpaceOnUse">
<stop stop-color="#F9B233"/>
<stop offset="1" stop-color="#D97213"/>
</linearGradient>
<linearGradient id="paint11_linear_17_3517" x1="-623.863" y1="-31.1" x2="-622.065" y2="-31.1" gradientUnits="userSpaceOnUse">
<stop stop-color="#F9B233"/>
<stop offset="1" stop-color="#D97213"/>
</linearGradient>
<linearGradient id="paint12_linear_17_3517" x1="-609.782" y1="-77.165" x2="-608.008" y2="-77.165" gradientUnits="userSpaceOnUse">
<stop stop-color="#F9B233"/>
<stop offset="1" stop-color="#D97213"/>
</linearGradient>
<linearGradient id="paint13_linear_17_3517" x1="-609.782" y1="-67.8933" x2="-608.008" y2="-67.8933" gradientUnits="userSpaceOnUse">
<stop stop-color="#F9B233"/>
<stop offset="1" stop-color="#D97213"/>
</linearGradient>
<linearGradient id="paint14_linear_17_3517" x1="-609.782" y1="-58.6011" x2="-608.008" y2="-58.6011" gradientUnits="userSpaceOnUse">
<stop stop-color="#F9B233"/>
<stop offset="1" stop-color="#D97213"/>
</linearGradient>
<linearGradient id="paint15_linear_17_3517" x1="-609.782" y1="-49.7395" x2="-608.008" y2="-49.7395" gradientUnits="userSpaceOnUse">
<stop stop-color="#F9B233"/>
<stop offset="1" stop-color="#D97213"/>
</linearGradient>
<linearGradient id="paint16_linear_17_3517" x1="-609.782" y1="-40.0375" x2="-608.008" y2="-40.0375" gradientUnits="userSpaceOnUse">
<stop stop-color="#F9B233"/>
<stop offset="1" stop-color="#D97213"/>
</linearGradient>
<linearGradient id="paint17_linear_17_3517" x1="-609.782" y1="-31.1" x2="-608.008" y2="-31.1" gradientUnits="userSpaceOnUse">
<stop stop-color="#F9B233"/>
<stop offset="1" stop-color="#D97213"/>
</linearGradient>
<linearGradient id="paint18_linear_17_3517" x1="-605.216" y1="-77.1686" x2="-603.418" y2="-77.1686" gradientUnits="userSpaceOnUse">
<stop stop-color="#F9B233"/>
<stop offset="1" stop-color="#D97213"/>
</linearGradient>
<linearGradient id="paint19_linear_17_3517" x1="-609.966" y1="-65.9269" x2="-608.155" y2="-65.9269" gradientUnits="userSpaceOnUse">
<stop stop-color="#F9B233"/>
<stop offset="1" stop-color="#D97213"/>
</linearGradient>
<linearGradient id="paint20_linear_17_3517" x1="-605.215" y1="-58.5711" x2="-603.417" y2="-58.5711" gradientUnits="userSpaceOnUse">
<stop stop-color="#F9B233"/>
<stop offset="1" stop-color="#D97213"/>
</linearGradient>
<linearGradient id="paint21_linear_17_3517" x1="-610.26" y1="-50.9964" x2="-608.45" y2="-50.9964" gradientUnits="userSpaceOnUse">
<stop stop-color="#F9B233"/>
<stop offset="1" stop-color="#D97213"/>
</linearGradient>
<linearGradient id="paint22_linear_17_3517" x1="-605.215" y1="-40.0624" x2="-603.417" y2="-40.0624" gradientUnits="userSpaceOnUse">
<stop stop-color="#F9B233"/>
<stop offset="1" stop-color="#D97213"/>
</linearGradient>
<linearGradient id="paint23_linear_17_3517" x1="-605.216" y1="-31.1" x2="-603.418" y2="-31.1" gradientUnits="userSpaceOnUse">
<stop stop-color="#F9B233"/>
<stop offset="1" stop-color="#D97213"/>
</linearGradient>
<linearGradient id="paint24_linear_17_3517" x1="-591.217" y1="-77.165" x2="-589.444" y2="-77.165" gradientUnits="userSpaceOnUse">
<stop stop-color="#F9B233"/>
<stop offset="1" stop-color="#D97213"/>
</linearGradient>
<linearGradient id="paint25_linear_17_3517" x1="-591.217" y1="-67.8933" x2="-589.444" y2="-67.8933" gradientUnits="userSpaceOnUse">
<stop stop-color="#F9B233"/>
<stop offset="1" stop-color="#D97213"/>
</linearGradient>
<linearGradient id="paint26_linear_17_3517" x1="-591.217" y1="-58.6011" x2="-589.444" y2="-58.6011" gradientUnits="userSpaceOnUse">
<stop stop-color="#F9B233"/>
<stop offset="1" stop-color="#D97213"/>
</linearGradient>
<linearGradient id="paint27_linear_17_3517" x1="-591.217" y1="-49.7395" x2="-589.444" y2="-49.7395" gradientUnits="userSpaceOnUse">
<stop stop-color="#F9B233"/>
<stop offset="1" stop-color="#D97213"/>
</linearGradient>
<linearGradient id="paint28_linear_17_3517" x1="-591.217" y1="-40.0375" x2="-589.444" y2="-40.0375" gradientUnits="userSpaceOnUse">
<stop stop-color="#F9B233"/>
<stop offset="1" stop-color="#D97213"/>
</linearGradient>
<linearGradient id="paint29_linear_17_3517" x1="-591.217" y1="-31.1" x2="-589.444" y2="-31.1" gradientUnits="userSpaceOnUse">
<stop stop-color="#F9B233"/>
<stop offset="1" stop-color="#D97213"/>
</linearGradient>
<linearGradient id="paint30_linear_17_3517" x1="19.2275" y1="70.7366" x2="19.2275" y2="73.399" gradientUnits="userSpaceOnUse">
<stop stop-color="#F4A82E"/>
<stop offset="1" stop-color="#FF8C1A"/>
</linearGradient>
<linearGradient id="paint31_linear_17_3517" x1="19.2275" y1="64.9126" x2="19.2275" y2="67.5833" gradientUnits="userSpaceOnUse">
<stop stop-color="#F4A82E"/>
<stop offset="1" stop-color="#FF8C1A"/>
</linearGradient>
<linearGradient id="paint32_linear_17_3517" x1="22.1437" y1="68.2239" x2="22.1437" y2="70.0709" gradientUnits="userSpaceOnUse">
<stop stop-color="#F4A82E"/>
<stop offset="1" stop-color="#FF8C1A"/>
</linearGradient>
<linearGradient id="paint33_linear_17_3517" x1="16.328" y1="68.2239" x2="16.328" y2="70.0709" gradientUnits="userSpaceOnUse">
<stop stop-color="#F4A82E"/>
<stop offset="1" stop-color="#FF8C1A"/>
</linearGradient>
<linearGradient id="paint34_linear_17_3517" x1="87.3733" y1="72.3899" x2="87.3733" y2="86.534" gradientUnits="userSpaceOnUse">
<stop stop-color="#F4A92E"/>
<stop offset="1" stop-color="#DB7615"/>
</linearGradient>
</defs>
</svg>
