<svg width="274" height="228" viewBox="0 0 274 228" fill="none" xmlns="http://www.w3.org/2000/svg">
<rect width="274" height="228" rx="24" fill="url(#paint0_linear)"/>
<mask id="mask0" mask-type="alpha" maskUnits="userSpaceOnUse" x="0" y="0" width="274" height="228">
<rect width="274" height="228" rx="24" fill="url(#paint1_linear)"/>
</mask>
<g mask="url(#mask0)">
<g style="mix-blend-mode:multiply" opacity="0.5">
<path d="M88.6833 20.2581V22.6957C88.0473 22.6347 87.4367 22.4155 86.907 22.0582C86.3774 21.7009 85.9456 21.2167 85.6507 20.6498C85.0848 19.8663 84.6931 19.344 83.8805 19.344C83.068 19.344 82.6617 19.8663 82.0958 20.6498C81.8079 21.2123 81.3806 21.6916 80.8549 22.0422C80.3291 22.3927 79.7223 22.6027 79.0923 22.6522C78.454 22.5991 77.8401 22.3831 77.3092 22.0249C76.7783 21.6667 76.3481 21.1783 76.0597 20.6063C75.5084 19.8228 75.1311 19.3004 74.3041 19.3004C73.477 19.3004 73.0997 19.8228 72.5339 20.6063C72.2469 21.1763 71.8191 21.6634 71.2908 22.0215C70.7626 22.3796 70.1516 22.5967 69.516 22.6522C68.8772 22.6005 68.2626 22.385 67.7315 22.0267C67.2003 21.6683 66.7704 21.1791 66.4833 20.6063C65.9174 19.8228 65.5548 19.3004 64.7132 19.3004C63.8717 19.3004 63.5233 19.8228 62.9574 20.6063C62.6704 21.1791 62.2405 21.6683 61.7093 22.0267C61.1781 22.385 60.5636 22.6005 59.9248 22.6522C59.2892 22.5967 58.6782 22.3796 58.1499 22.0215C57.6217 21.6634 57.1938 21.1763 56.9069 20.6063C56.3411 19.8228 55.9782 19.3004 55.1511 19.3004C54.3241 19.3004 53.9323 19.8228 53.3664 20.6063C53.0901 21.1903 52.6611 21.6888 52.1247 22.0489C51.5882 22.409 50.9645 22.6175 50.3194 22.6522C49.6834 22.5911 49.0728 22.372 48.5431 22.0147C48.0135 21.6573 47.5816 21.1732 47.2868 20.6063C46.7209 19.8228 46.3292 19.3004 45.5021 19.3004C44.675 19.3004 44.2978 19.8228 43.7319 20.6063C43.4472 21.178 43.0199 21.6667 42.4912 22.025C41.9626 22.3834 41.3504 22.5994 40.7139 22.6522C40.0756 22.5991 39.4617 22.3831 38.9308 22.0249C38.3998 21.6667 37.9696 21.1783 37.6815 20.6063C37.1156 19.8228 36.7527 19.3004 35.9111 19.3004C35.0695 19.3004 34.7215 19.8228 34.1556 20.6063C33.8686 21.1763 33.4407 21.6634 32.9124 22.0215C32.3842 22.3796 31.7732 22.5967 31.1374 22.6522C30.4988 22.6005 29.8842 22.385 29.353 22.0267C28.8219 21.6683 28.392 21.1791 28.1048 20.6063C27.539 19.8228 27.1762 19.3004 26.3346 19.3004C25.4931 19.3004 25.1448 19.8228 24.579 20.6063C24.2918 21.1791 23.862 21.6683 23.3308 22.0267C22.7996 22.385 22.1851 22.6005 21.5466 22.6522C20.9107 22.5967 20.2997 22.3796 19.7716 22.0215C19.2433 21.6634 18.8154 21.1763 18.5284 20.6063C17.9625 19.8228 17.5852 19.3004 16.7582 19.3004C15.9311 19.3004 15.5393 19.8228 14.9735 20.6063C14.7021 21.1911 14.2764 21.6907 13.742 22.0513C13.2076 22.4118 12.5847 22.6196 11.9409 22.6522V20.2581C12.855 20.2581 13.1597 19.7357 13.7256 18.9522C14.0032 18.3799 14.422 17.8878 14.9423 17.5222C15.4627 17.1567 16.0677 16.9297 16.7001 16.8628C17.3371 16.9142 17.9499 17.1296 18.4787 17.4882C19.0076 17.8467 19.4347 18.3361 19.7182 18.9087C20.2841 19.6922 20.6613 20.2146 21.4884 20.2146C22.3154 20.2146 22.6927 19.6922 23.2586 18.9087C23.5434 18.337 23.9707 17.8483 24.4994 17.4899C25.028 17.1316 25.6401 16.9156 26.2766 16.8628C26.9149 16.9159 27.5289 17.1319 28.0599 17.4901C28.5908 17.8483 29.021 18.3367 29.3092 18.9087C29.875 19.6922 30.2523 20.2146 31.0794 20.2146C31.9064 20.2146 32.2692 19.6922 32.835 18.9087C33.122 18.3387 33.5499 17.8515 34.0782 17.4935C34.6064 17.1354 35.2174 16.9183 35.8531 16.8628C36.4918 16.9145 37.1063 17.13 37.6375 17.4883C38.1687 17.8467 38.5985 18.3358 38.8856 18.9087C39.4515 19.6922 39.8143 20.2146 40.6558 20.2146C41.4974 20.2146 41.8456 19.6922 42.4115 18.9087C42.6998 18.3367 43.13 17.8483 43.6609 17.4901C44.1919 17.1319 44.8058 16.9159 45.4441 16.8628C46.0823 16.9159 46.6963 17.1319 47.2273 17.4901C47.7582 17.8483 48.1884 18.3367 48.4767 18.9087C49.0426 19.6922 49.3472 20.2146 50.2613 20.2146C51.1754 20.2146 51.4801 19.6922 52.046 18.9087C52.3343 18.3367 52.7645 17.8483 53.2955 17.4901C53.8264 17.1319 54.4404 16.9159 55.0786 16.8628C55.7169 16.9159 56.3309 17.1319 56.8618 17.4901C57.3927 17.8483 57.8229 18.3367 58.1111 18.9087C58.677 19.6922 59.0397 20.2146 59.8668 20.2146C60.6939 20.2146 61.0711 19.6922 61.637 18.9087C61.924 18.3387 62.3519 17.8515 62.8802 17.4935C63.4084 17.1354 64.0194 16.9183 64.655 16.8628C65.2938 16.9145 65.9082 17.13 66.4395 17.4883C66.9707 17.8467 67.4006 18.3358 67.6876 18.9087C68.2535 19.6922 68.6307 20.2146 69.4578 20.2146C70.2848 20.2146 70.6476 19.6922 71.2135 18.9087C71.5018 18.3367 71.9319 17.8483 72.4629 17.4901C72.9938 17.1319 73.6077 16.9159 74.246 16.8628C74.8826 16.9156 75.4947 17.1316 76.0233 17.4899C76.5521 17.8483 76.9794 18.337 77.2641 18.9087C77.8299 19.6922 78.2073 20.2146 79.0344 20.2146C79.8615 20.2146 80.2241 19.6922 80.7899 18.9087C81.0782 18.3367 81.5085 17.8483 82.0394 17.4901C82.5703 17.1319 83.1842 16.9159 83.8225 16.8628C84.4612 16.9145 85.0758 17.13 85.6069 17.4883C86.1381 17.8467 86.5679 18.3358 86.855 18.9087C87.4644 19.6922 87.7982 20.2581 88.6833 20.2581Z" fill="url(#paint2_linear)"/>
<path d="M97.7095 25.8877V28.3253C97.0724 28.2615 96.4609 28.0414 95.9294 27.6845C95.3978 27.3276 94.9627 26.8449 94.6623 26.2794C94.0964 25.4959 93.7193 24.9735 92.8923 24.9735C92.0652 24.9735 91.6878 25.4959 91.1219 26.2794C90.835 26.8494 90.4072 27.3366 89.879 27.6946C89.3507 28.0527 88.7397 28.2698 88.104 28.3253C87.4653 28.2736 86.8508 28.0581 86.3196 27.6998C85.7884 27.3414 85.3585 26.8523 85.0715 26.2794C84.5056 25.4959 84.1428 24.9735 83.3013 24.9735C82.4597 24.9735 82.1115 25.4959 81.5456 26.2794C81.2573 26.8514 80.8272 27.3398 80.2961 27.698C79.7652 28.0562 79.1512 28.2722 78.5129 28.3253C77.8765 28.2725 77.2643 28.0565 76.7357 27.6981C76.207 27.3398 75.7797 26.8511 75.495 26.2794C74.9291 25.4959 74.5519 24.9735 73.7248 24.9735C72.8977 24.9735 72.535 25.4959 71.9691 26.2794C71.6808 26.8514 71.2506 27.3398 70.7197 27.698C70.1888 28.0562 69.5748 28.2722 68.9366 28.3253C68.2996 28.2739 67.6868 28.0585 67.1579 27.6999C66.6291 27.3414 66.202 26.852 65.9185 26.2794C65.3526 25.4959 64.9754 24.9735 64.1483 24.9735C63.3213 24.9735 62.9294 25.4959 62.3635 26.2794C62.0923 26.8642 61.6664 27.3638 61.132 27.7244C60.5976 28.0849 59.9749 28.2927 59.3311 28.3253C58.6939 28.2615 58.0825 28.0414 57.551 27.6845C57.0194 27.3276 56.5842 26.8449 56.284 26.2794C55.7181 25.4959 55.3409 24.9735 54.5138 24.9735C53.6868 24.9735 53.3095 25.4959 52.7436 26.2794C52.4553 26.8514 52.0251 27.3398 51.4942 27.698C50.9633 28.0562 50.3494 28.2722 49.7111 28.3253C49.0745 28.2725 48.4624 28.0565 47.9338 27.6981C47.405 27.3398 46.9777 26.8511 46.693 26.2794C46.1271 25.4959 45.7499 24.9735 44.9228 24.9735C44.0958 24.9735 43.733 25.4959 43.1671 26.2794C42.8788 26.8514 42.4488 27.3398 41.9177 27.698C41.3868 28.0562 40.7729 28.2722 40.1346 28.3253C39.4981 28.2725 38.8859 28.0565 38.3573 27.6981C37.8286 27.3398 37.4012 26.8511 37.1166 26.2794C36.5507 25.4959 36.1733 24.9735 35.3462 24.9735C34.5192 24.9735 34.142 25.4959 33.5762 26.2794C33.2925 26.852 32.8655 27.3414 32.3366 27.6999C31.8077 28.0585 31.195 28.2739 30.5581 28.3253C29.9211 28.2739 29.3085 28.0585 28.7795 27.6999C28.2506 27.3414 27.8236 26.852 27.5399 26.2794C26.9741 25.4959 26.597 24.9735 25.7699 24.9735C24.9428 24.9735 24.5511 25.4959 23.9852 26.2794C23.7125 26.8632 23.2864 27.362 22.7523 27.7224C22.218 28.0827 21.596 28.2911 20.9526 28.3253V25.8877C21.8668 25.8877 22.1713 25.3798 22.7372 24.5818C23.022 24.0101 23.4493 23.5214 23.9779 23.163C24.5067 22.8047 25.1188 22.5887 25.7554 22.5359C26.3969 22.5905 27.0134 22.8103 27.5449 23.1739C28.0764 23.5375 28.5046 24.0325 28.7879 24.6108C29.3538 25.4088 29.7311 25.9167 30.5581 25.9167C31.3852 25.9167 31.7624 25.4088 32.3283 24.6108C32.6118 24.0382 33.0389 23.5488 33.5678 23.1903C34.0966 22.8318 34.7094 22.6163 35.3462 22.5649C35.9832 22.6163 36.5959 22.8318 37.1248 23.1903C37.6537 23.5488 38.0807 24.0382 38.3644 24.6108C38.9303 25.4088 39.3075 25.9167 40.1346 25.9167C40.9617 25.9167 41.3389 25.4088 41.9048 24.6108C42.1883 24.0382 42.6153 23.5488 43.1442 23.1903C43.6731 22.8318 44.2859 22.6163 44.9228 22.5649C45.5611 22.618 46.175 22.834 46.7059 23.1922C47.2369 23.5504 47.6671 24.0388 47.9552 24.6108C48.5211 25.4088 48.884 25.9167 49.7111 25.9167C50.5381 25.9167 50.9152 25.4088 51.4811 24.6108C51.7681 24.0408 52.196 23.5536 52.7243 23.1956C53.2525 22.8375 53.8635 22.6204 54.4993 22.5649C55.1401 22.6156 55.757 22.8305 56.2907 23.1888C56.8244 23.5471 57.2569 24.0369 57.5464 24.6108C58.1122 25.4088 58.417 25.9167 59.3311 25.9167C60.2452 25.9167 60.5499 25.4088 61.1158 24.6108C61.4028 24.038 61.8327 23.5488 62.3639 23.1904C62.8951 22.8321 63.5096 22.6167 64.1483 22.5649C64.7852 22.6163 65.3979 22.8318 65.9268 23.1903C66.4557 23.5488 66.8828 24.0382 67.1664 24.6108C67.7323 25.4088 68.1095 25.9167 68.9366 25.9167C69.7636 25.9167 70.1407 25.4088 70.7066 24.6108C70.9903 24.0382 71.4173 23.5488 71.9462 23.1903C72.4752 22.8318 73.0878 22.6163 73.7248 22.5649C74.3616 22.6163 74.9744 22.8318 75.5033 23.1903C76.0321 23.5488 76.4592 24.0382 76.7428 24.6108C77.3087 25.4088 77.6858 25.9167 78.5129 25.9167C79.3399 25.9167 79.7173 25.4088 80.2832 24.6108C80.5679 24.0391 80.9952 23.5504 81.524 23.1921C82.0526 22.8337 82.6647 22.6177 83.3013 22.5649C83.942 22.6156 84.559 22.8305 85.0926 23.1888C85.6263 23.5471 86.0587 24.0369 86.3483 24.6108C86.9142 25.4088 87.2768 25.9167 88.1184 25.9167C88.9599 25.9167 89.3083 25.4088 89.8742 24.6108C90.1611 24.0408 90.5891 23.5536 91.1173 23.1956C91.6456 22.8375 92.2564 22.6204 92.8923 22.5649C93.5305 22.618 94.1444 22.834 94.6754 23.1922C95.2063 23.5504 95.6365 24.0388 95.9247 24.6108C96.505 25.3798 96.7954 25.8877 97.7095 25.8877Z" fill="url(#paint3_linear)"/>
<path d="M107.619 31.5757V33.9989C106.984 33.9353 106.375 33.7151 105.845 33.358C105.316 33.001 104.884 32.5181 104.587 31.953C104.021 31.1695 103.644 30.6471 102.817 30.6471C101.989 30.6471 101.598 31.1695 101.032 31.953C100.743 32.5337 100.307 33.0283 99.7675 33.3873C99.2277 33.7464 98.6029 33.9572 97.9558 33.9989C97.3394 33.9285 96.7504 33.7043 96.2435 33.3468C95.7364 32.9893 95.3272 32.51 95.0538 31.953C94.4879 31.1695 94.1108 30.6471 93.2838 30.6471C92.4567 30.6471 92.0793 31.1695 91.5134 31.953C91.2287 32.5247 90.8014 33.0134 90.2727 33.3718C89.7441 33.7301 89.1319 33.9461 88.4954 33.9989C87.8571 33.9458 87.2432 33.7297 86.7123 33.3716C86.1812 33.0134 85.7511 32.525 85.4628 31.953C84.8969 31.1695 84.5342 30.6471 83.6926 30.6471C82.8511 30.6471 82.503 31.1695 81.9371 31.953C81.6523 32.5247 81.225 33.0134 80.6962 33.3718C80.1676 33.7301 79.5555 33.9461 78.9189 33.9989C78.2806 33.9458 77.6667 33.7297 77.1358 33.3716C76.6049 33.0134 76.1747 32.525 75.8864 31.953C75.3205 31.1695 74.9577 30.6471 74.1307 30.6471C73.3036 30.6471 72.9119 31.1695 72.346 31.953C72.0697 32.537 71.6407 33.0354 71.1042 33.3956C70.5679 33.7557 69.9442 33.9642 69.2989 33.9989C68.6629 33.9378 68.0524 33.7187 67.5226 33.3613C66.993 33.0039 66.5611 32.5199 66.2664 31.953C65.7005 31.1695 65.3087 30.6471 64.4817 30.6471C63.6546 30.6471 63.2775 31.1695 62.7116 31.953C62.4279 32.5255 62.0009 33.015 61.4719 33.3735C60.943 33.732 60.3304 33.9475 59.6934 33.9989C59.0551 33.9458 58.4412 33.7297 57.9103 33.3716C57.3794 33.0134 56.9492 32.525 56.6609 31.953C56.095 31.1695 55.7322 30.6471 54.9052 30.6471C54.0781 30.6471 53.7009 31.1695 53.135 31.953C52.8442 32.5289 52.4096 33.0199 51.8732 33.3784C51.3368 33.7368 50.7168 33.9506 50.0734 33.9989C49.4348 33.9471 48.8202 33.7317 48.289 33.3734C47.758 33.015 47.328 32.5258 47.0409 31.953C46.475 31.1695 46.1122 30.6471 45.2707 30.6471C44.4291 30.6471 44.0809 31.1695 43.515 31.953C43.2278 32.5258 42.7981 33.015 42.2669 33.3734C41.7357 33.7317 41.1212 33.9471 40.4824 33.9989C39.8468 33.9434 39.2358 33.7262 38.7076 33.3683C38.1793 33.0102 37.7514 32.5229 37.4644 31.953C36.8985 31.1695 36.5213 30.6471 35.7087 30.6471C34.8962 30.6471 34.4899 31.1695 33.924 31.953C33.6477 32.537 33.2187 33.0354 32.6823 33.3956C32.1458 33.7557 31.5222 33.9642 30.877 33.9989V31.5757C31.7911 31.5757 32.0958 31.0534 32.6617 30.2553C32.9521 29.6851 33.3829 29.1981 33.9134 28.8402C34.4439 28.4823 35.0568 28.2653 35.6944 28.2095C36.3318 28.2653 36.9445 28.4823 37.4751 28.8402C38.0056 29.1981 38.4363 29.6851 38.7268 30.2553C39.2926 31.0534 39.6554 31.5757 40.4824 31.5757C41.3095 31.5757 41.6868 31.0534 42.2526 30.2553C42.5418 29.6871 42.9703 29.2014 43.4982 28.8436C44.0259 28.4858 44.6357 28.2676 45.2707 28.2095C45.9087 28.2639 46.522 28.4805 47.0528 28.8385C47.5835 29.1966 48.0139 29.6843 48.3034 30.2553C48.8693 31.0534 49.2464 31.5757 50.0734 31.5757C50.9005 31.5757 51.2634 31.0534 51.8293 30.2553C52.1196 29.6851 52.5504 29.1981 53.0809 28.8402C53.6113 28.4823 54.2242 28.2653 54.8617 28.2095C55.497 28.2663 56.1075 28.484 56.6355 28.8419C57.1635 29.1998 57.5917 29.6862 57.8797 30.2553C58.4456 31.0534 58.8228 31.5757 59.6499 31.5757C60.477 31.5757 60.8397 31.0534 61.4056 30.2553C61.6961 29.6851 62.1269 29.1981 62.6573 28.8402C63.1878 28.4823 63.8007 28.2653 64.4383 28.2095C65.0786 28.2615 65.695 28.477 66.2285 28.8351C66.7619 29.1933 67.1946 29.6823 67.4852 30.2553C68.0511 31.0534 68.3558 31.5757 69.2699 31.5757C70.184 31.5757 70.4889 31.0534 71.0547 30.2553C71.3451 29.6851 71.7759 29.1981 72.3064 28.8402C72.8368 28.4823 73.4497 28.2653 74.0872 28.2095C74.7247 28.2653 75.3376 28.4823 75.8681 28.8402C76.3986 29.1981 76.8294 29.6851 77.1197 30.2553C77.6856 31.0534 78.0483 31.5757 78.8899 31.5757C79.7315 31.5757 80.0797 31.0534 80.6456 30.2553C80.9348 29.6871 81.3632 29.2014 81.8911 28.8436C82.4188 28.4858 83.0287 28.2676 83.6638 28.2095C84.3016 28.2639 84.9149 28.4805 85.4456 28.8385C85.9763 29.1966 86.4068 29.6843 86.6962 30.2553C87.262 31.0534 87.6394 31.5757 88.4665 31.5757C89.2936 31.5757 89.6562 31.0534 90.222 30.2553C90.5125 29.6851 90.9433 29.1981 91.4738 28.8402C92.0043 28.4823 92.6172 28.2653 93.2546 28.2095C93.89 28.2663 94.5004 28.484 95.0284 28.8419C95.5564 29.1998 95.9846 29.6862 96.2728 30.2553C96.8387 31.0534 97.2158 31.5757 98.0428 31.5757C98.8699 31.5757 99.2472 31.0534 99.7985 30.2553C100.089 29.6851 100.52 29.1981 101.05 28.8402C101.581 28.4823 102.194 28.2653 102.831 28.2095C103.469 28.2639 104.082 28.4805 104.613 28.8385C105.144 29.1966 105.574 29.6843 105.864 30.2553C106.4 31.0534 106.662 31.5757 107.619 31.5757Z" fill="url(#paint4_linear)"/>
<path d="M115.615 35.8852V38.3808H114.962C114.773 38.1632 114.614 37.9456 114.469 37.7424C113.917 36.9734 113.526 36.4656 112.699 36.4656C112.568 36.4497 112.437 36.4497 112.307 36.4656C111.755 36.6252 111.407 37.075 110.943 37.7279C110.798 37.931 110.653 38.1487 110.464 38.3663H105.386L104.892 37.7279C104.326 36.9444 103.964 36.422 103.137 36.422C102.31 36.422 101.932 36.9444 101.366 37.7279L100.888 38.3663H95.8091C95.6205 38.1487 95.4754 37.931 95.3158 37.7279C94.7644 36.9444 94.3872 36.422 93.5601 36.422C92.733 36.422 92.3558 36.9444 91.7899 37.7279L91.3111 38.3663H86.2182L85.7393 37.7279C85.1734 36.9444 84.8107 36.422 83.9836 36.422C83.1566 36.422 82.7648 36.9444 82.1989 37.7279C82.0393 37.931 81.8942 38.1487 81.7346 38.3663H76.5981L76.1193 37.7279C75.5534 36.9444 75.1762 36.422 74.3491 36.422C73.5221 36.422 73.1303 36.9444 72.5644 37.7279L72.0856 38.3663H66.9927C66.8271 38.1615 66.6723 37.9485 66.5283 37.7279C65.9625 36.9444 65.5852 36.422 64.7436 36.422C63.9021 36.422 63.5538 36.9444 62.9879 37.7279L62.5091 38.3663H57.4307C57.2421 38.1487 57.097 37.931 56.9374 37.7279C56.3715 36.9444 56.0087 36.422 55.1817 36.422C54.3546 36.422 53.9774 36.9444 53.4115 37.7279C53.2664 37.931 53.1068 38.1487 52.9327 38.3663H47.8397L47.3609 37.7279C46.795 36.9444 46.4323 36.422 45.5907 36.422C44.7491 36.422 44.3719 36.9444 43.806 37.7279C43.6609 37.931 43.5158 38.1487 43.3417 38.3663H40.7734V37.3361C41.6876 37.3361 41.9923 36.8138 42.5581 36.0157C42.8494 35.4474 43.2806 34.9626 43.8112 34.6071C44.3418 34.2518 44.9542 34.0373 45.5907 33.9844C46.2271 34.0373 46.8396 34.2518 47.3702 34.6071C47.9008 34.9626 48.332 35.4474 48.6232 36.0157C49.1891 36.8138 49.5519 37.3361 50.3789 37.3361C51.206 37.3361 51.5832 36.8138 52.1491 36.0157C52.4403 35.4474 52.8716 34.9626 53.4022 34.6071C53.9328 34.2518 54.5453 34.0373 55.1817 33.9844C55.8156 34.0398 56.425 34.2553 56.9529 34.6105C57.4808 34.9658 57.9097 35.4493 58.1997 36.0157C58.7656 36.8138 59.1429 37.3361 59.9699 37.3361C60.797 37.3361 61.1597 36.8138 61.7256 36.0157C62.0155 35.4493 62.4446 34.9658 62.9724 34.6105C63.5003 34.2553 64.1097 34.0398 64.7436 33.9844C65.3805 34.036 65.9934 34.2498 66.5241 34.6054C67.055 34.961 67.4861 35.4465 67.7762 36.0157C68.3421 36.8138 68.7193 37.3361 69.5464 37.3361C70.3734 37.3361 70.7362 36.8138 71.3021 36.0157C71.5933 35.4474 72.0245 34.9626 72.5551 34.6071C73.0858 34.2518 73.6981 34.0373 74.3346 33.9844C74.9713 34.036 75.5845 34.2498 76.1153 34.6054C76.646 34.961 77.077 35.4465 77.3672 36.0157C77.933 36.8138 78.2378 37.3361 79.1519 37.3361C80.066 37.3361 80.3707 36.8138 80.9366 36.0157C81.2278 35.4474 81.659 34.9626 82.1896 34.6071C82.7203 34.2518 83.3327 34.0373 83.9691 33.9844C84.6055 34.0373 85.218 34.2518 85.7486 34.6071C86.2791 34.9626 86.7105 35.4474 87.0017 36.0157C87.5531 36.8138 87.9303 37.3361 88.7719 37.3361C89.6134 37.3361 89.9617 36.8138 90.5276 36.0157C90.8188 35.4474 91.25 34.9626 91.7806 34.6071C92.3112 34.2518 92.9236 34.0373 93.5601 33.9844C94.1943 34.0384 94.8045 34.2534 95.3325 34.6087C95.8606 34.9642 96.2893 35.4484 96.5781 36.0157C97.144 36.8138 97.5213 37.3361 98.3483 37.3361C99.1754 37.3361 99.5527 36.8138 100.104 36.0157C100.395 35.4474 100.826 34.9626 101.357 34.6071C101.888 34.2518 102.5 34.0373 103.137 33.9844C103.771 34.0384 104.381 34.2534 104.909 34.6087C105.437 34.9642 105.866 35.4484 106.155 36.0157C106.72 36.8138 107.098 37.3361 107.925 37.3361C108.752 37.3361 109.115 36.8138 109.681 36.0157L110.232 35.2903C110.516 34.8957 110.889 34.5725 111.319 34.3458C111.75 34.1193 112.227 33.9955 112.713 33.9844C113.318 34.031 113.901 34.2296 114.408 34.562C114.915 34.8943 115.331 35.3495 115.615 35.8852Z" fill="url(#paint5_linear)"/>
</g>
<path fill-rule="evenodd" clip-rule="evenodd" d="M224.466 -0.94068C224.462 -0.658464 224.347 -0.389017 224.147 -0.190814C223.945 0.00739026 223.675 0.118536 223.392 0.118536C223.111 0.118536 222.842 0.00695539 222.644 -0.191684C222.445 -0.390323 222.333 -0.65977 222.333 -0.94068C222.333 -1.22159 222.445 -1.49104 222.644 -1.68968C222.842 -1.88832 223.111 -1.9999 223.392 -1.9999C223.533 -2.00187 223.672 -1.97595 223.801 -1.92357C223.932 -1.87119 224.051 -1.79342 224.151 -1.6949C224.251 -1.59638 224.33 -1.47885 224.385 -1.34942C224.438 -1.21999 224.466 -1.08099 224.466 -0.94068Z" fill="url(#paint6_linear)"/>
<path fill-rule="evenodd" clip-rule="evenodd" d="M224.466 5.63221C224.466 5.77252 224.439 5.91138 224.385 6.04081C224.33 6.17038 224.252 6.28777 224.152 6.38629C224.051 6.48481 223.932 6.56258 223.802 6.61496C223.673 6.66734 223.533 6.69332 223.393 6.69143C223.111 6.69143 222.843 6.57985 222.644 6.38107C222.445 6.18243 222.333 5.91312 222.333 5.63221C222.333 5.3513 222.445 5.08186 222.644 4.88322C222.843 4.68458 223.111 4.573 223.393 4.573C223.676 4.57285 223.946 4.684 224.147 4.88235C224.347 5.08055 224.462 5.34985 224.466 5.63221Z" fill="url(#paint7_linear)"/>
<path fill-rule="evenodd" clip-rule="evenodd" d="M224.466 12.2197C224.462 12.5019 224.347 12.7714 224.147 12.9696C223.946 13.1678 223.676 13.2789 223.393 13.2789C223.111 13.2789 222.843 13.1673 222.644 12.9687C222.445 12.7701 222.333 12.5006 222.333 12.2197C222.333 11.9388 222.445 11.6694 222.644 11.4707C222.843 11.2721 223.111 11.1605 223.393 11.1605C223.533 11.1586 223.673 11.1846 223.802 11.2368C223.932 11.2892 224.051 11.367 224.152 11.4655C224.252 11.564 224.33 11.6815 224.385 11.811C224.439 11.9404 224.466 12.0794 224.466 12.2197Z" fill="url(#paint8_linear)"/>
<path fill-rule="evenodd" clip-rule="evenodd" d="M224.466 18.7926C224.466 18.9335 224.439 19.0732 224.385 19.2035C224.331 19.3337 224.252 19.4521 224.152 19.5518C224.053 19.6515 223.934 19.7307 223.803 19.7845C223.673 19.8385 223.533 19.8663 223.393 19.8663C223.11 19.8624 222.841 19.7477 222.643 19.5467C222.445 19.3457 222.333 19.0748 222.333 18.7926C222.333 18.5117 222.445 18.2423 222.644 18.0436C222.843 17.845 223.111 17.7334 223.393 17.7334C223.676 17.7333 223.946 17.8444 224.147 18.0427C224.347 18.241 224.462 18.5103 224.466 18.7926Z" fill="url(#paint9_linear)"/>
<path fill-rule="evenodd" clip-rule="evenodd" d="M224.466 25.3803C224.462 25.6625 224.347 25.9319 224.147 26.1301C223.946 26.3283 223.676 26.4395 223.393 26.4395C223.111 26.4395 222.843 26.3279 222.644 26.1293C222.445 25.9306 222.333 25.6612 222.333 25.3803C222.333 25.0994 222.445 24.8299 222.644 24.6313C222.843 24.4326 223.111 24.321 223.393 24.321C223.676 24.321 223.946 24.432 224.147 24.6304C224.347 24.8286 224.462 25.098 224.466 25.3803Z" fill="url(#paint10_linear)"/>
<path fill-rule="evenodd" clip-rule="evenodd" d="M224.466 31.9533C224.466 32.0943 224.439 32.2339 224.385 32.3642C224.331 32.4943 224.252 32.6127 224.152 32.7124C224.053 32.8122 223.934 32.8913 223.803 32.9451C223.673 32.9991 223.533 33.027 223.393 33.027C223.11 33.0231 222.841 32.9083 222.643 32.7073C222.445 32.5064 222.333 32.2355 222.333 31.9533C222.333 31.6723 222.445 31.4029 222.644 31.2043C222.843 31.0056 223.111 30.894 223.393 30.894C223.676 30.894 223.946 31.005 224.147 31.2034C224.347 31.4016 224.462 31.671 224.466 31.9533Z" fill="url(#paint11_linear)"/>
<path fill-rule="evenodd" clip-rule="evenodd" d="M231.038 -0.940785C231.038 -0.659875 230.926 -0.390573 230.727 -0.191789C230.529 0.00685024 230.26 0.118431 229.979 0.118431C229.697 0.118431 229.429 0.00685024 229.23 -0.191789C229.031 -0.390573 228.919 -0.659875 228.919 -0.940785C228.919 -1.22169 229.031 -1.49114 229.23 -1.68978C229.429 -1.88842 229.697 -2 229.979 -2C230.26 -2 230.529 -1.88842 230.727 -1.68978C230.926 -1.49114 231.038 -1.22169 231.038 -0.940785Z" fill="url(#paint12_linear)"/>
<path fill-rule="evenodd" clip-rule="evenodd" d="M231.038 5.63221C231.038 5.91312 230.926 6.18243 230.727 6.38107C230.529 6.57985 230.26 6.69143 229.979 6.69143C229.697 6.69143 229.429 6.57985 229.23 6.38107C229.031 6.18243 228.919 5.91312 228.919 5.63221C228.919 5.3513 229.031 5.08186 229.23 4.88322C229.429 4.68458 229.697 4.573 229.979 4.573C230.26 4.573 230.529 4.68458 230.727 4.88322C230.926 5.08186 231.038 5.3513 231.038 5.63221Z" fill="url(#paint13_linear)"/>
<path fill-rule="evenodd" clip-rule="evenodd" d="M231.038 12.2196C231.038 12.5005 230.926 12.77 230.727 12.9686C230.529 13.1672 230.26 13.2788 229.979 13.2788C229.697 13.2788 229.429 13.1672 229.23 12.9686C229.031 12.77 228.919 12.5005 228.919 12.2196C228.919 11.9387 229.031 11.6693 229.23 11.4706C229.429 11.272 229.697 11.1604 229.979 11.1604C230.26 11.1604 230.529 11.272 230.727 11.4706C230.926 11.6693 231.038 11.9387 231.038 12.2196Z" fill="url(#paint14_linear)"/>
<path fill-rule="evenodd" clip-rule="evenodd" d="M231.038 18.7926C231.038 19.0748 230.926 19.3457 230.729 19.5467C230.53 19.7477 230.262 19.8624 229.979 19.8663C229.697 19.8624 229.427 19.7477 229.229 19.5467C229.031 19.3457 228.919 19.0748 228.919 18.7926C228.919 18.5117 229.031 18.2423 229.23 18.0436C229.429 17.845 229.697 17.7334 229.979 17.7334C230.26 17.7334 230.529 17.845 230.727 18.0436C230.926 18.2423 231.038 18.5117 231.038 18.7926Z" fill="url(#paint15_linear)"/>
<path fill-rule="evenodd" clip-rule="evenodd" d="M231.038 25.3803C231.038 25.6612 230.926 25.9306 230.727 26.1293C230.529 26.3279 230.26 26.4395 229.979 26.4395C229.697 26.4395 229.429 26.3279 229.23 26.1293C229.031 25.9306 228.919 25.6612 228.919 25.3803C228.919 25.0994 229.031 24.8299 229.23 24.6313C229.429 24.4326 229.697 24.321 229.979 24.321C230.26 24.321 230.529 24.4326 230.727 24.6313C230.926 24.8299 231.038 25.0994 231.038 25.3803Z" fill="url(#paint16_linear)"/>
<path fill-rule="evenodd" clip-rule="evenodd" d="M231.038 31.9533C231.038 32.2355 230.926 32.5064 230.729 32.7073C230.53 32.9083 230.262 33.0231 229.979 33.027C229.697 33.0231 229.427 32.9083 229.229 32.7073C229.031 32.5064 228.919 32.2355 228.919 31.9533C228.919 31.6723 229.031 31.4029 229.23 31.2043C229.429 31.0056 229.697 30.894 229.979 30.894C230.26 30.894 230.529 31.0056 230.727 31.2043C230.926 31.4029 231.038 31.6723 231.038 31.9533Z" fill="url(#paint17_linear)"/>
<path fill-rule="evenodd" clip-rule="evenodd" d="M237.627 -0.94068C237.623 -0.658464 237.508 -0.389017 237.308 -0.190814C237.106 0.00739026 236.836 0.118536 236.553 0.118536C236.272 0.118536 236.003 0.00695539 235.805 -0.191684C235.606 -0.390323 235.494 -0.65977 235.494 -0.94068C235.494 -1.22159 235.606 -1.49104 235.805 -1.68968C236.003 -1.88832 236.272 -1.9999 236.553 -1.9999C236.694 -2.00187 236.833 -1.97595 236.964 -1.92357C237.093 -1.87119 237.212 -1.79342 237.312 -1.6949C237.412 -1.59638 237.491 -1.47885 237.546 -1.34942C237.599 -1.21999 237.627 -1.08099 237.627 -0.94068Z" fill="url(#paint18_linear)"/>
<path fill-rule="evenodd" clip-rule="evenodd" d="M237.627 5.63241C237.627 5.77272 237.599 5.91157 237.546 6.041C237.491 6.17057 237.412 6.28796 237.312 6.38648C237.212 6.485 237.093 6.56277 236.964 6.61515C236.833 6.66753 236.694 6.69351 236.553 6.69162C236.272 6.69162 236.003 6.58004 235.805 6.38126C235.606 6.18262 235.494 5.91332 235.494 5.63241C235.509 5.35904 235.629 5.10222 235.829 4.91562C236.03 4.72888 236.294 4.62702 236.568 4.63123C236.851 4.63108 237.121 4.74223 237.322 4.94058C237.523 5.13878 237.637 5.40808 237.642 5.69045L237.627 5.63241Z" fill="url(#paint19_linear)"/>
<path fill-rule="evenodd" clip-rule="evenodd" d="M237.627 12.2198C237.633 12.3632 237.609 12.5062 237.559 12.6406C237.509 12.7751 237.432 12.898 237.334 13.002C237.235 13.1062 237.116 13.1895 236.984 13.2471C236.853 13.3045 236.711 13.3352 236.568 13.337C236.428 13.337 236.29 13.3096 236.163 13.2564C236.034 13.2031 235.917 13.1251 235.819 13.0267C235.72 12.9285 235.642 12.8116 235.59 12.6831C235.536 12.5545 235.508 12.4168 235.508 12.2778C235.508 12.1387 235.536 12.001 235.59 11.8724C235.642 11.7439 235.72 11.6272 235.819 11.5288C235.917 11.4305 236.034 11.3524 236.163 11.2991C236.29 11.2459 236.428 11.2186 236.568 11.2186C236.708 11.2166 236.848 11.2426 236.977 11.2949C237.107 11.3473 237.226 11.4251 237.326 11.5236C237.426 11.6221 237.505 11.7395 237.56 11.8691C237.614 11.9985 237.641 12.1374 237.641 12.2778L237.627 12.2198Z" fill="url(#paint20_linear)"/>
<path fill-rule="evenodd" clip-rule="evenodd" d="M237.628 18.7928C237.628 19.0775 237.515 19.3507 237.313 19.552C237.111 19.7534 236.839 19.8665 236.554 19.8665C236.271 19.8628 236.003 19.7478 235.804 19.5469C235.607 19.3459 235.495 19.075 235.495 18.7928C235.489 18.6489 235.512 18.5052 235.565 18.3706C235.615 18.2361 235.694 18.1135 235.794 18.0101C235.895 17.907 236.016 17.8253 236.148 17.7703C236.281 17.7153 236.425 17.6879 236.569 17.6901C236.85 17.6901 237.122 17.8012 237.323 17.9994C237.523 18.1976 237.638 18.4671 237.642 18.7493L237.628 18.7928Z" fill="url(#paint21_linear)"/>
<path fill-rule="evenodd" clip-rule="evenodd" d="M237.627 25.3801C237.612 25.6521 237.495 25.9085 237.297 26.0972C237.101 26.2856 236.84 26.3924 236.568 26.3958C236.428 26.3958 236.29 26.3684 236.163 26.3151C236.034 26.2618 235.917 26.1838 235.819 26.0856C235.72 25.9872 235.642 25.8704 235.59 25.7418C235.536 25.6134 235.508 25.4756 235.508 25.3366C235.508 25.1974 235.536 25.0597 235.59 24.9312C235.642 24.8027 235.72 24.6859 235.819 24.5876C235.917 24.4892 236.034 24.4111 236.163 24.3579C236.29 24.3048 236.428 24.2773 236.568 24.2773C236.85 24.2773 237.12 24.3883 237.322 24.5867C237.522 24.7849 237.637 25.0543 237.641 25.3366L237.627 25.3801Z" fill="url(#paint22_linear)"/>
<path fill-rule="evenodd" clip-rule="evenodd" d="M237.627 31.9533C237.627 32.2379 237.514 32.5112 237.312 32.7124C237.112 32.9138 236.838 33.027 236.553 33.027C236.272 33.0231 236.002 32.9083 235.803 32.7073C235.606 32.5064 235.494 32.2355 235.494 31.9533C235.494 31.6723 235.606 31.4029 235.805 31.2043C236.003 31.0056 236.272 30.894 236.553 30.894C236.836 30.894 237.106 31.005 237.308 31.2034C237.508 31.4016 237.623 31.671 237.627 31.9533Z" fill="url(#paint23_linear)"/>
<path fill-rule="evenodd" clip-rule="evenodd" d="M244.199 -0.940785C244.199 -0.659875 244.087 -0.390573 243.888 -0.191789C243.689 0.00685024 243.421 0.118431 243.139 0.118431C242.858 0.118431 242.589 0.00685024 242.391 -0.191789C242.192 -0.390573 242.08 -0.659875 242.08 -0.940785C242.08 -1.22169 242.192 -1.49114 242.391 -1.68978C242.589 -1.88842 242.858 -2 243.139 -2C243.421 -2 243.689 -1.88842 243.888 -1.68978C244.087 -1.49114 244.199 -1.22169 244.199 -0.940785Z" fill="url(#paint24_linear)"/>
<path fill-rule="evenodd" clip-rule="evenodd" d="M244.199 5.63221C244.199 5.91312 244.087 6.18243 243.888 6.38107C243.689 6.57985 243.421 6.69143 243.139 6.69143C242.858 6.69143 242.589 6.57985 242.391 6.38107C242.192 6.18243 242.08 5.91312 242.08 5.63221C242.08 5.3513 242.192 5.08186 242.391 4.88322C242.589 4.68458 242.858 4.573 243.139 4.573C243.421 4.573 243.689 4.68458 243.888 4.88322C244.087 5.08186 244.199 5.3513 244.199 5.63221Z" fill="url(#paint25_linear)"/>
<path fill-rule="evenodd" clip-rule="evenodd" d="M244.199 12.2196C244.199 12.5005 244.087 12.77 243.888 12.9686C243.689 13.1672 243.421 13.2788 243.139 13.2788C242.858 13.2788 242.589 13.1672 242.391 12.9686C242.192 12.77 242.08 12.5005 242.08 12.2196C242.08 11.9387 242.192 11.6693 242.391 11.4706C242.589 11.272 242.858 11.1604 243.139 11.1604C243.421 11.1604 243.689 11.272 243.888 11.4706C244.087 11.6693 244.199 11.9387 244.199 12.2196Z" fill="url(#paint26_linear)"/>
<path fill-rule="evenodd" clip-rule="evenodd" d="M244.199 18.7926C244.199 19.0748 244.087 19.3457 243.889 19.5467C243.691 19.7477 243.422 19.8624 243.139 19.8663C242.858 19.8624 242.588 19.7477 242.389 19.5467C242.192 19.3457 242.08 19.0748 242.08 18.7926C242.08 18.5117 242.192 18.2423 242.391 18.0436C242.589 17.845 242.858 17.7334 243.139 17.7334C243.421 17.7334 243.689 17.845 243.888 18.0436C244.087 18.2423 244.199 18.5117 244.199 18.7926Z" fill="url(#paint27_linear)"/>
<path fill-rule="evenodd" clip-rule="evenodd" d="M244.199 25.3803C244.199 25.6612 244.087 25.9306 243.888 26.1293C243.689 26.3279 243.421 26.4395 243.139 26.4395C242.858 26.4395 242.589 26.3279 242.391 26.1293C242.192 25.9306 242.08 25.6612 242.08 25.3803C242.08 25.0994 242.192 24.8299 242.391 24.6313C242.589 24.4326 242.858 24.321 243.139 24.321C243.421 24.321 243.689 24.4326 243.888 24.6313C244.087 24.8299 244.199 25.0994 244.199 25.3803Z" fill="url(#paint28_linear)"/>
<path fill-rule="evenodd" clip-rule="evenodd" d="M244.199 31.9533C244.199 32.2355 244.087 32.5064 243.889 32.7073C243.691 32.9083 243.422 33.0231 243.139 33.027C242.858 33.0231 242.588 32.9083 242.389 32.7073C242.192 32.5064 242.08 32.2355 242.08 31.9533C242.08 31.6723 242.192 31.4029 242.391 31.2043C242.589 31.0056 242.858 30.894 243.139 30.894C243.421 30.894 243.689 31.0056 243.888 31.2043C244.087 31.4029 244.199 31.6723 244.199 31.9533Z" fill="url(#paint29_linear)"/>
<path d="M91.4343 161.496C91.0098 161.496 90.6022 161.328 90.3005 161.029C89.999 160.73 89.8275 160.324 89.8237 159.9V158.449C89.8275 158.024 89.999 157.618 90.3005 157.319C90.6022 157.021 91.0098 156.853 91.4343 156.853C91.859 156.853 92.2665 157.021 92.5681 157.319C92.8698 157.618 93.0411 158.024 93.0449 158.449V159.9C93.0411 160.324 92.8698 160.73 92.5681 161.029C92.2665 161.328 91.859 161.496 91.4343 161.496Z" fill="url(#paint30_linear)" fill-opacity="0.5"/>
<path d="M91.4343 151.353C91.0098 151.353 90.6022 151.186 90.3005 150.887C89.999 150.588 89.8275 150.182 89.8237 149.757V148.306C89.8237 147.879 89.9934 147.47 90.2954 147.168C90.5975 146.866 91.0072 146.696 91.4343 146.696C91.8615 146.696 92.2711 146.866 92.5732 147.168C92.8753 147.47 93.0449 147.879 93.0449 148.306V149.757C93.0411 150.182 92.8698 150.588 92.5681 150.887C92.2665 151.186 91.859 151.353 91.4343 151.353Z" fill="url(#paint31_linear)" fill-opacity="0.5"/>
<path d="M97.2375 155.692H95.7865C95.362 155.688 94.956 155.517 94.6571 155.215C94.3582 154.913 94.1904 154.506 94.1904 154.081C94.1904 153.657 94.3582 153.249 94.6571 152.947C94.956 152.646 95.362 152.474 95.7865 152.471H97.2375C97.6647 152.471 98.0743 152.64 98.3764 152.942C98.6785 153.245 98.8481 153.654 98.8481 154.081C98.8481 154.508 98.6785 154.918 98.3764 155.22C98.0743 155.522 97.6647 155.692 97.2375 155.692Z" fill="url(#paint32_linear)" fill-opacity="0.5"/>
<path d="M87.1094 155.692H85.6584C85.2313 155.692 84.8217 155.522 84.5196 155.22C84.2176 154.918 84.0479 154.508 84.0479 154.081C84.0479 153.654 84.2176 153.245 84.5196 152.942C84.8217 152.64 85.2313 152.471 85.6584 152.471H87.1094C87.5341 152.474 87.94 152.646 88.2389 152.947C88.5379 153.249 88.7055 153.657 88.7055 154.081C88.7055 154.506 88.5379 154.913 88.2389 155.215C87.94 155.517 87.5341 155.688 87.1094 155.692Z" fill="url(#paint33_linear)" fill-opacity="0.5"/>
<g style="mix-blend-mode:multiply">
<path d="M204.386 100.8C203.962 100.8 203.554 100.632 203.253 100.333C202.951 100.035 202.78 99.6286 202.776 99.204V97.7531C202.78 97.3284 202.951 96.9225 203.253 96.6236C203.554 96.3247 203.962 96.157 204.386 96.157C204.811 96.157 205.219 96.3247 205.52 96.6236C205.822 96.9225 205.993 97.3284 205.997 97.7531V99.204C205.993 99.6286 205.822 100.035 205.52 100.333C205.219 100.632 204.811 100.8 204.386 100.8Z" fill="url(#paint34_linear)" fill-opacity="0.5"/>
<path d="M204.386 90.6576C203.962 90.6576 203.554 90.4901 203.253 90.191C202.951 89.8921 202.78 89.4863 202.776 89.0616V87.6106C202.776 87.1834 202.945 86.7738 203.248 86.4717C203.55 86.1698 203.959 86 204.386 86C204.814 86 205.223 86.1698 205.525 86.4717C205.827 86.7738 205.997 87.1834 205.997 87.6106V89.0616C205.993 89.4863 205.822 89.8921 205.52 90.191C205.219 90.4901 204.811 90.6576 204.386 90.6576Z" fill="url(#paint35_linear)" fill-opacity="0.5"/>
<path d="M210.19 94.9961H208.739C208.314 94.9923 207.908 94.8209 207.609 94.5193C207.31 94.2176 207.143 93.8102 207.143 93.3855C207.143 92.9609 207.31 92.5534 207.609 92.2517C207.908 91.9502 208.314 91.7787 208.739 91.7749H210.19C210.617 91.7749 211.026 91.9447 211.329 92.2466C211.631 92.5487 211.8 92.9583 211.8 93.3855C211.8 93.8127 211.631 94.2223 211.329 94.5244C211.026 94.8265 210.617 94.9961 210.19 94.9961Z" fill="url(#paint36_linear)" fill-opacity="0.5"/>
<path d="M200.062 94.9961H198.611C198.183 94.9961 197.774 94.8265 197.472 94.5244C197.17 94.2223 197 93.8127 197 93.3855C197 92.9583 197.17 92.5487 197.472 92.2466C197.774 91.9447 198.183 91.7749 198.611 91.7749H200.062C200.486 91.7787 200.892 91.9502 201.191 92.2517C201.49 92.5534 201.658 92.9609 201.658 93.3855C201.658 93.8102 201.49 94.2176 201.191 94.5193C200.892 94.8209 200.486 94.9923 200.062 94.9961Z" fill="url(#paint37_linear)" fill-opacity="0.5"/>
</g>
<path d="M234.712 203H210C213.308 203.081 216.451 204.416 218.76 206.72C221.07 209.023 222.359 212.113 222.355 215.329C222.357 216.953 222.687 218.56 223.329 220.059C223.97 221.559 224.91 222.921 226.093 224.066C227.277 225.213 228.681 226.12 230.227 226.738C231.771 227.356 233.426 227.672 235.098 227.667C238.461 227.662 241.685 226.36 244.062 224.047C246.437 221.733 247.772 218.598 247.772 215.329C247.772 212.061 246.437 208.926 244.06 206.614C241.684 204.303 238.46 203.002 235.098 203H234.758" fill="url(#paint38_linear)"/>
<path d="M92.7117 208H68C71.3082 208.081 74.4511 209.416 76.7596 211.72C79.0695 214.023 80.3595 217.113 80.3551 220.329C80.3565 221.953 80.6874 223.56 81.3287 225.059C81.97 226.559 82.9103 227.921 84.0928 229.066C85.2768 230.213 86.6814 231.12 88.2267 231.738C89.7705 232.356 91.4261 232.672 93.0976 232.667C96.461 232.662 99.6851 231.36 102.062 229.047C104.437 226.733 105.772 223.598 105.772 220.329C105.772 217.061 104.437 213.926 102.06 211.614C99.6836 209.303 96.4595 208.002 93.0976 208H92.7581" fill="url(#paint39_linear)"/>
</g>
<path d="M103.371 110.042C103.371 117.413 98.4423 120.78 90.6308 120.78H87.1979V127.623C87.1979 128.155 86.9871 128.664 86.6117 129.039C86.2361 129.415 85.7266 129.626 85.1956 129.626H79.9586C79.6985 129.623 79.4416 129.569 79.2024 129.467C78.9632 129.364 78.7467 129.216 78.5646 129.03C78.3828 128.844 78.2393 128.624 78.1425 128.383C78.0455 128.142 77.9971 127.883 78.0001 127.623V100.492C78.0001 99.9729 78.2065 99.4747 78.5738 99.1074C78.9411 98.7401 79.439 98.5339 79.9586 98.5339H90.7406C99.2123 98.5339 103.371 103.111 103.371 110.042ZM94.0853 110.042C94.1058 109.596 94.028 109.152 93.857 108.74C93.686 108.328 93.4264 107.958 93.0966 107.658C92.7668 107.357 92.3748 107.133 91.9485 107.002C91.5223 106.87 91.0725 106.834 90.6308 106.895H87.1979V113.233H90.7406C91.177 113.274 91.6174 113.221 92.0316 113.078C92.4458 112.934 92.8242 112.704 93.1414 112.401C93.4586 112.098 93.7069 111.731 93.8698 111.324C94.0326 110.917 94.1062 110.48 94.0853 110.042Z" fill="black"/>
<path d="M137.81 114.091C137.792 117.252 136.839 120.337 135.07 122.957C133.3 125.576 130.795 127.613 127.869 128.81C124.943 130.006 121.728 130.309 118.63 129.68C115.532 129.051 112.69 127.519 110.462 125.276C108.235 123.033 106.722 120.18 106.114 117.078C105.507 113.976 105.832 110.763 107.048 107.846C108.265 104.928 110.319 102.436 112.951 100.685C115.582 98.934 118.674 98.0016 121.835 98.0058C123.958 97.9476 126.07 98.3245 128.042 99.1137C130.014 99.9029 131.804 101.087 133.3 102.594C134.797 104.101 135.969 105.899 136.745 107.876C137.52 109.853 137.883 111.968 137.81 114.091ZM128.634 114.091C128.557 112.766 128.093 111.492 127.301 110.427C126.508 109.363 125.421 108.553 124.174 108.099C122.927 107.644 121.574 107.565 120.282 107.87C118.99 108.175 117.816 108.852 116.905 109.817C115.993 110.782 115.383 111.993 115.152 113.3C114.92 114.606 115.076 115.953 115.6 117.172C116.124 118.392 116.994 119.431 118.102 120.162C119.21 120.893 120.507 121.284 121.835 121.286C122.77 121.318 123.702 121.151 124.568 120.795C125.434 120.439 126.215 119.903 126.858 119.223C127.501 118.542 127.992 117.733 128.298 116.848C128.605 115.963 128.719 115.023 128.634 114.091Z" fill="black"/>
<path d="M172.484 114.091C172.467 117.251 171.514 120.335 169.745 122.954C167.977 125.573 165.473 127.61 162.548 128.807C159.624 130.005 156.41 130.309 153.313 129.682C150.215 129.055 147.373 127.524 145.145 125.283C142.916 123.043 141.402 120.192 140.791 117.092C140.181 113.991 140.503 110.779 141.716 107.861C142.93 104.943 144.98 102.45 147.609 100.696C150.238 98.9419 153.327 98.0058 156.487 98.0058C158.611 97.9476 160.725 98.3247 162.698 99.1135C164.671 99.9024 166.461 101.087 167.96 102.593C169.458 104.1 170.632 105.897 171.411 107.874C172.189 109.852 172.554 111.967 172.484 114.091ZM163.286 114.091C163.209 112.766 162.745 111.492 161.953 110.427C161.16 109.363 160.074 108.553 158.826 108.099C157.579 107.644 156.226 107.565 154.934 107.87C153.642 108.175 152.468 108.852 151.557 109.817C150.645 110.782 150.036 111.993 149.804 113.3C149.572 114.606 149.728 115.953 150.252 117.172C150.776 118.392 151.646 119.431 152.754 120.162C153.862 120.893 155.16 121.284 156.487 121.286C157.423 121.318 158.355 121.151 159.221 120.795C160.087 120.439 160.867 119.903 161.51 119.223C162.153 118.542 162.644 117.733 162.951 116.848C163.257 115.963 163.371 115.023 163.286 114.091Z" fill="black"/>
<path d="M195.018 121.286C195.532 121.292 196.02 121.498 196.382 121.86C196.745 122.222 196.95 122.711 196.956 123.223V127.624C196.962 127.883 196.915 128.14 196.822 128.382C196.728 128.623 196.585 128.843 196.406 129.029C196.225 129.215 196.009 129.364 195.773 129.466C195.534 129.569 195.278 129.623 195.018 129.626H178.165C177.903 129.626 177.642 129.574 177.402 129.473C177.159 129.372 176.939 129.225 176.756 129.038C176.572 128.852 176.425 128.631 176.327 128.388C176.229 128.145 176.18 127.886 176.184 127.624V100.492C176.184 100.233 176.235 99.977 176.334 99.738C176.434 99.4989 176.581 99.2821 176.764 99.0998C176.95 98.9178 177.167 98.7739 177.408 98.6769C177.649 98.5797 177.905 98.5313 178.165 98.534H183.424C183.94 98.5398 184.436 98.7481 184.801 99.1141C185.167 99.4801 185.376 99.9749 185.381 100.492V121.286H195.018Z" fill="black"/>
<defs>
<linearGradient id="paint0_linear" x1="137" y1="0.332629" x2="137" y2="228" gradientUnits="userSpaceOnUse">
<stop stop-color="#F9B233"/>
<stop offset="1" stop-color="#D97213"/>
</linearGradient>
<linearGradient id="paint1_linear" x1="136.984" y1="0" x2="136.984" y2="227.846" gradientUnits="userSpaceOnUse">
<stop stop-color="#6FD74A"/>
<stop offset="1" stop-color="#24A240"/>
</linearGradient>
<linearGradient id="paint2_linear" x1="11.9264" y1="19.7648" x2="88.6833" y2="19.7648" gradientUnits="userSpaceOnUse">
<stop stop-color="#F8AE31"/>
<stop offset="0.04" stop-color="#FAB622"/>
<stop offset="0.12" stop-color="#FBBF0F"/>
<stop offset="0.2" stop-color="#FDC504"/>
<stop offset="0.28" stop-color="#FDC700"/>
<stop offset="0.67" stop-color="#F8AE31"/>
<stop offset="0.89" stop-color="#FCC600"/>
<stop offset="1" stop-color="#F8AE31"/>
</linearGradient>
<linearGradient id="paint3_linear" x1="-53944.5" y1="-431.528" x2="-49884.1" y2="-431.528" gradientUnits="userSpaceOnUse">
<stop stop-color="#F8AE31"/>
<stop offset="0.04" stop-color="#FAB622"/>
<stop offset="0.12" stop-color="#FBBF0F"/>
<stop offset="0.2" stop-color="#FDC504"/>
<stop offset="0.28" stop-color="#FDC700"/>
<stop offset="0.67" stop-color="#F8AE31"/>
<stop offset="0.89" stop-color="#FCC600"/>
<stop offset="1" stop-color="#F8AE31"/>
</linearGradient>
<linearGradient id="paint4_linear" x1="-53400.2" y1="-403.218" x2="-49340.5" y2="-403.218" gradientUnits="userSpaceOnUse">
<stop stop-color="#F8AE31"/>
<stop offset="0.04" stop-color="#FAB622"/>
<stop offset="0.12" stop-color="#FBBF0F"/>
<stop offset="0.2" stop-color="#FDC504"/>
<stop offset="0.28" stop-color="#FDC700"/>
<stop offset="0.67" stop-color="#F8AE31"/>
<stop offset="0.89" stop-color="#FCC600"/>
<stop offset="1" stop-color="#F8AE31"/>
</linearGradient>
<linearGradient id="paint5_linear" x1="-51557.2" y1="-278.254" x2="-47695.4" y2="-278.254" gradientUnits="userSpaceOnUse">
<stop stop-color="#F8AE31"/>
<stop offset="0.04" stop-color="#FAB622"/>
<stop offset="0.12" stop-color="#FBBF0F"/>
<stop offset="0.2" stop-color="#FDC504"/>
<stop offset="0.28" stop-color="#FDC700"/>
<stop offset="0.67" stop-color="#F8AE31"/>
<stop offset="0.89" stop-color="#FCC600"/>
<stop offset="1" stop-color="#F8AE31"/>
</linearGradient>
<linearGradient id="paint6_linear" x1="222.333" y1="-0.94068" x2="224.466" y2="-0.94068" gradientUnits="userSpaceOnUse">
<stop stop-color="#F9B233"/>
<stop offset="1" stop-color="#D97213"/>
</linearGradient>
<linearGradient id="paint7_linear" x1="-1012.21" y1="-118.959" x2="-1009.08" y2="-118.959" gradientUnits="userSpaceOnUse">
<stop stop-color="#F9B233"/>
<stop offset="1" stop-color="#D97213"/>
</linearGradient>
<linearGradient id="paint8_linear" x1="-1012.21" y1="-102.753" x2="-1009.08" y2="-102.753" gradientUnits="userSpaceOnUse">
<stop stop-color="#F9B233"/>
<stop offset="1" stop-color="#D97213"/>
</linearGradient>
<linearGradient id="paint9_linear" x1="-1012.21" y1="-87.2929" x2="-1009.08" y2="-87.2929" gradientUnits="userSpaceOnUse">
<stop stop-color="#F9B233"/>
<stop offset="1" stop-color="#D97213"/>
</linearGradient>
<linearGradient id="paint10_linear" x1="-1012.21" y1="-70.3728" x2="-1009.08" y2="-70.3728" gradientUnits="userSpaceOnUse">
<stop stop-color="#F9B233"/>
<stop offset="1" stop-color="#D97213"/>
</linearGradient>
<linearGradient id="paint11_linear" x1="-1012.21" y1="-54.7862" x2="-1009.08" y2="-54.7862" gradientUnits="userSpaceOnUse">
<stop stop-color="#F9B233"/>
<stop offset="1" stop-color="#D97213"/>
</linearGradient>
<linearGradient id="paint12_linear" x1="-987.656" y1="-135.122" x2="-984.563" y2="-135.122" gradientUnits="userSpaceOnUse">
<stop stop-color="#F9B233"/>
<stop offset="1" stop-color="#D97213"/>
</linearGradient>
<linearGradient id="paint13_linear" x1="-987.656" y1="-118.953" x2="-984.563" y2="-118.953" gradientUnits="userSpaceOnUse">
<stop stop-color="#F9B233"/>
<stop offset="1" stop-color="#D97213"/>
</linearGradient>
<linearGradient id="paint14_linear" x1="-987.656" y1="-102.748" x2="-984.563" y2="-102.748" gradientUnits="userSpaceOnUse">
<stop stop-color="#F9B233"/>
<stop offset="1" stop-color="#D97213"/>
</linearGradient>
<linearGradient id="paint15_linear" x1="-987.656" y1="-87.2929" x2="-984.563" y2="-87.2929" gradientUnits="userSpaceOnUse">
<stop stop-color="#F9B233"/>
<stop offset="1" stop-color="#D97213"/>
</linearGradient>
<linearGradient id="paint16_linear" x1="-987.656" y1="-70.3728" x2="-984.563" y2="-70.3728" gradientUnits="userSpaceOnUse">
<stop stop-color="#F9B233"/>
<stop offset="1" stop-color="#D97213"/>
</linearGradient>
<linearGradient id="paint17_linear" x1="-987.656" y1="-54.7862" x2="-984.563" y2="-54.7862" gradientUnits="userSpaceOnUse">
<stop stop-color="#F9B233"/>
<stop offset="1" stop-color="#D97213"/>
</linearGradient>
<linearGradient id="paint18_linear" x1="-979.692" y1="-135.128" x2="-976.556" y2="-135.128" gradientUnits="userSpaceOnUse">
<stop stop-color="#F9B233"/>
<stop offset="1" stop-color="#D97213"/>
</linearGradient>
<linearGradient id="paint19_linear" x1="-987.975" y1="-115.523" x2="-984.817" y2="-115.523" gradientUnits="userSpaceOnUse">
<stop stop-color="#F9B233"/>
<stop offset="1" stop-color="#D97213"/>
</linearGradient>
<linearGradient id="paint20_linear" x1="-979.69" y1="-102.695" x2="-976.555" y2="-102.695" gradientUnits="userSpaceOnUse">
<stop stop-color="#F9B233"/>
<stop offset="1" stop-color="#D97213"/>
</linearGradient>
<linearGradient id="paint21_linear" x1="-988.488" y1="-89.485" x2="-985.331" y2="-89.485" gradientUnits="userSpaceOnUse">
<stop stop-color="#F9B233"/>
<stop offset="1" stop-color="#D97213"/>
</linearGradient>
<linearGradient id="paint22_linear" x1="-979.69" y1="-70.4166" x2="-976.555" y2="-70.4166" gradientUnits="userSpaceOnUse">
<stop stop-color="#F9B233"/>
<stop offset="1" stop-color="#D97213"/>
</linearGradient>
<linearGradient id="paint23_linear" x1="-979.692" y1="-54.7862" x2="-976.556" y2="-54.7862" gradientUnits="userSpaceOnUse">
<stop stop-color="#F9B233"/>
<stop offset="1" stop-color="#D97213"/>
</linearGradient>
<linearGradient id="paint24_linear" x1="-955.28" y1="-135.122" x2="-952.188" y2="-135.122" gradientUnits="userSpaceOnUse">
<stop stop-color="#F9B233"/>
<stop offset="1" stop-color="#D97213"/>
</linearGradient>
<linearGradient id="paint25_linear" x1="-955.28" y1="-118.953" x2="-952.188" y2="-118.953" gradientUnits="userSpaceOnUse">
<stop stop-color="#F9B233"/>
<stop offset="1" stop-color="#D97213"/>
</linearGradient>
<linearGradient id="paint26_linear" x1="-955.28" y1="-102.748" x2="-952.188" y2="-102.748" gradientUnits="userSpaceOnUse">
<stop stop-color="#F9B233"/>
<stop offset="1" stop-color="#D97213"/>
</linearGradient>
<linearGradient id="paint27_linear" x1="-955.28" y1="-87.2929" x2="-952.188" y2="-87.2929" gradientUnits="userSpaceOnUse">
<stop stop-color="#F9B233"/>
<stop offset="1" stop-color="#D97213"/>
</linearGradient>
<linearGradient id="paint28_linear" x1="-955.28" y1="-70.3728" x2="-952.188" y2="-70.3728" gradientUnits="userSpaceOnUse">
<stop stop-color="#F9B233"/>
<stop offset="1" stop-color="#D97213"/>
</linearGradient>
<linearGradient id="paint29_linear" x1="-955.28" y1="-54.7862" x2="-952.188" y2="-54.7862" gradientUnits="userSpaceOnUse">
<stop stop-color="#F9B233"/>
<stop offset="1" stop-color="#D97213"/>
</linearGradient>
<linearGradient id="paint30_linear" x1="91.4343" y1="156.853" x2="91.4343" y2="161.496" gradientUnits="userSpaceOnUse">
<stop stop-color="#F4A82E"/>
<stop offset="1" stop-color="#FF8C1A"/>
</linearGradient>
<linearGradient id="paint31_linear" x1="91.4343" y1="146.696" x2="91.4343" y2="151.353" gradientUnits="userSpaceOnUse">
<stop stop-color="#F4A82E"/>
<stop offset="1" stop-color="#FF8C1A"/>
</linearGradient>
<linearGradient id="paint32_linear" x1="96.5193" y1="152.471" x2="96.5193" y2="155.692" gradientUnits="userSpaceOnUse">
<stop stop-color="#F4A82E"/>
<stop offset="1" stop-color="#FF8C1A"/>
</linearGradient>
<linearGradient id="paint33_linear" x1="86.3767" y1="152.471" x2="86.3767" y2="155.692" gradientUnits="userSpaceOnUse">
<stop stop-color="#F4A82E"/>
<stop offset="1" stop-color="#FF8C1A"/>
</linearGradient>
<linearGradient id="paint34_linear" x1="204.386" y1="96.157" x2="204.386" y2="100.8" gradientUnits="userSpaceOnUse">
<stop stop-color="#F4A82E"/>
<stop offset="1" stop-color="#FF8C1A"/>
</linearGradient>
<linearGradient id="paint35_linear" x1="204.386" y1="86" x2="204.386" y2="90.6576" gradientUnits="userSpaceOnUse">
<stop stop-color="#F4A82E"/>
<stop offset="1" stop-color="#FF8C1A"/>
</linearGradient>
<linearGradient id="paint36_linear" x1="209.471" y1="91.7749" x2="209.471" y2="94.9961" gradientUnits="userSpaceOnUse">
<stop stop-color="#F4A82E"/>
<stop offset="1" stop-color="#FF8C1A"/>
</linearGradient>
<linearGradient id="paint37_linear" x1="199.329" y1="91.7749" x2="199.329" y2="94.9961" gradientUnits="userSpaceOnUse">
<stop stop-color="#F4A82E"/>
<stop offset="1" stop-color="#FF8C1A"/>
</linearGradient>
<linearGradient id="paint38_linear" x1="228.886" y1="203" x2="228.886" y2="227.667" gradientUnits="userSpaceOnUse">
<stop stop-color="#F4A92E"/>
<stop offset="1" stop-color="#DB7615"/>
</linearGradient>
<linearGradient id="paint39_linear" x1="86.886" y1="208" x2="86.886" y2="232.667" gradientUnits="userSpaceOnUse">
<stop stop-color="#F4A92E"/>
<stop offset="1" stop-color="#DB7615"/>
</linearGradient>
</defs>
</svg>
