<svg width="176" height="114" viewBox="0 0 176 114" fill="none" xmlns="http://www.w3.org/2000/svg">
<g filter="url(#filter0_d)">
<rect x="2" y="2" width="76" height="109" rx="6" fill="white"/>
</g>
<path d="M19.6556 22.3358C22.8396 22.3358 24.9516 21.3918 24.9516 19.2158C24.9516 17.4558 23.8316 16.8318 22.4716 16.5918V16.3838C23.8636 16.1278 24.6316 15.4078 24.6316 14.1278C24.6316 12.3518 22.9356 11.2958 19.6396 11.2958C16.3916 11.2958 14.6796 12.3518 14.6796 14.1278C14.6796 15.4078 15.4636 16.1278 16.8076 16.3838V16.5918C15.5916 16.8318 14.3276 17.4558 14.3276 19.2158C14.3276 21.3918 16.4236 22.3358 19.6556 22.3358ZM19.6396 15.6638C18.0396 15.6638 17.6876 15.4398 17.6876 14.9278C17.6876 14.3518 18.0396 14.1758 19.6396 14.1758C21.3036 14.1758 21.6396 14.3518 21.6396 14.9278C21.6396 15.4398 21.3036 15.6638 19.6396 15.6638ZM19.6396 19.4558C17.7996 19.4558 17.3836 19.1998 17.3836 18.5598C17.3836 17.9038 17.7516 17.6958 19.6396 17.6958C21.5276 17.6958 21.8956 17.9038 21.8956 18.5598C21.8956 19.1998 21.4796 19.4558 19.6396 19.4558Z" fill="#F24822"/>
<path fill-rule="evenodd" clip-rule="evenodd" d="M23.7505 33.3762C20.8879 33.4044 20.3023 36.6722 20.3023 36.6722C20.3023 36.6722 19.6606 33.3981 16.798 33.3387C13.9354 33.2793 12.163 35.7873 13.1162 38.4454C14.0694 41.1035 15.0319 41.7039 16.5426 43.6365C18.0533 45.566 20.2462 48.9058 20.2337 49.6876C20.2244 48.9027 22.3643 45.591 23.8969 43.674C25.4263 41.7602 26.395 41.1692 27.3762 38.5236C28.3605 35.8748 26.6131 33.3449 23.7505 33.3762Z" fill="#F24822"/>
<g filter="url(#filter1_d)">
<g filter="url(#filter2_d)">
<rect x="34" y="2" width="76" height="109" rx="6" fill="white"/>
</g>
<path d="M51.6442 22.3358C54.7002 22.3358 57.0202 20.7198 57.0202 16.7358C57.0202 13.0398 55.3722 11.2958 51.2282 11.2958C47.9002 11.2958 46.1882 12.6878 46.1882 14.8638C46.1882 17.1038 47.6282 18.0798 50.2842 18.0798C52.0922 18.0798 53.1002 17.4718 53.5802 16.7678H53.7882V17.3438C53.7882 19.2158 53.1642 19.4558 51.6442 19.4558C50.4282 19.4558 49.9162 19.3918 49.9162 18.6558V18.5118H46.5562V18.6558C46.5562 20.8638 48.4762 22.3358 51.6442 22.3358ZM51.4042 16.0318C49.6922 16.0318 49.3562 15.7918 49.3562 15.0878C49.3562 14.4638 49.6922 14.1918 51.4042 14.1918C53.2762 14.1918 53.6122 14.4638 53.6122 15.0878C53.6122 15.7918 53.3242 16.0318 51.4042 16.0318Z" fill="#F24822"/>
<path fill-rule="evenodd" clip-rule="evenodd" d="M55.7505 33.3762C52.8879 33.4044 52.3023 36.6722 52.3023 36.6722C52.3023 36.6722 51.6606 33.3981 48.798 33.3387C45.9354 33.2793 44.163 35.7873 45.1162 38.4454C46.0694 41.1035 47.0319 41.7039 48.5426 43.6365C50.0533 45.566 52.2462 48.9058 52.2337 49.6876C52.2244 48.9027 54.3643 45.591 55.8969 43.674C57.4263 41.7602 58.395 41.1692 59.3762 38.5236C60.3605 35.8748 58.6131 33.3449 55.7505 33.3762Z" fill="#F24822"/>
</g>
<g filter="url(#filter3_d)">
<g filter="url(#filter4_d)">
<rect x="66" y="2" width="76" height="109" rx="6" fill="white"/>
</g>
<path d="M81.2287 22.1758V11.4558H78.4287C77.8367 12.5438 76.9247 12.7838 75.7567 12.7838H75.3567V14.8158H78.2207V22.1758H81.2287ZM87.5843 22.3358C91.2163 22.3358 93.1203 20.1118 93.1203 16.8158C93.1203 13.5358 91.2163 11.2958 87.5843 11.2958C83.9363 11.2958 82.0323 13.5358 82.0323 16.8158C82.0323 20.1118 83.9363 22.3358 87.5843 22.3358ZM87.5843 19.4078C85.7443 19.4078 85.2643 18.7998 85.2643 16.8158C85.2643 14.8318 85.7443 14.2238 87.5843 14.2238C89.4083 14.2238 89.8883 14.8318 89.8883 16.8158C89.8883 18.7998 89.4083 19.4078 87.5843 19.4078Z" fill="#F24822"/>
<path fill-rule="evenodd" clip-rule="evenodd" d="M87.7515 33.3762C84.8889 33.4044 84.3032 36.6722 84.3032 36.6722C84.3032 36.6722 83.6616 33.3981 80.799 33.3387C77.9364 33.2793 76.164 35.7873 77.1172 38.4454C78.0703 41.1035 79.0328 41.7039 80.5436 43.6365C82.0543 45.566 84.2472 48.9058 84.2347 49.6876C84.2254 48.9027 86.3653 45.591 87.8979 43.674C89.4273 41.7602 90.396 41.1692 91.3772 38.5236C92.3615 35.8748 90.6141 33.3449 87.7515 33.3762Z" fill="#F24822"/>
</g>
<g filter="url(#filter5_d)">
<g filter="url(#filter6_d)">
<rect x="98" y="2" width="76" height="109" rx="6" fill="white"/>
</g>
<path d="M116.176 22.3358C119.856 22.3358 121.216 20.7358 121.216 17.7438V11.4558H118.016V17.7118C118.016 19.0398 117.888 19.4238 116.176 19.4238C114.448 19.4238 114.368 19.0078 114.368 17.5518V17.1678H111.168V17.5838C111.168 20.6878 112.512 22.3358 116.176 22.3358Z" fill="#F24822"/>
<path fill-rule="evenodd" clip-rule="evenodd" d="M119.75 33.3762C116.888 33.4044 116.302 36.6722 116.302 36.6722C116.302 36.6722 115.661 33.3981 112.798 33.3387C109.935 33.2793 108.163 35.7873 109.116 38.4454C110.069 41.1035 111.032 41.7039 112.543 43.6365C114.053 45.566 116.246 48.9058 116.234 49.6876C116.224 48.9027 118.364 45.591 119.897 43.674C121.426 41.7602 122.395 41.1692 123.376 38.5236C124.361 35.8748 122.613 33.3449 119.75 33.3762Z" fill="#F24822"/>
</g>
<defs>
<filter id="filter0_d" x="0" y="1" width="80" height="113" filterUnits="userSpaceOnUse" color-interpolation-filters="sRGB">
<feFlood flood-opacity="0" result="BackgroundImageFix"/>
<feColorMatrix in="SourceAlpha" type="matrix" values="0 0 0 0 0 0 0 0 0 0 0 0 0 0 0 0 0 0 127 0"/>
<feOffset dy="1"/>
<feGaussianBlur stdDeviation="1"/>
<feColorMatrix type="matrix" values="0 0 0 0 0 0 0 0 0 0 0 0 0 0 0 0 0 0 0.12 0"/>
<feBlend mode="normal" in2="BackgroundImageFix" result="effect1_dropShadow"/>
<feBlend mode="normal" in="SourceGraphic" in2="effect1_dropShadow" result="shape"/>
</filter>
<filter id="filter1_d" x="32" y="1" width="80" height="113" filterUnits="userSpaceOnUse" color-interpolation-filters="sRGB">
<feFlood flood-opacity="0" result="BackgroundImageFix"/>
<feColorMatrix in="SourceAlpha" type="matrix" values="0 0 0 0 0 0 0 0 0 0 0 0 0 0 0 0 0 0 127 0"/>
<feOffset dy="1"/>
<feGaussianBlur stdDeviation="1"/>
<feColorMatrix type="matrix" values="0 0 0 0 0 0 0 0 0 0 0 0 0 0 0 0 0 0 0.12 0"/>
<feBlend mode="normal" in2="BackgroundImageFix" result="effect1_dropShadow"/>
<feBlend mode="normal" in="SourceGraphic" in2="effect1_dropShadow" result="shape"/>
</filter>
<filter id="filter2_d" x="31" y="0" width="80" height="113" filterUnits="userSpaceOnUse" color-interpolation-filters="sRGB">
<feFlood flood-opacity="0" result="BackgroundImageFix"/>
<feColorMatrix in="SourceAlpha" type="matrix" values="0 0 0 0 0 0 0 0 0 0 0 0 0 0 0 0 0 0 127 0"/>
<feOffset dx="-1"/>
<feGaussianBlur stdDeviation="1"/>
<feColorMatrix type="matrix" values="0 0 0 0 0 0 0 0 0 0 0 0 0 0 0 0 0 0 0.1 0"/>
<feBlend mode="normal" in2="BackgroundImageFix" result="effect1_dropShadow"/>
<feBlend mode="normal" in="SourceGraphic" in2="effect1_dropShadow" result="shape"/>
</filter>
<filter id="filter3_d" x="64" y="1" width="80" height="113" filterUnits="userSpaceOnUse" color-interpolation-filters="sRGB">
<feFlood flood-opacity="0" result="BackgroundImageFix"/>
<feColorMatrix in="SourceAlpha" type="matrix" values="0 0 0 0 0 0 0 0 0 0 0 0 0 0 0 0 0 0 127 0"/>
<feOffset dy="1"/>
<feGaussianBlur stdDeviation="1"/>
<feColorMatrix type="matrix" values="0 0 0 0 0 0 0 0 0 0 0 0 0 0 0 0 0 0 0.12 0"/>
<feBlend mode="normal" in2="BackgroundImageFix" result="effect1_dropShadow"/>
<feBlend mode="normal" in="SourceGraphic" in2="effect1_dropShadow" result="shape"/>
</filter>
<filter id="filter4_d" x="63" y="0" width="80" height="113" filterUnits="userSpaceOnUse" color-interpolation-filters="sRGB">
<feFlood flood-opacity="0" result="BackgroundImageFix"/>
<feColorMatrix in="SourceAlpha" type="matrix" values="0 0 0 0 0 0 0 0 0 0 0 0 0 0 0 0 0 0 127 0"/>
<feOffset dx="-1"/>
<feGaussianBlur stdDeviation="1"/>
<feColorMatrix type="matrix" values="0 0 0 0 0 0 0 0 0 0 0 0 0 0 0 0 0 0 0.1 0"/>
<feBlend mode="normal" in2="BackgroundImageFix" result="effect1_dropShadow"/>
<feBlend mode="normal" in="SourceGraphic" in2="effect1_dropShadow" result="shape"/>
</filter>
<filter id="filter5_d" x="96" y="1" width="80" height="113" filterUnits="userSpaceOnUse" color-interpolation-filters="sRGB">
<feFlood flood-opacity="0" result="BackgroundImageFix"/>
<feColorMatrix in="SourceAlpha" type="matrix" values="0 0 0 0 0 0 0 0 0 0 0 0 0 0 0 0 0 0 127 0"/>
<feOffset dy="1"/>
<feGaussianBlur stdDeviation="1"/>
<feColorMatrix type="matrix" values="0 0 0 0 0 0 0 0 0 0 0 0 0 0 0 0 0 0 0.12 0"/>
<feBlend mode="normal" in2="BackgroundImageFix" result="effect1_dropShadow"/>
<feBlend mode="normal" in="SourceGraphic" in2="effect1_dropShadow" result="shape"/>
</filter>
<filter id="filter6_d" x="95" y="0" width="80" height="113" filterUnits="userSpaceOnUse" color-interpolation-filters="sRGB">
<feFlood flood-opacity="0" result="BackgroundImageFix"/>
<feColorMatrix in="SourceAlpha" type="matrix" values="0 0 0 0 0 0 0 0 0 0 0 0 0 0 0 0 0 0 127 0"/>
<feOffset dx="-1"/>
<feGaussianBlur stdDeviation="1"/>
<feColorMatrix type="matrix" values="0 0 0 0 0 0 0 0 0 0 0 0 0 0 0 0 0 0 0.1 0"/>
<feBlend mode="normal" in2="BackgroundImageFix" result="effect1_dropShadow"/>
<feBlend mode="normal" in="SourceGraphic" in2="effect1_dropShadow" result="shape"/>
</filter>
</defs>
</svg>
