<svg width="145" height="114" viewBox="0 0 145 114" fill="none" xmlns="http://www.w3.org/2000/svg">
<g filter="url(#filter0_dd)">
<rect x="3" y="2" width="76" height="109" rx="6" fill="white"/>
</g>
<path d="M17.2333 22.1748L18.0653 20.1908H23.1533L23.9693 22.1748H27.4253L22.7853 11.4548H18.4813L13.8573 22.1748H17.2333ZM19.8253 15.9828L20.5133 14.1748H20.7213L21.4253 15.9828L22.0493 17.4868H19.2013L19.8253 15.9828Z" fill="black"/>
<path fill-rule="evenodd" clip-rule="evenodd" d="M24.0221 46.1505C26.6979 46.1849 28.3439 44.2084 27.439 42.128C26.534 40.0475 25.6317 39.5794 24.2093 38.071C22.7895 36.5628 20.7196 33.9535 20.73 33.3379C20.7404 33.9535 18.7589 36.5628 17.3365 38.071C15.9167 39.5794 15.0144 40.0475 14.1068 42.128C13.2019 44.2084 14.8479 46.1849 17.5237 46.1505C19.3596 46.1264 20.1865 44.9101 20.5246 44.1494V45.1448C20.5246 45.1448 19.9369 48.7353 15.7997 49.1284H15.1392V49.6879H26.4066V49.1284H25.7462C21.6089 48.7353 21.0238 45.1448 21.0238 45.1448V44.2802C21.4191 45.0414 22.2876 46.1277 24.0221 46.1505Z" fill="#1A1919"/>
<g filter="url(#filter1_dd)">
<rect x="35" y="2" width="76" height="109" rx="6" fill="white"/>
</g>
<path d="M58.2477 22.1758V19.4718H54.4237L51.4157 19.8398C51.4157 19.2958 51.9117 19.1838 52.6157 19.0078L55.0157 18.4158C56.9357 17.9358 58.2797 16.9918 58.2797 14.9758C58.2797 12.7838 56.9357 11.2958 53.5437 11.2958C49.7677 11.2958 48.2957 13.2638 48.2957 15.4238V15.6638H51.2397V15.4558C51.2397 14.4798 51.6397 14.0318 53.4317 14.0318C55.0637 14.0318 55.2717 14.3838 55.2717 14.9278C55.2717 15.4238 54.9997 15.6318 54.3117 15.8558L51.3997 16.7838C49.0957 17.5198 48.2477 18.4638 48.2477 20.2878V22.1758H58.2477Z" fill="black"/>
<path fill-rule="evenodd" clip-rule="evenodd" d="M56.0219 46.1505C58.6977 46.1849 60.3438 44.2084 59.4388 42.128C58.5339 40.0475 57.6316 39.5794 56.2092 38.071C54.7894 36.5628 52.7195 33.9535 52.7299 33.3379C52.7403 33.9535 50.7588 36.5628 49.3364 38.071C47.9165 39.5794 47.0142 40.0475 46.1067 42.128C45.2018 44.2084 46.8478 46.1849 49.5236 46.1505C51.3595 46.1264 52.1864 44.9101 52.5244 44.1494V45.1448C52.5244 45.1448 51.9368 48.7353 47.7996 49.1284H47.139V49.6879H58.4065V49.1284H57.746C53.6088 48.7353 53.0237 45.1448 53.0237 45.1448V44.2802C53.419 45.0414 54.2875 46.1277 56.0219 46.1505Z" fill="#1A1919"/>
<g filter="url(#filter2_dd)">
<rect x="67" y="2" width="76" height="109" rx="6" fill="white"/>
</g>
<path d="M84.7666 22.3363C88.0626 22.3363 89.9826 21.2643 89.9826 19.1523C89.9826 17.5203 88.8946 16.7683 87.2946 16.5923V16.3843C88.7186 16.2243 89.4706 15.4243 89.4706 14.1763C89.4706 12.2403 87.8546 11.2963 84.8786 11.2963C81.2306 11.2963 79.4546 12.8163 79.4546 15.2003V15.2163H82.6546V15.1683C82.6546 14.3683 82.9426 14.1763 84.5906 14.1763C86.1906 14.1763 86.4786 14.3523 86.4786 14.8643C86.4786 15.2643 86.2866 15.4723 85.6946 15.4723H82.7346V17.9363H85.9186C86.6226 17.9363 86.9266 18.1123 86.9266 18.6403C86.9266 19.2963 86.4466 19.4563 84.6226 19.4563C82.7186 19.4563 82.6546 19.2643 82.6546 18.4643V18.1763H79.4546V18.4323C79.4546 20.9763 81.1506 22.3363 84.7666 22.3363Z" fill="black"/>
<path fill-rule="evenodd" clip-rule="evenodd" d="M88.0221 46.1505C90.6979 46.1849 92.3439 44.2084 91.439 42.128C90.534 40.0475 89.6317 39.5794 88.2093 38.071C86.7895 36.5628 84.7196 33.9535 84.73 33.3379C84.7404 33.9535 82.7589 36.5628 81.3365 38.071C79.9167 39.5794 79.0144 40.0475 78.1068 42.128C77.2019 44.2084 78.8479 46.1849 81.5237 46.1505C83.3596 46.1264 84.1865 44.9101 84.5246 44.1494V45.1448C84.5246 45.1448 83.9369 48.7353 79.7997 49.1284H79.1392V49.6879H90.4066V49.1284H89.7462C85.6089 48.7353 85.0238 45.1448 85.0238 45.1448V44.2802C85.4191 45.0414 86.2876 46.1277 88.0221 46.1505Z" fill="#1A1919"/>
<defs>
<filter id="filter0_dd" x="0" y="0" width="81" height="114" filterUnits="userSpaceOnUse" color-interpolation-filters="sRGB">
<feFlood flood-opacity="0" result="BackgroundImageFix"/>
<feColorMatrix in="SourceAlpha" type="matrix" values="0 0 0 0 0 0 0 0 0 0 0 0 0 0 0 0 0 0 127 0"/>
<feOffset dx="-1"/>
<feGaussianBlur stdDeviation="1"/>
<feColorMatrix type="matrix" values="0 0 0 0 0 0 0 0 0 0 0 0 0 0 0 0 0 0 0.1 0"/>
<feBlend mode="normal" in2="BackgroundImageFix" result="effect1_dropShadow"/>
<feColorMatrix in="SourceAlpha" type="matrix" values="0 0 0 0 0 0 0 0 0 0 0 0 0 0 0 0 0 0 127 0"/>
<feOffset dy="1"/>
<feGaussianBlur stdDeviation="1"/>
<feColorMatrix type="matrix" values="0 0 0 0 0 0 0 0 0 0 0 0 0 0 0 0 0 0 0.12 0"/>
<feBlend mode="normal" in2="effect1_dropShadow" result="effect2_dropShadow"/>
<feBlend mode="normal" in="SourceGraphic" in2="effect2_dropShadow" result="shape"/>
</filter>
<filter id="filter1_dd" x="32" y="0" width="81" height="114" filterUnits="userSpaceOnUse" color-interpolation-filters="sRGB">
<feFlood flood-opacity="0" result="BackgroundImageFix"/>
<feColorMatrix in="SourceAlpha" type="matrix" values="0 0 0 0 0 0 0 0 0 0 0 0 0 0 0 0 0 0 127 0"/>
<feOffset dx="-1"/>
<feGaussianBlur stdDeviation="1"/>
<feColorMatrix type="matrix" values="0 0 0 0 0 0 0 0 0 0 0 0 0 0 0 0 0 0 0.1 0"/>
<feBlend mode="normal" in2="BackgroundImageFix" result="effect1_dropShadow"/>
<feColorMatrix in="SourceAlpha" type="matrix" values="0 0 0 0 0 0 0 0 0 0 0 0 0 0 0 0 0 0 127 0"/>
<feOffset dy="1"/>
<feGaussianBlur stdDeviation="1"/>
<feColorMatrix type="matrix" values="0 0 0 0 0 0 0 0 0 0 0 0 0 0 0 0 0 0 0.12 0"/>
<feBlend mode="normal" in2="effect1_dropShadow" result="effect2_dropShadow"/>
<feBlend mode="normal" in="SourceGraphic" in2="effect2_dropShadow" result="shape"/>
</filter>
<filter id="filter2_dd" x="64" y="0" width="81" height="114" filterUnits="userSpaceOnUse" color-interpolation-filters="sRGB">
<feFlood flood-opacity="0" result="BackgroundImageFix"/>
<feColorMatrix in="SourceAlpha" type="matrix" values="0 0 0 0 0 0 0 0 0 0 0 0 0 0 0 0 0 0 127 0"/>
<feOffset dx="-1"/>
<feGaussianBlur stdDeviation="1"/>
<feColorMatrix type="matrix" values="0 0 0 0 0 0 0 0 0 0 0 0 0 0 0 0 0 0 0.1 0"/>
<feBlend mode="normal" in2="BackgroundImageFix" result="effect1_dropShadow"/>
<feColorMatrix in="SourceAlpha" type="matrix" values="0 0 0 0 0 0 0 0 0 0 0 0 0 0 0 0 0 0 127 0"/>
<feOffset dy="1"/>
<feGaussianBlur stdDeviation="1"/>
<feColorMatrix type="matrix" values="0 0 0 0 0 0 0 0 0 0 0 0 0 0 0 0 0 0 0.12 0"/>
<feBlend mode="normal" in2="effect1_dropShadow" result="effect2_dropShadow"/>
<feBlend mode="normal" in="SourceGraphic" in2="effect2_dropShadow" result="shape"/>
</filter>
</defs>
</svg>
