<svg width="24" height="23" viewBox="0 0 24 23" fill="none" xmlns="http://www.w3.org/2000/svg">
<path fill-rule="evenodd" clip-rule="evenodd" d="M3.94989 6.57299L6.75033 19.748L15.8715 17.8093L13.0711 4.63423L3.94989 6.57299ZM2.14452 4.30861C1.44486 4.45732 0.998243 5.14506 1.14696 5.84471L4.48594 21.5534C4.63466 22.2531 5.3224 22.6997 6.02205 22.551L17.6769 20.0736C18.3765 19.9249 18.8232 19.2372 18.6744 18.5375L15.3355 2.82885C15.1867 2.1292 14.499 1.68258 13.7994 1.8313L2.14452 4.30861ZM16.5878 2.63448C16.4856 2.22577 16.7948 1.82985 17.216 1.82986L19.8835 1.82986C20.2411 1.82986 20.5311 2.11978 20.5311 2.47742L20.5311 14.3672C20.5311 15.144 19.4131 15.2624 19.2503 14.5029L17.4228 5.97428L16.5878 2.63448ZM9.59742 9.07987L7.34021 12.5557L10.816 14.8129L13.0732 11.3371L9.59742 9.07987Z" fill="url(#paint0_linear)"/>
<defs>
<linearGradient id="paint0_linear" x1="10.5002" y1="2.53256" x2="14.3777" y2="20.7749" gradientUnits="userSpaceOnUse">
<stop stop-color="#704DFF"/>
<stop offset="1" stop-color="#7A367B"/>
</linearGradient>
</defs>
</svg>
