<svg width="20" height="20" viewBox="0 0 20 20" fill="none" xmlns="http://www.w3.org/2000/svg">
<path fill-rule="evenodd" clip-rule="evenodd" d="M11.3042 1.30435C11.3042 0.583976 10.7202 0 9.99987 0C9.2795 0 8.69552 0.583976 8.69552 1.30435V8.69757H1.30435C0.583976 8.69757 0 9.28155 0 10.0019C0 10.7223 0.583976 11.3063 1.30435 11.3063H8.69552V18.6957C8.69552 19.416 9.2795 20 9.99987 20C10.7202 20 11.3042 19.416 11.3042 18.6957V11.3063H18.6957C19.416 11.3063 20 10.7223 20 10.0019C20 9.28155 19.416 8.69757 18.6957 8.69757H11.3042V1.30435Z" fill="#3adae0"/>
</svg>
