<svg width="24" height="24" viewBox="0 0 24 24" fill="none" xmlns="http://www.w3.org/2000/svg">
<path fill-rule="evenodd" clip-rule="evenodd" d="M6 4C6 3.05719 6 2.58579 6.29289 2.29289C6.58579 2 7.05719 2 8 2H16C16.9428 2 17.4142 2 17.7071 2.29289C18 2.58579 18 3.05719 18 4V4.26756C18.2942 4.09739 18.6357 4 19 4C20.1046 4 21 4.89543 21 6V10C21 11.1046 20.1046 12 19 12C18.6144 12 18.2543 11.8909 17.9489 11.7018C17.8681 12.8439 17.6596 13.5831 17.1213 14.1213C16.324 14.9186 15.0857 14.9925 12.75 14.9993L12.75 20H15C15.5523 20 16 20.4477 16 21C16 21.5523 15.5523 22 15 22H9C8.44772 22 8 21.5523 8 21C8 20.4477 8.44772 20 9 20H11.25V15C8.91427 14.9932 7.676 14.9186 6.87868 14.1213C6.34045 13.5831 6.13191 12.8439 6.05111 11.7018C5.74569 11.8909 5.38559 12 5 12C3.89543 12 3 11.1046 3 10V6C3 4.89543 3.89543 4 5 4C5.36429 4 5.70583 4.09739 6 4.26756V4ZM8 3.5H16C16.1982 3.5 16.3588 3.50007 16.4977 3.50231C16.4999 3.64122 16.5 3.80184 16.5 4V9C16.5 10.4566 16.4968 11.3982 16.4035 12.0919C16.3161 12.7426 16.1748 12.9465 16.0607 13.0607C15.9465 13.1748 15.7426 13.3161 15.0919 13.4035C14.3982 13.4968 13.4566 13.5 12 13.5C10.5434 13.5 9.60182 13.4968 8.90806 13.4035C8.25745 13.3161 8.05353 13.1748 7.93934 13.0607C7.82515 12.9465 7.68393 12.7426 7.59646 12.0919C7.50319 11.3982 7.5 10.4566 7.5 9V4C7.5 3.80184 7.50007 3.64122 7.50231 3.50231C7.64122 3.50007 7.80184 3.5 8 3.5ZM18.5 6V10C18.5 10.2761 18.7239 10.5 19 10.5C19.2761 10.5 19.5 10.2761 19.5 10V6C19.5 5.72386 19.2761 5.5 19 5.5C18.7239 5.5 18.5 5.72386 18.5 6ZM5.5 6V10C5.5 10.2761 5.27614 10.5 5 10.5C4.72386 10.5 4.5 10.2761 4.5 10V6C4.5 5.72386 4.72386 5.5 5 5.5C5.27614 5.5 5.5 5.72386 5.5 6Z" fill="#FFBE45"/>
</svg>
