<svg width="21" height="14" viewBox="0 0 21 14" fill="none" xmlns="http://www.w3.org/2000/svg">
<path d="M14.1159 5.75C14.1159 6.30229 13.6681 6.75 13.1159 6.75C12.5636 6.75 12.1159 6.30229 12.1159 5.75C12.1159 5.19772 12.5636 4.75 13.1159 4.75C13.6681 4.75 14.1159 5.19772 14.1159 5.75Z" fill="#FFBE45"/>
<path d="M16.1159 7.75C16.1159 8.30229 15.6681 8.75 15.1159 8.75C14.5636 8.75 14.1159 8.30229 14.1159 7.75C14.1159 7.19772 14.5636 6.75 15.1159 6.75C15.6681 6.75 16.1159 7.19772 16.1159 7.75Z" fill="#FFBE45"/>
<path d="M7.36584 4.75C7.36584 4.33579 7.03006 4 6.61584 4C6.20163 4 5.86584 4.33579 5.86584 4.75V5.5H5.11584C4.70163 5.5 4.36584 5.83579 4.36584 6.25C4.36584 6.66421 4.70163 7 5.11584 7H5.86584V7.75C5.86584 8.16421 6.20163 8.5 6.61584 8.5C7.03006 8.5 7.36584 8.16421 7.36584 7.75V7H8.11584C8.53006 7 8.86584 6.66421 8.86584 6.25C8.86584 5.83579 8.53006 5.5 8.11584 5.5H7.36584V4.75Z" fill="#FFBE45"/>
<path fill-rule="evenodd" clip-rule="evenodd" d="M6.12018 2.25826e-07H13.6879C14.5075 -8.24119e-06 15.1713 -1.50986e-05 15.7112 0.0472289C16.2698 0.0961105 16.7601 0.199514 17.2164 0.443733C17.7168 0.711524 18.1498 1.08939 18.4829 1.54886C18.7867 1.96788 18.9556 2.4396 19.0797 2.98646C19.1997 3.51493 19.2896 4.17242 19.4006 4.9843L19.8671 8.39558C19.9746 9.18042 20.0451 9.69455 20.025 10.0557C19.8842 12.5887 17.3214 14.2539 14.9497 13.3534C14.6115 13.225 14.1704 12.9518 13.4969 12.5347L13.3901 12.4685C13.2625 12.3895 13.2188 12.3627 13.1762 12.339C12.873 12.1705 12.535 12.0743 12.1885 12.058C12.1398 12.0557 12.0885 12.0556 11.9384 12.0556H7.78279C7.68742 12.0556 7.6548 12.0556 7.6239 12.0566C7.22539 12.0684 6.83719 12.186 6.49903 12.3971C6.47281 12.4135 6.44563 12.4315 6.36627 12.4844L6.30381 12.5261C5.90998 12.7887 5.65216 12.9607 5.46013 13.0591C2.9826 14.3287 0.0341777 12.5513 0.000153105 9.7676C-0.00248409 9.55184 0.0291748 9.24358 0.0775362 8.77268L0.452583 5.11604C0.535876 4.30385 0.603265 3.64674 0.703935 3.11744C0.807972 2.57044 0.957976 2.09626 1.24198 1.67017C1.58845 1.15035 2.0593 0.725328 2.61175 0.433699C3.0646 0.194651 3.5516 0.0938104 4.10637 0.046126C4.64317 -1.43349e-05 5.30374 -7.82397e-06 6.12018 2.25826e-07ZM4.23483 1.54062C3.78045 1.57967 3.51642 1.65231 3.312 1.76022C2.98052 1.9352 2.69802 2.19021 2.49013 2.5021C2.36193 2.69445 2.26273 2.94969 2.17752 3.39771C2.09031 3.85623 2.02886 4.44904 1.94134 5.30234L1.57737 8.85105C1.51897 9.42053 1.49862 9.6326 1.50004 9.74927C1.52046 11.4195 3.28951 12.4859 4.77603 11.7241C4.87987 11.6709 5.0579 11.5539 5.53422 11.2364L5.54293 11.2306C5.61035 11.1856 5.65699 11.1545 5.70448 11.1249C6.26808 10.7729 6.91509 10.577 7.57927 10.5572C7.63514 10.5556 7.6911 10.5556 7.77192 10.5556H11.955C12.0824 10.5555 12.1707 10.5555 12.2589 10.5597C12.8363 10.5868 13.3997 10.7471 13.905 11.028C13.9822 11.0709 14.0572 11.1173 14.1656 11.1844L14.1796 11.1931C14.9945 11.6975 15.2993 11.8816 15.4821 11.9511C16.9051 12.4914 18.4428 11.4923 18.5273 9.97246C18.5382 9.77717 18.4938 9.42388 18.3639 8.47441L17.9191 5.22155C17.8023 4.36792 17.7207 3.77551 17.6169 3.31847C17.5157 2.87248 17.4063 2.61937 17.2685 2.42932C17.0687 2.15364 16.8088 1.92691 16.5086 1.76624C16.3016 1.65547 16.036 1.58138 15.5804 1.54152C15.1136 1.50067 14.5155 1.5 13.654 1.5H6.15361C5.29584 1.5 4.69985 1.50064 4.23483 1.54062Z" fill="#FFBE45"/>
</svg>
