<svg width="268" height="80" viewBox="0 0 268 80" fill="none" xmlns="http://www.w3.org/2000/svg">
<rect opacity="0.7" width="268" height="80" rx="12" fill="white"/>
<g opacity="0.7">
<path d="M11.7249 25.5001H24.2749C25.5583 25.5001 26.3583 24.1084 25.7166 23.0001L19.4416 12.1584C18.7999 11.0501 17.1999 11.0501 16.5583 12.1584L10.2833 23.0001C9.6416 24.1084 10.4416 25.5001 11.7249 25.5001ZM17.9999 19.6667C17.5416 19.6667 17.1666 19.2917 17.1666 18.8334V17.1667C17.1666 16.7084 17.5416 16.3334 17.9999 16.3334C18.4583 16.3334 18.8333 16.7084 18.8333 17.1667V18.8334C18.8333 19.2917 18.4583 19.6667 17.9999 19.6667ZM18.8333 23.0001H17.1666V21.3334H18.8333V23.0001Z" fill="#1A73E9"/>
</g>
<rect x="208" y="44" width="52" height="28" rx="8" fill="white" stroke="url(#paint0_linear)" stroke-width="2"/>
<rect x="212" y="48" width="44" height="20" rx="4" fill="#1A73E9"/>
<path opacity="0.7" d="M41.7373 12.6621H39.4521V19H38.5195V12.6621H36.2393V11.8906H41.7373V12.6621ZM43.5537 14.3564C43.9541 13.8649 44.4749 13.6191 45.1162 13.6191C46.2327 13.6191 46.7959 14.249 46.8057 15.5088V19H45.9023V15.5039C45.8991 15.123 45.8112 14.8415 45.6387 14.6592C45.4694 14.4769 45.2041 14.3857 44.8428 14.3857C44.5498 14.3857 44.2926 14.4639 44.0713 14.6201C43.8499 14.7764 43.6774 14.9814 43.5537 15.2354V19H42.6504V11.5H43.5537V14.3564ZM49.1396 19H48.2363V13.7168H49.1396V19ZM48.1631 12.3154C48.1631 12.1689 48.207 12.0452 48.2949 11.9443C48.3861 11.8434 48.5195 11.793 48.6953 11.793C48.8711 11.793 49.0046 11.8434 49.0957 11.9443C49.1868 12.0452 49.2324 12.1689 49.2324 12.3154C49.2324 12.4619 49.1868 12.584 49.0957 12.6816C49.0046 12.7793 48.8711 12.8281 48.6953 12.8281C48.5195 12.8281 48.3861 12.7793 48.2949 12.6816C48.207 12.584 48.1631 12.4619 48.1631 12.3154ZM53.666 17.5986C53.666 17.3545 53.5732 17.1657 53.3877 17.0322C53.2054 16.8955 52.8848 16.7783 52.4258 16.6807C51.9701 16.583 51.6071 16.4658 51.3369 16.3291C51.07 16.1924 50.8714 16.0296 50.7412 15.8408C50.6143 15.652 50.5508 15.4274 50.5508 15.167C50.5508 14.734 50.7331 14.3678 51.0977 14.0684C51.4655 13.7689 51.9342 13.6191 52.5039 13.6191C53.1029 13.6191 53.5879 13.7738 53.959 14.083C54.3333 14.3923 54.5205 14.7878 54.5205 15.2695H53.6123C53.6123 15.0221 53.5065 14.8089 53.2949 14.6299C53.0866 14.4508 52.8229 14.3613 52.5039 14.3613C52.1751 14.3613 51.918 14.4329 51.7324 14.5762C51.5469 14.7194 51.4541 14.9066 51.4541 15.1377C51.4541 15.3558 51.5404 15.5202 51.7129 15.6309C51.8854 15.7415 52.1963 15.8473 52.6455 15.9482C53.098 16.0492 53.4642 16.1696 53.7441 16.3096C54.0241 16.4495 54.2308 16.6188 54.3643 16.8174C54.501 17.0127 54.5693 17.252 54.5693 17.5352C54.5693 18.0072 54.3805 18.3864 54.0029 18.6729C53.6253 18.9561 53.1354 19.0977 52.5332 19.0977C52.11 19.0977 51.7357 19.0228 51.4102 18.873C51.0846 18.7233 50.8291 18.515 50.6436 18.248C50.4613 17.9779 50.3701 17.6865 50.3701 17.374H51.2734C51.2897 17.6768 51.4102 17.9176 51.6348 18.0967C51.8626 18.2725 52.1621 18.3604 52.5332 18.3604C52.875 18.3604 53.1484 18.292 53.3535 18.1553C53.5618 18.0153 53.666 17.8298 53.666 17.5986ZM59.4521 12.4375V13.7168H60.4385V14.415H59.4521V17.6914C59.4521 17.903 59.4961 18.0625 59.584 18.1699C59.6719 18.2741 59.8216 18.3262 60.0332 18.3262C60.1374 18.3262 60.2806 18.3066 60.4629 18.2676V19C60.2253 19.0651 59.9941 19.0977 59.7695 19.0977C59.3659 19.0977 59.0615 18.9756 58.8564 18.7314C58.6514 18.4873 58.5488 18.1406 58.5488 17.6914V14.415H57.5869V13.7168H58.5488V12.4375H59.4521ZM63.2266 17.6768L64.457 13.7168H65.4238L63.2998 19.8154C62.971 20.6943 62.4486 21.1338 61.7324 21.1338L61.5615 21.1191L61.2246 21.0557V20.3232L61.4688 20.3428C61.7747 20.3428 62.0124 20.2809 62.1816 20.1572C62.3542 20.0335 62.4958 19.8073 62.6064 19.4785L62.8066 18.9414L60.9219 13.7168H61.9082L63.2266 17.6768ZM70.6973 16.417C70.6973 17.221 70.5133 17.8688 70.1455 18.3604C69.7777 18.8519 69.2796 19.0977 68.6514 19.0977C68.0101 19.0977 67.5055 18.8942 67.1377 18.4873V21.0312H66.2344V13.7168H67.0596L67.1035 14.3027C67.4714 13.847 67.9824 13.6191 68.6367 13.6191C69.2715 13.6191 69.7728 13.8584 70.1406 14.3369C70.5117 14.8154 70.6973 15.4811 70.6973 16.334V16.417ZM69.7939 16.3145C69.7939 15.7188 69.667 15.2484 69.4131 14.9033C69.1592 14.5583 68.8109 14.3857 68.3682 14.3857C67.8213 14.3857 67.4111 14.6283 67.1377 15.1133V17.6377C67.4079 18.1195 67.8213 18.3604 68.3779 18.3604C68.8109 18.3604 69.1543 18.1895 69.4082 17.8477C69.6654 17.5026 69.7939 16.9915 69.7939 16.3145ZM74.042 19.0977C73.3258 19.0977 72.7432 18.8633 72.2939 18.3945C71.8447 17.9225 71.6201 17.2926 71.6201 16.5049V16.3389C71.6201 15.8148 71.7194 15.3477 71.918 14.9375C72.1198 14.5241 72.3997 14.2018 72.7578 13.9707C73.1191 13.7363 73.5098 13.6191 73.9297 13.6191C74.6165 13.6191 75.1504 13.8454 75.5312 14.2979C75.9121 14.7503 76.1025 15.3981 76.1025 16.2412V16.6172H72.5234C72.5365 17.138 72.6878 17.5596 72.9775 17.8818C73.2705 18.2008 73.6416 18.3604 74.0908 18.3604C74.4098 18.3604 74.68 18.2952 74.9014 18.165C75.1227 18.0348 75.3164 17.8623 75.4824 17.6475L76.0342 18.0771C75.5915 18.7575 74.9274 19.0977 74.042 19.0977ZM73.9297 14.3613C73.5651 14.3613 73.2591 14.4948 73.0117 14.7617C72.7643 15.0254 72.6113 15.3965 72.5527 15.875H75.1992V15.8066C75.1732 15.3477 75.0495 14.9928 74.8281 14.7422C74.6068 14.4883 74.3073 14.3613 73.9297 14.3613ZM79.3936 16.3096C79.3936 15.792 79.4945 15.3265 79.6963 14.9131C79.9014 14.4997 80.1846 14.1807 80.5459 13.9561C80.9105 13.7314 81.3255 13.6191 81.791 13.6191C82.5104 13.6191 83.0915 13.8682 83.5342 14.3662C83.9801 14.8643 84.2031 15.5267 84.2031 16.3535V16.417C84.2031 16.9313 84.1038 17.3936 83.9053 17.8037C83.71 18.2106 83.4284 18.528 83.0605 18.7559C82.696 18.9837 82.276 19.0977 81.8008 19.0977C81.0846 19.0977 80.5036 18.8486 80.0576 18.3506C79.6149 17.8525 79.3936 17.1934 79.3936 16.373V16.3096ZM80.3018 16.417C80.3018 17.0029 80.4368 17.4733 80.707 17.8281C80.9805 18.1829 81.3451 18.3604 81.8008 18.3604C82.2598 18.3604 82.6243 18.1813 82.8945 17.8232C83.1647 17.4619 83.2998 16.9574 83.2998 16.3096C83.2998 15.7301 83.1615 15.2614 82.8848 14.9033C82.6113 14.542 82.2467 14.3613 81.791 14.3613C81.3451 14.3613 80.9854 14.5387 80.7119 14.8936C80.4385 15.2484 80.3018 15.7562 80.3018 16.417ZM85.7803 19V14.415H84.9453V13.7168H85.7803V13.1748C85.7803 12.6084 85.9316 12.1706 86.2344 11.8613C86.5371 11.5521 86.9652 11.3975 87.5186 11.3975C87.7269 11.3975 87.9336 11.4251 88.1387 11.4805L88.0898 12.2129C87.9368 12.1836 87.7741 12.1689 87.6016 12.1689C87.3086 12.1689 87.0824 12.2552 86.9229 12.4277C86.7633 12.597 86.6836 12.8411 86.6836 13.1602V13.7168H87.8115V14.415H86.6836V19H85.7803ZM91.5957 19V14.415H90.7607V13.7168H91.5957V13.2676C91.5957 12.6784 91.7633 12.2194 92.0986 11.8906C92.4372 11.5618 92.9141 11.3975 93.5293 11.3975C93.8939 11.3975 94.3545 11.4967 94.9111 11.6953L94.7598 12.457C94.3529 12.2943 93.9655 12.2129 93.5977 12.2129C93.2103 12.2129 92.9303 12.3008 92.7578 12.4766C92.5885 12.6491 92.5039 12.9095 92.5039 13.2578V13.7168H93.583V14.415H92.5039V19H91.5957ZM95.3604 19H94.4521V13.7168H95.3604V19ZM97.8115 19H96.9082V11.5H97.8115V19ZM101.454 19.0977C100.738 19.0977 100.155 18.8633 99.7061 18.3945C99.2568 17.9225 99.0322 17.2926 99.0322 16.5049V16.3389C99.0322 15.8148 99.1315 15.3477 99.3301 14.9375C99.5319 14.5241 99.8118 14.2018 100.17 13.9707C100.531 13.7363 100.922 13.6191 101.342 13.6191C102.029 13.6191 102.562 13.8454 102.943 14.2979C103.324 14.7503 103.515 15.3981 103.515 16.2412V16.6172H99.9355C99.9486 17.138 100.1 17.5596 100.39 17.8818C100.683 18.2008 101.054 18.3604 101.503 18.3604C101.822 18.3604 102.092 18.2952 102.313 18.165C102.535 18.0348 102.729 17.8623 102.895 17.6475L103.446 18.0771C103.004 18.7575 102.34 19.0977 101.454 19.0977ZM101.342 14.3613C100.977 14.3613 100.671 14.4948 100.424 14.7617C100.176 15.0254 100.023 15.3965 99.9648 15.875H102.611V15.8066C102.585 15.3477 102.462 14.9928 102.24 14.7422C102.019 14.4883 101.719 14.3613 101.342 14.3613ZM109.164 18.3604C109.486 18.3604 109.768 18.2627 110.009 18.0674C110.25 17.8721 110.383 17.6279 110.409 17.335H111.264C111.247 17.6377 111.143 17.9258 110.951 18.1992C110.759 18.4727 110.502 18.6908 110.18 18.8535C109.861 19.0163 109.522 19.0977 109.164 19.0977C108.445 19.0977 107.872 18.8584 107.445 18.3799C107.022 17.8981 106.811 17.2406 106.811 16.4072V16.2559C106.811 15.7415 106.905 15.2842 107.094 14.8838C107.283 14.4834 107.553 14.1725 107.904 13.9512C108.259 13.7298 108.677 13.6191 109.159 13.6191C109.752 13.6191 110.243 13.7965 110.634 14.1514C111.028 14.5062 111.238 14.9668 111.264 15.5332H110.409C110.383 15.1914 110.253 14.9115 110.019 14.6934C109.787 14.472 109.501 14.3613 109.159 14.3613C108.7 14.3613 108.344 14.5273 108.09 14.8594C107.839 15.1882 107.714 15.665 107.714 16.29V16.4609C107.714 17.0697 107.839 17.5384 108.09 17.8672C108.34 18.196 108.699 18.3604 109.164 18.3604ZM115.541 19C115.489 18.8958 115.447 18.7103 115.414 18.4434C114.994 18.8796 114.493 19.0977 113.91 19.0977C113.389 19.0977 112.961 18.9512 112.626 18.6582C112.294 18.362 112.128 17.9876 112.128 17.5352C112.128 16.985 112.336 16.5586 112.753 16.2559C113.173 15.9499 113.762 15.7969 114.521 15.7969H115.399V15.3818C115.399 15.0661 115.305 14.8154 115.116 14.6299C114.927 14.4411 114.649 14.3467 114.281 14.3467C113.959 14.3467 113.689 14.4281 113.471 14.5908C113.253 14.7536 113.144 14.9505 113.144 15.1816H112.235C112.235 14.918 112.328 14.6641 112.514 14.4199C112.702 14.1725 112.956 13.9772 113.275 13.834C113.598 13.6908 113.951 13.6191 114.335 13.6191C114.944 13.6191 115.421 13.7721 115.766 14.0781C116.111 14.3809 116.29 14.7992 116.303 15.333V17.7646C116.303 18.2497 116.365 18.6354 116.488 18.9219V19H115.541ZM114.042 18.3115C114.325 18.3115 114.594 18.2383 114.848 18.0918C115.102 17.9453 115.285 17.7549 115.399 17.5205V16.4365H114.691C113.585 16.4365 113.031 16.7604 113.031 17.4082C113.031 17.6914 113.126 17.9128 113.314 18.0723C113.503 18.2318 113.746 18.3115 114.042 18.3115ZM118.573 13.7168L118.603 14.3809C119.006 13.873 119.534 13.6191 120.185 13.6191C121.301 13.6191 121.864 14.249 121.874 15.5088V19H120.971V15.5039C120.967 15.123 120.88 14.8415 120.707 14.6592C120.538 14.4769 120.272 14.3857 119.911 14.3857C119.618 14.3857 119.361 14.4639 119.14 14.6201C118.918 14.7764 118.746 14.9814 118.622 15.2354V19H117.719V13.7168H118.573ZM126.62 14.3564C127.021 13.8649 127.541 13.6191 128.183 13.6191C129.299 13.6191 129.862 14.249 129.872 15.5088V19H128.969V15.5039C128.965 15.123 128.878 14.8415 128.705 14.6592C128.536 14.4769 128.271 14.3857 127.909 14.3857C127.616 14.3857 127.359 14.4639 127.138 14.6201C126.916 14.7764 126.744 14.9814 126.62 15.2354V19H125.717V11.5H126.62V14.3564ZM134.486 19C134.434 18.8958 134.392 18.7103 134.359 18.4434C133.939 18.8796 133.438 19.0977 132.855 19.0977C132.335 19.0977 131.907 18.9512 131.571 18.6582C131.239 18.362 131.073 17.9876 131.073 17.5352C131.073 16.985 131.282 16.5586 131.698 16.2559C132.118 15.9499 132.707 15.7969 133.466 15.7969H134.345V15.3818C134.345 15.0661 134.25 14.8154 134.062 14.6299C133.873 14.4411 133.594 14.3467 133.227 14.3467C132.904 14.3467 132.634 14.4281 132.416 14.5908C132.198 14.7536 132.089 14.9505 132.089 15.1816H131.181C131.181 14.918 131.273 14.6641 131.459 14.4199C131.648 14.1725 131.902 13.9772 132.221 13.834C132.543 13.6908 132.896 13.6191 133.28 13.6191C133.889 13.6191 134.366 13.7721 134.711 14.0781C135.056 14.3809 135.235 14.7992 135.248 15.333V17.7646C135.248 18.2497 135.31 18.6354 135.434 18.9219V19H134.486ZM132.987 18.3115C133.271 18.3115 133.539 18.2383 133.793 18.0918C134.047 17.9453 134.231 17.7549 134.345 17.5205V16.4365H133.637C132.53 16.4365 131.977 16.7604 131.977 17.4082C131.977 17.6914 132.071 17.9128 132.26 18.0723C132.449 18.2318 132.691 18.3115 132.987 18.3115ZM139.218 14.5273C139.081 14.5046 138.933 14.4932 138.773 14.4932C138.181 14.4932 137.779 14.7454 137.567 15.25V19H136.664V13.7168H137.543L137.558 14.3271C137.854 13.8551 138.274 13.6191 138.817 13.6191C138.993 13.6191 139.127 13.6419 139.218 13.6875V14.5273ZM140.902 13.7168L140.927 14.3027C141.314 13.847 141.837 13.6191 142.494 13.6191C143.233 13.6191 143.736 13.9023 144.003 14.4688C144.179 14.2148 144.407 14.0098 144.687 13.8535C144.97 13.6973 145.303 13.6191 145.688 13.6191C146.846 13.6191 147.436 14.2327 147.455 15.46V19H146.552V15.5137C146.552 15.1361 146.465 14.8545 146.293 14.6689C146.12 14.4801 145.831 14.3857 145.424 14.3857C145.089 14.3857 144.81 14.4867 144.589 14.6885C144.368 14.887 144.239 15.1556 144.203 15.4941V19H143.295V15.5381C143.295 14.7699 142.919 14.3857 142.167 14.3857C141.575 14.3857 141.169 14.638 140.951 15.1426V19H140.048V13.7168H140.902ZM153.031 17.6768L154.262 13.7168H155.229L153.104 19.8154C152.776 20.6943 152.253 21.1338 151.537 21.1338L151.366 21.1191L151.029 21.0557V20.3232L151.273 20.3428C151.579 20.3428 151.817 20.2809 151.986 20.1572C152.159 20.0335 152.3 19.8073 152.411 19.4785L152.611 18.9414L150.727 13.7168H151.713L153.031 17.6768ZM155.722 16.3096C155.722 15.792 155.823 15.3265 156.024 14.9131C156.229 14.4997 156.513 14.1807 156.874 13.9561C157.239 13.7314 157.654 13.6191 158.119 13.6191C158.839 13.6191 159.42 13.8682 159.862 14.3662C160.308 14.8643 160.531 15.5267 160.531 16.3535V16.417C160.531 16.9313 160.432 17.3936 160.233 17.8037C160.038 18.2106 159.757 18.528 159.389 18.7559C159.024 18.9837 158.604 19.0977 158.129 19.0977C157.413 19.0977 156.832 18.8486 156.386 18.3506C155.943 17.8525 155.722 17.1934 155.722 16.373V16.3096ZM156.63 16.417C156.63 17.0029 156.765 17.4733 157.035 17.8281C157.309 18.1829 157.673 18.3604 158.129 18.3604C158.588 18.3604 158.952 18.1813 159.223 17.8232C159.493 17.4619 159.628 16.9574 159.628 16.3096C159.628 15.7301 159.49 15.2614 159.213 14.9033C158.939 14.542 158.575 14.3613 158.119 14.3613C157.673 14.3613 157.313 14.5387 157.04 14.8936C156.767 15.2484 156.63 15.7562 156.63 16.417ZM164.926 18.4775C164.574 18.891 164.058 19.0977 163.378 19.0977C162.815 19.0977 162.385 18.9349 162.089 18.6094C161.796 18.2806 161.648 17.7956 161.645 17.1543V13.7168H162.548V17.1299C162.548 17.9307 162.873 18.3311 163.524 18.3311C164.215 18.3311 164.674 18.0739 164.901 17.5596V13.7168H165.805V19H164.945L164.926 18.4775ZM169.735 14.5273C169.599 14.5046 169.451 14.4932 169.291 14.4932C168.699 14.4932 168.297 14.7454 168.085 15.25V19H167.182V13.7168H168.061L168.075 14.3271C168.371 13.8551 168.791 13.6191 169.335 13.6191C169.511 13.6191 169.644 13.6419 169.735 13.6875V14.5273ZM172.831 16.3145C172.831 15.5039 173.023 14.8529 173.407 14.3613C173.791 13.8665 174.294 13.6191 174.916 13.6191C175.535 13.6191 176.024 13.8307 176.386 14.2539V11.5H177.289V19H176.459L176.415 18.4336C176.054 18.8763 175.551 19.0977 174.906 19.0977C174.294 19.0977 173.795 18.847 173.407 18.3457C173.023 17.8444 172.831 17.1901 172.831 16.3828V16.3145ZM173.734 16.417C173.734 17.016 173.858 17.4847 174.105 17.8232C174.353 18.1618 174.695 18.3311 175.131 18.3311C175.704 18.3311 176.122 18.0739 176.386 17.5596V15.1328C176.116 14.6348 175.701 14.3857 175.141 14.3857C174.698 14.3857 174.353 14.5566 174.105 14.8984C173.858 15.2402 173.734 15.7464 173.734 16.417ZM180.888 19.0977C180.172 19.0977 179.589 18.8633 179.14 18.3945C178.69 17.9225 178.466 17.2926 178.466 16.5049V16.3389C178.466 15.8148 178.565 15.3477 178.764 14.9375C178.965 14.5241 179.245 14.2018 179.604 13.9707C179.965 13.7363 180.355 13.6191 180.775 13.6191C181.462 13.6191 181.996 13.8454 182.377 14.2979C182.758 14.7503 182.948 15.3981 182.948 16.2412V16.6172H179.369C179.382 17.138 179.534 17.5596 179.823 17.8818C180.116 18.2008 180.487 18.3604 180.937 18.3604C181.256 18.3604 181.526 18.2952 181.747 18.165C181.968 18.0348 182.162 17.8623 182.328 17.6475L182.88 18.0771C182.437 18.7575 181.773 19.0977 180.888 19.0977ZM180.775 14.3613C180.411 14.3613 180.105 14.4948 179.857 14.7617C179.61 15.0254 179.457 15.3965 179.398 15.875H182.045V15.8066C182.019 15.3477 181.895 14.9928 181.674 14.7422C181.452 14.4883 181.153 14.3613 180.775 14.3613ZM185.673 17.7744L186.981 13.7168H187.904L186.01 19H185.321L183.407 13.7168H184.33L185.673 17.7744ZM189.755 19H188.852V13.7168H189.755V19ZM188.778 12.3154C188.778 12.1689 188.822 12.0452 188.91 11.9443C189.001 11.8434 189.135 11.793 189.311 11.793C189.486 11.793 189.62 11.8434 189.711 11.9443C189.802 12.0452 189.848 12.1689 189.848 12.3154C189.848 12.4619 189.802 12.584 189.711 12.6816C189.62 12.7793 189.486 12.8281 189.311 12.8281C189.135 12.8281 189.001 12.7793 188.91 12.6816C188.822 12.584 188.778 12.4619 188.778 12.3154ZM193.324 18.3604C193.646 18.3604 193.928 18.2627 194.169 18.0674C194.41 17.8721 194.543 17.6279 194.569 17.335H195.424C195.408 17.6377 195.303 17.9258 195.111 18.1992C194.919 18.4727 194.662 18.6908 194.34 18.8535C194.021 19.0163 193.682 19.0977 193.324 19.0977C192.605 19.0977 192.032 18.8584 191.605 18.3799C191.182 17.8981 190.971 17.2406 190.971 16.4072V16.2559C190.971 15.7415 191.065 15.2842 191.254 14.8838C191.443 14.4834 191.713 14.1725 192.064 13.9512C192.419 13.7298 192.838 13.6191 193.319 13.6191C193.912 13.6191 194.403 13.7965 194.794 14.1514C195.188 14.5062 195.398 14.9668 195.424 15.5332H194.569C194.543 15.1914 194.413 14.9115 194.179 14.6934C193.948 14.472 193.661 14.3613 193.319 14.3613C192.86 14.3613 192.504 14.5273 192.25 14.8594C191.999 15.1882 191.874 15.665 191.874 16.29V16.4609C191.874 17.0697 191.999 17.5384 192.25 17.8672C192.501 18.196 192.859 18.3604 193.324 18.3604ZM198.632 19.0977C197.916 19.0977 197.333 18.8633 196.884 18.3945C196.435 17.9225 196.21 17.2926 196.21 16.5049V16.3389C196.21 15.8148 196.309 15.3477 196.508 14.9375C196.71 14.5241 196.99 14.2018 197.348 13.9707C197.709 13.7363 198.1 13.6191 198.52 13.6191C199.206 13.6191 199.74 13.8454 200.121 14.2979C200.502 14.7503 200.692 15.3981 200.692 16.2412V16.6172H197.113C197.126 17.138 197.278 17.5596 197.567 17.8818C197.86 18.2008 198.231 18.3604 198.681 18.3604C199 18.3604 199.27 18.2952 199.491 18.165C199.713 18.0348 199.906 17.8623 200.072 17.6475L200.624 18.0771C200.181 18.7575 199.517 19.0977 198.632 19.0977ZM198.52 14.3613C198.155 14.3613 197.849 14.4948 197.602 14.7617C197.354 15.0254 197.201 15.3965 197.143 15.875H199.789V15.8066C199.763 15.3477 199.639 14.9928 199.418 14.7422C199.197 14.4883 198.897 14.3613 198.52 14.3613ZM201.762 18.5264C201.762 18.3701 201.807 18.2399 201.898 18.1357C201.993 18.0316 202.133 17.9795 202.318 17.9795C202.504 17.9795 202.644 18.0316 202.738 18.1357C202.836 18.2399 202.885 18.3701 202.885 18.5264C202.885 18.6761 202.836 18.8014 202.738 18.9023C202.644 19.0033 202.504 19.0537 202.318 19.0537C202.133 19.0537 201.993 19.0033 201.898 18.9023C201.807 18.8014 201.762 18.6761 201.762 18.5264ZM207.001 19V11.8906H209.008C209.626 11.8906 210.173 12.0273 210.648 12.3008C211.124 12.5742 211.49 12.9632 211.747 13.4678C212.007 13.9723 212.139 14.5518 212.143 15.2061V15.6602C212.143 16.3307 212.012 16.9183 211.752 17.4229C211.495 17.9274 211.125 18.3148 210.644 18.585C210.165 18.8551 209.607 18.9935 208.969 19H207.001ZM207.938 12.6621V18.2334H208.925C209.647 18.2334 210.209 18.0088 210.609 17.5596C211.013 17.1104 211.215 16.4707 211.215 15.6406V15.2256C211.215 14.4183 211.024 13.7917 210.644 13.3457C210.266 12.8965 209.729 12.6686 209.032 12.6621H207.938ZM213.183 16.3096C213.183 15.792 213.284 15.3265 213.485 14.9131C213.69 14.4997 213.974 14.1807 214.335 13.9561C214.7 13.7314 215.115 13.6191 215.58 13.6191C216.299 13.6191 216.881 13.8682 217.323 14.3662C217.769 14.8643 217.992 15.5267 217.992 16.3535V16.417C217.992 16.9313 217.893 17.3936 217.694 17.8037C217.499 18.2106 217.217 18.528 216.85 18.7559C216.485 18.9837 216.065 19.0977 215.59 19.0977C214.874 19.0977 214.293 18.8486 213.847 18.3506C213.404 17.8525 213.183 17.1934 213.183 16.373V16.3096ZM214.091 16.417C214.091 17.0029 214.226 17.4733 214.496 17.8281C214.77 18.1829 215.134 18.3604 215.59 18.3604C216.049 18.3604 216.413 18.1813 216.684 17.8232C216.954 17.4619 217.089 16.9574 217.089 16.3096C217.089 15.7301 216.951 15.2614 216.674 14.9033C216.4 14.542 216.036 14.3613 215.58 14.3613C215.134 14.3613 214.774 14.5387 214.501 14.8936C214.228 15.2484 214.091 15.7562 214.091 16.417ZM223.334 17.6768L224.564 13.7168H225.531L223.407 19.8154C223.078 20.6943 222.556 21.1338 221.84 21.1338L221.669 21.1191L221.332 21.0557V20.3232L221.576 20.3428C221.882 20.3428 222.12 20.2809 222.289 20.1572C222.462 20.0335 222.603 19.8073 222.714 19.4785L222.914 18.9414L221.029 13.7168H222.016L223.334 17.6768ZM226.024 16.3096C226.024 15.792 226.125 15.3265 226.327 14.9131C226.532 14.4997 226.815 14.1807 227.177 13.9561C227.541 13.7314 227.956 13.6191 228.422 13.6191C229.141 13.6191 229.722 13.8682 230.165 14.3662C230.611 14.8643 230.834 15.5267 230.834 16.3535V16.417C230.834 16.9313 230.735 17.3936 230.536 17.8037C230.341 18.2106 230.059 18.528 229.691 18.7559C229.327 18.9837 228.907 19.0977 228.432 19.0977C227.715 19.0977 227.134 18.8486 226.688 18.3506C226.246 17.8525 226.024 17.1934 226.024 16.373V16.3096ZM226.933 16.417C226.933 17.0029 227.068 17.4733 227.338 17.8281C227.611 18.1829 227.976 18.3604 228.432 18.3604C228.891 18.3604 229.255 18.1813 229.525 17.8232C229.796 17.4619 229.931 16.9574 229.931 16.3096C229.931 15.7301 229.792 15.2614 229.516 14.9033C229.242 14.542 228.878 14.3613 228.422 14.3613C227.976 14.3613 227.616 14.5387 227.343 14.8936C227.069 15.2484 226.933 15.7562 226.933 16.417ZM235.229 18.4775C234.877 18.891 234.361 19.0977 233.681 19.0977C233.118 19.0977 232.688 18.9349 232.392 18.6094C232.099 18.2806 231.951 17.7956 231.947 17.1543V13.7168H232.851V17.1299C232.851 17.9307 233.176 18.3311 233.827 18.3311C234.517 18.3311 234.976 18.0739 235.204 17.5596V13.7168H236.107V19H235.248L235.229 18.4775ZM41.3613 33.7549L42.377 29.7168H43.2803L41.7422 35H41.0098L39.7256 30.9961L38.4756 35H37.7432L36.21 29.7168H37.1084L38.1484 33.6719L39.3789 29.7168H40.1064L41.3613 33.7549ZM47.4648 35C47.4128 34.8958 47.3704 34.7103 47.3379 34.4434C46.918 34.8796 46.4167 35.0977 45.834 35.0977C45.3132 35.0977 44.8851 34.9512 44.5498 34.6582C44.2178 34.362 44.0518 33.9876 44.0518 33.5352C44.0518 32.985 44.2601 32.5586 44.6768 32.2559C45.0967 31.9499 45.6859 31.7969 46.4443 31.7969H47.3232V31.3818C47.3232 31.0661 47.2288 30.8154 47.04 30.6299C46.8512 30.4411 46.5729 30.3467 46.2051 30.3467C45.8828 30.3467 45.6126 30.4281 45.3945 30.5908C45.1764 30.7536 45.0674 30.9505 45.0674 31.1816H44.1592C44.1592 30.918 44.252 30.6641 44.4375 30.4199C44.6263 30.1725 44.8802 29.9772 45.1992 29.834C45.5215 29.6908 45.8747 29.6191 46.2588 29.6191C46.8675 29.6191 47.3444 29.7721 47.6895 30.0781C48.0345 30.3809 48.2135 30.7992 48.2266 31.333V33.7646C48.2266 34.2497 48.2884 34.6354 48.4121 34.9219V35H47.4648ZM45.9658 34.3115C46.249 34.3115 46.5176 34.2383 46.7715 34.0918C47.0254 33.9453 47.2093 33.7549 47.3232 33.5205V32.4365H46.6152C45.5085 32.4365 44.9551 32.7604 44.9551 33.4082C44.9551 33.6914 45.0495 33.9128 45.2383 34.0723C45.4271 34.2318 45.6696 34.3115 45.9658 34.3115ZM50.4971 29.7168L50.5264 30.3809C50.93 29.873 51.4574 29.6191 52.1084 29.6191C53.2249 29.6191 53.7881 30.249 53.7979 31.5088V35H52.8945V31.5039C52.8913 31.123 52.8034 30.8415 52.6309 30.6592C52.4616 30.4769 52.1963 30.3857 51.835 30.3857C51.542 30.3857 51.2848 30.4639 51.0635 30.6201C50.8421 30.7764 50.6696 30.9814 50.5459 31.2354V35H49.6426V29.7168H50.4971ZM56.3857 28.4375V29.7168H57.3721V30.415H56.3857V33.6914C56.3857 33.903 56.4297 34.0625 56.5176 34.1699C56.6055 34.2741 56.7552 34.3262 56.9668 34.3262C57.071 34.3262 57.2142 34.3066 57.3965 34.2676V35C57.1589 35.0651 56.9277 35.0977 56.7031 35.0977C56.2995 35.0977 55.9951 34.9756 55.79 34.7314C55.585 34.4873 55.4824 34.1406 55.4824 33.6914V30.415H54.5205V29.7168H55.4824V28.4375H56.3857ZM62.1377 28.4375V29.7168H63.124V30.415H62.1377V33.6914C62.1377 33.903 62.1816 34.0625 62.2695 34.1699C62.3574 34.2741 62.5072 34.3262 62.7188 34.3262C62.8229 34.3262 62.9661 34.3066 63.1484 34.2676V35C62.9108 35.0651 62.6797 35.0977 62.4551 35.0977C62.0514 35.0977 61.7471 34.9756 61.542 34.7314C61.3369 34.4873 61.2344 34.1406 61.2344 33.6914V30.415H60.2725V29.7168H61.2344V28.4375H62.1377ZM63.8467 32.3096C63.8467 31.792 63.9476 31.3265 64.1494 30.9131C64.3545 30.4997 64.6377 30.1807 64.999 29.9561C65.3636 29.7314 65.7786 29.6191 66.2441 29.6191C66.9635 29.6191 67.5446 29.8682 67.9873 30.3662C68.4333 30.8643 68.6562 31.5267 68.6562 32.3535V32.417C68.6562 32.9313 68.557 33.3936 68.3584 33.8037C68.1631 34.2106 67.8815 34.528 67.5137 34.7559C67.1491 34.9837 66.7292 35.0977 66.2539 35.0977C65.5378 35.0977 64.9567 34.8486 64.5107 34.3506C64.068 33.8525 63.8467 33.1934 63.8467 32.373V32.3096ZM64.7549 32.417C64.7549 33.0029 64.89 33.4733 65.1602 33.8281C65.4336 34.1829 65.7982 34.3604 66.2539 34.3604C66.7129 34.3604 67.0775 34.1813 67.3477 33.8232C67.6178 33.4619 67.7529 32.9574 67.7529 32.3096C67.7529 31.7301 67.6146 31.2614 67.3379 30.9033C67.0645 30.542 66.6999 30.3613 66.2441 30.3613C65.7982 30.3613 65.4385 30.5387 65.165 30.8936C64.8916 31.2484 64.7549 31.7562 64.7549 32.417ZM73.7441 32.5537L73.1777 33.1445V35H72.2744V27.5H73.1777V32.0361L73.6611 31.4551L75.3066 29.7168H76.4053L74.3496 31.9238L76.6445 35H75.585L73.7441 32.5537ZM79.4326 35.0977C78.7165 35.0977 78.1338 34.8633 77.6846 34.3945C77.2354 33.9225 77.0107 33.2926 77.0107 32.5049V32.3389C77.0107 31.8148 77.11 31.3477 77.3086 30.9375C77.5104 30.5241 77.7904 30.2018 78.1484 29.9707C78.5098 29.7363 78.9004 29.6191 79.3203 29.6191C80.0072 29.6191 80.541 29.8454 80.9219 30.2979C81.3027 30.7503 81.4932 31.3981 81.4932 32.2412V32.6172H77.9141C77.9271 33.138 78.0785 33.5596 78.3682 33.8818C78.6611 34.2008 79.0322 34.3604 79.4814 34.3604C79.8005 34.3604 80.0706 34.2952 80.292 34.165C80.5133 34.0348 80.707 33.8623 80.873 33.6475L81.4248 34.0771C80.9821 34.7575 80.318 35.0977 79.4326 35.0977ZM79.3203 30.3613C78.9557 30.3613 78.6497 30.4948 78.4023 30.7617C78.1549 31.0254 78.002 31.3965 77.9434 31.875H80.5898V31.8066C80.5638 31.3477 80.4401 30.9928 80.2188 30.7422C79.9974 30.4883 79.6979 30.3613 79.3203 30.3613ZM84.7354 35.0977C84.0192 35.0977 83.4365 34.8633 82.9873 34.3945C82.5381 33.9225 82.3135 33.2926 82.3135 32.5049V32.3389C82.3135 31.8148 82.4128 31.3477 82.6113 30.9375C82.8132 30.5241 83.0931 30.2018 83.4512 29.9707C83.8125 29.7363 84.2031 29.6191 84.623 29.6191C85.3099 29.6191 85.8438 29.8454 86.2246 30.2979C86.6055 30.7503 86.7959 31.3981 86.7959 32.2412V32.6172H83.2168C83.2298 33.138 83.3812 33.5596 83.6709 33.8818C83.9639 34.2008 84.335 34.3604 84.7842 34.3604C85.1032 34.3604 85.3734 34.2952 85.5947 34.165C85.8161 34.0348 86.0098 33.8623 86.1758 33.6475L86.7275 34.0771C86.2848 34.7575 85.6208 35.0977 84.7354 35.0977ZM84.623 30.3613C84.2585 30.3613 83.9525 30.4948 83.7051 30.7617C83.4577 31.0254 83.3047 31.3965 83.2461 31.875H85.8926V31.8066C85.8665 31.3477 85.7428 30.9928 85.5215 30.7422C85.3001 30.4883 85.0007 30.3613 84.623 30.3613ZM92.3086 32.417C92.3086 33.221 92.1247 33.8688 91.7568 34.3604C91.389 34.8519 90.891 35.0977 90.2627 35.0977C89.6214 35.0977 89.1169 34.8942 88.749 34.4873V37.0312H87.8457V29.7168H88.6709L88.7148 30.3027C89.0827 29.847 89.5938 29.6191 90.248 29.6191C90.8828 29.6191 91.3841 29.8584 91.752 30.3369C92.123 30.8154 92.3086 31.4811 92.3086 32.334V32.417ZM91.4053 32.3145C91.4053 31.7188 91.2783 31.2484 91.0244 30.9033C90.7705 30.5583 90.4222 30.3857 89.9795 30.3857C89.4326 30.3857 89.0225 30.6283 88.749 31.1133V33.6377C89.0192 34.1195 89.4326 34.3604 89.9893 34.3604C90.4222 34.3604 90.7656 34.1895 91.0195 33.8477C91.2767 33.5026 91.4053 32.9915 91.4053 32.3145ZM97.0205 32.2168V35H96.083V27.8906H98.7051C99.4831 27.8906 100.092 28.0892 100.531 28.4863C100.974 28.8835 101.195 29.4092 101.195 30.0635C101.195 30.7536 100.979 31.2858 100.546 31.6602C100.116 32.0312 99.4993 32.2168 98.6953 32.2168H97.0205ZM97.0205 31.4502H98.7051C99.2064 31.4502 99.5905 31.333 99.8574 31.0986C100.124 30.861 100.258 30.5192 100.258 30.0732C100.258 29.6501 100.124 29.3115 99.8574 29.0576C99.5905 28.8037 99.2243 28.6719 98.7588 28.6621H97.0205V31.4502ZM103.231 35H102.328V27.5H103.231V35ZM107.943 35C107.891 34.8958 107.849 34.7103 107.816 34.4434C107.396 34.8796 106.895 35.0977 106.312 35.0977C105.792 35.0977 105.364 34.9512 105.028 34.6582C104.696 34.362 104.53 33.9876 104.53 33.5352C104.53 32.985 104.739 32.5586 105.155 32.2559C105.575 31.9499 106.164 31.7969 106.923 31.7969H107.802V31.3818C107.802 31.0661 107.707 30.8154 107.519 30.6299C107.33 30.4411 107.051 30.3467 106.684 30.3467C106.361 30.3467 106.091 30.4281 105.873 30.5908C105.655 30.7536 105.546 30.9505 105.546 31.1816H104.638C104.638 30.918 104.73 30.6641 104.916 30.4199C105.105 30.1725 105.359 29.9772 105.678 29.834C106 29.6908 106.353 29.6191 106.737 29.6191C107.346 29.6191 107.823 29.7721 108.168 30.0781C108.513 30.3809 108.692 30.7992 108.705 31.333V33.7646C108.705 34.2497 108.767 34.6354 108.891 34.9219V35H107.943ZM106.444 34.3115C106.728 34.3115 106.996 34.2383 107.25 34.0918C107.504 33.9453 107.688 33.7549 107.802 33.5205V32.4365H107.094C105.987 32.4365 105.434 32.7604 105.434 33.4082C105.434 33.6914 105.528 33.9128 105.717 34.0723C105.906 34.2318 106.148 34.3115 106.444 34.3115ZM111.771 33.6768L113.002 29.7168H113.969L111.845 35.8154C111.516 36.6943 110.993 37.1338 110.277 37.1338L110.106 37.1191L109.77 37.0557V36.3232L110.014 36.3428C110.32 36.3428 110.557 36.2809 110.727 36.1572C110.899 36.0335 111.041 35.8073 111.151 35.4785L111.352 34.9414L109.467 29.7168H110.453L111.771 33.6768ZM117.855 33.5986C117.855 33.3545 117.763 33.1657 117.577 33.0322C117.395 32.8955 117.074 32.7783 116.615 32.6807C116.16 32.583 115.797 32.4658 115.526 32.3291C115.259 32.1924 115.061 32.0296 114.931 31.8408C114.804 31.652 114.74 31.4274 114.74 31.167C114.74 30.734 114.923 30.3678 115.287 30.0684C115.655 29.7689 116.124 29.6191 116.693 29.6191C117.292 29.6191 117.777 29.7738 118.148 30.083C118.523 30.3923 118.71 30.7878 118.71 31.2695H117.802C117.802 31.0221 117.696 30.8089 117.484 30.6299C117.276 30.4508 117.012 30.3613 116.693 30.3613C116.365 30.3613 116.107 30.4329 115.922 30.5762C115.736 30.7194 115.644 30.9066 115.644 31.1377C115.644 31.3558 115.73 31.5202 115.902 31.6309C116.075 31.7415 116.386 31.8473 116.835 31.9482C117.287 32.0492 117.654 32.1696 117.934 32.3096C118.214 32.4495 118.42 32.6188 118.554 32.8174C118.69 33.0127 118.759 33.252 118.759 33.5352C118.759 34.0072 118.57 34.3864 118.192 34.6729C117.815 34.9561 117.325 35.0977 116.723 35.0977C116.299 35.0977 115.925 35.0228 115.6 34.873C115.274 34.7233 115.019 34.515 114.833 34.248C114.651 33.9779 114.56 33.6865 114.56 33.374H115.463C115.479 33.6768 115.6 33.9176 115.824 34.0967C116.052 34.2725 116.352 34.3604 116.723 34.3604C117.064 34.3604 117.338 34.292 117.543 34.1553C117.751 34.0153 117.855 33.8298 117.855 33.5986ZM120.839 30.3564C121.239 29.8649 121.76 29.6191 122.401 29.6191C123.518 29.6191 124.081 30.249 124.091 31.5088V35H123.188V31.5039C123.184 31.123 123.096 30.8415 122.924 30.6592C122.755 30.4769 122.489 30.3857 122.128 30.3857C121.835 30.3857 121.578 30.4639 121.356 30.6201C121.135 30.7764 120.963 30.9814 120.839 31.2354V35H119.936V27.5H120.839V30.3564ZM126.425 35H125.521V29.7168H126.425V35ZM125.448 28.3154C125.448 28.1689 125.492 28.0452 125.58 27.9443C125.671 27.8434 125.805 27.793 125.98 27.793C126.156 27.793 126.29 27.8434 126.381 27.9443C126.472 28.0452 126.518 28.1689 126.518 28.3154C126.518 28.4619 126.472 28.584 126.381 28.6816C126.29 28.7793 126.156 28.8281 125.98 28.8281C125.805 28.8281 125.671 28.7793 125.58 28.6816C125.492 28.584 125.448 28.4619 125.448 28.3154ZM132.338 32.417C132.338 33.221 132.154 33.8688 131.786 34.3604C131.418 34.8519 130.92 35.0977 130.292 35.0977C129.651 35.0977 129.146 34.8942 128.778 34.4873V37.0312H127.875V29.7168H128.7L128.744 30.3027C129.112 29.847 129.623 29.6191 130.277 29.6191C130.912 29.6191 131.413 29.8584 131.781 30.3369C132.152 30.8154 132.338 31.4811 132.338 32.334V32.417ZM131.435 32.3145C131.435 31.7188 131.308 31.2484 131.054 30.9033C130.8 30.5583 130.451 30.3857 130.009 30.3857C129.462 30.3857 129.052 30.6283 128.778 31.1133V33.6377C129.049 34.1195 129.462 34.3604 130.019 34.3604C130.451 34.3604 130.795 34.1895 131.049 33.8477C131.306 33.5026 131.435 32.9915 131.435 32.3145ZM133.51 34.5264C133.51 34.3701 133.555 34.2399 133.646 34.1357C133.741 34.0316 133.881 33.9795 134.066 33.9795C134.252 33.9795 134.392 34.0316 134.486 34.1357C134.584 34.2399 134.633 34.3701 134.633 34.5264C134.633 34.6761 134.584 34.8014 134.486 34.9023C134.392 35.0033 134.252 35.0537 134.066 35.0537C133.881 35.0537 133.741 35.0033 133.646 34.9023C133.555 34.8014 133.51 34.6761 133.51 34.5264ZM139.389 35C139.337 34.8958 139.294 34.7103 139.262 34.4434C138.842 34.8796 138.34 35.0977 137.758 35.0977C137.237 35.0977 136.809 34.9512 136.474 34.6582C136.142 34.362 135.976 33.9876 135.976 33.5352C135.976 32.985 136.184 32.5586 136.601 32.2559C137.021 31.9499 137.61 31.7969 138.368 31.7969H139.247V31.3818C139.247 31.0661 139.153 30.8154 138.964 30.6299C138.775 30.4411 138.497 30.3467 138.129 30.3467C137.807 30.3467 137.536 30.4281 137.318 30.5908C137.1 30.7536 136.991 30.9505 136.991 31.1816H136.083C136.083 30.918 136.176 30.6641 136.361 30.4199C136.55 30.1725 136.804 29.9772 137.123 29.834C137.445 29.6908 137.799 29.6191 138.183 29.6191C138.791 29.6191 139.268 29.7721 139.613 30.0781C139.958 30.3809 140.137 30.7992 140.15 31.333V33.7646C140.15 34.2497 140.212 34.6354 140.336 34.9219V35H139.389ZM137.89 34.3115C138.173 34.3115 138.441 34.2383 138.695 34.0918C138.949 33.9453 139.133 33.7549 139.247 33.5205V32.4365H138.539C137.432 32.4365 136.879 32.7604 136.879 33.4082C136.879 33.6914 136.973 33.9128 137.162 34.0723C137.351 34.2318 137.593 34.3115 137.89 34.3115ZM146.029 32.417C146.029 33.221 145.845 33.8688 145.478 34.3604C145.11 34.8519 144.612 35.0977 143.983 35.0977C143.342 35.0977 142.838 34.8942 142.47 34.4873V37.0312H141.566V29.7168H142.392L142.436 30.3027C142.803 29.847 143.314 29.6191 143.969 29.6191C144.604 29.6191 145.105 29.8584 145.473 30.3369C145.844 30.8154 146.029 31.4811 146.029 32.334V32.417ZM145.126 32.3145C145.126 31.7188 144.999 31.2484 144.745 30.9033C144.491 30.5583 144.143 30.3857 143.7 30.3857C143.153 30.3857 142.743 30.6283 142.47 31.1133V33.6377C142.74 34.1195 143.153 34.3604 143.71 34.3604C144.143 34.3604 144.486 34.1895 144.74 33.8477C144.997 33.5026 145.126 32.9915 145.126 32.3145ZM148.656 32.5537L148.09 33.1445V35H147.187V27.5H148.09V32.0361L148.573 31.4551L150.219 29.7168H151.317L149.262 31.9238L151.557 35H150.497L148.656 32.5537ZM157.992 35C157.94 34.8958 157.898 34.7103 157.865 34.4434C157.445 34.8796 156.944 35.0977 156.361 35.0977C155.84 35.0977 155.412 34.9512 155.077 34.6582C154.745 34.362 154.579 33.9876 154.579 33.5352C154.579 32.985 154.787 32.5586 155.204 32.2559C155.624 31.9499 156.213 31.7969 156.972 31.7969H157.851V31.3818C157.851 31.0661 157.756 30.8154 157.567 30.6299C157.379 30.4411 157.1 30.3467 156.732 30.3467C156.41 30.3467 156.14 30.4281 155.922 30.5908C155.704 30.7536 155.595 30.9505 155.595 31.1816H154.687C154.687 30.918 154.779 30.6641 154.965 30.4199C155.154 30.1725 155.408 29.9772 155.727 29.834C156.049 29.6908 156.402 29.6191 156.786 29.6191C157.395 29.6191 157.872 29.7721 158.217 30.0781C158.562 30.3809 158.741 30.7992 158.754 31.333V33.7646C158.754 34.2497 158.816 34.6354 158.939 34.9219V35H157.992ZM156.493 34.3115C156.776 34.3115 157.045 34.2383 157.299 34.0918C157.553 33.9453 157.737 33.7549 157.851 33.5205V32.4365H157.143C156.036 32.4365 155.482 32.7604 155.482 33.4082C155.482 33.6914 155.577 33.9128 155.766 34.0723C155.954 34.2318 156.197 34.3115 156.493 34.3115ZM161.024 29.7168L161.054 30.3809C161.457 29.873 161.985 29.6191 162.636 29.6191C163.752 29.6191 164.315 30.249 164.325 31.5088V35H163.422V31.5039C163.419 31.123 163.331 30.8415 163.158 30.6592C162.989 30.4769 162.724 30.3857 162.362 30.3857C162.069 30.3857 161.812 30.4639 161.591 30.6201C161.369 30.7764 161.197 30.9814 161.073 31.2354V35H160.17V29.7168H161.024ZM167.416 33.6768L168.646 29.7168H169.613L167.489 35.8154C167.16 36.6943 166.638 37.1338 165.922 37.1338L165.751 37.1191L165.414 37.0557V36.3232L165.658 36.3428C165.964 36.3428 166.202 36.2809 166.371 36.1572C166.544 36.0335 166.685 35.8073 166.796 35.4785L166.996 34.9414L165.111 29.7168H166.098L167.416 33.6768ZM175.102 33.7549L176.117 29.7168H177.021L175.482 35H174.75L173.466 30.9961L172.216 35H171.483L169.95 29.7168H170.849L171.889 33.6719L173.119 29.7168H173.847L175.102 33.7549ZM181.205 35C181.153 34.8958 181.111 34.7103 181.078 34.4434C180.658 34.8796 180.157 35.0977 179.574 35.0977C179.053 35.0977 178.625 34.9512 178.29 34.6582C177.958 34.362 177.792 33.9876 177.792 33.5352C177.792 32.985 178 32.5586 178.417 32.2559C178.837 31.9499 179.426 31.7969 180.185 31.7969H181.063V31.3818C181.063 31.0661 180.969 30.8154 180.78 30.6299C180.591 30.4411 180.313 30.3467 179.945 30.3467C179.623 30.3467 179.353 30.4281 179.135 30.5908C178.917 30.7536 178.808 30.9505 178.808 31.1816H177.899C177.899 30.918 177.992 30.6641 178.178 30.4199C178.367 30.1725 178.62 29.9772 178.939 29.834C179.262 29.6908 179.615 29.6191 179.999 29.6191C180.608 29.6191 181.085 29.7721 181.43 30.0781C181.775 30.3809 181.954 30.7992 181.967 31.333V33.7646C181.967 34.2497 182.029 34.6354 182.152 34.9219V35H181.205ZM179.706 34.3115C179.989 34.3115 180.258 34.2383 180.512 34.0918C180.766 33.9453 180.95 33.7549 181.063 33.5205V32.4365H180.355C179.249 32.4365 178.695 32.7604 178.695 33.4082C178.695 33.6914 178.79 33.9128 178.979 34.0723C179.167 34.2318 179.41 34.3115 179.706 34.3115ZM185.033 33.6768L186.264 29.7168H187.23L185.106 35.8154C184.778 36.6943 184.255 37.1338 183.539 37.1338L183.368 37.1191L183.031 37.0557V36.3232L183.275 36.3428C183.581 36.3428 183.819 36.2809 183.988 36.1572C184.161 36.0335 184.302 35.8073 184.413 35.4785L184.613 34.9414L182.729 29.7168H183.715L185.033 33.6768ZM189.101 32.998C189.107 32.6107 189.151 32.3047 189.232 32.0801C189.314 31.8555 189.48 31.6064 189.73 31.333L190.37 30.6738C190.644 30.3646 190.78 30.0326 190.78 29.6777C190.78 29.3359 190.691 29.069 190.512 28.877C190.333 28.6816 190.072 28.584 189.73 28.584C189.398 28.584 189.132 28.6719 188.93 28.8477C188.728 29.0234 188.627 29.2594 188.627 29.5557H187.724C187.73 29.0283 187.917 28.6035 188.285 28.2812C188.656 27.9557 189.138 27.793 189.73 27.793C190.346 27.793 190.824 27.959 191.166 28.291C191.511 28.6198 191.684 29.0723 191.684 29.6484C191.684 30.2181 191.42 30.7796 190.893 31.333L190.36 31.8604C190.123 32.124 190.004 32.5033 190.004 32.998H189.101ZM189.062 34.5459C189.062 34.3994 189.105 34.2773 189.193 34.1797C189.285 34.0788 189.418 34.0283 189.594 34.0283C189.77 34.0283 189.903 34.0788 189.994 34.1797C190.085 34.2773 190.131 34.3994 190.131 34.5459C190.131 34.6924 190.085 34.8145 189.994 34.9121C189.903 35.0065 189.77 35.0537 189.594 35.0537C189.418 35.0537 189.285 35.0065 189.193 34.9121C189.105 34.8145 189.062 34.6924 189.062 34.5459Z" fill="black"/>
<path opacity="0.7" d="M171.055 58.7441C170.967 59.4961 170.688 60.0771 170.22 60.4873C169.754 60.8942 169.134 61.0977 168.359 61.0977C167.52 61.0977 166.846 60.7965 166.338 60.1943C165.833 59.5921 165.581 58.7865 165.581 57.7773V57.0938C165.581 56.4329 165.698 55.8519 165.933 55.3506C166.17 54.8493 166.506 54.4652 166.938 54.1982C167.371 53.9281 167.873 53.793 168.442 53.793C169.198 53.793 169.803 54.0046 170.259 54.4277C170.715 54.8477 170.98 55.4303 171.055 56.1758H170.112C170.031 55.6094 169.854 55.1992 169.58 54.9453C169.31 54.6914 168.931 54.5645 168.442 54.5645C167.843 54.5645 167.373 54.7858 167.031 55.2285C166.693 55.6712 166.523 56.3011 166.523 57.1182V57.8066C166.523 58.5781 166.685 59.1917 167.007 59.6475C167.329 60.1032 167.78 60.3311 168.359 60.3311C168.88 60.3311 169.279 60.2139 169.556 59.9795C169.836 59.7419 170.021 59.3301 170.112 58.7441H171.055ZM175.459 61C175.407 60.8958 175.365 60.7103 175.332 60.4434C174.912 60.8796 174.411 61.0977 173.828 61.0977C173.307 61.0977 172.879 60.9512 172.544 60.6582C172.212 60.362 172.046 59.9876 172.046 59.5352C172.046 58.985 172.254 58.5586 172.671 58.2559C173.091 57.9499 173.68 57.7969 174.438 57.7969H175.317V57.3818C175.317 57.0661 175.223 56.8154 175.034 56.6299C174.845 56.4411 174.567 56.3467 174.199 56.3467C173.877 56.3467 173.607 56.4281 173.389 56.5908C173.171 56.7536 173.062 56.9505 173.062 57.1816H172.153C172.153 56.918 172.246 56.6641 172.432 56.4199C172.62 56.1725 172.874 55.9772 173.193 55.834C173.516 55.6908 173.869 55.6191 174.253 55.6191C174.862 55.6191 175.339 55.7721 175.684 56.0781C176.029 56.3809 176.208 56.7992 176.221 57.333V59.7646C176.221 60.2497 176.283 60.6354 176.406 60.9219V61H175.459ZM173.96 60.3115C174.243 60.3115 174.512 60.2383 174.766 60.0918C175.02 59.9453 175.203 59.7549 175.317 59.5205V58.4365H174.609C173.503 58.4365 172.949 58.7604 172.949 59.4082C172.949 59.6914 173.044 59.9128 173.232 60.0723C173.421 60.2318 173.664 60.3115 173.96 60.3115ZM178.491 55.7168L178.521 56.3809C178.924 55.873 179.451 55.6191 180.103 55.6191C181.219 55.6191 181.782 56.249 181.792 57.5088V61H180.889V57.5039C180.885 57.123 180.798 56.8415 180.625 56.6592C180.456 56.4769 180.19 56.3857 179.829 56.3857C179.536 56.3857 179.279 56.4639 179.058 56.6201C178.836 56.7764 178.664 56.9814 178.54 57.2354V61H177.637V55.7168H178.491ZM185.273 60.3604C185.596 60.3604 185.877 60.2627 186.118 60.0674C186.359 59.8721 186.493 59.6279 186.519 59.335H187.373C187.357 59.6377 187.253 59.9258 187.061 60.1992C186.868 60.4727 186.611 60.6908 186.289 60.8535C185.97 61.0163 185.632 61.0977 185.273 61.0977C184.554 61.0977 183.981 60.8584 183.555 60.3799C183.132 59.8981 182.92 59.2406 182.92 58.4072V58.2559C182.92 57.7415 183.014 57.2842 183.203 56.8838C183.392 56.4834 183.662 56.1725 184.014 55.9512C184.368 55.7298 184.787 55.6191 185.269 55.6191C185.861 55.6191 186.353 55.7965 186.743 56.1514C187.137 56.5062 187.347 56.9668 187.373 57.5332H186.519C186.493 57.1914 186.362 56.9115 186.128 56.6934C185.897 56.472 185.61 56.3613 185.269 56.3613C184.81 56.3613 184.453 56.5273 184.199 56.8594C183.949 57.1882 183.823 57.665 183.823 58.29V58.4609C183.823 59.0697 183.949 59.5384 184.199 59.8672C184.45 60.196 184.808 60.3604 185.273 60.3604ZM190.581 61.0977C189.865 61.0977 189.282 60.8633 188.833 60.3945C188.384 59.9225 188.159 59.2926 188.159 58.5049V58.3389C188.159 57.8148 188.258 57.3477 188.457 56.9375C188.659 56.5241 188.939 56.2018 189.297 55.9707C189.658 55.7363 190.049 55.6191 190.469 55.6191C191.156 55.6191 191.689 55.8454 192.07 56.2979C192.451 56.7503 192.642 57.3981 192.642 58.2412V58.6172H189.062C189.076 59.138 189.227 59.5596 189.517 59.8818C189.81 60.2008 190.181 60.3604 190.63 60.3604C190.949 60.3604 191.219 60.2952 191.44 60.165C191.662 60.0348 191.855 59.8623 192.021 59.6475L192.573 60.0771C192.131 60.7575 191.466 61.0977 190.581 61.0977ZM190.469 56.3613C190.104 56.3613 189.798 56.4948 189.551 56.7617C189.303 57.0254 189.15 57.3965 189.092 57.875H191.738V57.8066C191.712 57.3477 191.589 56.9928 191.367 56.7422C191.146 56.4883 190.846 56.3613 190.469 56.3613ZM194.673 61H193.77V53.5H194.673V61Z" fill="#1A73E9"/>
<path d="M233.665 58.0073C233.665 58.6343 233.559 59.1821 233.348 59.6509C233.137 60.1167 232.838 60.4727 232.452 60.7188C232.065 60.9648 231.614 61.0879 231.098 61.0879C230.594 61.0879 230.147 60.9648 229.758 60.7188C229.368 60.4697 229.065 60.1167 228.848 59.6597C228.634 59.1997 228.524 58.668 228.519 58.0645V57.603C228.519 56.9878 228.625 56.4443 228.839 55.9727C229.053 55.501 229.355 55.1406 229.745 54.8916C230.137 54.6396 230.585 54.5137 231.089 54.5137C231.602 54.5137 232.053 54.6382 232.443 54.8872C232.835 55.1333 233.137 55.4922 233.348 55.9639C233.559 56.4326 233.665 56.979 233.665 57.603V58.0073ZM232.825 57.5942C232.825 56.8354 232.673 56.2539 232.368 55.8496C232.063 55.4424 231.637 55.2388 231.089 55.2388C230.556 55.2388 230.136 55.4424 229.828 55.8496C229.523 56.2539 229.367 56.8164 229.358 57.5371V58.0073C229.358 58.7427 229.512 59.3213 229.819 59.7432C230.13 60.1621 230.556 60.3716 231.098 60.3716C231.643 60.3716 232.065 60.1738 232.364 59.7783C232.663 59.3799 232.816 58.8101 232.825 58.0688V57.5942ZM236.556 58.0249L235.774 58.8379V61H234.93V54.6016H235.774V57.7656L238.617 54.6016H239.637L237.119 57.4272L239.834 61H238.824L236.556 58.0249Z" fill="white"/>
<defs>
<linearGradient id="paint0_linear" x1="208" y1="57.8228" x2="260" y2="57.8228" gradientUnits="userSpaceOnUse">
<stop stop-color="#39CEEE"/>
<stop offset="1" stop-color="#3CECCD"/>
</linearGradient>
</defs>
</svg>
