<svg width="268" height="36" viewBox="0 0 268 36" fill="none" xmlns="http://www.w3.org/2000/svg">
<rect opacity="0.7" width="268" height="36" rx="12" fill="white"/>
<g opacity="0.7">
<path d="M17.0003 23H27.0003C27.4587 23 27.8337 23.375 27.8337 23.8334C27.8337 24.2917 27.4587 24.6667 27.0003 24.6667H17.0003C16.542 24.6667 16.167 24.2917 16.167 23.8334C16.167 23.375 16.542 23 17.0003 23ZM21.1753 19.5834C20.5253 20.225 19.4753 20.225 18.8253 19.575L17.0003 17.75C16.542 17.2917 16.5503 16.55 17.0253 16.1084C17.4753 15.675 18.192 15.6917 18.6253 16.125L20.0003 17.5L25.3587 12.1417C25.8087 11.6917 26.5337 11.6917 26.9837 12.1417L27.017 12.175C27.467 12.625 27.467 13.3584 27.0087 13.8084L21.1753 19.5834Z" fill="#1A73E9"/>
</g>
<path opacity="0.7" d="M41.7627 18.2168V21H40.8252V13.8906H43.4473C44.2253 13.8906 44.834 14.0892 45.2734 14.4863C45.7161 14.8835 45.9375 15.4092 45.9375 16.0635C45.9375 16.7536 45.721 17.2858 45.2881 17.6602C44.8584 18.0312 44.2415 18.2168 43.4375 18.2168H41.7627ZM41.7627 17.4502H43.4473C43.9486 17.4502 44.3327 17.333 44.5996 17.0986C44.8665 16.861 45 16.5192 45 16.0732C45 15.6501 44.8665 15.3115 44.5996 15.0576C44.3327 14.8037 43.9665 14.6719 43.501 14.6621H41.7627V17.4502ZM47.9736 21H47.0703V13.5H47.9736V21ZM52.6855 21C52.6335 20.8958 52.5911 20.7103 52.5586 20.4434C52.1387 20.8796 51.6374 21.0977 51.0547 21.0977C50.5339 21.0977 50.1058 20.9512 49.7705 20.6582C49.4385 20.362 49.2725 19.9876 49.2725 19.5352C49.2725 18.985 49.4808 18.5586 49.8975 18.2559C50.3174 17.9499 50.9066 17.7969 51.665 17.7969H52.5439V17.3818C52.5439 17.0661 52.4495 16.8154 52.2607 16.6299C52.0719 16.4411 51.7936 16.3467 51.4258 16.3467C51.1035 16.3467 50.8333 16.4281 50.6152 16.5908C50.3971 16.7536 50.2881 16.9505 50.2881 17.1816H49.3799C49.3799 16.918 49.4727 16.6641 49.6582 16.4199C49.847 16.1725 50.1009 15.9772 50.4199 15.834C50.7422 15.6908 51.0954 15.6191 51.4795 15.6191C52.0882 15.6191 52.5651 15.7721 52.9102 16.0781C53.2552 16.3809 53.4342 16.7992 53.4473 17.333V19.7646C53.4473 20.2497 53.5091 20.6354 53.6328 20.9219V21H52.6855ZM51.1865 20.3115C51.4697 20.3115 51.7383 20.2383 51.9922 20.0918C52.2461 19.9453 52.43 19.7549 52.5439 19.5205V18.4365H51.8359C50.7292 18.4365 50.1758 18.7604 50.1758 19.4082C50.1758 19.6914 50.2702 19.9128 50.459 20.0723C50.6478 20.2318 50.8903 20.3115 51.1865 20.3115ZM56.5137 19.6768L57.7441 15.7168H58.7109L56.5869 21.8154C56.2581 22.6943 55.7357 23.1338 55.0195 23.1338L54.8486 23.1191L54.5117 23.0557V22.3232L54.7559 22.3428C55.0618 22.3428 55.2995 22.2809 55.4688 22.1572C55.6413 22.0335 55.7829 21.8073 55.8936 21.4785L56.0938 20.9414L54.209 15.7168H55.1953L56.5137 19.6768ZM62.5977 19.5986C62.5977 19.3545 62.5049 19.1657 62.3193 19.0322C62.137 18.8955 61.8164 18.7783 61.3574 18.6807C60.9017 18.583 60.5387 18.4658 60.2686 18.3291C60.0016 18.1924 59.8031 18.0296 59.6729 17.8408C59.5459 17.652 59.4824 17.4274 59.4824 17.167C59.4824 16.734 59.6647 16.3678 60.0293 16.0684C60.3971 15.7689 60.8659 15.6191 61.4355 15.6191C62.0345 15.6191 62.5195 15.7738 62.8906 16.083C63.265 16.3923 63.4521 16.7878 63.4521 17.2695H62.5439C62.5439 17.0221 62.4382 16.8089 62.2266 16.6299C62.0182 16.4508 61.7546 16.3613 61.4355 16.3613C61.1068 16.3613 60.8496 16.4329 60.6641 16.5762C60.4785 16.7194 60.3857 16.9066 60.3857 17.1377C60.3857 17.3558 60.472 17.5202 60.6445 17.6309C60.8171 17.7415 61.1279 17.8473 61.5771 17.9482C62.0296 18.0492 62.3958 18.1696 62.6758 18.3096C62.9557 18.4495 63.1624 18.6188 63.2959 18.8174C63.4326 19.0127 63.501 19.252 63.501 19.5352C63.501 20.0072 63.3122 20.3864 62.9346 20.6729C62.557 20.9561 62.0671 21.0977 61.4648 21.0977C61.0417 21.0977 60.6673 21.0228 60.3418 20.873C60.0163 20.7233 59.7607 20.515 59.5752 20.248C59.3929 19.9779 59.3018 19.6865 59.3018 19.374H60.2051C60.2214 19.6768 60.3418 19.9176 60.5664 20.0967C60.7943 20.2725 61.0938 20.3604 61.4648 20.3604C61.8066 20.3604 62.0801 20.292 62.2852 20.1553C62.4935 20.0153 62.5977 19.8298 62.5977 19.5986ZM65.5811 16.3564C65.9814 15.8649 66.5023 15.6191 67.1436 15.6191C68.2601 15.6191 68.8232 16.249 68.833 17.5088V21H67.9297V17.5039C67.9264 17.123 67.8385 16.8415 67.666 16.6592C67.4967 16.4769 67.2314 16.3857 66.8701 16.3857C66.5771 16.3857 66.32 16.4639 66.0986 16.6201C65.8773 16.7764 65.7048 16.9814 65.5811 17.2354V21H64.6777V13.5H65.5811V16.3564ZM71.167 21H70.2637V15.7168H71.167V21ZM70.1904 14.3154C70.1904 14.1689 70.2344 14.0452 70.3223 13.9443C70.4134 13.8434 70.5469 13.793 70.7227 13.793C70.8984 13.793 71.0319 13.8434 71.123 13.9443C71.2142 14.0452 71.2598 14.1689 71.2598 14.3154C71.2598 14.4619 71.2142 14.584 71.123 14.6816C71.0319 14.7793 70.8984 14.8281 70.7227 14.8281C70.5469 14.8281 70.4134 14.7793 70.3223 14.6816C70.2344 14.584 70.1904 14.4619 70.1904 14.3154ZM77.0801 18.417C77.0801 19.221 76.8962 19.8688 76.5283 20.3604C76.1605 20.8519 75.6624 21.0977 75.0342 21.0977C74.3929 21.0977 73.8883 20.8942 73.5205 20.4873V23.0312H72.6172V15.7168H73.4424L73.4863 16.3027C73.8542 15.847 74.3652 15.6191 75.0195 15.6191C75.6543 15.6191 76.1556 15.8584 76.5234 16.3369C76.8945 16.8154 77.0801 17.4811 77.0801 18.334V18.417ZM76.1768 18.3145C76.1768 17.7188 76.0498 17.2484 75.7959 16.9033C75.542 16.5583 75.1937 16.3857 74.751 16.3857C74.2041 16.3857 73.7939 16.6283 73.5205 17.1133V19.6377C73.7907 20.1195 74.2041 20.3604 74.7607 20.3604C75.1937 20.3604 75.5371 20.1895 75.791 19.8477C76.0482 19.5026 76.1768 18.9915 76.1768 18.3145ZM78.252 20.5264C78.252 20.3701 78.2975 20.2399 78.3887 20.1357C78.4831 20.0316 78.623 19.9795 78.8086 19.9795C78.9941 19.9795 79.1341 20.0316 79.2285 20.1357C79.3262 20.2399 79.375 20.3701 79.375 20.5264C79.375 20.6761 79.3262 20.8014 79.2285 20.9023C79.1341 21.0033 78.9941 21.0537 78.8086 21.0537C78.623 21.0537 78.4831 21.0033 78.3887 20.9023C78.2975 20.8014 78.252 20.6761 78.252 20.5264ZM84.1309 21C84.0788 20.8958 84.0365 20.7103 84.0039 20.4434C83.584 20.8796 83.0827 21.0977 82.5 21.0977C81.9792 21.0977 81.5511 20.9512 81.2158 20.6582C80.8838 20.362 80.7178 19.9876 80.7178 19.5352C80.7178 18.985 80.9261 18.5586 81.3428 18.2559C81.7627 17.9499 82.3519 17.7969 83.1104 17.7969H83.9893V17.3818C83.9893 17.0661 83.8949 16.8154 83.7061 16.6299C83.5173 16.4411 83.2389 16.3467 82.8711 16.3467C82.5488 16.3467 82.2786 16.4281 82.0605 16.5908C81.8424 16.7536 81.7334 16.9505 81.7334 17.1816H80.8252C80.8252 16.918 80.918 16.6641 81.1035 16.4199C81.2923 16.1725 81.5462 15.9772 81.8652 15.834C82.1875 15.6908 82.5407 15.6191 82.9248 15.6191C83.5335 15.6191 84.0104 15.7721 84.3555 16.0781C84.7005 16.3809 84.8796 16.7992 84.8926 17.333V19.7646C84.8926 20.2497 84.9544 20.6354 85.0781 20.9219V21H84.1309ZM82.6318 20.3115C82.915 20.3115 83.1836 20.2383 83.4375 20.0918C83.6914 19.9453 83.8753 19.7549 83.9893 19.5205V18.4365H83.2812C82.1745 18.4365 81.6211 18.7604 81.6211 19.4082C81.6211 19.6914 81.7155 19.9128 81.9043 20.0723C82.0931 20.2318 82.3356 20.3115 82.6318 20.3115ZM90.7715 18.417C90.7715 19.221 90.5876 19.8688 90.2197 20.3604C89.8519 20.8519 89.3538 21.0977 88.7256 21.0977C88.0843 21.0977 87.5798 20.8942 87.2119 20.4873V23.0312H86.3086V15.7168H87.1338L87.1777 16.3027C87.5456 15.847 88.0566 15.6191 88.7109 15.6191C89.3457 15.6191 89.847 15.8584 90.2148 16.3369C90.5859 16.8154 90.7715 17.4811 90.7715 18.334V18.417ZM89.8682 18.3145C89.8682 17.7188 89.7412 17.2484 89.4873 16.9033C89.2334 16.5583 88.8851 16.3857 88.4424 16.3857C87.8955 16.3857 87.4854 16.6283 87.2119 17.1133V19.6377C87.4821 20.1195 87.8955 20.3604 88.4521 20.3604C88.8851 20.3604 89.2285 20.1895 89.4824 19.8477C89.7396 19.5026 89.8682 18.9915 89.8682 18.3145ZM93.3984 18.5537L92.832 19.1445V21H91.9287V13.5H92.832V18.0361L93.3154 17.4551L94.9609 15.7168H96.0596L94.0039 17.9238L96.2988 21H95.2393L93.3984 18.5537Z" fill="black"/>
<rect x="220" y="4" width="40" height="28" rx="8" fill="white" stroke="url(#paint0_linear)" stroke-width="2"/>
<path d="M234.294 17.6748C234.294 18.3714 234.177 18.9801 233.942 19.501C233.708 20.0186 233.376 20.4141 232.946 20.6875C232.517 20.9609 232.015 21.0977 231.442 21.0977C230.882 21.0977 230.386 20.9609 229.953 20.6875C229.52 20.4108 229.183 20.0186 228.942 19.5107C228.705 18.9997 228.583 18.4089 228.576 17.7383V17.2256C228.576 16.542 228.695 15.9382 228.933 15.4141C229.17 14.89 229.506 14.4896 229.938 14.2129C230.375 13.9329 230.873 13.793 231.433 13.793C232.002 13.793 232.504 13.9313 232.937 14.208C233.373 14.4814 233.708 14.8802 233.942 15.4043C234.177 15.9251 234.294 16.5322 234.294 17.2256V17.6748ZM233.361 17.2158C233.361 16.3727 233.192 15.7266 232.854 15.2773C232.515 14.8249 232.041 14.5986 231.433 14.5986C230.84 14.5986 230.373 14.8249 230.031 15.2773C229.693 15.7266 229.519 16.3516 229.509 17.1523V17.6748C229.509 18.4919 229.68 19.1348 230.021 19.6035C230.367 20.069 230.84 20.3018 231.442 20.3018C232.048 20.3018 232.517 20.082 232.849 19.6426C233.181 19.1999 233.352 18.5667 233.361 17.7432V17.2158ZM240.021 18.417C240.021 19.221 239.838 19.8688 239.47 20.3604C239.102 20.8519 238.604 21.0977 237.976 21.0977C237.334 21.0977 236.83 20.8942 236.462 20.4873V23.0312H235.559V15.7168H236.384L236.428 16.3027C236.796 15.847 237.307 15.6191 237.961 15.6191C238.596 15.6191 239.097 15.8584 239.465 16.3369C239.836 16.8154 240.021 17.4811 240.021 18.334V18.417ZM239.118 18.3145C239.118 17.7188 238.991 17.2484 238.737 16.9033C238.483 16.5583 238.135 16.3857 237.692 16.3857C237.146 16.3857 236.735 16.6283 236.462 17.1133V19.6377C236.732 20.1195 237.146 20.3604 237.702 20.3604C238.135 20.3604 238.479 20.1895 238.732 19.8477C238.99 19.5026 239.118 18.9915 239.118 18.3145ZM243.366 21.0977C242.65 21.0977 242.067 20.8633 241.618 20.3945C241.169 19.9225 240.944 19.2926 240.944 18.5049V18.3389C240.944 17.8148 241.044 17.3477 241.242 16.9375C241.444 16.5241 241.724 16.2018 242.082 15.9707C242.443 15.7363 242.834 15.6191 243.254 15.6191C243.941 15.6191 244.475 15.8454 244.855 16.2979C245.236 16.7503 245.427 17.3981 245.427 18.2412V18.6172H241.848C241.861 19.138 242.012 19.5596 242.302 19.8818C242.595 20.2008 242.966 20.3604 243.415 20.3604C243.734 20.3604 244.004 20.2952 244.226 20.165C244.447 20.0348 244.641 19.8623 244.807 19.6475L245.358 20.0771C244.916 20.7575 244.252 21.0977 243.366 21.0977ZM243.254 16.3613C242.889 16.3613 242.583 16.4948 242.336 16.7617C242.089 17.0254 241.936 17.3965 241.877 17.875H244.523V17.8066C244.497 17.3477 244.374 16.9928 244.152 16.7422C243.931 16.4883 243.632 16.3613 243.254 16.3613ZM247.331 15.7168L247.36 16.3809C247.764 15.873 248.291 15.6191 248.942 15.6191C250.059 15.6191 250.622 16.249 250.632 17.5088V21H249.729V17.5039C249.725 17.123 249.637 16.8415 249.465 16.6592C249.296 16.4769 249.03 16.3857 248.669 16.3857C248.376 16.3857 248.119 16.4639 247.897 16.6201C247.676 16.7764 247.504 16.9814 247.38 17.2354V21H246.477V15.7168H247.331Z" fill="#1A73E9"/>
<defs>
<linearGradient id="paint0_linear" x1="220" y1="17.8228" x2="260" y2="17.8228" gradientUnits="userSpaceOnUse">
<stop stop-color="#39CEEE"/>
<stop offset="1" stop-color="#3CECCD"/>
</linearGradient>
</defs>
</svg>
