<svg width="43" height="42" viewBox="0 0 43 42" fill="none" xmlns="http://www.w3.org/2000/svg">
<path d="M21.8348 5.4028C23.6096 8.28108 26.1702 10.6551 29.2485 12.2764C30.9013 12.9697 32.349 14.036 33.4644 15.3817C34.5798 16.7275 35.3289 18.3114 35.6459 19.9947C35.9518 21.3316 35.8569 22.7226 35.3721 24.0112C34.8873 25.2998 34.0317 26.4349 32.9017 27.2887C31.7717 28.1425 30.4121 28.6812 28.9759 28.8441C27.5397 29.0069 26.0839 28.7875 24.7725 28.2105C24.6277 28.1468 24.4658 28.1268 24.3086 28.1532C24.1514 28.1795 24.0066 28.2509 23.8938 28.3577C23.781 28.4645 23.7056 28.6015 23.6779 28.7501C23.6503 28.8988 23.6716 29.0519 23.7391 29.1887C24.4858 30.7024 25.592 32.0327 26.9714 33.076C28.3508 34.1193 29.9663 34.8475 31.6921 35.2039V36.2748H11.3053V35.2039C13.0311 34.8475 14.6466 34.1193 16.026 33.076C17.4054 32.0327 18.5116 30.7024 19.2583 29.1887C19.3258 29.0519 19.3471 28.8988 19.3194 28.7501C19.2918 28.6015 19.2164 28.4645 19.1036 28.3577C18.9908 28.2509 18.846 28.1795 18.6888 28.1532C18.5316 28.1268 18.3697 28.1468 18.2249 28.2105C16.9135 28.7875 15.4577 29.0069 14.0215 28.8441C12.5853 28.6812 11.2257 28.1425 10.0957 27.2887C8.96566 26.4349 8.1101 25.2998 7.62528 24.0112C7.14046 22.7226 7.04563 21.3316 7.35147 19.9947C7.66848 18.3114 8.41756 16.7275 9.53298 15.3817C10.6484 14.036 12.0961 12.9697 13.7489 12.2764C16.8272 10.6551 19.3878 8.28108 21.1626 5.4028C21.1968 5.34723 21.2459 5.30109 21.3049 5.26905C21.3638 5.23701 21.4307 5.22012 21.4987 5.22012C21.5667 5.22012 21.6336 5.23701 21.6925 5.26905C21.7515 5.30109 21.8006 5.34723 21.8348 5.4028Z" fill="#C85C5C"/>
<g filter="url(#filter0_iii)">
<path d="M21.8348 5.40185C23.6096 8.28013 26.1702 10.6542 29.2485 12.2754C30.9013 12.9688 32.349 14.0351 33.4644 15.3808C34.5798 16.7265 35.3289 18.3105 35.6459 19.9938C35.9518 21.3306 35.8569 22.7216 35.3721 24.0102C34.8873 25.2989 34.0317 26.434 32.9017 27.2878C31.7717 28.1416 30.4121 28.6803 28.9759 28.8431C27.5397 29.006 26.0839 28.7865 24.7725 28.2095C24.6277 28.1459 24.4658 28.1259 24.3086 28.1522C24.1514 28.1786 24.0066 28.2499 23.8938 28.3567C23.781 28.4635 23.7056 28.6005 23.6779 28.7492C23.6503 28.8978 23.6716 29.0509 23.7391 29.1877C24.4858 30.7014 25.592 32.0317 26.9714 33.0751C28.3508 34.1184 29.9663 34.8466 31.6921 35.203V36.2739H11.3053V35.203C13.0311 34.8466 14.6466 34.1184 16.026 33.0751C17.4054 32.0317 18.5116 30.7014 19.2583 29.1877C19.3258 29.0509 19.3471 28.8978 19.3194 28.7492C19.2918 28.6005 19.2164 28.4635 19.1036 28.3567C18.9908 28.2499 18.846 28.1786 18.6888 28.1522C18.5316 28.1259 18.3697 28.1459 18.2249 28.2095C16.9135 28.7865 15.4577 29.006 14.0215 28.8431C12.5853 28.6803 11.2257 28.1416 10.0957 27.2878C8.96566 26.434 8.1101 25.2989 7.62528 24.0102C7.14046 22.7216 7.04563 21.3306 7.35147 19.9938C7.66848 18.3105 8.41756 16.7265 9.53298 15.3808C10.6484 14.0351 12.0961 12.9688 13.7489 12.2754C16.8272 10.6542 19.3878 8.28013 21.1626 5.40185C21.1968 5.34629 21.2459 5.30015 21.3049 5.2681C21.3638 5.23606 21.4307 5.21918 21.4987 5.21918C21.5667 5.21918 21.6336 5.23606 21.6925 5.2681C21.7515 5.30015 21.8006 5.34629 21.8348 5.40185Z" fill="#1E1E1E" fill-opacity="0.01"/>
</g>
<defs>
<filter id="filter0_iii" x="5.84245" y="4.55251" width="30.6458" height="33.0547" filterUnits="userSpaceOnUse" color-interpolation-filters="sRGB">
<feFlood flood-opacity="0" result="BackgroundImageFix"/>
<feBlend mode="normal" in="SourceGraphic" in2="BackgroundImageFix" result="shape"/>
<feColorMatrix in="SourceAlpha" type="matrix" values="0 0 0 0 0 0 0 0 0 0 0 0 0 0 0 0 0 0 127 0" result="hardAlpha"/>
<feOffset dx="0.666666" dy="1.33333"/>
<feGaussianBlur stdDeviation="1.33333"/>
<feComposite in2="hardAlpha" operator="arithmetic" k2="-1" k3="1"/>
<feColorMatrix type="matrix" values="0 0 0 0 0 0 0 0 0 0 0 0 0 0 0 0 0 0 0.16 0"/>
<feBlend mode="normal" in2="shape" result="effect1_innerShadow"/>
<feColorMatrix in="SourceAlpha" type="matrix" values="0 0 0 0 0 0 0 0 0 0 0 0 0 0 0 0 0 0 127 0" result="hardAlpha"/>
<feOffset dx="-1.33333" dy="-0.666666"/>
<feGaussianBlur stdDeviation="0.666666"/>
<feComposite in2="hardAlpha" operator="arithmetic" k2="-1" k3="1"/>
<feColorMatrix type="matrix" values="0 0 0 0 1 0 0 0 0 1 0 0 0 0 1 0 0 0 0.12 0"/>
<feBlend mode="normal" in2="effect1_innerShadow" result="effect2_innerShadow"/>
<feColorMatrix in="SourceAlpha" type="matrix" values="0 0 0 0 0 0 0 0 0 0 0 0 0 0 0 0 0 0 127 0" result="hardAlpha"/>
<feOffset dx="-1.33333"/>
<feGaussianBlur stdDeviation="0.666666"/>
<feComposite in2="hardAlpha" operator="arithmetic" k2="-1" k3="1"/>
<feColorMatrix type="matrix" values="0 0 0 0 1 0 0 0 0 1 0 0 0 0 1 0 0 0 1 0"/>
<feBlend mode="overlay" in2="effect2_innerShadow" result="effect3_innerShadow"/>
</filter>
</defs>
</svg>
